<?xml version="1.0" encoding="utf-8"?>
<svg xmlns="http://www.w3.org/2000/svg" xmlns:xlink="http://www.w3.org/1999/xlink" width="600" height="400" viewBox="0 0 2400 1600">
<defs>
  <clipPath id="clip630">
    <rect x="0" y="0" width="2400" height="1600"/>
  </clipPath>
</defs>
<path clip-path="url(#clip630)" d="M0 1600 L2400 1600 L2400 0 L0 0  Z" fill="#ffffff" fill-rule="evenodd" fill-opacity="1"/>
<defs>
  <clipPath id="clip631">
    <rect x="219" y="123" width="2134" height="1301"/>
  </clipPath>
</defs>
<path clip-path="url(#clip630)" d="M272.297 1423.18 L2352.76 1423.18 L2352.76 123.472 L272.297 123.472  Z" fill="#ffffff" fill-rule="evenodd" fill-opacity="1"/>
<defs>
  <clipPath id="clip632">
    <rect x="272" y="123" width="2081" height="1301"/>
  </clipPath>
</defs>
<polyline clip-path="url(#clip632)" style="stroke:#000000; stroke-linecap:round; stroke-linejoin:round; stroke-width:2; stroke-opacity:0.1; fill:none" points="524.2,1423.18 524.2,123.472 "/>
<polyline clip-path="url(#clip632)" style="stroke:#000000; stroke-linecap:round; stroke-linejoin:round; stroke-width:2; stroke-opacity:0.1; fill:none" points="845.959,1423.18 845.959,123.472 "/>
<polyline clip-path="url(#clip632)" style="stroke:#000000; stroke-linecap:round; stroke-linejoin:round; stroke-width:2; stroke-opacity:0.1; fill:none" points="1167.72,1423.18 1167.72,123.472 "/>
<polyline clip-path="url(#clip632)" style="stroke:#000000; stroke-linecap:round; stroke-linejoin:round; stroke-width:2; stroke-opacity:0.1; fill:none" points="1489.48,1423.18 1489.48,123.472 "/>
<polyline clip-path="url(#clip632)" style="stroke:#000000; stroke-linecap:round; stroke-linejoin:round; stroke-width:2; stroke-opacity:0.1; fill:none" points="1811.24,1423.18 1811.24,123.472 "/>
<polyline clip-path="url(#clip632)" style="stroke:#000000; stroke-linecap:round; stroke-linejoin:round; stroke-width:2; stroke-opacity:0.1; fill:none" points="2133,1423.18 2133,123.472 "/>
<polyline clip-path="url(#clip632)" style="stroke:#000000; stroke-linecap:round; stroke-linejoin:round; stroke-width:2; stroke-opacity:0.1; fill:none" points="272.297,1262.52 2352.76,1262.52 "/>
<polyline clip-path="url(#clip632)" style="stroke:#000000; stroke-linecap:round; stroke-linejoin:round; stroke-width:2; stroke-opacity:0.1; fill:none" points="272.297,906.512 2352.76,906.512 "/>
<polyline clip-path="url(#clip632)" style="stroke:#000000; stroke-linecap:round; stroke-linejoin:round; stroke-width:2; stroke-opacity:0.1; fill:none" points="272.297,550.503 2352.76,550.503 "/>
<polyline clip-path="url(#clip632)" style="stroke:#000000; stroke-linecap:round; stroke-linejoin:round; stroke-width:2; stroke-opacity:0.1; fill:none" points="272.297,194.495 2352.76,194.495 "/>
<polyline clip-path="url(#clip630)" style="stroke:#000000; stroke-linecap:round; stroke-linejoin:round; stroke-width:4; stroke-opacity:1; fill:none" points="272.297,1423.18 2352.76,1423.18 "/>
<polyline clip-path="url(#clip630)" style="stroke:#000000; stroke-linecap:round; stroke-linejoin:round; stroke-width:4; stroke-opacity:1; fill:none" points="524.2,1423.18 524.2,1404.28 "/>
<polyline clip-path="url(#clip630)" style="stroke:#000000; stroke-linecap:round; stroke-linejoin:round; stroke-width:4; stroke-opacity:1; fill:none" points="845.959,1423.18 845.959,1404.28 "/>
<polyline clip-path="url(#clip630)" style="stroke:#000000; stroke-linecap:round; stroke-linejoin:round; stroke-width:4; stroke-opacity:1; fill:none" points="1167.72,1423.18 1167.72,1404.28 "/>
<polyline clip-path="url(#clip630)" style="stroke:#000000; stroke-linecap:round; stroke-linejoin:round; stroke-width:4; stroke-opacity:1; fill:none" points="1489.48,1423.18 1489.48,1404.28 "/>
<polyline clip-path="url(#clip630)" style="stroke:#000000; stroke-linecap:round; stroke-linejoin:round; stroke-width:4; stroke-opacity:1; fill:none" points="1811.24,1423.18 1811.24,1404.28 "/>
<polyline clip-path="url(#clip630)" style="stroke:#000000; stroke-linecap:round; stroke-linejoin:round; stroke-width:4; stroke-opacity:1; fill:none" points="2133,1423.18 2133,1404.28 "/>
<path clip-path="url(#clip630)" d="M478.263 1468.75 L507.939 1468.75 L507.939 1472.69 L478.263 1472.69 L478.263 1468.75 Z" fill="#000000" fill-rule="nonzero" fill-opacity="1" /><path clip-path="url(#clip630)" d="M518.842 1481.64 L526.48 1481.64 L526.48 1455.28 L518.17 1456.95 L518.17 1452.69 L526.434 1451.02 L531.11 1451.02 L531.11 1481.64 L538.749 1481.64 L538.749 1485.58 L518.842 1485.58 L518.842 1481.64 Z" fill="#000000" fill-rule="nonzero" fill-opacity="1" /><path clip-path="url(#clip630)" d="M558.193 1454.1 Q554.582 1454.1 552.753 1457.66 Q550.948 1461.2 550.948 1468.33 Q550.948 1475.44 552.753 1479.01 Q554.582 1482.55 558.193 1482.55 Q561.827 1482.55 563.633 1479.01 Q565.462 1475.44 565.462 1468.33 Q565.462 1461.2 563.633 1457.66 Q561.827 1454.1 558.193 1454.1 M558.193 1450.39 Q564.003 1450.39 567.059 1455 Q570.138 1459.58 570.138 1468.33 Q570.138 1477.06 567.059 1481.67 Q564.003 1486.25 558.193 1486.25 Q552.383 1486.25 549.304 1481.67 Q546.249 1477.06 546.249 1468.33 Q546.249 1459.58 549.304 1455 Q552.383 1450.39 558.193 1450.39 Z" fill="#000000" fill-rule="nonzero" fill-opacity="1" /><path clip-path="url(#clip630)" d="M845.959 1454.1 Q842.348 1454.1 840.52 1457.66 Q838.714 1461.2 838.714 1468.33 Q838.714 1475.44 840.52 1479.01 Q842.348 1482.55 845.959 1482.55 Q849.594 1482.55 851.399 1479.01 Q853.228 1475.44 853.228 1468.33 Q853.228 1461.2 851.399 1457.66 Q849.594 1454.1 845.959 1454.1 M845.959 1450.39 Q851.77 1450.39 854.825 1455 Q857.904 1459.58 857.904 1468.33 Q857.904 1477.06 854.825 1481.67 Q851.77 1486.25 845.959 1486.25 Q840.149 1486.25 837.071 1481.67 Q834.015 1477.06 834.015 1468.33 Q834.015 1459.58 837.071 1455 Q840.149 1450.39 845.959 1450.39 Z" fill="#000000" fill-rule="nonzero" fill-opacity="1" /><path clip-path="url(#clip630)" d="M1142.41 1481.64 L1150.04 1481.64 L1150.04 1455.28 L1141.73 1456.95 L1141.73 1452.69 L1150 1451.02 L1154.67 1451.02 L1154.67 1481.64 L1162.31 1481.64 L1162.31 1485.58 L1142.41 1485.58 L1142.41 1481.64 Z" fill="#000000" fill-rule="nonzero" fill-opacity="1" /><path clip-path="url(#clip630)" d="M1181.76 1454.1 Q1178.15 1454.1 1176.32 1457.66 Q1174.51 1461.2 1174.51 1468.33 Q1174.51 1475.44 1176.32 1479.01 Q1178.15 1482.55 1181.76 1482.55 Q1185.39 1482.55 1187.2 1479.01 Q1189.03 1475.44 1189.03 1468.33 Q1189.03 1461.2 1187.2 1457.66 Q1185.39 1454.1 1181.76 1454.1 M1181.76 1450.39 Q1187.57 1450.39 1190.62 1455 Q1193.7 1459.58 1193.7 1468.33 Q1193.7 1477.06 1190.62 1481.67 Q1187.57 1486.25 1181.76 1486.25 Q1175.95 1486.25 1172.87 1481.67 Q1169.81 1477.06 1169.81 1468.33 Q1169.81 1459.58 1172.87 1455 Q1175.95 1450.39 1181.76 1450.39 Z" fill="#000000" fill-rule="nonzero" fill-opacity="1" /><path clip-path="url(#clip630)" d="M1468.25 1481.64 L1484.57 1481.64 L1484.57 1485.58 L1462.63 1485.58 L1462.63 1481.64 Q1465.29 1478.89 1469.87 1474.26 Q1474.48 1469.61 1475.66 1468.27 Q1477.9 1465.74 1478.78 1464.01 Q1479.69 1462.25 1479.69 1460.56 Q1479.69 1457.8 1477.74 1456.07 Q1475.82 1454.33 1472.72 1454.33 Q1470.52 1454.33 1468.07 1455.09 Q1465.63 1455.86 1462.86 1457.41 L1462.86 1452.69 Q1465.68 1451.55 1468.13 1450.97 Q1470.59 1450.39 1472.63 1450.39 Q1478 1450.39 1481.19 1453.08 Q1484.38 1455.77 1484.38 1460.26 Q1484.38 1462.39 1483.57 1464.31 Q1482.79 1466.2 1480.68 1468.8 Q1480.1 1469.47 1477 1472.69 Q1473.9 1475.88 1468.25 1481.64 Z" fill="#000000" fill-rule="nonzero" fill-opacity="1" /><path clip-path="url(#clip630)" d="M1504.38 1454.1 Q1500.77 1454.1 1498.94 1457.66 Q1497.14 1461.2 1497.14 1468.33 Q1497.14 1475.44 1498.94 1479.01 Q1500.77 1482.55 1504.38 1482.55 Q1508.02 1482.55 1509.82 1479.01 Q1511.65 1475.44 1511.65 1468.33 Q1511.65 1461.2 1509.82 1457.66 Q1508.02 1454.1 1504.38 1454.1 M1504.38 1450.39 Q1510.19 1450.39 1513.25 1455 Q1516.33 1459.58 1516.33 1468.33 Q1516.33 1477.06 1513.25 1481.67 Q1510.19 1486.25 1504.38 1486.25 Q1498.57 1486.25 1495.5 1481.67 Q1492.44 1477.06 1492.44 1468.33 Q1492.44 1459.58 1495.5 1455 Q1498.57 1450.39 1504.38 1450.39 Z" fill="#000000" fill-rule="nonzero" fill-opacity="1" /><path clip-path="url(#clip630)" d="M1800.08 1466.95 Q1803.44 1467.66 1805.31 1469.93 Q1807.21 1472.2 1807.21 1475.53 Q1807.21 1480.65 1803.69 1483.45 Q1800.17 1486.25 1793.69 1486.25 Q1791.51 1486.25 1789.2 1485.81 Q1786.91 1485.39 1784.45 1484.54 L1784.45 1480.02 Q1786.4 1481.16 1788.71 1481.74 Q1791.03 1482.32 1793.55 1482.32 Q1797.95 1482.32 1800.24 1480.58 Q1802.56 1478.84 1802.56 1475.53 Q1802.56 1472.48 1800.4 1470.77 Q1798.27 1469.03 1794.45 1469.03 L1790.43 1469.03 L1790.43 1465.19 L1794.64 1465.19 Q1798.09 1465.19 1799.92 1463.82 Q1801.75 1462.43 1801.75 1459.84 Q1801.75 1457.18 1799.85 1455.77 Q1797.97 1454.33 1794.45 1454.33 Q1792.53 1454.33 1790.33 1454.75 Q1788.13 1455.16 1785.5 1456.04 L1785.5 1451.88 Q1788.16 1451.14 1790.47 1450.77 Q1792.81 1450.39 1794.87 1450.39 Q1800.19 1450.39 1803.3 1452.83 Q1806.4 1455.23 1806.4 1459.35 Q1806.4 1462.22 1804.76 1464.21 Q1803.11 1466.18 1800.08 1466.95 Z" fill="#000000" fill-rule="nonzero" fill-opacity="1" /><path clip-path="url(#clip630)" d="M1826.07 1454.1 Q1822.46 1454.1 1820.63 1457.66 Q1818.83 1461.2 1818.83 1468.33 Q1818.83 1475.44 1820.63 1479.01 Q1822.46 1482.55 1826.07 1482.55 Q1829.71 1482.55 1831.51 1479.01 Q1833.34 1475.44 1833.34 1468.33 Q1833.34 1461.2 1831.51 1457.66 Q1829.71 1454.1 1826.07 1454.1 M1826.07 1450.39 Q1831.88 1450.39 1834.94 1455 Q1838.02 1459.58 1838.02 1468.33 Q1838.02 1477.06 1834.94 1481.67 Q1831.88 1486.25 1826.07 1486.25 Q1820.26 1486.25 1817.19 1481.67 Q1814.13 1477.06 1814.13 1468.33 Q1814.13 1459.58 1817.19 1455 Q1820.26 1450.39 1826.07 1450.39 Z" fill="#000000" fill-rule="nonzero" fill-opacity="1" /><path clip-path="url(#clip630)" d="M2121.17 1455.09 L2109.36 1473.54 L2121.17 1473.54 L2121.17 1455.09 M2119.94 1451.02 L2125.82 1451.02 L2125.82 1473.54 L2130.75 1473.54 L2130.75 1477.43 L2125.82 1477.43 L2125.82 1485.58 L2121.17 1485.58 L2121.17 1477.43 L2105.57 1477.43 L2105.57 1472.92 L2119.94 1451.02 Z" fill="#000000" fill-rule="nonzero" fill-opacity="1" /><path clip-path="url(#clip630)" d="M2148.48 1454.1 Q2144.87 1454.1 2143.04 1457.66 Q2141.24 1461.2 2141.24 1468.33 Q2141.24 1475.44 2143.04 1479.01 Q2144.87 1482.55 2148.48 1482.55 Q2152.12 1482.55 2153.92 1479.01 Q2155.75 1475.44 2155.75 1468.33 Q2155.75 1461.2 2153.92 1457.66 Q2152.12 1454.1 2148.48 1454.1 M2148.48 1450.39 Q2154.29 1450.39 2157.35 1455 Q2160.43 1459.58 2160.43 1468.33 Q2160.43 1477.06 2157.35 1481.67 Q2154.29 1486.25 2148.48 1486.25 Q2142.67 1486.25 2139.59 1481.67 Q2136.54 1477.06 2136.54 1468.33 Q2136.54 1459.58 2139.59 1455 Q2142.67 1450.39 2148.48 1450.39 Z" fill="#000000" fill-rule="nonzero" fill-opacity="1" /><path clip-path="url(#clip630)" d="M1226.45 1545.45 L1206.17 1545.45 Q1206.65 1554.96 1208.84 1559 Q1211.58 1563.97 1216.32 1563.97 Q1221.1 1563.97 1223.74 1558.97 Q1226.06 1554.58 1226.45 1545.45 M1226.35 1540.03 Q1225.46 1531 1223.74 1527.81 Q1221 1522.78 1216.32 1522.78 Q1211.45 1522.78 1208.88 1527.75 Q1206.84 1531.76 1206.23 1540.03 L1226.35 1540.03 M1216.32 1518.01 Q1223.96 1518.01 1228.32 1524.76 Q1232.68 1531.47 1232.68 1543.38 Q1232.68 1555.25 1228.32 1562 Q1223.96 1568.78 1216.32 1568.78 Q1208.65 1568.78 1204.33 1562 Q1199.96 1555.25 1199.96 1543.38 Q1199.96 1531.47 1204.33 1524.76 Q1208.65 1518.01 1216.32 1518.01 Z" fill="#000000" fill-rule="nonzero" fill-opacity="1" /><path clip-path="url(#clip630)" d="M1277.18 1518.58 Q1272.92 1525.9 1270.85 1533.06 Q1268.78 1540.23 1268.78 1547.58 Q1268.78 1554.93 1270.85 1562.16 Q1272.95 1569.35 1277.18 1576.64 L1272.09 1576.64 Q1267.31 1569.16 1264.93 1561.93 Q1262.57 1554.71 1262.57 1547.58 Q1262.57 1540.48 1264.93 1533.29 Q1267.28 1526.09 1272.09 1518.58 L1277.18 1518.58 Z" fill="#000000" fill-rule="nonzero" fill-opacity="1" /><path clip-path="url(#clip630)" d="M1312 1537.81 L1312 1518.52 L1317.86 1518.52 L1317.86 1568.04 L1312 1568.04 L1312 1562.7 Q1310.15 1565.88 1307.32 1567.44 Q1304.52 1568.97 1300.57 1568.97 Q1294.11 1568.97 1290.04 1563.81 Q1286 1558.65 1286 1550.25 Q1286 1541.85 1290.04 1536.69 Q1294.11 1531.54 1300.57 1531.54 Q1304.52 1531.54 1307.32 1533.1 Q1310.15 1534.62 1312 1537.81 M1292.04 1550.25 Q1292.04 1556.71 1294.69 1560.4 Q1297.36 1564.07 1302.01 1564.07 Q1306.65 1564.07 1309.33 1560.4 Q1312 1556.71 1312 1550.25 Q1312 1543.79 1309.33 1540.13 Q1306.65 1536.44 1302.01 1536.44 Q1297.36 1536.44 1294.69 1540.13 Q1292.04 1543.79 1292.04 1550.25 Z" fill="#000000" fill-rule="nonzero" fill-opacity="1" /><path clip-path="url(#clip630)" d="M1360.41 1548.76 L1360.41 1551.62 L1333.49 1551.62 Q1333.87 1557.67 1337.11 1560.85 Q1340.39 1564 1346.22 1564 Q1349.59 1564 1352.74 1563.17 Q1355.92 1562.35 1359.04 1560.69 L1359.04 1566.23 Q1355.89 1567.57 1352.58 1568.27 Q1349.27 1568.97 1345.87 1568.97 Q1337.34 1568.97 1332.34 1564 Q1327.37 1559.04 1327.37 1550.57 Q1327.37 1541.82 1332.08 1536.69 Q1336.83 1531.54 1344.85 1531.54 Q1352.04 1531.54 1356.21 1536.18 Q1360.41 1540.8 1360.41 1548.76 M1354.56 1547.04 Q1354.49 1542.23 1351.85 1539.37 Q1349.24 1536.5 1344.91 1536.5 Q1340.01 1536.5 1337.05 1539.27 Q1334.12 1542.04 1333.68 1547.07 L1354.56 1547.04 Z" fill="#000000" fill-rule="nonzero" fill-opacity="1" /><path clip-path="url(#clip630)" d="M1393.48 1549.81 Q1393.48 1543.44 1390.84 1539.94 Q1388.23 1536.44 1383.49 1536.44 Q1378.78 1536.44 1376.14 1539.94 Q1373.53 1543.44 1373.53 1549.81 Q1373.53 1556.14 1376.14 1559.64 Q1378.78 1563.14 1383.49 1563.14 Q1388.23 1563.14 1390.84 1559.64 Q1393.48 1556.14 1393.48 1549.81 M1399.34 1563.62 Q1399.34 1572.72 1395.3 1577.15 Q1391.25 1581.6 1382.92 1581.6 Q1379.83 1581.6 1377.09 1581.13 Q1374.35 1580.68 1371.78 1579.72 L1371.78 1574.03 Q1374.35 1575.43 1376.87 1576.1 Q1379.38 1576.76 1381.99 1576.76 Q1387.75 1576.76 1390.62 1573.74 Q1393.48 1570.75 1393.48 1564.67 L1393.48 1561.77 Q1391.67 1564.92 1388.84 1566.48 Q1386 1568.04 1382.06 1568.04 Q1375.5 1568.04 1371.49 1563.05 Q1367.48 1558.05 1367.48 1549.81 Q1367.48 1541.53 1371.49 1536.53 Q1375.5 1531.54 1382.06 1531.54 Q1386 1531.54 1388.84 1533.1 Q1391.67 1534.66 1393.48 1537.81 L1393.48 1532.4 L1399.34 1532.4 L1399.34 1563.62 Z" fill="#000000" fill-rule="nonzero" fill-opacity="1" /><path clip-path="url(#clip630)" d="M1410.48 1518.58 L1415.57 1518.58 Q1420.35 1526.09 1422.7 1533.29 Q1425.09 1540.48 1425.09 1547.58 Q1425.09 1554.71 1422.7 1561.93 Q1420.35 1569.16 1415.57 1576.64 L1410.48 1576.64 Q1414.71 1569.35 1416.78 1562.16 Q1418.88 1554.93 1418.88 1547.58 Q1418.88 1540.23 1416.78 1533.06 Q1414.71 1525.9 1410.48 1518.58 Z" fill="#000000" fill-rule="nonzero" fill-opacity="1" /><polyline clip-path="url(#clip630)" style="stroke:#000000; stroke-linecap:round; stroke-linejoin:round; stroke-width:4; stroke-opacity:1; fill:none" points="272.297,1423.18 272.297,123.472 "/>
<polyline clip-path="url(#clip630)" style="stroke:#000000; stroke-linecap:round; stroke-linejoin:round; stroke-width:4; stroke-opacity:1; fill:none" points="272.297,1262.52 291.194,1262.52 "/>
<polyline clip-path="url(#clip630)" style="stroke:#000000; stroke-linecap:round; stroke-linejoin:round; stroke-width:4; stroke-opacity:1; fill:none" points="272.297,906.512 291.194,906.512 "/>
<polyline clip-path="url(#clip630)" style="stroke:#000000; stroke-linecap:round; stroke-linejoin:round; stroke-width:4; stroke-opacity:1; fill:none" points="272.297,550.503 291.194,550.503 "/>
<polyline clip-path="url(#clip630)" style="stroke:#000000; stroke-linecap:round; stroke-linejoin:round; stroke-width:4; stroke-opacity:1; fill:none" points="272.297,194.495 291.194,194.495 "/>
<path clip-path="url(#clip630)" d="M114.26 1262.97 L143.936 1262.97 L143.936 1266.91 L114.26 1266.91 L114.26 1262.97 Z" fill="#000000" fill-rule="nonzero" fill-opacity="1" /><path clip-path="url(#clip630)" d="M158.056 1275.87 L174.376 1275.87 L174.376 1279.8 L152.431 1279.8 L152.431 1275.87 Q155.093 1273.11 159.677 1268.48 Q164.283 1263.83 165.464 1262.49 Q167.709 1259.96 168.589 1258.23 Q169.491 1256.47 169.491 1254.78 Q169.491 1252.02 167.547 1250.29 Q165.626 1248.55 162.524 1248.55 Q160.325 1248.55 157.871 1249.31 Q155.44 1250.08 152.663 1251.63 L152.663 1246.91 Q155.487 1245.77 157.94 1245.19 Q160.394 1244.62 162.431 1244.62 Q167.802 1244.62 170.996 1247.3 Q174.19 1249.99 174.19 1254.48 Q174.19 1256.61 173.38 1258.53 Q172.593 1260.43 170.487 1263.02 Q169.908 1263.69 166.806 1266.91 Q163.704 1270.1 158.056 1275.87 Z" fill="#000000" fill-rule="nonzero" fill-opacity="1" /><path clip-path="url(#clip630)" d="M194.19 1248.32 Q190.579 1248.32 188.75 1251.88 Q186.945 1255.43 186.945 1262.56 Q186.945 1269.66 188.75 1273.23 Q190.579 1276.77 194.19 1276.77 Q197.825 1276.77 199.63 1273.23 Q201.459 1269.66 201.459 1262.56 Q201.459 1255.43 199.63 1251.88 Q197.825 1248.32 194.19 1248.32 M194.19 1244.62 Q200 1244.62 203.056 1249.22 Q206.135 1253.81 206.135 1262.56 Q206.135 1271.28 203.056 1275.89 Q200 1280.47 194.19 1280.47 Q188.38 1280.47 185.301 1275.89 Q182.246 1271.28 182.246 1262.56 Q182.246 1253.81 185.301 1249.22 Q188.38 1244.62 194.19 1244.62 Z" fill="#000000" fill-rule="nonzero" fill-opacity="1" /><path clip-path="url(#clip630)" d="M224.352 1248.32 Q220.741 1248.32 218.912 1251.88 Q217.107 1255.43 217.107 1262.56 Q217.107 1269.66 218.912 1273.23 Q220.741 1276.77 224.352 1276.77 Q227.986 1276.77 229.792 1273.23 Q231.621 1269.66 231.621 1262.56 Q231.621 1255.43 229.792 1251.88 Q227.986 1248.32 224.352 1248.32 M224.352 1244.62 Q230.162 1244.62 233.218 1249.22 Q236.297 1253.81 236.297 1262.56 Q236.297 1271.28 233.218 1275.89 Q230.162 1280.47 224.352 1280.47 Q218.542 1280.47 215.463 1275.89 Q212.408 1271.28 212.408 1262.56 Q212.408 1253.81 215.463 1249.22 Q218.542 1244.62 224.352 1244.62 Z" fill="#000000" fill-rule="nonzero" fill-opacity="1" /><path clip-path="url(#clip630)" d="M114.26 906.963 L143.936 906.963 L143.936 910.899 L114.26 910.899 L114.26 906.963 Z" fill="#000000" fill-rule="nonzero" fill-opacity="1" /><path clip-path="url(#clip630)" d="M154.839 919.857 L162.477 919.857 L162.477 893.491 L154.167 895.158 L154.167 890.899 L162.431 889.232 L167.107 889.232 L167.107 919.857 L174.746 919.857 L174.746 923.792 L154.839 923.792 L154.839 919.857 Z" fill="#000000" fill-rule="nonzero" fill-opacity="1" /><path clip-path="url(#clip630)" d="M194.19 892.311 Q190.579 892.311 188.75 895.876 Q186.945 899.417 186.945 906.547 Q186.945 913.653 188.75 917.218 Q190.579 920.76 194.19 920.76 Q197.825 920.76 199.63 917.218 Q201.459 913.653 201.459 906.547 Q201.459 899.417 199.63 895.876 Q197.825 892.311 194.19 892.311 M194.19 888.607 Q200 888.607 203.056 893.214 Q206.135 897.797 206.135 906.547 Q206.135 915.274 203.056 919.88 Q200 924.463 194.19 924.463 Q188.38 924.463 185.301 919.88 Q182.246 915.274 182.246 906.547 Q182.246 897.797 185.301 893.214 Q188.38 888.607 194.19 888.607 Z" fill="#000000" fill-rule="nonzero" fill-opacity="1" /><path clip-path="url(#clip630)" d="M224.352 892.311 Q220.741 892.311 218.912 895.876 Q217.107 899.417 217.107 906.547 Q217.107 913.653 218.912 917.218 Q220.741 920.76 224.352 920.76 Q227.986 920.76 229.792 917.218 Q231.621 913.653 231.621 906.547 Q231.621 899.417 229.792 895.876 Q227.986 892.311 224.352 892.311 M224.352 888.607 Q230.162 888.607 233.218 893.214 Q236.297 897.797 236.297 906.547 Q236.297 915.274 233.218 919.88 Q230.162 924.463 224.352 924.463 Q218.542 924.463 215.463 919.88 Q212.408 915.274 212.408 906.547 Q212.408 897.797 215.463 893.214 Q218.542 888.607 224.352 888.607 Z" fill="#000000" fill-rule="nonzero" fill-opacity="1" /><path clip-path="url(#clip630)" d="M224.352 536.302 Q220.741 536.302 218.912 539.867 Q217.107 543.409 217.107 550.538 Q217.107 557.645 218.912 561.209 Q220.741 564.751 224.352 564.751 Q227.986 564.751 229.792 561.209 Q231.621 557.645 231.621 550.538 Q231.621 543.409 229.792 539.867 Q227.986 536.302 224.352 536.302 M224.352 532.598 Q230.162 532.598 233.218 537.205 Q236.297 541.788 236.297 550.538 Q236.297 559.265 233.218 563.871 Q230.162 568.455 224.352 568.455 Q218.542 568.455 215.463 563.871 Q212.408 559.265 212.408 550.538 Q212.408 541.788 215.463 537.205 Q218.542 532.598 224.352 532.598 Z" fill="#000000" fill-rule="nonzero" fill-opacity="1" /><path clip-path="url(#clip630)" d="M154.839 207.84 L162.477 207.84 L162.477 181.474 L154.167 183.141 L154.167 178.881 L162.431 177.215 L167.107 177.215 L167.107 207.84 L174.746 207.84 L174.746 211.775 L154.839 211.775 L154.839 207.84 Z" fill="#000000" fill-rule="nonzero" fill-opacity="1" /><path clip-path="url(#clip630)" d="M194.19 180.294 Q190.579 180.294 188.75 183.858 Q186.945 187.4 186.945 194.53 Q186.945 201.636 188.75 205.201 Q190.579 208.742 194.19 208.742 Q197.825 208.742 199.63 205.201 Q201.459 201.636 201.459 194.53 Q201.459 187.4 199.63 183.858 Q197.825 180.294 194.19 180.294 M194.19 176.59 Q200 176.59 203.056 181.196 Q206.135 185.78 206.135 194.53 Q206.135 203.256 203.056 207.863 Q200 212.446 194.19 212.446 Q188.38 212.446 185.301 207.863 Q182.246 203.256 182.246 194.53 Q182.246 185.78 185.301 181.196 Q188.38 176.59 194.19 176.59 Z" fill="#000000" fill-rule="nonzero" fill-opacity="1" /><path clip-path="url(#clip630)" d="M224.352 180.294 Q220.741 180.294 218.912 183.858 Q217.107 187.4 217.107 194.53 Q217.107 201.636 218.912 205.201 Q220.741 208.742 224.352 208.742 Q227.986 208.742 229.792 205.201 Q231.621 201.636 231.621 194.53 Q231.621 187.4 229.792 183.858 Q227.986 180.294 224.352 180.294 M224.352 176.59 Q230.162 176.59 233.218 181.196 Q236.297 185.78 236.297 194.53 Q236.297 203.256 233.218 207.863 Q230.162 212.446 224.352 212.446 Q218.542 212.446 215.463 207.863 Q212.408 203.256 212.408 194.53 Q212.408 185.78 215.463 181.196 Q218.542 176.59 224.352 176.59 Z" fill="#000000" fill-rule="nonzero" fill-opacity="1" /><path clip-path="url(#clip630)" d="M41.4059 887.368 L41.4059 907.642 Q50.9226 907.165 54.9649 904.969 Q59.9301 902.232 59.9301 897.489 Q59.9301 892.715 54.933 890.073 Q50.5407 887.75 41.4059 887.368 M35.995 887.463 Q26.9557 888.354 23.7729 890.073 Q18.744 892.81 18.744 897.489 Q18.744 902.359 23.7092 904.937 Q27.7196 906.974 35.995 907.579 L35.995 887.463 M13.9697 897.489 Q13.9697 889.85 20.7174 885.49 Q27.4332 881.129 39.337 881.129 Q51.2091 881.129 57.9567 885.49 Q64.7362 889.85 64.7362 897.489 Q64.7362 905.16 57.9567 909.488 Q51.2091 913.849 39.337 913.849 Q27.4332 913.849 20.7174 909.488 Q13.9697 905.16 13.9697 897.489 Z" fill="#000000" fill-rule="nonzero" fill-opacity="1" /><path clip-path="url(#clip630)" d="M14.479 896.853 L14.479 890.996 L21.895 890.996 L21.895 896.853 L14.479 896.853 M27.4968 893.861 L27.4968 893.861 Z" fill="#000000" fill-rule="nonzero" fill-opacity="1" /><path clip-path="url(#clip630)" d="M14.5426 836.633 Q21.8632 840.898 29.0246 842.967 Q36.186 845.036 43.5384 845.036 Q50.8908 845.036 58.1159 842.967 Q65.3091 840.866 72.5979 836.633 L72.5979 841.726 Q65.1182 846.5 57.8931 848.887 Q50.668 851.242 43.5384 851.242 Q36.4406 851.242 29.2474 848.887 Q22.0542 846.532 14.5426 841.726 L14.5426 836.633 Z" fill="#000000" fill-rule="nonzero" fill-opacity="1" /><path clip-path="url(#clip630)" d="M33.7671 801.813 L14.479 801.813 L14.479 795.956 L64.0042 795.956 L64.0042 801.813 L58.657 801.813 Q61.8398 803.659 63.3994 806.491 Q64.9272 809.292 64.9272 813.239 Q64.9272 819.7 59.771 823.774 Q54.6147 827.816 46.212 827.816 Q37.8093 827.816 32.6531 823.774 Q27.4968 819.7 27.4968 813.239 Q27.4968 809.292 29.0564 806.491 Q30.5842 803.659 33.7671 801.813 M46.212 821.769 Q52.6732 821.769 56.3653 819.127 Q60.0256 816.454 60.0256 811.807 Q60.0256 807.16 56.3653 804.486 Q52.6732 801.813 46.212 801.813 Q39.7508 801.813 36.0905 804.486 Q32.3984 807.16 32.3984 811.807 Q32.3984 816.454 36.0905 819.127 Q39.7508 821.769 46.212 821.769 Z" fill="#000000" fill-rule="nonzero" fill-opacity="1" /><path clip-path="url(#clip630)" d="M44.7161 753.401 L47.5806 753.401 L47.5806 780.328 Q53.6281 779.946 56.8109 776.7 Q59.9619 773.421 59.9619 767.597 Q59.9619 764.223 59.1344 761.072 Q58.3069 757.889 56.6518 754.77 L62.1899 754.77 Q63.5267 757.921 64.227 761.231 Q64.9272 764.541 64.9272 767.947 Q64.9272 776.477 59.9619 781.474 Q54.9967 786.439 46.5303 786.439 Q37.7774 786.439 32.6531 781.729 Q27.4968 776.986 27.4968 768.965 Q27.4968 761.772 32.1438 757.603 Q36.7589 753.401 44.7161 753.401 M42.9973 759.258 Q38.1912 759.321 35.3266 761.963 Q32.4621 764.573 32.4621 768.902 Q32.4621 773.803 35.2312 776.763 Q38.0002 779.692 43.0292 780.137 L42.9973 759.258 Z" fill="#000000" fill-rule="nonzero" fill-opacity="1" /><path clip-path="url(#clip630)" d="M45.7664 720.331 Q39.4007 720.331 35.8996 722.973 Q32.3984 725.583 32.3984 730.326 Q32.3984 735.036 35.8996 737.678 Q39.4007 740.288 45.7664 740.288 Q52.1003 740.288 55.6014 737.678 Q59.1026 735.036 59.1026 730.326 Q59.1026 725.583 55.6014 722.973 Q52.1003 720.331 45.7664 720.331 M59.58 714.475 Q68.683 714.475 73.1071 718.517 Q77.5631 722.559 77.5631 730.899 Q77.5631 733.986 77.0857 736.723 Q76.6401 739.46 75.6852 742.039 L69.9879 742.039 Q71.3884 739.46 72.0568 736.946 Q72.7252 734.432 72.7252 731.822 Q72.7252 726.061 69.7015 723.196 Q66.7096 720.331 60.6303 720.331 L57.7339 720.331 Q60.885 722.146 62.4446 724.978 Q64.0042 727.811 64.0042 731.758 Q64.0042 738.315 59.0071 742.325 Q54.01 746.335 45.7664 746.335 Q37.491 746.335 32.4939 742.325 Q27.4968 738.315 27.4968 731.758 Q27.4968 727.811 29.0564 724.978 Q30.616 722.146 33.7671 720.331 L28.3562 720.331 L28.3562 714.475 L59.58 714.475 Z" fill="#000000" fill-rule="nonzero" fill-opacity="1" /><path clip-path="url(#clip630)" d="M16.4842 692.004 L16.4842 686.593 L70.0516 703.144 L70.0516 708.555 L16.4842 692.004 Z" fill="#000000" fill-rule="nonzero" fill-opacity="1" /><path clip-path="url(#clip630)" d="M29.4065 657.725 L34.9447 657.725 Q33.6716 660.207 33.035 662.881 Q32.3984 665.555 32.3984 668.419 Q32.3984 672.78 33.7352 674.976 Q35.072 677.14 37.7456 677.14 Q39.7826 677.14 40.9603 675.581 Q42.1061 674.021 43.1565 669.31 L43.6021 667.305 Q44.9389 661.067 47.3897 658.457 Q49.8086 655.815 54.1691 655.815 Q59.1344 655.815 62.0308 659.762 Q64.9272 663.677 64.9272 670.552 Q64.9272 673.416 64.3543 676.535 Q63.8132 679.623 62.6992 683.06 L56.6518 683.06 Q58.3387 679.814 59.198 676.663 Q60.0256 673.512 60.0256 670.424 Q60.0256 666.287 58.6251 664.059 Q57.1929 661.831 54.6147 661.831 Q52.2276 661.831 50.9545 663.454 Q49.6813 665.045 48.5037 670.488 L48.0262 672.525 Q46.8804 677.968 44.5251 680.387 Q42.138 682.806 38.0002 682.806 Q32.9713 682.806 30.2341 679.241 Q27.4968 675.676 27.4968 669.119 Q27.4968 665.873 27.9743 663.008 Q28.4517 660.144 29.4065 657.725 Z" fill="#000000" fill-rule="nonzero" fill-opacity="1" /><path clip-path="url(#clip630)" d="M14.5426 647.412 L14.5426 642.32 Q22.0542 637.545 29.2474 635.19 Q36.4406 632.803 43.5384 632.803 Q50.668 632.803 57.8931 635.19 Q65.1182 637.545 72.5979 642.32 L72.5979 647.412 Q65.3091 643.179 58.1159 641.11 Q50.8908 639.01 43.5384 639.01 Q36.186 639.01 29.0246 641.11 Q21.8632 643.179 14.5426 647.412 Z" fill="#000000" fill-rule="nonzero" fill-opacity="1" /><path clip-path="url(#clip630)" d="M891.171 18.8205 L891.171 41.5461 L901.461 41.5461 Q907.172 41.5461 910.292 38.5889 Q913.411 35.6318 913.411 30.163 Q913.411 24.7348 910.292 21.7777 Q907.172 18.8205 901.461 18.8205 L891.171 18.8205 M882.989 12.096 L901.461 12.096 Q911.628 12.096 916.814 16.714 Q922.039 21.2916 922.039 30.163 Q922.039 39.1155 916.814 43.6931 Q911.628 48.2706 901.461 48.2706 L891.171 48.2706 L891.171 72.576 L882.989 72.576 L882.989 12.096 Z" fill="#000000" fill-rule="nonzero" fill-opacity="1" /><path clip-path="url(#clip630)" d="M968.544 48.0275 L968.544 51.6733 L934.273 51.6733 Q934.759 59.3701 938.891 63.421 Q943.064 67.4314 950.477 67.4314 Q954.771 67.4314 958.781 66.3781 Q962.832 65.3249 966.802 63.2184 L966.802 70.267 Q962.791 71.9684 958.578 72.8596 Q954.366 73.7508 950.031 73.7508 Q939.175 73.7508 932.815 67.4314 Q926.495 61.1119 926.495 50.3365 Q926.495 39.1965 932.491 32.6746 Q938.526 26.1121 948.735 26.1121 Q957.89 26.1121 963.196 32.0264 Q968.544 37.9003 968.544 48.0275 M961.09 45.84 Q961.009 39.7232 957.647 36.0774 Q954.325 32.4315 948.816 32.4315 Q942.577 32.4315 938.81 35.9558 Q935.083 39.4801 934.516 45.8805 L961.09 45.84 Z" fill="#000000" fill-rule="nonzero" fill-opacity="1" /><path clip-path="url(#clip630)" d="M1018.49 45.1919 L1018.49 72.576 L1011.04 72.576 L1011.04 45.4349 Q1011.04 38.994 1008.53 35.7938 Q1006.01 32.5936 1000.99 32.5936 Q994.956 32.5936 991.472 36.4419 Q987.988 40.2903 987.988 46.9338 L987.988 72.576 L980.494 72.576 L980.494 27.2059 L987.988 27.2059 L987.988 34.2544 Q990.662 30.163 994.267 28.1376 Q997.913 26.1121 1002.65 26.1121 Q1010.47 26.1121 1014.48 30.9732 Q1018.49 35.7938 1018.49 45.1919 Z" fill="#000000" fill-rule="nonzero" fill-opacity="1" /><path clip-path="url(#clip630)" d="M1063.21 34.0924 L1063.21 9.54393 L1070.67 9.54393 L1070.67 72.576 L1063.21 72.576 L1063.21 65.7705 Q1060.86 69.8214 1057.26 71.8063 Q1053.69 73.7508 1048.67 73.7508 Q1040.45 73.7508 1035.26 67.1883 Q1030.12 60.6258 1030.12 49.9314 Q1030.12 39.2371 1035.26 32.6746 Q1040.45 26.1121 1048.67 26.1121 Q1053.69 26.1121 1057.26 28.0971 Q1060.86 30.0415 1063.21 34.0924 M1037.81 49.9314 Q1037.81 58.1548 1041.18 62.8538 Q1044.58 67.5124 1050.49 67.5124 Q1056.41 67.5124 1059.81 62.8538 Q1063.21 58.1548 1063.21 49.9314 Q1063.21 41.7081 1059.81 37.0496 Q1056.41 32.3505 1050.49 32.3505 Q1044.58 32.3505 1041.18 37.0496 Q1037.81 41.7081 1037.81 49.9314 Z" fill="#000000" fill-rule="nonzero" fill-opacity="1" /><path clip-path="url(#clip630)" d="M1085.25 54.671 L1085.25 27.2059 L1092.7 27.2059 L1092.7 54.3874 Q1092.7 60.8284 1095.22 64.0691 Q1097.73 67.2693 1102.75 67.2693 Q1108.79 67.2693 1112.27 63.421 Q1115.79 59.5726 1115.79 52.9291 L1115.79 27.2059 L1123.25 27.2059 L1123.25 72.576 L1115.79 72.576 L1115.79 65.6084 Q1113.08 69.7404 1109.47 71.7658 Q1105.91 73.7508 1101.17 73.7508 Q1093.35 73.7508 1089.3 68.8897 Q1085.25 64.0286 1085.25 54.671 M1104.01 26.1121 L1104.01 26.1121 Z" fill="#000000" fill-rule="nonzero" fill-opacity="1" /><path clip-path="url(#clip630)" d="M1138.6 9.54393 L1146.05 9.54393 L1146.05 72.576 L1138.6 72.576 L1138.6 9.54393 Z" fill="#000000" fill-rule="nonzero" fill-opacity="1" /><path clip-path="url(#clip630)" d="M1160.88 54.671 L1160.88 27.2059 L1168.33 27.2059 L1168.33 54.3874 Q1168.33 60.8284 1170.85 64.0691 Q1173.36 67.2693 1178.38 67.2693 Q1184.42 67.2693 1187.9 63.421 Q1191.42 59.5726 1191.42 52.9291 L1191.42 27.2059 L1198.88 27.2059 L1198.88 72.576 L1191.42 72.576 L1191.42 65.6084 Q1188.71 69.7404 1185.11 71.7658 Q1181.54 73.7508 1176.8 73.7508 Q1168.98 73.7508 1164.93 68.8897 Q1160.88 64.0286 1160.88 54.671 M1179.64 26.1121 L1179.64 26.1121 Z" fill="#000000" fill-rule="nonzero" fill-opacity="1" /><path clip-path="url(#clip630)" d="M1249.55 35.9153 Q1252.35 30.8922 1256.24 28.5022 Q1260.13 26.1121 1265.39 26.1121 Q1272.48 26.1121 1276.33 31.0947 Q1280.18 36.0368 1280.18 45.1919 L1280.18 72.576 L1272.69 72.576 L1272.69 45.4349 Q1272.69 38.913 1270.38 35.7533 Q1268.07 32.5936 1263.33 32.5936 Q1257.54 32.5936 1254.17 36.4419 Q1250.81 40.2903 1250.81 46.9338 L1250.81 72.576 L1243.32 72.576 L1243.32 45.4349 Q1243.32 38.8725 1241.01 35.7533 Q1238.7 32.5936 1233.88 32.5936 Q1228.17 32.5936 1224.8 36.4824 Q1221.44 40.3308 1221.44 46.9338 L1221.44 72.576 L1213.95 72.576 L1213.95 27.2059 L1221.44 27.2059 L1221.44 34.2544 Q1223.99 30.082 1227.56 28.0971 Q1231.12 26.1121 1236.02 26.1121 Q1240.97 26.1121 1244.41 28.6237 Q1247.89 31.1352 1249.55 35.9153 Z" fill="#000000" fill-rule="nonzero" fill-opacity="1" /><path clip-path="url(#clip630)" d="M1329.92 18.8205 L1329.92 41.5461 L1340.21 41.5461 Q1345.93 41.5461 1349.05 38.5889 Q1352.16 35.6318 1352.16 30.163 Q1352.16 24.7348 1349.05 21.7777 Q1345.93 18.8205 1340.21 18.8205 L1329.92 18.8205 M1321.74 12.096 L1340.21 12.096 Q1350.38 12.096 1355.57 16.714 Q1360.79 21.2916 1360.79 30.163 Q1360.79 39.1155 1355.57 43.6931 Q1350.38 48.2706 1340.21 48.2706 L1329.92 48.2706 L1329.92 72.576 L1321.74 72.576 L1321.74 12.096 Z" fill="#000000" fill-rule="nonzero" fill-opacity="1" /><path clip-path="url(#clip630)" d="M1409.16 45.1919 L1409.16 72.576 L1401.71 72.576 L1401.71 45.4349 Q1401.71 38.994 1399.2 35.7938 Q1396.68 32.5936 1391.66 32.5936 Q1385.62 32.5936 1382.14 36.4419 Q1378.66 40.2903 1378.66 46.9338 L1378.66 72.576 L1371.16 72.576 L1371.16 9.54393 L1378.66 9.54393 L1378.66 34.2544 Q1381.33 30.163 1384.94 28.1376 Q1388.58 26.1121 1393.32 26.1121 Q1401.14 26.1121 1405.15 30.9732 Q1409.16 35.7938 1409.16 45.1919 Z" fill="#000000" fill-rule="nonzero" fill-opacity="1" /><path clip-path="url(#clip630)" d="M1444.65 49.7694 Q1435.61 49.7694 1432.13 51.8354 Q1428.65 53.9013 1428.65 58.8839 Q1428.65 62.8538 1431.24 65.2034 Q1433.87 67.5124 1438.37 67.5124 Q1444.57 67.5124 1448.29 63.1374 Q1452.06 58.7219 1452.06 51.4303 L1452.06 49.7694 L1444.65 49.7694 M1459.51 46.6907 L1459.51 72.576 L1452.06 72.576 L1452.06 65.6895 Q1449.51 69.8214 1445.7 71.8063 Q1441.89 73.7508 1436.38 73.7508 Q1429.42 73.7508 1425.28 69.8619 Q1421.19 65.9325 1421.19 59.3701 Q1421.19 51.7138 1426.3 47.825 Q1431.44 43.9361 1441.61 43.9361 L1452.06 43.9361 L1452.06 43.2069 Q1452.06 38.0623 1448.66 35.2672 Q1445.29 32.4315 1439.18 32.4315 Q1435.29 32.4315 1431.6 33.3632 Q1427.92 34.295 1424.51 36.1584 L1424.51 29.2718 Q1428.6 27.692 1432.45 26.9223 Q1436.3 26.1121 1439.95 26.1121 Q1449.79 26.1121 1454.65 31.2163 Q1459.51 36.3204 1459.51 46.6907 Z" fill="#000000" fill-rule="nonzero" fill-opacity="1" /><path clip-path="url(#clip630)" d="M1503.79 28.5427 L1503.79 35.5912 Q1500.63 33.9709 1497.23 33.1607 Q1493.82 32.3505 1490.18 32.3505 Q1484.63 32.3505 1481.83 34.0519 Q1479.08 35.7533 1479.08 39.156 Q1479.08 41.7486 1481.06 43.2475 Q1483.05 44.7058 1489.04 46.0426 L1491.6 46.6097 Q1499.54 48.3111 1502.86 51.4303 Q1506.22 54.509 1506.22 60.0587 Q1506.22 66.3781 1501.2 70.0644 Q1496.21 73.7508 1487.46 73.7508 Q1483.82 73.7508 1479.85 73.0216 Q1475.92 72.3329 1471.54 70.9151 L1471.54 63.2184 Q1475.68 65.3654 1479.69 66.4591 Q1483.7 67.5124 1487.63 67.5124 Q1492.89 67.5124 1495.73 65.73 Q1498.56 63.9071 1498.56 60.6258 Q1498.56 57.5877 1496.5 55.9673 Q1494.47 54.3469 1487.55 52.8481 L1484.95 52.2405 Q1478.03 50.7821 1474.95 47.7845 Q1471.87 44.7463 1471.87 39.4801 Q1471.87 33.0797 1476.41 29.5959 Q1480.94 26.1121 1489.29 26.1121 Q1493.42 26.1121 1497.07 26.7198 Q1500.71 27.3274 1503.79 28.5427 Z" fill="#000000" fill-rule="nonzero" fill-opacity="1" /><path clip-path="url(#clip630)" d="M1556.9 48.0275 L1556.9 51.6733 L1522.63 51.6733 Q1523.11 59.3701 1527.24 63.421 Q1531.42 67.4314 1538.83 67.4314 Q1543.12 67.4314 1547.13 66.3781 Q1551.19 65.3249 1555.16 63.2184 L1555.16 70.267 Q1551.14 71.9684 1546.93 72.8596 Q1542.72 73.7508 1538.38 73.7508 Q1527.53 73.7508 1521.17 67.4314 Q1514.85 61.1119 1514.85 50.3365 Q1514.85 39.1965 1520.84 32.6746 Q1526.88 26.1121 1537.09 26.1121 Q1546.24 26.1121 1551.55 32.0264 Q1556.9 37.9003 1556.9 48.0275 M1549.44 45.84 Q1549.36 39.7232 1546 36.0774 Q1542.68 32.4315 1537.17 32.4315 Q1530.93 32.4315 1527.16 35.9558 Q1523.44 39.4801 1522.87 45.8805 L1549.44 45.84 Z" fill="#000000" fill-rule="nonzero" fill-opacity="1" /><path clip-path="url(#clip630)" d="M1604.01 18.8205 L1604.01 41.5461 L1614.3 41.5461 Q1620.01 41.5461 1623.13 38.5889 Q1626.25 35.6318 1626.25 30.163 Q1626.25 24.7348 1623.13 21.7777 Q1620.01 18.8205 1614.3 18.8205 L1604.01 18.8205 M1595.83 12.096 L1614.3 12.096 Q1624.47 12.096 1629.65 16.714 Q1634.88 21.2916 1634.88 30.163 Q1634.88 39.1155 1629.65 43.6931 Q1624.47 48.2706 1614.3 48.2706 L1604.01 48.2706 L1604.01 72.576 L1595.83 72.576 L1595.83 12.096 Z" fill="#000000" fill-rule="nonzero" fill-opacity="1" /><path clip-path="url(#clip630)" d="M1645.53 9.54393 L1652.98 9.54393 L1652.98 72.576 L1645.53 72.576 L1645.53 9.54393 Z" fill="#000000" fill-rule="nonzero" fill-opacity="1" /><path clip-path="url(#clip630)" d="M1686.16 32.4315 Q1680.17 32.4315 1676.68 37.1306 Q1673.2 41.7891 1673.2 49.9314 Q1673.2 58.0738 1676.64 62.7728 Q1680.13 67.4314 1686.16 67.4314 Q1692.12 67.4314 1695.6 62.7323 Q1699.08 58.0333 1699.08 49.9314 Q1699.08 41.8701 1695.6 37.1711 Q1692.12 32.4315 1686.16 32.4315 M1686.16 26.1121 Q1695.88 26.1121 1701.43 32.4315 Q1706.98 38.7509 1706.98 49.9314 Q1706.98 61.0714 1701.43 67.4314 Q1695.88 73.7508 1686.16 73.7508 Q1676.4 73.7508 1670.85 67.4314 Q1665.34 61.0714 1665.34 49.9314 Q1665.34 38.7509 1670.85 32.4315 Q1676.4 26.1121 1686.16 26.1121 Z" fill="#000000" fill-rule="nonzero" fill-opacity="1" /><path clip-path="url(#clip630)" d="M1726.71 14.324 L1726.71 27.2059 L1742.06 27.2059 L1742.06 32.9987 L1726.71 32.9987 L1726.71 57.6282 Q1726.71 63.1779 1728.21 64.7578 Q1729.75 66.3376 1734.41 66.3376 L1742.06 66.3376 L1742.06 72.576 L1734.41 72.576 Q1725.78 72.576 1722.5 69.3758 Q1719.22 66.1351 1719.22 57.6282 L1719.22 32.9987 L1713.75 32.9987 L1713.75 27.2059 L1719.22 27.2059 L1719.22 14.324 L1726.71 14.324 Z" fill="#000000" fill-rule="nonzero" fill-opacity="1" /><polyline clip-path="url(#clip632)" style="stroke:#009af9; stroke-linecap:round; stroke-linejoin:round; stroke-width:8; stroke-opacity:1; fill:none" points="2293.87,550.503 2292.46,581.804 2288.22,613.013 2281.16,644.183 2271.29,675.359 2258.59,706.588 2243.07,737.915 2224.71,769.384 2203.5,801.037 2179.42,832.915 2152.44,865.058 2122.55,897.5 2089.71,930.272 2053.89,963.397 2015.06,996.887 1973.19,1030.74 1928.25,1064.92 1880.2,1099.37 1829.03,1133.98 1774.73,1168.57 1717.32,1202.89 1656.83,1236.56 1593.34,1269.05 1527,1299.66 1458.01,1327.49 1386.67,1351.41 1313.4,1370.12 1238.72,1382.23 1163.29,1386.4 1087.89,1381.57 1013.36,1367.2 940.553,1343.38 870.3,1310.91 803.324,1271.12 740.213,1225.66 681.403,1176.22 627.181,1124.37 577.705,1071.38 533.031,1018.25 493.139,965.667 457.956,914.098 427.377,863.824 401.277,814.998 379.522,767.683 361.974,721.888 348.497,677.588 338.958,634.745 333.227,593.318 331.177,553.276 332.685,514.598 337.627,477.283 345.879,441.353 357.313,406.857 371.799,373.87 389.193,342.5 409.344,312.886 432.086,285.2 457.236,259.642 484.591,236.442 513.927,215.847 544.997,198.114 577.531,183.499 611.235,172.235 645.799,164.523 680.894,160.505 716.181,160.256 751.321,163.774 785.975,170.969 819.819,181.675 852.546,195.654 883.872,212.616 913.542,232.231 941.333,254.153 967.051,278.034 990.535,303.537 1011.65,330.347 1030.3,358.176 1046.4,386.765 1059.88,415.883 1070.72,445.327 1078.89,474.916 1084.38,504.487 1087.21,533.893 1087.39,562.995 1084.97,591.66 1079.97,619.756 1072.47,647.148 1062.53,673.7 1050.23,699.266 1035.67,723.695 1018.96,746.828 1000.23,768.503 979.607,788.553 957.253,806.813 933.336,823.128 908.037,837.352 881.552,849.365 854.085,859.069 825.847,866.401 797.056,871.335 767.926,873.885 738.672,874.105 709.5,872.083 680.607,867.944 652.179,861.834 624.385,853.923 597.382,844.391 571.306,833.421 546.279,821.199 522.408,807.902 499.78,793.699 478.47,778.748 458.541,763.192 440.039,747.163 423.003,730.777 407.461,714.139 393.43,697.342 380.921,680.469 369.937,663.595 360.476,646.784 352.53,630.098 346.083,613.592 341.119,597.315 337.613,581.316 335.54,565.641 334.866,550.333 335.558,535.435 337.576,520.991 340.878,507.044 345.416,493.636 351.139,480.813 357.994,468.618 365.921,457.098 374.856,446.296 384.734,436.258 395.483,427.03 407.027,418.655 419.289,411.175 432.184,404.628 445.628,399.051 459.53,394.473 473.801,390.92 488.345,388.41 503.069,386.953 517.877,386.552 532.673,387.2 547.364,388.879 561.858,391.564 576.065,395.216 589.899,399.792 603.281,405.235 616.134,411.482 628.388,418.463 639.982,426.1 650.858,434.312 660.97,443.013 670.276,452.115 678.745,461.529 686.352,471.165 693.082,480.933 698.926,490.746 703.885,500.521 707.965,510.174 711.181,519.63 713.554,528.814 715.112,537.657 715.888,546.097 715.922,554.076 715.258,561.541 713.944,568.447 712.032,574.752 709.58,580.422 706.644,585.431 703.287,589.755 699.57,593.38 695.558,596.295 691.314,598.499 686.904,599.991 682.39,600.781 677.836,600.88 673.304,600.307 668.854,599.083 664.542,597.235 660.424,594.791 656.554,591.784 652.978,588.25 649.745,584.226 646.896,579.753 644.47,574.871 642.503,569.622 641.024,564.051 640.062,558.201 639.64,552.116 639.777,545.841 640.487,539.42 641.783,532.899 643.671,526.319 646.155,519.726 649.234,513.16 652.903,506.665 657.155,500.28 661.977,494.045 667.354,487.998 673.268,482.176 679.697,476.613 686.616,471.342 693.997,466.394 701.809,461.797 710.02,457.576 718.594,453.754 727.496,450.35 736.685,447.382 746.122,444.862 755.767,442.799 765.577,441.199 775.511,440.064 785.526,439.393 795.581,439.18 805.635,439.416 815.648,440.089 825.581,441.184 835.396,442.683 845.059,444.563 854.535,446.802 863.794,449.375 872.806,452.253 881.545,455.408 889.988,458.81 898.113,462.429 905.903,466.233 913.341,470.193 920.416,474.275 927.117,478.451 933.438,482.69 939.374,486.962 944.924,491.24 950.087,495.496 954.868,499.705 959.272,503.842 963.305,507.885 966.979,511.811 970.303,515.602 973.292,519.239 975.96,522.706 978.323,525.988 980.397,529.073 982.203,531.95 983.758,534.61 985.082,537.045 986.197,539.251 987.123,541.223 987.882,542.96 988.494,544.461 988.981,545.728 989.364,546.765 989.664,547.575 989.9,548.166 990.093,548.544 990.26,548.719 990.421,548.701 990.592,548.501 990.788,548.132 991.025,547.606 991.316,546.939 991.673,546.143 992.108,545.236 992.628,544.231 993.244,543.146 993.96,541.996 994.783,540.797 995.716,539.565 996.761,538.317 997.919,537.067 999.189,535.83 1000.57,534.622 1002.06,533.456 1003.65,532.344 1005.34,531.3 1007.12,530.336 1008.98,529.46 1010.92,528.685 1012.92,528.017 1014.98,527.464 1017.08,527.034 1019.22,526.731 1021.38,526.559 1023.54,526.523 1025.71,526.624 1027.86,526.863 1029.98,527.241 1032.06,527.756 1034.08,528.406 1036.05,529.189 1037.93,530.102 1039.73,531.139 1041.43,532.296 1043.02,533.566 1044.49,534.943 1045.83,536.421 1047.03,537.991 1048.09,539.645 1048.99,541.376 1049.74,543.173 1050.31,545.03 1050.72,546.936 1050.96,548.882 1051.02,550.859 1050.89,552.857 1050.59,554.869 1050.1,556.883 1049.44,558.892 1048.59,560.887 1047.56,562.858 1046.36,564.799 1044.98,566.701 1043.43,568.557 1041.72,570.36 1039.84,572.103 1037.81,573.78 1035.64,575.386 1033.32,576.915 1030.86,578.364 1028.28,579.727 1025.58,581.003 1022.77,582.187 1019.86,583.279 1016.85,584.277 1013.76,585.179 1010.59,585.986 1007.35,586.697 1004.05,587.314 1000.7,587.838 997.302,588.271 993.872,588.616 990.416,588.875 986.939,589.052 983.45,589.151 979.955,589.175 976.462,589.13 972.975,589.02 969.501,588.851 966.045,588.627 962.612,588.354 959.205,588.037 955.828,587.683 952.485,587.297 949.178,586.884 945.91,586.45 942.681,586.001 939.493,585.542 936.348,585.078 933.244,584.614 930.182,584.154 927.161,583.704 924.18,583.268 921.238,582.849 918.333,582.45 915.462,582.076 912.625,581.728 909.817,581.41 907.037,581.123 904.282,580.868 901.547,580.648 898.832,580.463 896.131,580.314 893.442,580.2 890.762,580.121 888.087,580.077 885.415,580.068 882.742,580.09 880.066,580.144 877.384,580.227 874.692,580.338 871.99,580.473 869.274,580.631 866.544,580.808 863.796,581.002 861.03,581.209 858.245,581.428 855.44,581.654 852.615,581.884 849.768,582.115 846.901,582.343 844.013,582.567 841.105,582.781 838.179,582.984 835.235,583.172 832.274,583.342 829.299,583.492 826.312,583.618 823.314,583.719 820.309,583.793 817.298,583.836 814.284,583.848 811.272,583.826 808.262,583.769 805.26,583.677 802.267,583.547 799.288,583.38 796.325,583.175 793.383,582.931 790.465,582.649 787.574,582.329 784.713,581.97 781.887,581.574 779.098,581.142 776.35,580.674 773.645,580.172 770.988,579.637 768.38,579.07 765.825,578.473 763.325,577.848 760.883,577.197 758.501,576.521 756.181,575.823 753.925,575.104 751.735,574.367 749.612,573.613 747.558,572.846 745.574,572.066 743.66,571.277 741.819,570.481 740.049,569.678 738.353,568.872 736.729,568.065 735.178,567.258 733.701,566.453 732.295,565.652 730.962,564.857 729.701,564.068 728.51,563.289 727.389,562.519 726.338,561.759 725.354,561.012 724.438,560.278 723.587,559.558 722.801,558.853 722.077,558.162 721.416,557.487 720.814,556.828 720.272,556.185 719.787,555.558 719.358,554.948 718.983,554.353 718.661,553.775 718.391,553.211 718.171,552.663 718,552.13 717.877,551.611 717.8,551.105 717.768,550.612 717.78,550.131 717.835,549.662 717.932,549.202 718.07,548.753 718.248,548.312 718.466,547.88 718.722,547.454 719.017,547.035 719.349,546.621 719.718,546.211 720.125,545.805 720.567,545.403 721.047,545.002 721.562,544.603 722.113,544.205 722.7,543.807 723.324,543.409 723.983,543.01 724.678,542.609 725.41,542.208 726.178,541.804 726.982,541.399 727.824,540.991 728.702,540.581 729.617,540.169 730.57,539.754 731.56,539.337 732.588,538.919 733.654,538.498 734.759,538.076 735.901,537.654 737.081,537.23 738.3,536.806 739.557,536.383 740.853,535.96 742.186,535.539 743.558,535.119 744.967,534.703 746.414,534.29 747.897,533.88 749.418,533.476 750.975,533.077 752.568,532.684 754.196,532.298 755.859,531.919 757.555,531.549 759.284,531.188 761.046,530.836 762.839,530.494 764.663,530.164 766.516,529.844 768.397,529.537 770.305,529.242 772.239,528.96 774.199,528.692 776.182,528.437 778.187,528.196 780.214,527.97 782.26,527.759 784.324,527.562 786.406,527.381 788.504,527.215 790.615,527.064 792.74,526.928 794.876,526.808 797.023,526.703 799.178,526.613 801.341,526.538 803.51,526.478 805.683,526.432 807.86,526.401 810.04,526.384 812.22,526.38 814.4,526.39 816.578,526.413 818.754,526.449 820.926,526.497 823.093,526.556 825.254,526.627 827.409,526.71 829.555,526.802 831.692,526.905 833.82,527.017 835.937,527.139 838.043,527.269 840.137,527.408 842.218,527.555 844.285,527.709 846.338,527.871 848.376,528.039 850.398,528.214 852.405,528.394 854.394,528.581 856.367,528.773 858.322,528.97 860.259,529.172 862.178,529.379 864.078,529.591 865.958,529.807 867.819,530.026 869.659,530.25 871.479,530.478 873.279,530.71 875.057,530.946 876.814,531.185 878.549,531.428 880.262,531.674 881.953,531.924 883.62,532.178 885.265,532.435 886.886,532.696 888.484,532.961 890.057,533.229 891.606,533.502 893.13,533.778 894.629,534.058 896.103,534.342 897.55,534.63 898.972,534.923 900.367,535.219 901.735,535.52 903.075,535.825 904.388,536.135 905.672,536.449 906.928,536.767 908.155,537.09 909.352,537.417 910.52,537.748 911.658,538.084 912.765,538.425 913.841,538.769 914.886,539.118 915.899,539.471 916.88,539.829 917.828,540.19 918.744,540.555 919.627,540.924 920.476,541.296 921.291,541.672 922.072,542.051 922.819,542.433 923.531,542.818 924.208,543.205 924.85,543.595 925.456,543.988 926.028,544.382 926.563,544.778 927.063,545.175 927.526,545.573 927.954,545.973 928.345,546.373 928.7,546.774 929.019,547.174 929.302,547.575 929.549,547.975 929.759,548.374 929.934,548.773 930.072,549.17 930.175,549.566 930.242,549.96 930.273,550.351 930.269,550.741 930.23,551.128 930.156,551.512 930.048,551.894 929.905,552.272 929.728,552.647 929.518,553.018 929.274,553.385 928.997,553.749 928.687,554.108 928.346,554.463 927.972,554.813 927.567,555.159 927.13,555.5 926.664,555.836 926.167,556.168 925.64,556.494 925.084,556.815 924.499,557.131 923.886,557.441 923.245,557.746 922.577,558.046 921.882,558.34 921.161,558.629 920.413,558.912 919.641,559.19 918.843,559.462 918.022,559.728 917.176,559.989 916.307,560.244 915.416,560.493 914.502,560.737 913.566,560.975 912.609,561.208 911.631,561.434 910.633,561.656 909.616,561.871 908.579,562.081 907.523,562.285 906.449,562.484 905.358,562.677 904.249,562.864 903.123,563.046 901.982,563.222 900.825,563.393 899.652,563.558 898.465,563.717 897.264,563.871 896.049,564.019 894.821,564.161 893.58,564.298 892.328,564.429 891.063,564.554 889.788,564.674 888.502,564.788 887.206,564.896 885.901,564.998 884.586,565.095 883.263,565.185 881.932,565.27 880.594,565.349 879.249,565.422 877.898,565.489 876.541,565.55 875.178,565.605 873.811,565.654 872.44,565.697 871.065,565.734 869.687,565.764 868.306,565.789 866.924,565.807 865.54,565.82 864.156,565.826 862.771,565.826 861.386,565.819 860.003,565.807 858.62,565.788 857.24,565.764 855.862,565.733 854.487,565.696 853.116,565.653 851.749,565.604 850.387,565.549 849.03,565.487 847.678,565.42 846.333,565.347 844.995,565.268 843.665,565.184 842.342,565.093 841.028,564.997 839.722,564.895 838.426,564.788 837.14,564.675 835.865,564.557 834.6,564.433 833.347,564.305 832.106,564.171 830.877,564.032 829.66,563.888 828.457,563.74 827.268,563.587 826.093,563.429 824.932,563.266 823.786,563.1 822.655,562.928 821.54,562.753 820.441,562.574 819.358,562.391 818.292,562.204 817.244,562.013 816.212,561.818 815.198,561.62 814.203,561.419 813.225,561.215 812.267,561.007 811.327,560.797 810.406,560.583 809.505,560.367 808.623,560.148 807.762,559.927 806.92,559.703 806.099,559.476 805.298,559.248 804.518,559.017 803.759,558.785 803.021,558.551 802.305,558.314 801.61,558.076 800.936,557.837 800.284,557.596 799.654,557.354 799.046,557.11 798.46,556.866 797.896,556.62 797.354,556.373 796.835,556.125 796.338,555.877 795.864,555.628 795.412,555.378 794.982,555.128 794.576,554.877 794.192,554.626 793.831,554.375 793.492,554.123 793.176,553.872 792.883,553.621 792.613,553.369 792.365,553.118 792.14,552.867 791.938,552.617 791.758,552.367 791.601,552.118 791.466,551.869 791.354,551.621 791.264,551.374 791.197,551.128 791.151,550.883 791.128,550.638 791.127,550.395 791.148,550.154 791.19,549.913 791.254,549.674 791.34,549.437 791.447,549.201 791.575,548.967 791.725,548.735 791.895,548.504 792.086,548.276 792.298,548.049 792.53,547.825 792.782,547.602 793.054,547.382 793.346,547.165 793.657,546.95 793.988,546.737 794.338,546.527 794.707,546.32 795.094,546.115 795.5,545.913 795.924,545.715 796.366,545.519 796.825,545.326 797.301,545.136 797.795,544.949 798.305,544.766 798.832,544.586 799.375,544.409 799.933,544.236 800.508,544.066 801.097,543.9 801.701,543.737 802.32,543.578 802.953,543.422 803.6,543.271 804.26,543.123 804.934,542.979 805.62,542.839 806.319,542.702 807.03,542.57 807.753,542.441 808.488,542.317 809.233,542.196 809.989,542.08 810.755,541.967 811.532,541.859 812.318,541.755 813.113,541.655 813.917,541.559 814.73,541.467 815.55,541.38 816.379,541.296 817.215,541.217 818.057,541.142 818.907,541.071 819.762,541.004 820.624,540.942 821.49,540.884 822.362,540.83 823.239,540.78 824.12,540.734 825.005,540.692 825.893,540.655 826.785,540.622 827.679,540.592 828.576,540.567 829.475,540.546 830.376,540.53 831.278,540.517 832.181,540.508 833.085,540.503 833.989,540.502 834.892,540.506 835.796,540.513 836.698,540.524 837.599,540.539 838.499,540.558 839.397,540.581 840.293,540.607 841.186,540.638 842.076,540.672 842.963,540.71 843.846,540.751 844.725,540.796 845.601,540.845 846.471,540.897 847.337,540.953 848.197,541.012 849.052,541.075 849.902,541.141 850.745,541.211 851.581,541.284 852.411,541.36 853.234,541.439 854.049,541.522 854.857,541.608 855.657,541.697 856.449,541.789 857.232,541.883 858.007,541.981 858.773,542.082 859.529,542.186 860.276,542.292 861.014,542.401 861.741,542.513 862.458,542.627 863.164,542.744 863.86,542.863 864.545,542.985 865.219,543.109 865.882,543.236 866.533,543.364 867.172,543.495 867.8,543.628 868.415,543.764 869.018,543.901 869.608,544.04 870.186,544.181 870.751,544.323 871.303,544.468 871.842,544.614 872.368,544.762 872.88,544.911 873.379,545.062 873.864,545.214 874.335,545.367 874.792,545.522 875.235,545.678 875.664,545.835 876.079,545.992 876.48,546.151 876.866,546.311 877.237,546.472 877.595,546.633 877.937,546.795 878.265,546.958 878.578,547.121 878.876,547.285 879.16,547.449 879.428,547.614 879.682,547.779 879.921,547.944 880.145,548.109 880.354,548.274 880.548,548.439 880.727,548.604 880.891,548.769 881.04,548.934 881.175,549.098 881.294,549.262 881.399,549.426 881.489,549.589 881.564,549.752 881.625,549.914 881.671,550.076 881.702,550.237 881.719,550.397 881.721,550.556 881.709,550.714 881.683,550.872 881.643,551.028 881.589,551.183 881.52,551.337 881.438,551.49 881.342,551.642 881.232,551.792 881.109,551.942 880.972,552.089 880.822,552.236 880.659,552.38 880.483,552.524 880.294,552.665 880.092,552.805 879.878,552.944 879.651,553.08 879.412,553.215 879.161,553.348 878.898,553.479 878.623,553.609 878.337,553.736 878.039,553.862 877.73,553.985 877.41,554.106 877.079,554.225 876.737,554.342 876.385,554.457 876.022,554.57 875.65,554.68 875.267,554.789 874.875,554.895 874.474,554.998 874.063,555.099 873.643,555.198 873.214,555.295 872.777,555.389 872.331,555.48 871.878,555.569 871.416,555.656 870.946,555.74 870.469,555.821 869.985,555.9 869.494,555.977 868.996,556.05 868.491,556.122 867.98,556.19 867.463,556.256 866.941,556.319 866.412,556.38 865.879,556.437 865.34,556.493 864.796,556.545 864.248,556.595 863.695,556.642 863.138,556.686 862.578,556.728 862.013,556.767 861.446,556.803 860.875,556.836 860.301,556.867 859.725,556.895 859.146,556.92 858.565,556.943 857.982,556.963 857.397,556.98 856.811,556.995 856.224,557.006 855.636,557.016 855.047,557.022 854.458,557.026 853.868,557.027 853.278,557.026 852.689,557.022 852.1,557.015 851.512,557.006 850.925,556.994 850.339,556.98 849.754,556.963 849.171,556.944 848.59,556.922 848.011,556.898 847.435,556.871 846.86,556.842 846.289,556.81 845.72,556.777 845.155,556.74 844.593,556.702 844.035,556.661 843.48,556.618 842.93,556.573 842.383,556.526 841.841,556.476 841.304,556.424 840.771,556.371 840.243,556.315 839.72,556.257 839.203,556.197 838.691,556.135 838.185,556.071 837.685,556.006 837.191,555.938 836.703,555.869 836.221,555.798 835.746,555.725 835.277,555.651 834.815,555.575 834.36,555.497 833.913,555.417 833.472,555.337 833.039,555.254 832.614,555.17 832.196,555.085 831.785,554.998 831.383,554.91 830.989,554.821 830.603,554.731 830.225,554.639 829.855,554.546 829.494,554.452 829.142,554.357 828.798,554.261 828.462,554.164 828.136,554.066 827.819,553.967 827.51,553.867 827.211,553.766 826.92,553.665 826.639,553.563 826.367,553.46 826.105,553.357 825.851,553.253 825.608,553.148 825.373,553.043 825.149,552.938 824.933,552.832 824.728,552.726 824.532,552.619 824.345,552.512 824.169,552.405 824.002,552.298 823.844,552.191 823.697,552.083 823.559,551.976 823.43,551.868 823.312,551.761 823.203,551.653 823.104,551.546 823.015,551.439 822.935,551.332 822.865,551.225 822.805,551.118 822.754,551.012 822.713,550.907 822.681,550.801 822.659,550.696 822.646,550.592 822.643,550.488 822.649,550.385 822.664,550.282 822.689,550.18 822.723,550.079 822.766,549.978 822.818,549.878 822.879,549.779 822.949,549.681 823.028,549.583 823.115,549.487 823.211,549.391 823.316,549.296 823.429,549.203 823.551,549.11 823.681,549.018 823.82,548.928 823.966,548.839 824.121,548.75 824.283,548.663 824.453,548.578 824.631,548.493 824.816,548.41 825.009,548.328 825.21,548.247 825.417,548.168 825.632,548.09 825.854,548.013 826.082,547.938 826.317,547.864 826.559,547.792 826.807,547.721 827.062,547.651 827.323,547.584 827.59,547.517 827.863,547.453 828.141,547.389 828.425,547.328 828.715,547.268 829.01,547.21 829.311,547.153 829.616,547.098 829.926,547.044 830.241,546.993 830.561,546.943 830.885,546.894 831.213,546.848 831.545,546.803 831.882,546.76 832.222,546.718 832.566,546.678 832.913,546.64 833.264,546.604 833.618,546.57 833.975,546.537 834.335,546.506 834.698,546.477 835.063,546.45 835.43,546.424 835.8,546.4 836.172,546.378 836.546,546.358 836.921,546.339 837.299,546.322 837.677,546.307 838.057,546.294 838.438,546.283 838.82,546.273 839.203,546.265 839.586,546.259 839.97,546.254 840.354,546.251 840.738,546.25 841.123,546.251 841.507,546.253 841.891,546.257 842.274,546.263 842.657,546.27 843.04,546.279 843.421,546.29 843.801,546.302 844.18,546.316 844.558,546.332 844.934,546.349 845.309,546.368 845.682,546.388 846.053,546.41 846.422,546.433 846.788,546.458 847.153,546.484 847.515,546.512 847.874,546.541 848.231,546.572 848.585,546.604 848.936,546.637 849.284,546.672 849.629,546.708 849.97,546.746 850.308,546.785 850.642,546.825 850.973,546.866 851.299,546.909 851.622,546.952 851.941,546.997 852.256,547.043 852.567,547.091 852.873,547.139 853.175,547.189 853.472,547.239 853.765,547.291 854.053,547.343 854.336,547.397 854.614,547.451 854.888,547.507 855.156,547.563 855.419,547.62 855.677,547.678 855.93,547.737 856.177,547.797 856.419,547.857 856.656,547.919 856.886,547.98 857.112,548.043 857.331,548.106 857.545,548.17 857.753,548.234 857.955,548.299 858.151,548.365 858.342,548.431 858.526,548.497 858.704,548.564 858.876,548.632 859.042,548.7 859.202,548.768 859.356,548.836 859.504,548.905 859.645,548.974 859.78,549.043 859.909,549.112 860.032,549.182 860.148,549.252 860.258,549.322 860.362,549.392 860.459,549.462 860.55,549.532 860.635,549.602 860.713,549.672 860.785,549.742 860.85,549.812 860.91,549.882 860.963,549.952 861.009,550.022 861.05,550.091 861.084,550.16 861.112,550.229 861.134,550.298 861.149,550.366 861.158,550.434 861.162,550.502 861.159,550.57 861.15,550.637 861.135,550.703 861.114,550.769 861.087,550.835 861.054,550.9 861.015,550.965 860.97,551.029 860.92,551.093 860.864,551.156 860.802,551.218 860.734,551.28 860.662,551.341 860.583,551.402 860.499,551.462 860.41,551.521 860.315,551.579 860.216,551.637 860.111,551.694 860,551.75 859.885,551.805 859.765,551.859 859.64,551.913 859.51,551.966 859.376,552.018 859.237,552.069 859.093,552.119 858.945,552.168 858.792,552.216 858.635,552.264 858.474,552.31 858.309,552.355 858.139,552.4 857.966,552.443 857.789,552.485 857.608,552.527 857.423,552.567 857.235,552.606 857.043,552.645 856.848,552.682 856.649,552.718 856.448,552.753 856.243,552.787 856.035,552.82 855.824,552.851 855.61,552.882 855.394,552.911 855.175,552.94 854.954,552.967 854.73,552.993 854.504,553.018 854.275,553.042 854.045,553.065 853.813,553.086 853.578,553.106 853.342,553.126 853.104,553.144 852.865,553.161 852.624,553.176 852.382,553.191 852.138,553.204 851.894,553.217 851.648,553.228 851.401,553.238 851.154,553.247 850.905,553.254 850.656,553.261 850.407,553.266 850.157,553.271 849.907,553.274 849.656,553.276 849.406,553.277 849.155,553.276 848.905,553.275 848.654,553.273 848.404,553.269 848.154,553.264 847.905,553.259 847.656,553.252 847.408,553.244 847.161,553.235 846.915,553.225 846.669,553.214 846.425,553.202 846.181,553.189 845.939,553.175 845.698,553.16 845.459,553.144 845.221,553.127 844.985,553.109 844.75,553.09 844.517,553.07 844.286,553.05 844.057,553.028 843.83,553.005 843.605,552.982 843.382,552.958 843.161,552.932 842.943,552.906 842.727,552.88 842.513,552.852 842.302,552.824 842.094,552.794 841.888,552.764 841.685,552.734 841.485,552.702 841.288,552.67 841.094,552.637 840.902,552.604 840.714,552.57 840.529,552.535 840.347,552.499 840.168,552.463 839.992,552.427 839.82,552.39 839.652,552.352 839.486,552.313 839.324,552.275 839.166,552.235 839.011,552.196 838.86,552.155 838.713,552.115 838.569,552.073 838.429,552.032 838.293,551.99 838.16,551.948 838.032,551.905 837.907,551.862 837.786,551.819 837.669,551.775 837.556,551.731 837.447,551.687 837.342,551.643 837.241,551.598 837.144,551.553 837.052,551.508 836.963,551.463 836.878,551.418 836.798,551.373 836.721,551.327 836.649,551.282 836.58,551.236 836.516,551.19 836.456,551.145 836.4,551.099 836.349,551.053 836.301,551.007 836.257,550.962 836.218,550.916 836.183,550.871 836.152,550.825 836.125,550.78 836.102,550.735 836.083,550.69 836.068,550.645 836.057,550.6 836.051,550.556 836.048,550.512 836.049,550.468 836.054,550.424 836.063,550.381 836.076,550.337 836.093,550.294 836.114,550.252 836.139,550.21 836.167,550.168 836.2,550.126 836.235,550.085 836.275,550.044 836.318,550.004 836.365,549.964 836.416,549.924 836.47,549.885 836.528,549.847 836.589,549.809 836.653,549.771 836.721,549.734 836.792,549.697 836.867,549.661 836.945,549.625 837.026,549.59 837.11,549.556 837.197,549.522 837.287,549.489 837.38,549.456 837.476,549.424 837.575,549.392 837.677,549.361 837.782,549.331 837.889,549.301 837.999,549.272 838.112,549.244 838.227,549.216 838.345,549.189 838.465,549.162 838.587,549.137 838.712,549.112 838.839,549.087 838.968,549.064 839.099,549.041 839.232,549.018 839.367,548.997 839.504,548.976 839.643,548.956 839.784,548.937 839.926,548.918 840.071,548.9 840.216,548.883 840.363,548.867 840.512,548.851 840.662,548.836 840.813,548.822 840.966,548.809 841.12,548.796 841.275,548.784 841.431,548.773 841.588,548.762 841.745,548.753 841.904,548.744 842.063,548.736 842.223,548.728 842.384,548.722 842.545,548.716 842.707,548.711 842.87,548.706 843.032,548.703 843.195,548.7 843.358,548.698 843.521,548.696 843.685,548.695 843.848,548.696 844.012,548.696 844.175,548.698 844.338,548.7 844.501,548.703 844.663,548.706 844.826,548.711 844.987,548.716 845.149,548.721 845.31,548.728 845.47,548.735 845.629,548.743 845.788,548.751 845.946,548.76 846.103,548.77 846.259,548.78 846.415,548.791 846.569,548.803 846.722,548.815 846.874,548.828 847.025,548.841 847.175,548.855 847.323,548.87 847.47,548.885 847.615,548.901 847.76,548.917 847.902,548.934 848.043,548.951 848.183,548.969 848.321,548.988 848.457,549.007 848.591,549.026 848.724,549.046 848.855,549.066 848.984,549.087 849.111,549.109 849.236,549.13 849.359,549.152 849.48,549.175 849.599,549.198 849.716,549.222 849.831,549.245 849.943,549.27 850.054,549.294 850.162,549.319 850.268,549.344 850.371,549.37 850.473,549.396 850.572,549.422 850.668,549.449 850.762,549.475 850.854,549.502 850.943,549.53 851.03,549.557 851.114,549.585 851.196,549.613 851.275,549.641 851.352,549.67 851.426,549.698 851.497,549.727 851.566,549.756 851.633,549.785 851.696,549.814 851.757,549.843 851.815,549.873 851.871,549.902 851.924,549.932 851.975,549.961 852.022,549.991 852.067,550.021 852.109,550.051 852.149,550.08 852.186,550.11 852.22,550.14 852.252,550.17 852.28,550.2 852.306,550.229 852.33,550.259 852.351,550.289 852.369,550.318 852.384,550.348 852.397,550.377 852.407,550.406 852.415,550.435 852.419,550.464 852.422,550.493 852.421,550.522 852.418,550.55 852.413,550.579 852.405,550.607 852.394,550.635 852.381,550.663 852.365,550.69 852.347,550.718 852.326,550.745 852.303,550.772 852.278,550.798 852.25,550.825 852.22,550.851 852.187,550.877 852.152,550.902 852.115,550.927 852.076,550.952 852.034,550.977 851.99,551.001 851.944,551.025 851.896,551.049 851.846,551.072 851.793,551.095 851.739,551.118 851.682,551.14 851.624,551.162 851.563,551.183 851.501,551.204 851.437,551.225 851.371,551.245 851.303,551.265 851.233,551.284 851.162,551.303 851.088,551.322 851.014,551.34 850.937,551.358 850.859,551.375 850.78,551.392 850.699,551.408 850.616,551.424 850.532,551.44 850.447,551.455 850.36,551.469 850.272,551.483 850.183,551.497 850.093,551.51 850.001,551.523 849.909,551.535 849.815,551.547 849.72,551.558 849.624,551.569 849.527,551.579 849.43,551.589 849.331,551.598 849.232,551.607 849.132,551.615 849.031,551.623 848.929,551.631 848.827,551.638 848.724,551.644 848.621,551.65 848.517,551.655 848.413,551.66 848.308,551.664 848.203,551.668 848.098,551.672 847.992,551.675 847.886,551.677 847.78,551.679 847.673,551.681 847.567,551.682 847.46,551.682 847.354,551.682 847.247,551.682 847.141,551.681 847.035,551.68 846.928,551.678 846.822,551.676 846.716,551.673 846.611,551.67 846.506,551.666 846.401,551.662 846.296,551.657 846.192,551.652 846.089,551.647 845.985,551.641 845.883,551.635 845.781,551.628 845.68,551.621 845.579,551.614 845.479,551.606 845.38,551.598 845.281,551.589 845.184,551.58 845.087,551.57 844.991,551.56 844.896,551.55 844.801,551.54 844.708,551.529 844.616,551.517 844.525,551.506 844.435,551.494 844.346,551.482 844.258,551.469 844.172,551.456 844.086,551.443 844.002,551.429 843.919,551.415 843.837,551.401 843.756,551.387 843.677,551.372 843.599,551.357 843.523,551.342 843.448,551.326 843.374,551.311 843.302,551.295 843.231,551.278 843.162,551.262 843.094,551.245 843.028,551.228 842.963,551.211 842.9,551.194 842.838,551.177 842.778,551.159 842.72,551.141 842.663,551.123 842.608,551.105 842.554,551.087 842.502,551.069 842.452,551.05 842.403,551.032 842.356,551.013 842.311,550.994 842.268,550.975 842.226,550.956 842.186,550.937 842.148,550.918 842.111,550.899 842.076,550.879 842.043,550.86 842.012,550.841 841.982,550.821 841.954,550.802 841.928,550.783 841.904,550.763 841.881,550.744 841.86,550.724 841.841,550.705 841.824,550.685 841.808,550.666 841.794,550.647 841.782,550.628 841.772,550.608 841.763,550.589 841.757,550.57 841.751,550.551 841.748,550.532 841.746,550.513 841.746,550.495 841.748,550.476 841.751,550.457 841.756,550.439 841.763,550.421 841.771,550.403 841.781,550.385 841.793,550.367 841.806,550.349 841.82,550.331 841.837,550.314 841.855,550.297 841.874,550.28 841.895,550.263 841.918,550.246 841.942,550.23 841.967,550.214 841.994,550.197 842.022,550.182 842.052,550.166 842.083,550.151 842.116,550.135 842.15,550.12 842.185,550.106 842.222,550.091 842.26,550.077 842.299,550.063 842.339,550.049 842.381,550.036 842.424,550.022 842.468,550.009 842.513,549.997 842.56,549.984 842.607,549.972 842.656,549.96 842.705,549.948 842.756,549.937 842.808,549.926 842.86,549.915 842.914,549.905 842.969,549.895 843.024,549.885 843.08,549.875 843.138,549.866 843.196,549.857 843.254,549.849 843.314,549.84 843.374,549.832 843.435,549.824 843.497,549.817 843.559,549.81 843.622,549.803 843.686,549.797 843.75,549.791 843.815,549.785 843.88,549.779 843.946,549.774 844.012,549.769 844.078,549.765 844.145,549.761 844.213,549.757 844.28,549.753 844.348,549.75 844.416,549.747 844.485,549.744 844.554,549.742 844.623,549.74 844.692,549.738 844.761,549.737 844.83,549.736 844.9,549.735 844.969,549.735 845.038,549.735 845.108,549.735 845.177,549.736 845.247,549.736 845.316,549.738 845.385,549.739 845.454,549.741 845.523,549.743 845.592,549.745 845.66,549.748 845.728,549.751 845.796,549.754 845.864,549.757 845.931,549.761 845.998,549.765 846.065,549.769 846.131,549.774 846.196,549.779 846.262,549.784 846.326,549.789 846.391,549.795 846.455,549.801 846.518,549.807 846.58,549.813 846.643,549.82 846.704,549.827 846.765,549.834 846.825,549.841 846.885,549.849 846.943,549.856 847.002,549.864 847.059,549.873 847.116,549.881 847.171,549.89 847.227,549.898 847.281,549.907 847.334,549.917 847.387,549.926 847.439,549.936 847.49,549.945 847.54,549.955 847.589,549.965 847.637,549.975 847.684,549.986 847.73,549.996 847.776,550.007 847.82,550.018 847.864,550.029 847.906,550.04 847.947,550.051 847.988,550.063 848.027,550.074 848.065,550.086 848.103,550.097 848.139,550.109 848.174,550.121 848.208,550.133 848.241,550.145 848.273,550.157 848.303,550.169 848.333,550.181 848.362,550.194 848.389,550.206 848.415,550.219 848.441,550.231 848.465,550.244 848.488,550.256 848.509,550.269 848.53,550.281 848.549,550.294 848.568,550.307 848.585,550.319 848.601,550.332 848.616,550.345 848.63,550.357 848.642,550.37 848.654,550.383 848.664,550.395 848.673,550.408 848.682,550.42 848.688,550.433 848.694,550.445 848.699,550.458 848.702,550.47 848.705,550.483 848.706,550.495 848.706,550.507 848.706,550.519 848.704,550.531 848.701,550.543 848.696,550.555 848.691,550.567 848.685,550.579 848.677,550.591 848.669,550.602 848.66,550.614 848.649,550.625 848.638,550.636 848.625,550.647 848.612,550.658 848.597,550.669 848.582,550.68 848.565,550.691 848.548,550.701 848.53,550.712 848.51,550.722 848.49,550.732 848.469,550.742 848.447,550.752 848.424,550.761 848.4,550.771 848.376,550.78 848.35,550.789 848.324,550.798 848.297,550.807 848.269,550.816 848.241,550.824 848.211,550.833 848.181,550.841 848.15,550.849 848.119,550.856 848.087,550.864 848.054,550.871 848.02,550.879 847.986,550.886 847.951,550.893 847.915,550.899 847.879,550.906 847.843,550.912 847.806,550.918 847.768,550.924 847.73,550.93 847.691,550.935 847.652,550.94 847.612,550.945 847.572,550.95 847.531,550.955 847.49,550.959 847.449,550.964 847.407,550.968 847.365,550.971 847.322,550.975 847.28,550.978 847.237,550.982 847.193,550.985 847.15,550.987 847.106,550.99 847.062,550.992 847.017,550.994 846.973,550.996 846.928,550.998 846.883,551 846.839,551.001 846.794,551.002 846.748,551.003 846.703,551.004 846.658,551.004 846.613,551.004 846.567,551.005 846.522,551.004 846.477,551.004 846.432,551.004 846.387,551.003 846.341,551.002 846.296,551.001 846.251,551 846.207,550.998 846.162,550.997 846.118,550.995 846.073,550.993 846.029,550.99 845.985,550.988 845.942,550.985 845.898,550.983 845.855,550.98 845.812,550.977 845.769,550.973 845.727,550.97 845.685,550.966 845.644,550.962 845.602,550.958 845.561,550.954 845.521,550.95 845.481,550.945 845.441,550.941 845.402,550.936 845.363,550.931 845.324,550.926 845.286,550.921 845.249,550.916 845.212,550.91 845.175,550.905 845.139,550.899 845.104,550.893 845.069,550.887 845.034,550.881 845.001,550.875 844.967,550.868 844.935,550.862 844.902,550.856 844.871,550.849 844.84,550.842 844.81,550.835 844.78,550.828 844.751,550.821 844.723,550.814 844.695,550.807 844.668,550.8 844.641,550.792 844.616,550.785 "/>
<path clip-path="url(#clip630)" d="M1817.79 270.476 L2283.41 270.476 L2283.41 166.796 L1817.79 166.796  Z" fill="#ffffff" fill-rule="evenodd" fill-opacity="1"/>
<polyline clip-path="url(#clip630)" style="stroke:#000000; stroke-linecap:round; stroke-linejoin:round; stroke-width:4; stroke-opacity:1; fill:none" points="1817.79,270.476 2283.41,270.476 2283.41,166.796 1817.79,166.796 1817.79,270.476 "/>
<polyline clip-path="url(#clip630)" style="stroke:#009af9; stroke-linecap:round; stroke-linejoin:round; stroke-width:8; stroke-opacity:1; fill:none" points="1840.91,218.636 1979.61,218.636 "/>
<path clip-path="url(#clip630)" d="M2007.01 232.027 L2007.01 245.777 L2002.72 245.777 L2002.72 209.99 L2007.01 209.99 L2007.01 213.925 Q2008.35 211.61 2010.38 210.499 Q2012.45 209.365 2015.29 209.365 Q2020.01 209.365 2022.95 213.115 Q2025.92 216.865 2025.92 222.976 Q2025.92 229.087 2022.95 232.837 Q2020.01 236.587 2015.29 236.587 Q2012.45 236.587 2010.38 235.476 Q2008.35 234.342 2007.01 232.027 M2021.5 222.976 Q2021.5 218.277 2019.55 215.615 Q2017.63 212.93 2014.25 212.93 Q2010.87 212.93 2008.93 215.615 Q2007.01 218.277 2007.01 222.976 Q2007.01 227.675 2008.93 230.36 Q2010.87 233.022 2014.25 233.022 Q2017.63 233.022 2019.55 230.36 Q2021.5 227.675 2021.5 222.976 Z" fill="#000000" fill-rule="nonzero" fill-opacity="1" /><path clip-path="url(#clip630)" d="M2054.53 220.268 L2054.53 235.916 L2050.27 235.916 L2050.27 220.407 Q2050.27 216.726 2048.83 214.897 Q2047.4 213.069 2044.53 213.069 Q2041.08 213.069 2039.09 215.268 Q2037.1 217.467 2037.1 221.263 L2037.1 235.916 L2032.82 235.916 L2032.82 199.897 L2037.1 199.897 L2037.1 214.018 Q2038.63 211.68 2040.69 210.522 Q2042.77 209.365 2045.48 209.365 Q2049.94 209.365 2052.24 212.143 Q2054.53 214.897 2054.53 220.268 Z" fill="#000000" fill-rule="nonzero" fill-opacity="1" /><path clip-path="url(#clip630)" d="M2074.81 222.883 Q2069.64 222.883 2067.65 224.064 Q2065.66 225.244 2065.66 228.092 Q2065.66 230.36 2067.14 231.703 Q2068.65 233.022 2071.22 233.022 Q2074.76 233.022 2076.89 230.522 Q2079.04 227.999 2079.04 223.832 L2079.04 222.883 L2074.81 222.883 M2083.3 221.124 L2083.3 235.916 L2079.04 235.916 L2079.04 231.981 Q2077.58 234.342 2075.41 235.476 Q2073.23 236.587 2070.08 236.587 Q2066.1 236.587 2063.74 234.365 Q2061.4 232.119 2061.4 228.369 Q2061.4 223.994 2064.32 221.772 Q2067.26 219.55 2073.07 219.55 L2079.04 219.55 L2079.04 219.133 Q2079.04 216.194 2077.1 214.596 Q2075.18 212.976 2071.68 212.976 Q2069.46 212.976 2067.35 213.508 Q2065.25 214.041 2063.3 215.106 L2063.3 211.17 Q2065.64 210.268 2067.84 209.828 Q2070.04 209.365 2072.12 209.365 Q2077.75 209.365 2080.52 212.282 Q2083.3 215.198 2083.3 221.124 Z" fill="#000000" fill-rule="nonzero" fill-opacity="1" /><path clip-path="url(#clip630)" d="M2108.6 210.754 L2108.6 214.782 Q2106.8 213.856 2104.85 213.393 Q2102.91 212.93 2100.82 212.93 Q2097.65 212.93 2096.06 213.902 Q2094.48 214.874 2094.48 216.819 Q2094.48 218.3 2095.62 219.157 Q2096.75 219.99 2100.18 220.754 L2101.63 221.078 Q2106.17 222.05 2108.07 223.832 Q2109.99 225.592 2109.99 228.763 Q2109.99 232.374 2107.12 234.481 Q2104.27 236.587 2099.27 236.587 Q2097.19 236.587 2094.92 236.17 Q2092.68 235.777 2090.18 234.967 L2090.18 230.569 Q2092.54 231.795 2094.83 232.42 Q2097.12 233.022 2099.37 233.022 Q2102.38 233.022 2104 232.004 Q2105.62 230.962 2105.62 229.087 Q2105.62 227.351 2104.44 226.425 Q2103.28 225.499 2099.32 224.643 L2097.84 224.295 Q2093.88 223.462 2092.12 221.749 Q2090.36 220.013 2090.36 217.004 Q2090.36 213.346 2092.95 211.356 Q2095.55 209.365 2100.32 209.365 Q2102.68 209.365 2104.76 209.712 Q2106.84 210.059 2108.6 210.754 Z" fill="#000000" fill-rule="nonzero" fill-opacity="1" /><path clip-path="url(#clip630)" d="M2138.95 221.888 L2138.95 223.971 L2119.37 223.971 Q2119.64 228.369 2122 230.684 Q2124.39 232.976 2128.63 232.976 Q2131.08 232.976 2133.37 232.374 Q2135.69 231.772 2137.95 230.569 L2137.95 234.596 Q2135.66 235.568 2133.25 236.078 Q2130.85 236.587 2128.37 236.587 Q2122.17 236.587 2118.53 232.976 Q2114.92 229.365 2114.92 223.207 Q2114.92 216.842 2118.35 213.115 Q2121.8 209.365 2127.63 209.365 Q2132.86 209.365 2135.89 212.745 Q2138.95 216.101 2138.95 221.888 M2134.69 220.638 Q2134.64 217.143 2132.72 215.059 Q2130.82 212.976 2127.68 212.976 Q2124.11 212.976 2121.96 214.99 Q2119.83 217.004 2119.5 220.661 L2134.69 220.638 Z" fill="#000000" fill-rule="nonzero" fill-opacity="1" /><path clip-path="url(#clip630)" d="M2165.13 232.027 L2165.13 245.777 L2160.85 245.777 L2160.85 209.99 L2165.13 209.99 L2165.13 213.925 Q2166.47 211.61 2168.51 210.499 Q2170.57 209.365 2173.42 209.365 Q2178.14 209.365 2181.08 213.115 Q2184.04 216.865 2184.04 222.976 Q2184.04 229.087 2181.08 232.837 Q2178.14 236.587 2173.42 236.587 Q2170.57 236.587 2168.51 235.476 Q2166.47 234.342 2165.13 232.027 M2179.62 222.976 Q2179.62 218.277 2177.68 215.615 Q2175.75 212.93 2172.37 212.93 Q2169 212.93 2167.05 215.615 Q2165.13 218.277 2165.13 222.976 Q2165.13 227.675 2167.05 230.36 Q2169 233.022 2172.37 233.022 Q2175.75 233.022 2177.68 230.36 Q2179.62 227.675 2179.62 222.976 Z" fill="#000000" fill-rule="nonzero" fill-opacity="1" /><path clip-path="url(#clip630)" d="M2202.88 222.883 Q2197.72 222.883 2195.73 224.064 Q2193.74 225.244 2193.74 228.092 Q2193.74 230.36 2195.22 231.703 Q2196.73 233.022 2199.3 233.022 Q2202.84 233.022 2204.97 230.522 Q2207.12 227.999 2207.12 223.832 L2207.12 222.883 L2202.88 222.883 M2211.38 221.124 L2211.38 235.916 L2207.12 235.916 L2207.12 231.981 Q2205.66 234.342 2203.49 235.476 Q2201.31 236.587 2198.16 236.587 Q2194.18 236.587 2191.82 234.365 Q2189.48 232.119 2189.48 228.369 Q2189.48 223.994 2192.4 221.772 Q2195.34 219.55 2201.15 219.55 L2207.12 219.55 L2207.12 219.133 Q2207.12 216.194 2205.18 214.596 Q2203.25 212.976 2199.76 212.976 Q2197.54 212.976 2195.43 213.508 Q2193.32 214.041 2191.38 215.106 L2191.38 211.17 Q2193.72 210.268 2195.92 209.828 Q2198.12 209.365 2200.2 209.365 Q2205.82 209.365 2208.6 212.282 Q2211.38 215.198 2211.38 221.124 Z" fill="#000000" fill-rule="nonzero" fill-opacity="1" /><path clip-path="url(#clip630)" d="M2224.37 202.629 L2224.37 209.99 L2233.14 209.99 L2233.14 213.3 L2224.37 213.3 L2224.37 227.374 Q2224.37 230.545 2225.22 231.448 Q2226.1 232.351 2228.76 232.351 L2233.14 232.351 L2233.14 235.916 L2228.76 235.916 Q2223.83 235.916 2221.96 234.087 Q2220.08 232.235 2220.08 227.374 L2220.08 213.3 L2216.96 213.3 L2216.96 209.99 L2220.08 209.99 L2220.08 202.629 L2224.37 202.629 Z" fill="#000000" fill-rule="nonzero" fill-opacity="1" /><path clip-path="url(#clip630)" d="M2260.29 220.268 L2260.29 235.916 L2256.03 235.916 L2256.03 220.407 Q2256.03 216.726 2254.6 214.897 Q2253.16 213.069 2250.29 213.069 Q2246.84 213.069 2244.85 215.268 Q2242.86 217.467 2242.86 221.263 L2242.86 235.916 L2238.58 235.916 L2238.58 199.897 L2242.86 199.897 L2242.86 214.018 Q2244.39 211.68 2246.45 210.522 Q2248.53 209.365 2251.24 209.365 Q2255.71 209.365 2258 212.143 Q2260.29 214.897 2260.29 220.268 Z" fill="#000000" fill-rule="nonzero" fill-opacity="1" /></svg>
