<?xml version="1.0" encoding="utf-8"?>
<svg xmlns="http://www.w3.org/2000/svg" xmlns:xlink="http://www.w3.org/1999/xlink" width="600" height="400" viewBox="0 0 2400 1600">
<defs>
  <clipPath id="clip380">
    <rect x="0" y="0" width="2400" height="1600"/>
  </clipPath>
</defs>
<path clip-path="url(#clip380)" d="M0 1600 L2400 1600 L2400 0 L0 0  Z" fill="#ffffff" fill-rule="evenodd" fill-opacity="1"/>
<defs>
  <clipPath id="clip381">
    <rect x="480" y="0" width="1681" height="1600"/>
  </clipPath>
</defs>
<path clip-path="url(#clip380)" d="M255.607 1423.18 L2352.76 1423.18 L2352.76 123.472 L255.607 123.472  Z" fill="#ffffff" fill-rule="evenodd" fill-opacity="1"/>
<defs>
  <clipPath id="clip382">
    <rect x="255" y="123" width="2098" height="1301"/>
  </clipPath>
</defs>
<polyline clip-path="url(#clip382)" style="stroke:#000000; stroke-linecap:round; stroke-linejoin:round; stroke-width:2; stroke-opacity:0.1; fill:none" points="314.96,1423.18 314.96,123.472 "/>
<polyline clip-path="url(#clip382)" style="stroke:#000000; stroke-linecap:round; stroke-linejoin:round; stroke-width:2; stroke-opacity:0.1; fill:none" points="809.571,1423.18 809.571,123.472 "/>
<polyline clip-path="url(#clip382)" style="stroke:#000000; stroke-linecap:round; stroke-linejoin:round; stroke-width:2; stroke-opacity:0.1; fill:none" points="1304.18,1423.18 1304.18,123.472 "/>
<polyline clip-path="url(#clip382)" style="stroke:#000000; stroke-linecap:round; stroke-linejoin:round; stroke-width:2; stroke-opacity:0.1; fill:none" points="1798.79,1423.18 1798.79,123.472 "/>
<polyline clip-path="url(#clip382)" style="stroke:#000000; stroke-linecap:round; stroke-linejoin:round; stroke-width:2; stroke-opacity:0.1; fill:none" points="2293.4,1423.18 2293.4,123.472 "/>
<polyline clip-path="url(#clip382)" style="stroke:#000000; stroke-linecap:round; stroke-linejoin:round; stroke-width:2; stroke-opacity:0.1; fill:none" points="255.607,1200.25 2352.76,1200.25 "/>
<polyline clip-path="url(#clip382)" style="stroke:#000000; stroke-linecap:round; stroke-linejoin:round; stroke-width:2; stroke-opacity:0.1; fill:none" points="255.607,891.531 2352.76,891.531 "/>
<polyline clip-path="url(#clip382)" style="stroke:#000000; stroke-linecap:round; stroke-linejoin:round; stroke-width:2; stroke-opacity:0.1; fill:none" points="255.607,582.811 2352.76,582.811 "/>
<polyline clip-path="url(#clip382)" style="stroke:#000000; stroke-linecap:round; stroke-linejoin:round; stroke-width:2; stroke-opacity:0.1; fill:none" points="255.607,274.091 2352.76,274.091 "/>
<polyline clip-path="url(#clip380)" style="stroke:#000000; stroke-linecap:round; stroke-linejoin:round; stroke-width:4; stroke-opacity:1; fill:none" points="255.607,1423.18 2352.76,1423.18 "/>
<polyline clip-path="url(#clip380)" style="stroke:#000000; stroke-linecap:round; stroke-linejoin:round; stroke-width:4; stroke-opacity:1; fill:none" points="314.96,1423.18 314.96,1404.28 "/>
<polyline clip-path="url(#clip380)" style="stroke:#000000; stroke-linecap:round; stroke-linejoin:round; stroke-width:4; stroke-opacity:1; fill:none" points="809.571,1423.18 809.571,1404.28 "/>
<polyline clip-path="url(#clip380)" style="stroke:#000000; stroke-linecap:round; stroke-linejoin:round; stroke-width:4; stroke-opacity:1; fill:none" points="1304.18,1423.18 1304.18,1404.28 "/>
<polyline clip-path="url(#clip380)" style="stroke:#000000; stroke-linecap:round; stroke-linejoin:round; stroke-width:4; stroke-opacity:1; fill:none" points="1798.79,1423.18 1798.79,1404.28 "/>
<polyline clip-path="url(#clip380)" style="stroke:#000000; stroke-linecap:round; stroke-linejoin:round; stroke-width:4; stroke-opacity:1; fill:none" points="2293.4,1423.18 2293.4,1404.28 "/>
<path clip-path="url(#clip380)" d="M314.96 1454.1 Q311.349 1454.1 309.52 1457.66 Q307.715 1461.2 307.715 1468.33 Q307.715 1475.44 309.52 1479.01 Q311.349 1482.55 314.96 1482.55 Q318.594 1482.55 320.4 1479.01 Q322.229 1475.44 322.229 1468.33 Q322.229 1461.2 320.4 1457.66 Q318.594 1454.1 314.96 1454.1 M314.96 1450.39 Q320.77 1450.39 323.826 1455 Q326.904 1459.58 326.904 1468.33 Q326.904 1477.06 323.826 1481.67 Q320.77 1486.25 314.96 1486.25 Q309.15 1486.25 306.071 1481.67 Q303.016 1477.06 303.016 1468.33 Q303.016 1459.58 306.071 1455 Q309.15 1450.39 314.96 1450.39 Z" fill="#000000" fill-rule="nonzero" fill-opacity="1" /><path clip-path="url(#clip380)" d="M799.849 1451.02 L818.205 1451.02 L818.205 1454.96 L804.131 1454.96 L804.131 1463.43 Q805.149 1463.08 806.168 1462.92 Q807.186 1462.73 808.205 1462.73 Q813.992 1462.73 817.372 1465.9 Q820.751 1469.08 820.751 1474.49 Q820.751 1480.07 817.279 1483.17 Q813.807 1486.25 807.487 1486.25 Q805.311 1486.25 803.043 1485.88 Q800.798 1485.51 798.39 1484.77 L798.39 1480.07 Q800.474 1481.2 802.696 1481.76 Q804.918 1482.32 807.395 1482.32 Q811.399 1482.32 813.737 1480.21 Q816.075 1478.1 816.075 1474.49 Q816.075 1470.88 813.737 1468.77 Q811.399 1466.67 807.395 1466.67 Q805.52 1466.67 803.645 1467.08 Q801.793 1467.5 799.849 1468.38 L799.849 1451.02 Z" fill="#000000" fill-rule="nonzero" fill-opacity="1" /><path clip-path="url(#clip380)" d="M1278.87 1481.64 L1286.51 1481.64 L1286.51 1455.28 L1278.2 1456.95 L1278.2 1452.69 L1286.46 1451.02 L1291.14 1451.02 L1291.14 1481.64 L1298.78 1481.64 L1298.78 1485.58 L1278.87 1485.58 L1278.87 1481.64 Z" fill="#000000" fill-rule="nonzero" fill-opacity="1" /><path clip-path="url(#clip380)" d="M1318.22 1454.1 Q1314.61 1454.1 1312.78 1457.66 Q1310.98 1461.2 1310.98 1468.33 Q1310.98 1475.44 1312.78 1479.01 Q1314.61 1482.55 1318.22 1482.55 Q1321.85 1482.55 1323.66 1479.01 Q1325.49 1475.44 1325.49 1468.33 Q1325.49 1461.2 1323.66 1457.66 Q1321.85 1454.1 1318.22 1454.1 M1318.22 1450.39 Q1324.03 1450.39 1327.09 1455 Q1330.17 1459.58 1330.17 1468.33 Q1330.17 1477.06 1327.09 1481.67 Q1324.03 1486.25 1318.22 1486.25 Q1312.41 1486.25 1309.33 1481.67 Q1306.28 1477.06 1306.28 1468.33 Q1306.28 1459.58 1309.33 1455 Q1312.41 1450.39 1318.22 1450.39 Z" fill="#000000" fill-rule="nonzero" fill-opacity="1" /><path clip-path="url(#clip380)" d="M1773.98 1481.64 L1781.62 1481.64 L1781.62 1455.28 L1773.31 1456.95 L1773.31 1452.69 L1781.57 1451.02 L1786.25 1451.02 L1786.25 1481.64 L1793.88 1481.64 L1793.88 1485.58 L1773.98 1485.58 L1773.98 1481.64 Z" fill="#000000" fill-rule="nonzero" fill-opacity="1" /><path clip-path="url(#clip380)" d="M1803.38 1451.02 L1821.73 1451.02 L1821.73 1454.96 L1807.66 1454.96 L1807.66 1463.43 Q1808.68 1463.08 1809.69 1462.92 Q1810.71 1462.73 1811.73 1462.73 Q1817.52 1462.73 1820.9 1465.9 Q1824.28 1469.08 1824.28 1474.49 Q1824.28 1480.07 1820.81 1483.17 Q1817.33 1486.25 1811.01 1486.25 Q1808.84 1486.25 1806.57 1485.88 Q1804.32 1485.51 1801.92 1484.77 L1801.92 1480.07 Q1804 1481.2 1806.22 1481.76 Q1808.44 1482.32 1810.92 1482.32 Q1814.93 1482.32 1817.26 1480.21 Q1819.6 1478.1 1819.6 1474.49 Q1819.6 1470.88 1817.26 1468.77 Q1814.93 1466.67 1810.92 1466.67 Q1809.05 1466.67 1807.17 1467.08 Q1805.32 1467.5 1803.38 1468.38 L1803.38 1451.02 Z" fill="#000000" fill-rule="nonzero" fill-opacity="1" /><path clip-path="url(#clip380)" d="M2272.18 1481.64 L2288.5 1481.64 L2288.5 1485.58 L2266.55 1485.58 L2266.55 1481.64 Q2269.21 1478.89 2273.8 1474.26 Q2278.4 1469.61 2279.58 1468.27 Q2281.83 1465.74 2282.71 1464.01 Q2283.61 1462.25 2283.61 1460.56 Q2283.61 1457.8 2281.67 1456.07 Q2279.75 1454.33 2276.64 1454.33 Q2274.44 1454.33 2271.99 1455.09 Q2269.56 1455.86 2266.78 1457.41 L2266.78 1452.69 Q2269.61 1451.55 2272.06 1450.97 Q2274.51 1450.39 2276.55 1450.39 Q2281.92 1450.39 2285.12 1453.08 Q2288.31 1455.77 2288.31 1460.26 Q2288.31 1462.39 2287.5 1464.31 Q2286.71 1466.2 2284.61 1468.8 Q2284.03 1469.47 2280.93 1472.69 Q2277.82 1475.88 2272.18 1481.64 Z" fill="#000000" fill-rule="nonzero" fill-opacity="1" /><path clip-path="url(#clip380)" d="M2308.31 1454.1 Q2304.7 1454.1 2302.87 1457.66 Q2301.06 1461.2 2301.06 1468.33 Q2301.06 1475.44 2302.87 1479.01 Q2304.7 1482.55 2308.31 1482.55 Q2311.94 1482.55 2313.75 1479.01 Q2315.58 1475.44 2315.58 1468.33 Q2315.58 1461.2 2313.75 1457.66 Q2311.94 1454.1 2308.31 1454.1 M2308.31 1450.39 Q2314.12 1450.39 2317.18 1455 Q2320.25 1459.58 2320.25 1468.33 Q2320.25 1477.06 2317.18 1481.67 Q2314.12 1486.25 2308.31 1486.25 Q2302.5 1486.25 2299.42 1481.67 Q2296.37 1477.06 2296.37 1468.33 Q2296.37 1459.58 2299.42 1455 Q2302.5 1450.39 2308.31 1450.39 Z" fill="#000000" fill-rule="nonzero" fill-opacity="1" /><path clip-path="url(#clip380)" d="M1174.35 1520.52 L1214.55 1520.52 L1214.55 1525.93 L1197.68 1525.93 L1197.68 1568.04 L1191.22 1568.04 L1191.22 1525.93 L1174.35 1525.93 L1174.35 1520.52 Z" fill="#000000" fill-rule="nonzero" fill-opacity="1" /><path clip-path="url(#clip380)" d="M1218.5 1532.4 L1224.36 1532.4 L1224.36 1568.04 L1218.5 1568.04 L1218.5 1532.4 M1218.5 1518.52 L1224.36 1518.52 L1224.36 1525.93 L1218.5 1525.93 L1218.5 1518.52 Z" fill="#000000" fill-rule="nonzero" fill-opacity="1" /><path clip-path="url(#clip380)" d="M1264.36 1539.24 Q1266.56 1535.29 1269.62 1533.41 Q1272.67 1531.54 1276.81 1531.54 Q1282.38 1531.54 1285.4 1535.45 Q1288.43 1539.33 1288.43 1546.53 L1288.43 1568.04 L1282.54 1568.04 L1282.54 1546.72 Q1282.54 1541.59 1280.72 1539.11 Q1278.91 1536.63 1275.19 1536.63 Q1270.63 1536.63 1267.99 1539.65 Q1265.35 1542.68 1265.35 1547.9 L1265.35 1568.04 L1259.46 1568.04 L1259.46 1546.72 Q1259.46 1541.56 1257.65 1539.11 Q1255.83 1536.63 1252.05 1536.63 Q1247.56 1536.63 1244.92 1539.68 Q1242.27 1542.71 1242.27 1547.9 L1242.27 1568.04 L1236.39 1568.04 L1236.39 1532.4 L1242.27 1532.4 L1242.27 1537.93 Q1244.28 1534.66 1247.08 1533.1 Q1249.88 1531.54 1253.73 1531.54 Q1257.62 1531.54 1260.32 1533.51 Q1263.06 1535.48 1264.36 1539.24 Z" fill="#000000" fill-rule="nonzero" fill-opacity="1" /><path clip-path="url(#clip380)" d="M1330.6 1548.76 L1330.6 1551.62 L1303.67 1551.62 Q1304.05 1557.67 1307.3 1560.85 Q1310.58 1564 1316.4 1564 Q1319.78 1564 1322.93 1563.17 Q1326.11 1562.35 1329.23 1560.69 L1329.23 1566.23 Q1326.08 1567.57 1322.77 1568.27 Q1319.46 1568.97 1316.05 1568.97 Q1307.52 1568.97 1302.53 1564 Q1297.56 1559.04 1297.56 1550.57 Q1297.56 1541.82 1302.27 1536.69 Q1307.01 1531.54 1315.03 1531.54 Q1322.23 1531.54 1326.4 1536.18 Q1330.6 1540.8 1330.6 1548.76 M1324.74 1547.04 Q1324.68 1542.23 1322.04 1539.37 Q1319.43 1536.5 1315.1 1536.5 Q1310.2 1536.5 1307.24 1539.27 Q1304.31 1542.04 1303.86 1547.07 L1324.74 1547.04 Z" fill="#000000" fill-rule="nonzero" fill-opacity="1" /><path clip-path="url(#clip380)" d="M1375 1518.58 Q1370.73 1525.9 1368.67 1533.06 Q1366.6 1540.23 1366.6 1547.58 Q1366.6 1554.93 1368.67 1562.16 Q1370.77 1569.35 1375 1576.64 L1369.91 1576.64 Q1365.13 1569.16 1362.75 1561.93 Q1360.39 1554.71 1360.39 1547.58 Q1360.39 1540.48 1362.75 1533.29 Q1365.1 1526.09 1369.91 1518.58 L1375 1518.58 Z" fill="#000000" fill-rule="nonzero" fill-opacity="1" /><path clip-path="url(#clip380)" d="M1409.09 1533.45 L1409.09 1538.98 Q1406.61 1537.71 1403.93 1537.07 Q1401.26 1536.44 1398.39 1536.44 Q1394.03 1536.44 1391.84 1537.77 Q1389.67 1539.11 1389.67 1541.79 Q1389.67 1543.82 1391.23 1545 Q1392.79 1546.15 1397.5 1547.2 L1399.51 1547.64 Q1405.75 1548.98 1408.36 1551.43 Q1411 1553.85 1411 1558.21 Q1411 1563.17 1407.05 1566.07 Q1403.14 1568.97 1396.26 1568.97 Q1393.4 1568.97 1390.28 1568.39 Q1387.19 1567.85 1383.75 1566.74 L1383.75 1560.69 Q1387 1562.38 1390.15 1563.24 Q1393.3 1564.07 1396.39 1564.07 Q1400.53 1564.07 1402.75 1562.66 Q1404.98 1561.23 1404.98 1558.65 Q1404.98 1556.27 1403.36 1554.99 Q1401.77 1553.72 1396.32 1552.54 L1394.29 1552.07 Q1388.85 1550.92 1386.43 1548.56 Q1384.01 1546.18 1384.01 1542.04 Q1384.01 1537.01 1387.57 1534.27 Q1391.14 1531.54 1397.69 1531.54 Q1400.94 1531.54 1403.8 1532.01 Q1406.67 1532.49 1409.09 1533.45 Z" fill="#000000" fill-rule="nonzero" fill-opacity="1" /><path clip-path="url(#clip380)" d="M1419.4 1518.58 L1424.49 1518.58 Q1429.27 1526.09 1431.62 1533.29 Q1434.01 1540.48 1434.01 1547.58 Q1434.01 1554.71 1431.62 1561.93 Q1429.27 1569.16 1424.49 1576.64 L1419.4 1576.64 Q1423.63 1569.35 1425.7 1562.16 Q1427.8 1554.93 1427.8 1547.58 Q1427.8 1540.23 1425.7 1533.06 Q1423.63 1525.9 1419.4 1518.58 Z" fill="#000000" fill-rule="nonzero" fill-opacity="1" /><polyline clip-path="url(#clip380)" style="stroke:#000000; stroke-linecap:round; stroke-linejoin:round; stroke-width:4; stroke-opacity:1; fill:none" points="255.607,1423.18 255.607,123.472 "/>
<polyline clip-path="url(#clip380)" style="stroke:#000000; stroke-linecap:round; stroke-linejoin:round; stroke-width:4; stroke-opacity:1; fill:none" points="255.607,1200.25 274.504,1200.25 "/>
<polyline clip-path="url(#clip380)" style="stroke:#000000; stroke-linecap:round; stroke-linejoin:round; stroke-width:4; stroke-opacity:1; fill:none" points="255.607,891.531 274.504,891.531 "/>
<polyline clip-path="url(#clip380)" style="stroke:#000000; stroke-linecap:round; stroke-linejoin:round; stroke-width:4; stroke-opacity:1; fill:none" points="255.607,582.811 274.504,582.811 "/>
<polyline clip-path="url(#clip380)" style="stroke:#000000; stroke-linecap:round; stroke-linejoin:round; stroke-width:4; stroke-opacity:1; fill:none" points="255.607,274.091 274.504,274.091 "/>
<path clip-path="url(#clip380)" d="M114.26 1200.7 L143.936 1200.7 L143.936 1204.64 L114.26 1204.64 L114.26 1200.7 Z" fill="#000000" fill-rule="nonzero" fill-opacity="1" /><path clip-path="url(#clip380)" d="M164.028 1186.05 Q160.417 1186.05 158.589 1189.61 Q156.783 1193.16 156.783 1200.29 Q156.783 1207.39 158.589 1210.96 Q160.417 1214.5 164.028 1214.5 Q167.663 1214.5 169.468 1210.96 Q171.297 1207.39 171.297 1200.29 Q171.297 1193.16 169.468 1189.61 Q167.663 1186.05 164.028 1186.05 M164.028 1182.35 Q169.839 1182.35 172.894 1186.95 Q175.973 1191.54 175.973 1200.29 Q175.973 1209.01 172.894 1213.62 Q169.839 1218.2 164.028 1218.2 Q158.218 1218.2 155.14 1213.62 Q152.084 1209.01 152.084 1200.29 Q152.084 1191.54 155.14 1186.95 Q158.218 1182.35 164.028 1182.35 Z" fill="#000000" fill-rule="nonzero" fill-opacity="1" /><path clip-path="url(#clip380)" d="M184.19 1211.65 L189.075 1211.65 L189.075 1217.53 L184.19 1217.53 L184.19 1211.65 Z" fill="#000000" fill-rule="nonzero" fill-opacity="1" /><path clip-path="url(#clip380)" d="M203.287 1213.6 L219.607 1213.6 L219.607 1217.53 L197.662 1217.53 L197.662 1213.6 Q200.325 1210.84 204.908 1206.21 Q209.514 1201.56 210.695 1200.22 Q212.94 1197.69 213.82 1195.96 Q214.723 1194.2 214.723 1192.51 Q214.723 1189.75 212.778 1188.02 Q210.857 1186.28 207.755 1186.28 Q205.556 1186.28 203.102 1187.04 Q200.672 1187.81 197.894 1189.36 L197.894 1184.64 Q200.718 1183.5 203.172 1182.92 Q205.625 1182.35 207.662 1182.35 Q213.033 1182.35 216.227 1185.03 Q219.422 1187.72 219.422 1192.21 Q219.422 1194.34 218.611 1196.26 Q217.824 1198.16 215.718 1200.75 Q215.139 1201.42 212.037 1204.64 Q208.936 1207.83 203.287 1213.6 Z" fill="#000000" fill-rule="nonzero" fill-opacity="1" /><path clip-path="url(#clip380)" d="M162.431 877.329 Q158.82 877.329 156.991 880.894 Q155.186 884.436 155.186 891.565 Q155.186 898.672 156.991 902.237 Q158.82 905.778 162.431 905.778 Q166.065 905.778 167.871 902.237 Q169.7 898.672 169.7 891.565 Q169.7 884.436 167.871 880.894 Q166.065 877.329 162.431 877.329 M162.431 873.626 Q168.241 873.626 171.297 878.232 Q174.376 882.815 174.376 891.565 Q174.376 900.292 171.297 904.899 Q168.241 909.482 162.431 909.482 Q156.621 909.482 153.542 904.899 Q150.487 900.292 150.487 891.565 Q150.487 882.815 153.542 878.232 Q156.621 873.626 162.431 873.626 Z" fill="#000000" fill-rule="nonzero" fill-opacity="1" /><path clip-path="url(#clip380)" d="M182.593 902.931 L187.477 902.931 L187.477 908.811 L182.593 908.811 L182.593 902.931 Z" fill="#000000" fill-rule="nonzero" fill-opacity="1" /><path clip-path="url(#clip380)" d="M207.662 877.329 Q204.051 877.329 202.223 880.894 Q200.417 884.436 200.417 891.565 Q200.417 898.672 202.223 902.237 Q204.051 905.778 207.662 905.778 Q211.297 905.778 213.102 902.237 Q214.931 898.672 214.931 891.565 Q214.931 884.436 213.102 880.894 Q211.297 877.329 207.662 877.329 M207.662 873.626 Q213.473 873.626 216.528 878.232 Q219.607 882.815 219.607 891.565 Q219.607 900.292 216.528 904.899 Q213.473 909.482 207.662 909.482 Q201.852 909.482 198.774 904.899 Q195.718 900.292 195.718 891.565 Q195.718 882.815 198.774 878.232 Q201.852 873.626 207.662 873.626 Z" fill="#000000" fill-rule="nonzero" fill-opacity="1" /><path clip-path="url(#clip380)" d="M164.028 568.609 Q160.417 568.609 158.589 572.174 Q156.783 575.716 156.783 582.846 Q156.783 589.952 158.589 593.517 Q160.417 597.058 164.028 597.058 Q167.663 597.058 169.468 593.517 Q171.297 589.952 171.297 582.846 Q171.297 575.716 169.468 572.174 Q167.663 568.609 164.028 568.609 M164.028 564.906 Q169.839 564.906 172.894 569.512 Q175.973 574.096 175.973 582.846 Q175.973 591.572 172.894 596.179 Q169.839 600.762 164.028 600.762 Q158.218 600.762 155.14 596.179 Q152.084 591.572 152.084 582.846 Q152.084 574.096 155.14 569.512 Q158.218 564.906 164.028 564.906 Z" fill="#000000" fill-rule="nonzero" fill-opacity="1" /><path clip-path="url(#clip380)" d="M184.19 594.211 L189.075 594.211 L189.075 600.091 L184.19 600.091 L184.19 594.211 Z" fill="#000000" fill-rule="nonzero" fill-opacity="1" /><path clip-path="url(#clip380)" d="M203.287 596.156 L219.607 596.156 L219.607 600.091 L197.662 600.091 L197.662 596.156 Q200.325 593.401 204.908 588.771 Q209.514 584.119 210.695 582.776 Q212.94 580.253 213.82 578.517 Q214.723 576.758 214.723 575.068 Q214.723 572.313 212.778 570.577 Q210.857 568.841 207.755 568.841 Q205.556 568.841 203.102 569.605 Q200.672 570.369 197.894 571.92 L197.894 567.197 Q200.718 566.063 203.172 565.485 Q205.625 564.906 207.662 564.906 Q213.033 564.906 216.227 567.591 Q219.422 570.276 219.422 574.767 Q219.422 576.896 218.611 578.818 Q217.824 580.716 215.718 583.308 Q215.139 583.98 212.037 587.197 Q208.936 590.392 203.287 596.156 Z" fill="#000000" fill-rule="nonzero" fill-opacity="1" /><path clip-path="url(#clip380)" d="M161.945 259.89 Q158.334 259.89 156.505 263.454 Q154.7 266.996 154.7 274.126 Q154.7 281.232 156.505 284.797 Q158.334 288.339 161.945 288.339 Q165.579 288.339 167.385 284.797 Q169.214 281.232 169.214 274.126 Q169.214 266.996 167.385 263.454 Q165.579 259.89 161.945 259.89 M161.945 256.186 Q167.755 256.186 170.811 260.792 Q173.889 265.376 173.889 274.126 Q173.889 282.852 170.811 287.459 Q167.755 292.042 161.945 292.042 Q156.135 292.042 153.056 287.459 Q150.001 282.852 150.001 274.126 Q150.001 265.376 153.056 260.792 Q156.135 256.186 161.945 256.186 Z" fill="#000000" fill-rule="nonzero" fill-opacity="1" /><path clip-path="url(#clip380)" d="M182.107 285.491 L186.991 285.491 L186.991 291.371 L182.107 291.371 L182.107 285.491 Z" fill="#000000" fill-rule="nonzero" fill-opacity="1" /><path clip-path="url(#clip380)" d="M210.024 260.885 L198.218 279.334 L210.024 279.334 L210.024 260.885 M208.797 256.811 L214.676 256.811 L214.676 279.334 L219.607 279.334 L219.607 283.223 L214.676 283.223 L214.676 291.371 L210.024 291.371 L210.024 283.223 L194.422 283.223 L194.422 278.709 L208.797 256.811 Z" fill="#000000" fill-rule="nonzero" fill-opacity="1" /><path clip-path="url(#clip380)" d="M18.0438 1198.24 L24.314 1198.24 Q22.5634 1201.9 21.704 1205.14 Q20.8447 1208.39 20.8447 1211.41 Q20.8447 1216.67 22.8817 1219.53 Q24.9187 1222.36 28.6745 1222.36 Q31.8255 1222.36 33.4488 1220.49 Q35.0402 1218.58 36.0269 1213.29 L36.8226 1209.41 Q38.1912 1202.22 41.6605 1198.81 Q45.098 1195.37 50.8908 1195.37 Q57.7976 1195.37 61.3624 1200.02 Q64.9272 1204.63 64.9272 1213.58 Q64.9272 1216.95 64.1633 1220.77 Q63.3994 1224.56 61.9035 1228.63 L55.2831 1228.63 Q57.4793 1224.72 58.5933 1220.96 Q59.7073 1217.21 59.7073 1213.58 Q59.7073 1208.07 57.543 1205.08 Q55.3786 1202.09 51.3682 1202.09 Q47.8671 1202.09 45.8937 1204.25 Q43.9204 1206.39 42.9337 1211.29 L42.1698 1215.2 Q40.7375 1222.39 37.682 1225.61 Q34.6264 1228.82 29.1837 1228.82 Q22.8817 1228.82 19.2532 1224.4 Q15.6248 1219.94 15.6248 1212.15 Q15.6248 1208.8 16.2295 1205.33 Q16.8343 1201.87 18.0438 1198.24 Z" fill="#000000" fill-rule="nonzero" fill-opacity="1" /><path clip-path="url(#clip380)" d="M49.9359 1186.21 L28.3562 1186.21 L28.3562 1180.35 L49.7131 1180.35 Q54.7739 1180.35 57.3202 1178.38 Q59.8346 1176.4 59.8346 1172.46 Q59.8346 1167.71 56.8109 1164.98 Q53.7872 1162.21 48.5673 1162.21 L28.3562 1162.21 L28.3562 1156.35 L64.0042 1156.35 L64.0042 1162.21 L58.5296 1162.21 Q61.7762 1164.34 63.3676 1167.17 Q64.9272 1169.97 64.9272 1173.7 Q64.9272 1179.84 61.1078 1183.02 Q57.2883 1186.21 49.9359 1186.21 M27.4968 1171.47 L27.4968 1171.47 Z" fill="#000000" fill-rule="nonzero" fill-opacity="1" /><path clip-path="url(#clip380)" d="M58.657 1138.62 L77.5631 1138.62 L77.5631 1144.51 L28.3562 1144.51 L28.3562 1138.62 L33.7671 1138.62 Q30.5842 1136.78 29.0564 1133.98 Q27.4968 1131.14 27.4968 1127.23 Q27.4968 1120.73 32.6531 1116.69 Q37.8093 1112.62 46.212 1112.62 Q54.6147 1112.62 59.771 1116.69 Q64.9272 1120.73 64.9272 1127.23 Q64.9272 1131.14 63.3994 1133.98 Q61.8398 1136.78 58.657 1138.62 M46.212 1118.7 Q39.7508 1118.7 36.0905 1121.37 Q32.3984 1124.01 32.3984 1128.66 Q32.3984 1133.31 36.0905 1135.98 Q39.7508 1138.62 46.212 1138.62 Q52.6732 1138.62 56.3653 1135.98 Q60.0256 1133.31 60.0256 1128.66 Q60.0256 1124.01 56.3653 1121.37 Q52.6732 1118.7 46.212 1118.7 Z" fill="#000000" fill-rule="nonzero" fill-opacity="1" /><path clip-path="url(#clip380)" d="M58.657 1097.24 L77.5631 1097.24 L77.5631 1103.13 L28.3562 1103.13 L28.3562 1097.24 L33.7671 1097.24 Q30.5842 1095.4 29.0564 1092.6 Q27.4968 1089.77 27.4968 1085.85 Q27.4968 1079.36 32.6531 1075.32 Q37.8093 1071.24 46.212 1071.24 Q54.6147 1071.24 59.771 1075.32 Q64.9272 1079.36 64.9272 1085.85 Q64.9272 1089.77 63.3994 1092.6 Q61.8398 1095.4 58.657 1097.24 M46.212 1077.32 Q39.7508 1077.32 36.0905 1079.99 Q32.3984 1082.64 32.3984 1087.28 Q32.3984 1091.93 36.0905 1094.6 Q39.7508 1097.24 46.212 1097.24 Q52.6732 1097.24 56.3653 1094.6 Q60.0256 1091.93 60.0256 1087.28 Q60.0256 1082.64 56.3653 1079.99 Q52.6732 1077.32 46.212 1077.32 Z" fill="#000000" fill-rule="nonzero" fill-opacity="1" /><path clip-path="url(#clip380)" d="M32.4621 1047.72 Q32.4621 1052.43 36.1542 1055.17 Q39.8145 1057.9 46.212 1057.9 Q52.6095 1057.9 56.3017 1055.2 Q59.9619 1052.46 59.9619 1047.72 Q59.9619 1043.04 56.2698 1040.3 Q52.5777 1037.57 46.212 1037.57 Q39.8781 1037.57 36.186 1040.3 Q32.4621 1043.04 32.4621 1047.72 M27.4968 1047.72 Q27.4968 1040.08 32.4621 1035.72 Q37.4273 1031.36 46.212 1031.36 Q54.9649 1031.36 59.9619 1035.72 Q64.9272 1040.08 64.9272 1047.72 Q64.9272 1055.39 59.9619 1059.75 Q54.9649 1064.08 46.212 1064.08 Q37.4273 1064.08 32.4621 1059.75 Q27.4968 1055.39 27.4968 1047.72 Z" fill="#000000" fill-rule="nonzero" fill-opacity="1" /><path clip-path="url(#clip380)" d="M33.8307 1001 Q33.2578 1001.98 33.0032 1003.16 Q32.7167 1004.31 32.7167 1005.71 Q32.7167 1010.67 35.9632 1013.34 Q39.1779 1015.99 45.2253 1015.99 L64.0042 1015.99 L64.0042 1021.87 L28.3562 1021.87 L28.3562 1015.99 L33.8944 1015.99 Q30.6479 1014.14 29.0883 1011.18 Q27.4968 1008.22 27.4968 1003.99 Q27.4968 1003.38 27.5923 1002.65 Q27.656 1001.92 27.8151 1001.03 L33.8307 1001 Z" fill="#000000" fill-rule="nonzero" fill-opacity="1" /><path clip-path="url(#clip380)" d="M18.2347 989.06 L28.3562 989.06 L28.3562 976.997 L32.9077 976.997 L32.9077 989.06 L52.2594 989.06 Q56.6199 989.06 57.8613 987.882 Q59.1026 986.673 59.1026 983.012 L59.1026 976.997 L64.0042 976.997 L64.0042 983.012 Q64.0042 989.792 61.4897 992.37 Q58.9434 994.948 52.2594 994.948 L32.9077 994.948 L32.9077 999.245 L28.3562 999.245 L28.3562 994.948 L18.2347 994.948 L18.2347 989.06 Z" fill="#000000" fill-rule="nonzero" fill-opacity="1" /><path clip-path="url(#clip380)" d="M21.7677 941.89 L58.7206 941.89 L58.7206 934.124 Q58.7206 924.289 54.2646 919.737 Q49.8086 915.154 40.1964 915.154 Q30.6479 915.154 26.2237 919.737 Q21.7677 924.289 21.7677 934.124 L21.7677 941.89 M16.4842 948.319 L16.4842 935.11 Q16.4842 921.297 22.2451 914.836 Q27.9743 908.374 40.1964 908.374 Q52.4822 908.374 58.2432 914.867 Q64.0042 921.36 64.0042 935.11 L64.0042 948.319 L16.4842 948.319 Z" fill="#000000" fill-rule="nonzero" fill-opacity="1" /><path clip-path="url(#clip380)" d="M28.3562 898.38 L28.3562 892.524 L64.0042 892.524 L64.0042 898.38 L28.3562 898.38 M14.479 898.38 L14.479 892.524 L21.895 892.524 L21.895 898.38 L14.479 898.38 Z" fill="#000000" fill-rule="nonzero" fill-opacity="1" /><path clip-path="url(#clip380)" d="M29.4065 857.544 L34.9447 857.544 Q33.6716 860.027 33.035 862.701 Q32.3984 865.374 32.3984 868.239 Q32.3984 872.599 33.7352 874.795 Q35.072 876.96 37.7456 876.96 Q39.7826 876.96 40.9603 875.4 Q42.1061 873.84 43.1565 869.13 L43.6021 867.125 Q44.9389 860.886 47.3897 858.276 Q49.8086 855.635 54.1691 855.635 Q59.1344 855.635 62.0308 859.581 Q64.9272 863.496 64.9272 870.371 Q64.9272 873.236 64.3543 876.355 Q63.8132 879.442 62.6992 882.88 L56.6518 882.88 Q58.3387 879.633 59.198 876.482 Q60.0256 873.331 60.0256 870.244 Q60.0256 866.106 58.6251 863.878 Q57.1929 861.65 54.6147 861.65 Q52.2276 861.65 50.9545 863.273 Q49.6813 864.865 48.5037 870.308 L48.0262 872.345 Q46.8804 877.787 44.5251 880.206 Q42.138 882.625 38.0002 882.625 Q32.9713 882.625 30.2341 879.06 Q27.4968 875.496 27.4968 868.939 Q27.4968 865.692 27.9743 862.828 Q28.4517 859.963 29.4065 857.544 Z" fill="#000000" fill-rule="nonzero" fill-opacity="1" /><path clip-path="url(#clip380)" d="M58.657 840.643 L77.5631 840.643 L77.5631 846.532 L28.3562 846.532 L28.3562 840.643 L33.7671 840.643 Q30.5842 838.797 29.0564 835.996 Q27.4968 833.164 27.4968 829.249 Q27.4968 822.756 32.6531 818.713 Q37.8093 814.639 46.212 814.639 Q54.6147 814.639 59.771 818.713 Q64.9272 822.756 64.9272 829.249 Q64.9272 833.164 63.3994 835.996 Q61.8398 838.797 58.657 840.643 M46.212 820.719 Q39.7508 820.719 36.0905 823.392 Q32.3984 826.034 32.3984 830.681 Q32.3984 835.328 36.0905 838.002 Q39.7508 840.643 46.212 840.643 Q52.6732 840.643 56.3653 838.002 Q60.0256 835.328 60.0256 830.681 Q60.0256 826.034 56.3653 823.392 Q52.6732 820.719 46.212 820.719 Z" fill="#000000" fill-rule="nonzero" fill-opacity="1" /><path clip-path="url(#clip380)" d="M14.479 804.932 L14.479 799.075 L64.0042 799.075 L64.0042 804.932 L14.479 804.932 Z" fill="#000000" fill-rule="nonzero" fill-opacity="1" /><path clip-path="url(#clip380)" d="M46.0847 770.621 Q46.0847 777.718 47.7079 780.456 Q49.3312 783.193 53.2461 783.193 Q56.3653 783.193 58.2114 781.156 Q60.0256 779.087 60.0256 775.554 Q60.0256 770.684 56.5881 767.756 Q53.1188 764.796 47.3897 764.796 L46.0847 764.796 L46.0847 770.621 M43.6657 758.939 L64.0042 758.939 L64.0042 764.796 L58.5933 764.796 Q61.8398 766.801 63.3994 769.793 Q64.9272 772.785 64.9272 777.114 Q64.9272 782.588 61.8716 785.835 Q58.7843 789.049 53.6281 789.049 Q47.6125 789.049 44.5569 785.039 Q41.5014 780.997 41.5014 773.008 L41.5014 764.796 L40.9285 764.796 Q36.8862 764.796 34.6901 767.47 Q32.4621 770.111 32.4621 774.917 Q32.4621 777.973 33.1941 780.869 Q33.9262 783.766 35.3903 786.439 L29.9795 786.439 Q28.7381 783.225 28.1334 780.201 Q27.4968 777.177 27.4968 774.313 Q27.4968 766.578 31.5072 762.759 Q35.5176 758.939 43.6657 758.939 Z" fill="#000000" fill-rule="nonzero" fill-opacity="1" /><path clip-path="url(#clip380)" d="M29.7248 721.223 L35.1993 721.223 Q33.8307 723.705 33.1623 726.22 Q32.4621 728.702 32.4621 731.249 Q32.4621 736.946 36.0905 740.097 Q39.6872 743.248 46.212 743.248 Q52.7369 743.248 56.3653 740.097 Q59.9619 736.946 59.9619 731.249 Q59.9619 728.702 59.2935 726.22 Q58.5933 723.705 57.2247 721.223 L62.6355 721.223 Q63.7814 723.673 64.3543 726.315 Q64.9272 728.925 64.9272 731.885 Q64.9272 739.938 59.8664 744.68 Q54.8057 749.423 46.212 749.423 Q37.491 749.423 32.4939 744.648 Q27.4968 739.842 27.4968 731.503 Q27.4968 728.798 28.0697 726.22 Q28.6108 723.642 29.7248 721.223 Z" fill="#000000" fill-rule="nonzero" fill-opacity="1" /><path clip-path="url(#clip380)" d="M44.7161 680.546 L47.5806 680.546 L47.5806 707.473 Q53.6281 707.091 56.8109 703.844 Q59.9619 700.566 59.9619 694.741 Q59.9619 691.368 59.1344 688.216 Q58.3069 685.034 56.6518 681.914 L62.1899 681.914 Q63.5267 685.065 64.227 688.376 Q64.9272 691.686 64.9272 695.091 Q64.9272 703.621 59.9619 708.619 Q54.9967 713.584 46.5303 713.584 Q37.7774 713.584 32.6531 708.873 Q27.4968 704.131 27.4968 696.11 Q27.4968 688.917 32.1438 684.747 Q36.7589 680.546 44.7161 680.546 M42.9973 686.402 Q38.1912 686.466 35.3266 689.108 Q32.4621 691.718 32.4621 696.046 Q32.4621 700.948 35.2312 703.908 Q38.0002 706.836 43.0292 707.282 L42.9973 686.402 Z" fill="#000000" fill-rule="nonzero" fill-opacity="1" /><path clip-path="url(#clip380)" d="M35.1993 643.179 Q31.2526 640.983 29.3747 637.927 Q27.4968 634.872 27.4968 630.734 Q27.4968 625.164 31.4117 622.14 Q35.2948 619.117 42.4881 619.117 L64.0042 619.117 L64.0042 625.005 L42.679 625.005 Q37.5546 625.005 35.072 626.819 Q32.5894 628.633 32.5894 632.357 Q32.5894 636.909 35.6131 639.551 Q38.6368 642.192 43.8567 642.192 L64.0042 642.192 L64.0042 648.081 L42.679 648.081 Q37.5228 648.081 35.072 649.895 Q32.5894 651.709 32.5894 655.497 Q32.5894 659.985 35.6449 662.626 Q38.6686 665.268 43.8567 665.268 L64.0042 665.268 L64.0042 671.156 L28.3562 671.156 L28.3562 665.268 L33.8944 665.268 Q30.616 663.263 29.0564 660.462 Q27.4968 657.661 27.4968 653.81 Q27.4968 649.927 29.4702 647.221 Q31.4436 644.484 35.1993 643.179 Z" fill="#000000" fill-rule="nonzero" fill-opacity="1" /><path clip-path="url(#clip380)" d="M44.7161 576.944 L47.5806 576.944 L47.5806 603.871 Q53.6281 603.489 56.8109 600.242 Q59.9619 596.964 59.9619 591.139 Q59.9619 587.766 59.1344 584.615 Q58.3069 581.432 56.6518 578.313 L62.1899 578.313 Q63.5267 581.464 64.227 584.774 Q64.9272 588.084 64.9272 591.49 Q64.9272 600.02 59.9619 605.017 Q54.9967 609.982 46.5303 609.982 Q37.7774 609.982 32.6531 605.271 Q27.4968 600.529 27.4968 592.508 Q27.4968 585.315 32.1438 581.145 Q36.7589 576.944 44.7161 576.944 M42.9973 582.8 Q38.1912 582.864 35.3266 585.506 Q32.4621 588.116 32.4621 592.444 Q32.4621 597.346 35.2312 600.306 Q38.0002 603.234 43.0292 603.68 L42.9973 582.8 Z" fill="#000000" fill-rule="nonzero" fill-opacity="1" /><path clip-path="url(#clip380)" d="M42.4881 537.699 L64.0042 537.699 L64.0042 543.556 L42.679 543.556 Q37.6183 543.556 35.1038 545.529 Q32.5894 547.503 32.5894 551.449 Q32.5894 556.192 35.6131 558.929 Q38.6368 561.666 43.8567 561.666 L64.0042 561.666 L64.0042 567.555 L28.3562 567.555 L28.3562 561.666 L33.8944 561.666 Q30.6797 559.566 29.0883 556.733 Q27.4968 553.868 27.4968 550.144 Q27.4968 544.001 31.3163 540.85 Q35.1038 537.699 42.4881 537.699 Z" fill="#000000" fill-rule="nonzero" fill-opacity="1" /><path clip-path="url(#clip380)" d="M18.2347 520.225 L28.3562 520.225 L28.3562 508.162 L32.9077 508.162 L32.9077 520.225 L52.2594 520.225 Q56.6199 520.225 57.8613 519.048 Q59.1026 517.838 59.1026 514.178 L59.1026 508.162 L64.0042 508.162 L64.0042 514.178 Q64.0042 520.958 61.4897 523.536 Q58.9434 526.114 52.2594 526.114 L32.9077 526.114 L32.9077 530.411 L28.3562 530.411 L28.3562 526.114 L18.2347 526.114 L18.2347 520.225 Z" fill="#000000" fill-rule="nonzero" fill-opacity="1" /><path clip-path="url(#clip380)" d="M28.3562 450.107 L45.7028 462.998 L64.0042 449.439 L64.0042 456.346 L49.9996 466.722 L64.0042 477.098 L64.0042 484.005 L45.3526 470.159 L28.3562 482.827 L28.3562 475.92 L41.0558 466.467 L28.3562 457.014 L28.3562 450.107 Z" fill="#000000" fill-rule="nonzero" fill-opacity="1" /><path clip-path="url(#clip380)" d="M14.5426 406.375 Q21.8632 410.64 29.0246 412.709 Q36.186 414.778 43.5384 414.778 Q50.8908 414.778 58.1159 412.709 Q65.3091 410.608 72.5979 406.375 L72.5979 411.467 Q65.1182 416.242 57.8931 418.629 Q50.668 420.984 43.5384 420.984 Q36.4406 420.984 29.2474 418.629 Q22.0542 416.273 14.5426 411.467 L14.5426 406.375 Z" fill="#000000" fill-rule="nonzero" fill-opacity="1" /><path clip-path="url(#clip380)" d="M35.1993 367.258 Q31.2526 365.061 29.3747 362.006 Q27.4968 358.95 27.4968 354.813 Q27.4968 349.243 31.4117 346.219 Q35.2948 343.195 42.4881 343.195 L64.0042 343.195 L64.0042 349.083 L42.679 349.083 Q37.5546 349.083 35.072 350.898 Q32.5894 352.712 32.5894 356.436 Q32.5894 360.987 35.6131 363.629 Q38.6368 366.271 43.8567 366.271 L64.0042 366.271 L64.0042 372.159 L42.679 372.159 Q37.5228 372.159 35.072 373.973 Q32.5894 375.788 32.5894 379.575 Q32.5894 384.063 35.6449 386.705 Q38.6686 389.347 43.8567 389.347 L64.0042 389.347 L64.0042 395.235 L28.3562 395.235 L28.3562 389.347 L33.8944 389.347 Q30.616 387.341 29.0564 384.54 Q27.4968 381.74 27.4968 377.888 Q27.4968 374.005 29.4702 371.3 Q31.4436 368.563 35.1993 367.258 Z" fill="#000000" fill-rule="nonzero" fill-opacity="1" /><path clip-path="url(#clip380)" d="M14.5426 332.437 L14.5426 327.345 Q22.0542 322.57 29.2474 320.215 Q36.4406 317.828 43.5384 317.828 Q50.668 317.828 57.8931 320.215 Q65.1182 322.57 72.5979 327.345 L72.5979 332.437 Q65.3091 328.204 58.1159 326.135 Q50.8908 324.034 43.5384 324.034 Q36.186 324.034 29.0246 326.135 Q21.8632 328.204 14.5426 332.437 Z" fill="#000000" fill-rule="nonzero" fill-opacity="1" /><path clip-path="url(#clip380)" d="M878.533 14.0809 L878.533 22.0612 Q873.874 19.8332 869.742 18.7395 Q865.61 17.6457 861.762 17.6457 Q855.078 17.6457 851.432 20.2383 Q847.827 22.8309 847.827 27.611 Q847.827 31.6214 850.217 33.6873 Q852.647 35.7128 859.372 36.9686 L864.314 37.9813 Q873.469 39.7232 877.803 44.1387 Q882.178 48.5136 882.178 55.8863 Q882.178 64.6767 876.264 69.2137 Q870.39 73.7508 859.007 73.7508 Q854.713 73.7508 849.852 72.7785 Q845.032 71.8063 839.846 69.9024 L839.846 61.4765 Q844.829 64.2716 849.609 65.6895 Q854.389 67.1073 859.007 67.1073 Q866.015 67.1073 869.823 64.3527 Q873.631 61.598 873.631 56.4939 Q873.631 52.0379 870.876 49.5264 Q868.162 47.0148 861.924 45.759 L856.941 44.7868 Q847.786 42.9639 843.695 39.075 Q839.603 35.1862 839.603 28.2591 Q839.603 20.2383 845.234 15.6203 Q850.905 11.0023 860.83 11.0023 Q865.084 11.0023 869.499 11.7719 Q873.915 12.5416 878.533 14.0809 Z" fill="#000000" fill-rule="nonzero" fill-opacity="1" /><path clip-path="url(#clip380)" d="M894.615 9.54393 L902.068 9.54393 L902.068 72.576 L894.615 72.576 L894.615 9.54393 Z" fill="#000000" fill-rule="nonzero" fill-opacity="1" /><path clip-path="url(#clip380)" d="M917.664 27.2059 L925.118 27.2059 L925.118 72.576 L917.664 72.576 L917.664 27.2059 M917.664 9.54393 L925.118 9.54393 L925.118 18.9825 L917.664 18.9825 L917.664 9.54393 Z" fill="#000000" fill-rule="nonzero" fill-opacity="1" /><path clip-path="url(#clip380)" d="M970.569 34.0924 L970.569 9.54393 L978.023 9.54393 L978.023 72.576 L970.569 72.576 L970.569 65.7705 Q968.22 69.8214 964.614 71.8063 Q961.05 73.7508 956.026 73.7508 Q947.803 73.7508 942.618 67.1883 Q937.473 60.6258 937.473 49.9314 Q937.473 39.2371 942.618 32.6746 Q947.803 26.1121 956.026 26.1121 Q961.05 26.1121 964.614 28.0971 Q968.22 30.0415 970.569 34.0924 M945.17 49.9314 Q945.17 58.1548 948.532 62.8538 Q951.935 67.5124 957.849 67.5124 Q963.764 67.5124 967.166 62.8538 Q970.569 58.1548 970.569 49.9314 Q970.569 41.7081 967.166 37.0496 Q963.764 32.3505 957.849 32.3505 Q951.935 32.3505 948.532 37.0496 Q945.17 41.7081 945.17 49.9314 Z" fill="#000000" fill-rule="nonzero" fill-opacity="1" /><path clip-path="url(#clip380)" d="M993.376 27.2059 L1000.83 27.2059 L1000.83 72.576 L993.376 72.576 L993.376 27.2059 M993.376 9.54393 L1000.83 9.54393 L1000.83 18.9825 L993.376 18.9825 L993.376 9.54393 Z" fill="#000000" fill-rule="nonzero" fill-opacity="1" /><path clip-path="url(#clip380)" d="M1054.14 45.1919 L1054.14 72.576 L1046.69 72.576 L1046.69 45.4349 Q1046.69 38.994 1044.17 35.7938 Q1041.66 32.5936 1036.64 32.5936 Q1030.6 32.5936 1027.12 36.4419 Q1023.64 40.2903 1023.64 46.9338 L1023.64 72.576 L1016.14 72.576 L1016.14 27.2059 L1023.64 27.2059 L1023.64 34.2544 Q1026.31 30.163 1029.91 28.1376 Q1033.56 26.1121 1038.3 26.1121 Q1046.12 26.1121 1050.13 30.9732 Q1054.14 35.7938 1054.14 45.1919 Z" fill="#000000" fill-rule="nonzero" fill-opacity="1" /><path clip-path="url(#clip380)" d="M1098.86 49.3643 Q1098.86 41.2625 1095.5 36.8065 Q1092.18 32.3505 1086.14 32.3505 Q1080.15 32.3505 1076.78 36.8065 Q1073.46 41.2625 1073.46 49.3643 Q1073.46 57.4256 1076.78 61.8816 Q1080.15 66.3376 1086.14 66.3376 Q1092.18 66.3376 1095.5 61.8816 Q1098.86 57.4256 1098.86 49.3643 M1106.31 66.9452 Q1106.31 78.5308 1101.17 84.1616 Q1096.03 89.8329 1085.41 89.8329 Q1081.48 89.8329 1078 89.2252 Q1074.52 88.6581 1071.23 87.4428 L1071.23 80.1917 Q1074.52 81.9741 1077.72 82.8248 Q1080.92 83.6755 1084.24 83.6755 Q1091.57 83.6755 1095.22 79.8271 Q1098.86 76.0193 1098.86 68.282 L1098.86 64.5957 Q1096.55 68.6061 1092.95 70.5911 Q1089.34 72.576 1084.32 72.576 Q1075.97 72.576 1070.87 66.2161 Q1065.77 59.8562 1065.77 49.3643 Q1065.77 38.832 1070.87 32.472 Q1075.97 26.1121 1084.32 26.1121 Q1089.34 26.1121 1092.95 28.0971 Q1096.55 30.082 1098.86 34.0924 L1098.86 27.2059 L1106.31 27.2059 L1106.31 66.9452 Z" fill="#000000" fill-rule="nonzero" fill-opacity="1" /><path clip-path="url(#clip380)" d="M1184.62 14.0809 L1184.62 22.0612 Q1179.96 19.8332 1175.83 18.7395 Q1171.7 17.6457 1167.85 17.6457 Q1161.16 17.6457 1157.52 20.2383 Q1153.91 22.8309 1153.91 27.611 Q1153.91 31.6214 1156.3 33.6873 Q1158.73 35.7128 1165.46 36.9686 L1170.4 37.9813 Q1179.56 39.7232 1183.89 44.1387 Q1188.26 48.5136 1188.26 55.8863 Q1188.26 64.6767 1182.35 69.2137 Q1176.48 73.7508 1165.09 73.7508 Q1160.8 73.7508 1155.94 72.7785 Q1151.12 71.8063 1145.93 69.9024 L1145.93 61.4765 Q1150.92 64.2716 1155.7 65.6895 Q1160.48 67.1073 1165.09 67.1073 Q1172.1 67.1073 1175.91 64.3527 Q1179.72 61.598 1179.72 56.4939 Q1179.72 52.0379 1176.96 49.5264 Q1174.25 47.0148 1168.01 45.759 L1163.03 44.7868 Q1153.87 42.9639 1149.78 39.075 Q1145.69 35.1862 1145.69 28.2591 Q1145.69 20.2383 1151.32 15.6203 Q1156.99 11.0023 1166.92 11.0023 Q1171.17 11.0023 1175.59 11.7719 Q1180 12.5416 1184.62 14.0809 Z" fill="#000000" fill-rule="nonzero" fill-opacity="1" /><path clip-path="url(#clip380)" d="M1199.93 54.671 L1199.93 27.2059 L1207.39 27.2059 L1207.39 54.3874 Q1207.39 60.8284 1209.9 64.0691 Q1212.41 67.2693 1217.43 67.2693 Q1223.47 67.2693 1226.95 63.421 Q1230.48 59.5726 1230.48 52.9291 L1230.48 27.2059 L1237.93 27.2059 L1237.93 72.576 L1230.48 72.576 L1230.48 65.6084 Q1227.76 69.7404 1224.16 71.7658 Q1220.59 73.7508 1215.85 73.7508 Q1208.03 73.7508 1203.98 68.8897 Q1199.93 64.0286 1199.93 54.671 M1218.69 26.1121 L1218.69 26.1121 Z" fill="#000000" fill-rule="nonzero" fill-opacity="1" /><path clip-path="url(#clip380)" d="M1260.49 65.7705 L1260.49 89.8329 L1253 89.8329 L1253 27.2059 L1260.49 27.2059 L1260.49 34.0924 Q1262.84 30.0415 1266.41 28.0971 Q1270.01 26.1121 1274.99 26.1121 Q1283.26 26.1121 1288.4 32.6746 Q1293.59 39.2371 1293.59 49.9314 Q1293.59 60.6258 1288.4 67.1883 Q1283.26 73.7508 1274.99 73.7508 Q1270.01 73.7508 1266.41 71.8063 Q1262.84 69.8214 1260.49 65.7705 M1285.85 49.9314 Q1285.85 41.7081 1282.45 37.0496 Q1279.09 32.3505 1273.17 32.3505 Q1267.26 32.3505 1263.85 37.0496 Q1260.49 41.7081 1260.49 49.9314 Q1260.49 58.1548 1263.85 62.8538 Q1267.26 67.5124 1273.17 67.5124 Q1279.09 67.5124 1282.45 62.8538 Q1285.85 58.1548 1285.85 49.9314 Z" fill="#000000" fill-rule="nonzero" fill-opacity="1" /><path clip-path="url(#clip380)" d="M1313.15 65.7705 L1313.15 89.8329 L1305.66 89.8329 L1305.66 27.2059 L1313.15 27.2059 L1313.15 34.0924 Q1315.5 30.0415 1319.07 28.0971 Q1322.67 26.1121 1327.66 26.1121 Q1335.92 26.1121 1341.06 32.6746 Q1346.25 39.2371 1346.25 49.9314 Q1346.25 60.6258 1341.06 67.1883 Q1335.92 73.7508 1327.66 73.7508 Q1322.67 73.7508 1319.07 71.8063 Q1315.5 69.8214 1313.15 65.7705 M1338.51 49.9314 Q1338.51 41.7081 1335.11 37.0496 Q1331.75 32.3505 1325.83 32.3505 Q1319.92 32.3505 1316.52 37.0496 Q1313.15 41.7081 1313.15 49.9314 Q1313.15 58.1548 1316.52 62.8538 Q1319.92 67.5124 1325.83 67.5124 Q1331.75 67.5124 1335.11 62.8538 Q1338.51 58.1548 1338.51 49.9314 Z" fill="#000000" fill-rule="nonzero" fill-opacity="1" /><path clip-path="url(#clip380)" d="M1376.19 32.4315 Q1370.19 32.4315 1366.71 37.1306 Q1363.22 41.7891 1363.22 49.9314 Q1363.22 58.0738 1366.67 62.7728 Q1370.15 67.4314 1376.19 67.4314 Q1382.14 67.4314 1385.62 62.7323 Q1389.11 58.0333 1389.11 49.9314 Q1389.11 41.8701 1385.62 37.1711 Q1382.14 32.4315 1376.19 32.4315 M1376.19 26.1121 Q1385.91 26.1121 1391.46 32.4315 Q1397.01 38.7509 1397.01 49.9314 Q1397.01 61.0714 1391.46 67.4314 Q1385.91 73.7508 1376.19 73.7508 Q1366.42 73.7508 1360.87 67.4314 Q1355.36 61.0714 1355.36 49.9314 Q1355.36 38.7509 1360.87 32.4315 Q1366.42 26.1121 1376.19 26.1121 Z" fill="#000000" fill-rule="nonzero" fill-opacity="1" /><path clip-path="url(#clip380)" d="M1435.65 34.1734 Q1434.4 33.4443 1432.9 33.1202 Q1431.44 32.7556 1429.66 32.7556 Q1423.34 32.7556 1419.94 36.8875 Q1416.57 40.9789 1416.57 48.6757 L1416.57 72.576 L1409.08 72.576 L1409.08 27.2059 L1416.57 27.2059 L1416.57 34.2544 Q1418.92 30.1225 1422.69 28.1376 Q1426.46 26.1121 1431.85 26.1121 Q1432.62 26.1121 1433.55 26.2337 Q1434.48 26.3147 1435.61 26.5172 L1435.65 34.1734 Z" fill="#000000" fill-rule="nonzero" fill-opacity="1" /><path clip-path="url(#clip380)" d="M1450.84 14.324 L1450.84 27.2059 L1466.2 27.2059 L1466.2 32.9987 L1450.84 32.9987 L1450.84 57.6282 Q1450.84 63.1779 1452.34 64.7578 Q1453.88 66.3376 1458.54 66.3376 L1466.2 66.3376 L1466.2 72.576 L1458.54 72.576 Q1449.91 72.576 1446.63 69.3758 Q1443.35 66.1351 1443.35 57.6282 L1443.35 32.9987 L1437.88 32.9987 L1437.88 27.2059 L1443.35 27.2059 L1443.35 14.324 L1450.84 14.324 Z" fill="#000000" fill-rule="nonzero" fill-opacity="1" /><path clip-path="url(#clip380)" d="M1502.7 12.096 L1514.89 12.096 L1530.32 53.2532 L1545.84 12.096 L1558.03 12.096 L1558.03 72.576 L1550.05 72.576 L1550.05 19.4686 L1534.46 60.9499 L1526.23 60.9499 L1510.64 19.4686 L1510.64 72.576 L1502.7 72.576 L1502.7 12.096 Z" fill="#000000" fill-rule="nonzero" fill-opacity="1" /><path clip-path="url(#clip380)" d="M1591.53 32.4315 Q1585.54 32.4315 1582.05 37.1306 Q1578.57 41.7891 1578.57 49.9314 Q1578.57 58.0738 1582.01 62.7728 Q1585.5 67.4314 1591.53 67.4314 Q1597.49 67.4314 1600.97 62.7323 Q1604.45 58.0333 1604.45 49.9314 Q1604.45 41.8701 1600.97 37.1711 Q1597.49 32.4315 1591.53 32.4315 M1591.53 26.1121 Q1601.25 26.1121 1606.8 32.4315 Q1612.35 38.7509 1612.35 49.9314 Q1612.35 61.0714 1606.8 67.4314 Q1601.25 73.7508 1591.53 73.7508 Q1581.77 73.7508 1576.22 67.4314 Q1570.71 61.0714 1570.71 49.9314 Q1570.71 38.7509 1576.22 32.4315 Q1581.77 26.1121 1591.53 26.1121 Z" fill="#000000" fill-rule="nonzero" fill-opacity="1" /><path clip-path="url(#clip380)" d="M1632.08 14.324 L1632.08 27.2059 L1647.43 27.2059 L1647.43 32.9987 L1632.08 32.9987 L1632.08 57.6282 Q1632.08 63.1779 1633.58 64.7578 Q1635.12 66.3376 1639.78 66.3376 L1647.43 66.3376 L1647.43 72.576 L1639.78 72.576 Q1631.15 72.576 1627.87 69.3758 Q1624.59 66.1351 1624.59 57.6282 L1624.59 32.9987 L1619.12 32.9987 L1619.12 27.2059 L1624.59 27.2059 L1624.59 14.324 L1632.08 14.324 Z" fill="#000000" fill-rule="nonzero" fill-opacity="1" /><path clip-path="url(#clip380)" d="M1657.24 27.2059 L1664.69 27.2059 L1664.69 72.576 L1657.24 72.576 L1657.24 27.2059 M1657.24 9.54393 L1664.69 9.54393 L1664.69 18.9825 L1657.24 18.9825 L1657.24 9.54393 Z" fill="#000000" fill-rule="nonzero" fill-opacity="1" /><path clip-path="url(#clip380)" d="M1697.87 32.4315 Q1691.87 32.4315 1688.39 37.1306 Q1684.91 41.7891 1684.91 49.9314 Q1684.91 58.0738 1688.35 62.7728 Q1691.83 67.4314 1697.87 67.4314 Q1703.82 67.4314 1707.31 62.7323 Q1710.79 58.0333 1710.79 49.9314 Q1710.79 41.8701 1707.31 37.1711 Q1703.82 32.4315 1697.87 32.4315 M1697.87 26.1121 Q1707.59 26.1121 1713.14 32.4315 Q1718.69 38.7509 1718.69 49.9314 Q1718.69 61.0714 1713.14 67.4314 Q1707.59 73.7508 1697.87 73.7508 Q1688.11 73.7508 1682.56 67.4314 Q1677.05 61.0714 1677.05 49.9314 Q1677.05 38.7509 1682.56 32.4315 Q1688.11 26.1121 1697.87 26.1121 Z" fill="#000000" fill-rule="nonzero" fill-opacity="1" /><path clip-path="url(#clip380)" d="M1768.76 45.1919 L1768.76 72.576 L1761.31 72.576 L1761.31 45.4349 Q1761.31 38.994 1758.79 35.7938 Q1756.28 32.5936 1751.26 32.5936 Q1745.22 32.5936 1741.74 36.4419 Q1738.26 40.2903 1738.26 46.9338 L1738.26 72.576 L1730.76 72.576 L1730.76 27.2059 L1738.26 27.2059 L1738.26 34.2544 Q1740.93 30.163 1744.53 28.1376 Q1748.18 26.1121 1752.92 26.1121 Q1760.74 26.1121 1764.75 30.9732 Q1768.76 35.7938 1768.76 45.1919 Z" fill="#000000" fill-rule="nonzero" fill-opacity="1" /><polyline clip-path="url(#clip382)" style="stroke:#009af9; stroke-linecap:round; stroke-linejoin:round; stroke-width:8; stroke-opacity:1; fill:none" points="314.96,659.991 315.949,659.631 316.939,658.554 317.928,656.765 318.917,654.26 319.906,651.034 320.895,647.075 321.885,642.368 322.874,636.894 323.863,630.63 324.852,623.549 325.842,615.621 326.831,606.811 327.82,597.084 328.809,586.401 329.798,574.723 330.788,562.011 331.777,548.226 332.766,533.335 333.755,517.309 334.745,500.131 335.734,481.799 336.723,462.332 337.712,441.779 338.701,420.226 339.691,397.808 340.68,374.717 341.669,351.209 342.658,327.602 343.648,304.271 344.637,281.628 345.626,260.092 346.615,240.06 347.604,221.878 348.594,205.819 349.583,192.079 350.572,180.775 351.561,171.96 352.55,165.631 353.54,161.751 354.529,160.256 355.518,161.066 356.507,164.092 357.497,169.243 358.486,176.429 359.475,185.561 360.464,196.555 361.453,209.33 362.443,223.81 363.432,239.922 364.421,257.595 365.41,276.76 366.4,297.348 367.389,319.29 368.378,342.512 369.367,366.939 370.356,392.489 371.346,419.072 372.335,446.589 373.324,474.934 374.313,503.986 375.303,533.618 376.292,563.688 377.281,594.048 378.27,624.541 379.259,655.006 380.249,685.282 381.238,715.209 382.227,744.634 383.216,773.413 384.206,801.416 385.195,828.526 386.184,854.641 387.173,879.676 388.162,903.561 389.152,926.239 390.141,947.669 391.13,967.819 392.119,986.669 393.109,1004.21 394.098,1020.43 395.087,1035.34 396.076,1048.95 397.065,1061.26 398.055,1072.31 399.044,1082.1 400.033,1090.68 401.022,1098.08 402.012,1104.33 403.001,1109.47 403.99,1113.57 404.979,1116.67 405.968,1118.85 406.958,1120.16 407.947,1120.69 408.936,1120.52 409.925,1119.74 410.915,1118.44 411.904,1116.72 412.893,1114.67 413.882,1112.39 414.871,1109.97 415.861,1107.52 416.85,1105.11 417.839,1102.82 418.828,1100.73 419.818,1098.9 420.807,1097.39 421.796,1096.25 422.785,1095.5 423.774,1095.2 424.764,1095.36 425.753,1095.99 426.742,1097.12 427.731,1098.75 428.721,1100.88 429.71,1103.52 430.699,1106.64 431.688,1110.26 432.677,1114.36 433.667,1118.92 434.656,1123.94 435.645,1129.4 436.634,1135.27 437.624,1141.55 438.613,1148.21 439.602,1155.23 440.591,1162.6 441.58,1170.27 442.57,1178.24 443.559,1186.48 444.548,1194.95 445.537,1203.63 446.527,1212.5 447.516,1221.51 448.505,1230.63 449.494,1239.84 450.483,1249.09 451.473,1258.34 452.462,1267.57 453.451,1276.72 454.44,1285.76 455.43,1294.65 456.419,1303.34 457.408,1311.8 458.397,1319.97 459.386,1327.83 460.376,1335.32 461.365,1342.42 462.354,1349.09 463.343,1355.29 464.333,1360.99 465.322,1366.17 466.311,1370.79 467.3,1374.84 468.289,1378.3 469.279,1381.16 470.268,1383.4 471.257,1385.02 472.246,1386.02 473.235,1386.4 474.225,1386.15 475.214,1385.31 476.203,1383.86 477.192,1381.83 478.182,1379.23 479.171,1376.09 480.16,1372.43 481.149,1368.27 482.138,1363.64 483.128,1358.56 484.117,1353.08 485.106,1347.21 486.095,1340.99 487.085,1334.45 488.074,1327.62 489.063,1320.54 490.052,1313.24 491.041,1305.75 492.031,1298.11 493.02,1290.34 494.009,1282.47 494.998,1274.53 495.988,1266.55 496.977,1258.56 497.966,1250.58 498.955,1242.63 499.944,1234.74 500.934,1226.91 501.923,1219.18 502.912,1211.56 503.901,1204.06 504.891,1196.69 505.88,1189.46 506.869,1182.39 507.858,1175.48 508.847,1168.73 509.837,1162.15 510.826,1155.73 511.815,1149.49 512.804,1143.41 513.794,1137.5 514.783,1131.75 515.772,1126.16 516.761,1120.71 517.75,1115.39 518.74,1110.21 519.729,1105.14 520.718,1100.18 521.707,1095.3 522.697,1090.51 523.686,1085.78 524.675,1081.1 525.664,1076.45 526.653,1071.82 527.643,1067.19 528.632,1062.56 529.621,1057.89 530.61,1053.18 531.6,1048.42 532.589,1043.58 533.578,1038.67 534.567,1033.66 535.556,1028.54 536.546,1023.31 537.535,1017.96 538.524,1012.48 539.513,1006.86 540.503,1001.1 541.492,995.194 542.481,989.142 543.47,982.943 544.459,976.596 545.449,970.103 546.438,963.467 547.427,956.692 548.416,949.782 549.406,942.745 550.395,935.585 551.384,928.312 552.373,920.934 553.362,913.46 554.352,905.901 555.341,898.267 556.33,890.569 557.319,882.818 558.309,875.028 559.298,867.21 560.287,859.376 561.276,851.539 562.265,843.711 563.255,835.907 564.244,828.137 565.233,820.414 566.222,812.75 567.212,805.158 568.201,797.649 569.19,790.234 570.179,782.924 571.168,775.728 572.158,768.657 573.147,761.719 574.136,754.923 575.125,748.277 576.115,741.788 577.104,735.462 578.093,729.304 579.082,723.32 580.071,717.514 581.061,711.89 582.05,706.449 583.039,701.195 584.028,696.128 585.017,691.249 586.007,686.558 586.996,682.055 587.985,677.738 588.974,673.605 589.964,669.655 590.953,665.884 591.942,662.289 592.931,658.867 593.92,655.613 594.91,652.523 595.899,649.592 596.888,646.817 597.877,644.191 598.867,641.71 599.856,639.369 600.845,637.161 601.834,635.083 602.823,633.129 603.813,631.293 604.802,629.571 605.791,627.957 606.78,626.448 607.77,625.039 608.759,623.724 609.748,622.501 610.737,621.365 611.726,620.313 612.716,619.342 613.705,618.449 614.694,617.631 615.683,616.887 616.673,616.213 617.662,615.608 618.651,615.072 619.64,614.603 620.629,614.201 621.619,613.865 622.608,613.594 623.597,613.391 624.586,613.254 625.576,613.185 626.565,613.185 627.554,613.254 628.543,613.395 629.532,613.609 630.522,613.898 631.511,614.264 632.5,614.709 633.489,615.235 634.479,615.844 635.468,616.538 636.457,617.321 637.446,618.194 638.435,619.16 639.425,620.22 640.414,621.378 641.403,622.635 642.392,623.993 643.382,625.455 644.371,627.021 645.36,628.694 646.349,630.475 647.338,632.364 648.328,634.364 649.317,636.475 650.306,638.697 651.295,641.03 652.285,643.475 653.274,646.032 654.263,648.699 655.252,651.477 656.241,654.363 657.231,657.358 658.22,660.458 659.209,663.664 660.198,666.971 661.188,670.379 662.177,673.885 663.166,677.486 664.155,681.179 665.144,684.961 666.134,688.829 667.123,692.779 668.112,696.809 669.101,700.914 670.091,705.09 671.08,709.334 672.069,713.643 673.058,718.011 674.047,722.435 675.037,726.91 676.026,731.434 677.015,736.002 678.004,740.609 678.994,745.252 679.983,749.928 680.972,754.632 681.961,759.36 682.95,764.109 683.94,768.876 684.929,773.657 685.918,778.448 686.907,783.247 687.897,788.05 688.886,792.855 689.875,797.659 690.864,802.459 691.853,807.253 692.843,812.038 693.832,816.813 694.821,821.575 695.81,826.323 696.8,831.054 697.789,835.768 698.778,840.462 699.767,845.136 700.756,849.787 701.746,854.416 702.735,859.02 703.724,863.6 704.713,868.154 705.702,872.681 706.692,877.181 707.681,881.654 708.67,886.098 709.659,890.513 710.649,894.898 711.638,899.254 712.627,903.579 713.616,907.873 714.605,912.136 715.595,916.368 716.584,920.567 717.573,924.733 718.562,928.866 719.552,932.966 720.541,937.031 721.53,941.061 722.519,945.055 723.508,949.013 724.498,952.934 725.487,956.817 726.476,960.66 727.465,964.465 728.455,968.228 729.444,971.949 730.433,975.628 731.422,979.262 732.411,982.852 733.401,986.395 734.39,989.89 735.379,993.336 736.368,996.732 737.358,1000.08 738.347,1003.37 739.336,1006.6 740.325,1009.78 741.314,1012.91 742.304,1015.97 743.293,1018.97 744.282,1021.92 745.271,1024.8 746.261,1027.61 747.25,1030.36 748.239,1033.04 749.228,1035.65 750.217,1038.19 751.207,1040.66 752.196,1043.06 753.185,1045.39 754.174,1047.64 755.164,1049.81 756.153,1051.91 757.142,1053.93 758.131,1055.87 759.12,1057.73 760.11,1059.51 761.099,1061.21 762.088,1062.83 763.077,1064.37 764.067,1065.82 765.056,1067.19 766.045,1068.48 767.034,1069.69 768.023,1070.81 769.013,1071.85 770.002,1072.8 770.991,1073.68 771.98,1074.47 772.97,1075.17 773.959,1075.8 774.948,1076.34 775.937,1076.8 776.926,1077.18 777.916,1077.47 778.905,1077.69 779.894,1077.83 780.883,1077.89 781.873,1077.87 782.862,1077.78 783.851,1077.6 784.84,1077.36 785.829,1077.03 786.819,1076.64 787.808,1076.17 788.797,1075.63 789.786,1075.01 790.776,1074.33 791.765,1073.58 792.754,1072.76 793.743,1071.87 794.732,1070.92 795.722,1069.9 796.711,1068.82 797.7,1067.67 798.689,1066.46 799.679,1065.19 800.668,1063.87 801.657,1062.48 802.646,1061.03 803.635,1059.53 804.625,1057.97 805.614,1056.36 806.603,1054.69 807.592,1052.97 808.582,1051.19 809.571,1049.37 810.56,1047.49 811.549,1045.57 812.538,1043.59 813.528,1041.57 814.517,1039.5 815.506,1037.39 816.495,1035.23 817.484,1033.03 818.474,1030.78 819.463,1028.5 820.452,1026.17 821.441,1023.8 822.431,1021.39 823.42,1018.94 824.409,1016.46 825.398,1013.94 826.387,1011.39 827.377,1008.8 828.366,1006.17 829.355,1003.52 830.344,1000.83 831.334,998.116 832.323,995.371 833.312,992.599 834.301,989.799 835.29,986.974 836.28,984.124 837.269,981.251 838.258,978.356 839.247,975.44 840.237,972.504 841.226,969.55 842.215,966.579 843.204,963.592 844.193,960.59 845.183,957.575 846.172,954.548 847.161,951.511 848.15,948.464 849.14,945.409 850.129,942.347 851.118,939.28 852.107,936.21 853.096,933.136 854.086,930.061 855.075,926.986 856.064,923.913 857.053,920.843 858.043,917.776 859.032,914.715 860.021,911.661 861.01,908.615 861.999,905.578 862.989,902.552 863.978,899.538 864.967,896.536 865.956,893.55 866.946,890.579 867.935,887.625 868.924,884.689 869.913,881.772 870.902,878.875 871.892,876 872.881,873.148 873.87,870.319 874.859,867.515 875.849,864.737 876.838,861.985 877.827,859.261 878.816,856.566 879.805,853.901 880.795,851.266 881.784,848.662 882.773,846.091 883.762,843.553 884.752,841.048 885.741,838.579 886.73,836.145 887.719,833.747 888.708,831.386 889.698,829.062 890.687,826.777 891.676,824.531 892.665,822.324 893.655,820.158 894.644,818.032 895.633,815.948 896.622,813.905 897.611,811.905 898.601,809.947 899.59,808.033 900.579,806.163 901.568,804.337 902.558,802.555 903.547,800.819 904.536,799.128 905.525,797.483 906.514,795.884 907.504,794.332 908.493,792.827 909.482,791.369 910.471,789.958 911.461,788.595 912.45,787.28 913.439,786.014 914.428,784.796 915.417,783.627 916.407,782.506 917.396,781.435 918.385,780.413 919.374,779.441 920.364,778.518 921.353,777.644 922.342,776.821 923.331,776.047 924.32,775.324 925.31,774.65 926.299,774.026 927.288,773.453 928.277,772.929 929.266,772.455 930.256,772.032 931.245,771.658 932.234,771.334 933.223,771.06 934.213,770.835 935.202,770.66 936.191,770.534 937.18,770.458 938.169,770.43 939.159,770.451 940.148,770.52 941.137,770.638 942.126,770.804 943.116,771.017 944.105,771.278 945.094,771.586 946.083,771.94 947.072,772.341 948.062,772.788 949.051,773.28 950.04,773.818 951.029,774.399 952.019,775.026 953.008,775.695 953.997,776.408 954.986,777.164 955.975,777.962 956.965,778.801 957.954,779.681 958.943,780.602 959.932,781.562 960.922,782.562 961.911,783.6 962.9,784.677 963.889,785.79 964.878,786.94 965.868,788.126 966.857,789.348 967.846,790.603 968.835,791.893 969.825,793.216 970.814,794.571 971.803,795.958 972.792,797.375 973.781,798.823 974.771,800.3 975.76,801.806 976.749,803.339 977.738,804.9 978.728,806.486 979.717,808.099 980.706,809.735 981.695,811.396 982.684,813.079 983.674,814.785 984.663,816.512 985.652,818.26 986.641,820.027 987.631,821.814 988.62,823.618 989.609,825.44 990.598,827.278 991.587,829.132 992.577,831 993.566,832.883 994.555,834.779 995.544,836.687 996.534,838.606 997.523,840.536 998.512,842.476 999.501,844.425 1000.49,846.383 1001.48,848.347 1002.47,850.318 1003.46,852.295 1004.45,854.277 1005.44,856.263 1006.43,858.253 1007.41,860.245 1008.4,862.238 1009.39,864.233 1010.38,866.228 1011.37,868.222 1012.36,870.214 1013.35,872.205 1014.34,874.192 1015.33,876.176 1016.32,878.156 1017.31,880.13 1018.3,882.098 1019.29,884.059 1020.27,886.013 1021.26,887.958 1022.25,889.895 1023.24,891.822 1024.23,893.738 1025.22,895.643 1026.21,897.537 1027.2,899.418 1028.19,901.286 1029.18,903.14 1030.17,904.979 1031.16,906.803 1032.15,908.612 1033.13,910.404 1034.12,912.178 1035.11,913.935 1036.1,915.674 1037.09,917.394 1038.08,919.094 1039.07,920.774 1040.06,922.433 1041.05,924.071 1042.04,925.687 1043.03,927.281 1044.02,928.852 1045.01,930.399 1045.99,931.923 1046.98,933.422 1047.97,934.897 1048.96,936.346 1049.95,937.769 1050.94,939.166 1051.93,940.536 1052.92,941.88 1053.91,943.196 1054.9,944.484 1055.89,945.743 1056.88,946.975 1057.87,948.177 1058.85,949.35 1059.84,950.494 1060.83,951.607 1061.82,952.691 1062.81,953.744 1063.8,954.767 1064.79,955.758 1065.78,956.718 1066.77,957.647 1067.76,958.545 1068.75,959.411 1069.74,960.244 1070.73,961.046 1071.71,961.815 1072.7,962.552 1073.69,963.257 1074.68,963.929 1075.67,964.568 1076.66,965.175 1077.65,965.749 1078.64,966.289 1079.63,966.797 1080.62,967.272 1081.61,967.715 1082.6,968.124 1083.59,968.5 1084.57,968.843 1085.56,969.154 1086.55,969.432 1087.54,969.677 1088.53,969.889 1089.52,970.069 1090.51,970.217 1091.5,970.332 1092.49,970.415 1093.48,970.466 1094.47,970.485 1095.46,970.472 1096.44,970.428 1097.43,970.353 1098.42,970.246 1099.41,970.108 1100.4,969.94 1101.39,969.741 1102.38,969.512 1103.37,969.253 1104.36,968.965 1105.35,968.646 1106.34,968.299 1107.33,967.923 1108.32,967.518 1109.3,967.085 1110.29,966.625 1111.28,966.136 1112.27,965.62 1113.26,965.078 1114.25,964.509 1115.24,963.914 1116.23,963.292 1117.22,962.646 1118.21,961.975 1119.2,961.279 1120.19,960.558 1121.18,959.814 1122.16,959.047 1123.15,958.257 1124.14,957.444 1125.13,956.609 1126.12,955.753 1127.11,954.875 1128.1,953.977 1129.09,953.059 1130.08,952.121 1131.07,951.163 1132.06,950.187 1133.05,949.193 1134.04,948.181 1135.02,947.151 1136.01,946.105 1137,945.043 1137.99,943.965 1138.98,942.871 1139.97,941.763 1140.96,940.641 1141.95,939.505 1142.94,938.356 1143.93,937.195 1144.92,936.021 1145.91,934.836 1146.9,933.64 1147.88,932.433 1148.87,931.217 1149.86,929.991 1150.85,928.757 1151.84,927.514 1152.83,926.263 1153.82,925.005 1154.81,923.741 1155.8,922.47 1156.79,921.194 1157.78,919.913 1158.77,918.628 1159.76,917.338 1160.74,916.046 1161.73,914.75 1162.72,913.452 1163.71,912.152 1164.7,910.851 1165.69,909.55 1166.68,908.248 1167.67,906.946 1168.66,905.645 1169.65,904.346 1170.64,903.049 1171.63,901.754 1172.61,900.461 1173.6,899.173 1174.59,897.888 1175.58,896.607 1176.57,895.332 1177.56,894.062 1178.55,892.797 1179.54,891.539 1180.53,890.288 1181.52,889.044 1182.51,887.808 1183.5,886.58 1184.49,885.361 1185.47,884.15 1186.46,882.949 1187.45,881.758 1188.44,880.578 1189.43,879.408 1190.42,878.249 1191.41,877.102 1192.4,875.967 1193.39,874.844 1194.38,873.734 1195.37,872.638 1196.36,871.554 1197.35,870.485 1198.33,869.429 1199.32,868.388 1200.31,867.363 1201.3,866.352 1202.29,865.357 1203.28,864.377 1204.27,863.414 1205.26,862.468 1206.25,861.538 1207.24,860.625 1208.23,859.729 1209.22,858.851 1210.21,857.991 1211.19,857.149 1212.18,856.325 1213.17,855.519 1214.16,854.733 1215.15,853.965 1216.14,853.217 1217.13,852.488 1218.12,851.778 1219.11,851.089 1220.1,850.419 1221.09,849.769 1222.08,849.14 1223.07,848.531 1224.05,847.942 1225.04,847.374 1226.03,846.827 1227.02,846.301 1228.01,845.796 1229,845.311 1229.99,844.848 1230.98,844.406 1231.97,843.985 1232.96,843.586 1233.95,843.208 1234.94,842.851 1235.93,842.516 1236.91,842.203 1237.9,841.91 1238.89,841.64 1239.88,841.39 1240.87,841.162 1241.86,840.956 1242.85,840.771 1243.84,840.607 1244.83,840.465 1245.82,840.343 1246.81,840.243 1247.8,840.164 1248.78,840.106 1249.77,840.069 1250.76,840.053 1251.75,840.058 1252.74,840.083 1253.73,840.129 1254.72,840.194 1255.71,840.281 1256.7,840.387 1257.69,840.513 1258.68,840.659 1259.67,840.825 1260.66,841.01 1261.64,841.214 1262.63,841.437 1263.62,841.68 1264.61,841.94 1265.6,842.22 1266.59,842.517 1267.58,842.833 1268.57,843.166 1269.56,843.517 1270.55,843.886 1271.54,844.271 1272.53,844.674 1273.52,845.093 1274.5,845.528 1275.49,845.979 1276.48,846.446 1277.47,846.929 1278.46,847.427 1279.45,847.94 1280.44,848.468 1281.43,849.01 1282.42,849.566 1283.41,850.136 1284.4,850.72 1285.39,851.317 1286.38,851.926 1287.36,852.548 1288.35,853.183 1289.34,853.829 1290.33,854.487 1291.32,855.157 1292.31,855.837 1293.3,856.528 1294.29,857.229 1295.28,857.94 1296.27,858.661 1297.26,859.391 1298.25,860.13 1299.24,860.878 1300.22,861.634 1301.21,862.398 1302.2,863.169 1303.19,863.947 1304.18,864.733 1305.17,865.525 1306.16,866.323 1307.15,867.127 1308.14,867.936 1309.13,868.75 1310.12,869.569 1311.11,870.393 1312.1,871.22 1313.08,872.052 1314.07,872.886 1315.06,873.724 1316.05,874.564 1317.04,875.406 1318.03,876.25 1319.02,877.096 1320.01,877.943 1321,878.791 1321.99,879.64 1322.98,880.488 1323.97,881.337 1324.96,882.185 1325.94,883.032 1326.93,883.878 1327.92,884.723 1328.91,885.566 1329.9,886.406 1330.89,887.244 1331.88,888.08 1332.87,888.912 1333.86,889.74 1334.85,890.565 1335.84,891.386 1336.83,892.203 1337.81,893.015 1338.8,893.822 1339.79,894.623 1340.78,895.419 1341.77,896.21 1342.76,896.994 1343.75,897.771 1344.74,898.542 1345.73,899.306 1346.72,900.063 1347.71,900.812 1348.7,901.554 1349.69,902.287 1350.67,903.012 1351.66,903.729 1352.65,904.437 1353.64,905.136 1354.63,905.826 1355.62,906.506 1356.61,907.177 1357.6,907.837 1358.59,908.488 1359.58,909.128 1360.57,909.758 1361.56,910.377 1362.55,910.985 1363.53,911.582 1364.52,912.168 1365.51,912.743 1366.5,913.306 1367.49,913.857 1368.48,914.396 1369.47,914.923 1370.46,915.438 1371.45,915.94 1372.44,916.43 1373.43,916.908 1374.42,917.373 1375.41,917.824 1376.39,918.263 1377.38,918.689 1378.37,919.101 1379.36,919.501 1380.35,919.887 1381.34,920.259 1382.33,920.618 1383.32,920.964 1384.31,921.295 1385.3,921.613 1386.29,921.917 1387.28,922.208 1388.27,922.484 1389.25,922.747 1390.24,922.996 1391.23,923.231 1392.22,923.451 1393.21,923.658 1394.2,923.851 1395.19,924.03 1396.18,924.195 1397.17,924.346 1398.16,924.483 1399.15,924.606 1400.14,924.715 1401.13,924.81 1402.11,924.891 1403.1,924.959 1404.09,925.013 1405.08,925.053 1406.07,925.079 1407.06,925.092 1408.05,925.091 1409.04,925.077 1410.03,925.049 1411.02,925.009 1412.01,924.955 1413,924.888 1413.98,924.808 1414.97,924.715 1415.96,924.609 1416.95,924.49 1417.94,924.359 1418.93,924.216 1419.92,924.06 1420.91,923.892 1421.9,923.712 1422.89,923.52 1423.88,923.316 1424.87,923.101 1425.86,922.874 1426.84,922.635 1427.83,922.386 1428.82,922.126 1429.81,921.854 1430.8,921.572 1431.79,921.28 1432.78,920.977 1433.77,920.664 1434.76,920.341 1435.75,920.008 1436.74,919.666 1437.73,919.314 1438.72,918.953 1439.7,918.583 1440.69,918.204 1441.68,917.816 1442.67,917.42 1443.66,917.016 1444.65,916.603 1445.64,916.183 1446.63,915.755 1447.62,915.32 1448.61,914.878 1449.6,914.428 1450.59,913.972 1451.58,913.51 1452.56,913.041 1453.55,912.566 1454.54,912.085 1455.53,911.598 1456.52,911.106 1457.51,910.609 1458.5,910.107 1459.49,909.6 1460.48,909.089 1461.47,908.573 1462.46,908.054 1463.45,907.53 1464.44,907.003 1465.42,906.473 1466.41,905.939 1467.4,905.403 1468.39,904.864 1469.38,904.322 1470.37,903.778 1471.36,903.233 1472.35,902.685 1473.34,902.136 1474.33,901.586 1475.32,901.035 1476.31,900.482 1477.3,899.93 1478.28,899.376 1479.27,898.823 1480.26,898.27 1481.25,897.717 1482.24,897.164 1483.23,896.613 1484.22,896.062 1485.21,895.512 1486.2,894.964 1487.19,894.417 1488.18,893.872 1489.17,893.329 1490.15,892.789 1491.14,892.25 1492.13,891.715 1493.12,891.182 1494.11,890.652 1495.1,890.125 1496.09,889.602 1497.08,889.082 1498.07,888.567 1499.06,888.055 1500.05,887.547 1501.04,887.044 1502.03,886.545 1503.01,886.051 1504,885.561 1504.99,885.077 1505.98,884.598 1506.97,884.124 1507.96,883.656 1508.95,883.193 1509.94,882.737 1510.93,882.286 1511.92,881.841 1512.91,881.403 1513.9,880.971 1514.89,880.546 1515.87,880.127 1516.86,879.715 1517.85,879.311 1518.84,878.913 1519.83,878.522 1520.82,878.139 1521.81,877.763 1522.8,877.395 1523.79,877.034 1524.78,876.682 1525.77,876.337 1526.76,876 1527.75,875.671 1528.73,875.35 1529.72,875.037 1530.71,874.733 1531.7,874.437 1532.69,874.149 1533.68,873.87 1534.67,873.6 1535.66,873.338 1536.65,873.085 1537.64,872.84 1538.63,872.605 1539.62,872.378 1540.61,872.16 1541.59,871.952 1542.58,871.752 1543.57,871.561 1544.56,871.379 1545.55,871.206 1546.54,871.042 1547.53,870.888 1548.52,870.742 1549.51,870.606 1550.5,870.479 1551.49,870.361 1552.48,870.251 1553.47,870.152 1554.45,870.061 1555.44,869.979 1556.43,869.906 1557.42,869.843 1558.41,869.788 1559.4,869.743 1560.39,869.706 1561.38,869.679 1562.37,869.66 1563.36,869.65 1564.35,869.649 1565.34,869.657 1566.32,869.673 1567.31,869.698 1568.3,869.732 1569.29,869.774 1570.28,869.825 1571.27,869.884 1572.26,869.952 1573.25,870.028 1574.24,870.112 1575.23,870.204 1576.22,870.304 1577.21,870.413 1578.2,870.529 1579.18,870.653 1580.17,870.784 1581.16,870.923 1582.15,871.07 1583.14,871.224 1584.13,871.386 1585.12,871.554 1586.11,871.73 1587.1,871.913 1588.09,872.102 1589.08,872.298 1590.07,872.501 1591.06,872.711 1592.04,872.927 1593.03,873.149 1594.02,873.377 1595.01,873.612 1596,873.852 1596.99,874.098 1597.98,874.35 1598.97,874.607 1599.96,874.87 1600.95,875.138 1601.94,875.411 1602.93,875.689 1603.92,875.972 1604.9,876.26 1605.89,876.552 1606.88,876.849 1607.87,877.149 1608.86,877.454 1609.85,877.764 1610.84,878.076 1611.83,878.393 1612.82,878.713 1613.81,879.037 1614.8,879.364 1615.79,879.693 1616.78,880.026 1617.76,880.362 1618.75,880.7 1619.74,881.041 1620.73,881.385 1621.72,881.73 1622.71,882.078 1623.7,882.427 1624.69,882.778 1625.68,883.131 1626.67,883.485 1627.66,883.841 1628.65,884.198 1629.64,884.556 1630.62,884.914 1631.61,885.274 1632.6,885.633 1633.59,885.994 1634.58,886.354 1635.57,886.715 1636.56,887.076 1637.55,887.437 1638.54,887.797 1639.53,888.157 1640.52,888.516 1641.51,888.874 1642.5,889.232 1643.48,889.589 1644.47,889.944 1645.46,890.298 1646.45,890.651 1647.44,891.002 1648.43,891.352 1649.42,891.7 1650.41,892.045 1651.4,892.389 1652.39,892.731 1653.38,893.07 1654.37,893.407 1655.35,893.741 1656.34,894.072 1657.33,894.401 1658.32,894.727 1659.31,895.05 1660.3,895.369 1661.29,895.685 1662.28,895.998 1663.27,896.308 1664.26,896.614 1665.25,896.916 1666.24,897.214 1667.23,897.509 1668.21,897.799 1669.2,898.086 1670.19,898.368 1671.18,898.646 1672.17,898.92 1673.16,899.189 1674.15,899.454 1675.14,899.714 1676.13,899.969 1677.12,900.22 1678.11,900.466 1679.1,900.707 1680.09,900.943 1681.07,901.174 1682.06,901.4 1683.05,901.62 1684.04,901.836 1685.03,902.046 1686.02,902.25 1687.01,902.45 1688,902.644 1688.99,902.832 1689.98,903.015 1690.97,903.192 1691.96,903.364 1692.95,903.53 1693.93,903.69 1694.92,903.845 1695.91,903.993 1696.9,904.136 1697.89,904.274 1698.88,904.405 1699.87,904.53 1700.86,904.65 1701.85,904.764 1702.84,904.871 1703.83,904.973 1704.82,905.069 1705.81,905.159 1706.79,905.243 1707.78,905.321 1708.77,905.393 1709.76,905.459 1710.75,905.519 1711.74,905.574 1712.73,905.622 1713.72,905.664 1714.71,905.701 1715.7,905.732 1716.69,905.756 1717.68,905.775 1718.67,905.789 1719.65,905.796 1720.64,905.798 1721.63,905.794 1722.62,905.784 1723.61,905.768 1724.6,905.747 1725.59,905.721 1726.58,905.688 1727.57,905.651 1728.56,905.608 1729.55,905.559 1730.54,905.505 1731.52,905.446 1732.51,905.381 1733.5,905.312 1734.49,905.237 1735.48,905.157 1736.47,905.072 1737.46,904.982 1738.45,904.887 1739.44,904.788 1740.43,904.683 1741.42,904.574 1742.41,904.46 1743.4,904.342 1744.38,904.219 1745.37,904.092 1746.36,903.96 1747.35,903.824 1748.34,903.684 1749.33,903.54 1750.32,903.392 1751.31,903.24 1752.3,903.084 1753.29,902.924 1754.28,902.76 1755.27,902.593 1756.26,902.422 1757.24,902.248 1758.23,902.071 1759.22,901.89 1760.21,901.706 1761.2,901.519 1762.19,901.329 1763.18,901.136 1764.17,900.94 1765.16,900.742 1766.15,900.541 1767.14,900.337 1768.13,900.131 1769.12,899.923 1770.1,899.712 1771.09,899.5 1772.08,899.285 1773.07,899.068 1774.06,898.85 1775.05,898.629 1776.04,898.407 1777.03,898.184 1778.02,897.959 1779.01,897.732 1780,897.505 1780.99,897.276 1781.98,897.046 1782.96,896.815 1783.95,896.584 1784.94,896.351 1785.93,896.118 1786.92,895.884 1787.91,895.65 1788.9,895.415 1789.89,895.18 1790.88,894.945 1791.87,894.71 1792.86,894.475 1793.85,894.24 1794.84,894.005 1795.82,893.77 1796.81,893.536 1797.8,893.302 1798.79,893.069 1799.78,892.836 1800.77,892.604 1801.76,892.373 1802.75,892.143 1803.74,891.914 1804.73,891.686 1805.72,891.459 1806.71,891.233 1807.69,891.009 1808.68,890.786 1809.67,890.564 1810.66,890.345 1811.65,890.126 1812.64,889.91 1813.63,889.695 1814.62,889.483 1815.61,889.272 1816.6,889.063 1817.59,888.856 1818.58,888.652 1819.57,888.45 1820.55,888.25 1821.54,888.053 1822.53,887.858 1823.52,887.665 1824.51,887.475 1825.5,887.288 1826.49,887.104 1827.48,886.922 1828.47,886.743 1829.46,886.567 1830.45,886.394 1831.44,886.224 1832.43,886.057 1833.41,885.893 1834.4,885.732 1835.39,885.574 1836.38,885.42 1837.37,885.269 1838.36,885.121 1839.35,884.976 1840.34,884.835 1841.33,884.698 1842.32,884.564 1843.31,884.433 1844.3,884.306 1845.29,884.183 1846.27,884.063 1847.26,883.947 1848.25,883.834 1849.24,883.725 1850.23,883.62 1851.22,883.519 1852.21,883.421 1853.2,883.327 1854.19,883.237 1855.18,883.151 1856.17,883.069 1857.16,882.99 1858.15,882.915 1859.13,882.844 1860.12,882.777 1861.11,882.714 1862.1,882.655 1863.09,882.599 1864.08,882.548 1865.07,882.5 1866.06,882.456 1867.05,882.417 1868.04,882.381 1869.03,882.348 1870.02,882.32 1871.01,882.296 1871.99,882.275 1872.98,882.258 1873.97,882.245 1874.96,882.236 1875.95,882.23 1876.94,882.229 1877.93,882.231 1878.92,882.236 1879.91,882.246 1880.9,882.259 1881.89,882.276 1882.88,882.296 1883.87,882.32 1884.85,882.348 1885.84,882.379 1886.83,882.413 1887.82,882.451 1888.81,882.493 1889.8,882.538 1890.79,882.586 1891.78,882.637 1892.77,882.692 1893.76,882.75 1894.75,882.812 1895.74,882.876 1896.72,882.944 1897.71,883.014 1898.7,883.088 1899.69,883.165 1900.68,883.244 1901.67,883.327 1902.66,883.412 1903.65,883.5 1904.64,883.591 1905.63,883.685 1906.62,883.781 1907.61,883.88 1908.6,883.981 1909.58,884.085 1910.57,884.191 1911.56,884.3 1912.55,884.41 1913.54,884.524 1914.53,884.639 1915.52,884.756 1916.51,884.876 1917.5,884.998 1918.49,885.121 1919.48,885.247 1920.47,885.374 1921.46,885.503 1922.44,885.634 1923.43,885.766 1924.42,885.9 1925.41,886.036 1926.4,886.173 1927.39,886.311 1928.38,886.451 1929.37,886.592 1930.36,886.735 1931.35,886.878 1932.34,887.023 1933.33,887.168 1934.32,887.315 1935.3,887.462 1936.29,887.611 1937.28,887.76 1938.27,887.909 1939.26,888.06 1940.25,888.211 1941.24,888.362 1942.23,888.514 1943.22,888.667 1944.21,888.819 1945.2,888.972 1946.19,889.125 1947.18,889.279 1948.16,889.432 1949.15,889.585 1950.14,889.739 1951.13,889.892 1952.12,890.045 1953.11,890.198 1954.1,890.35 1955.09,890.502 1956.08,890.654 1957.07,890.805 1958.06,890.956 1959.05,891.106 1960.04,891.256 1961.02,891.405 1962.01,891.553 1963,891.7 1963.99,891.846 1964.98,891.992 1965.97,892.136 1966.96,892.28 1967.95,892.422 1968.94,892.564 1969.93,892.704 1970.92,892.843 1971.91,892.98 1972.89,893.117 1973.88,893.252 1974.87,893.385 1975.86,893.517 1976.85,893.648 1977.84,893.777 1978.83,893.904 1979.82,894.03 1980.81,894.154 1981.8,894.276 1982.79,894.397 1983.78,894.516 1984.77,894.633 1985.75,894.748 1986.74,894.861 1987.73,894.972 1988.72,895.082 1989.71,895.189 1990.7,895.294 1991.69,895.397 1992.68,895.498 1993.67,895.597 1994.66,895.694 1995.65,895.788 1996.64,895.881 1997.63,895.971 1998.61,896.058 1999.6,896.144 2000.59,896.227 2001.58,896.308 2002.57,896.387 2003.56,896.463 2004.55,896.537 2005.54,896.608 2006.53,896.677 2007.52,896.743 2008.51,896.807 2009.5,896.869 2010.49,896.928 2011.47,896.985 2012.46,897.039 2013.45,897.091 2014.44,897.14 2015.43,897.187 2016.42,897.231 2017.41,897.272 2018.4,897.311 2019.39,897.348 2020.38,897.382 2021.37,897.413 2022.36,897.442 2023.35,897.469 2024.33,897.493 2025.32,897.514 2026.31,897.533 2027.3,897.549 2028.29,897.563 2029.28,897.575 2030.27,897.584 2031.26,897.59 2032.25,897.594 2033.24,897.596 2034.23,897.595 2035.22,897.591 2036.21,897.586 2037.19,897.577 2038.18,897.567 2039.17,897.554 2040.16,897.539 2041.15,897.521 2042.14,897.501 2043.13,897.479 2044.12,897.455 2045.11,897.428 2046.1,897.399 2047.09,897.368 2048.08,897.335 2049.06,897.3 2050.05,897.262 2051.04,897.222 2052.03,897.181 2053.02,897.137 2054.01,897.091 2055,897.044 2055.99,896.994 2056.98,896.942 2057.97,896.889 2058.96,896.834 2059.95,896.776 2060.94,896.717 2061.92,896.657 2062.91,896.594 2063.9,896.53 2064.89,896.464 2065.88,896.397 2066.87,896.328 2067.86,896.257 2068.85,896.185 2069.84,896.112 2070.83,896.037 2071.82,895.961 2072.81,895.883 2073.8,895.804 2074.78,895.723 2075.77,895.642 2076.76,895.559 2077.75,895.475 2078.74,895.39 2079.73,895.304 2080.72,895.216 2081.71,895.128 2082.7,895.039 2083.69,894.949 2084.68,894.858 2085.67,894.766 2086.66,894.673 2087.64,894.58 2088.63,894.486 2089.62,894.391 2090.61,894.296 2091.6,894.2 2092.59,894.103 2093.58,894.006 2094.57,893.908 2095.56,893.81 2096.55,893.712 2097.54,893.613 2098.53,893.514 2099.52,893.415 2100.5,893.315 2101.49,893.216 2102.48,893.116 2103.47,893.016 2104.46,892.916 2105.45,892.816 2106.44,892.716 2107.43,892.616 2108.42,892.516 2109.41,892.417 2110.4,892.317 2111.39,892.218 2112.38,892.119 2113.36,892.02 2114.35,891.922 2115.34,891.824 2116.33,891.726 2117.32,891.629 2118.31,891.533 2119.3,891.437 2120.29,891.341 2121.28,891.246 2122.27,891.152 2123.26,891.058 2124.25,890.965 2125.24,890.873 2126.22,890.781 2127.21,890.691 2128.2,890.601 2129.19,890.512 2130.18,890.423 2131.17,890.336 2132.16,890.25 2133.15,890.165 2134.14,890.08 2135.13,889.997 2136.12,889.915 2137.11,889.834 2138.09,889.754 2139.08,889.675 2140.07,889.597 2141.06,889.521 2142.05,889.446 2143.04,889.372 2144.03,889.299 2145.02,889.228 2146.01,889.157 2147,889.089 2147.99,889.021 2148.98,888.955 2149.97,888.89 2150.95,888.827 2151.94,888.765 2152.93,888.705 2153.92,888.646 2154.91,888.588 2155.9,888.532 2156.89,888.478 2157.88,888.425 2158.87,888.373 2159.86,888.323 2160.85,888.275 2161.84,888.228 2162.83,888.183 2163.81,888.139 2164.8,888.097 2165.79,888.057 2166.78,888.018 2167.77,887.981 2168.76,887.945 2169.75,887.911 2170.74,887.879 2171.73,887.848 2172.72,887.819 2173.71,887.792 2174.7,887.766 2175.69,887.742 2176.67,887.719 2177.66,887.699 2178.65,887.679 2179.64,887.662 2180.63,887.646 2181.62,887.632 2182.61,887.619 2183.6,887.608 2184.59,887.599 2185.58,887.591 2186.57,887.585 2187.56,887.581 2188.55,887.578 2189.53,887.577 2190.52,887.577 2191.51,887.579 2192.5,887.582 2193.49,887.587 2194.48,887.594 2195.47,887.602 2196.46,887.612 2197.45,887.623 2198.44,887.636 2199.43,887.65 2200.42,887.665 2201.41,887.683 2202.39,887.701 2203.38,887.721 2204.37,887.743 2205.36,887.765 2206.35,887.79 2207.34,887.815 2208.33,887.842 2209.32,887.871 2210.31,887.9 2211.3,887.931 2212.29,887.963 2213.28,887.997 2214.26,888.031 2215.25,888.067 2216.24,888.104 2217.23,888.142 2218.22,888.182 2219.21,888.222 2220.2,888.264 2221.19,888.307 2222.18,888.35 2223.17,888.395 2224.16,888.441 2225.15,888.488 2226.14,888.536 2227.12,888.584 2228.11,888.634 2229.1,888.685 2230.09,888.736 2231.08,888.788 2232.07,888.841 2233.06,888.895 2234.05,888.95 2235.04,889.005 2236.03,889.061 2237.02,889.118 2238.01,889.175 2239,889.233 2239.98,889.292 2240.97,889.351 2241.96,889.411 2242.95,889.471 2243.94,889.532 2244.93,889.594 2245.92,889.655 2246.91,889.717 2247.9,889.78 2248.89,889.843 2249.88,889.906 2250.87,889.97 2251.86,890.034 2252.84,890.098 2253.83,890.162 2254.82,890.227 2255.81,890.291 2256.8,890.356 2257.79,890.421 2258.78,890.486 2259.77,890.551 2260.76,890.616 2261.75,890.682 2262.74,890.747 2263.73,890.812 2264.72,890.877 2265.7,890.942 2266.69,891.007 2267.68,891.072 2268.67,891.136 2269.66,891.201 2270.65,891.265 2271.64,891.329 2272.63,891.392 2273.62,891.456 2274.61,891.519 2275.6,891.582 2276.59,891.644 2277.58,891.706 2278.56,891.767 2279.55,891.829 2280.54,891.889 2281.53,891.95 2282.52,892.009 2283.51,892.069 2284.5,892.127 2285.49,892.185 2286.48,892.243 2287.47,892.3 2288.46,892.356 2289.45,892.412 2290.43,892.467 2291.42,892.521 2292.41,892.575 2293.4,892.628 "/>
<path clip-path="url(#clip380)" d="M1994.94 270.476 L2282.85 270.476 L2282.85 166.796 L1994.94 166.796  Z" fill="#ffffff" fill-rule="evenodd" fill-opacity="1"/>
<polyline clip-path="url(#clip380)" style="stroke:#000000; stroke-linecap:round; stroke-linejoin:round; stroke-width:4; stroke-opacity:1; fill:none" points="1994.94,270.476 2282.85,270.476 2282.85,166.796 1994.94,166.796 1994.94,270.476 "/>
<polyline clip-path="url(#clip380)" style="stroke:#009af9; stroke-linecap:round; stroke-linejoin:round; stroke-width:8; stroke-opacity:1; fill:none" points="2018.24,218.636 2158.05,218.636 "/>
<path clip-path="url(#clip380)" d="M2206.01 209.99 L2196.63 222.606 L2206.49 235.916 L2201.47 235.916 L2193.92 225.731 L2186.38 235.916 L2181.36 235.916 L2191.42 222.351 L2182.21 209.99 L2187.23 209.99 L2194.11 219.226 L2200.98 209.99 L2206.01 209.99 Z" fill="#000000" fill-rule="nonzero" fill-opacity="1" /><path clip-path="url(#clip380)" d="M2222.74 199.944 Q2219.64 205.268 2218.14 210.476 Q2216.63 215.684 2216.63 221.032 Q2216.63 226.379 2218.14 231.633 Q2219.67 236.865 2222.74 242.166 L2219.04 242.166 Q2215.57 236.726 2213.83 231.471 Q2212.12 226.217 2212.12 221.032 Q2212.12 215.87 2213.83 210.638 Q2215.54 205.407 2219.04 199.944 L2222.74 199.944 Z" fill="#000000" fill-rule="nonzero" fill-opacity="1" /><path clip-path="url(#clip380)" d="M2235.22 202.629 L2235.22 209.99 L2243.99 209.99 L2243.99 213.3 L2235.22 213.3 L2235.22 227.374 Q2235.22 230.545 2236.08 231.448 Q2236.96 232.351 2239.62 232.351 L2243.99 232.351 L2243.99 235.916 L2239.62 235.916 Q2234.69 235.916 2232.81 234.087 Q2230.94 232.235 2230.94 227.374 L2230.94 213.3 L2227.81 213.3 L2227.81 209.99 L2230.94 209.99 L2230.94 202.629 L2235.22 202.629 Z" fill="#000000" fill-rule="nonzero" fill-opacity="1" /><path clip-path="url(#clip380)" d="M2248.92 199.944 L2252.63 199.944 Q2256.1 205.407 2257.81 210.638 Q2259.55 215.87 2259.55 221.032 Q2259.55 226.217 2257.81 231.471 Q2256.1 236.726 2252.63 242.166 L2248.92 242.166 Q2252 236.865 2253.51 231.633 Q2255.04 226.379 2255.04 221.032 Q2255.04 215.684 2253.51 210.476 Q2252 205.268 2248.92 199.944 Z" fill="#000000" fill-rule="nonzero" fill-opacity="1" /></svg>
