<?xml version="1.0" encoding="utf-8"?>
<svg xmlns="http://www.w3.org/2000/svg" xmlns:xlink="http://www.w3.org/1999/xlink" width="600" height="400" viewBox="0 0 2400 1600">
<defs>
  <clipPath id="clip580">
    <rect x="0" y="0" width="2400" height="1600"/>
  </clipPath>
</defs>
<path clip-path="url(#clip580)" d="M0 1600 L2400 1600 L2400 0 L0 0  Z" fill="#ffffff" fill-rule="evenodd" fill-opacity="1"/>
<defs>
  <clipPath id="clip581">
    <rect x="287" y="282" width="1561" height="983"/>
  </clipPath>
</defs>
<path clip-path="url(#clip580)" d="M219.866 1423.18 L2352.76 1423.18 L2352.76 123.472 L219.866 123.472  Z" fill="#ffffff" fill-rule="evenodd" fill-opacity="1"/>
<defs>
  <clipPath id="clip582">
    <rect x="219" y="123" width="2134" height="1301"/>
  </clipPath>
</defs>
<polyline clip-path="url(#clip582)" style="stroke:#000000; stroke-linecap:round; stroke-linejoin:round; stroke-width:2; stroke-opacity:0.1; fill:none" points="280.231,1423.18 280.231,123.472 "/>
<polyline clip-path="url(#clip582)" style="stroke:#000000; stroke-linecap:round; stroke-linejoin:round; stroke-width:2; stroke-opacity:0.1; fill:none" points="783.271,1423.18 783.271,123.472 "/>
<polyline clip-path="url(#clip582)" style="stroke:#000000; stroke-linecap:round; stroke-linejoin:round; stroke-width:2; stroke-opacity:0.1; fill:none" points="1286.31,1423.18 1286.31,123.472 "/>
<polyline clip-path="url(#clip582)" style="stroke:#000000; stroke-linecap:round; stroke-linejoin:round; stroke-width:2; stroke-opacity:0.1; fill:none" points="1789.35,1423.18 1789.35,123.472 "/>
<polyline clip-path="url(#clip582)" style="stroke:#000000; stroke-linecap:round; stroke-linejoin:round; stroke-width:2; stroke-opacity:0.1; fill:none" points="2292.39,1423.18 2292.39,123.472 "/>
<polyline clip-path="url(#clip582)" style="stroke:#000000; stroke-linecap:round; stroke-linejoin:round; stroke-width:2; stroke-opacity:0.1; fill:none" points="219.866,1386.4 2352.76,1386.4 "/>
<polyline clip-path="url(#clip582)" style="stroke:#000000; stroke-linecap:round; stroke-linejoin:round; stroke-width:2; stroke-opacity:0.1; fill:none" points="219.866,1181.07 2352.76,1181.07 "/>
<polyline clip-path="url(#clip582)" style="stroke:#000000; stroke-linecap:round; stroke-linejoin:round; stroke-width:2; stroke-opacity:0.1; fill:none" points="219.866,975.742 2352.76,975.742 "/>
<polyline clip-path="url(#clip582)" style="stroke:#000000; stroke-linecap:round; stroke-linejoin:round; stroke-width:2; stroke-opacity:0.1; fill:none" points="219.866,770.411 2352.76,770.411 "/>
<polyline clip-path="url(#clip582)" style="stroke:#000000; stroke-linecap:round; stroke-linejoin:round; stroke-width:2; stroke-opacity:0.1; fill:none" points="219.866,565.08 2352.76,565.08 "/>
<polyline clip-path="url(#clip582)" style="stroke:#000000; stroke-linecap:round; stroke-linejoin:round; stroke-width:2; stroke-opacity:0.1; fill:none" points="219.866,359.749 2352.76,359.749 "/>
<polyline clip-path="url(#clip582)" style="stroke:#000000; stroke-linecap:round; stroke-linejoin:round; stroke-width:2; stroke-opacity:0.1; fill:none" points="219.866,154.418 2352.76,154.418 "/>
<polyline clip-path="url(#clip580)" style="stroke:#000000; stroke-linecap:round; stroke-linejoin:round; stroke-width:4; stroke-opacity:1; fill:none" points="219.866,1423.18 2352.76,1423.18 "/>
<polyline clip-path="url(#clip580)" style="stroke:#000000; stroke-linecap:round; stroke-linejoin:round; stroke-width:4; stroke-opacity:1; fill:none" points="280.231,1423.18 280.231,1404.28 "/>
<polyline clip-path="url(#clip580)" style="stroke:#000000; stroke-linecap:round; stroke-linejoin:round; stroke-width:4; stroke-opacity:1; fill:none" points="783.271,1423.18 783.271,1404.28 "/>
<polyline clip-path="url(#clip580)" style="stroke:#000000; stroke-linecap:round; stroke-linejoin:round; stroke-width:4; stroke-opacity:1; fill:none" points="1286.31,1423.18 1286.31,1404.28 "/>
<polyline clip-path="url(#clip580)" style="stroke:#000000; stroke-linecap:round; stroke-linejoin:round; stroke-width:4; stroke-opacity:1; fill:none" points="1789.35,1423.18 1789.35,1404.28 "/>
<polyline clip-path="url(#clip580)" style="stroke:#000000; stroke-linecap:round; stroke-linejoin:round; stroke-width:4; stroke-opacity:1; fill:none" points="2292.39,1423.18 2292.39,1404.28 "/>
<path clip-path="url(#clip580)" d="M280.231 1454.1 Q276.62 1454.1 274.791 1457.66 Q272.986 1461.2 272.986 1468.33 Q272.986 1475.44 274.791 1479.01 Q276.62 1482.55 280.231 1482.55 Q283.865 1482.55 285.671 1479.01 Q287.5 1475.44 287.5 1468.33 Q287.5 1461.2 285.671 1457.66 Q283.865 1454.1 280.231 1454.1 M280.231 1450.39 Q286.041 1450.39 289.097 1455 Q292.175 1459.58 292.175 1468.33 Q292.175 1477.06 289.097 1481.67 Q286.041 1486.25 280.231 1486.25 Q274.421 1486.25 271.342 1481.67 Q268.287 1477.06 268.287 1468.33 Q268.287 1459.58 271.342 1455 Q274.421 1450.39 280.231 1450.39 Z" fill="#000000" fill-rule="nonzero" fill-opacity="1" /><path clip-path="url(#clip580)" d="M773.549 1451.02 L791.905 1451.02 L791.905 1454.96 L777.831 1454.96 L777.831 1463.43 Q778.85 1463.08 779.868 1462.92 Q780.887 1462.73 781.905 1462.73 Q787.692 1462.73 791.072 1465.9 Q794.452 1469.08 794.452 1474.49 Q794.452 1480.07 790.979 1483.17 Q787.507 1486.25 781.188 1486.25 Q779.012 1486.25 776.743 1485.88 Q774.498 1485.51 772.091 1484.77 L772.091 1480.07 Q774.174 1481.2 776.396 1481.76 Q778.618 1482.32 781.095 1482.32 Q785.1 1482.32 787.438 1480.21 Q789.776 1478.1 789.776 1474.49 Q789.776 1470.88 787.438 1468.77 Q785.1 1466.67 781.095 1466.67 Q779.22 1466.67 777.345 1467.08 Q775.493 1467.5 773.549 1468.38 L773.549 1451.02 Z" fill="#000000" fill-rule="nonzero" fill-opacity="1" /><path clip-path="url(#clip580)" d="M1261 1481.64 L1268.64 1481.64 L1268.64 1455.28 L1260.33 1456.95 L1260.33 1452.69 L1268.59 1451.02 L1273.27 1451.02 L1273.27 1481.64 L1280.91 1481.64 L1280.91 1485.58 L1261 1485.58 L1261 1481.64 Z" fill="#000000" fill-rule="nonzero" fill-opacity="1" /><path clip-path="url(#clip580)" d="M1300.35 1454.1 Q1296.74 1454.1 1294.91 1457.66 Q1293.11 1461.2 1293.11 1468.33 Q1293.11 1475.44 1294.91 1479.01 Q1296.74 1482.55 1300.35 1482.55 Q1303.98 1482.55 1305.79 1479.01 Q1307.62 1475.44 1307.62 1468.33 Q1307.62 1461.2 1305.79 1457.66 Q1303.98 1454.1 1300.35 1454.1 M1300.35 1450.39 Q1306.16 1450.39 1309.22 1455 Q1312.29 1459.58 1312.29 1468.33 Q1312.29 1477.06 1309.22 1481.67 Q1306.16 1486.25 1300.35 1486.25 Q1294.54 1486.25 1291.46 1481.67 Q1288.41 1477.06 1288.41 1468.33 Q1288.41 1459.58 1291.46 1455 Q1294.54 1450.39 1300.35 1450.39 Z" fill="#000000" fill-rule="nonzero" fill-opacity="1" /><path clip-path="url(#clip580)" d="M1764.54 1481.64 L1772.18 1481.64 L1772.18 1455.28 L1763.87 1456.95 L1763.87 1452.69 L1772.13 1451.02 L1776.8 1451.02 L1776.8 1481.64 L1784.44 1481.64 L1784.44 1485.58 L1764.54 1485.58 L1764.54 1481.64 Z" fill="#000000" fill-rule="nonzero" fill-opacity="1" /><path clip-path="url(#clip580)" d="M1793.93 1451.02 L1812.29 1451.02 L1812.29 1454.96 L1798.22 1454.96 L1798.22 1463.43 Q1799.24 1463.08 1800.25 1462.92 Q1801.27 1462.73 1802.29 1462.73 Q1808.08 1462.73 1811.46 1465.9 Q1814.84 1469.08 1814.84 1474.49 Q1814.84 1480.07 1811.36 1483.17 Q1807.89 1486.25 1801.57 1486.25 Q1799.4 1486.25 1797.13 1485.88 Q1794.88 1485.51 1792.48 1484.77 L1792.48 1480.07 Q1794.56 1481.2 1796.78 1481.76 Q1799 1482.32 1801.48 1482.32 Q1805.49 1482.32 1807.82 1480.21 Q1810.16 1478.1 1810.16 1474.49 Q1810.16 1470.88 1807.82 1468.77 Q1805.49 1466.67 1801.48 1466.67 Q1799.61 1466.67 1797.73 1467.08 Q1795.88 1467.5 1793.93 1468.38 L1793.93 1451.02 Z" fill="#000000" fill-rule="nonzero" fill-opacity="1" /><path clip-path="url(#clip580)" d="M2271.16 1481.64 L2287.48 1481.64 L2287.48 1485.58 L2265.54 1485.58 L2265.54 1481.64 Q2268.2 1478.89 2272.78 1474.26 Q2277.39 1469.61 2278.57 1468.27 Q2280.82 1465.74 2281.7 1464.01 Q2282.6 1462.25 2282.6 1460.56 Q2282.6 1457.8 2280.66 1456.07 Q2278.73 1454.33 2275.63 1454.33 Q2273.43 1454.33 2270.98 1455.09 Q2268.55 1455.86 2265.77 1457.41 L2265.77 1452.69 Q2268.59 1451.55 2271.05 1450.97 Q2273.5 1450.39 2275.54 1450.39 Q2280.91 1450.39 2284.1 1453.08 Q2287.3 1455.77 2287.3 1460.26 Q2287.3 1462.39 2286.49 1464.31 Q2285.7 1466.2 2283.59 1468.8 Q2283.02 1469.47 2279.91 1472.69 Q2276.81 1475.88 2271.16 1481.64 Z" fill="#000000" fill-rule="nonzero" fill-opacity="1" /><path clip-path="url(#clip580)" d="M2307.3 1454.1 Q2303.69 1454.1 2301.86 1457.66 Q2300.05 1461.2 2300.05 1468.33 Q2300.05 1475.44 2301.86 1479.01 Q2303.69 1482.55 2307.3 1482.55 Q2310.93 1482.55 2312.74 1479.01 Q2314.57 1475.44 2314.57 1468.33 Q2314.57 1461.2 2312.74 1457.66 Q2310.93 1454.1 2307.3 1454.1 M2307.3 1450.39 Q2313.11 1450.39 2316.16 1455 Q2319.24 1459.58 2319.24 1468.33 Q2319.24 1477.06 2316.16 1481.67 Q2313.11 1486.25 2307.3 1486.25 Q2301.49 1486.25 2298.41 1481.67 Q2295.35 1477.06 2295.35 1468.33 Q2295.35 1459.58 2298.41 1455 Q2301.49 1450.39 2307.3 1450.39 Z" fill="#000000" fill-rule="nonzero" fill-opacity="1" /><path clip-path="url(#clip580)" d="M1156.48 1520.52 L1196.68 1520.52 L1196.68 1525.93 L1179.81 1525.93 L1179.81 1568.04 L1173.35 1568.04 L1173.35 1525.93 L1156.48 1525.93 L1156.48 1520.52 Z" fill="#000000" fill-rule="nonzero" fill-opacity="1" /><path clip-path="url(#clip580)" d="M1200.63 1532.4 L1206.49 1532.4 L1206.49 1568.04 L1200.63 1568.04 L1200.63 1532.4 M1200.63 1518.52 L1206.49 1518.52 L1206.49 1525.93 L1200.63 1525.93 L1200.63 1518.52 Z" fill="#000000" fill-rule="nonzero" fill-opacity="1" /><path clip-path="url(#clip580)" d="M1246.49 1539.24 Q1248.69 1535.29 1251.75 1533.41 Q1254.8 1531.54 1258.94 1531.54 Q1264.51 1531.54 1267.53 1535.45 Q1270.56 1539.33 1270.56 1546.53 L1270.56 1568.04 L1264.67 1568.04 L1264.67 1546.72 Q1264.67 1541.59 1262.85 1539.11 Q1261.04 1536.63 1257.32 1536.63 Q1252.76 1536.63 1250.12 1539.65 Q1247.48 1542.68 1247.48 1547.9 L1247.48 1568.04 L1241.59 1568.04 L1241.59 1546.72 Q1241.59 1541.56 1239.78 1539.11 Q1237.96 1536.63 1234.18 1536.63 Q1229.69 1536.63 1227.05 1539.68 Q1224.4 1542.71 1224.4 1547.9 L1224.4 1568.04 L1218.52 1568.04 L1218.52 1532.4 L1224.4 1532.4 L1224.4 1537.93 Q1226.41 1534.66 1229.21 1533.1 Q1232.01 1531.54 1235.86 1531.54 Q1239.75 1531.54 1242.45 1533.51 Q1245.19 1535.48 1246.49 1539.24 Z" fill="#000000" fill-rule="nonzero" fill-opacity="1" /><path clip-path="url(#clip580)" d="M1312.73 1548.76 L1312.73 1551.62 L1285.8 1551.62 Q1286.18 1557.67 1289.43 1560.85 Q1292.71 1564 1298.53 1564 Q1301.91 1564 1305.06 1563.17 Q1308.24 1562.35 1311.36 1560.69 L1311.36 1566.23 Q1308.21 1567.57 1304.9 1568.27 Q1301.59 1568.97 1298.18 1568.97 Q1289.65 1568.97 1284.66 1564 Q1279.69 1559.04 1279.69 1550.57 Q1279.69 1541.82 1284.4 1536.69 Q1289.14 1531.54 1297.16 1531.54 Q1304.36 1531.54 1308.53 1536.18 Q1312.73 1540.8 1312.73 1548.76 M1306.87 1547.04 Q1306.81 1542.23 1304.17 1539.37 Q1301.56 1536.5 1297.23 1536.5 Q1292.33 1536.5 1289.37 1539.27 Q1286.44 1542.04 1285.99 1547.07 L1306.87 1547.04 Z" fill="#000000" fill-rule="nonzero" fill-opacity="1" /><path clip-path="url(#clip580)" d="M1357.13 1518.58 Q1352.86 1525.9 1350.8 1533.06 Q1348.73 1540.23 1348.73 1547.58 Q1348.73 1554.93 1350.8 1562.16 Q1352.9 1569.35 1357.13 1576.64 L1352.04 1576.64 Q1347.26 1569.16 1344.88 1561.93 Q1342.52 1554.71 1342.52 1547.58 Q1342.52 1540.48 1344.88 1533.29 Q1347.23 1526.09 1352.04 1518.58 L1357.13 1518.58 Z" fill="#000000" fill-rule="nonzero" fill-opacity="1" /><path clip-path="url(#clip580)" d="M1391.22 1533.45 L1391.22 1538.98 Q1388.74 1537.71 1386.06 1537.07 Q1383.39 1536.44 1380.52 1536.44 Q1376.16 1536.44 1373.97 1537.77 Q1371.8 1539.11 1371.8 1541.79 Q1371.8 1543.82 1373.36 1545 Q1374.92 1546.15 1379.63 1547.2 L1381.64 1547.64 Q1387.88 1548.98 1390.49 1551.43 Q1393.13 1553.85 1393.13 1558.21 Q1393.13 1563.17 1389.18 1566.07 Q1385.27 1568.97 1378.39 1568.97 Q1375.53 1568.97 1372.41 1568.39 Q1369.32 1567.85 1365.88 1566.74 L1365.88 1560.69 Q1369.13 1562.38 1372.28 1563.24 Q1375.43 1564.07 1378.52 1564.07 Q1382.66 1564.07 1384.88 1562.66 Q1387.11 1561.23 1387.11 1558.65 Q1387.11 1556.27 1385.49 1554.99 Q1383.9 1553.72 1378.45 1552.54 L1376.42 1552.07 Q1370.97 1550.92 1368.56 1548.56 Q1366.14 1546.18 1366.14 1542.04 Q1366.14 1537.01 1369.7 1534.27 Q1373.27 1531.54 1379.82 1531.54 Q1383.07 1531.54 1385.93 1532.01 Q1388.8 1532.49 1391.22 1533.45 Z" fill="#000000" fill-rule="nonzero" fill-opacity="1" /><path clip-path="url(#clip580)" d="M1401.53 1518.58 L1406.62 1518.58 Q1411.4 1526.09 1413.75 1533.29 Q1416.14 1540.48 1416.14 1547.58 Q1416.14 1554.71 1413.75 1561.93 Q1411.4 1569.16 1406.62 1576.64 L1401.53 1576.64 Q1405.76 1569.35 1407.83 1562.16 Q1409.93 1554.93 1409.93 1547.58 Q1409.93 1540.23 1407.83 1533.06 Q1405.76 1525.9 1401.53 1518.58 Z" fill="#000000" fill-rule="nonzero" fill-opacity="1" /><polyline clip-path="url(#clip580)" style="stroke:#000000; stroke-linecap:round; stroke-linejoin:round; stroke-width:4; stroke-opacity:1; fill:none" points="219.866,1423.18 219.866,123.472 "/>
<polyline clip-path="url(#clip580)" style="stroke:#000000; stroke-linecap:round; stroke-linejoin:round; stroke-width:4; stroke-opacity:1; fill:none" points="219.866,1386.4 238.764,1386.4 "/>
<polyline clip-path="url(#clip580)" style="stroke:#000000; stroke-linecap:round; stroke-linejoin:round; stroke-width:4; stroke-opacity:1; fill:none" points="219.866,1181.07 238.764,1181.07 "/>
<polyline clip-path="url(#clip580)" style="stroke:#000000; stroke-linecap:round; stroke-linejoin:round; stroke-width:4; stroke-opacity:1; fill:none" points="219.866,975.742 238.764,975.742 "/>
<polyline clip-path="url(#clip580)" style="stroke:#000000; stroke-linecap:round; stroke-linejoin:round; stroke-width:4; stroke-opacity:1; fill:none" points="219.866,770.411 238.764,770.411 "/>
<polyline clip-path="url(#clip580)" style="stroke:#000000; stroke-linecap:round; stroke-linejoin:round; stroke-width:4; stroke-opacity:1; fill:none" points="219.866,565.08 238.764,565.08 "/>
<polyline clip-path="url(#clip580)" style="stroke:#000000; stroke-linecap:round; stroke-linejoin:round; stroke-width:4; stroke-opacity:1; fill:none" points="219.866,359.749 238.764,359.749 "/>
<polyline clip-path="url(#clip580)" style="stroke:#000000; stroke-linecap:round; stroke-linejoin:round; stroke-width:4; stroke-opacity:1; fill:none" points="219.866,154.418 238.764,154.418 "/>
<path clip-path="url(#clip580)" d="M126.691 1372.2 Q123.08 1372.2 121.251 1375.77 Q119.445 1379.31 119.445 1386.44 Q119.445 1393.55 121.251 1397.11 Q123.08 1400.65 126.691 1400.65 Q130.325 1400.65 132.13 1397.11 Q133.959 1393.55 133.959 1386.44 Q133.959 1379.31 132.13 1375.77 Q130.325 1372.2 126.691 1372.2 M126.691 1368.5 Q132.501 1368.5 135.556 1373.11 Q138.635 1377.69 138.635 1386.44 Q138.635 1395.17 135.556 1399.77 Q132.501 1404.36 126.691 1404.36 Q120.88 1404.36 117.802 1399.77 Q114.746 1395.17 114.746 1386.44 Q114.746 1377.69 117.802 1373.11 Q120.88 1368.5 126.691 1368.5 Z" fill="#000000" fill-rule="nonzero" fill-opacity="1" /><path clip-path="url(#clip580)" d="M146.853 1397.81 L151.737 1397.81 L151.737 1403.68 L146.853 1403.68 L146.853 1397.81 Z" fill="#000000" fill-rule="nonzero" fill-opacity="1" /><path clip-path="url(#clip580)" d="M171.922 1372.2 Q168.311 1372.2 166.482 1375.77 Q164.677 1379.31 164.677 1386.44 Q164.677 1393.55 166.482 1397.11 Q168.311 1400.65 171.922 1400.65 Q175.556 1400.65 177.362 1397.11 Q179.19 1393.55 179.19 1386.44 Q179.19 1379.31 177.362 1375.77 Q175.556 1372.2 171.922 1372.2 M171.922 1368.5 Q177.732 1368.5 180.788 1373.11 Q183.866 1377.69 183.866 1386.44 Q183.866 1395.17 180.788 1399.77 Q177.732 1404.36 171.922 1404.36 Q166.112 1404.36 163.033 1399.77 Q159.978 1395.17 159.978 1386.44 Q159.978 1377.69 163.033 1373.11 Q166.112 1368.5 171.922 1368.5 Z" fill="#000000" fill-rule="nonzero" fill-opacity="1" /><path clip-path="url(#clip580)" d="M127.917 1166.87 Q124.306 1166.87 122.478 1170.44 Q120.672 1173.98 120.672 1181.11 Q120.672 1188.21 122.478 1191.78 Q124.306 1195.32 127.917 1195.32 Q131.552 1195.32 133.357 1191.78 Q135.186 1188.21 135.186 1181.11 Q135.186 1173.98 133.357 1170.44 Q131.552 1166.87 127.917 1166.87 M127.917 1163.17 Q133.728 1163.17 136.783 1167.78 Q139.862 1172.36 139.862 1181.11 Q139.862 1189.84 136.783 1194.44 Q133.728 1199.02 127.917 1199.02 Q122.107 1199.02 119.029 1194.44 Q115.973 1189.84 115.973 1181.11 Q115.973 1172.36 119.029 1167.78 Q122.107 1163.17 127.917 1163.17 Z" fill="#000000" fill-rule="nonzero" fill-opacity="1" /><path clip-path="url(#clip580)" d="M148.079 1192.47 L152.964 1192.47 L152.964 1198.35 L148.079 1198.35 L148.079 1192.47 Z" fill="#000000" fill-rule="nonzero" fill-opacity="1" /><path clip-path="url(#clip580)" d="M163.959 1194.42 L171.598 1194.42 L171.598 1168.05 L163.288 1169.72 L163.288 1165.46 L171.552 1163.79 L176.227 1163.79 L176.227 1194.42 L183.866 1194.42 L183.866 1198.35 L163.959 1198.35 L163.959 1194.42 Z" fill="#000000" fill-rule="nonzero" fill-opacity="1" /><path clip-path="url(#clip580)" d="M128.288 961.541 Q124.677 961.541 122.848 965.106 Q121.043 968.648 121.043 975.777 Q121.043 982.884 122.848 986.448 Q124.677 989.99 128.288 989.99 Q131.922 989.99 133.728 986.448 Q135.556 982.884 135.556 975.777 Q135.556 968.648 133.728 965.106 Q131.922 961.541 128.288 961.541 M128.288 957.837 Q134.098 957.837 137.154 962.444 Q140.232 967.027 140.232 975.777 Q140.232 984.504 137.154 989.11 Q134.098 993.694 128.288 993.694 Q122.478 993.694 119.399 989.11 Q116.343 984.504 116.343 975.777 Q116.343 967.027 119.399 962.444 Q122.478 957.837 128.288 957.837 Z" fill="#000000" fill-rule="nonzero" fill-opacity="1" /><path clip-path="url(#clip580)" d="M148.45 987.143 L153.334 987.143 L153.334 993.022 L148.45 993.022 L148.45 987.143 Z" fill="#000000" fill-rule="nonzero" fill-opacity="1" /><path clip-path="url(#clip580)" d="M167.547 989.087 L183.866 989.087 L183.866 993.022 L161.922 993.022 L161.922 989.087 Q164.584 986.333 169.167 981.703 Q173.774 977.05 174.954 975.708 Q177.2 973.185 178.079 971.448 Q178.982 969.689 178.982 967.999 Q178.982 965.245 177.038 963.509 Q175.116 961.773 172.014 961.773 Q169.815 961.773 167.362 962.536 Q164.931 963.3 162.153 964.851 L162.153 960.129 Q164.977 958.995 167.431 958.416 Q169.885 957.837 171.922 957.837 Q177.292 957.837 180.487 960.523 Q183.681 963.208 183.681 967.698 Q183.681 969.828 182.871 971.749 Q182.084 973.647 179.977 976.24 Q179.399 976.911 176.297 980.129 Q173.195 983.323 167.547 989.087 Z" fill="#000000" fill-rule="nonzero" fill-opacity="1" /><path clip-path="url(#clip580)" d="M127.339 756.21 Q123.728 756.21 121.899 759.775 Q120.093 763.316 120.093 770.446 Q120.093 777.552 121.899 781.117 Q123.728 784.659 127.339 784.659 Q130.973 784.659 132.779 781.117 Q134.607 777.552 134.607 770.446 Q134.607 763.316 132.779 759.775 Q130.973 756.21 127.339 756.21 M127.339 752.506 Q133.149 752.506 136.204 757.113 Q139.283 761.696 139.283 770.446 Q139.283 779.173 136.204 783.779 Q133.149 788.363 127.339 788.363 Q121.529 788.363 118.45 783.779 Q115.394 779.173 115.394 770.446 Q115.394 761.696 118.45 757.113 Q121.529 752.506 127.339 752.506 Z" fill="#000000" fill-rule="nonzero" fill-opacity="1" /><path clip-path="url(#clip580)" d="M147.501 781.812 L152.385 781.812 L152.385 787.691 L147.501 787.691 L147.501 781.812 Z" fill="#000000" fill-rule="nonzero" fill-opacity="1" /><path clip-path="url(#clip580)" d="M176.737 769.057 Q180.093 769.775 181.968 772.043 Q183.866 774.312 183.866 777.645 Q183.866 782.761 180.348 785.562 Q176.829 788.363 170.348 788.363 Q168.172 788.363 165.857 787.923 Q163.565 787.506 161.112 786.65 L161.112 782.136 Q163.056 783.27 165.371 783.849 Q167.686 784.427 170.209 784.427 Q174.607 784.427 176.899 782.691 Q179.214 780.955 179.214 777.645 Q179.214 774.589 177.061 772.876 Q174.931 771.14 171.112 771.14 L167.084 771.14 L167.084 767.298 L171.297 767.298 Q174.746 767.298 176.575 765.932 Q178.403 764.543 178.403 761.951 Q178.403 759.289 176.505 757.877 Q174.63 756.441 171.112 756.441 Q169.19 756.441 166.991 756.858 Q164.792 757.275 162.153 758.154 L162.153 753.988 Q164.815 753.247 167.13 752.877 Q169.468 752.506 171.528 752.506 Q176.852 752.506 179.954 754.937 Q183.056 757.344 183.056 761.465 Q183.056 764.335 181.413 766.326 Q179.769 768.293 176.737 769.057 Z" fill="#000000" fill-rule="nonzero" fill-opacity="1" /><path clip-path="url(#clip580)" d="M126.205 550.879 Q122.593 550.879 120.765 554.444 Q118.959 557.985 118.959 565.115 Q118.959 572.221 120.765 575.786 Q122.593 579.328 126.205 579.328 Q129.839 579.328 131.644 575.786 Q133.473 572.221 133.473 565.115 Q133.473 557.985 131.644 554.444 Q129.839 550.879 126.205 550.879 M126.205 547.175 Q132.015 547.175 135.07 551.782 Q138.149 556.365 138.149 565.115 Q138.149 573.842 135.07 578.448 Q132.015 583.031 126.205 583.031 Q120.394 583.031 117.316 578.448 Q114.26 573.842 114.26 565.115 Q114.26 556.365 117.316 551.782 Q120.394 547.175 126.205 547.175 Z" fill="#000000" fill-rule="nonzero" fill-opacity="1" /><path clip-path="url(#clip580)" d="M146.366 576.48 L151.251 576.48 L151.251 582.36 L146.366 582.36 L146.366 576.48 Z" fill="#000000" fill-rule="nonzero" fill-opacity="1" /><path clip-path="url(#clip580)" d="M174.283 551.874 L162.477 570.323 L174.283 570.323 L174.283 551.874 M173.056 547.8 L178.936 547.8 L178.936 570.323 L183.866 570.323 L183.866 574.212 L178.936 574.212 L178.936 582.36 L174.283 582.36 L174.283 574.212 L158.681 574.212 L158.681 569.698 L173.056 547.8 Z" fill="#000000" fill-rule="nonzero" fill-opacity="1" /><path clip-path="url(#clip580)" d="M127.686 345.548 Q124.075 345.548 122.246 349.112 Q120.441 352.654 120.441 359.784 Q120.441 366.89 122.246 370.455 Q124.075 373.996 127.686 373.996 Q131.32 373.996 133.126 370.455 Q134.954 366.89 134.954 359.784 Q134.954 352.654 133.126 349.112 Q131.32 345.548 127.686 345.548 M127.686 341.844 Q133.496 341.844 136.552 346.45 Q139.63 351.034 139.63 359.784 Q139.63 368.51 136.552 373.117 Q133.496 377.7 127.686 377.7 Q121.876 377.7 118.797 373.117 Q115.742 368.51 115.742 359.784 Q115.742 351.034 118.797 346.45 Q121.876 341.844 127.686 341.844 Z" fill="#000000" fill-rule="nonzero" fill-opacity="1" /><path clip-path="url(#clip580)" d="M147.848 371.149 L152.732 371.149 L152.732 377.029 L147.848 377.029 L147.848 371.149 Z" fill="#000000" fill-rule="nonzero" fill-opacity="1" /><path clip-path="url(#clip580)" d="M162.964 342.469 L181.32 342.469 L181.32 346.404 L167.246 346.404 L167.246 354.876 Q168.264 354.529 169.283 354.367 Q170.302 354.182 171.32 354.182 Q177.107 354.182 180.487 357.353 Q183.866 360.524 183.866 365.941 Q183.866 371.52 180.394 374.621 Q176.922 377.7 170.602 377.7 Q168.427 377.7 166.158 377.33 Q163.913 376.959 161.505 376.219 L161.505 371.52 Q163.589 372.654 165.811 373.209 Q168.033 373.765 170.51 373.765 Q174.514 373.765 176.852 371.659 Q179.19 369.552 179.19 365.941 Q179.19 362.33 176.852 360.223 Q174.514 358.117 170.51 358.117 Q168.635 358.117 166.76 358.534 Q164.908 358.95 162.964 359.83 L162.964 342.469 Z" fill="#000000" fill-rule="nonzero" fill-opacity="1" /><path clip-path="url(#clip580)" d="M126.529 140.216 Q122.918 140.216 121.089 143.781 Q119.283 147.323 119.283 154.452 Q119.283 161.559 121.089 165.124 Q122.918 168.665 126.529 168.665 Q130.163 168.665 131.968 165.124 Q133.797 161.559 133.797 154.452 Q133.797 147.323 131.968 143.781 Q130.163 140.216 126.529 140.216 M126.529 136.513 Q132.339 136.513 135.394 141.119 Q138.473 145.702 138.473 154.452 Q138.473 163.179 135.394 167.786 Q132.339 172.369 126.529 172.369 Q120.718 172.369 117.64 167.786 Q114.584 163.179 114.584 154.452 Q114.584 145.702 117.64 141.119 Q120.718 136.513 126.529 136.513 Z" fill="#000000" fill-rule="nonzero" fill-opacity="1" /><path clip-path="url(#clip580)" d="M146.691 165.818 L151.575 165.818 L151.575 171.698 L146.691 171.698 L146.691 165.818 Z" fill="#000000" fill-rule="nonzero" fill-opacity="1" /><path clip-path="url(#clip580)" d="M172.339 152.554 Q169.19 152.554 167.339 154.707 Q165.51 156.86 165.51 160.61 Q165.51 164.337 167.339 166.513 Q169.19 168.665 172.339 168.665 Q175.487 168.665 177.315 166.513 Q179.167 164.337 179.167 160.61 Q179.167 156.86 177.315 154.707 Q175.487 152.554 172.339 152.554 M181.621 137.902 L181.621 142.161 Q179.862 141.327 178.056 140.888 Q176.274 140.448 174.514 140.448 Q169.885 140.448 167.431 143.573 Q165.001 146.698 164.653 153.017 Q166.019 151.003 168.079 149.939 Q170.139 148.851 172.616 148.851 Q177.825 148.851 180.834 152.022 Q183.866 155.17 183.866 160.61 Q183.866 165.934 180.718 169.151 Q177.57 172.369 172.339 172.369 Q166.343 172.369 163.172 167.786 Q160.001 163.179 160.001 154.452 Q160.001 146.258 163.89 141.397 Q167.778 136.513 174.329 136.513 Q176.089 136.513 177.871 136.86 Q179.676 137.207 181.621 137.902 Z" fill="#000000" fill-rule="nonzero" fill-opacity="1" /><path clip-path="url(#clip580)" d="M16.4842 1210.35 L16.4842 1170.15 L21.895 1170.15 L21.895 1187.02 L64.0042 1187.02 L64.0042 1193.48 L21.895 1193.48 L21.895 1210.35 L16.4842 1210.35 Z" fill="#000000" fill-rule="nonzero" fill-opacity="1" /><path clip-path="url(#clip580)" d="M32.4621 1161.46 Q32.4621 1166.17 36.1542 1168.91 Q39.8145 1171.64 46.212 1171.64 Q52.6095 1171.64 56.3017 1168.94 Q59.9619 1166.2 59.9619 1161.46 Q59.9619 1156.78 56.2698 1154.04 Q52.5777 1151.31 46.212 1151.31 Q39.8781 1151.31 36.186 1154.04 Q32.4621 1156.78 32.4621 1161.46 M27.4968 1161.46 Q27.4968 1153.82 32.4621 1149.46 Q37.4273 1145.1 46.212 1145.1 Q54.9649 1145.1 59.9619 1149.46 Q64.9272 1153.82 64.9272 1161.46 Q64.9272 1169.13 59.9619 1173.49 Q54.9649 1177.82 46.212 1177.82 Q37.4273 1177.82 32.4621 1173.49 Q27.4968 1169.13 27.4968 1161.46 Z" fill="#000000" fill-rule="nonzero" fill-opacity="1" /><path clip-path="url(#clip580)" d="M18.2347 1129.6 L28.3562 1129.6 L28.3562 1117.54 L32.9077 1117.54 L32.9077 1129.6 L52.2594 1129.6 Q56.6199 1129.6 57.8613 1128.42 Q59.1026 1127.21 59.1026 1123.55 L59.1026 1117.54 L64.0042 1117.54 L64.0042 1123.55 Q64.0042 1130.33 61.4897 1132.91 Q58.9434 1135.49 52.2594 1135.49 L32.9077 1135.49 L32.9077 1139.78 L28.3562 1139.78 L28.3562 1135.49 L18.2347 1135.49 L18.2347 1129.6 Z" fill="#000000" fill-rule="nonzero" fill-opacity="1" /><path clip-path="url(#clip580)" d="M46.0847 1093.63 Q46.0847 1100.73 47.7079 1103.47 Q49.3312 1106.2 53.2461 1106.2 Q56.3653 1106.2 58.2114 1104.17 Q60.0256 1102.1 60.0256 1098.57 Q60.0256 1093.7 56.5881 1090.77 Q53.1188 1087.81 47.3897 1087.81 L46.0847 1087.81 L46.0847 1093.63 M43.6657 1081.95 L64.0042 1081.95 L64.0042 1087.81 L58.5933 1087.81 Q61.8398 1089.81 63.3994 1092.8 Q64.9272 1095.8 64.9272 1100.13 Q64.9272 1105.6 61.8716 1108.85 Q58.7843 1112.06 53.6281 1112.06 Q47.6125 1112.06 44.5569 1108.05 Q41.5014 1104.01 41.5014 1096.02 L41.5014 1087.81 L40.9285 1087.81 Q36.8862 1087.81 34.6901 1090.48 Q32.4621 1093.12 32.4621 1097.93 Q32.4621 1100.98 33.1941 1103.88 Q33.9262 1106.78 35.3903 1109.45 L29.9795 1109.45 Q28.7381 1106.24 28.1334 1103.21 Q27.4968 1100.19 27.4968 1097.32 Q27.4968 1089.59 31.5072 1085.77 Q35.5176 1081.95 43.6657 1081.95 Z" fill="#000000" fill-rule="nonzero" fill-opacity="1" /><path clip-path="url(#clip580)" d="M14.479 1069.89 L14.479 1064.03 L64.0042 1064.03 L64.0042 1069.89 L14.479 1069.89 Z" fill="#000000" fill-rule="nonzero" fill-opacity="1" /><path clip-path="url(#clip580)" d="M16.4842 1030.8 L16.4842 1021.22 L48.8219 1009.1 L16.4842 996.906 L16.4842 987.325 L64.0042 987.325 L64.0042 993.595 L22.277 993.595 L54.8694 1005.85 L54.8694 1012.31 L22.277 1024.56 L64.0042 1024.56 L64.0042 1030.8 L16.4842 1030.8 Z" fill="#000000" fill-rule="nonzero" fill-opacity="1" /><path clip-path="url(#clip580)" d="M44.7161 944.325 L47.5806 944.325 L47.5806 971.252 Q53.6281 970.87 56.8109 967.623 Q59.9619 964.345 59.9619 958.52 Q59.9619 955.146 59.1344 951.995 Q58.3069 948.813 56.6518 945.693 L62.1899 945.693 Q63.5267 948.844 64.227 952.155 Q64.9272 955.465 64.9272 958.87 Q64.9272 967.4 59.9619 972.398 Q54.9967 977.363 46.5303 977.363 Q37.7774 977.363 32.6531 972.652 Q27.4968 967.91 27.4968 959.889 Q27.4968 952.696 32.1438 948.526 Q36.7589 944.325 44.7161 944.325 M42.9973 950.181 Q38.1912 950.245 35.3266 952.887 Q32.4621 955.497 32.4621 959.825 Q32.4621 964.727 35.2312 967.687 Q38.0002 970.615 43.0292 971.061 L42.9973 950.181 Z" fill="#000000" fill-rule="nonzero" fill-opacity="1" /><path clip-path="url(#clip580)" d="M29.7248 909.059 L35.1993 909.059 Q33.8307 911.541 33.1623 914.056 Q32.4621 916.538 32.4621 919.085 Q32.4621 924.782 36.0905 927.933 Q39.6872 931.084 46.212 931.084 Q52.7369 931.084 56.3653 927.933 Q59.9619 924.782 59.9619 919.085 Q59.9619 916.538 59.2935 914.056 Q58.5933 911.541 57.2247 909.059 L62.6355 909.059 Q63.7814 911.51 64.3543 914.151 Q64.9272 916.761 64.9272 919.721 Q64.9272 927.774 59.8664 932.516 Q54.8057 937.259 46.212 937.259 Q37.491 937.259 32.4939 932.485 Q27.4968 927.678 27.4968 919.339 Q27.4968 916.634 28.0697 914.056 Q28.6108 911.478 29.7248 909.059 Z" fill="#000000" fill-rule="nonzero" fill-opacity="1" /><path clip-path="url(#clip580)" d="M42.4881 869.241 L64.0042 869.241 L64.0042 875.098 L42.679 875.098 Q37.6183 875.098 35.1038 877.071 Q32.5894 879.044 32.5894 882.991 Q32.5894 887.734 35.6131 890.471 Q38.6368 893.208 43.8567 893.208 L64.0042 893.208 L64.0042 899.096 L14.479 899.096 L14.479 893.208 L33.8944 893.208 Q30.6797 891.107 29.0883 888.275 Q27.4968 885.41 27.4968 881.686 Q27.4968 875.543 31.3163 872.392 Q35.1038 869.241 42.4881 869.241 Z" fill="#000000" fill-rule="nonzero" fill-opacity="1" /><path clip-path="url(#clip580)" d="M46.0847 841.359 Q46.0847 848.457 47.7079 851.194 Q49.3312 853.932 53.2461 853.932 Q56.3653 853.932 58.2114 851.895 Q60.0256 849.826 60.0256 846.293 Q60.0256 841.423 56.5881 838.495 Q53.1188 835.535 47.3897 835.535 L46.0847 835.535 L46.0847 841.359 M43.6657 829.678 L64.0042 829.678 L64.0042 835.535 L58.5933 835.535 Q61.8398 837.54 63.3994 840.532 Q64.9272 843.524 64.9272 847.852 Q64.9272 853.327 61.8716 856.574 Q58.7843 859.788 53.6281 859.788 Q47.6125 859.788 44.5569 855.778 Q41.5014 851.736 41.5014 843.747 L41.5014 835.535 L40.9285 835.535 Q36.8862 835.535 34.6901 838.208 Q32.4621 840.85 32.4621 845.656 Q32.4621 848.712 33.1941 851.608 Q33.9262 854.505 35.3903 857.178 L29.9795 857.178 Q28.7381 853.964 28.1334 850.94 Q27.4968 847.916 27.4968 845.052 Q27.4968 837.317 31.5072 833.498 Q35.5176 829.678 43.6657 829.678 Z" fill="#000000" fill-rule="nonzero" fill-opacity="1" /><path clip-path="url(#clip580)" d="M42.4881 787.983 L64.0042 787.983 L64.0042 793.839 L42.679 793.839 Q37.6183 793.839 35.1038 795.813 Q32.5894 797.786 32.5894 801.733 Q32.5894 806.475 35.6131 809.213 Q38.6368 811.95 43.8567 811.95 L64.0042 811.95 L64.0042 817.838 L28.3562 817.838 L28.3562 811.95 L33.8944 811.95 Q30.6797 809.849 29.0883 807.016 Q27.4968 804.152 27.4968 800.428 Q27.4968 794.285 31.3163 791.134 Q35.1038 787.983 42.4881 787.983 Z" fill="#000000" fill-rule="nonzero" fill-opacity="1" /><path clip-path="url(#clip580)" d="M28.3562 776.302 L28.3562 770.446 L64.0042 770.446 L64.0042 776.302 L28.3562 776.302 M14.479 776.302 L14.479 770.446 L21.895 770.446 L21.895 776.302 L14.479 776.302 Z" fill="#000000" fill-rule="nonzero" fill-opacity="1" /><path clip-path="url(#clip580)" d="M29.7248 732.538 L35.1993 732.538 Q33.8307 735.02 33.1623 737.535 Q32.4621 740.017 32.4621 742.564 Q32.4621 748.261 36.0905 751.412 Q39.6872 754.563 46.212 754.563 Q52.7369 754.563 56.3653 751.412 Q59.9619 748.261 59.9619 742.564 Q59.9619 740.017 59.2935 737.535 Q58.5933 735.02 57.2247 732.538 L62.6355 732.538 Q63.7814 734.989 64.3543 737.63 Q64.9272 740.24 64.9272 743.2 Q64.9272 751.253 59.8664 755.995 Q54.8057 760.738 46.212 760.738 Q37.491 760.738 32.4939 755.964 Q27.4968 751.157 27.4968 742.818 Q27.4968 740.113 28.0697 737.535 Q28.6108 734.957 29.7248 732.538 Z" fill="#000000" fill-rule="nonzero" fill-opacity="1" /><path clip-path="url(#clip580)" d="M46.0847 706.152 Q46.0847 713.25 47.7079 715.987 Q49.3312 718.724 53.2461 718.724 Q56.3653 718.724 58.2114 716.687 Q60.0256 714.618 60.0256 711.085 Q60.0256 706.216 56.5881 703.287 Q53.1188 700.327 47.3897 700.327 L46.0847 700.327 L46.0847 706.152 M43.6657 694.471 L64.0042 694.471 L64.0042 700.327 L58.5933 700.327 Q61.8398 702.332 63.3994 705.324 Q64.9272 708.316 64.9272 712.645 Q64.9272 718.119 61.8716 721.366 Q58.7843 724.581 53.6281 724.581 Q47.6125 724.581 44.5569 720.57 Q41.5014 716.528 41.5014 708.539 L41.5014 700.327 L40.9285 700.327 Q36.8862 700.327 34.6901 703.001 Q32.4621 705.643 32.4621 710.449 Q32.4621 713.504 33.1941 716.401 Q33.9262 719.297 35.3903 721.971 L29.9795 721.971 Q28.7381 718.756 28.1334 715.732 Q27.4968 712.709 27.4968 709.844 Q27.4968 702.11 31.5072 698.29 Q35.5176 694.471 43.6657 694.471 Z" fill="#000000" fill-rule="nonzero" fill-opacity="1" /><path clip-path="url(#clip580)" d="M14.479 682.408 L14.479 676.551 L64.0042 676.551 L64.0042 682.408 L14.479 682.408 Z" fill="#000000" fill-rule="nonzero" fill-opacity="1" /><path clip-path="url(#clip580)" d="M16.4842 643.322 L16.4842 613.276 L21.895 613.276 L21.895 636.893 L35.9632 636.893 L35.9632 614.263 L41.3741 614.263 L41.3741 636.893 L58.5933 636.893 L58.5933 612.703 L64.0042 612.703 L64.0042 643.322 L16.4842 643.322 Z" fill="#000000" fill-rule="nonzero" fill-opacity="1" /><path clip-path="url(#clip580)" d="M42.4881 572.758 L64.0042 572.758 L64.0042 578.615 L42.679 578.615 Q37.6183 578.615 35.1038 580.588 Q32.5894 582.562 32.5894 586.508 Q32.5894 591.251 35.6131 593.988 Q38.6368 596.725 43.8567 596.725 L64.0042 596.725 L64.0042 602.614 L28.3562 602.614 L28.3562 596.725 L33.8944 596.725 Q30.6797 594.625 29.0883 591.792 Q27.4968 588.927 27.4968 585.203 Q27.4968 579.061 31.3163 575.91 Q35.1038 572.758 42.4881 572.758 Z" fill="#000000" fill-rule="nonzero" fill-opacity="1" /><path clip-path="url(#clip580)" d="M44.7161 530.586 L47.5806 530.586 L47.5806 557.513 Q53.6281 557.131 56.8109 553.884 Q59.9619 550.606 59.9619 544.781 Q59.9619 541.407 59.1344 538.256 Q58.3069 535.073 56.6518 531.954 L62.1899 531.954 Q63.5267 535.105 64.227 538.415 Q64.9272 541.726 64.9272 545.131 Q64.9272 553.661 59.9619 558.658 Q54.9967 563.624 46.5303 563.624 Q37.7774 563.624 32.6531 558.913 Q27.4968 554.171 27.4968 546.15 Q27.4968 538.957 32.1438 534.787 Q36.7589 530.586 44.7161 530.586 M42.9973 536.442 Q38.1912 536.506 35.3266 539.148 Q32.4621 541.757 32.4621 546.086 Q32.4621 550.988 35.2312 553.948 Q38.0002 556.876 43.0292 557.322 L42.9973 536.442 Z" fill="#000000" fill-rule="nonzero" fill-opacity="1" /><path clip-path="url(#clip580)" d="M33.8307 500.317 Q33.2578 501.303 33.0032 502.481 Q32.7167 503.627 32.7167 505.027 Q32.7167 509.993 35.9632 512.666 Q39.1779 515.308 45.2253 515.308 L64.0042 515.308 L64.0042 521.196 L28.3562 521.196 L28.3562 515.308 L33.8944 515.308 Q30.6479 513.462 29.0883 510.502 Q27.4968 507.542 27.4968 503.309 Q27.4968 502.704 27.5923 501.972 Q27.656 501.24 27.8151 500.349 L33.8307 500.317 Z" fill="#000000" fill-rule="nonzero" fill-opacity="1" /><path clip-path="url(#clip580)" d="M45.7664 471.862 Q39.4007 471.862 35.8996 474.504 Q32.3984 477.114 32.3984 481.856 Q32.3984 486.567 35.8996 489.209 Q39.4007 491.819 45.7664 491.819 Q52.1003 491.819 55.6014 489.209 Q59.1026 486.567 59.1026 481.856 Q59.1026 477.114 55.6014 474.504 Q52.1003 471.862 45.7664 471.862 M59.58 466.006 Q68.683 466.006 73.1071 470.048 Q77.5631 474.09 77.5631 482.429 Q77.5631 485.516 77.0857 488.254 Q76.6401 490.991 75.6852 493.569 L69.9879 493.569 Q71.3884 490.991 72.0568 488.477 Q72.7252 485.962 72.7252 483.352 Q72.7252 477.591 69.7015 474.727 Q66.7096 471.862 60.6303 471.862 L57.7339 471.862 Q60.885 473.676 62.4446 476.509 Q64.0042 479.342 64.0042 483.288 Q64.0042 489.845 59.0071 493.856 Q54.01 497.866 45.7664 497.866 Q37.491 497.866 32.4939 493.856 Q27.4968 489.845 27.4968 483.288 Q27.4968 479.342 29.0564 476.509 Q30.616 473.676 33.7671 471.862 L28.3562 471.862 L28.3562 466.006 L59.58 466.006 Z" fill="#000000" fill-rule="nonzero" fill-opacity="1" /><path clip-path="url(#clip580)" d="M67.3143 439.11 Q73.68 441.593 75.6216 443.948 Q77.5631 446.304 77.5631 450.25 L77.5631 454.929 L72.6615 454.929 L72.6615 451.492 Q72.6615 449.073 71.5157 447.736 Q70.3699 446.399 66.1048 444.776 L63.4312 443.726 L28.3562 458.144 L28.3562 451.937 L56.238 440.797 L28.3562 429.657 L28.3562 423.451 L67.3143 439.11 Z" fill="#000000" fill-rule="nonzero" fill-opacity="1" /><path clip-path="url(#clip580)" d="M14.5426 380.578 Q21.8632 384.843 29.0246 386.912 Q36.186 388.981 43.5384 388.981 Q50.8908 388.981 58.1159 386.912 Q65.3091 384.811 72.5979 380.578 L72.5979 385.67 Q65.1182 390.445 57.8931 392.832 Q50.668 395.187 43.5384 395.187 Q36.4406 395.187 29.2474 392.832 Q22.0542 390.476 14.5426 385.67 L14.5426 380.578 Z" fill="#000000" fill-rule="nonzero" fill-opacity="1" /><path clip-path="url(#clip580)" d="M16.4842 368.96 L16.4842 362.531 L60.694 362.531 Q69.2877 362.531 73.1708 365.809 Q77.0539 369.056 77.0539 376.281 L77.0539 378.732 L71.643 378.732 L71.643 376.727 Q71.643 372.462 69.2559 370.711 Q66.8687 368.96 60.694 368.96 L16.4842 368.96 Z" fill="#000000" fill-rule="nonzero" fill-opacity="1" /><path clip-path="url(#clip580)" d="M14.5426 350.914 L14.5426 345.821 Q22.0542 341.047 29.2474 338.691 Q36.4406 336.304 43.5384 336.304 Q50.668 336.304 57.8931 338.691 Q65.1182 341.047 72.5979 345.821 L72.5979 350.914 Q65.3091 346.68 58.1159 344.612 Q50.8908 342.511 43.5384 342.511 Q36.186 342.511 29.0246 344.612 Q21.8632 346.68 14.5426 350.914 Z" fill="#000000" fill-rule="nonzero" fill-opacity="1" /><path clip-path="url(#clip580)" d="M652.304 12.096 L690.545 12.096 L690.545 18.9825 L660.487 18.9825 L660.487 36.8875 L689.289 36.8875 L689.289 43.7741 L660.487 43.7741 L660.487 65.6895 L691.274 65.6895 L691.274 72.576 L652.304 72.576 L652.304 12.096 Z" fill="#000000" fill-rule="nonzero" fill-opacity="1" /><path clip-path="url(#clip580)" d="M742.113 45.1919 L742.113 72.576 L734.659 72.576 L734.659 45.4349 Q734.659 38.994 732.147 35.7938 Q729.636 32.5936 724.613 32.5936 Q718.577 32.5936 715.093 36.4419 Q711.609 40.2903 711.609 46.9338 L711.609 72.576 L704.115 72.576 L704.115 27.2059 L711.609 27.2059 L711.609 34.2544 Q714.283 30.163 717.888 28.1376 Q721.534 26.1121 726.274 26.1121 Q734.092 26.1121 738.102 30.9732 Q742.113 35.7938 742.113 45.1919 Z" fill="#000000" fill-rule="nonzero" fill-opacity="1" /><path clip-path="url(#clip580)" d="M795.787 48.0275 L795.787 51.6733 L761.516 51.6733 Q762.003 59.3701 766.134 63.421 Q770.307 67.4314 777.72 67.4314 Q782.014 67.4314 786.024 66.3781 Q790.075 65.3249 794.045 63.2184 L794.045 70.267 Q790.035 71.9684 785.822 72.8596 Q781.609 73.7508 777.274 73.7508 Q766.418 73.7508 760.058 67.4314 Q753.739 61.1119 753.739 50.3365 Q753.739 39.1965 759.734 32.6746 Q765.77 26.1121 775.978 26.1121 Q785.133 26.1121 790.44 32.0264 Q795.787 37.9003 795.787 48.0275 M788.333 45.84 Q788.252 39.7232 784.89 36.0774 Q781.568 32.4315 776.059 32.4315 Q769.821 32.4315 766.053 35.9558 Q762.327 39.4801 761.759 45.8805 L788.333 45.84 Z" fill="#000000" fill-rule="nonzero" fill-opacity="1" /><path clip-path="url(#clip580)" d="M834.311 34.1734 Q833.055 33.4443 831.557 33.1202 Q830.098 32.7556 828.316 32.7556 Q821.996 32.7556 818.594 36.8875 Q815.231 40.9789 815.231 48.6757 L815.231 72.576 L807.737 72.576 L807.737 27.2059 L815.231 27.2059 L815.231 34.2544 Q817.581 30.1225 821.348 28.1376 Q825.116 26.1121 830.503 26.1121 Q831.273 26.1121 832.205 26.2337 Q833.136 26.3147 834.271 26.5172 L834.311 34.1734 Z" fill="#000000" fill-rule="nonzero" fill-opacity="1" /><path clip-path="url(#clip580)" d="M870.526 49.3643 Q870.526 41.2625 867.164 36.8065 Q863.842 32.3505 857.806 32.3505 Q851.811 32.3505 848.449 36.8065 Q845.127 41.2625 845.127 49.3643 Q845.127 57.4256 848.449 61.8816 Q851.811 66.3376 857.806 66.3376 Q863.842 66.3376 867.164 61.8816 Q870.526 57.4256 870.526 49.3643 M877.98 66.9452 Q877.98 78.5308 872.835 84.1616 Q867.691 89.8329 857.077 89.8329 Q853.148 89.8329 849.664 89.2252 Q846.18 88.6581 842.899 87.4428 L842.899 80.1917 Q846.18 81.9741 849.381 82.8248 Q852.581 83.6755 855.903 83.6755 Q863.235 83.6755 866.88 79.8271 Q870.526 76.0193 870.526 68.282 L870.526 64.5957 Q868.217 68.6061 864.612 70.5911 Q861.007 72.576 855.984 72.576 Q847.639 72.576 842.535 66.2161 Q837.43 59.8562 837.43 49.3643 Q837.43 38.832 842.535 32.472 Q847.639 26.1121 855.984 26.1121 Q861.007 26.1121 864.612 28.0971 Q868.217 30.082 870.526 34.0924 L870.526 27.2059 L877.98 27.2059 L877.98 66.9452 Z" fill="#000000" fill-rule="nonzero" fill-opacity="1" /><path clip-path="url(#clip580)" d="M912.21 76.7889 Q909.05 84.8907 906.053 87.3618 Q903.055 89.8329 898.032 89.8329 L892.077 89.8329 L892.077 83.5945 L896.452 83.5945 Q899.531 83.5945 901.232 82.1361 Q902.934 80.6778 904.999 75.2496 L906.336 71.8468 L887.986 27.2059 L895.885 27.2059 L910.063 62.6918 L924.241 27.2059 L932.141 27.2059 L912.21 76.7889 Z" fill="#000000" fill-rule="nonzero" fill-opacity="1" /><path clip-path="url(#clip580)" d="M977.308 18.8205 L977.308 65.8515 L987.192 65.8515 Q999.71 65.8515 1005.5 60.1802 Q1011.34 54.509 1011.34 42.2752 Q1011.34 30.1225 1005.5 24.4918 Q999.71 18.8205 987.192 18.8205 L977.308 18.8205 M969.125 12.096 L985.937 12.096 Q1003.52 12.096 1011.74 19.4281 Q1019.96 26.7198 1019.96 42.2752 Q1019.96 57.9117 1011.7 65.2439 Q1003.44 72.576 985.937 72.576 L969.125 72.576 L969.125 12.096 Z" fill="#000000" fill-rule="nonzero" fill-opacity="1" /><path clip-path="url(#clip580)" d="M1071.49 48.0275 L1071.49 51.6733 L1037.22 51.6733 Q1037.71 59.3701 1041.84 63.421 Q1046.01 67.4314 1053.42 67.4314 Q1057.72 67.4314 1061.73 66.3781 Q1065.78 65.3249 1069.75 63.2184 L1069.75 70.267 Q1065.74 71.9684 1061.53 72.8596 Q1057.31 73.7508 1052.98 73.7508 Q1042.12 73.7508 1035.76 67.4314 Q1029.44 61.1119 1029.44 50.3365 Q1029.44 39.1965 1035.44 32.6746 Q1041.47 26.1121 1051.68 26.1121 Q1060.84 26.1121 1066.14 32.0264 Q1071.49 37.9003 1071.49 48.0275 M1064.04 45.84 Q1063.96 39.7232 1060.59 36.0774 Q1057.27 32.4315 1051.76 32.4315 Q1045.53 32.4315 1041.76 35.9558 Q1038.03 39.4801 1037.46 45.8805 L1064.04 45.84 Z" fill="#000000" fill-rule="nonzero" fill-opacity="1" /><path clip-path="url(#clip580)" d="M1116.38 28.9478 L1116.38 35.9153 Q1113.22 34.1734 1110.02 33.3227 Q1106.86 32.4315 1103.62 32.4315 Q1096.36 32.4315 1092.35 37.0496 Q1088.34 41.6271 1088.34 49.9314 Q1088.34 58.2358 1092.35 62.8538 Q1096.36 67.4314 1103.62 67.4314 Q1106.86 67.4314 1110.02 66.5807 Q1113.22 65.6895 1116.38 63.9476 L1116.38 70.8341 Q1113.26 72.2924 1109.89 73.0216 Q1106.57 73.7508 1102.81 73.7508 Q1092.56 73.7508 1086.52 67.3098 Q1080.48 60.8689 1080.48 49.9314 Q1080.48 38.832 1086.56 32.472 Q1092.68 26.1121 1103.29 26.1121 Q1106.73 26.1121 1110.02 26.8413 Q1113.3 27.5299 1116.38 28.9478 Z" fill="#000000" fill-rule="nonzero" fill-opacity="1" /><path clip-path="url(#clip580)" d="M1149.96 49.7694 Q1140.92 49.7694 1137.44 51.8354 Q1133.96 53.9013 1133.96 58.8839 Q1133.96 62.8538 1136.55 65.2034 Q1139.18 67.5124 1143.68 67.5124 Q1149.88 67.5124 1153.6 63.1374 Q1157.37 58.7219 1157.37 51.4303 L1157.37 49.7694 L1149.96 49.7694 M1164.82 46.6907 L1164.82 72.576 L1157.37 72.576 L1157.37 65.6895 Q1154.82 69.8214 1151.01 71.8063 Q1147.2 73.7508 1141.69 73.7508 Q1134.73 73.7508 1130.59 69.8619 Q1126.5 65.9325 1126.5 59.3701 Q1126.5 51.7138 1131.61 47.825 Q1136.75 43.9361 1146.92 43.9361 L1157.37 43.9361 L1157.37 43.2069 Q1157.37 38.0623 1153.97 35.2672 Q1150.61 32.4315 1144.49 32.4315 Q1140.6 32.4315 1136.91 33.3632 Q1133.23 34.295 1129.82 36.1584 L1129.82 29.2718 Q1133.92 27.692 1137.76 26.9223 Q1141.61 26.1121 1145.26 26.1121 Q1155.1 26.1121 1159.96 31.2163 Q1164.82 36.3204 1164.82 46.6907 Z" fill="#000000" fill-rule="nonzero" fill-opacity="1" /><path clip-path="url(#clip580)" d="M1199.05 76.7889 Q1195.89 84.8907 1192.9 87.3618 Q1189.9 89.8329 1184.88 89.8329 L1178.92 89.8329 L1178.92 83.5945 L1183.3 83.5945 Q1186.38 83.5945 1188.08 82.1361 Q1189.78 80.6778 1191.84 75.2496 L1193.18 71.8468 L1174.83 27.2059 L1182.73 27.2059 L1196.91 62.6918 L1211.09 27.2059 L1218.99 27.2059 L1199.05 76.7889 Z" fill="#000000" fill-rule="nonzero" fill-opacity="1" /><path clip-path="url(#clip580)" d="M1264.15 18.8205 L1264.15 65.8515 L1274.04 65.8515 Q1286.55 65.8515 1292.35 60.1802 Q1298.18 54.509 1298.18 42.2752 Q1298.18 30.1225 1292.35 24.4918 Q1286.55 18.8205 1274.04 18.8205 L1264.15 18.8205 M1255.97 12.096 L1272.78 12.096 Q1290.36 12.096 1298.59 19.4281 Q1306.81 26.7198 1306.81 42.2752 Q1306.81 57.9117 1298.54 65.2439 Q1290.28 72.576 1272.78 72.576 L1255.97 72.576 L1255.97 12.096 Z" fill="#000000" fill-rule="nonzero" fill-opacity="1" /><path clip-path="url(#clip580)" d="M1318.76 54.671 L1318.76 27.2059 L1326.21 27.2059 L1326.21 54.3874 Q1326.21 60.8284 1328.72 64.0691 Q1331.24 67.2693 1336.26 67.2693 Q1342.29 67.2693 1345.78 63.421 Q1349.3 59.5726 1349.3 52.9291 L1349.3 27.2059 L1356.76 27.2059 L1356.76 72.576 L1349.3 72.576 L1349.3 65.6084 Q1346.59 69.7404 1342.98 71.7658 Q1339.42 73.7508 1334.68 73.7508 Q1326.86 73.7508 1322.81 68.8897 Q1318.76 64.0286 1318.76 54.671 M1337.51 26.1121 L1337.51 26.1121 Z" fill="#000000" fill-rule="nonzero" fill-opacity="1" /><path clip-path="url(#clip580)" d="M1410.92 48.0275 L1410.92 51.6733 L1376.65 51.6733 Q1377.13 59.3701 1381.26 63.421 Q1385.44 67.4314 1392.85 67.4314 Q1397.14 67.4314 1401.15 66.3781 Q1405.21 65.3249 1409.18 63.2184 L1409.18 70.267 Q1405.16 71.9684 1400.95 72.8596 Q1396.74 73.7508 1392.4 73.7508 Q1381.55 73.7508 1375.19 67.4314 Q1368.87 61.1119 1368.87 50.3365 Q1368.87 39.1965 1374.86 32.6746 Q1380.9 26.1121 1391.11 26.1121 Q1400.26 26.1121 1405.57 32.0264 Q1410.92 37.9003 1410.92 48.0275 M1403.46 45.84 Q1403.38 39.7232 1400.02 36.0774 Q1396.7 32.4315 1391.19 32.4315 Q1384.95 32.4315 1381.18 35.9558 Q1377.46 39.4801 1376.89 45.8805 L1403.46 45.84 Z" fill="#000000" fill-rule="nonzero" fill-opacity="1" /><path clip-path="url(#clip580)" d="M1456.89 14.324 L1456.89 27.2059 L1472.25 27.2059 L1472.25 32.9987 L1456.89 32.9987 L1456.89 57.6282 Q1456.89 63.1779 1458.39 64.7578 Q1459.93 66.3376 1464.59 66.3376 L1472.25 66.3376 L1472.25 72.576 L1464.59 72.576 Q1455.96 72.576 1452.68 69.3758 Q1449.4 66.1351 1449.4 57.6282 L1449.4 32.9987 L1443.93 32.9987 L1443.93 27.2059 L1449.4 27.2059 L1449.4 14.324 L1456.89 14.324 Z" fill="#000000" fill-rule="nonzero" fill-opacity="1" /><path clip-path="url(#clip580)" d="M1499.63 32.4315 Q1493.64 32.4315 1490.15 37.1306 Q1486.67 41.7891 1486.67 49.9314 Q1486.67 58.0738 1490.11 62.7728 Q1493.6 67.4314 1499.63 67.4314 Q1505.59 67.4314 1509.07 62.7323 Q1512.55 58.0333 1512.55 49.9314 Q1512.55 41.8701 1509.07 37.1711 Q1505.59 32.4315 1499.63 32.4315 M1499.63 26.1121 Q1509.35 26.1121 1514.9 32.4315 Q1520.45 38.7509 1520.45 49.9314 Q1520.45 61.0714 1514.9 67.4314 Q1509.35 73.7508 1499.63 73.7508 Q1489.87 73.7508 1484.32 67.4314 Q1478.81 61.0714 1478.81 49.9314 Q1478.81 38.7509 1484.32 32.4315 Q1489.87 26.1121 1499.63 26.1121 Z" fill="#000000" fill-rule="nonzero" fill-opacity="1" /><path clip-path="url(#clip580)" d="M1567.69 18.8205 L1567.69 65.8515 L1577.57 65.8515 Q1590.09 65.8515 1595.88 60.1802 Q1601.71 54.509 1601.71 42.2752 Q1601.71 30.1225 1595.88 24.4918 Q1590.09 18.8205 1577.57 18.8205 L1567.69 18.8205 M1559.5 12.096 L1576.32 12.096 Q1593.9 12.096 1602.12 19.4281 Q1610.34 26.7198 1610.34 42.2752 Q1610.34 57.9117 1602.08 65.2439 Q1593.82 72.576 1576.32 72.576 L1559.5 72.576 L1559.5 12.096 Z" fill="#000000" fill-rule="nonzero" fill-opacity="1" /><path clip-path="url(#clip580)" d="M1643.68 49.7694 Q1634.65 49.7694 1631.16 51.8354 Q1627.68 53.9013 1627.68 58.8839 Q1627.68 62.8538 1630.27 65.2034 Q1632.91 67.5124 1637.4 67.5124 Q1643.6 67.5124 1647.33 63.1374 Q1651.1 58.7219 1651.1 51.4303 L1651.1 49.7694 L1643.68 49.7694 M1658.55 46.6907 L1658.55 72.576 L1651.1 72.576 L1651.1 65.6895 Q1648.54 69.8214 1644.74 71.8063 Q1640.93 73.7508 1635.42 73.7508 Q1628.45 73.7508 1624.32 69.8619 Q1620.23 65.9325 1620.23 59.3701 Q1620.23 51.7138 1625.33 47.825 Q1630.48 43.9361 1640.64 43.9361 L1651.1 43.9361 L1651.1 43.2069 Q1651.1 38.0623 1647.69 35.2672 Q1644.33 32.4315 1638.21 32.4315 Q1634.32 32.4315 1630.64 33.3632 Q1626.95 34.295 1623.55 36.1584 L1623.55 29.2718 Q1627.64 27.692 1631.49 26.9223 Q1635.34 26.1121 1638.98 26.1121 Q1648.83 26.1121 1653.69 31.2163 Q1658.55 36.3204 1658.55 46.6907 Z" fill="#000000" fill-rule="nonzero" fill-opacity="1" /><path clip-path="url(#clip580)" d="M1709.23 35.9153 Q1712.02 30.8922 1715.91 28.5022 Q1719.8 26.1121 1725.06 26.1121 Q1732.15 26.1121 1736 31.0947 Q1739.85 36.0368 1739.85 45.1919 L1739.85 72.576 L1732.36 72.576 L1732.36 45.4349 Q1732.36 38.913 1730.05 35.7533 Q1727.74 32.5936 1723 32.5936 Q1717.21 32.5936 1713.84 36.4419 Q1710.48 40.2903 1710.48 46.9338 L1710.48 72.576 L1702.99 72.576 L1702.99 45.4349 Q1702.99 38.8725 1700.68 35.7533 Q1698.37 32.5936 1693.55 32.5936 Q1687.84 32.5936 1684.47 36.4824 Q1681.11 40.3308 1681.11 46.9338 L1681.11 72.576 L1673.62 72.576 L1673.62 27.2059 L1681.11 27.2059 L1681.11 34.2544 Q1683.66 30.082 1687.23 28.0971 Q1690.79 26.1121 1695.7 26.1121 Q1700.64 26.1121 1704.08 28.6237 Q1707.56 31.1352 1709.23 35.9153 Z" fill="#000000" fill-rule="nonzero" fill-opacity="1" /><path clip-path="url(#clip580)" d="M1761.93 65.7705 L1761.93 89.8329 L1754.43 89.8329 L1754.43 27.2059 L1761.93 27.2059 L1761.93 34.0924 Q1764.28 30.0415 1767.84 28.0971 Q1771.45 26.1121 1776.43 26.1121 Q1784.69 26.1121 1789.84 32.6746 Q1795.02 39.2371 1795.02 49.9314 Q1795.02 60.6258 1789.84 67.1883 Q1784.69 73.7508 1776.43 73.7508 Q1771.45 73.7508 1767.84 71.8063 Q1764.28 69.8214 1761.93 65.7705 M1787.29 49.9314 Q1787.29 41.7081 1783.88 37.0496 Q1780.52 32.3505 1774.61 32.3505 Q1768.69 32.3505 1765.29 37.0496 Q1761.93 41.7081 1761.93 49.9314 Q1761.93 58.1548 1765.29 62.8538 Q1768.69 67.5124 1774.61 67.5124 Q1780.52 67.5124 1783.88 62.8538 Q1787.29 58.1548 1787.29 49.9314 Z" fill="#000000" fill-rule="nonzero" fill-opacity="1" /><path clip-path="url(#clip580)" d="M1807.38 27.2059 L1814.83 27.2059 L1814.83 72.576 L1807.38 72.576 L1807.38 27.2059 M1807.38 9.54393 L1814.83 9.54393 L1814.83 18.9825 L1807.38 18.9825 L1807.38 9.54393 Z" fill="#000000" fill-rule="nonzero" fill-opacity="1" /><path clip-path="url(#clip580)" d="M1868.14 45.1919 L1868.14 72.576 L1860.69 72.576 L1860.69 45.4349 Q1860.69 38.994 1858.18 35.7938 Q1855.67 32.5936 1850.64 32.5936 Q1844.61 32.5936 1841.12 36.4419 Q1837.64 40.2903 1837.64 46.9338 L1837.64 72.576 L1830.14 72.576 L1830.14 27.2059 L1837.64 27.2059 L1837.64 34.2544 Q1840.31 30.163 1843.92 28.1376 Q1847.56 26.1121 1852.3 26.1121 Q1860.12 26.1121 1864.13 30.9732 Q1868.14 35.7938 1868.14 45.1919 Z" fill="#000000" fill-rule="nonzero" fill-opacity="1" /><path clip-path="url(#clip580)" d="M1912.86 49.3643 Q1912.86 41.2625 1909.5 36.8065 Q1906.18 32.3505 1900.14 32.3505 Q1894.15 32.3505 1890.79 36.8065 Q1887.47 41.2625 1887.47 49.3643 Q1887.47 57.4256 1890.79 61.8816 Q1894.15 66.3376 1900.14 66.3376 Q1906.18 66.3376 1909.5 61.8816 Q1912.86 57.4256 1912.86 49.3643 M1920.32 66.9452 Q1920.32 78.5308 1915.17 84.1616 Q1910.03 89.8329 1899.42 89.8329 Q1895.49 89.8329 1892 89.2252 Q1888.52 88.6581 1885.24 87.4428 L1885.24 80.1917 Q1888.52 81.9741 1891.72 82.8248 Q1894.92 83.6755 1898.24 83.6755 Q1905.57 83.6755 1909.22 79.8271 Q1912.86 76.0193 1912.86 68.282 L1912.86 64.5957 Q1910.56 68.6061 1906.95 70.5911 Q1903.34 72.576 1898.32 72.576 Q1889.98 72.576 1884.87 66.2161 Q1879.77 59.8562 1879.77 49.3643 Q1879.77 38.832 1884.87 32.472 Q1889.98 26.1121 1898.32 26.1121 Q1903.34 26.1121 1906.95 28.0971 Q1910.56 30.082 1912.86 34.0924 L1912.86 27.2059 L1920.32 27.2059 L1920.32 66.9452 Z" fill="#000000" fill-rule="nonzero" fill-opacity="1" /><polyline clip-path="url(#clip582)" style="stroke:#009af9; stroke-linecap:round; stroke-linejoin:round; stroke-width:8; stroke-opacity:1; fill:none" points="280.231,160.256 281.237,160.262 282.243,160.298 283.249,160.396 284.255,160.586 285.261,160.901 286.268,161.376 287.274,162.045 288.28,162.95 289.286,164.135 290.292,165.649 291.298,167.547 292.304,169.89 293.31,172.746 294.316,176.191 295.322,180.306 296.328,185.183 297.334,190.918 298.341,197.609 299.347,205.359 300.353,214.262 301.359,224.402 302.365,235.835 303.371,248.579 304.377,262.593 305.383,277.753 306.389,293.835 307.395,310.504 308.401,327.312 309.407,343.73 310.413,359.196 311.42,373.19 312.426,385.3 313.432,395.282 314.438,403.072 315.444,408.78 316.45,412.65 317.456,415.01 318.462,416.233 319.468,416.702 320.474,416.783 321.48,416.816 322.486,417.104 323.493,417.915 324.499,419.482 325.505,422.006 326.511,425.66 327.517,430.591 328.523,436.922 329.529,444.758 330.535,454.184 331.541,465.268 332.547,478.057 333.553,492.582 334.559,508.852 335.565,526.852 336.572,546.544 337.578,567.86 338.584,590.701 339.59,614.934 340.596,640.393 341.602,666.877 342.608,694.15 343.614,721.95 344.62,749.996 345.626,777.99 346.632,805.637 347.638,832.65 348.645,858.766 349.651,883.749 350.657,907.402 351.663,929.571 352.669,950.144 353.675,969.05 354.681,986.26 355.687,1001.78 356.693,1015.63 357.699,1027.88 358.705,1038.6 359.711,1047.89 360.717,1055.83 361.724,1062.54 362.73,1068.13 363.736,1072.7 364.742,1076.39 365.748,1079.29 366.754,1081.51 367.76,1083.16 368.766,1084.34 369.772,1085.15 370.778,1085.66 371.784,1085.95 372.79,1086.09 373.797,1086.15 374.803,1086.16 375.809,1086.16 376.815,1086.18 377.821,1086.23 378.827,1086.32 379.833,1086.45 380.839,1086.6 381.845,1086.78 382.851,1086.96 383.857,1087.13 384.863,1087.29 385.869,1087.42 386.876,1087.53 387.882,1087.59 388.888,1087.63 389.894,1087.65 390.9,1087.66 391.906,1087.66 392.912,1087.67 393.918,1087.71 394.924,1087.79 395.93,1087.93 396.936,1088.14 397.942,1088.43 398.949,1088.83 399.955,1089.33 400.961,1089.96 401.967,1090.72 402.973,1091.62 403.979,1092.66 404.985,1093.85 405.991,1095.19 406.997,1096.68 408.003,1098.31 409.009,1100.09 410.015,1102.01 411.021,1104.05 412.028,1106.22 413.034,1108.49 414.04,1110.86 415.046,1113.31 416.052,1115.82 417.058,1118.38 418.064,1120.96 419.07,1123.54 420.076,1126.11 421.082,1128.64 422.088,1131.1 423.094,1133.48 424.101,1135.76 425.107,1137.92 426.113,1139.93 427.119,1141.8 428.125,1143.49 429.131,1145.01 430.137,1146.35 431.143,1147.51 432.149,1148.49 433.155,1149.3 434.161,1149.95 435.167,1150.44 436.173,1150.81 437.18,1151.05 438.186,1151.21 439.192,1151.29 440.198,1151.32 441.204,1151.32 442.21,1151.33 443.216,1151.35 444.222,1151.41 445.228,1151.54 446.234,1151.74 447.24,1152.04 448.246,1152.44 449.253,1152.97 450.259,1153.61 451.265,1154.39 452.271,1155.3 453.277,1156.34 454.283,1157.51 455.289,1158.8 456.295,1160.2 457.301,1161.71 458.307,1163.32 459.313,1165.01 460.319,1166.78 461.325,1168.6 462.332,1170.47 463.338,1172.37 464.344,1174.29 465.35,1176.21 466.356,1178.13 467.362,1180.04 468.368,1181.92 469.374,1183.76 470.38,1185.57 471.386,1187.32 472.392,1189.02 473.398,1190.66 474.405,1192.23 475.411,1193.74 476.417,1195.18 477.423,1196.56 478.429,1197.86 479.435,1199.1 480.441,1200.28 481.447,1201.39 482.453,1202.44 483.459,1203.44 484.465,1204.39 485.471,1205.28 486.477,1206.13 487.484,1206.95 488.49,1207.72 489.496,1208.46 490.502,1209.18 491.508,1209.87 492.514,1210.55 493.52,1211.21 494.526,1211.86 495.532,1212.51 496.538,1213.15 497.544,1213.8 498.55,1214.46 499.557,1215.13 500.563,1215.81 501.569,1216.52 502.575,1217.24 503.581,1218 504.587,1218.79 505.593,1219.62 506.599,1220.48 507.605,1221.39 508.611,1222.34 509.617,1223.34 510.623,1224.39 511.629,1225.5 512.636,1226.66 513.642,1227.87 514.648,1229.14 515.654,1230.47 516.66,1231.85 517.666,1233.29 518.672,1234.79 519.678,1236.33 520.684,1237.93 521.69,1239.57 522.696,1241.26 523.702,1242.98 524.709,1244.74 525.715,1246.53 526.721,1248.34 527.727,1250.17 528.733,1252.01 529.739,1253.86 530.745,1255.72 531.751,1257.56 532.757,1259.4 533.763,1261.22 534.769,1263.02 535.775,1264.79 536.781,1266.53 537.788,1268.23 538.794,1269.89 539.8,1271.5 540.806,1273.06 541.812,1274.57 542.818,1276.02 543.824,1277.42 544.83,1278.75 545.836,1280.02 546.842,1281.23 547.848,1282.37 548.854,1283.45 549.861,1284.47 550.867,1285.42 551.873,1286.31 552.879,1287.15 553.885,1287.92 554.891,1288.64 555.897,1289.3 556.903,1289.91 557.909,1290.48 558.915,1290.99 559.921,1291.46 560.927,1291.89 561.933,1292.28 562.94,1292.63 563.946,1292.95 564.952,1293.24 565.958,1293.5 566.964,1293.73 567.97,1293.94 568.976,1294.13 569.982,1294.29 570.988,1294.44 571.994,1294.57 573,1294.68 574.006,1294.79 575.013,1294.88 576.019,1294.95 577.025,1295.02 578.031,1295.08 579.037,1295.14 580.043,1295.18 581.049,1295.22 582.055,1295.25 583.061,1295.28 584.067,1295.31 585.073,1295.33 586.079,1295.34 587.085,1295.36 588.092,1295.37 589.098,1295.38 590.104,1295.38 591.11,1295.39 592.116,1295.39 593.122,1295.39 594.128,1295.39 595.134,1295.39 596.14,1295.39 597.146,1295.39 598.152,1295.39 599.158,1295.4 600.165,1295.4 601.171,1295.4 602.177,1295.4 603.183,1295.41 604.189,1295.42 605.195,1295.43 606.201,1295.44 607.207,1295.46 608.213,1295.49 609.219,1295.51 610.225,1295.55 611.231,1295.59 612.237,1295.64 613.244,1295.69 614.25,1295.76 615.256,1295.83 616.262,1295.91 617.268,1296.01 618.274,1296.12 619.28,1296.24 620.286,1296.37 621.292,1296.52 622.298,1296.69 623.304,1296.87 624.31,1297.06 625.317,1297.28 626.323,1297.51 627.329,1297.76 628.335,1298.03 629.341,1298.32 630.347,1298.63 631.353,1298.96 632.359,1299.31 633.365,1299.68 634.371,1300.07 635.377,1300.49 636.383,1300.92 637.389,1301.37 638.396,1301.84 639.402,1302.33 640.408,1302.84 641.414,1303.36 642.42,1303.91 643.426,1304.47 644.432,1305.04 645.438,1305.63 646.444,1306.24 647.45,1306.85 648.456,1307.48 649.462,1308.12 650.469,1308.77 651.475,1309.43 652.481,1310.1 653.487,1310.77 654.493,1311.45 655.499,1312.14 656.505,1312.83 657.511,1313.52 658.517,1314.22 659.523,1314.91 660.529,1315.61 661.535,1316.3 662.541,1317 663.548,1317.69 664.554,1318.38 665.56,1319.07 666.566,1319.76 667.572,1320.44 668.578,1321.11 669.584,1321.78 670.59,1322.44 671.596,1323.1 672.602,1323.76 673.608,1324.4 674.614,1325.04 675.621,1325.67 676.627,1326.3 677.633,1326.92 678.639,1327.53 679.645,1328.13 680.651,1328.73 681.657,1329.32 682.663,1329.9 683.669,1330.47 684.675,1331.03 685.681,1331.59 686.687,1332.14 687.693,1332.68 688.7,1333.21 689.706,1333.73 690.712,1334.25 691.718,1334.75 692.724,1335.25 693.73,1335.74 694.736,1336.22 695.742,1336.7 696.748,1337.16 697.754,1337.61 698.76,1338.06 699.766,1338.5 700.773,1338.92 701.779,1339.34 702.785,1339.75 703.791,1340.15 704.797,1340.54 705.803,1340.92 706.809,1341.28 707.815,1341.64 708.821,1341.99 709.827,1342.33 710.833,1342.65 711.839,1342.97 712.845,1343.28 713.852,1343.57 714.858,1343.85 715.864,1344.12 716.87,1344.39 717.876,1344.64 718.882,1344.87 719.888,1345.1 720.894,1345.32 721.9,1345.53 722.906,1345.72 723.912,1345.9 724.918,1346.08 725.925,1346.24 726.931,1346.39 727.937,1346.54 728.943,1346.67 729.949,1346.79 730.955,1346.91 731.961,1347.01 732.967,1347.11 733.973,1347.19 734.979,1347.27 735.985,1347.34 736.991,1347.41 737.997,1347.46 739.004,1347.51 740.01,1347.56 741.016,1347.6 742.022,1347.63 743.028,1347.66 744.034,1347.68 745.04,1347.7 746.046,1347.71 747.052,1347.72 748.058,1347.73 749.064,1347.74 750.07,1347.74 751.077,1347.75 752.083,1347.75 753.089,1347.75 754.095,1347.75 755.101,1347.75 756.107,1347.75 757.113,1347.75 758.119,1347.75 759.125,1347.75 760.131,1347.76 761.137,1347.77 762.143,1347.78 763.149,1347.79 764.156,1347.8 765.162,1347.82 766.168,1347.84 767.174,1347.86 768.18,1347.89 769.186,1347.92 770.192,1347.96 771.198,1348 772.204,1348.04 773.21,1348.09 774.216,1348.14 775.222,1348.2 776.229,1348.26 777.235,1348.33 778.241,1348.4 779.247,1348.48 780.253,1348.57 781.259,1348.66 782.265,1348.75 783.271,1348.85 784.277,1348.96 785.283,1349.07 786.289,1349.19 787.295,1349.31 788.301,1349.44 789.308,1349.57 790.314,1349.71 791.32,1349.86 792.326,1350.01 793.332,1350.17 794.338,1350.33 795.344,1350.5 796.35,1350.68 797.356,1350.86 798.362,1351.04 799.368,1351.24 800.374,1351.43 801.381,1351.64 802.387,1351.84 803.393,1352.06 804.399,1352.27 805.405,1352.5 806.411,1352.72 807.417,1352.95 808.423,1353.19 809.429,1353.43 810.435,1353.68 811.441,1353.93 812.447,1354.18 813.453,1354.43 814.46,1354.69 815.466,1354.96 816.472,1355.22 817.478,1355.49 818.484,1355.77 819.49,1356.04 820.496,1356.32 821.502,1356.59 822.508,1356.87 823.514,1357.16 824.52,1357.44 825.526,1357.72 826.533,1358.01 827.539,1358.29 828.545,1358.58 829.551,1358.86 830.557,1359.15 831.563,1359.43 832.569,1359.71 833.575,1360 834.581,1360.28 835.587,1360.56 836.593,1360.84 837.599,1361.11 838.605,1361.39 839.612,1361.66 840.618,1361.93 841.624,1362.19 842.63,1362.46 843.636,1362.72 844.642,1362.97 845.648,1363.23 846.654,1363.48 847.66,1363.72 848.666,1363.96 849.672,1364.2 850.678,1364.43 851.685,1364.66 852.691,1364.88 853.697,1365.1 854.703,1365.32 855.709,1365.53 856.715,1365.73 857.721,1365.93 858.727,1366.13 859.733,1366.31 860.739,1366.5 861.745,1366.68 862.751,1366.85 863.757,1367.02 864.764,1367.18 865.77,1367.34 866.776,1367.49 867.782,1367.64 868.788,1367.78 869.794,1367.92 870.8,1368.05 871.806,1368.17 872.812,1368.29 873.818,1368.41 874.824,1368.52 875.83,1368.63 876.837,1368.73 877.843,1368.82 878.849,1368.91 879.855,1369 880.861,1369.08 881.867,1369.16 882.873,1369.23 883.879,1369.3 884.885,1369.36 885.891,1369.42 886.897,1369.48 887.903,1369.53 888.909,1369.58 889.916,1369.62 890.922,1369.67 891.928,1369.7 892.934,1369.74 893.94,1369.77 894.946,1369.8 895.952,1369.82 896.958,1369.85 897.964,1369.87 898.97,1369.89 899.976,1369.9 900.982,1369.91 901.989,1369.93 902.995,1369.94 904.001,1369.94 905.007,1369.95 906.013,1369.96 907.019,1369.96 908.025,1369.96 909.031,1369.97 910.037,1369.97 911.043,1369.97 912.049,1369.97 913.055,1369.97 914.061,1369.97 915.068,1369.97 916.074,1369.97 917.08,1369.97 918.086,1369.97 919.092,1369.97 920.098,1369.97 921.104,1369.98 922.11,1369.98 923.116,1369.99 924.122,1369.99 925.128,1370 926.134,1370.01 927.141,1370.02 928.147,1370.03 929.153,1370.04 930.159,1370.06 931.165,1370.08 932.171,1370.1 933.177,1370.12 934.183,1370.14 935.189,1370.17 936.195,1370.19 937.201,1370.22 938.207,1370.26 939.213,1370.29 940.22,1370.33 941.226,1370.37 942.232,1370.41 943.238,1370.46 944.244,1370.5 945.25,1370.55 946.256,1370.61 947.262,1370.66 948.268,1370.72 949.274,1370.78 950.28,1370.84 951.286,1370.91 952.293,1370.98 953.299,1371.05 954.305,1371.12 955.311,1371.2 956.317,1371.28 957.323,1371.36 958.329,1371.44 959.335,1371.53 960.341,1371.61 961.347,1371.7 962.353,1371.8 963.359,1371.89 964.365,1371.99 965.372,1372.08 966.378,1372.18 967.384,1372.29 968.39,1372.39 969.396,1372.5 970.402,1372.6 971.408,1372.71 972.414,1372.82 973.42,1372.93 974.426,1373.04 975.432,1373.16 976.438,1373.27 977.445,1373.39 978.451,1373.5 979.457,1373.62 980.463,1373.74 981.469,1373.86 982.475,1373.98 983.481,1374.1 984.487,1374.22 985.493,1374.34 986.499,1374.46 987.505,1374.58 988.511,1374.7 989.517,1374.82 990.524,1374.93 991.53,1375.05 992.536,1375.17 993.542,1375.29 994.548,1375.41 995.554,1375.53 996.56,1375.64 997.566,1375.76 998.572,1375.87 999.578,1375.98 1000.58,1376.1 1001.59,1376.21 1002.6,1376.32 1003.6,1376.42 1004.61,1376.53 1005.61,1376.64 1006.62,1376.74 1007.63,1376.84 1008.63,1376.94 1009.64,1377.04 1010.65,1377.14 1011.65,1377.23 1012.66,1377.33 1013.66,1377.42 1014.67,1377.51 1015.68,1377.59 1016.68,1377.68 1017.69,1377.76 1018.69,1377.84 1019.7,1377.92 1020.71,1378 1021.71,1378.07 1022.72,1378.14 1023.72,1378.21 1024.73,1378.28 1025.74,1378.35 1026.74,1378.41 1027.75,1378.47 1028.75,1378.53 1029.76,1378.59 1030.77,1378.64 1031.77,1378.69 1032.78,1378.74 1033.79,1378.79 1034.79,1378.84 1035.8,1378.88 1036.8,1378.92 1037.81,1378.96 1038.82,1379 1039.82,1379.04 1040.83,1379.07 1041.83,1379.1 1042.84,1379.13 1043.85,1379.16 1044.85,1379.18 1045.86,1379.21 1046.86,1379.23 1047.87,1379.25 1048.88,1379.27 1049.88,1379.29 1050.89,1379.31 1051.89,1379.32 1052.9,1379.33 1053.91,1379.35 1054.91,1379.36 1055.92,1379.37 1056.92,1379.38 1057.93,1379.38 1058.94,1379.39 1059.94,1379.4 1060.95,1379.4 1061.96,1379.41 1062.96,1379.41 1063.97,1379.41 1064.97,1379.41 1065.98,1379.42 1066.99,1379.42 1067.99,1379.42 1069,1379.42 1070,1379.42 1071.01,1379.42 1072.02,1379.42 1073.02,1379.42 1074.03,1379.42 1075.03,1379.42 1076.04,1379.42 1077.05,1379.42 1078.05,1379.42 1079.06,1379.42 1080.06,1379.42 1081.07,1379.42 1082.08,1379.43 1083.08,1379.43 1084.09,1379.43 1085.1,1379.44 1086.1,1379.44 1087.11,1379.45 1088.11,1379.45 1089.12,1379.46 1090.13,1379.46 1091.13,1379.47 1092.14,1379.48 1093.14,1379.49 1094.15,1379.5 1095.16,1379.51 1096.16,1379.53 1097.17,1379.54 1098.17,1379.55 1099.18,1379.57 1100.19,1379.59 1101.19,1379.6 1102.2,1379.62 1103.2,1379.64 1104.21,1379.66 1105.22,1379.69 1106.22,1379.71 1107.23,1379.73 1108.23,1379.76 1109.24,1379.79 1110.25,1379.81 1111.25,1379.84 1112.26,1379.87 1113.27,1379.9 1114.27,1379.94 1115.28,1379.97 1116.28,1380 1117.29,1380.04 1118.3,1380.07 1119.3,1380.11 1120.31,1380.15 1121.31,1380.19 1122.32,1380.23 1123.33,1380.27 1124.33,1380.31 1125.34,1380.35 1126.34,1380.39 1127.35,1380.44 1128.36,1380.48 1129.36,1380.53 1130.37,1380.57 1131.37,1380.62 1132.38,1380.67 1133.39,1380.72 1134.39,1380.76 1135.4,1380.81 1136.41,1380.86 1137.41,1380.91 1138.42,1380.96 1139.42,1381.01 1140.43,1381.06 1141.44,1381.11 1142.44,1381.16 1143.45,1381.21 1144.45,1381.27 1145.46,1381.32 1146.47,1381.37 1147.47,1381.42 1148.48,1381.47 1149.48,1381.52 1150.49,1381.57 1151.5,1381.62 1152.5,1381.67 1153.51,1381.72 1154.51,1381.77 1155.52,1381.82 1156.53,1381.87 1157.53,1381.92 1158.54,1381.97 1159.55,1382.02 1160.55,1382.06 1161.56,1382.11 1162.56,1382.16 1163.57,1382.2 1164.58,1382.25 1165.58,1382.29 1166.59,1382.33 1167.59,1382.38 1168.6,1382.42 1169.61,1382.46 1170.61,1382.5 1171.62,1382.54 1172.62,1382.58 1173.63,1382.62 1174.64,1382.65 1175.64,1382.69 1176.65,1382.73 1177.65,1382.76 1178.66,1382.79 1179.67,1382.83 1180.67,1382.86 1181.68,1382.89 1182.68,1382.92 1183.69,1382.95 1184.7,1382.98 1185.7,1383 1186.71,1383.03 1187.72,1383.05 1188.72,1383.08 1189.73,1383.1 1190.73,1383.12 1191.74,1383.14 1192.75,1383.17 1193.75,1383.18 1194.76,1383.2 1195.76,1383.22 1196.77,1383.24 1197.78,1383.25 1198.78,1383.27 1199.79,1383.28 1200.79,1383.3 1201.8,1383.31 1202.81,1383.32 1203.81,1383.33 1204.82,1383.34 1205.82,1383.35 1206.83,1383.36 1207.84,1383.37 1208.84,1383.38 1209.85,1383.39 1210.86,1383.39 1211.86,1383.4 1212.87,1383.4 1213.87,1383.41 1214.88,1383.41 1215.89,1383.42 1216.89,1383.42 1217.9,1383.42 1218.9,1383.43 1219.91,1383.43 1220.92,1383.43 1221.92,1383.43 1222.93,1383.43 1223.93,1383.43 1224.94,1383.43 1225.95,1383.43 1226.95,1383.44 1227.96,1383.44 1228.96,1383.44 1229.97,1383.44 1230.98,1383.44 1231.98,1383.44 1232.99,1383.44 1233.99,1383.44 1235,1383.44 1236.01,1383.44 1237.01,1383.44 1238.02,1383.44 1239.03,1383.44 1240.03,1383.44 1241.04,1383.44 1242.04,1383.44 1243.05,1383.44 1244.06,1383.44 1245.06,1383.44 1246.07,1383.45 1247.07,1383.45 1248.08,1383.45 1249.09,1383.45 1250.09,1383.46 1251.1,1383.46 1252.1,1383.47 1253.11,1383.47 1254.12,1383.47 1255.12,1383.48 1256.13,1383.49 1257.13,1383.49 1258.14,1383.5 1259.15,1383.51 1260.15,1383.51 1261.16,1383.52 1262.17,1383.53 1263.17,1383.54 1264.18,1383.55 1265.18,1383.56 1266.19,1383.57 1267.2,1383.58 1268.2,1383.59 1269.21,1383.6 1270.21,1383.61 1271.22,1383.63 1272.23,1383.64 1273.23,1383.65 1274.24,1383.67 1275.24,1383.68 1276.25,1383.7 1277.26,1383.71 1278.26,1383.73 1279.27,1383.74 1280.27,1383.76 1281.28,1383.78 1282.29,1383.79 1283.29,1383.81 1284.3,1383.83 1285.31,1383.85 1286.31,1383.87 1287.32,1383.88 1288.32,1383.9 1289.33,1383.92 1290.34,1383.94 1291.34,1383.96 1292.35,1383.98 1293.35,1384 1294.36,1384.02 1295.37,1384.05 1296.37,1384.07 1297.38,1384.09 1298.38,1384.11 1299.39,1384.13 1300.4,1384.15 1301.4,1384.17 1302.41,1384.19 1303.41,1384.22 1304.42,1384.24 1305.43,1384.26 1306.43,1384.28 1307.44,1384.3 1308.44,1384.32 1309.45,1384.35 1310.46,1384.37 1311.46,1384.39 1312.47,1384.41 1313.48,1384.43 1314.48,1384.45 1315.49,1384.47 1316.49,1384.49 1317.5,1384.52 1318.51,1384.54 1319.51,1384.56 1320.52,1384.58 1321.52,1384.6 1322.53,1384.61 1323.54,1384.63 1324.54,1384.65 1325.55,1384.67 1326.55,1384.69 1327.56,1384.71 1328.57,1384.72 1329.57,1384.74 1330.58,1384.76 1331.58,1384.78 1332.59,1384.79 1333.6,1384.81 1334.6,1384.82 1335.61,1384.84 1336.62,1384.85 1337.62,1384.87 1338.63,1384.88 1339.63,1384.89 1340.64,1384.91 1341.65,1384.92 1342.65,1384.93 1343.66,1384.95 1344.66,1384.96 1345.67,1384.97 1346.68,1384.98 1347.68,1384.99 1348.69,1385 1349.69,1385.01 1350.7,1385.02 1351.71,1385.03 1352.71,1385.03 1353.72,1385.04 1354.72,1385.05 1355.73,1385.06 1356.74,1385.06 1357.74,1385.07 1358.75,1385.08 1359.75,1385.08 1360.76,1385.09 1361.77,1385.09 1362.77,1385.1 1363.78,1385.1 1364.79,1385.11 1365.79,1385.11 1366.8,1385.11 1367.8,1385.12 1368.81,1385.12 1369.82,1385.12 1370.82,1385.13 1371.83,1385.13 1372.83,1385.13 1373.84,1385.13 1374.85,1385.13 1375.85,1385.14 1376.86,1385.14 1377.86,1385.14 1378.87,1385.14 1379.88,1385.14 1380.88,1385.14 1381.89,1385.14 1382.89,1385.14 1383.9,1385.14 1384.91,1385.14 1385.91,1385.14 1386.92,1385.14 1387.93,1385.14 1388.93,1385.14 1389.94,1385.14 1390.94,1385.14 1391.95,1385.14 1392.96,1385.14 1393.96,1385.14 1394.97,1385.14 1395.97,1385.14 1396.98,1385.14 1397.99,1385.14 1398.99,1385.14 1400,1385.14 1401,1385.14 1402.01,1385.14 1403.02,1385.15 1404.02,1385.15 1405.03,1385.15 1406.03,1385.15 1407.04,1385.15 1408.05,1385.15 1409.05,1385.15 1410.06,1385.15 1411.07,1385.15 1412.07,1385.16 1413.08,1385.16 1414.08,1385.16 1415.09,1385.16 1416.1,1385.17 1417.1,1385.17 1418.11,1385.17 1419.11,1385.17 1420.12,1385.18 1421.13,1385.18 1422.13,1385.19 1423.14,1385.19 1424.14,1385.19 1425.15,1385.2 1426.16,1385.2 1427.16,1385.21 1428.17,1385.21 1429.17,1385.22 1430.18,1385.22 1431.19,1385.23 1432.19,1385.23 1433.2,1385.24 1434.2,1385.25 1435.21,1385.25 1436.22,1385.26 1437.22,1385.27 1438.23,1385.27 1439.24,1385.28 1440.24,1385.29 1441.25,1385.29 1442.25,1385.3 1443.26,1385.31 1444.27,1385.32 1445.27,1385.32 1446.28,1385.33 1447.28,1385.34 1448.29,1385.35 1449.3,1385.36 1450.3,1385.37 1451.31,1385.37 1452.31,1385.38 1453.32,1385.39 1454.33,1385.4 1455.33,1385.41 1456.34,1385.42 1457.34,1385.43 1458.35,1385.44 1459.36,1385.45 1460.36,1385.45 1461.37,1385.46 1462.38,1385.47 1463.38,1385.48 1464.39,1385.49 1465.39,1385.5 1466.4,1385.51 1467.41,1385.52 1468.41,1385.53 1469.42,1385.54 1470.42,1385.55 1471.43,1385.56 1472.44,1385.56 1473.44,1385.57 1474.45,1385.58 1475.45,1385.59 1476.46,1385.6 1477.47,1385.61 1478.47,1385.62 1479.48,1385.63 1480.48,1385.63 1481.49,1385.64 1482.5,1385.65 1483.5,1385.66 1484.51,1385.67 1485.51,1385.67 1486.52,1385.68 1487.53,1385.69 1488.53,1385.7 1489.54,1385.7 1490.55,1385.71 1491.55,1385.72 1492.56,1385.72 1493.56,1385.73 1494.57,1385.74 1495.58,1385.74 1496.58,1385.75 1497.59,1385.76 1498.59,1385.76 1499.6,1385.77 1500.61,1385.77 1501.61,1385.78 1502.62,1385.78 1503.62,1385.79 1504.63,1385.79 1505.64,1385.8 1506.64,1385.8 1507.65,1385.81 1508.65,1385.81 1509.66,1385.81 1510.67,1385.82 1511.67,1385.82 1512.68,1385.83 1513.69,1385.83 1514.69,1385.83 1515.7,1385.83 1516.7,1385.84 1517.71,1385.84 1518.72,1385.84 1519.72,1385.84 1520.73,1385.85 1521.73,1385.85 1522.74,1385.85 1523.75,1385.85 1524.75,1385.85 1525.76,1385.86 1526.76,1385.86 1527.77,1385.86 1528.78,1385.86 1529.78,1385.86 1530.79,1385.86 1531.79,1385.86 1532.8,1385.86 1533.81,1385.86 1534.81,1385.87 1535.82,1385.87 1536.83,1385.87 1537.83,1385.87 1538.84,1385.87 1539.84,1385.87 1540.85,1385.87 1541.86,1385.87 1542.86,1385.87 1543.87,1385.87 1544.87,1385.87 1545.88,1385.87 1546.89,1385.87 1547.89,1385.87 1548.9,1385.87 1549.9,1385.87 1550.91,1385.87 1551.92,1385.87 1552.92,1385.87 1553.93,1385.87 1554.93,1385.87 1555.94,1385.87 1556.95,1385.87 1557.95,1385.87 1558.96,1385.87 1559.96,1385.87 1560.97,1385.87 1561.98,1385.87 1562.98,1385.87 1563.99,1385.87 1565,1385.87 1566,1385.87 1567.01,1385.87 1568.01,1385.87 1569.02,1385.87 1570.03,1385.87 1571.03,1385.87 1572.04,1385.87 1573.04,1385.88 1574.05,1385.88 1575.06,1385.88 1576.06,1385.88 1577.07,1385.88 1578.07,1385.88 1579.08,1385.88 1580.09,1385.88 1581.09,1385.89 1582.1,1385.89 1583.1,1385.89 1584.11,1385.89 1585.12,1385.89 1586.12,1385.9 1587.13,1385.9 1588.14,1385.9 1589.14,1385.9 1590.15,1385.9 1591.15,1385.91 1592.16,1385.91 1593.17,1385.91 1594.17,1385.91 1595.18,1385.92 1596.18,1385.92 1597.19,1385.92 1598.2,1385.93 1599.2,1385.93 1600.21,1385.93 1601.21,1385.93 1602.22,1385.94 1603.23,1385.94 1604.23,1385.94 1605.24,1385.95 1606.24,1385.95 1607.25,1385.96 1608.26,1385.96 1609.26,1385.96 1610.27,1385.97 1611.27,1385.97 1612.28,1385.97 1613.29,1385.98 1614.29,1385.98 1615.3,1385.98 1616.31,1385.99 1617.31,1385.99 1618.32,1386 1619.32,1386 1620.33,1386 1621.34,1386.01 1622.34,1386.01 1623.35,1386.02 1624.35,1386.02 1625.36,1386.02 1626.37,1386.03 1627.37,1386.03 1628.38,1386.04 1629.38,1386.04 1630.39,1386.04 1631.4,1386.05 1632.4,1386.05 1633.41,1386.05 1634.41,1386.06 1635.42,1386.06 1636.43,1386.07 1637.43,1386.07 1638.44,1386.07 1639.45,1386.08 1640.45,1386.08 1641.46,1386.08 1642.46,1386.09 1643.47,1386.09 1644.48,1386.09 1645.48,1386.1 1646.49,1386.1 1647.49,1386.1 1648.5,1386.11 1649.51,1386.11 1650.51,1386.11 1651.52,1386.12 1652.52,1386.12 1653.53,1386.12 1654.54,1386.12 1655.54,1386.13 1656.55,1386.13 1657.55,1386.13 1658.56,1386.13 1659.57,1386.14 1660.57,1386.14 1661.58,1386.14 1662.59,1386.14 1663.59,1386.14 1664.6,1386.15 1665.6,1386.15 1666.61,1386.15 1667.62,1386.15 1668.62,1386.15 1669.63,1386.16 1670.63,1386.16 1671.64,1386.16 1672.65,1386.16 1673.65,1386.16 1674.66,1386.16 1675.66,1386.16 1676.67,1386.16 1677.68,1386.17 1678.68,1386.17 1679.69,1386.17 1680.69,1386.17 1681.7,1386.17 1682.71,1386.17 1683.71,1386.17 1684.72,1386.17 1685.72,1386.17 1686.73,1386.17 1687.74,1386.17 1688.74,1386.17 1689.75,1386.17 1690.76,1386.17 1691.76,1386.17 1692.77,1386.18 1693.77,1386.18 1694.78,1386.18 1695.79,1386.18 1696.79,1386.18 1697.8,1386.18 1698.8,1386.18 1699.81,1386.18 1700.82,1386.18 1701.82,1386.18 1702.83,1386.18 1703.83,1386.18 1704.84,1386.18 1705.85,1386.18 1706.85,1386.18 1707.86,1386.18 1708.86,1386.18 1709.87,1386.18 1710.88,1386.18 1711.88,1386.18 1712.89,1386.18 1713.9,1386.18 1714.9,1386.18 1715.91,1386.18 1716.91,1386.18 1717.92,1386.18 1718.93,1386.18 1719.93,1386.18 1720.94,1386.18 1721.94,1386.18 1722.95,1386.18 1723.96,1386.18 1724.96,1386.18 1725.97,1386.18 1726.97,1386.18 1727.98,1386.18 1728.99,1386.18 1729.99,1386.18 1731,1386.18 1732,1386.18 1733.01,1386.18 1734.02,1386.18 1735.02,1386.18 1736.03,1386.18 1737.03,1386.18 1738.04,1386.18 1739.05,1386.18 1740.05,1386.18 1741.06,1386.18 1742.07,1386.19 1743.07,1386.19 1744.08,1386.19 1745.08,1386.19 1746.09,1386.19 1747.1,1386.19 1748.1,1386.19 1749.11,1386.19 1750.11,1386.19 1751.12,1386.19 1752.13,1386.19 1753.13,1386.2 1754.14,1386.2 1755.14,1386.2 1756.15,1386.2 1757.16,1386.2 1758.16,1386.2 1759.17,1386.2 1760.17,1386.2 1761.18,1386.21 1762.19,1386.21 1763.19,1386.21 1764.2,1386.21 1765.21,1386.21 1766.21,1386.21 1767.22,1386.21 1768.22,1386.22 1769.23,1386.22 1770.24,1386.22 1771.24,1386.22 1772.25,1386.22 1773.25,1386.22 1774.26,1386.23 1775.27,1386.23 1776.27,1386.23 1777.28,1386.23 1778.28,1386.23 1779.29,1386.23 1780.3,1386.24 1781.3,1386.24 1782.31,1386.24 1783.31,1386.24 1784.32,1386.24 1785.33,1386.24 1786.33,1386.25 1787.34,1386.25 1788.35,1386.25 1789.35,1386.25 1790.36,1386.25 1791.36,1386.25 1792.37,1386.26 1793.38,1386.26 1794.38,1386.26 1795.39,1386.26 1796.39,1386.26 1797.4,1386.26 1798.41,1386.26 1799.41,1386.27 1800.42,1386.27 1801.42,1386.27 1802.43,1386.27 1803.44,1386.27 1804.44,1386.27 1805.45,1386.28 1806.45,1386.28 1807.46,1386.28 1808.47,1386.28 1809.47,1386.28 1810.48,1386.28 1811.48,1386.28 1812.49,1386.28 1813.5,1386.28 1814.5,1386.29 1815.51,1386.29 1816.52,1386.29 1817.52,1386.29 1818.53,1386.29 1819.53,1386.29 1820.54,1386.29 1821.55,1386.29 1822.55,1386.29 1823.56,1386.29 1824.56,1386.3 1825.57,1386.3 1826.58,1386.3 1827.58,1386.3 1828.59,1386.3 1829.59,1386.3 1830.6,1386.3 1831.61,1386.3 1832.61,1386.3 1833.62,1386.3 1834.62,1386.3 1835.63,1386.3 1836.64,1386.3 1837.64,1386.3 1838.65,1386.3 1839.66,1386.3 1840.66,1386.3 1841.67,1386.3 1842.67,1386.31 1843.68,1386.31 1844.69,1386.31 1845.69,1386.31 1846.7,1386.31 1847.7,1386.31 1848.71,1386.31 1849.72,1386.31 1850.72,1386.31 1851.73,1386.31 1852.73,1386.31 1853.74,1386.31 1854.75,1386.31 1855.75,1386.31 1856.76,1386.31 1857.76,1386.31 1858.77,1386.31 1859.78,1386.31 1860.78,1386.31 1861.79,1386.31 1862.79,1386.31 1863.8,1386.31 1864.81,1386.31 1865.81,1386.31 1866.82,1386.31 1867.83,1386.31 1868.83,1386.31 1869.84,1386.31 1870.84,1386.31 1871.85,1386.31 1872.86,1386.31 1873.86,1386.31 1874.87,1386.31 1875.87,1386.31 1876.88,1386.31 1877.89,1386.31 1878.89,1386.31 1879.9,1386.31 1880.9,1386.31 1881.91,1386.31 1882.92,1386.31 1883.92,1386.31 1884.93,1386.31 1885.93,1386.31 1886.94,1386.31 1887.95,1386.31 1888.95,1386.31 1889.96,1386.31 1890.97,1386.31 1891.97,1386.31 1892.98,1386.31 1893.98,1386.31 1894.99,1386.31 1896,1386.31 1897,1386.31 1898.01,1386.31 1899.01,1386.31 1900.02,1386.31 1901.03,1386.31 1902.03,1386.31 1903.04,1386.31 1904.04,1386.31 1905.05,1386.31 1906.06,1386.31 1907.06,1386.31 1908.07,1386.31 1909.07,1386.31 1910.08,1386.32 1911.09,1386.32 1912.09,1386.32 1913.1,1386.32 1914.11,1386.32 1915.11,1386.32 1916.12,1386.32 1917.12,1386.32 1918.13,1386.32 1919.14,1386.32 1920.14,1386.32 1921.15,1386.32 1922.15,1386.32 1923.16,1386.32 1924.17,1386.32 1925.17,1386.32 1926.18,1386.32 1927.18,1386.32 1928.19,1386.33 1929.2,1386.33 1930.2,1386.33 1931.21,1386.33 1932.21,1386.33 1933.22,1386.33 1934.23,1386.33 1935.23,1386.33 1936.24,1386.33 1937.24,1386.33 1938.25,1386.33 1939.26,1386.33 1940.26,1386.33 1941.27,1386.33 1942.28,1386.33 1943.28,1386.34 1944.29,1386.34 1945.29,1386.34 1946.3,1386.34 1947.31,1386.34 1948.31,1386.34 1949.32,1386.34 1950.32,1386.34 1951.33,1386.34 1952.34,1386.34 1953.34,1386.34 1954.35,1386.34 1955.35,1386.34 1956.36,1386.34 1957.37,1386.35 1958.37,1386.35 1959.38,1386.35 1960.38,1386.35 1961.39,1386.35 1962.4,1386.35 1963.4,1386.35 1964.41,1386.35 1965.42,1386.35 1966.42,1386.35 1967.43,1386.35 1968.43,1386.35 1969.44,1386.35 1970.45,1386.35 1971.45,1386.35 1972.46,1386.35 1973.46,1386.35 1974.47,1386.35 1975.48,1386.36 1976.48,1386.36 1977.49,1386.36 1978.49,1386.36 1979.5,1386.36 1980.51,1386.36 1981.51,1386.36 1982.52,1386.36 1983.52,1386.36 1984.53,1386.36 1985.54,1386.36 1986.54,1386.36 1987.55,1386.36 1988.55,1386.36 1989.56,1386.36 1990.57,1386.36 1991.57,1386.36 1992.58,1386.36 1993.59,1386.36 1994.59,1386.36 1995.6,1386.36 1996.6,1386.36 1997.61,1386.36 1998.62,1386.36 1999.62,1386.36 2000.63,1386.36 2001.63,1386.36 2002.64,1386.36 2003.65,1386.36 2004.65,1386.36 2005.66,1386.36 2006.66,1386.36 2007.67,1386.36 2008.68,1386.36 2009.68,1386.36 2010.69,1386.36 2011.69,1386.36 2012.7,1386.36 2013.71,1386.36 2014.71,1386.36 2015.72,1386.36 2016.73,1386.36 2017.73,1386.36 2018.74,1386.36 2019.74,1386.36 2020.75,1386.36 2021.76,1386.36 2022.76,1386.36 2023.77,1386.36 2024.77,1386.36 2025.78,1386.36 2026.79,1386.36 2027.79,1386.36 2028.8,1386.36 2029.8,1386.36 2030.81,1386.36 2031.82,1386.36 2032.82,1386.36 2033.83,1386.36 2034.83,1386.36 2035.84,1386.36 2036.85,1386.36 2037.85,1386.36 2038.86,1386.36 2039.87,1386.36 2040.87,1386.36 2041.88,1386.36 2042.88,1386.36 2043.89,1386.36 2044.9,1386.36 2045.9,1386.36 2046.91,1386.36 2047.91,1386.36 2048.92,1386.36 2049.93,1386.36 2050.93,1386.36 2051.94,1386.36 2052.94,1386.36 2053.95,1386.36 2054.96,1386.36 2055.96,1386.36 2056.97,1386.36 2057.97,1386.36 2058.98,1386.36 2059.99,1386.37 2060.99,1386.37 2062,1386.37 2063,1386.37 2064.01,1386.37 2065.02,1386.37 2066.02,1386.37 2067.03,1386.37 2068.04,1386.37 2069.04,1386.37 2070.05,1386.37 2071.05,1386.37 2072.06,1386.37 2073.07,1386.37 2074.07,1386.37 2075.08,1386.37 2076.08,1386.37 2077.09,1386.37 2078.1,1386.37 2079.1,1386.37 2080.11,1386.37 2081.11,1386.37 2082.12,1386.37 2083.13,1386.37 2084.13,1386.37 2085.14,1386.37 2086.14,1386.37 2087.15,1386.37 2088.16,1386.37 2089.16,1386.37 2090.17,1386.37 2091.18,1386.37 2092.18,1386.37 2093.19,1386.37 2094.19,1386.37 2095.2,1386.37 2096.21,1386.37 2097.21,1386.37 2098.22,1386.37 2099.22,1386.37 2100.23,1386.37 2101.24,1386.38 2102.24,1386.38 2103.25,1386.38 2104.25,1386.38 2105.26,1386.38 2106.27,1386.38 2107.27,1386.38 2108.28,1386.38 2109.28,1386.38 2110.29,1386.38 2111.3,1386.38 2112.3,1386.38 2113.31,1386.38 2114.31,1386.38 2115.32,1386.38 2116.33,1386.38 2117.33,1386.38 2118.34,1386.38 2119.35,1386.38 2120.35,1386.38 2121.36,1386.38 2122.36,1386.38 2123.37,1386.38 2124.38,1386.38 2125.38,1386.38 2126.39,1386.38 2127.39,1386.38 2128.4,1386.38 2129.41,1386.38 2130.41,1386.38 2131.42,1386.38 2132.42,1386.38 2133.43,1386.38 2134.44,1386.38 2135.44,1386.38 2136.45,1386.38 2137.45,1386.38 2138.46,1386.38 2139.47,1386.38 2140.47,1386.38 2141.48,1386.38 2142.49,1386.38 2143.49,1386.39 2144.5,1386.39 2145.5,1386.39 2146.51,1386.39 2147.52,1386.39 2148.52,1386.39 2149.53,1386.39 2150.53,1386.39 2151.54,1386.39 2152.55,1386.39 2153.55,1386.39 2154.56,1386.39 2155.56,1386.39 2156.57,1386.39 2157.58,1386.39 2158.58,1386.39 2159.59,1386.39 2160.59,1386.39 2161.6,1386.39 2162.61,1386.39 2163.61,1386.39 2164.62,1386.39 2165.63,1386.39 2166.63,1386.39 2167.64,1386.39 2168.64,1386.39 2169.65,1386.39 2170.66,1386.39 2171.66,1386.39 2172.67,1386.39 2173.67,1386.39 2174.68,1386.39 2175.69,1386.39 2176.69,1386.39 2177.7,1386.39 2178.7,1386.39 2179.71,1386.39 2180.72,1386.39 2181.72,1386.39 2182.73,1386.39 2183.73,1386.39 2184.74,1386.39 2185.75,1386.39 2186.75,1386.39 2187.76,1386.39 2188.76,1386.39 2189.77,1386.39 2190.78,1386.39 2191.78,1386.39 2192.79,1386.39 2193.8,1386.39 2194.8,1386.39 2195.81,1386.39 2196.81,1386.39 2197.82,1386.39 2198.83,1386.39 2199.83,1386.39 2200.84,1386.39 2201.84,1386.39 2202.85,1386.39 2203.86,1386.39 2204.86,1386.39 2205.87,1386.39 2206.87,1386.39 2207.88,1386.39 2208.89,1386.39 2209.89,1386.39 2210.9,1386.39 2211.9,1386.39 2212.91,1386.39 2213.92,1386.39 2214.92,1386.39 2215.93,1386.39 2216.94,1386.39 2217.94,1386.39 2218.95,1386.39 2219.95,1386.39 2220.96,1386.39 2221.97,1386.39 2222.97,1386.39 2223.98,1386.39 2224.98,1386.39 2225.99,1386.39 2227,1386.39 2228,1386.39 2229.01,1386.39 2230.01,1386.39 2231.02,1386.39 2232.03,1386.39 2233.03,1386.39 2234.04,1386.39 2235.04,1386.39 2236.05,1386.39 2237.06,1386.39 2238.06,1386.39 2239.07,1386.39 2240.07,1386.39 2241.08,1386.39 2242.09,1386.39 2243.09,1386.39 2244.1,1386.39 2245.11,1386.39 2246.11,1386.39 2247.12,1386.39 2248.12,1386.39 2249.13,1386.39 2250.14,1386.39 2251.14,1386.39 2252.15,1386.39 2253.15,1386.39 2254.16,1386.39 2255.17,1386.39 2256.17,1386.39 2257.18,1386.39 2258.18,1386.39 2259.19,1386.39 2260.2,1386.39 2261.2,1386.39 2262.21,1386.39 2263.21,1386.39 2264.22,1386.39 2265.23,1386.39 2266.23,1386.39 2267.24,1386.39 2268.25,1386.39 2269.25,1386.39 2270.26,1386.39 2271.26,1386.39 2272.27,1386.39 2273.28,1386.39 2274.28,1386.39 2275.29,1386.39 2276.29,1386.39 2277.3,1386.39 2278.31,1386.39 2279.31,1386.39 2280.32,1386.39 2281.32,1386.39 2282.33,1386.39 2283.34,1386.39 2284.34,1386.39 2285.35,1386.4 2286.35,1386.4 2287.36,1386.4 2288.37,1386.4 2289.37,1386.4 2290.38,1386.4 2291.39,1386.4 2292.39,1386.4 "/>
<path clip-path="url(#clip580)" d="M1842.35 270.476 L2281.66 270.476 L2281.66 166.796 L1842.35 166.796  Z" fill="#ffffff" fill-rule="evenodd" fill-opacity="1"/>
<polyline clip-path="url(#clip580)" style="stroke:#000000; stroke-linecap:round; stroke-linejoin:round; stroke-width:4; stroke-opacity:1; fill:none" points="1842.35,270.476 2281.66,270.476 2281.66,166.796 1842.35,166.796 1842.35,270.476 "/>
<polyline clip-path="url(#clip580)" style="stroke:#009af9; stroke-linecap:round; stroke-linejoin:round; stroke-width:8; stroke-opacity:1; fill:none" points="1866.05,218.636 2008.24,218.636 "/>
<path clip-path="url(#clip580)" d="M2031.94 201.356 L2053.8 201.356 L2053.8 205.291 L2036.62 205.291 L2036.62 215.522 L2053.08 215.522 L2053.08 219.457 L2036.62 219.457 L2036.62 231.981 L2054.21 231.981 L2054.21 235.916 L2031.94 235.916 L2031.94 201.356 Z" fill="#000000" fill-rule="nonzero" fill-opacity="1" /><path clip-path="url(#clip580)" d="M2077.34 214.388 L2107.01 214.388 L2107.01 218.277 L2077.34 218.277 L2077.34 214.388 M2077.34 223.832 L2107.01 223.832 L2107.01 227.768 L2077.34 227.768 L2077.34 223.832 Z" fill="#000000" fill-rule="nonzero" fill-opacity="1" /><path clip-path="url(#clip580)" d="M2126.97 201.356 L2156.2 201.356 L2156.2 205.291 L2143.93 205.291 L2143.93 235.916 L2139.23 235.916 L2139.23 205.291 L2126.97 205.291 L2126.97 201.356 Z" fill="#000000" fill-rule="nonzero" fill-opacity="1" /><path clip-path="url(#clip580)" d="M2192.94 206.194 L2192.94 219.087 L2205.83 219.087 L2205.83 223.022 L2192.94 223.022 L2192.94 235.916 L2189.05 235.916 L2189.05 223.022 L2176.16 223.022 L2176.16 219.087 L2189.05 219.087 L2189.05 206.194 L2192.94 206.194 Z" fill="#000000" fill-rule="nonzero" fill-opacity="1" /><path clip-path="url(#clip580)" d="M2239.49 235.916 L2226.29 201.356 L2231.18 201.356 L2242.13 230.453 L2253.1 201.356 L2257.96 201.356 L2244.79 235.916 L2239.49 235.916 Z" fill="#000000" fill-rule="nonzero" fill-opacity="1" /></svg>
