<?xml version="1.0" encoding="utf-8"?>
<svg xmlns="http://www.w3.org/2000/svg" xmlns:xlink="http://www.w3.org/1999/xlink" width="600" height="400" viewBox="0 0 2400 1600">
<defs>
  <clipPath id="clip480">
    <rect x="0" y="0" width="2400" height="1600"/>
  </clipPath>
</defs>
<path clip-path="url(#clip480)" d="M0 1600 L2400 1600 L2400 0 L0 0  Z" fill="#ffffff" fill-rule="evenodd" fill-opacity="1"/>
<defs>
  <clipPath id="clip481">
    <rect x="242" y="123" width="2112" height="1301"/>
  </clipPath>
</defs>
<path clip-path="url(#clip480)" d="M287.528 1423.18 L2352.76 1423.18 L2352.76 123.472 L287.528 123.472  Z" fill="#ffffff" fill-rule="evenodd" fill-opacity="1"/>
<defs>
  <clipPath id="clip482">
    <rect x="287" y="123" width="2066" height="1301"/>
  </clipPath>
</defs>
<polyline clip-path="url(#clip482)" style="stroke:#000000; stroke-linecap:round; stroke-linejoin:round; stroke-width:2; stroke-opacity:0.1; fill:none" points="718.568,1423.18 718.568,123.472 "/>
<polyline clip-path="url(#clip482)" style="stroke:#000000; stroke-linecap:round; stroke-linejoin:round; stroke-width:2; stroke-opacity:0.1; fill:none" points="1166.51,1423.18 1166.51,123.472 "/>
<polyline clip-path="url(#clip482)" style="stroke:#000000; stroke-linecap:round; stroke-linejoin:round; stroke-width:2; stroke-opacity:0.1; fill:none" points="1614.44,1423.18 1614.44,123.472 "/>
<polyline clip-path="url(#clip482)" style="stroke:#000000; stroke-linecap:round; stroke-linejoin:round; stroke-width:2; stroke-opacity:0.1; fill:none" points="2062.38,1423.18 2062.38,123.472 "/>
<polyline clip-path="url(#clip482)" style="stroke:#000000; stroke-linecap:round; stroke-linejoin:round; stroke-width:2; stroke-opacity:0.1; fill:none" points="287.528,1385.26 2352.76,1385.26 "/>
<polyline clip-path="url(#clip482)" style="stroke:#000000; stroke-linecap:round; stroke-linejoin:round; stroke-width:2; stroke-opacity:0.1; fill:none" points="287.528,1161.29 2352.76,1161.29 "/>
<polyline clip-path="url(#clip482)" style="stroke:#000000; stroke-linecap:round; stroke-linejoin:round; stroke-width:2; stroke-opacity:0.1; fill:none" points="287.528,937.323 2352.76,937.323 "/>
<polyline clip-path="url(#clip482)" style="stroke:#000000; stroke-linecap:round; stroke-linejoin:round; stroke-width:2; stroke-opacity:0.1; fill:none" points="287.528,713.355 2352.76,713.355 "/>
<polyline clip-path="url(#clip482)" style="stroke:#000000; stroke-linecap:round; stroke-linejoin:round; stroke-width:2; stroke-opacity:0.1; fill:none" points="287.528,489.386 2352.76,489.386 "/>
<polyline clip-path="url(#clip482)" style="stroke:#000000; stroke-linecap:round; stroke-linejoin:round; stroke-width:2; stroke-opacity:0.1; fill:none" points="287.528,265.418 2352.76,265.418 "/>
<polyline clip-path="url(#clip480)" style="stroke:#000000; stroke-linecap:round; stroke-linejoin:round; stroke-width:4; stroke-opacity:1; fill:none" points="287.528,1423.18 2352.76,1423.18 "/>
<polyline clip-path="url(#clip480)" style="stroke:#000000; stroke-linecap:round; stroke-linejoin:round; stroke-width:4; stroke-opacity:1; fill:none" points="718.568,1423.18 718.568,1404.28 "/>
<polyline clip-path="url(#clip480)" style="stroke:#000000; stroke-linecap:round; stroke-linejoin:round; stroke-width:4; stroke-opacity:1; fill:none" points="1166.51,1423.18 1166.51,1404.28 "/>
<polyline clip-path="url(#clip480)" style="stroke:#000000; stroke-linecap:round; stroke-linejoin:round; stroke-width:4; stroke-opacity:1; fill:none" points="1614.44,1423.18 1614.44,1404.28 "/>
<polyline clip-path="url(#clip480)" style="stroke:#000000; stroke-linecap:round; stroke-linejoin:round; stroke-width:4; stroke-opacity:1; fill:none" points="2062.38,1423.18 2062.38,1404.28 "/>
<path clip-path="url(#clip480)" d="M665.895 1468.75 L695.57 1468.75 L695.57 1472.69 L665.895 1472.69 L665.895 1468.75 Z" fill="#000000" fill-rule="nonzero" fill-opacity="1" /><path clip-path="url(#clip480)" d="M715.663 1454.1 Q712.052 1454.1 710.223 1457.66 Q708.418 1461.2 708.418 1468.33 Q708.418 1475.44 710.223 1479.01 Q712.052 1482.55 715.663 1482.55 Q719.297 1482.55 721.103 1479.01 Q722.931 1475.44 722.931 1468.33 Q722.931 1461.2 721.103 1457.66 Q719.297 1454.1 715.663 1454.1 M715.663 1450.39 Q721.473 1450.39 724.529 1455 Q727.607 1459.58 727.607 1468.33 Q727.607 1477.06 724.529 1481.67 Q721.473 1486.25 715.663 1486.25 Q709.853 1486.25 706.774 1481.67 Q703.719 1477.06 703.719 1468.33 Q703.719 1459.58 706.774 1455 Q709.853 1450.39 715.663 1450.39 Z" fill="#000000" fill-rule="nonzero" fill-opacity="1" /><path clip-path="url(#clip480)" d="M735.825 1479.7 L740.709 1479.7 L740.709 1485.58 L735.825 1485.58 L735.825 1479.7 Z" fill="#000000" fill-rule="nonzero" fill-opacity="1" /><path clip-path="url(#clip480)" d="M754.922 1481.64 L771.241 1481.64 L771.241 1485.58 L749.297 1485.58 L749.297 1481.64 Q751.959 1478.89 756.542 1474.26 Q761.149 1469.61 762.329 1468.27 Q764.575 1465.74 765.454 1464.01 Q766.357 1462.25 766.357 1460.56 Q766.357 1457.8 764.413 1456.07 Q762.491 1454.33 759.39 1454.33 Q757.19 1454.33 754.737 1455.09 Q752.306 1455.86 749.528 1457.41 L749.528 1452.69 Q752.353 1451.55 754.806 1450.97 Q757.26 1450.39 759.297 1450.39 Q764.667 1450.39 767.862 1453.08 Q771.056 1455.77 771.056 1460.26 Q771.056 1462.39 770.246 1464.31 Q769.459 1466.2 767.352 1468.8 Q766.774 1469.47 763.672 1472.69 Q760.57 1475.88 754.922 1481.64 Z" fill="#000000" fill-rule="nonzero" fill-opacity="1" /><path clip-path="url(#clip480)" d="M1143.89 1454.1 Q1140.28 1454.1 1138.45 1457.66 Q1136.64 1461.2 1136.64 1468.33 Q1136.64 1475.44 1138.45 1479.01 Q1140.28 1482.55 1143.89 1482.55 Q1147.52 1482.55 1149.33 1479.01 Q1151.16 1475.44 1151.16 1468.33 Q1151.16 1461.2 1149.33 1457.66 Q1147.52 1454.1 1143.89 1454.1 M1143.89 1450.39 Q1149.7 1450.39 1152.76 1455 Q1155.83 1459.58 1155.83 1468.33 Q1155.83 1477.06 1152.76 1481.67 Q1149.7 1486.25 1143.89 1486.25 Q1138.08 1486.25 1135 1481.67 Q1131.95 1477.06 1131.95 1468.33 Q1131.95 1459.58 1135 1455 Q1138.08 1450.39 1143.89 1450.39 Z" fill="#000000" fill-rule="nonzero" fill-opacity="1" /><path clip-path="url(#clip480)" d="M1164.05 1479.7 L1168.94 1479.7 L1168.94 1485.58 L1164.05 1485.58 L1164.05 1479.7 Z" fill="#000000" fill-rule="nonzero" fill-opacity="1" /><path clip-path="url(#clip480)" d="M1189.12 1454.1 Q1185.51 1454.1 1183.68 1457.66 Q1181.88 1461.2 1181.88 1468.33 Q1181.88 1475.44 1183.68 1479.01 Q1185.51 1482.55 1189.12 1482.55 Q1192.75 1482.55 1194.56 1479.01 Q1196.39 1475.44 1196.39 1468.33 Q1196.39 1461.2 1194.56 1457.66 Q1192.75 1454.1 1189.12 1454.1 M1189.12 1450.39 Q1194.93 1450.39 1197.99 1455 Q1201.07 1459.58 1201.07 1468.33 Q1201.07 1477.06 1197.99 1481.67 Q1194.93 1486.25 1189.12 1486.25 Q1183.31 1486.25 1180.23 1481.67 Q1177.18 1477.06 1177.18 1468.33 Q1177.18 1459.58 1180.23 1455 Q1183.31 1450.39 1189.12 1450.39 Z" fill="#000000" fill-rule="nonzero" fill-opacity="1" /><path clip-path="url(#clip480)" d="M1592.63 1454.1 Q1589.01 1454.1 1587.19 1457.66 Q1585.38 1461.2 1585.38 1468.33 Q1585.38 1475.44 1587.19 1479.01 Q1589.01 1482.55 1592.63 1482.55 Q1596.26 1482.55 1598.06 1479.01 Q1599.89 1475.44 1599.89 1468.33 Q1599.89 1461.2 1598.06 1457.66 Q1596.26 1454.1 1592.63 1454.1 M1592.63 1450.39 Q1598.44 1450.39 1601.49 1455 Q1604.57 1459.58 1604.57 1468.33 Q1604.57 1477.06 1601.49 1481.67 Q1598.44 1486.25 1592.63 1486.25 Q1586.81 1486.25 1583.74 1481.67 Q1580.68 1477.06 1580.68 1468.33 Q1580.68 1459.58 1583.74 1455 Q1586.81 1450.39 1592.63 1450.39 Z" fill="#000000" fill-rule="nonzero" fill-opacity="1" /><path clip-path="url(#clip480)" d="M1612.79 1479.7 L1617.67 1479.7 L1617.67 1485.58 L1612.79 1485.58 L1612.79 1479.7 Z" fill="#000000" fill-rule="nonzero" fill-opacity="1" /><path clip-path="url(#clip480)" d="M1631.88 1481.64 L1648.2 1481.64 L1648.2 1485.58 L1626.26 1485.58 L1626.26 1481.64 Q1628.92 1478.89 1633.5 1474.26 Q1638.11 1469.61 1639.29 1468.27 Q1641.54 1465.74 1642.42 1464.01 Q1643.32 1462.25 1643.32 1460.56 Q1643.32 1457.8 1641.37 1456.07 Q1639.45 1454.33 1636.35 1454.33 Q1634.15 1454.33 1631.7 1455.09 Q1629.27 1455.86 1626.49 1457.41 L1626.49 1452.69 Q1629.31 1451.55 1631.77 1450.97 Q1634.22 1450.39 1636.26 1450.39 Q1641.63 1450.39 1644.82 1453.08 Q1648.02 1455.77 1648.02 1460.26 Q1648.02 1462.39 1647.21 1464.31 Q1646.42 1466.2 1644.31 1468.8 Q1643.74 1469.47 1640.63 1472.69 Q1637.53 1475.88 1631.88 1481.64 Z" fill="#000000" fill-rule="nonzero" fill-opacity="1" /><path clip-path="url(#clip480)" d="M2039.52 1454.1 Q2035.91 1454.1 2034.08 1457.66 Q2032.28 1461.2 2032.28 1468.33 Q2032.28 1475.44 2034.08 1479.01 Q2035.91 1482.55 2039.52 1482.55 Q2043.15 1482.55 2044.96 1479.01 Q2046.79 1475.44 2046.79 1468.33 Q2046.79 1461.2 2044.96 1457.66 Q2043.15 1454.1 2039.52 1454.1 M2039.52 1450.39 Q2045.33 1450.39 2048.39 1455 Q2051.46 1459.58 2051.46 1468.33 Q2051.46 1477.06 2048.39 1481.67 Q2045.33 1486.25 2039.52 1486.25 Q2033.71 1486.25 2030.63 1481.67 Q2027.58 1477.06 2027.58 1468.33 Q2027.58 1459.58 2030.63 1455 Q2033.71 1450.39 2039.52 1450.39 Z" fill="#000000" fill-rule="nonzero" fill-opacity="1" /><path clip-path="url(#clip480)" d="M2059.68 1479.7 L2064.57 1479.7 L2064.57 1485.58 L2059.68 1485.58 L2059.68 1479.7 Z" fill="#000000" fill-rule="nonzero" fill-opacity="1" /><path clip-path="url(#clip480)" d="M2087.6 1455.09 L2075.79 1473.54 L2087.6 1473.54 L2087.6 1455.09 M2086.37 1451.02 L2092.25 1451.02 L2092.25 1473.54 L2097.18 1473.54 L2097.18 1477.43 L2092.25 1477.43 L2092.25 1485.58 L2087.6 1485.58 L2087.6 1477.43 L2072 1477.43 L2072 1472.92 L2086.37 1451.02 Z" fill="#000000" fill-rule="nonzero" fill-opacity="1" /><path clip-path="url(#clip480)" d="M1130.09 1532.4 L1117.2 1549.74 L1130.76 1568.04 L1123.86 1568.04 L1113.48 1554.04 L1103.1 1568.04 L1096.2 1568.04 L1110.04 1549.39 L1097.37 1532.4 L1104.28 1532.4 L1113.73 1545.1 L1123.19 1532.4 L1130.09 1532.4 Z" fill="#000000" fill-rule="nonzero" fill-opacity="1" /><path clip-path="url(#clip480)" d="M1136.08 1547.58 L1153.23 1547.58 L1153.23 1552.8 L1136.08 1552.8 L1136.08 1547.58 Z" fill="#000000" fill-rule="nonzero" fill-opacity="1" /><path clip-path="url(#clip480)" d="M1168.22 1562.7 L1168.22 1581.6 L1162.34 1581.6 L1162.34 1532.4 L1168.22 1532.4 L1168.22 1537.81 Q1170.07 1534.62 1172.87 1533.1 Q1175.7 1531.54 1179.62 1531.54 Q1186.11 1531.54 1190.15 1536.69 Q1194.23 1541.85 1194.23 1550.25 Q1194.23 1558.65 1190.15 1563.81 Q1186.11 1568.97 1179.62 1568.97 Q1175.7 1568.97 1172.87 1567.44 Q1170.07 1565.88 1168.22 1562.7 M1188.15 1550.25 Q1188.15 1543.79 1185.48 1540.13 Q1182.83 1536.44 1178.19 1536.44 Q1173.54 1536.44 1170.87 1540.13 Q1168.22 1543.79 1168.22 1550.25 Q1168.22 1556.71 1170.87 1560.4 Q1173.54 1564.07 1178.19 1564.07 Q1182.83 1564.07 1185.48 1560.4 Q1188.15 1556.71 1188.15 1550.25 Z" fill="#000000" fill-rule="nonzero" fill-opacity="1" /><path clip-path="url(#clip480)" d="M1217.75 1536.5 Q1213.04 1536.5 1210.3 1540.19 Q1207.56 1543.85 1207.56 1550.25 Q1207.56 1556.65 1210.27 1560.34 Q1213.01 1564 1217.75 1564 Q1222.43 1564 1225.17 1560.31 Q1227.9 1556.62 1227.9 1550.25 Q1227.9 1543.92 1225.17 1540.23 Q1222.43 1536.5 1217.75 1536.5 M1217.75 1531.54 Q1225.39 1531.54 1229.75 1536.5 Q1234.11 1541.47 1234.11 1550.25 Q1234.11 1559 1229.75 1564 Q1225.39 1568.97 1217.75 1568.97 Q1210.08 1568.97 1205.72 1564 Q1201.39 1559 1201.39 1550.25 Q1201.39 1541.47 1205.72 1536.5 Q1210.08 1531.54 1217.75 1531.54 Z" fill="#000000" fill-rule="nonzero" fill-opacity="1" /><path clip-path="url(#clip480)" d="M1266.54 1533.45 L1266.54 1538.98 Q1264.06 1537.71 1261.39 1537.07 Q1258.71 1536.44 1255.85 1536.44 Q1251.49 1536.44 1249.29 1537.77 Q1247.13 1539.11 1247.13 1541.79 Q1247.13 1543.82 1248.69 1545 Q1250.25 1546.15 1254.96 1547.2 L1256.96 1547.64 Q1263.2 1548.98 1265.81 1551.43 Q1268.45 1553.85 1268.45 1558.21 Q1268.45 1563.17 1264.51 1566.07 Q1260.59 1568.97 1253.72 1568.97 Q1250.85 1568.97 1247.73 1568.39 Q1244.64 1567.85 1241.21 1566.74 L1241.21 1560.69 Q1244.45 1562.38 1247.6 1563.24 Q1250.76 1564.07 1253.84 1564.07 Q1257.98 1564.07 1260.21 1562.66 Q1262.44 1561.23 1262.44 1558.65 Q1262.44 1556.27 1260.81 1554.99 Q1259.22 1553.72 1253.78 1552.54 L1251.74 1552.07 Q1246.3 1550.92 1243.88 1548.56 Q1241.46 1546.18 1241.46 1542.04 Q1241.46 1537.01 1245.03 1534.27 Q1248.59 1531.54 1255.15 1531.54 Q1258.39 1531.54 1261.26 1532.01 Q1264.12 1532.49 1266.54 1533.45 Z" fill="#000000" fill-rule="nonzero" fill-opacity="1" /><path clip-path="url(#clip480)" d="M1277.78 1532.4 L1283.63 1532.4 L1283.63 1568.04 L1277.78 1568.04 L1277.78 1532.4 M1277.78 1518.52 L1283.63 1518.52 L1283.63 1525.93 L1277.78 1525.93 L1277.78 1518.52 Z" fill="#000000" fill-rule="nonzero" fill-opacity="1" /><path clip-path="url(#clip480)" d="M1301.68 1522.27 L1301.68 1532.4 L1313.74 1532.4 L1313.74 1536.95 L1301.68 1536.95 L1301.68 1556.3 Q1301.68 1560.66 1302.86 1561.9 Q1304.07 1563.14 1307.73 1563.14 L1313.74 1563.14 L1313.74 1568.04 L1307.73 1568.04 Q1300.95 1568.04 1298.37 1565.53 Q1295.79 1562.98 1295.79 1556.3 L1295.79 1536.95 L1291.5 1536.95 L1291.5 1532.4 L1295.79 1532.4 L1295.79 1522.27 L1301.68 1522.27 Z" fill="#000000" fill-rule="nonzero" fill-opacity="1" /><path clip-path="url(#clip480)" d="M1321.45 1532.4 L1327.3 1532.4 L1327.3 1568.04 L1321.45 1568.04 L1321.45 1532.4 M1321.45 1518.52 L1327.3 1518.52 L1327.3 1525.93 L1321.45 1525.93 L1321.45 1518.52 Z" fill="#000000" fill-rule="nonzero" fill-opacity="1" /><path clip-path="url(#clip480)" d="M1353.37 1536.5 Q1348.66 1536.5 1345.92 1540.19 Q1343.19 1543.85 1343.19 1550.25 Q1343.19 1556.65 1345.89 1560.34 Q1348.63 1564 1353.37 1564 Q1358.05 1564 1360.79 1560.31 Q1363.52 1556.62 1363.52 1550.25 Q1363.52 1543.92 1360.79 1540.23 Q1358.05 1536.5 1353.37 1536.5 M1353.37 1531.54 Q1361.01 1531.54 1365.37 1536.5 Q1369.73 1541.47 1369.73 1550.25 Q1369.73 1559 1365.37 1564 Q1361.01 1568.97 1353.37 1568.97 Q1345.7 1568.97 1341.34 1564 Q1337.01 1559 1337.01 1550.25 Q1337.01 1541.47 1341.34 1536.5 Q1345.7 1531.54 1353.37 1531.54 Z" fill="#000000" fill-rule="nonzero" fill-opacity="1" /><path clip-path="url(#clip480)" d="M1409.07 1546.53 L1409.07 1568.04 L1403.21 1568.04 L1403.21 1546.72 Q1403.21 1541.66 1401.24 1539.14 Q1399.27 1536.63 1395.32 1536.63 Q1390.58 1536.63 1387.84 1539.65 Q1385.1 1542.68 1385.1 1547.9 L1385.1 1568.04 L1379.22 1568.04 L1379.22 1532.4 L1385.1 1532.4 L1385.1 1537.93 Q1387.2 1534.72 1390.04 1533.13 Q1392.9 1531.54 1396.63 1531.54 Q1402.77 1531.54 1405.92 1535.36 Q1409.07 1539.14 1409.07 1546.53 Z" fill="#000000" fill-rule="nonzero" fill-opacity="1" /><path clip-path="url(#clip480)" d="M1455.54 1518.58 Q1451.28 1525.9 1449.21 1533.06 Q1447.14 1540.23 1447.14 1547.58 Q1447.14 1554.93 1449.21 1562.16 Q1451.31 1569.35 1455.54 1576.64 L1450.45 1576.64 Q1445.67 1569.16 1443.29 1561.93 Q1440.93 1554.71 1440.93 1547.58 Q1440.93 1540.48 1443.29 1533.29 Q1445.64 1526.09 1450.45 1518.58 L1455.54 1518.58 Z" fill="#000000" fill-rule="nonzero" fill-opacity="1" /><path clip-path="url(#clip480)" d="M1494.66 1539.24 Q1496.85 1535.29 1499.91 1533.41 Q1502.97 1531.54 1507.1 1531.54 Q1512.67 1531.54 1515.7 1535.45 Q1518.72 1539.33 1518.72 1546.53 L1518.72 1568.04 L1512.83 1568.04 L1512.83 1546.72 Q1512.83 1541.59 1511.02 1539.11 Q1509.2 1536.63 1505.48 1536.63 Q1500.93 1536.63 1498.29 1539.65 Q1495.64 1542.68 1495.64 1547.9 L1495.64 1568.04 L1489.76 1568.04 L1489.76 1546.72 Q1489.76 1541.56 1487.94 1539.11 Q1486.13 1536.63 1482.34 1536.63 Q1477.85 1536.63 1475.21 1539.68 Q1472.57 1542.71 1472.57 1547.9 L1472.57 1568.04 L1466.68 1568.04 L1466.68 1532.4 L1472.57 1532.4 L1472.57 1537.93 Q1474.57 1534.66 1477.37 1533.1 Q1480.18 1531.54 1484.03 1531.54 Q1487.91 1531.54 1490.62 1533.51 Q1493.35 1535.48 1494.66 1539.24 Z" fill="#000000" fill-rule="nonzero" fill-opacity="1" /><path clip-path="url(#clip480)" d="M1529.48 1518.58 L1534.57 1518.58 Q1539.35 1526.09 1541.7 1533.29 Q1544.09 1540.48 1544.09 1547.58 Q1544.09 1554.71 1541.7 1561.93 Q1539.35 1569.16 1534.57 1576.64 L1529.48 1576.64 Q1533.71 1569.35 1535.78 1562.16 Q1537.88 1554.93 1537.88 1547.58 Q1537.88 1540.23 1535.78 1533.06 Q1533.71 1525.9 1529.48 1518.58 Z" fill="#000000" fill-rule="nonzero" fill-opacity="1" /><polyline clip-path="url(#clip480)" style="stroke:#000000; stroke-linecap:round; stroke-linejoin:round; stroke-width:4; stroke-opacity:1; fill:none" points="287.528,1423.18 287.528,123.472 "/>
<polyline clip-path="url(#clip480)" style="stroke:#000000; stroke-linecap:round; stroke-linejoin:round; stroke-width:4; stroke-opacity:1; fill:none" points="287.528,1385.26 306.426,1385.26 "/>
<polyline clip-path="url(#clip480)" style="stroke:#000000; stroke-linecap:round; stroke-linejoin:round; stroke-width:4; stroke-opacity:1; fill:none" points="287.528,1161.29 306.426,1161.29 "/>
<polyline clip-path="url(#clip480)" style="stroke:#000000; stroke-linecap:round; stroke-linejoin:round; stroke-width:4; stroke-opacity:1; fill:none" points="287.528,937.323 306.426,937.323 "/>
<polyline clip-path="url(#clip480)" style="stroke:#000000; stroke-linecap:round; stroke-linejoin:round; stroke-width:4; stroke-opacity:1; fill:none" points="287.528,713.355 306.426,713.355 "/>
<polyline clip-path="url(#clip480)" style="stroke:#000000; stroke-linecap:round; stroke-linejoin:round; stroke-width:4; stroke-opacity:1; fill:none" points="287.528,489.386 306.426,489.386 "/>
<polyline clip-path="url(#clip480)" style="stroke:#000000; stroke-linecap:round; stroke-linejoin:round; stroke-width:4; stroke-opacity:1; fill:none" points="287.528,265.418 306.426,265.418 "/>
<path clip-path="url(#clip480)" d="M145.487 1385.71 L175.163 1385.71 L175.163 1389.65 L145.487 1389.65 L145.487 1385.71 Z" fill="#000000" fill-rule="nonzero" fill-opacity="1" /><path clip-path="url(#clip480)" d="M195.255 1371.06 Q191.644 1371.06 189.815 1374.62 Q188.01 1378.17 188.01 1385.29 Q188.01 1392.4 189.815 1395.97 Q191.644 1399.51 195.255 1399.51 Q198.889 1399.51 200.695 1395.97 Q202.524 1392.4 202.524 1385.29 Q202.524 1378.17 200.695 1374.62 Q198.889 1371.06 195.255 1371.06 M195.255 1367.36 Q201.065 1367.36 204.121 1371.96 Q207.199 1376.54 207.199 1385.29 Q207.199 1394.02 204.121 1398.63 Q201.065 1403.21 195.255 1403.21 Q189.445 1403.21 186.366 1398.63 Q183.311 1394.02 183.311 1385.29 Q183.311 1376.54 186.366 1371.96 Q189.445 1367.36 195.255 1367.36 Z" fill="#000000" fill-rule="nonzero" fill-opacity="1" /><path clip-path="url(#clip480)" d="M215.417 1396.66 L220.301 1396.66 L220.301 1402.54 L215.417 1402.54 L215.417 1396.66 Z" fill="#000000" fill-rule="nonzero" fill-opacity="1" /><path clip-path="url(#clip480)" d="M229.306 1367.98 L251.528 1367.98 L251.528 1369.97 L238.982 1402.54 L234.097 1402.54 L245.903 1371.92 L229.306 1371.92 L229.306 1367.98 Z" fill="#000000" fill-rule="nonzero" fill-opacity="1" /><path clip-path="url(#clip480)" d="M144.422 1161.74 L174.098 1161.74 L174.098 1165.68 L144.422 1165.68 L144.422 1161.74 Z" fill="#000000" fill-rule="nonzero" fill-opacity="1" /><path clip-path="url(#clip480)" d="M194.19 1147.09 Q190.579 1147.09 188.75 1150.66 Q186.945 1154.2 186.945 1161.33 Q186.945 1168.43 188.75 1172 Q190.579 1175.54 194.19 1175.54 Q197.825 1175.54 199.63 1172 Q201.459 1168.43 201.459 1161.33 Q201.459 1154.2 199.63 1150.66 Q197.825 1147.09 194.19 1147.09 M194.19 1143.39 Q200 1143.39 203.056 1147.99 Q206.135 1152.58 206.135 1161.33 Q206.135 1170.05 203.056 1174.66 Q200 1179.24 194.19 1179.24 Q188.38 1179.24 185.301 1174.66 Q182.246 1170.05 182.246 1161.33 Q182.246 1152.58 185.301 1147.99 Q188.38 1143.39 194.19 1143.39 Z" fill="#000000" fill-rule="nonzero" fill-opacity="1" /><path clip-path="url(#clip480)" d="M214.352 1172.69 L219.236 1172.69 L219.236 1178.57 L214.352 1178.57 L214.352 1172.69 Z" fill="#000000" fill-rule="nonzero" fill-opacity="1" /><path clip-path="url(#clip480)" d="M240 1159.43 Q236.852 1159.43 235 1161.58 Q233.172 1163.73 233.172 1167.48 Q233.172 1171.21 235 1173.39 Q236.852 1175.54 240 1175.54 Q243.148 1175.54 244.977 1173.39 Q246.829 1171.21 246.829 1167.48 Q246.829 1163.73 244.977 1161.58 Q243.148 1159.43 240 1159.43 M249.283 1144.78 L249.283 1149.03 Q247.523 1148.2 245.718 1147.76 Q243.935 1147.32 242.176 1147.32 Q237.547 1147.32 235.093 1150.45 Q232.662 1153.57 232.315 1159.89 Q233.681 1157.88 235.741 1156.81 Q237.801 1155.72 240.278 1155.72 Q245.486 1155.72 248.496 1158.9 Q251.528 1162.04 251.528 1167.48 Q251.528 1172.81 248.38 1176.03 Q245.232 1179.24 240 1179.24 Q234.005 1179.24 230.834 1174.66 Q227.662 1170.05 227.662 1161.33 Q227.662 1153.13 231.551 1148.27 Q235.44 1143.39 241.991 1143.39 Q243.75 1143.39 245.533 1143.73 Q247.338 1144.08 249.283 1144.78 Z" fill="#000000" fill-rule="nonzero" fill-opacity="1" /><path clip-path="url(#clip480)" d="M145.579 937.775 L175.255 937.775 L175.255 941.71 L145.579 941.71 L145.579 937.775 Z" fill="#000000" fill-rule="nonzero" fill-opacity="1" /><path clip-path="url(#clip480)" d="M195.348 923.122 Q191.737 923.122 189.908 926.687 Q188.102 930.228 188.102 937.358 Q188.102 944.464 189.908 948.029 Q191.737 951.571 195.348 951.571 Q198.982 951.571 200.787 948.029 Q202.616 944.464 202.616 937.358 Q202.616 930.228 200.787 926.687 Q198.982 923.122 195.348 923.122 M195.348 919.418 Q201.158 919.418 204.213 924.025 Q207.292 928.608 207.292 937.358 Q207.292 946.085 204.213 950.691 Q201.158 955.274 195.348 955.274 Q189.538 955.274 186.459 950.691 Q183.403 946.085 183.403 937.358 Q183.403 928.608 186.459 924.025 Q189.538 919.418 195.348 919.418 Z" fill="#000000" fill-rule="nonzero" fill-opacity="1" /><path clip-path="url(#clip480)" d="M215.51 948.724 L220.394 948.724 L220.394 954.603 L215.51 954.603 L215.51 948.724 Z" fill="#000000" fill-rule="nonzero" fill-opacity="1" /><path clip-path="url(#clip480)" d="M230.625 920.043 L248.982 920.043 L248.982 923.978 L234.908 923.978 L234.908 932.45 Q235.926 932.103 236.945 931.941 Q237.963 931.756 238.982 931.756 Q244.769 931.756 248.148 934.927 Q251.528 938.099 251.528 943.515 Q251.528 949.094 248.056 952.196 Q244.584 955.274 238.264 955.274 Q236.088 955.274 233.82 954.904 Q231.574 954.534 229.167 953.793 L229.167 949.094 Q231.25 950.228 233.472 950.784 Q235.695 951.339 238.172 951.339 Q242.176 951.339 244.514 949.233 Q246.852 947.126 246.852 943.515 Q246.852 939.904 244.514 937.798 Q242.176 935.691 238.172 935.691 Q236.297 935.691 234.422 936.108 Q232.57 936.525 230.625 937.404 L230.625 920.043 Z" fill="#000000" fill-rule="nonzero" fill-opacity="1" /><path clip-path="url(#clip480)" d="M144.098 713.806 L173.774 713.806 L173.774 717.741 L144.098 717.741 L144.098 713.806 Z" fill="#000000" fill-rule="nonzero" fill-opacity="1" /><path clip-path="url(#clip480)" d="M193.866 699.153 Q190.255 699.153 188.426 702.718 Q186.621 706.26 186.621 713.389 Q186.621 720.496 188.426 724.061 Q190.255 727.602 193.866 727.602 Q197.5 727.602 199.306 724.061 Q201.135 720.496 201.135 713.389 Q201.135 706.26 199.306 702.718 Q197.5 699.153 193.866 699.153 M193.866 695.45 Q199.676 695.45 202.732 700.056 Q205.811 704.639 205.811 713.389 Q205.811 722.116 202.732 726.723 Q199.676 731.306 193.866 731.306 Q188.056 731.306 184.977 726.723 Q181.922 722.116 181.922 713.389 Q181.922 704.639 184.977 700.056 Q188.056 695.45 193.866 695.45 Z" fill="#000000" fill-rule="nonzero" fill-opacity="1" /><path clip-path="url(#clip480)" d="M214.028 724.755 L218.912 724.755 L218.912 730.635 L214.028 730.635 L214.028 724.755 Z" fill="#000000" fill-rule="nonzero" fill-opacity="1" /><path clip-path="url(#clip480)" d="M241.945 700.149 L230.139 718.598 L241.945 718.598 L241.945 700.149 M240.718 696.075 L246.597 696.075 L246.597 718.598 L251.528 718.598 L251.528 722.487 L246.597 722.487 L246.597 730.635 L241.945 730.635 L241.945 722.487 L226.343 722.487 L226.343 717.973 L240.718 696.075 Z" fill="#000000" fill-rule="nonzero" fill-opacity="1" /><path clip-path="url(#clip480)" d="M145.232 489.837 L174.908 489.837 L174.908 493.773 L145.232 493.773 L145.232 489.837 Z" fill="#000000" fill-rule="nonzero" fill-opacity="1" /><path clip-path="url(#clip480)" d="M195 475.185 Q191.389 475.185 189.561 478.75 Q187.755 482.291 187.755 489.421 Q187.755 496.527 189.561 500.092 Q191.389 503.634 195 503.634 Q198.635 503.634 200.44 500.092 Q202.269 496.527 202.269 489.421 Q202.269 482.291 200.44 478.75 Q198.635 475.185 195 475.185 M195 471.481 Q200.811 471.481 203.866 476.088 Q206.945 480.671 206.945 489.421 Q206.945 498.148 203.866 502.754 Q200.811 507.337 195 507.337 Q189.19 507.337 186.112 502.754 Q183.056 498.148 183.056 489.421 Q183.056 480.671 186.112 476.088 Q189.19 471.481 195 471.481 Z" fill="#000000" fill-rule="nonzero" fill-opacity="1" /><path clip-path="url(#clip480)" d="M215.162 500.787 L220.047 500.787 L220.047 506.666 L215.162 506.666 L215.162 500.787 Z" fill="#000000" fill-rule="nonzero" fill-opacity="1" /><path clip-path="url(#clip480)" d="M244.398 488.032 Q247.755 488.75 249.63 491.018 Q251.528 493.287 251.528 496.62 Q251.528 501.736 248.009 504.536 Q244.491 507.337 238.009 507.337 Q235.834 507.337 233.519 506.898 Q231.227 506.481 228.773 505.624 L228.773 501.111 Q230.718 502.245 233.033 502.824 Q235.347 503.402 237.871 503.402 Q242.269 503.402 244.56 501.666 Q246.875 499.93 246.875 496.62 Q246.875 493.564 244.722 491.851 Q242.593 490.115 238.773 490.115 L234.746 490.115 L234.746 486.273 L238.959 486.273 Q242.408 486.273 244.236 484.907 Q246.065 483.518 246.065 480.926 Q246.065 478.263 244.167 476.851 Q242.292 475.416 238.773 475.416 Q236.852 475.416 234.653 475.833 Q232.454 476.25 229.815 477.129 L229.815 472.963 Q232.477 472.222 234.792 471.851 Q237.13 471.481 239.19 471.481 Q244.514 471.481 247.616 473.912 Q250.718 476.319 250.718 480.439 Q250.718 483.31 249.074 485.3 Q247.431 487.268 244.398 488.032 Z" fill="#000000" fill-rule="nonzero" fill-opacity="1" /><path clip-path="url(#clip480)" d="M146.181 265.869 L175.857 265.869 L175.857 269.804 L146.181 269.804 L146.181 265.869 Z" fill="#000000" fill-rule="nonzero" fill-opacity="1" /><path clip-path="url(#clip480)" d="M195.95 251.216 Q192.338 251.216 190.51 254.781 Q188.704 258.323 188.704 265.452 Q188.704 272.559 190.51 276.124 Q192.338 279.665 195.95 279.665 Q199.584 279.665 201.389 276.124 Q203.218 272.559 203.218 265.452 Q203.218 258.323 201.389 254.781 Q199.584 251.216 195.95 251.216 M195.95 247.513 Q201.76 247.513 204.815 252.119 Q207.894 256.702 207.894 265.452 Q207.894 274.179 204.815 278.786 Q201.76 283.369 195.95 283.369 Q190.139 283.369 187.061 278.786 Q184.005 274.179 184.005 265.452 Q184.005 256.702 187.061 252.119 Q190.139 247.513 195.95 247.513 Z" fill="#000000" fill-rule="nonzero" fill-opacity="1" /><path clip-path="url(#clip480)" d="M216.111 276.818 L220.996 276.818 L220.996 282.698 L216.111 282.698 L216.111 276.818 Z" fill="#000000" fill-rule="nonzero" fill-opacity="1" /><path clip-path="url(#clip480)" d="M235.209 278.762 L251.528 278.762 L251.528 282.698 L229.584 282.698 L229.584 278.762 Q232.246 276.008 236.829 271.378 Q241.435 266.725 242.616 265.383 Q244.861 262.86 245.741 261.124 Q246.644 259.364 246.644 257.675 Q246.644 254.92 244.699 253.184 Q242.778 251.448 239.676 251.448 Q237.477 251.448 235.023 252.212 Q232.593 252.976 229.815 254.526 L229.815 249.804 Q232.639 248.67 235.093 248.091 Q237.547 247.513 239.584 247.513 Q244.954 247.513 248.148 250.198 Q251.343 252.883 251.343 257.374 Q251.343 259.503 250.533 261.425 Q249.746 263.323 247.639 265.915 Q247.06 266.587 243.959 269.804 Q240.857 272.999 235.209 278.762 Z" fill="#000000" fill-rule="nonzero" fill-opacity="1" /><path clip-path="url(#clip480)" d="M97.1521 977.633 Q103.518 980.116 105.459 982.471 Q107.401 984.827 107.401 988.773 L107.401 993.452 L102.499 993.452 L102.499 990.015 Q102.499 987.596 101.353 986.259 Q100.208 984.922 95.9426 983.299 L93.269 982.248 L58.194 996.667 L58.194 990.46 L86.0758 979.32 L58.194 968.18 L58.194 961.974 L97.1521 977.633 Z" fill="#000000" fill-rule="nonzero" fill-opacity="1" /><path clip-path="url(#clip480)" d="M73.3762 957.995 L73.3762 940.84 L78.5961 940.84 L78.5961 957.995 L73.3762 957.995 Z" fill="#000000" fill-rule="nonzero" fill-opacity="1" /><path clip-path="url(#clip480)" d="M88.4948 925.848 L107.401 925.848 L107.401 931.737 L58.194 931.737 L58.194 925.848 L63.6049 925.848 Q60.422 924.002 58.8942 921.201 Q57.3346 918.369 57.3346 914.454 Q57.3346 907.961 62.4909 903.918 Q67.6471 899.844 76.0498 899.844 Q84.4525 899.844 89.6088 903.918 Q94.765 907.961 94.765 914.454 Q94.765 918.369 93.2372 921.201 Q91.6776 924.002 88.4948 925.848 M76.0498 905.924 Q69.5886 905.924 65.9283 908.597 Q62.2362 911.239 62.2362 915.886 Q62.2362 920.533 65.9283 923.207 Q69.5886 925.848 76.0498 925.848 Q82.511 925.848 86.2031 923.207 Q89.8634 920.533 89.8634 915.886 Q89.8634 911.239 86.2031 908.597 Q82.511 905.924 76.0498 905.924 Z" fill="#000000" fill-rule="nonzero" fill-opacity="1" /><path clip-path="url(#clip480)" d="M62.2999 876.323 Q62.2999 881.034 65.992 883.771 Q69.6523 886.508 76.0498 886.508 Q82.4473 886.508 86.1395 883.803 Q89.7997 881.066 89.7997 876.323 Q89.7997 871.644 86.1076 868.907 Q82.4155 866.17 76.0498 866.17 Q69.7159 866.17 66.0238 868.907 Q62.2999 871.644 62.2999 876.323 M57.3346 876.323 Q57.3346 868.684 62.2999 864.324 Q67.2651 859.963 76.0498 859.963 Q84.8027 859.963 89.7997 864.324 Q94.765 868.684 94.765 876.323 Q94.765 883.994 89.7997 888.354 Q84.8027 892.683 76.0498 892.683 Q67.2651 892.683 62.2999 888.354 Q57.3346 883.994 57.3346 876.323 Z" fill="#000000" fill-rule="nonzero" fill-opacity="1" /><path clip-path="url(#clip480)" d="M59.2443 827.53 L64.7825 827.53 Q63.5094 830.013 62.8728 832.686 Q62.2362 835.36 62.2362 838.224 Q62.2362 842.585 63.573 844.781 Q64.9098 846.945 67.5834 846.945 Q69.6204 846.945 70.7981 845.386 Q71.9439 843.826 72.9943 839.116 L73.4399 837.11 Q74.7767 830.872 77.2275 828.262 Q79.6464 825.62 84.0069 825.62 Q88.9722 825.62 91.8686 829.567 Q94.765 833.482 94.765 840.357 Q94.765 843.221 94.1921 846.341 Q93.651 849.428 92.537 852.865 L86.4896 852.865 Q88.1765 849.619 89.0359 846.468 Q89.8634 843.317 89.8634 840.23 Q89.8634 836.092 88.4629 833.864 Q87.0307 831.636 84.4525 831.636 Q82.0654 831.636 80.7923 833.259 Q79.5191 834.851 78.3415 840.293 L77.864 842.33 Q76.7182 847.773 74.3629 850.192 Q71.9758 852.611 67.838 852.611 Q62.8091 852.611 60.0719 849.046 Q57.3346 845.481 57.3346 838.925 Q57.3346 835.678 57.8121 832.814 Q58.2895 829.949 59.2443 827.53 Z" fill="#000000" fill-rule="nonzero" fill-opacity="1" /><path clip-path="url(#clip480)" d="M58.194 816.295 L58.194 810.438 L93.842 810.438 L93.842 816.295 L58.194 816.295 M44.3168 816.295 L44.3168 810.438 L51.7328 810.438 L51.7328 816.295 L44.3168 816.295 Z" fill="#000000" fill-rule="nonzero" fill-opacity="1" /><path clip-path="url(#clip480)" d="M48.0725 792.391 L58.194 792.391 L58.194 780.328 L62.7455 780.328 L62.7455 792.391 L82.0972 792.391 Q86.4577 792.391 87.6991 791.214 Q88.9404 790.004 88.9404 786.344 L88.9404 780.328 L93.842 780.328 L93.842 786.344 Q93.842 793.123 91.3275 795.701 Q88.7812 798.28 82.0972 798.28 L62.7455 798.28 L62.7455 802.576 L58.194 802.576 L58.194 798.28 L48.0725 798.28 L48.0725 792.391 Z" fill="#000000" fill-rule="nonzero" fill-opacity="1" /><path clip-path="url(#clip480)" d="M58.194 772.626 L58.194 766.769 L93.842 766.769 L93.842 772.626 L58.194 772.626 M44.3168 772.626 L44.3168 766.769 L51.7328 766.769 L51.7328 772.626 L44.3168 772.626 Z" fill="#000000" fill-rule="nonzero" fill-opacity="1" /><path clip-path="url(#clip480)" d="M62.2999 740.702 Q62.2999 745.412 65.992 748.15 Q69.6523 750.887 76.0498 750.887 Q82.4473 750.887 86.1395 748.181 Q89.7997 745.444 89.7997 740.702 Q89.7997 736.023 86.1076 733.286 Q82.4155 730.548 76.0498 730.548 Q69.7159 730.548 66.0238 733.286 Q62.2999 736.023 62.2999 740.702 M57.3346 740.702 Q57.3346 733.063 62.2999 728.702 Q67.2651 724.342 76.0498 724.342 Q84.8027 724.342 89.7997 728.702 Q94.765 733.063 94.765 740.702 Q94.765 748.372 89.7997 752.733 Q84.8027 757.062 76.0498 757.062 Q67.2651 757.062 62.2999 752.733 Q57.3346 748.372 57.3346 740.702 Z" fill="#000000" fill-rule="nonzero" fill-opacity="1" /><path clip-path="url(#clip480)" d="M72.3259 685.002 L93.842 685.002 L93.842 690.858 L72.5168 690.858 Q67.4561 690.858 64.9417 692.832 Q62.4272 694.805 62.4272 698.752 Q62.4272 703.494 65.4509 706.231 Q68.4746 708.969 73.6945 708.969 L93.842 708.969 L93.842 714.857 L58.194 714.857 L58.194 708.969 L63.7322 708.969 Q60.5175 706.868 58.9261 704.035 Q57.3346 701.171 57.3346 697.447 Q57.3346 691.304 61.1541 688.153 Q64.9417 685.002 72.3259 685.002 Z" fill="#000000" fill-rule="nonzero" fill-opacity="1" /><path clip-path="url(#clip480)" d="M44.3804 638.532 Q51.701 642.797 58.8624 644.866 Q66.0238 646.935 73.3762 646.935 Q80.7286 646.935 87.9537 644.866 Q95.1469 642.765 102.436 638.532 L102.436 643.625 Q94.956 648.399 87.7309 650.786 Q80.5058 653.141 73.3762 653.141 Q66.2785 653.141 59.0852 650.786 Q51.892 648.431 44.3804 643.625 L44.3804 638.532 Z" fill="#000000" fill-rule="nonzero" fill-opacity="1" /><path clip-path="url(#clip480)" d="M65.0371 599.415 Q61.0904 597.219 59.2125 594.163 Q57.3346 591.108 57.3346 586.97 Q57.3346 581.4 61.2495 578.376 Q65.1326 575.353 72.3259 575.353 L93.842 575.353 L93.842 581.241 L72.5168 581.241 Q67.3924 581.241 64.9098 583.055 Q62.4272 584.869 62.4272 588.593 Q62.4272 593.145 65.4509 595.786 Q68.4746 598.428 73.6945 598.428 L93.842 598.428 L93.842 604.316 L72.5168 604.316 Q67.3606 604.316 64.9098 606.131 Q62.4272 607.945 62.4272 611.733 Q62.4272 616.22 65.4827 618.862 Q68.5064 621.504 73.6945 621.504 L93.842 621.504 L93.842 627.392 L58.194 627.392 L58.194 621.504 L63.7322 621.504 Q60.4538 619.499 58.8942 616.698 Q57.3346 613.897 57.3346 610.046 Q57.3346 606.163 59.308 603.457 Q61.2814 600.72 65.0371 599.415 Z" fill="#000000" fill-rule="nonzero" fill-opacity="1" /><path clip-path="url(#clip480)" d="M44.3804 564.594 L44.3804 559.502 Q51.892 554.728 59.0852 552.372 Q66.2785 549.985 73.3762 549.985 Q80.5058 549.985 87.7309 552.372 Q94.956 554.728 102.436 559.502 L102.436 564.594 Q95.1469 560.361 87.9537 558.292 Q80.7286 556.192 73.3762 556.192 Q66.0238 556.192 58.8624 558.292 Q51.701 560.361 44.3804 564.594 Z" fill="#000000" fill-rule="nonzero" fill-opacity="1" /><path clip-path="url(#clip480)" d="M701.832 18.8205 L701.832 41.5461 L712.121 41.5461 Q717.833 41.5461 720.952 38.5889 Q724.072 35.6318 724.072 30.163 Q724.072 24.7348 720.952 21.7777 Q717.833 18.8205 712.121 18.8205 L701.832 18.8205 M693.649 12.096 L712.121 12.096 Q722.289 12.096 727.474 16.714 Q732.7 21.2916 732.7 30.163 Q732.7 39.1155 727.474 43.6931 Q722.289 48.2706 712.121 48.2706 L701.832 48.2706 L701.832 72.576 L693.649 72.576 L693.649 12.096 Z" fill="#000000" fill-rule="nonzero" fill-opacity="1" /><path clip-path="url(#clip480)" d="M779.204 48.0275 L779.204 51.6733 L744.934 51.6733 Q745.42 59.3701 749.552 63.421 Q753.724 67.4314 761.137 67.4314 Q765.431 67.4314 769.442 66.3781 Q773.493 65.3249 777.463 63.2184 L777.463 70.267 Q773.452 71.9684 769.239 72.8596 Q765.026 73.7508 760.692 73.7508 Q749.835 73.7508 743.475 67.4314 Q737.156 61.1119 737.156 50.3365 Q737.156 39.1965 743.151 32.6746 Q749.187 26.1121 759.396 26.1121 Q768.551 26.1121 773.857 32.0264 Q779.204 37.9003 779.204 48.0275 M771.751 45.84 Q771.67 39.7232 768.307 36.0774 Q764.986 32.4315 759.477 32.4315 Q753.238 32.4315 749.471 35.9558 Q745.744 39.4801 745.177 45.8805 L771.751 45.84 Z" fill="#000000" fill-rule="nonzero" fill-opacity="1" /><path clip-path="url(#clip480)" d="M829.152 45.1919 L829.152 72.576 L821.698 72.576 L821.698 45.4349 Q821.698 38.994 819.187 35.7938 Q816.675 32.5936 811.652 32.5936 Q805.616 32.5936 802.133 36.4419 Q798.649 40.2903 798.649 46.9338 L798.649 72.576 L791.155 72.576 L791.155 27.2059 L798.649 27.2059 L798.649 34.2544 Q801.322 30.163 804.928 28.1376 Q808.573 26.1121 813.313 26.1121 Q821.131 26.1121 825.142 30.9732 Q829.152 35.7938 829.152 45.1919 Z" fill="#000000" fill-rule="nonzero" fill-opacity="1" /><path clip-path="url(#clip480)" d="M873.874 34.0924 L873.874 9.54393 L881.328 9.54393 L881.328 72.576 L873.874 72.576 L873.874 65.7705 Q871.525 69.8214 867.919 71.8063 Q864.354 73.7508 859.331 73.7508 Q851.108 73.7508 845.923 67.1883 Q840.778 60.6258 840.778 49.9314 Q840.778 39.2371 845.923 32.6746 Q851.108 26.1121 859.331 26.1121 Q864.354 26.1121 867.919 28.0971 Q871.525 30.0415 873.874 34.0924 M848.475 49.9314 Q848.475 58.1548 851.837 62.8538 Q855.24 67.5124 861.154 67.5124 Q867.069 67.5124 870.471 62.8538 Q873.874 58.1548 873.874 49.9314 Q873.874 41.7081 870.471 37.0496 Q867.069 32.3505 861.154 32.3505 Q855.24 32.3505 851.837 37.0496 Q848.475 41.7081 848.475 49.9314 Z" fill="#000000" fill-rule="nonzero" fill-opacity="1" /><path clip-path="url(#clip480)" d="M895.911 54.671 L895.911 27.2059 L903.365 27.2059 L903.365 54.3874 Q903.365 60.8284 905.876 64.0691 Q908.388 67.2693 913.411 67.2693 Q919.447 67.2693 922.931 63.421 Q926.455 59.5726 926.455 52.9291 L926.455 27.2059 L933.908 27.2059 L933.908 72.576 L926.455 72.576 L926.455 65.6084 Q923.741 69.7404 920.135 71.7658 Q916.571 73.7508 911.831 73.7508 Q904.013 73.7508 899.962 68.8897 Q895.911 64.0286 895.911 54.671 M914.667 26.1121 L914.667 26.1121 Z" fill="#000000" fill-rule="nonzero" fill-opacity="1" /><path clip-path="url(#clip480)" d="M949.261 9.54393 L956.715 9.54393 L956.715 72.576 L949.261 72.576 L949.261 9.54393 Z" fill="#000000" fill-rule="nonzero" fill-opacity="1" /><path clip-path="url(#clip480)" d="M971.541 54.671 L971.541 27.2059 L978.995 27.2059 L978.995 54.3874 Q978.995 60.8284 981.507 64.0691 Q984.018 67.2693 989.041 67.2693 Q995.077 67.2693 998.561 63.421 Q1002.09 59.5726 1002.09 52.9291 L1002.09 27.2059 L1009.54 27.2059 L1009.54 72.576 L1002.09 72.576 L1002.09 65.6084 Q999.371 69.7404 995.766 71.7658 Q992.201 73.7508 987.461 73.7508 Q979.643 73.7508 975.592 68.8897 Q971.541 64.0286 971.541 54.671 M990.297 26.1121 L990.297 26.1121 Z" fill="#000000" fill-rule="nonzero" fill-opacity="1" /><path clip-path="url(#clip480)" d="M1060.22 35.9153 Q1063.01 30.8922 1066.9 28.5022 Q1070.79 26.1121 1076.05 26.1121 Q1083.14 26.1121 1086.99 31.0947 Q1090.84 36.0368 1090.84 45.1919 L1090.84 72.576 L1083.35 72.576 L1083.35 45.4349 Q1083.35 38.913 1081.04 35.7533 Q1078.73 32.5936 1073.99 32.5936 Q1068.2 32.5936 1064.83 36.4419 Q1061.47 40.2903 1061.47 46.9338 L1061.47 72.576 L1053.98 72.576 L1053.98 45.4349 Q1053.98 38.8725 1051.67 35.7533 Q1049.36 32.5936 1044.54 32.5936 Q1038.83 32.5936 1035.46 36.4824 Q1032.1 40.3308 1032.1 46.9338 L1032.1 72.576 L1024.61 72.576 L1024.61 27.2059 L1032.1 27.2059 L1032.1 34.2544 Q1034.65 30.082 1038.22 28.0971 Q1041.78 26.1121 1046.69 26.1121 Q1051.63 26.1121 1055.07 28.6237 Q1058.55 31.1352 1060.22 35.9153 Z" fill="#000000" fill-rule="nonzero" fill-opacity="1" /><path clip-path="url(#clip480)" d="M1177.69 16.7545 L1177.69 25.383 Q1173.56 21.5346 1168.86 19.6307 Q1164.2 17.7268 1158.94 17.7268 Q1148.57 17.7268 1143.06 24.0867 Q1137.55 30.4061 1137.55 42.3968 Q1137.55 54.3469 1143.06 60.7069 Q1148.57 67.0263 1158.94 67.0263 Q1164.2 67.0263 1168.86 65.1223 Q1173.56 63.2184 1177.69 59.3701 L1177.69 67.9175 Q1173.4 70.8341 1168.58 72.2924 Q1163.8 73.7508 1158.45 73.7508 Q1144.72 73.7508 1136.82 65.3654 Q1128.92 56.9395 1128.92 42.3968 Q1128.92 27.8135 1136.82 19.4281 Q1144.72 11.0023 1158.45 11.0023 Q1163.88 11.0023 1168.66 12.4606 Q1173.48 13.8784 1177.69 16.7545 Z" fill="#000000" fill-rule="nonzero" fill-opacity="1" /><path clip-path="url(#clip480)" d="M1228.81 48.0275 L1228.81 51.6733 L1194.54 51.6733 Q1195.03 59.3701 1199.16 63.421 Q1203.33 67.4314 1210.75 67.4314 Q1215.04 67.4314 1219.05 66.3781 Q1223.1 65.3249 1227.07 63.2184 L1227.07 70.267 Q1223.06 71.9684 1218.85 72.8596 Q1214.64 73.7508 1210.3 73.7508 Q1199.45 73.7508 1193.09 67.4314 Q1186.77 61.1119 1186.77 50.3365 Q1186.77 39.1965 1192.76 32.6746 Q1198.8 26.1121 1209.01 26.1121 Q1218.16 26.1121 1223.47 32.0264 Q1228.81 37.9003 1228.81 48.0275 M1221.36 45.84 Q1221.28 39.7232 1217.92 36.0774 Q1214.6 32.4315 1209.09 32.4315 Q1202.85 32.4315 1199.08 35.9558 Q1195.35 39.4801 1194.79 45.8805 L1221.36 45.84 Z" fill="#000000" fill-rule="nonzero" fill-opacity="1" /><path clip-path="url(#clip480)" d="M1278.76 45.1919 L1278.76 72.576 L1271.31 72.576 L1271.31 45.4349 Q1271.31 38.994 1268.8 35.7938 Q1266.29 32.5936 1261.26 32.5936 Q1255.23 32.5936 1251.74 36.4419 Q1248.26 40.2903 1248.26 46.9338 L1248.26 72.576 L1240.76 72.576 L1240.76 27.2059 L1248.26 27.2059 L1248.26 34.2544 Q1250.93 30.163 1254.54 28.1376 Q1258.18 26.1121 1262.92 26.1121 Q1270.74 26.1121 1274.75 30.9732 Q1278.76 35.7938 1278.76 45.1919 Z" fill="#000000" fill-rule="nonzero" fill-opacity="1" /><path clip-path="url(#clip480)" d="M1301 14.324 L1301 27.2059 L1316.35 27.2059 L1316.35 32.9987 L1301 32.9987 L1301 57.6282 Q1301 63.1779 1302.5 64.7578 Q1304.04 66.3376 1308.7 66.3376 L1316.35 66.3376 L1316.35 72.576 L1308.7 72.576 Q1300.07 72.576 1296.79 69.3758 Q1293.51 66.1351 1293.51 57.6282 L1293.51 32.9987 L1288.04 32.9987 L1288.04 27.2059 L1293.51 27.2059 L1293.51 14.324 L1301 14.324 Z" fill="#000000" fill-rule="nonzero" fill-opacity="1" /><path clip-path="url(#clip480)" d="M1364.97 48.0275 L1364.97 51.6733 L1330.69 51.6733 Q1331.18 59.3701 1335.31 63.421 Q1339.48 67.4314 1346.9 67.4314 Q1351.19 67.4314 1355.2 66.3781 Q1359.25 65.3249 1363.22 63.2184 L1363.22 70.267 Q1359.21 71.9684 1355 72.8596 Q1350.79 73.7508 1346.45 73.7508 Q1335.6 73.7508 1329.24 67.4314 Q1322.92 61.1119 1322.92 50.3365 Q1322.92 39.1965 1328.91 32.6746 Q1334.95 26.1121 1345.16 26.1121 Q1354.31 26.1121 1359.62 32.0264 Q1364.97 37.9003 1364.97 48.0275 M1357.51 45.84 Q1357.43 39.7232 1354.07 36.0774 Q1350.75 32.4315 1345.24 32.4315 Q1339 32.4315 1335.23 35.9558 Q1331.5 39.4801 1330.94 45.8805 L1357.51 45.84 Z" fill="#000000" fill-rule="nonzero" fill-opacity="1" /><path clip-path="url(#clip480)" d="M1403.49 34.1734 Q1402.23 33.4443 1400.73 33.1202 Q1399.28 32.7556 1397.49 32.7556 Q1391.17 32.7556 1387.77 36.8875 Q1384.41 40.9789 1384.41 48.6757 L1384.41 72.576 L1376.92 72.576 L1376.92 27.2059 L1384.41 27.2059 L1384.41 34.2544 Q1386.76 30.1225 1390.53 28.1376 Q1394.29 26.1121 1399.68 26.1121 Q1400.45 26.1121 1401.38 26.2337 Q1402.31 26.3147 1403.45 26.5172 L1403.49 34.1734 Z" fill="#000000" fill-rule="nonzero" fill-opacity="1" /><path clip-path="url(#clip480)" d="M1455.26 32.4315 Q1449.26 32.4315 1445.78 37.1306 Q1442.3 41.7891 1442.3 49.9314 Q1442.3 58.0738 1445.74 62.7728 Q1449.22 67.4314 1455.26 67.4314 Q1461.21 67.4314 1464.7 62.7323 Q1468.18 58.0333 1468.18 49.9314 Q1468.18 41.8701 1464.7 37.1711 Q1461.21 32.4315 1455.26 32.4315 M1455.26 26.1121 Q1464.98 26.1121 1470.53 32.4315 Q1476.08 38.7509 1476.08 49.9314 Q1476.08 61.0714 1470.53 67.4314 Q1464.98 73.7508 1455.26 73.7508 Q1445.5 73.7508 1439.95 67.4314 Q1434.44 61.0714 1434.44 49.9314 Q1434.44 38.7509 1439.95 32.4315 Q1445.5 26.1121 1455.26 26.1121 Z" fill="#000000" fill-rule="nonzero" fill-opacity="1" /><path clip-path="url(#clip480)" d="M1511.41 9.54393 L1511.41 15.7418 L1504.28 15.7418 Q1500.27 15.7418 1498.69 17.3622 Q1497.15 18.9825 1497.15 23.1955 L1497.15 27.2059 L1509.42 27.2059 L1509.42 32.9987 L1497.15 32.9987 L1497.15 72.576 L1489.65 72.576 L1489.65 32.9987 L1482.52 32.9987 L1482.52 27.2059 L1489.65 27.2059 L1489.65 24.0462 Q1489.65 16.471 1493.18 13.0277 Q1496.7 9.54393 1504.36 9.54393 L1511.41 9.54393 Z" fill="#000000" fill-rule="nonzero" fill-opacity="1" /><path clip-path="url(#clip480)" d="M1544.34 12.096 L1556.53 12.096 L1571.97 53.2532 L1587.48 12.096 L1599.67 12.096 L1599.67 72.576 L1591.69 72.576 L1591.69 19.4686 L1576.1 60.9499 L1567.87 60.9499 L1552.28 19.4686 L1552.28 72.576 L1544.34 72.576 L1544.34 12.096 Z" fill="#000000" fill-rule="nonzero" fill-opacity="1" /><path clip-path="url(#clip480)" d="M1636.21 49.7694 Q1627.18 49.7694 1623.7 51.8354 Q1620.21 53.9013 1620.21 58.8839 Q1620.21 62.8538 1622.81 65.2034 Q1625.44 67.5124 1629.93 67.5124 Q1636.13 67.5124 1639.86 63.1374 Q1643.63 58.7219 1643.63 51.4303 L1643.63 49.7694 L1636.21 49.7694 M1651.08 46.6907 L1651.08 72.576 L1643.63 72.576 L1643.63 65.6895 Q1641.07 69.8214 1637.27 71.8063 Q1633.46 73.7508 1627.95 73.7508 Q1620.98 73.7508 1616.85 69.8619 Q1612.76 65.9325 1612.76 59.3701 Q1612.76 51.7138 1617.86 47.825 Q1623.01 43.9361 1633.18 43.9361 L1643.63 43.9361 L1643.63 43.2069 Q1643.63 38.0623 1640.22 35.2672 Q1636.86 32.4315 1630.75 32.4315 Q1626.86 32.4315 1623.17 33.3632 Q1619.48 34.295 1616.08 36.1584 L1616.08 29.2718 Q1620.17 27.692 1624.02 26.9223 Q1627.87 26.1121 1631.51 26.1121 Q1641.36 26.1121 1646.22 31.2163 Q1651.08 36.3204 1651.08 46.6907 Z" fill="#000000" fill-rule="nonzero" fill-opacity="1" /><path clip-path="url(#clip480)" d="M1695.36 28.5427 L1695.36 35.5912 Q1692.2 33.9709 1688.79 33.1607 Q1685.39 32.3505 1681.75 32.3505 Q1676.2 32.3505 1673.4 34.0519 Q1670.65 35.7533 1670.65 39.156 Q1670.65 41.7486 1672.63 43.2475 Q1674.62 44.7058 1680.61 46.0426 L1683.16 46.6097 Q1691.1 48.3111 1694.43 51.4303 Q1697.79 54.509 1697.79 60.0587 Q1697.79 66.3781 1692.76 70.0644 Q1687.78 73.7508 1679.03 73.7508 Q1675.39 73.7508 1671.42 73.0216 Q1667.49 72.3329 1663.11 70.9151 L1663.11 63.2184 Q1667.24 65.3654 1671.25 66.4591 Q1675.26 67.5124 1679.19 67.5124 Q1684.46 67.5124 1687.3 65.73 Q1690.13 63.9071 1690.13 60.6258 Q1690.13 57.5877 1688.07 55.9673 Q1686.04 54.3469 1679.11 52.8481 L1676.52 52.2405 Q1669.59 50.7821 1666.51 47.7845 Q1663.44 44.7463 1663.44 39.4801 Q1663.44 33.0797 1667.97 29.5959 Q1672.51 26.1121 1680.85 26.1121 Q1684.99 26.1121 1688.63 26.7198 Q1692.28 27.3274 1695.36 28.5427 Z" fill="#000000" fill-rule="nonzero" fill-opacity="1" /><path clip-path="url(#clip480)" d="M1738.58 28.5427 L1738.58 35.5912 Q1735.42 33.9709 1732.02 33.1607 Q1728.61 32.3505 1724.97 32.3505 Q1719.42 32.3505 1716.62 34.0519 Q1713.87 35.7533 1713.87 39.156 Q1713.87 41.7486 1715.85 43.2475 Q1717.84 44.7058 1723.83 46.0426 L1726.39 46.6097 Q1734.33 48.3111 1737.65 51.4303 Q1741.01 54.509 1741.01 60.0587 Q1741.01 66.3781 1735.99 70.0644 Q1731 73.7508 1722.25 73.7508 Q1718.61 73.7508 1714.64 73.0216 Q1710.71 72.3329 1706.33 70.9151 L1706.33 63.2184 Q1710.47 65.3654 1714.48 66.4591 Q1718.49 67.5124 1722.42 67.5124 Q1727.68 67.5124 1730.52 65.73 Q1733.35 63.9071 1733.35 60.6258 Q1733.35 57.5877 1731.29 55.9673 Q1729.26 54.3469 1722.34 52.8481 L1719.74 52.2405 Q1712.82 50.7821 1709.74 47.7845 Q1706.66 44.7463 1706.66 39.4801 Q1706.66 33.0797 1711.2 29.5959 Q1715.73 26.1121 1724.08 26.1121 Q1728.21 26.1121 1731.86 26.7198 Q1735.5 27.3274 1738.58 28.5427 Z" fill="#000000" fill-rule="nonzero" fill-opacity="1" /><path clip-path="url(#clip480)" d="M1787.76 18.8205 L1787.76 41.5461 L1798.05 41.5461 Q1803.76 41.5461 1806.88 38.5889 Q1810 35.6318 1810 30.163 Q1810 24.7348 1806.88 21.7777 Q1803.76 18.8205 1798.05 18.8205 L1787.76 18.8205 M1779.58 12.096 L1798.05 12.096 Q1808.22 12.096 1813.4 16.714 Q1818.63 21.2916 1818.63 30.163 Q1818.63 39.1155 1813.4 43.6931 Q1808.22 48.2706 1798.05 48.2706 L1787.76 48.2706 L1787.76 72.576 L1779.58 72.576 L1779.58 12.096 Z" fill="#000000" fill-rule="nonzero" fill-opacity="1" /><path clip-path="url(#clip480)" d="M1846.17 49.7694 Q1837.14 49.7694 1833.65 51.8354 Q1830.17 53.9013 1830.17 58.8839 Q1830.17 62.8538 1832.76 65.2034 Q1835.4 67.5124 1839.89 67.5124 Q1846.09 67.5124 1849.82 63.1374 Q1853.59 58.7219 1853.59 51.4303 L1853.59 49.7694 L1846.17 49.7694 M1861.04 46.6907 L1861.04 72.576 L1853.59 72.576 L1853.59 65.6895 Q1851.03 69.8214 1847.23 71.8063 Q1843.42 73.7508 1837.91 73.7508 Q1830.94 73.7508 1826.81 69.8619 Q1822.72 65.9325 1822.72 59.3701 Q1822.72 51.7138 1827.82 47.825 Q1832.97 43.9361 1843.13 43.9361 L1853.59 43.9361 L1853.59 43.2069 Q1853.59 38.0623 1850.18 35.2672 Q1846.82 32.4315 1840.7 32.4315 Q1836.81 32.4315 1833.13 33.3632 Q1829.44 34.295 1826.04 36.1584 L1826.04 29.2718 Q1830.13 27.692 1833.98 26.9223 Q1837.83 26.1121 1841.47 26.1121 Q1851.32 26.1121 1856.18 31.2163 Q1861.04 36.3204 1861.04 46.6907 Z" fill="#000000" fill-rule="nonzero" fill-opacity="1" /><path clip-path="url(#clip480)" d="M1883.76 14.324 L1883.76 27.2059 L1899.12 27.2059 L1899.12 32.9987 L1883.76 32.9987 L1883.76 57.6282 Q1883.76 63.1779 1885.26 64.7578 Q1886.8 66.3376 1891.46 66.3376 L1899.12 66.3376 L1899.12 72.576 L1891.46 72.576 Q1882.83 72.576 1879.55 69.3758 Q1876.27 66.1351 1876.27 57.6282 L1876.27 32.9987 L1870.8 32.9987 L1870.8 27.2059 L1876.27 27.2059 L1876.27 14.324 L1883.76 14.324 Z" fill="#000000" fill-rule="nonzero" fill-opacity="1" /><path clip-path="url(#clip480)" d="M1946.63 45.1919 L1946.63 72.576 L1939.18 72.576 L1939.18 45.4349 Q1939.18 38.994 1936.67 35.7938 Q1934.16 32.5936 1929.13 32.5936 Q1923.1 32.5936 1919.61 36.4419 Q1916.13 40.2903 1916.13 46.9338 L1916.13 72.576 L1908.64 72.576 L1908.64 9.54393 L1916.13 9.54393 L1916.13 34.2544 Q1918.8 30.163 1922.41 28.1376 Q1926.06 26.1121 1930.8 26.1121 Q1938.61 26.1121 1942.62 30.9732 Q1946.63 35.7938 1946.63 45.1919 Z" fill="#000000" fill-rule="nonzero" fill-opacity="1" /><polyline clip-path="url(#clip482)" style="stroke:#009af9; stroke-linecap:round; stroke-linejoin:round; stroke-width:8; stroke-opacity:1; fill:none" points="2294.31,609.329 2294.22,609.937 2293.96,611.754 2293.51,614.771 2292.86,618.972 2292,624.338 2290.93,630.848 2289.62,638.473 2288.06,647.181 2286.25,656.934 2284.16,667.689 2281.79,679.394 2279.1,691.993 2276.09,705.417 2272.74,719.59 2269.03,734.426 2264.93,749.825 2260.42,765.673 2255.49,781.843 2250.09,798.189 2244.22,814.547 2237.83,830.735 2230.91,846.551 2223.42,861.775 2215.34,876.172 2206.63,889.5 2197.28,901.519 2187.26,912.005 2176.55,920.774 2165.13,927.694 2152.99,932.71 2140.13,935.849 2126.54,937.226 2112.24,937.024 2097.24,935.481 2081.55,932.865 2065.19,929.447 2048.19,925.489 2030.58,921.229 2012.37,916.877 1993.59,912.612 1974.29,908.581 1954.48,904.903 1934.19,901.671 1913.46,898.953 1892.31,896.8 1870.78,895.241 1848.89,894.29 1826.68,893.948 1804.19,894.2 1781.43,895.021 1758.45,896.375 1735.27,898.215 1711.94,900.487 1688.47,903.126 1664.92,906.063 1641.29,909.222 1617.64,912.521 1593.99,915.878 1570.37,919.209 1546.81,922.434 1523.34,925.473 1499.99,928.259 1476.79,930.729 1453.76,932.837 1430.92,934.55 1408.3,935.848 1385.91,936.73 1363.77,937.211 1341.89,937.316 1320.28,937.086 1298.97,936.571 1277.94,935.825 1257.21,934.908 1236.78,933.881 1216.66,932.803 1196.84,931.729 1177.33,930.711 1158.12,929.792 1139.21,929.011 1120.59,928.396 1102.27,927.971 1084.23,927.748 1066.47,927.734 1048.98,927.925 1031.76,928.313 1014.79,928.881 998.065,929.605 981.577,930.456 965.316,931.399 949.271,932.396 933.433,933.405 917.792,934.382 902.338,935.283 887.061,936.066 871.953,936.688 857.004,937.114 842.208,937.312 827.557,937.256 813.045,936.929 798.668,936.32 784.421,935.427 770.301,934.257 756.307,932.822 742.439,931.142 728.695,929.245 715.079,927.159 701.591,924.918 688.236,922.56 675.018,920.121 661.941,917.638 649.011,915.148 636.234,912.686 623.616,910.287 611.165,907.98 598.888,905.794 586.794,903.755 574.889,901.883 563.184,900.199 551.687,898.717 540.406,897.45 529.351,896.408 518.531,895.597 507.955,895.019 497.634,894.675 487.576,894.563 477.791,894.678 468.289,895.013 459.079,895.557 450.171,896.299 441.574,897.227 433.297,898.323 425.348,899.573 417.738,900.958 410.474,902.459 403.564,904.057 397.017,905.732 390.84,907.465 385.04,909.235 379.623,911.023 374.596,912.812 369.964,914.583 365.731,916.32 361.903,918.009 358.482,919.637 355.472,921.192 352.874,922.666 350.69,924.052 348.921,925.344 347.567,926.539 346.626,927.635 346.097,928.632 345.978,929.533 346.265,930.341 346.955,931.058 348.043,931.69 349.525,932.242 351.394,932.72 353.644,933.129 356.269,933.475 359.262,933.763 362.614,933.999 366.318,934.187 370.366,934.332 374.748,934.436 379.457,934.504 384.484,934.537 389.819,934.538 395.452,934.51 401.376,934.453 407.581,934.369 414.057,934.26 420.796,934.127 427.789,933.971 435.027,933.794 442.501,933.598 450.204,933.385 458.126,933.158 466.26,932.918 474.599,932.67 483.135,932.416 491.861,932.16 500.77,931.905 509.855,931.657 519.112,931.418 528.533,931.193 538.114,930.986 547.849,930.801 557.733,930.641 567.761,930.51 577.93,930.411 588.235,930.346 598.672,930.318 609.238,930.327 619.929,930.375 630.743,930.462 641.676,930.588 652.725,930.753 663.888,930.953 675.163,931.188 686.546,931.455 698.037,931.751 709.631,932.072 721.328,932.414 733.125,932.772 745.02,933.143 757.011,933.521 769.095,933.902 781.271,934.28 793.535,934.652 805.886,935.012 818.321,935.356 830.837,935.681 843.432,935.983 856.101,936.259 868.843,936.506 881.654,936.721 894.529,936.905 907.466,937.055 920.46,937.172 933.506,937.255 946.601,937.305 959.74,937.323 972.918,937.311 986.13,937.271 999.369,937.204 1012.63,937.115 1025.91,937.004 1039.2,936.875 1052.5,936.731 1065.8,936.575 1079.09,936.41 1092.36,936.238 1105.62,936.063 1118.85,935.886 1132.05,935.71 1145.2,935.537 1158.31,935.37 1171.37,935.208 1184.37,935.055 1197.3,934.911 1210.16,934.777 1222.94,934.653 1235.63,934.54 1248.23,934.438 1260.74,934.347 1273.13,934.266 1285.42,934.196 1297.59,934.136 1309.64,934.085 1321.55,934.042 1333.34,934.006 1344.98,933.978 1356.48,933.955 1367.83,933.937 1379.03,933.923 1390.07,933.911 1400.94,933.902 1411.65,933.894 1422.19,933.887 1432.55,933.879 1442.74,933.869 1452.74,933.858 1462.56,933.844 1472.19,933.827 1481.64,933.806 1490.89,933.781 1499.94,933.751 1508.8,933.716 1517.46,933.676 1525.92,933.63 1534.17,933.579 1542.23,933.521 1550.07,933.457 1557.72,933.387 1565.15,933.311 1572.38,933.229 1579.4,933.141 1586.21,933.047 1592.8,932.948 1599.19,932.843 1605.37,932.734 1611.34,932.62 1617.09,932.502 1622.64,932.381 1627.97,932.257 1633.09,932.132 1638,932.004 1642.69,931.877 1647.18,931.749 1651.45,931.622 1655.51,931.498 1659.36,931.376 1663,931.257 1666.42,931.143 1669.64,931.034 1672.65,930.932 1675.44,930.836 1678.02,930.748 1680.4,930.669 1682.56,930.599 1684.52,930.539 1686.26,930.489 1687.8,930.45 1689.13,930.423 1690.25,930.407 1691.16,930.403 1691.86,930.411 1692.36,930.432 1692.65,930.464 1692.73,930.509 1692.61,930.566 1692.29,930.634 1691.76,930.714 1691.03,930.804 1690.09,930.905 1688.96,931.016 1687.62,931.136 1686.08,931.265 1684.35,931.401 1682.42,931.545 1680.29,931.695 1677.97,931.851 1675.45,932.012 1672.74,932.176 1669.85,932.345 1666.76,932.515 1663.49,932.688 1660.03,932.861 1656.39,933.035 1652.57,933.208 1648.57,933.381 1644.4,933.552 1640.05,933.721 1635.53,933.887 1630.84,934.05 1625.98,934.21 1620.96,934.366 1615.78,934.519 1610.45,934.666 1604.96,934.81 1599.31,934.948 1593.52,935.082 1587.59,935.211 1581.51,935.335 1575.29,935.454 1568.94,935.568 1562.46,935.678 1555.85,935.782 1549.12,935.882 1542.27,935.977 1535.3,936.068 1528.22,936.155 1521.02,936.237 1513.73,936.315 1506.33,936.39 1498.83,936.46 1491.25,936.527 1483.57,936.591 1475.8,936.651 1467.96,936.709 1460.03,936.763 1452.04,936.814 1443.97,936.863 1435.83,936.908 1427.64,936.952 1419.38,936.992 1411.07,937.031 1402.71,937.067 1394.31,937.1 1385.86,937.131 1377.37,937.16 1368.84,937.187 1360.28,937.212 1351.7,937.234 1343.09,937.253 1334.45,937.271 1325.8,937.286 1317.14,937.298 1308.47,937.308 1299.79,937.316 1291.1,937.321 1282.42,937.323 1273.73,937.323 1265.06,937.319 1256.39,937.313 1247.74,937.304 1239.1,937.292 1230.48,937.277 1221.89,937.26 1213.32,937.239 1204.78,937.215 1196.27,937.188 1187.79,937.158 1179.35,937.125 1170.96,937.089 1162.6,937.05 1154.3,937.009 1146.04,936.964 1137.84,936.917 1129.69,936.868 1121.59,936.816 1113.56,936.762 1105.6,936.705 1097.69,936.647 1089.86,936.587 1082.1,936.525 1074.41,936.462 1066.8,936.397 1059.27,936.332 1051.83,936.265 1044.46,936.198 1037.18,936.131 1030,936.063 1022.9,935.995 1015.9,935.928 1008.99,935.861 1002.18,935.794 995.477,935.728 988.873,935.663 982.375,935.599 975.985,935.537 969.704,935.476 963.535,935.416 957.479,935.358 951.538,935.302 945.715,935.248 940.011,935.195 934.428,935.145 928.967,935.097 923.63,935.051 918.42,935.008 913.336,934.967 908.382,934.928 903.558,934.891 898.865,934.857 894.305,934.825 889.879,934.796 885.588,934.769 881.433,934.744 877.416,934.722 873.537,934.701 869.797,934.684 866.197,934.668 862.738,934.654 859.42,934.643 856.244,934.634 853.21,934.627 850.319,934.622 847.572,934.618 844.968,934.617 842.509,934.617 840.193,934.62 838.022,934.624 835.995,934.63 834.113,934.637 832.375,934.646 830.781,934.657 829.331,934.669 828.025,934.683 826.862,934.699 825.842,934.715 824.966,934.734 824.231,934.754 823.638,934.775 823.186,934.797 822.874,934.821 822.703,934.846 822.67,934.873 822.775,934.901 823.018,934.93 823.397,934.96 823.912,934.992 824.561,935.025 825.343,935.059 826.258,935.094 827.304,935.13 828.48,935.168 829.784,935.206 831.216,935.246 832.775,935.287 834.458,935.328 836.265,935.371 838.194,935.414 840.244,935.458 842.412,935.504 844.699,935.549 847.101,935.596 849.618,935.643 852.247,935.691 854.988,935.739 857.839,935.788 860.797,935.837 863.861,935.887 867.029,935.936 870.3,935.986 873.672,936.036 877.142,936.086 880.709,936.135 884.371,936.185 888.126,936.234 891.972,936.284 895.907,936.332 899.929,936.38 904.036,936.428 908.225,936.475 912.496,936.521 916.845,936.567 921.271,936.611 925.771,936.655 930.344,936.697 934.987,936.739 939.697,936.779 944.473,936.819 949.312,936.857 954.213,936.893 959.172,936.929 964.189,936.963 969.259,936.995 974.381,937.026 979.553,937.056 984.772,937.084 990.037,937.111 995.344,937.136 1000.69,937.159 1006.08,937.181 1011.5,937.201 1016.95,937.22 1022.44,937.237 1027.95,937.253 1033.49,937.266 1039.05,937.279 1044.64,937.29 1050.24,937.299 1055.86,937.307 1061.49,937.313 1067.14,937.318 1072.8,937.321 1078.46,937.323 1084.13,937.323 1089.8,937.322 1095.47,937.32 1101.14,937.316 1106.8,937.311 1112.46,937.305 1118.11,937.298 1123.75,937.289 1129.37,937.28 1134.98,937.269 1140.57,937.257 1146.14,937.244 1151.69,937.231 1157.22,937.216 1162.72,937.2 1168.19,937.184 1173.63,937.166 1179.04,937.148 1184.41,937.129 1189.75,937.11 1195.05,937.089 1200.31,937.069 1205.52,937.047 1210.7,937.025 1215.82,937.003 1220.9,936.98 1225.93,936.957 1230.91,936.933 1235.84,936.909 1240.71,936.885 1245.52,936.86 1250.28,936.835 1254.98,936.811 1259.62,936.786 1264.19,936.761 1268.7,936.736 1273.15,936.711 1277.53,936.686 1281.84,936.661 1286.08,936.637 1290.25,936.612 1294.34,936.588 1298.37,936.564 1302.32,936.541 1306.19,936.517 1309.99,936.495 1313.71,936.472 1317.35,936.45 1320.91,936.429 1324.39,936.408 1327.79,936.388 1331.1,936.369 1334.33,936.35 1337.48,936.332 1340.54,936.315 1343.51,936.298 1346.4,936.282 1349.2,936.267 1351.91,936.253 1354.53,936.24 1357.07,936.227 1359.51,936.216 1361.86,936.205 1364.12,936.195 1366.3,936.187 1368.38,936.179 1370.36,936.172 1372.26,936.166 1374.06,936.162 1375.77,936.158 1377.39,936.155 1378.91,936.153 1380.34,936.152 1381.68,936.152 1382.92,936.153 1384.07,936.155 1385.13,936.158 1386.09,936.162 1386.96,936.167 1387.74,936.173 1388.42,936.18 1389.01,936.187 1389.51,936.196 1389.92,936.205 1390.24,936.215 1390.46,936.226 1390.59,936.238 1390.64,936.25 1390.59,936.263 1390.45,936.277 1390.22,936.292 1389.91,936.307 1389.51,936.323 1389.02,936.339 1388.44,936.356 1387.78,936.374 1387.03,936.392 1386.2,936.41 1385.28,936.429 1384.29,936.448 1383.21,936.468 1382.04,936.488 1380.8,936.508 1379.48,936.528 1378.08,936.549 1376.61,936.57 1375.05,936.591 1373.43,936.613 1371.72,936.634 1369.95,936.656 1368.1,936.677 1366.18,936.699 1364.19,936.72 1362.14,936.742 1360.01,936.763 1357.82,936.785 1355.57,936.806 1353.25,936.827 1350.87,936.848 1348.43,936.869 1345.93,936.89 1343.37,936.91 1340.75,936.93 1338.08,936.95 1335.35,936.969 1332.57,936.988 1329.74,937.007 1326.86,937.025 1323.93,937.043 1320.95,937.06 1317.93,937.077 1314.86,937.094 1311.75,937.11 1308.6,937.126 1305.41,937.141 1302.18,937.155 1298.91,937.169 1295.61,937.182 1292.27,937.195 1288.9,937.208 1285.5,937.219 1282.07,937.23 1278.62,937.241 1275.13,937.251 1271.63,937.26 1268.1,937.269 1264.54,937.277 1260.97,937.284 1257.38,937.291 1253.77,937.297 1250.15,937.302 1246.51,937.307 1242.86,937.311 1239.2,937.315 1235.53,937.318 1231.85,937.32 1228.17,937.322 1224.48,937.323 1220.79,937.323 1217.09,937.323 1213.4,937.322 1209.7,937.321 1206.01,937.319 1202.32,937.317 1198.64,937.314 1194.97,937.31 1191.3,937.306 1187.65,937.302 1184,937.297 1180.37,937.292 1176.75,937.286 1173.15,937.279 1169.56,937.273 1165.99,937.266 1162.44,937.258 1158.92,937.25 1155.41,937.242 1151.93,937.234 1148.47,937.225 1145.04,937.216 1141.63,937.207 1138.26,937.197 1134.91,937.187 1131.59,937.177 1128.31,937.167 1125.06,937.157 1121.84,937.147 1118.66,937.136 1115.51,937.126 1112.4,937.115 1109.33,937.104 1106.3,937.093 1103.31,937.083 1100.36,937.072 1097.46,937.061 1094.59,937.051 1091.77,937.04 1089,937.03 1086.27,937.019 1083.59,937.009 1080.96,936.999 1078.38,936.989 1075.84,936.979 1073.36,936.97 1070.92,936.961 1068.54,936.951 1066.21,936.943 1063.93,936.934 1061.71,936.926 1059.53,936.917 1057.42,936.91 1055.36,936.902 1053.35,936.895 1051.4,936.888 1049.51,936.882 1047.68,936.875 1045.9,936.87 1044.18,936.864 1042.52,936.859 1040.91,936.854 1039.37,936.85 1037.89,936.846 1036.46,936.842 1035.1,936.839 1033.79,936.836 1032.55,936.834 1031.36,936.832 1030.24,936.83 1029.17,936.829 1028.17,936.828 1027.23,936.828 1026.35,936.828 1025.53,936.828 1024.77,936.829 1024.07,936.83 1023.43,936.832 1022.86,936.834 1022.34,936.836 1021.89,936.839 1021.49,936.842 1021.16,936.845 1020.88,936.849 1020.67,936.853 1020.51,936.857 1020.42,936.862 1020.38,936.867 1020.4,936.872 1020.48,936.878 1020.62,936.884 1020.82,936.89 1021.07,936.897 1021.38,936.904 1021.75,936.911 1022.17,936.918 1022.65,936.925 1023.18,936.933 1023.77,936.941 1024.41,936.949 1025.11,936.957 1025.86,936.966 1026.66,936.974 1027.51,936.983 1028.42,936.992 1029.37,937 1030.37,937.009 1031.43,937.018 1032.53,937.028 1033.68,937.037 1034.87,937.046 1036.12,937.055 1037.4,937.064 1038.74,937.073 1040.11,937.083 1041.53,937.092 1043,937.101 1044.5,937.11 1046.05,937.119 1047.63,937.128 1049.25,937.137 1050.92,937.145 1052.62,937.154 1054.35,937.162 1056.12,937.171 1057.93,937.179 1059.77,937.187 1061.64,937.195 1063.55,937.203 1065.48,937.21 1067.45,937.217 1069.45,937.224 1071.47,937.231 1073.52,937.238 1075.6,937.245 1077.7,937.251 1079.82,937.257 1081.97,937.263 1084.14,937.268 1086.34,937.273 1088.55,937.278 1090.78,937.283 1093.03,937.288 1095.3,937.292 1097.59,937.296 1099.89,937.3 1102.2,937.303 1104.53,937.306 1106.87,937.309 1109.22,937.312 1111.58,937.314 1113.95,937.316 1116.33,937.318 1118.71,937.319 1121.11,937.321 1123.5,937.322 1125.9,937.322 1128.31,937.323 1130.72,937.323 1133.13,937.323 1135.54,937.323 1137.94,937.322 1140.35,937.322 1142.76,937.321 1145.16,937.319 1147.55,937.318 1149.94,937.316 1152.33,937.314 1154.71,937.312 1157.08,937.31 1159.44,937.308 1161.79,937.305 1164.13,937.302 1166.46,937.299 1168.77,937.296 1171.08,937.293 1173.36,937.289 1175.64,937.286 1177.89,937.282 1180.13,937.278 1182.36,937.274 1184.56,937.27 1186.75,937.266 1188.91,937.262 1191.06,937.258 1193.18,937.253 1195.28,937.249 1197.36,937.245 1199.42,937.24 1201.45,937.236 1203.45,937.231 1205.43,937.226 1207.39,937.222 1209.31,937.217 1211.21,937.213 1213.08,937.208 1214.93,937.204 1216.74,937.199 1218.52,937.195 1220.27,937.19 1222,937.186 1223.69,937.182 1225.34,937.178 1226.97,937.174 1228.56,937.17 1230.12,937.166 1231.65,937.162 1233.14,937.158 1234.59,937.155 1236.01,937.151 1237.4,937.148 1238.75,937.145 1240.06,937.142 1241.34,937.139 1242.58,937.136 1243.78,937.133 1244.95,937.131 1246.08,937.128 1247.16,937.126 1248.22,937.124 1249.23,937.122 1250.2,937.12 1251.14,937.119 1252.04,937.117 1252.89,937.116 1253.71,937.115 1254.49,937.114 1255.23,937.114 1255.93,937.113 1256.59,937.113 1257.21,937.112 1257.79,937.112 1258.33,937.113 1258.83,937.113 1259.3,937.113 1259.72,937.114 1260.1,937.115 1260.44,937.116 1260.75,937.117 1261.01,937.118 1261.24,937.12 1261.42,937.121 1261.57,937.123 1261.68,937.125 1261.75,937.127 1261.78,937.129 1261.77,937.131 1261.72,937.134 1261.64,937.136 1261.52,937.139 1261.36,937.142 1261.16,937.144 1260.93,937.147 1260.66,937.15 1260.35,937.154 1260.01,937.157 1259.63,937.16 1259.22,937.164 1258.77,937.167 1258.29,937.171 1257.77,937.174 1257.22,937.178 1256.64,937.182 1256.02,937.185 1255.37,937.189 1254.69,937.193 1253.98,937.197 1253.23,937.201 1252.46,937.205 1251.65,937.209 1250.82,937.212 1249.96,937.216 1249.06,937.22 1248.14,937.224 1247.19,937.228 1246.22,937.232 1245.21,937.236 1244.18,937.239 1243.13,937.243 1242.05,937.247 1240.95,937.251 1239.82,937.254 1238.67,937.258 1237.49,937.261 1236.3,937.265 1235.08,937.268 1233.84,937.271 1232.58,937.275 1231.3,937.278 1230,937.281 1228.69,937.284 1227.35,937.286 1226,937.289 1224.64,937.292 1223.25,937.294 1221.85,937.297 1220.44,937.299 1219.01,937.302 1217.57,937.304 1216.12,937.306 1214.65,937.308 1213.18,937.31 1211.69,937.311 1210.19,937.313 1208.68,937.314 1207.17,937.316 1205.64,937.317 1204.11,937.318 1202.57,937.319 1201.03,937.32 1199.48,937.321 1197.93,937.321 1196.37,937.322 1194.8,937.322 1193.24,937.323 1191.67,937.323 1190.1,937.323 1188.53,937.323 1186.96,937.323 1185.39,937.323 1183.82,937.323 1182.25,937.322 1180.69,937.322 1179.12,937.321 1177.56,937.32 1176.01,937.32 1174.46,937.319 1172.91,937.318 1171.37,937.317 1169.84,937.316 1168.31,937.314 1166.79,937.313 1165.28,937.312 1163.78,937.31 1162.28,937.309 1160.8,937.308 1159.33,937.306 1157.86,937.304 1156.41,937.303 1154.97,937.301 1153.55,937.299 1152.13,937.297 1150.73,937.296 1149.34,937.294 1147.97,937.292 1146.61,937.29 1145.27,937.288 1143.94,937.286 1142.63,937.284 1141.34,937.282 1140.06,937.28 1138.8,937.278 1137.56,937.277 1136.34,937.275 1135.14,937.273 1133.95,937.271 1132.78,937.269 1131.64,937.267 1130.51,937.265 1129.41,937.263 1128.32,937.262 1127.26,937.26 1126.22,937.258 1125.2,937.257 1124.2,937.255 1123.22,937.253 1122.27,937.252 1121.34,937.25 1120.43,937.249 1119.55,937.247 1118.69,937.246 1117.85,937.245 1117.04,937.244 1116.25,937.243 1115.49,937.241 1114.75,937.24 1114.03,937.24 1113.34,937.239 1112.68,937.238 1112.04,937.237 1111.42,937.236 1110.84,937.236 1110.27,937.235 1109.73,937.235 1109.22,937.234 1108.74,937.234 1108.28,937.234 1107.84,937.234 1107.43,937.234 1107.05,937.234 1106.69,937.234 1106.36,937.234 1106.05,937.234 1105.78,937.234 1105.52,937.235 1105.29,937.235 1105.09,937.235 1104.91,937.236 1104.76,937.236 1104.64,937.237 1104.54,937.238 1104.46,937.239 1104.42,937.24 1104.39,937.24 1104.39,937.241 1104.42,937.242 1104.47,937.243 1104.54,937.245 1104.64,937.246 1104.77,937.247 1104.92,937.248 1105.09,937.249 1105.28,937.251 1105.5,937.252 1105.74,937.254 1106.01,937.255 1106.3,937.257 1106.61,937.258 1106.94,937.26 1107.3,937.261 1107.67,937.263 1108.07,937.264 1108.49,937.266 1108.93,937.268 1109.39,937.269 1109.88,937.271 1110.38,937.272 1110.9,937.274 1111.44,937.276 1112,937.277 1112.58,937.279 1113.18,937.281 1113.79,937.282 1114.43,937.284 1115.08,937.286 1115.75,937.287 1116.43,937.289 1117.13,937.29 1117.85,937.292 1118.58,937.294 1119.33,937.295 1120.09,937.297 1120.87,937.298 1121.66,937.299 1122.47,937.301 1123.29,937.302 1124.12,937.304 1124.96,937.305 1125.82,937.306 1126.68,937.307 1127.56,937.309 1128.45,937.31 1129.35,937.311 1130.26,937.312 1131.18,937.313 1132.11,937.314 1133.05,937.315 1134,937.316 1134.95,937.316 1135.91,937.317 1136.88,937.318 1137.86,937.319 1138.84,937.319 1139.83,937.32 1140.82,937.32 1141.82,937.321 1142.82,937.321 1143.83,937.322 1144.84,937.322 1145.85,937.322 1146.86,937.323 1147.88,937.323 1148.9,937.323 1149.93,937.323 1150.95,937.323 1151.97,937.323 1153,937.323 1154.02,937.323 1155.04,937.323 1156.07,937.323 1157.09,937.323 1158.11,937.322 1159.12,937.322 1160.14,937.322 1161.15,937.321 1162.16,937.321 1163.16,937.32 1164.16,937.32 1165.16,937.32 1166.15,937.319 1167.14,937.318 1168.12,937.318 1169.09,937.317 1170.06,937.317 1171.02,937.316 1171.98,937.315 1172.93,937.315 1173.87,937.314 1174.8,937.313 1175.72,937.312 1176.64,937.312 1177.54,937.311 1178.44,937.31 1179.33,937.309 1180.2,937.308 1181.07,937.308 1181.93,937.307 1182.77,937.306 1183.61,937.305 1184.43,937.304 1185.24,937.303 1186.04,937.303 1186.83,937.302 1187.6,937.301 1188.36,937.3 1189.11,937.299 1189.85,937.299 1190.57,937.298 1191.28,937.297 1191.98,937.296 1192.66,937.296 1193.33,937.295 1193.98,937.294 1194.62,937.294 1195.24,937.293 1195.85,937.292 1196.45,937.292 1197.02,937.291 1197.59,937.291 1198.14,937.29 1198.67,937.289 1199.18,937.289 1199.69,937.288 1200.17,937.288 1200.64,937.288 1201.09,937.287 1201.53,937.287 1201.95,937.287 1202.35,937.286 1202.74,937.286 1203.11,937.286 1203.46,937.286 1203.8,937.285 1204.12,937.285 1204.42,937.285 1204.71,937.285 1204.98,937.285 1205.23,937.285 1205.46,937.285 1205.68,937.285 1205.89,937.285 1206.07,937.285 1206.24,937.285 1206.39,937.286 1206.53,937.286 1206.64,937.286 1206.74,937.286 1206.83,937.287 1206.9,937.287 1206.95,937.287 1206.98,937.288 1207,937.288 1207,937.288 1206.99,937.289 1206.96,937.289 1206.91,937.29 1206.85,937.29 1206.77,937.291 1206.68,937.291 1206.57,937.292 1206.44,937.292 1206.3,937.293 1206.15,937.293 1205.98,937.294 1205.79,937.295 1205.59,937.295 1205.38,937.296 1205.15,937.297 1204.91,937.297 1204.65,937.298 1204.38,937.299 1204.09,937.299 1203.79,937.3 1203.48,937.301 1203.16,937.301 1202.82,937.302 1202.47,937.303 1202.1,937.304 1201.73,937.304 1201.34,937.305 1200.94,937.306 1200.53,937.306 1200.11,937.307 1199.67,937.308 1199.23,937.308 1198.77,937.309 1198.31,937.31 1197.83,937.31 1197.35,937.311 1196.85,937.312 1196.34,937.312 1195.83,937.313 1195.31,937.314 1194.77,937.314 1194.23,937.315 1193.68,937.315 1193.13,937.316 1192.56,937.316 1191.99,937.317 1191.41,937.317 1190.83,937.318 1190.23,937.318 1189.64,937.319 1189.03,937.319 1188.42,937.319 1187.8,937.32 1187.18,937.32 1186.56,937.321 1185.93,937.321 1185.29,937.321 1184.65,937.321 1184.01,937.322 1183.36,937.322 1182.71,937.322 1182.06,937.322 1181.4,937.323 1180.74,937.323 1180.08,937.323 1179.42,937.323 1178.76,937.323 1178.09,937.323 1177.43,937.323 1176.76,937.323 1176.09,937.323 1175.43,937.323 1174.76,937.323 1174.09,937.323 1173.42,937.323 1172.76,937.323 1172.09,937.323 1171.43,937.323 1170.77,937.323 1170.11,937.322 1169.45,937.322 1168.79,937.322 1168.14,937.322 1167.49,937.322 1166.84,937.321 1166.2,937.321 1165.56,937.321 1164.92,937.321 1164.29,937.32 1163.66,937.32 1163.04,937.32 1162.42,937.32 1161.81,937.319 1161.2,937.319 1160.6,937.319 1160,937.318 1159.41,937.318 1158.82,937.318 1158.24,937.317 1157.67,937.317 1157.1,937.317 1156.54,937.316 1155.99,937.316 1155.45,937.316 1154.91,937.315 1154.38,937.315 1153.86,937.314 1153.34,937.314 1152.84,937.314 1152.34,937.313 1151.85,937.313 1151.37,937.313 1150.89,937.312 1150.43,937.312 1149.97,937.312 1149.53,937.311 1149.09,937.311 1148.66,937.311 1148.24,937.311 1147.84,937.31 1147.44,937.31 1147.05,937.31 1146.67,937.31 1146.3,937.309 1145.94,937.309 1145.59,937.309 1145.25,937.309 1144.93,937.308 1144.61,937.308 1144.3,937.308 1144,937.308 1143.72,937.308 1143.44,937.308 1143.18,937.307 1142.92,937.307 1142.68,937.307 1142.45,937.307 1142.23,937.307 1142.02,937.307 1141.82,937.307 1141.63,937.307 1141.45,937.307 1141.28,937.307 1141.13,937.307 1140.98,937.307 1140.85,937.307 1140.73,937.307 1140.62,937.307 1140.52,937.307 1140.43,937.307 1140.35,937.307 1140.28,937.307 1140.22,937.308 1140.18,937.308 1140.14,937.308 1140.12,937.308 1140.1,937.308 1140.1,937.308 1140.11,937.308 1140.13,937.309 1140.15,937.309 1140.19,937.309 1140.24,937.309 1140.3,937.31 1140.37,937.31 1140.45,937.31 1140.54,937.31 1140.64,937.31 1140.75,937.311 1140.87,937.311 1141,937.311 1141.14,937.312 1141.28,937.312 1141.44,937.312 1141.61,937.312 1141.78,937.313 1141.97,937.313 1142.16,937.313 1142.36,937.314 1142.57,937.314 1142.79,937.314 1143.02,937.314 1143.25,937.315 1143.5,937.315 1143.75,937.315 1144.01,937.316 1144.28,937.316 1144.55,937.316 1144.83,937.317 1145.12,937.317 1145.42,937.317 1145.72,937.317 1146.03,937.318 1146.34,937.318 1146.67,937.318 1146.99,937.319 1147.33,937.319 1147.67,937.319 1148.01,937.319 1148.37,937.32 1148.72,937.32 1149.09,937.32 1149.45,937.32 1149.82,937.32 1150.2,937.321 1150.58,937.321 1150.97,937.321 1151.36,937.321 1151.75,937.321 1152.15,937.322 1152.55,937.322 1152.95,937.322 1153.36,937.322 1153.77,937.322 1154.19,937.322 1154.6,937.322 1155.02,937.323 1155.44,937.323 1155.87,937.323 1156.29,937.323 1156.72,937.323 1157.15,937.323 1157.58,937.323 1158.01,937.323 1158.44,937.323 1158.88,937.323 1159.31,937.323 1159.75,937.323 1160.18,937.323 1160.62,937.323 1161.05,937.323 1161.49,937.323 1161.92,937.323 1162.36,937.323 1162.79,937.323 1163.22,937.323 1163.65,937.323 1164.08,937.323 1164.51,937.323 1164.94,937.323 1165.37,937.323 1165.79,937.323 1166.21,937.322 1166.63,937.322 1167.05,937.322 1167.47,937.322 1167.88,937.322 1168.29,937.322 1168.7,937.322 1169.1,937.322 1169.5,937.321 1169.9,937.321 1170.29,937.321 1170.68,937.321 1171.07,937.321 1171.45,937.321 1171.83,937.321 1172.2,937.321 1172.57,937.32 1172.94,937.32 1173.3,937.32 1173.66,937.32 1174.01,937.32 1174.35,937.32 1174.69,937.319 1175.03,937.319 1175.36,937.319 1175.69,937.319 1176.01,937.319 1176.32,937.319 1176.63,937.319 1176.94,937.318 1177.23,937.318 1177.53,937.318 1177.81,937.318 1178.09,937.318 1178.36,937.318 1178.63,937.318 1178.89,937.318 1179.15,937.317 1179.4,937.317 1179.64,937.317 1179.87,937.317 1180.1,937.317 1180.32,937.317 1180.54,937.317 1180.75,937.317 1180.95,937.317 1181.14,937.317 1181.33,937.317 1181.51,937.317 1181.69,937.316 1181.85,937.316 1182.01,937.316 1182.16,937.316 1182.31,937.316 1182.45,937.316 1182.58,937.316 1182.7,937.316 1182.82,937.316 1182.93,937.316 1183.03,937.316 1183.13,937.316 1183.22,937.316 1183.3,937.316 1183.37,937.316 1183.44,937.316 1183.5,937.316 1183.55,937.316 1183.6,937.316 1183.64,937.317 1183.67,937.317 1183.69,937.317 1183.71,937.317 1183.72,937.317 1183.72,937.317 1183.72,937.317 1183.71,937.317 1183.69,937.317 1183.67,937.317 1183.63,937.317 1183.6,937.317 1183.55,937.317 1183.5,937.318 1183.44,937.318 1183.38,937.318 1183.31,937.318 1183.23,937.318 1183.15,937.318 1183.06,937.318 1182.97,937.318 1182.86,937.318 1182.76,937.319 1182.64,937.319 1182.52,937.319 1182.4,937.319 1182.27,937.319 1182.13,937.319 1181.99,937.319 1181.84,937.319 1181.69,937.32 1181.53,937.32 1181.37,937.32 1181.2,937.32 1181.03,937.32 1180.85,937.32 1180.67,937.32 1180.48,937.32 1180.29,937.321 1180.09,937.321 1179.89,937.321 1179.69,937.321 1179.48,937.321 1179.26,937.321 1179.05,937.321 1178.82,937.321 1178.6,937.321 1178.37,937.322 1178.14,937.322 1177.9,937.322 1177.66,937.322 1177.42,937.322 1177.18,937.322 1176.93,937.322 1176.68,937.322 1176.42,937.322 1176.17,937.322 1175.91,937.322 1175.65,937.323 1175.38,937.323 1175.12,937.323 1174.85,937.323 1174.58,937.323 1174.31,937.323 1174.04,937.323 1173.76,937.323 1173.49,937.323 1173.21,937.323 1172.93,937.323 1172.65,937.323 1172.37,937.323 1172.09,937.323 1171.81,937.323 1171.53,937.323 1171.24,937.323 1170.96,937.323 1170.68,937.323 1170.39,937.323 1170.11,937.323 1169.83,937.323 1169.54,937.323 1169.26,937.323 1168.98,937.323 1168.69,937.323 1168.41,937.323 1168.13,937.323 1167.85,937.323 1167.57,937.323 1167.29,937.323 1167.02,937.323 1166.74,937.323 1166.47,937.323 1166.19,937.323 1165.92,937.323 1165.65,937.323 1165.39,937.323 1165.12,937.323 1164.86,937.323 1164.6,937.322 1164.34,937.322 1164.08,937.322 1163.82,937.322 1163.57,937.322 1163.32,937.322 1163.08,937.322 1162.83,937.322 1162.59,937.322 1162.35,937.322 1162.12,937.322 1161.88,937.322 1161.65,937.322 1161.43,937.322 1161.2,937.322 1160.98,937.322 1160.77,937.321 1160.55,937.321 1160.34,937.321 1160.14,937.321 1159.94,937.321 1159.74,937.321 1159.54,937.321 1159.35,937.321 1159.16,937.321 1158.98,937.321 1158.8,937.321 1158.63,937.321 1158.46,937.321 1158.29,937.321 1158.13,937.321 1157.97,937.321 1157.81,937.321 1157.66,937.321 1157.52,937.321 1157.38,937.32 1157.24,937.32 1157.11,937.32 1156.98,937.32 1156.86,937.32 1156.74,937.32 1156.63,937.32 1156.52,937.32 1156.41,937.32 1156.31,937.32 1156.22,937.32 1156.12,937.32 1156.04,937.32 1155.96,937.32 1155.88,937.32 1155.81,937.32 1155.74,937.32 1155.68,937.32 1155.62,937.32 1155.56,937.32 1155.52,937.32 1155.47,937.32 1155.43,937.32 1155.4,937.32 1155.37,937.32 1155.34,937.32 1155.32,937.32 1155.3,937.32 1155.29,937.32 1155.28,937.32 1155.28,937.32 1155.28,937.32 1155.29,937.321 1155.3,937.321 1155.31,937.321 1155.33,937.321 1155.36,937.321 1155.39,937.321 1155.42,937.321 1155.45,937.321 1155.5,937.321 1155.54,937.321 1155.59,937.321 1155.64,937.321 1155.7,937.321 1155.76,937.321 1155.83,937.321 1155.9,937.321 1155.97,937.321 1156.05,937.321 1156.13,937.321 1156.21,937.321 1156.3,937.321 1156.39,937.321 1156.49,937.322 1156.59,937.322 1156.69,937.322 1156.8,937.322 1156.9,937.322 1157.02,937.322 1157.13,937.322 1157.25,937.322 1157.37,937.322 1157.5,937.322 1157.62,937.322 1157.76,937.322 1157.89,937.322 1158.02,937.322 1158.16,937.322 1158.3,937.322 1158.45,937.322 1158.59,937.322 1158.74,937.322 1158.89,937.323 1159.05,937.323 1159.2,937.323 1159.36,937.323 1159.52,937.323 1159.68,937.323 1159.84,937.323 1160.01,937.323 1160.18,937.323 1160.35,937.323 1160.52,937.323 1160.69,937.323 1160.86,937.323 1161.03,937.323 1161.21,937.323 1161.39,937.323 1161.56,937.323 1161.74,937.323 1161.92,937.323 1162.1,937.323 1162.28,937.323 1162.47,937.323 1162.65,937.323 1162.83,937.323 1163.02,937.323 1163.2,937.323 1163.38,937.323 1163.57,937.323 1163.75,937.323 1163.94,937.323 1164.12,937.323 1164.31,937.323 1164.49,937.323 1164.68,937.323 1164.86,937.323 1165.05,937.323 1165.23,937.323 1165.41,937.323 1165.6,937.323 1165.78,937.323 1165.96,937.323 1166.14,937.323 1166.32,937.323 1166.5,937.323 1166.68,937.323 1166.85,937.323 1167.03,937.323 1167.2,937.323 1167.38,937.323 1167.55,937.323 1167.72,937.323 1167.89,937.323 1168.06,937.323 1168.22,937.323 1168.39,937.323 1168.55,937.323 1168.71,937.323 1168.87,937.323 1169.03,937.323 1169.19,937.323 1169.34,937.323 1169.49,937.323 1169.64,937.323 1169.79,937.323 1169.94,937.322 1170.08,937.322 1170.22,937.322 1170.36,937.322 1170.5,937.322 1170.63,937.322 1170.77,937.322 1170.9,937.322 1171.02,937.322 1171.15,937.322 1171.27,937.322 1171.39,937.322 1171.51,937.322 1171.62,937.322 1171.73,937.322 1171.84,937.322 1171.95,937.322 1172.05,937.322 1172.15,937.322 1172.25,937.322 1172.35,937.322 1172.44,937.322 1172.53,937.322 1172.62,937.322 1172.7,937.322 1172.78,937.322 1172.86,937.322 1172.93,937.322 1173.01,937.322 1173.07,937.322 1173.14,937.322 1173.2,937.322 1173.26,937.322 1173.32,937.322 1173.37,937.322 1173.42,937.322 1173.47,937.322 1173.52,937.322 1173.56,937.322 1173.6,937.322 1173.63,937.322 1173.66,937.322 1173.69,937.322 1173.72,937.322 1173.74,937.322 1173.76,937.322 1173.78,937.322 1173.8,937.322 1173.81,937.322 1173.82,937.322 1173.82,937.322 1173.82,937.322 1173.82,937.322 1173.82,937.322 1173.81,937.322 1173.8,937.322 1173.79,937.322 1173.78,937.322 1173.76,937.322 1173.74,937.322 1173.71,937.322 1173.69,937.322 1173.66,937.322 1173.63,937.322 1173.59,937.322 1173.56,937.322 1173.52,937.322 1173.47,937.322 1173.43,937.322 1173.38,937.322 1173.33,937.322 1173.28,937.322 1173.23,937.322 1173.17,937.322 1173.11,937.322 1173.05,937.322 1172.98,937.322 1172.92,937.323 1172.85,937.323 1172.78,937.323 1172.7,937.323 1172.63,937.323 1172.55,937.323 1172.47,937.323 1172.39,937.323 1172.31,937.323 1172.22,937.323 1172.14,937.323 1172.05,937.323 1171.96,937.323 1171.87,937.323 1171.77,937.323 1171.68,937.323 1171.58,937.323 1171.48,937.323 1171.38,937.323 1171.28,937.323 1171.18,937.323 1171.08,937.323 1170.97,937.323 1170.87,937.323 1170.76,937.323 1170.65,937.323 1170.54,937.323 1170.43,937.323 1170.32,937.323 1170.2,937.323 1170.09,937.323 1169.98,937.323 1169.86,937.323 1169.75,937.323 1169.63,937.323 1169.51,937.323 1169.4,937.323 1169.28,937.323 1169.16,937.323 1169.04,937.323 1168.92,937.323 1168.8,937.323 1168.68,937.323 1168.56,937.323 1168.44,937.323 1168.32,937.323 1168.2,937.323 1168.08,937.323 1167.96,937.323 1167.84,937.323 1167.72,937.323 1167.6,937.323 1167.48,937.323 1167.36,937.323 1167.24,937.323 1167.12,937.323 1167,937.323 1166.88,937.323 1166.76,937.323 1166.65,937.323 1166.53,937.323 1166.41,937.323 1166.3,937.323 1166.18,937.323 1166.07,937.323 1165.95,937.323 1165.84,937.323 1165.73,937.323 1165.62,937.323 1165.51,937.323 1165.4,937.323 1165.29,937.323 1165.19,937.323 1165.08,937.323 1164.98,937.323 1164.88,937.323 1164.77,937.323 1164.67,937.323 1164.57,937.323 1164.48,937.323 1164.38,937.323 1164.28,937.323 1164.19,937.323 1164.1,937.323 "/>
<path clip-path="url(#clip480)" d="M1849.92 270.476 L2283.91 270.476 L2283.91 166.796 L1849.92 166.796  Z" fill="#ffffff" fill-rule="evenodd" fill-opacity="1"/>
<polyline clip-path="url(#clip480)" style="stroke:#000000; stroke-linecap:round; stroke-linejoin:round; stroke-width:4; stroke-opacity:1; fill:none" points="1849.92,270.476 2283.91,270.476 2283.91,166.796 1849.92,166.796 1849.92,270.476 "/>
<polyline clip-path="url(#clip480)" style="stroke:#009af9; stroke-linecap:round; stroke-linejoin:round; stroke-width:8; stroke-opacity:1; fill:none" points="1872.86,218.636 2010.55,218.636 "/>
<path clip-path="url(#clip480)" d="M2061.36 204.018 L2061.36 208.948 Q2059 206.749 2056.32 205.661 Q2053.65 204.573 2050.65 204.573 Q2044.72 204.573 2041.57 208.208 Q2038.42 211.819 2038.42 218.67 Q2038.42 225.499 2041.57 229.133 Q2044.72 232.744 2050.65 232.744 Q2053.65 232.744 2056.32 231.656 Q2059 230.569 2061.36 228.369 L2061.36 233.254 Q2058.91 234.92 2056.15 235.754 Q2053.42 236.587 2050.37 236.587 Q2042.52 236.587 2038.01 231.795 Q2033.49 226.981 2033.49 218.67 Q2033.49 210.337 2038.01 205.546 Q2042.52 200.731 2050.37 200.731 Q2053.47 200.731 2056.2 201.564 Q2058.96 202.374 2061.36 204.018 Z" fill="#000000" fill-rule="nonzero" fill-opacity="1" /><path clip-path="url(#clip480)" d="M2082.61 204.527 Q2077.52 204.527 2074.51 208.323 Q2071.52 212.12 2071.52 218.67 Q2071.52 225.198 2074.51 228.994 Q2077.52 232.791 2082.61 232.791 Q2087.71 232.791 2090.67 228.994 Q2093.65 225.198 2093.65 218.67 Q2093.65 212.12 2090.67 208.323 Q2087.71 204.527 2082.61 204.527 M2082.61 200.731 Q2089.88 200.731 2094.23 205.615 Q2098.58 210.476 2098.58 218.67 Q2098.58 226.842 2094.23 231.726 Q2089.88 236.587 2082.61 236.587 Q2075.32 236.587 2070.95 231.726 Q2066.59 226.865 2066.59 218.67 Q2066.59 210.476 2070.95 205.615 Q2075.32 200.731 2082.61 200.731 Z" fill="#000000" fill-rule="nonzero" fill-opacity="1" /><path clip-path="url(#clip480)" d="M2105.9 201.356 L2112.87 201.356 L2121.69 224.874 L2130.55 201.356 L2137.52 201.356 L2137.52 235.916 L2132.96 235.916 L2132.96 205.569 L2124.05 229.272 L2119.35 229.272 L2110.44 205.569 L2110.44 235.916 L2105.9 235.916 L2105.9 201.356 Z" fill="#000000" fill-rule="nonzero" fill-opacity="1" /><path clip-path="url(#clip480)" d="M2165.81 232.027 L2165.81 245.777 L2161.52 245.777 L2161.52 209.99 L2165.81 209.99 L2165.81 213.925 Q2167.15 211.61 2169.19 210.499 Q2171.25 209.365 2174.09 209.365 Q2178.82 209.365 2181.76 213.115 Q2184.72 216.865 2184.72 222.976 Q2184.72 229.087 2181.76 232.837 Q2178.82 236.587 2174.09 236.587 Q2171.25 236.587 2169.19 235.476 Q2167.15 234.342 2165.81 232.027 M2180.3 222.976 Q2180.3 218.277 2178.35 215.615 Q2176.43 212.93 2173.05 212.93 Q2169.67 212.93 2167.73 215.615 Q2165.81 218.277 2165.81 222.976 Q2165.81 227.675 2167.73 230.36 Q2169.67 233.022 2173.05 233.022 Q2176.43 233.022 2178.35 230.36 Q2180.3 227.675 2180.3 222.976 Z" fill="#000000" fill-rule="nonzero" fill-opacity="1" /><path clip-path="url(#clip480)" d="M2203.56 222.883 Q2198.4 222.883 2196.41 224.064 Q2194.42 225.244 2194.42 228.092 Q2194.42 230.36 2195.9 231.703 Q2197.4 233.022 2199.97 233.022 Q2203.51 233.022 2205.64 230.522 Q2207.8 227.999 2207.8 223.832 L2207.8 222.883 L2203.56 222.883 M2212.06 221.124 L2212.06 235.916 L2207.8 235.916 L2207.8 231.981 Q2206.34 234.342 2204.16 235.476 Q2201.99 236.587 2198.84 236.587 Q2194.86 236.587 2192.5 234.365 Q2190.16 232.119 2190.16 228.369 Q2190.16 223.994 2193.07 221.772 Q2196.01 219.55 2201.82 219.55 L2207.8 219.55 L2207.8 219.133 Q2207.8 216.194 2205.85 214.596 Q2203.93 212.976 2200.44 212.976 Q2198.21 212.976 2196.11 213.508 Q2194 214.041 2192.06 215.106 L2192.06 211.17 Q2194.39 210.268 2196.59 209.828 Q2198.79 209.365 2200.88 209.365 Q2206.5 209.365 2209.28 212.282 Q2212.06 215.198 2212.06 221.124 Z" fill="#000000" fill-rule="nonzero" fill-opacity="1" /><path clip-path="url(#clip480)" d="M2225.04 202.629 L2225.04 209.99 L2233.82 209.99 L2233.82 213.3 L2225.04 213.3 L2225.04 227.374 Q2225.04 230.545 2225.9 231.448 Q2226.78 232.351 2229.44 232.351 L2233.82 232.351 L2233.82 235.916 L2229.44 235.916 Q2224.51 235.916 2222.63 234.087 Q2220.76 232.235 2220.76 227.374 L2220.76 213.3 L2217.63 213.3 L2217.63 209.99 L2220.76 209.99 L2220.76 202.629 L2225.04 202.629 Z" fill="#000000" fill-rule="nonzero" fill-opacity="1" /><path clip-path="url(#clip480)" d="M2260.97 220.268 L2260.97 235.916 L2256.71 235.916 L2256.71 220.407 Q2256.71 216.726 2255.27 214.897 Q2253.84 213.069 2250.97 213.069 Q2247.52 213.069 2245.53 215.268 Q2243.54 217.467 2243.54 221.263 L2243.54 235.916 L2239.26 235.916 L2239.26 199.897 L2243.54 199.897 L2243.54 214.018 Q2245.07 211.68 2247.13 210.522 Q2249.21 209.365 2251.92 209.365 Q2256.38 209.365 2258.68 212.143 Q2260.97 214.897 2260.97 220.268 Z" fill="#000000" fill-rule="nonzero" fill-opacity="1" /></svg>
