<?xml version="1.0" encoding="utf-8"?>
<svg xmlns="http://www.w3.org/2000/svg" xmlns:xlink="http://www.w3.org/1999/xlink" width="600" height="400" viewBox="0 0 2400 1600">
<defs>
  <clipPath id="clip530">
    <rect x="0" y="0" width="2400" height="1600"/>
  </clipPath>
</defs>
<path clip-path="url(#clip530)" d="M0 1600 L2400 1600 L2400 0 L0 0  Z" fill="#ffffff" fill-rule="evenodd" fill-opacity="1"/>
<defs>
  <clipPath id="clip531">
    <rect x="287" y="123" width="2066" height="1301"/>
  </clipPath>
</defs>
<path clip-path="url(#clip530)" d="M287.366 1264.11 L1847.19 1264.11 L1847.19 282.544 L287.366 282.544  Z" fill="#ffffff" fill-rule="evenodd" fill-opacity="1"/>
<defs>
  <clipPath id="clip532">
    <rect x="287" y="282" width="1561" height="983"/>
  </clipPath>
</defs>
<polyline clip-path="url(#clip532)" style="stroke:#000000; stroke-linecap:round; stroke-linejoin:round; stroke-width:2; stroke-opacity:0.1; fill:none" points="515.514,1264.11 515.514,282.544 "/>
<polyline clip-path="url(#clip532)" style="stroke:#000000; stroke-linecap:round; stroke-linejoin:round; stroke-width:2; stroke-opacity:0.1; fill:none" points="793.319,1264.11 793.319,282.544 "/>
<polyline clip-path="url(#clip532)" style="stroke:#000000; stroke-linecap:round; stroke-linejoin:round; stroke-width:2; stroke-opacity:0.1; fill:none" points="1071.12,1264.11 1071.12,282.544 "/>
<polyline clip-path="url(#clip532)" style="stroke:#000000; stroke-linecap:round; stroke-linejoin:round; stroke-width:2; stroke-opacity:0.1; fill:none" points="1348.93,1264.11 1348.93,282.544 "/>
<polyline clip-path="url(#clip532)" style="stroke:#000000; stroke-linecap:round; stroke-linejoin:round; stroke-width:2; stroke-opacity:0.1; fill:none" points="1626.73,1264.11 1626.73,282.544 "/>
<polyline clip-path="url(#clip532)" style="stroke:#000000; stroke-linecap:round; stroke-linejoin:round; stroke-width:2; stroke-opacity:0.1; fill:none" points="287.366,1236.34 1847.19,1236.34 "/>
<polyline clip-path="url(#clip532)" style="stroke:#000000; stroke-linecap:round; stroke-linejoin:round; stroke-width:2; stroke-opacity:0.1; fill:none" points="287.366,1004.84 1847.19,1004.84 "/>
<polyline clip-path="url(#clip532)" style="stroke:#000000; stroke-linecap:round; stroke-linejoin:round; stroke-width:2; stroke-opacity:0.1; fill:none" points="287.366,773.332 1847.19,773.332 "/>
<polyline clip-path="url(#clip532)" style="stroke:#000000; stroke-linecap:round; stroke-linejoin:round; stroke-width:2; stroke-opacity:0.1; fill:none" points="287.366,541.828 1847.19,541.828 "/>
<polyline clip-path="url(#clip532)" style="stroke:#000000; stroke-linecap:round; stroke-linejoin:round; stroke-width:2; stroke-opacity:0.1; fill:none" points="287.366,310.324 1847.19,310.324 "/>
<polyline clip-path="url(#clip530)" style="stroke:#000000; stroke-linecap:round; stroke-linejoin:round; stroke-width:4; stroke-opacity:1; fill:none" points="287.366,1264.11 1847.19,1264.11 "/>
<polyline clip-path="url(#clip530)" style="stroke:#000000; stroke-linecap:round; stroke-linejoin:round; stroke-width:4; stroke-opacity:1; fill:none" points="515.514,1264.11 515.514,1249.84 "/>
<polyline clip-path="url(#clip530)" style="stroke:#000000; stroke-linecap:round; stroke-linejoin:round; stroke-width:4; stroke-opacity:1; fill:none" points="793.319,1264.11 793.319,1249.84 "/>
<polyline clip-path="url(#clip530)" style="stroke:#000000; stroke-linecap:round; stroke-linejoin:round; stroke-width:4; stroke-opacity:1; fill:none" points="1071.12,1264.11 1071.12,1249.84 "/>
<polyline clip-path="url(#clip530)" style="stroke:#000000; stroke-linecap:round; stroke-linejoin:round; stroke-width:4; stroke-opacity:1; fill:none" points="1348.93,1264.11 1348.93,1249.84 "/>
<polyline clip-path="url(#clip530)" style="stroke:#000000; stroke-linecap:round; stroke-linejoin:round; stroke-width:4; stroke-opacity:1; fill:none" points="1626.73,1264.11 1626.73,1249.84 "/>
<path clip-path="url(#clip530)" d="M462.366 1309.68 L492.042 1309.68 L492.042 1313.61 L462.366 1313.61 L462.366 1309.68 Z" fill="#000000" fill-rule="nonzero" fill-opacity="1" /><path clip-path="url(#clip530)" d="M512.135 1295.03 Q508.524 1295.03 506.695 1298.59 Q504.889 1302.13 504.889 1309.26 Q504.889 1316.37 506.695 1319.93 Q508.524 1323.48 512.135 1323.48 Q515.769 1323.48 517.574 1319.93 Q519.403 1316.37 519.403 1309.26 Q519.403 1302.13 517.574 1298.59 Q515.769 1295.03 512.135 1295.03 M512.135 1291.32 Q517.945 1291.32 521 1295.93 Q524.079 1300.51 524.079 1309.26 Q524.079 1317.99 521 1322.6 Q517.945 1327.18 512.135 1327.18 Q506.324 1327.18 503.246 1322.6 Q500.19 1317.99 500.19 1309.26 Q500.19 1300.51 503.246 1295.93 Q506.324 1291.32 512.135 1291.32 Z" fill="#000000" fill-rule="nonzero" fill-opacity="1" /><path clip-path="url(#clip530)" d="M532.297 1320.63 L537.181 1320.63 L537.181 1326.51 L532.297 1326.51 L532.297 1320.63 Z" fill="#000000" fill-rule="nonzero" fill-opacity="1" /><path clip-path="url(#clip530)" d="M561.532 1307.87 Q564.889 1308.59 566.764 1310.86 Q568.662 1313.13 568.662 1316.46 Q568.662 1321.58 565.144 1324.38 Q561.625 1327.18 555.144 1327.18 Q552.968 1327.18 550.653 1326.74 Q548.361 1326.32 545.908 1325.47 L545.908 1320.95 Q547.852 1322.09 550.167 1322.67 Q552.482 1323.24 555.005 1323.24 Q559.403 1323.24 561.695 1321.51 Q564.009 1319.77 564.009 1316.46 Q564.009 1313.41 561.857 1311.69 Q559.727 1309.96 555.908 1309.96 L551.88 1309.96 L551.88 1306.11 L556.093 1306.11 Q559.542 1306.11 561.37 1304.75 Q563.199 1303.36 563.199 1300.77 Q563.199 1298.11 561.301 1296.69 Q559.426 1295.26 555.908 1295.26 Q553.986 1295.26 551.787 1295.67 Q549.588 1296.09 546.949 1296.97 L546.949 1292.8 Q549.611 1292.06 551.926 1291.69 Q554.264 1291.32 556.324 1291.32 Q561.648 1291.32 564.75 1293.75 Q567.852 1296.16 567.852 1300.28 Q567.852 1303.15 566.208 1305.14 Q564.565 1307.11 561.532 1307.87 Z" fill="#000000" fill-rule="nonzero" fill-opacity="1" /><path clip-path="url(#clip530)" d="M770.703 1295.03 Q767.092 1295.03 765.263 1298.59 Q763.458 1302.13 763.458 1309.26 Q763.458 1316.37 765.263 1319.93 Q767.092 1323.48 770.703 1323.48 Q774.337 1323.48 776.143 1319.93 Q777.971 1316.37 777.971 1309.26 Q777.971 1302.13 776.143 1298.59 Q774.337 1295.03 770.703 1295.03 M770.703 1291.32 Q776.513 1291.32 779.569 1295.93 Q782.647 1300.51 782.647 1309.26 Q782.647 1317.99 779.569 1322.6 Q776.513 1327.18 770.703 1327.18 Q764.893 1327.18 761.814 1322.6 Q758.759 1317.99 758.759 1309.26 Q758.759 1300.51 761.814 1295.93 Q764.893 1291.32 770.703 1291.32 Z" fill="#000000" fill-rule="nonzero" fill-opacity="1" /><path clip-path="url(#clip530)" d="M790.865 1320.63 L795.749 1320.63 L795.749 1326.51 L790.865 1326.51 L790.865 1320.63 Z" fill="#000000" fill-rule="nonzero" fill-opacity="1" /><path clip-path="url(#clip530)" d="M815.934 1295.03 Q812.323 1295.03 810.494 1298.59 Q808.689 1302.13 808.689 1309.26 Q808.689 1316.37 810.494 1319.93 Q812.323 1323.48 815.934 1323.48 Q819.568 1323.48 821.374 1319.93 Q823.203 1316.37 823.203 1309.26 Q823.203 1302.13 821.374 1298.59 Q819.568 1295.03 815.934 1295.03 M815.934 1291.32 Q821.744 1291.32 824.8 1295.93 Q827.879 1300.51 827.879 1309.26 Q827.879 1317.99 824.8 1322.6 Q821.744 1327.18 815.934 1327.18 Q810.124 1327.18 807.045 1322.6 Q803.99 1317.99 803.99 1309.26 Q803.99 1300.51 807.045 1295.93 Q810.124 1291.32 815.934 1291.32 Z" fill="#000000" fill-rule="nonzero" fill-opacity="1" /><path clip-path="url(#clip530)" d="M1048.83 1295.03 Q1045.22 1295.03 1043.39 1298.59 Q1041.59 1302.13 1041.59 1309.26 Q1041.59 1316.37 1043.39 1319.93 Q1045.22 1323.48 1048.83 1323.48 Q1052.47 1323.48 1054.27 1319.93 Q1056.1 1316.37 1056.1 1309.26 Q1056.1 1302.13 1054.27 1298.59 Q1052.47 1295.03 1048.83 1295.03 M1048.83 1291.32 Q1054.64 1291.32 1057.7 1295.93 Q1060.78 1300.51 1060.78 1309.26 Q1060.78 1317.99 1057.7 1322.6 Q1054.64 1327.18 1048.83 1327.18 Q1043.02 1327.18 1039.94 1322.6 Q1036.89 1317.99 1036.89 1309.26 Q1036.89 1300.51 1039.94 1295.93 Q1043.02 1291.32 1048.83 1291.32 Z" fill="#000000" fill-rule="nonzero" fill-opacity="1" /><path clip-path="url(#clip530)" d="M1068.99 1320.63 L1073.88 1320.63 L1073.88 1326.51 L1068.99 1326.51 L1068.99 1320.63 Z" fill="#000000" fill-rule="nonzero" fill-opacity="1" /><path clip-path="url(#clip530)" d="M1098.23 1307.87 Q1101.59 1308.59 1103.46 1310.86 Q1105.36 1313.13 1105.36 1316.46 Q1105.36 1321.58 1101.84 1324.38 Q1098.32 1327.18 1091.84 1327.18 Q1089.66 1327.18 1087.35 1326.74 Q1085.06 1326.32 1082.6 1325.47 L1082.6 1320.95 Q1084.55 1322.09 1086.86 1322.67 Q1089.18 1323.24 1091.7 1323.24 Q1096.1 1323.24 1098.39 1321.51 Q1100.71 1319.77 1100.71 1316.46 Q1100.71 1313.41 1098.55 1311.69 Q1096.42 1309.96 1092.6 1309.96 L1088.58 1309.96 L1088.58 1306.11 L1092.79 1306.11 Q1096.24 1306.11 1098.07 1304.75 Q1099.9 1303.36 1099.9 1300.77 Q1099.9 1298.11 1098 1296.69 Q1096.12 1295.26 1092.6 1295.26 Q1090.68 1295.26 1088.48 1295.67 Q1086.28 1296.09 1083.65 1296.97 L1083.65 1292.8 Q1086.31 1292.06 1088.62 1291.69 Q1090.96 1291.32 1093.02 1291.32 Q1098.35 1291.32 1101.45 1293.75 Q1104.55 1296.16 1104.55 1300.28 Q1104.55 1303.15 1102.91 1305.14 Q1101.26 1307.11 1098.23 1307.87 Z" fill="#000000" fill-rule="nonzero" fill-opacity="1" /><path clip-path="url(#clip530)" d="M1326.23 1295.03 Q1322.62 1295.03 1320.79 1298.59 Q1318.99 1302.13 1318.99 1309.26 Q1318.99 1316.37 1320.79 1319.93 Q1322.62 1323.48 1326.23 1323.48 Q1329.86 1323.48 1331.67 1319.93 Q1333.5 1316.37 1333.5 1309.26 Q1333.5 1302.13 1331.67 1298.59 Q1329.86 1295.03 1326.23 1295.03 M1326.23 1291.32 Q1332.04 1291.32 1335.1 1295.93 Q1338.18 1300.51 1338.18 1309.26 Q1338.18 1317.99 1335.1 1322.6 Q1332.04 1327.18 1326.23 1327.18 Q1320.42 1327.18 1317.34 1322.6 Q1314.29 1317.99 1314.29 1309.26 Q1314.29 1300.51 1317.34 1295.93 Q1320.42 1291.32 1326.23 1291.32 Z" fill="#000000" fill-rule="nonzero" fill-opacity="1" /><path clip-path="url(#clip530)" d="M1346.39 1320.63 L1351.28 1320.63 L1351.28 1326.51 L1346.39 1326.51 L1346.39 1320.63 Z" fill="#000000" fill-rule="nonzero" fill-opacity="1" /><path clip-path="url(#clip530)" d="M1372.04 1307.36 Q1368.89 1307.36 1367.04 1309.52 Q1365.21 1311.67 1365.21 1315.42 Q1365.21 1319.15 1367.04 1321.32 Q1368.89 1323.48 1372.04 1323.48 Q1375.19 1323.48 1377.02 1321.32 Q1378.87 1319.15 1378.87 1315.42 Q1378.87 1311.67 1377.02 1309.52 Q1375.19 1307.36 1372.04 1307.36 M1381.32 1292.71 L1381.32 1296.97 Q1379.56 1296.14 1377.76 1295.7 Q1375.98 1295.26 1374.22 1295.26 Q1369.59 1295.26 1367.13 1298.38 Q1364.7 1301.51 1364.36 1307.83 Q1365.72 1305.81 1367.78 1304.75 Q1369.84 1303.66 1372.32 1303.66 Q1377.53 1303.66 1380.54 1306.83 Q1383.57 1309.98 1383.57 1315.42 Q1383.57 1320.74 1380.42 1323.96 Q1377.27 1327.18 1372.04 1327.18 Q1366.05 1327.18 1362.87 1322.6 Q1359.7 1317.99 1359.7 1309.26 Q1359.7 1301.07 1363.59 1296.21 Q1367.48 1291.32 1374.03 1291.32 Q1375.79 1291.32 1377.57 1291.67 Q1379.38 1292.02 1381.32 1292.71 Z" fill="#000000" fill-rule="nonzero" fill-opacity="1" /><path clip-path="url(#clip530)" d="M1604.21 1295.03 Q1600.6 1295.03 1598.77 1298.59 Q1596.96 1302.13 1596.96 1309.26 Q1596.96 1316.37 1598.77 1319.93 Q1600.6 1323.48 1604.21 1323.48 Q1607.84 1323.48 1609.65 1319.93 Q1611.48 1316.37 1611.48 1309.26 Q1611.48 1302.13 1609.65 1298.59 Q1607.84 1295.03 1604.21 1295.03 M1604.21 1291.32 Q1610.02 1291.32 1613.07 1295.93 Q1616.15 1300.51 1616.15 1309.26 Q1616.15 1317.99 1613.07 1322.6 Q1610.02 1327.18 1604.21 1327.18 Q1598.4 1327.18 1595.32 1322.6 Q1592.26 1317.99 1592.26 1309.26 Q1592.26 1300.51 1595.32 1295.93 Q1598.4 1291.32 1604.21 1291.32 Z" fill="#000000" fill-rule="nonzero" fill-opacity="1" /><path clip-path="url(#clip530)" d="M1624.37 1320.63 L1629.25 1320.63 L1629.25 1326.51 L1624.37 1326.51 L1624.37 1320.63 Z" fill="#000000" fill-rule="nonzero" fill-opacity="1" /><path clip-path="url(#clip530)" d="M1639.58 1325.79 L1639.58 1321.53 Q1641.34 1322.36 1643.14 1322.8 Q1644.95 1323.24 1646.69 1323.24 Q1651.31 1323.24 1653.75 1320.14 Q1656.2 1317.02 1656.55 1310.67 Q1655.2 1312.67 1653.14 1313.73 Q1651.08 1314.79 1648.58 1314.79 Q1643.4 1314.79 1640.37 1311.67 Q1637.36 1308.52 1637.36 1303.08 Q1637.36 1297.76 1640.5 1294.54 Q1643.65 1291.32 1648.88 1291.32 Q1654.88 1291.32 1658.03 1295.93 Q1661.2 1300.51 1661.2 1309.26 Q1661.2 1317.43 1657.31 1322.32 Q1653.44 1327.18 1646.89 1327.18 Q1645.13 1327.18 1643.33 1326.83 Q1641.52 1326.48 1639.58 1325.79 M1648.88 1311.14 Q1652.03 1311.14 1653.86 1308.98 Q1655.71 1306.83 1655.71 1303.08 Q1655.71 1299.36 1653.86 1297.2 Q1652.03 1295.03 1648.88 1295.03 Q1645.74 1295.03 1643.88 1297.2 Q1642.06 1299.36 1642.06 1303.08 Q1642.06 1306.83 1643.88 1308.98 Q1645.74 1311.14 1648.88 1311.14 Z" fill="#000000" fill-rule="nonzero" fill-opacity="1" /><path clip-path="url(#clip530)" d="M877.228 1373.32 L864.338 1390.67 L877.896 1408.97 L870.99 1408.97 L860.614 1394.97 L850.237 1408.97 L843.331 1408.97 L857.176 1390.32 L844.508 1373.32 L851.415 1373.32 L860.868 1386.02 L870.321 1373.32 L877.228 1373.32 Z" fill="#000000" fill-rule="nonzero" fill-opacity="1" /><path clip-path="url(#clip530)" d="M883.212 1388.51 L900.367 1388.51 L900.367 1393.73 L883.212 1393.73 L883.212 1388.51 Z" fill="#000000" fill-rule="nonzero" fill-opacity="1" /><path clip-path="url(#clip530)" d="M915.359 1403.62 L915.359 1422.53 L909.47 1422.53 L909.47 1373.32 L915.359 1373.32 L915.359 1378.73 Q917.205 1375.55 920.006 1374.02 Q922.838 1372.46 926.753 1372.46 Q933.246 1372.46 937.289 1377.62 Q941.363 1382.78 941.363 1391.18 Q941.363 1399.58 937.289 1404.74 Q933.246 1409.89 926.753 1409.89 Q922.838 1409.89 920.006 1408.37 Q917.205 1406.81 915.359 1403.62 M935.283 1391.18 Q935.283 1384.72 932.61 1381.06 Q929.968 1377.37 925.321 1377.37 Q920.674 1377.37 918 1381.06 Q915.359 1384.72 915.359 1391.18 Q915.359 1397.64 918 1401.33 Q920.674 1404.99 925.321 1404.99 Q929.968 1404.99 932.61 1401.33 Q935.283 1397.64 935.283 1391.18 Z" fill="#000000" fill-rule="nonzero" fill-opacity="1" /><path clip-path="url(#clip530)" d="M964.884 1377.43 Q960.173 1377.43 957.436 1381.12 Q954.699 1384.78 954.699 1391.18 Q954.699 1397.58 957.404 1401.27 Q960.141 1404.93 964.884 1404.93 Q969.563 1404.93 972.3 1401.24 Q975.037 1397.55 975.037 1391.18 Q975.037 1384.85 972.3 1381.15 Q969.563 1377.43 964.884 1377.43 M964.884 1372.46 Q972.523 1372.46 976.883 1377.43 Q981.244 1382.39 981.244 1391.18 Q981.244 1399.93 976.883 1404.93 Q972.523 1409.89 964.884 1409.89 Q957.213 1409.89 952.853 1404.93 Q948.524 1399.93 948.524 1391.18 Q948.524 1382.39 952.853 1377.43 Q957.213 1372.46 964.884 1372.46 Z" fill="#000000" fill-rule="nonzero" fill-opacity="1" /><path clip-path="url(#clip530)" d="M1013.68 1374.37 L1013.68 1379.91 Q1011.19 1378.64 1008.52 1378 Q1005.85 1377.37 1002.98 1377.37 Q998.622 1377.37 996.426 1378.7 Q994.262 1380.04 994.262 1382.71 Q994.262 1384.75 995.821 1385.93 Q997.381 1387.07 1002.09 1388.12 L1004.1 1388.57 Q1010.34 1389.91 1012.94 1392.36 Q1015.59 1394.78 1015.59 1399.14 Q1015.59 1404.1 1011.64 1407 Q1007.73 1409.89 1000.85 1409.89 Q997.986 1409.89 994.866 1409.32 Q991.779 1408.78 988.342 1407.67 L988.342 1401.62 Q991.588 1403.31 994.739 1404.17 Q997.89 1404.99 1000.98 1404.99 Q1005.12 1404.99 1007.34 1403.59 Q1009.57 1402.16 1009.57 1399.58 Q1009.57 1397.2 1007.95 1395.92 Q1006.36 1394.65 1000.91 1393.47 L998.877 1392.99 Q993.434 1391.85 991.015 1389.49 Q988.596 1387.11 988.596 1382.97 Q988.596 1377.94 992.161 1375.2 Q995.726 1372.46 1002.28 1372.46 Q1005.53 1372.46 1008.39 1372.94 Q1011.26 1373.42 1013.68 1374.37 Z" fill="#000000" fill-rule="nonzero" fill-opacity="1" /><path clip-path="url(#clip530)" d="M1024.91 1373.32 L1030.77 1373.32 L1030.77 1408.97 L1024.91 1408.97 L1024.91 1373.32 M1024.91 1359.45 L1030.77 1359.45 L1030.77 1366.86 L1024.91 1366.86 L1024.91 1359.45 Z" fill="#000000" fill-rule="nonzero" fill-opacity="1" /><path clip-path="url(#clip530)" d="M1048.82 1363.2 L1048.82 1373.32 L1060.88 1373.32 L1060.88 1377.88 L1048.82 1377.88 L1048.82 1397.23 Q1048.82 1401.59 1049.99 1402.83 Q1051.2 1404.07 1054.86 1404.07 L1060.88 1404.07 L1060.88 1408.97 L1054.86 1408.97 Q1048.08 1408.97 1045.51 1406.46 Q1042.93 1403.91 1042.93 1397.23 L1042.93 1377.88 L1038.63 1377.88 L1038.63 1373.32 L1042.93 1373.32 L1042.93 1363.2 L1048.82 1363.2 Z" fill="#000000" fill-rule="nonzero" fill-opacity="1" /><path clip-path="url(#clip530)" d="M1068.58 1373.32 L1074.44 1373.32 L1074.44 1408.97 L1068.58 1408.97 L1068.58 1373.32 M1068.58 1359.45 L1074.44 1359.45 L1074.44 1366.86 L1068.58 1366.86 L1068.58 1359.45 Z" fill="#000000" fill-rule="nonzero" fill-opacity="1" /><path clip-path="url(#clip530)" d="M1100.51 1377.43 Q1095.79 1377.43 1093.06 1381.12 Q1090.32 1384.78 1090.32 1391.18 Q1090.32 1397.58 1093.03 1401.27 Q1095.76 1404.93 1100.51 1404.93 Q1105.18 1404.93 1107.92 1401.24 Q1110.66 1397.55 1110.66 1391.18 Q1110.66 1384.85 1107.92 1381.15 Q1105.18 1377.43 1100.51 1377.43 M1100.51 1372.46 Q1108.14 1372.46 1112.5 1377.43 Q1116.87 1382.39 1116.87 1391.18 Q1116.87 1399.93 1112.5 1404.93 Q1108.14 1409.89 1100.51 1409.89 Q1092.83 1409.89 1088.47 1404.93 Q1084.15 1399.93 1084.15 1391.18 Q1084.15 1382.39 1088.47 1377.43 Q1092.83 1372.46 1100.51 1372.46 Z" fill="#000000" fill-rule="nonzero" fill-opacity="1" /><path clip-path="url(#clip530)" d="M1156.21 1387.46 L1156.21 1408.97 L1150.35 1408.97 L1150.35 1387.65 Q1150.35 1382.59 1148.38 1380.07 Q1146.4 1377.56 1142.46 1377.56 Q1137.71 1377.56 1134.98 1380.58 Q1132.24 1383.6 1132.24 1388.82 L1132.24 1408.97 L1126.35 1408.97 L1126.35 1373.32 L1132.24 1373.32 L1132.24 1378.86 Q1134.34 1375.65 1137.17 1374.06 Q1140.04 1372.46 1143.76 1372.46 Q1149.9 1372.46 1153.05 1376.28 Q1156.21 1380.07 1156.21 1387.46 Z" fill="#000000" fill-rule="nonzero" fill-opacity="1" /><path clip-path="url(#clip530)" d="M1202.67 1359.51 Q1198.41 1366.83 1196.34 1373.99 Q1194.27 1381.15 1194.27 1388.51 Q1194.27 1395.86 1196.34 1403.08 Q1198.44 1410.28 1202.67 1417.57 L1197.58 1417.57 Q1192.81 1410.09 1190.42 1402.86 Q1188.07 1395.64 1188.07 1388.51 Q1188.07 1381.41 1190.42 1374.21 Q1192.78 1367.02 1197.58 1359.51 L1202.67 1359.51 Z" fill="#000000" fill-rule="nonzero" fill-opacity="1" /><path clip-path="url(#clip530)" d="M1241.79 1380.17 Q1243.99 1376.22 1247.04 1374.34 Q1250.1 1372.46 1254.24 1372.46 Q1259.81 1372.46 1262.83 1376.38 Q1265.85 1380.26 1265.85 1387.46 L1265.85 1408.97 L1259.97 1408.97 L1259.97 1387.65 Q1259.97 1382.52 1258.15 1380.04 Q1256.34 1377.56 1252.61 1377.56 Q1248.06 1377.56 1245.42 1380.58 Q1242.78 1383.6 1242.78 1388.82 L1242.78 1408.97 L1236.89 1408.97 L1236.89 1387.65 Q1236.89 1382.49 1235.08 1380.04 Q1233.26 1377.56 1229.47 1377.56 Q1224.99 1377.56 1222.34 1380.61 Q1219.7 1383.64 1219.7 1388.82 L1219.7 1408.97 L1213.81 1408.97 L1213.81 1373.32 L1219.7 1373.32 L1219.7 1378.86 Q1221.71 1375.58 1224.51 1374.02 Q1227.31 1372.46 1231.16 1372.46 Q1235.04 1372.46 1237.75 1374.44 Q1240.49 1376.41 1241.79 1380.17 Z" fill="#000000" fill-rule="nonzero" fill-opacity="1" /><path clip-path="url(#clip530)" d="M1276.61 1359.51 L1281.71 1359.51 Q1286.48 1367.02 1288.83 1374.21 Q1291.22 1381.41 1291.22 1388.51 Q1291.22 1395.64 1288.83 1402.86 Q1286.48 1410.09 1281.71 1417.57 L1276.61 1417.57 Q1280.85 1410.28 1282.91 1403.08 Q1285.02 1395.86 1285.02 1388.51 Q1285.02 1381.15 1282.91 1373.99 Q1280.85 1366.83 1276.61 1359.51 Z" fill="#000000" fill-rule="nonzero" fill-opacity="1" /><polyline clip-path="url(#clip530)" style="stroke:#000000; stroke-linecap:round; stroke-linejoin:round; stroke-width:4; stroke-opacity:1; fill:none" points="287.366,1264.11 287.366,282.544 "/>
<polyline clip-path="url(#clip530)" style="stroke:#000000; stroke-linecap:round; stroke-linejoin:round; stroke-width:4; stroke-opacity:1; fill:none" points="287.366,1236.34 301.638,1236.34 "/>
<polyline clip-path="url(#clip530)" style="stroke:#000000; stroke-linecap:round; stroke-linejoin:round; stroke-width:4; stroke-opacity:1; fill:none" points="287.366,1004.84 301.638,1004.84 "/>
<polyline clip-path="url(#clip530)" style="stroke:#000000; stroke-linecap:round; stroke-linejoin:round; stroke-width:4; stroke-opacity:1; fill:none" points="287.366,773.332 301.638,773.332 "/>
<polyline clip-path="url(#clip530)" style="stroke:#000000; stroke-linecap:round; stroke-linejoin:round; stroke-width:4; stroke-opacity:1; fill:none" points="287.366,541.828 301.638,541.828 "/>
<polyline clip-path="url(#clip530)" style="stroke:#000000; stroke-linecap:round; stroke-linejoin:round; stroke-width:4; stroke-opacity:1; fill:none" points="287.366,310.324 301.638,310.324 "/>
<path clip-path="url(#clip530)" d="M114.26 1236.79 L143.936 1236.79 L143.936 1240.73 L114.26 1240.73 L114.26 1236.79 Z" fill="#000000" fill-rule="nonzero" fill-opacity="1" /><path clip-path="url(#clip530)" d="M154.839 1249.68 L162.477 1249.68 L162.477 1223.32 L154.167 1224.98 L154.167 1220.73 L162.431 1219.06 L167.107 1219.06 L167.107 1249.68 L174.746 1249.68 L174.746 1253.62 L154.839 1253.62 L154.839 1249.68 Z" fill="#000000" fill-rule="nonzero" fill-opacity="1" /><path clip-path="url(#clip530)" d="M184.19 1247.74 L189.075 1247.74 L189.075 1253.62 L184.19 1253.62 L184.19 1247.74 Z" fill="#000000" fill-rule="nonzero" fill-opacity="1" /><path clip-path="url(#clip530)" d="M209.26 1222.14 Q205.649 1222.14 203.82 1225.7 Q202.014 1229.24 202.014 1236.37 Q202.014 1243.48 203.82 1247.05 Q205.649 1250.59 209.26 1250.59 Q212.894 1250.59 214.699 1247.05 Q216.528 1243.48 216.528 1236.37 Q216.528 1229.24 214.699 1225.7 Q212.894 1222.14 209.26 1222.14 M209.26 1218.43 Q215.07 1218.43 218.125 1223.04 Q221.204 1227.62 221.204 1236.37 Q221.204 1245.1 218.125 1249.71 Q215.07 1254.29 209.26 1254.29 Q203.449 1254.29 200.371 1249.71 Q197.315 1245.1 197.315 1236.37 Q197.315 1227.62 200.371 1223.04 Q203.449 1218.43 209.26 1218.43 Z" fill="#000000" fill-rule="nonzero" fill-opacity="1" /><path clip-path="url(#clip530)" d="M239.422 1222.14 Q235.81 1222.14 233.982 1225.7 Q232.176 1229.24 232.176 1236.37 Q232.176 1243.48 233.982 1247.05 Q235.81 1250.59 239.422 1250.59 Q243.056 1250.59 244.861 1247.05 Q246.69 1243.48 246.69 1236.37 Q246.69 1229.24 244.861 1225.7 Q243.056 1222.14 239.422 1222.14 M239.422 1218.43 Q245.232 1218.43 248.287 1223.04 Q251.366 1227.62 251.366 1236.37 Q251.366 1245.1 248.287 1249.71 Q245.232 1254.29 239.422 1254.29 Q233.611 1254.29 230.533 1249.71 Q227.477 1245.1 227.477 1236.37 Q227.477 1227.62 230.533 1223.04 Q233.611 1218.43 239.422 1218.43 Z" fill="#000000" fill-rule="nonzero" fill-opacity="1" /><path clip-path="url(#clip530)" d="M115.256 1005.29 L144.931 1005.29 L144.931 1009.22 L115.256 1009.22 L115.256 1005.29 Z" fill="#000000" fill-rule="nonzero" fill-opacity="1" /><path clip-path="url(#clip530)" d="M165.024 990.634 Q161.413 990.634 159.584 994.199 Q157.778 997.741 157.778 1004.87 Q157.778 1011.98 159.584 1015.54 Q161.413 1019.08 165.024 1019.08 Q168.658 1019.08 170.464 1015.54 Q172.292 1011.98 172.292 1004.87 Q172.292 997.741 170.464 994.199 Q168.658 990.634 165.024 990.634 M165.024 986.93 Q170.834 986.93 173.889 991.537 Q176.968 996.12 176.968 1004.87 Q176.968 1013.6 173.889 1018.2 Q170.834 1022.79 165.024 1022.79 Q159.214 1022.79 156.135 1018.2 Q153.079 1013.6 153.079 1004.87 Q153.079 996.12 156.135 991.537 Q159.214 986.93 165.024 986.93 Z" fill="#000000" fill-rule="nonzero" fill-opacity="1" /><path clip-path="url(#clip530)" d="M185.186 1016.24 L190.07 1016.24 L190.07 1022.12 L185.186 1022.12 L185.186 1016.24 Z" fill="#000000" fill-rule="nonzero" fill-opacity="1" /><path clip-path="url(#clip530)" d="M199.075 987.555 L221.297 987.555 L221.297 989.546 L208.75 1022.12 L203.866 1022.12 L215.672 991.491 L199.075 991.491 L199.075 987.555 Z" fill="#000000" fill-rule="nonzero" fill-opacity="1" /><path clip-path="url(#clip530)" d="M230.463 987.555 L248.82 987.555 L248.82 991.491 L234.746 991.491 L234.746 999.963 Q235.764 999.616 236.783 999.453 Q237.801 999.268 238.82 999.268 Q244.607 999.268 247.986 1002.44 Q251.366 1005.61 251.366 1011.03 Q251.366 1016.61 247.894 1019.71 Q244.421 1022.79 238.102 1022.79 Q235.926 1022.79 233.658 1022.42 Q231.412 1022.05 229.005 1021.31 L229.005 1016.61 Q231.088 1017.74 233.31 1018.3 Q235.533 1018.85 238.009 1018.85 Q242.014 1018.85 244.352 1016.75 Q246.69 1014.64 246.69 1011.03 Q246.69 1007.42 244.352 1005.31 Q242.014 1003.2 238.009 1003.2 Q236.135 1003.2 234.26 1003.62 Q232.408 1004.04 230.463 1004.92 L230.463 987.555 Z" fill="#000000" fill-rule="nonzero" fill-opacity="1" /><path clip-path="url(#clip530)" d="M114.26 773.783 L143.936 773.783 L143.936 777.718 L114.26 777.718 L114.26 773.783 Z" fill="#000000" fill-rule="nonzero" fill-opacity="1" /><path clip-path="url(#clip530)" d="M164.028 759.13 Q160.417 759.13 158.589 762.695 Q156.783 766.237 156.783 773.366 Q156.783 780.473 158.589 784.038 Q160.417 787.579 164.028 787.579 Q167.663 787.579 169.468 784.038 Q171.297 780.473 171.297 773.366 Q171.297 766.237 169.468 762.695 Q167.663 759.13 164.028 759.13 M164.028 755.427 Q169.839 755.427 172.894 760.033 Q175.973 764.617 175.973 773.366 Q175.973 782.093 172.894 786.7 Q169.839 791.283 164.028 791.283 Q158.218 791.283 155.14 786.7 Q152.084 782.093 152.084 773.366 Q152.084 764.617 155.14 760.033 Q158.218 755.427 164.028 755.427 Z" fill="#000000" fill-rule="nonzero" fill-opacity="1" /><path clip-path="url(#clip530)" d="M184.19 784.732 L189.075 784.732 L189.075 790.612 L184.19 790.612 L184.19 784.732 Z" fill="#000000" fill-rule="nonzero" fill-opacity="1" /><path clip-path="url(#clip530)" d="M199.306 756.052 L217.662 756.052 L217.662 759.987 L203.588 759.987 L203.588 768.459 Q204.607 768.112 205.625 767.95 Q206.644 767.765 207.662 767.765 Q213.449 767.765 216.829 770.936 Q220.209 774.107 220.209 779.524 Q220.209 785.103 216.736 788.204 Q213.264 791.283 206.945 791.283 Q204.769 791.283 202.5 790.913 Q200.255 790.542 197.848 789.802 L197.848 785.103 Q199.931 786.237 202.153 786.792 Q204.375 787.348 206.852 787.348 Q210.857 787.348 213.195 785.241 Q215.533 783.135 215.533 779.524 Q215.533 775.913 213.195 773.806 Q210.857 771.7 206.852 771.7 Q204.977 771.7 203.102 772.116 Q201.25 772.533 199.306 773.413 L199.306 756.052 Z" fill="#000000" fill-rule="nonzero" fill-opacity="1" /><path clip-path="url(#clip530)" d="M239.422 759.13 Q235.81 759.13 233.982 762.695 Q232.176 766.237 232.176 773.366 Q232.176 780.473 233.982 784.038 Q235.81 787.579 239.422 787.579 Q243.056 787.579 244.861 784.038 Q246.69 780.473 246.69 773.366 Q246.69 766.237 244.861 762.695 Q243.056 759.13 239.422 759.13 M239.422 755.427 Q245.232 755.427 248.287 760.033 Q251.366 764.617 251.366 773.366 Q251.366 782.093 248.287 786.7 Q245.232 791.283 239.422 791.283 Q233.611 791.283 230.533 786.7 Q227.477 782.093 227.477 773.366 Q227.477 764.617 230.533 760.033 Q233.611 755.427 239.422 755.427 Z" fill="#000000" fill-rule="nonzero" fill-opacity="1" /><path clip-path="url(#clip530)" d="M115.256 542.279 L144.931 542.279 L144.931 546.215 L115.256 546.215 L115.256 542.279 Z" fill="#000000" fill-rule="nonzero" fill-opacity="1" /><path clip-path="url(#clip530)" d="M165.024 527.627 Q161.413 527.627 159.584 531.192 Q157.778 534.733 157.778 541.863 Q157.778 548.969 159.584 552.534 Q161.413 556.076 165.024 556.076 Q168.658 556.076 170.464 552.534 Q172.292 548.969 172.292 541.863 Q172.292 534.733 170.464 531.192 Q168.658 527.627 165.024 527.627 M165.024 523.923 Q170.834 523.923 173.889 528.53 Q176.968 533.113 176.968 541.863 Q176.968 550.59 173.889 555.196 Q170.834 559.779 165.024 559.779 Q159.214 559.779 156.135 555.196 Q153.079 550.59 153.079 541.863 Q153.079 533.113 156.135 528.53 Q159.214 523.923 165.024 523.923 Z" fill="#000000" fill-rule="nonzero" fill-opacity="1" /><path clip-path="url(#clip530)" d="M185.186 553.228 L190.07 553.228 L190.07 559.108 L185.186 559.108 L185.186 553.228 Z" fill="#000000" fill-rule="nonzero" fill-opacity="1" /><path clip-path="url(#clip530)" d="M204.283 555.173 L220.602 555.173 L220.602 559.108 L198.658 559.108 L198.658 555.173 Q201.32 552.418 205.903 547.789 Q210.51 543.136 211.69 541.793 Q213.936 539.27 214.815 537.534 Q215.718 535.775 215.718 534.085 Q215.718 531.33 213.774 529.594 Q211.852 527.858 208.75 527.858 Q206.551 527.858 204.098 528.622 Q201.667 529.386 198.889 530.937 L198.889 526.215 Q201.713 525.08 204.167 524.502 Q206.621 523.923 208.658 523.923 Q214.028 523.923 217.223 526.608 Q220.417 529.293 220.417 533.784 Q220.417 535.914 219.607 537.835 Q218.82 539.733 216.713 542.326 Q216.135 542.997 213.033 546.215 Q209.931 549.409 204.283 555.173 Z" fill="#000000" fill-rule="nonzero" fill-opacity="1" /><path clip-path="url(#clip530)" d="M230.463 524.548 L248.82 524.548 L248.82 528.483 L234.746 528.483 L234.746 536.955 Q235.764 536.608 236.783 536.446 Q237.801 536.261 238.82 536.261 Q244.607 536.261 247.986 539.432 Q251.366 542.604 251.366 548.02 Q251.366 553.599 247.894 556.701 Q244.421 559.779 238.102 559.779 Q235.926 559.779 233.658 559.409 Q231.412 559.039 229.005 558.298 L229.005 553.599 Q231.088 554.733 233.31 555.289 Q235.533 555.844 238.009 555.844 Q242.014 555.844 244.352 553.738 Q246.69 551.631 246.69 548.02 Q246.69 544.409 244.352 542.303 Q242.014 540.196 238.009 540.196 Q236.135 540.196 234.26 540.613 Q232.408 541.029 230.463 541.909 L230.463 524.548 Z" fill="#000000" fill-rule="nonzero" fill-opacity="1" /><path clip-path="url(#clip530)" d="M164.028 296.123 Q160.417 296.123 158.589 299.688 Q156.783 303.23 156.783 310.359 Q156.783 317.466 158.589 321.03 Q160.417 324.572 164.028 324.572 Q167.663 324.572 169.468 321.03 Q171.297 317.466 171.297 310.359 Q171.297 303.23 169.468 299.688 Q167.663 296.123 164.028 296.123 M164.028 292.419 Q169.839 292.419 172.894 297.026 Q175.973 301.609 175.973 310.359 Q175.973 319.086 172.894 323.692 Q169.839 328.276 164.028 328.276 Q158.218 328.276 155.14 323.692 Q152.084 319.086 152.084 310.359 Q152.084 301.609 155.14 297.026 Q158.218 292.419 164.028 292.419 Z" fill="#000000" fill-rule="nonzero" fill-opacity="1" /><path clip-path="url(#clip530)" d="M184.19 321.725 L189.075 321.725 L189.075 327.604 L184.19 327.604 L184.19 321.725 Z" fill="#000000" fill-rule="nonzero" fill-opacity="1" /><path clip-path="url(#clip530)" d="M209.26 296.123 Q205.649 296.123 203.82 299.688 Q202.014 303.23 202.014 310.359 Q202.014 317.466 203.82 321.03 Q205.649 324.572 209.26 324.572 Q212.894 324.572 214.699 321.03 Q216.528 317.466 216.528 310.359 Q216.528 303.23 214.699 299.688 Q212.894 296.123 209.26 296.123 M209.26 292.419 Q215.07 292.419 218.125 297.026 Q221.204 301.609 221.204 310.359 Q221.204 319.086 218.125 323.692 Q215.07 328.276 209.26 328.276 Q203.449 328.276 200.371 323.692 Q197.315 319.086 197.315 310.359 Q197.315 301.609 200.371 297.026 Q203.449 292.419 209.26 292.419 Z" fill="#000000" fill-rule="nonzero" fill-opacity="1" /><path clip-path="url(#clip530)" d="M239.422 296.123 Q235.81 296.123 233.982 299.688 Q232.176 303.23 232.176 310.359 Q232.176 317.466 233.982 321.03 Q235.81 324.572 239.422 324.572 Q243.056 324.572 244.861 321.03 Q246.69 317.466 246.69 310.359 Q246.69 303.23 244.861 299.688 Q243.056 296.123 239.422 296.123 M239.422 292.419 Q245.232 292.419 248.287 297.026 Q251.366 301.609 251.366 310.359 Q251.366 319.086 248.287 323.692 Q245.232 328.276 239.422 328.276 Q233.611 328.276 230.533 323.692 Q227.477 319.086 227.477 310.359 Q227.477 301.609 230.533 297.026 Q233.611 292.419 239.422 292.419 Z" fill="#000000" fill-rule="nonzero" fill-opacity="1" /><path clip-path="url(#clip530)" d="M67.3143 977.633 Q73.68 980.116 75.6216 982.471 Q77.5631 984.827 77.5631 988.773 L77.5631 993.452 L72.6615 993.452 L72.6615 990.015 Q72.6615 987.596 71.5157 986.259 Q70.3699 984.922 66.1048 983.299 L63.4312 982.248 L28.3562 996.667 L28.3562 990.46 L56.238 979.32 L28.3562 968.18 L28.3562 961.974 L67.3143 977.633 Z" fill="#000000" fill-rule="nonzero" fill-opacity="1" /><path clip-path="url(#clip530)" d="M43.5384 957.995 L43.5384 940.84 L48.7583 940.84 L48.7583 957.995 L43.5384 957.995 Z" fill="#000000" fill-rule="nonzero" fill-opacity="1" /><path clip-path="url(#clip530)" d="M58.657 925.848 L77.5631 925.848 L77.5631 931.737 L28.3562 931.737 L28.3562 925.848 L33.7671 925.848 Q30.5842 924.002 29.0564 921.201 Q27.4968 918.369 27.4968 914.454 Q27.4968 907.961 32.6531 903.918 Q37.8093 899.844 46.212 899.844 Q54.6147 899.844 59.771 903.918 Q64.9272 907.961 64.9272 914.454 Q64.9272 918.369 63.3994 921.201 Q61.8398 924.002 58.657 925.848 M46.212 905.924 Q39.7508 905.924 36.0905 908.597 Q32.3984 911.239 32.3984 915.886 Q32.3984 920.533 36.0905 923.207 Q39.7508 925.848 46.212 925.848 Q52.6732 925.848 56.3653 923.207 Q60.0256 920.533 60.0256 915.886 Q60.0256 911.239 56.3653 908.597 Q52.6732 905.924 46.212 905.924 Z" fill="#000000" fill-rule="nonzero" fill-opacity="1" /><path clip-path="url(#clip530)" d="M32.4621 876.323 Q32.4621 881.034 36.1542 883.771 Q39.8145 886.508 46.212 886.508 Q52.6095 886.508 56.3017 883.803 Q59.9619 881.066 59.9619 876.323 Q59.9619 871.644 56.2698 868.907 Q52.5777 866.17 46.212 866.17 Q39.8781 866.17 36.186 868.907 Q32.4621 871.644 32.4621 876.323 M27.4968 876.323 Q27.4968 868.684 32.4621 864.324 Q37.4273 859.963 46.212 859.963 Q54.9649 859.963 59.9619 864.324 Q64.9272 868.684 64.9272 876.323 Q64.9272 883.994 59.9619 888.354 Q54.9649 892.683 46.212 892.683 Q37.4273 892.683 32.4621 888.354 Q27.4968 883.994 27.4968 876.323 Z" fill="#000000" fill-rule="nonzero" fill-opacity="1" /><path clip-path="url(#clip530)" d="M29.4065 827.53 L34.9447 827.53 Q33.6716 830.013 33.035 832.686 Q32.3984 835.36 32.3984 838.224 Q32.3984 842.585 33.7352 844.781 Q35.072 846.945 37.7456 846.945 Q39.7826 846.945 40.9603 845.386 Q42.1061 843.826 43.1565 839.116 L43.6021 837.11 Q44.9389 830.872 47.3897 828.262 Q49.8086 825.62 54.1691 825.62 Q59.1344 825.62 62.0308 829.567 Q64.9272 833.482 64.9272 840.357 Q64.9272 843.221 64.3543 846.341 Q63.8132 849.428 62.6992 852.865 L56.6518 852.865 Q58.3387 849.619 59.198 846.468 Q60.0256 843.317 60.0256 840.23 Q60.0256 836.092 58.6251 833.864 Q57.1929 831.636 54.6147 831.636 Q52.2276 831.636 50.9545 833.259 Q49.6813 834.851 48.5037 840.293 L48.0262 842.33 Q46.8804 847.773 44.5251 850.192 Q42.138 852.611 38.0002 852.611 Q32.9713 852.611 30.2341 849.046 Q27.4968 845.481 27.4968 838.925 Q27.4968 835.678 27.9743 832.814 Q28.4517 829.949 29.4065 827.53 Z" fill="#000000" fill-rule="nonzero" fill-opacity="1" /><path clip-path="url(#clip530)" d="M28.3562 816.295 L28.3562 810.438 L64.0042 810.438 L64.0042 816.295 L28.3562 816.295 M14.479 816.295 L14.479 810.438 L21.895 810.438 L21.895 816.295 L14.479 816.295 Z" fill="#000000" fill-rule="nonzero" fill-opacity="1" /><path clip-path="url(#clip530)" d="M18.2347 792.391 L28.3562 792.391 L28.3562 780.328 L32.9077 780.328 L32.9077 792.391 L52.2594 792.391 Q56.6199 792.391 57.8613 791.214 Q59.1026 790.004 59.1026 786.344 L59.1026 780.328 L64.0042 780.328 L64.0042 786.344 Q64.0042 793.123 61.4897 795.701 Q58.9434 798.28 52.2594 798.28 L32.9077 798.28 L32.9077 802.576 L28.3562 802.576 L28.3562 798.28 L18.2347 798.28 L18.2347 792.391 Z" fill="#000000" fill-rule="nonzero" fill-opacity="1" /><path clip-path="url(#clip530)" d="M28.3562 772.626 L28.3562 766.769 L64.0042 766.769 L64.0042 772.626 L28.3562 772.626 M14.479 772.626 L14.479 766.769 L21.895 766.769 L21.895 772.626 L14.479 772.626 Z" fill="#000000" fill-rule="nonzero" fill-opacity="1" /><path clip-path="url(#clip530)" d="M32.4621 740.702 Q32.4621 745.412 36.1542 748.15 Q39.8145 750.887 46.212 750.887 Q52.6095 750.887 56.3017 748.181 Q59.9619 745.444 59.9619 740.702 Q59.9619 736.023 56.2698 733.286 Q52.5777 730.548 46.212 730.548 Q39.8781 730.548 36.186 733.286 Q32.4621 736.023 32.4621 740.702 M27.4968 740.702 Q27.4968 733.063 32.4621 728.702 Q37.4273 724.342 46.212 724.342 Q54.9649 724.342 59.9619 728.702 Q64.9272 733.063 64.9272 740.702 Q64.9272 748.372 59.9619 752.733 Q54.9649 757.062 46.212 757.062 Q37.4273 757.062 32.4621 752.733 Q27.4968 748.372 27.4968 740.702 Z" fill="#000000" fill-rule="nonzero" fill-opacity="1" /><path clip-path="url(#clip530)" d="M42.4881 685.002 L64.0042 685.002 L64.0042 690.858 L42.679 690.858 Q37.6183 690.858 35.1038 692.832 Q32.5894 694.805 32.5894 698.752 Q32.5894 703.494 35.6131 706.231 Q38.6368 708.969 43.8567 708.969 L64.0042 708.969 L64.0042 714.857 L28.3562 714.857 L28.3562 708.969 L33.8944 708.969 Q30.6797 706.868 29.0883 704.035 Q27.4968 701.171 27.4968 697.447 Q27.4968 691.304 31.3163 688.153 Q35.1038 685.002 42.4881 685.002 Z" fill="#000000" fill-rule="nonzero" fill-opacity="1" /><path clip-path="url(#clip530)" d="M14.5426 638.532 Q21.8632 642.797 29.0246 644.866 Q36.186 646.935 43.5384 646.935 Q50.8908 646.935 58.1159 644.866 Q65.3091 642.765 72.5979 638.532 L72.5979 643.625 Q65.1182 648.399 57.8931 650.786 Q50.668 653.141 43.5384 653.141 Q36.4406 653.141 29.2474 650.786 Q22.0542 648.431 14.5426 643.625 L14.5426 638.532 Z" fill="#000000" fill-rule="nonzero" fill-opacity="1" /><path clip-path="url(#clip530)" d="M35.1993 599.415 Q31.2526 597.219 29.3747 594.163 Q27.4968 591.108 27.4968 586.97 Q27.4968 581.4 31.4117 578.376 Q35.2948 575.353 42.4881 575.353 L64.0042 575.353 L64.0042 581.241 L42.679 581.241 Q37.5546 581.241 35.072 583.055 Q32.5894 584.869 32.5894 588.593 Q32.5894 593.145 35.6131 595.786 Q38.6368 598.428 43.8567 598.428 L64.0042 598.428 L64.0042 604.316 L42.679 604.316 Q37.5228 604.316 35.072 606.131 Q32.5894 607.945 32.5894 611.733 Q32.5894 616.22 35.6449 618.862 Q38.6686 621.504 43.8567 621.504 L64.0042 621.504 L64.0042 627.392 L28.3562 627.392 L28.3562 621.504 L33.8944 621.504 Q30.616 619.499 29.0564 616.698 Q27.4968 613.897 27.4968 610.046 Q27.4968 606.163 29.4702 603.457 Q31.4436 600.72 35.1993 599.415 Z" fill="#000000" fill-rule="nonzero" fill-opacity="1" /><path clip-path="url(#clip530)" d="M14.5426 564.594 L14.5426 559.502 Q22.0542 554.728 29.2474 552.372 Q36.4406 549.985 43.5384 549.985 Q50.668 549.985 57.8931 552.372 Q65.1182 554.728 72.5979 559.502 L72.5979 564.594 Q65.3091 560.361 58.1159 558.292 Q50.8908 556.192 43.5384 556.192 Q36.186 556.192 29.0246 558.292 Q21.8632 560.361 14.5426 564.594 Z" fill="#000000" fill-rule="nonzero" fill-opacity="1" /><path clip-path="url(#clip530)" d="M352.15 18.8205 L352.15 41.5461 L362.439 41.5461 Q368.151 41.5461 371.27 38.5889 Q374.389 35.6318 374.389 30.163 Q374.389 24.7348 371.27 21.7777 Q368.151 18.8205 362.439 18.8205 L352.15 18.8205 M343.967 12.096 L362.439 12.096 Q372.607 12.096 377.792 16.714 Q383.018 21.2916 383.018 30.163 Q383.018 39.1155 377.792 43.6931 Q372.607 48.2706 362.439 48.2706 L352.15 48.2706 L352.15 72.576 L343.967 72.576 L343.967 12.096 Z" fill="#000000" fill-rule="nonzero" fill-opacity="1" /><path clip-path="url(#clip530)" d="M429.522 48.0275 L429.522 51.6733 L395.252 51.6733 Q395.738 59.3701 399.87 63.421 Q404.042 67.4314 411.455 67.4314 Q415.749 67.4314 419.759 66.3781 Q423.81 65.3249 427.78 63.2184 L427.78 70.267 Q423.77 71.9684 419.557 72.8596 Q415.344 73.7508 411.01 73.7508 Q400.153 73.7508 393.793 67.4314 Q387.474 61.1119 387.474 50.3365 Q387.474 39.1965 393.469 32.6746 Q399.505 26.1121 409.713 26.1121 Q418.868 26.1121 424.175 32.0264 Q429.522 37.9003 429.522 48.0275 M422.068 45.84 Q421.987 39.7232 418.625 36.0774 Q415.303 32.4315 409.794 32.4315 Q403.556 32.4315 399.789 35.9558 Q396.062 39.4801 395.495 45.8805 L422.068 45.84 Z" fill="#000000" fill-rule="nonzero" fill-opacity="1" /><path clip-path="url(#clip530)" d="M479.47 45.1919 L479.47 72.576 L472.016 72.576 L472.016 45.4349 Q472.016 38.994 469.505 35.7938 Q466.993 32.5936 461.97 32.5936 Q455.934 32.5936 452.45 36.4419 Q448.966 40.2903 448.966 46.9338 L448.966 72.576 L441.472 72.576 L441.472 27.2059 L448.966 27.2059 L448.966 34.2544 Q451.64 30.163 455.245 28.1376 Q458.891 26.1121 463.631 26.1121 Q471.449 26.1121 475.459 30.9732 Q479.47 35.7938 479.47 45.1919 Z" fill="#000000" fill-rule="nonzero" fill-opacity="1" /><path clip-path="url(#clip530)" d="M524.192 34.0924 L524.192 9.54393 L531.645 9.54393 L531.645 72.576 L524.192 72.576 L524.192 65.7705 Q521.842 69.8214 518.237 71.8063 Q514.672 73.7508 509.649 73.7508 Q501.426 73.7508 496.241 67.1883 Q491.096 60.6258 491.096 49.9314 Q491.096 39.2371 496.241 32.6746 Q501.426 26.1121 509.649 26.1121 Q514.672 26.1121 518.237 28.0971 Q521.842 30.0415 524.192 34.0924 M498.793 49.9314 Q498.793 58.1548 502.155 62.8538 Q505.558 67.5124 511.472 67.5124 Q517.386 67.5124 520.789 62.8538 Q524.192 58.1548 524.192 49.9314 Q524.192 41.7081 520.789 37.0496 Q517.386 32.3505 511.472 32.3505 Q505.558 32.3505 502.155 37.0496 Q498.793 41.7081 498.793 49.9314 Z" fill="#000000" fill-rule="nonzero" fill-opacity="1" /><path clip-path="url(#clip530)" d="M546.229 54.671 L546.229 27.2059 L553.682 27.2059 L553.682 54.3874 Q553.682 60.8284 556.194 64.0691 Q558.705 67.2693 563.729 67.2693 Q569.764 67.2693 573.248 63.421 Q576.773 59.5726 576.773 52.9291 L576.773 27.2059 L584.226 27.2059 L584.226 72.576 L576.773 72.576 L576.773 65.6084 Q574.058 69.7404 570.453 71.7658 Q566.888 73.7508 562.149 73.7508 Q554.331 73.7508 550.28 68.8897 Q546.229 64.0286 546.229 54.671 M564.984 26.1121 L564.984 26.1121 Z" fill="#000000" fill-rule="nonzero" fill-opacity="1" /><path clip-path="url(#clip530)" d="M599.579 9.54393 L607.033 9.54393 L607.033 72.576 L599.579 72.576 L599.579 9.54393 Z" fill="#000000" fill-rule="nonzero" fill-opacity="1" /><path clip-path="url(#clip530)" d="M621.859 54.671 L621.859 27.2059 L629.313 27.2059 L629.313 54.3874 Q629.313 60.8284 631.824 64.0691 Q634.336 67.2693 639.359 67.2693 Q645.395 67.2693 648.879 63.421 Q652.403 59.5726 652.403 52.9291 L652.403 27.2059 L659.857 27.2059 L659.857 72.576 L652.403 72.576 L652.403 65.6084 Q649.689 69.7404 646.083 71.7658 Q642.519 73.7508 637.779 73.7508 Q629.961 73.7508 625.91 68.8897 Q621.859 64.0286 621.859 54.671 M640.615 26.1121 L640.615 26.1121 Z" fill="#000000" fill-rule="nonzero" fill-opacity="1" /><path clip-path="url(#clip530)" d="M710.533 35.9153 Q713.329 30.8922 717.217 28.5022 Q721.106 26.1121 726.372 26.1121 Q733.462 26.1121 737.31 31.0947 Q741.158 36.0368 741.158 45.1919 L741.158 72.576 L733.664 72.576 L733.664 45.4349 Q733.664 38.913 731.355 35.7533 Q729.046 32.5936 724.306 32.5936 Q718.514 32.5936 715.151 36.4419 Q711.789 40.2903 711.789 46.9338 L711.789 72.576 L704.295 72.576 L704.295 45.4349 Q704.295 38.8725 701.986 35.7533 Q699.677 32.5936 694.856 32.5936 Q689.145 32.5936 685.782 36.4824 Q682.42 40.3308 682.42 46.9338 L682.42 72.576 L674.926 72.576 L674.926 27.2059 L682.42 27.2059 L682.42 34.2544 Q684.972 30.082 688.537 28.0971 Q692.102 26.1121 697.003 26.1121 Q701.945 26.1121 705.389 28.6237 Q708.873 31.1352 710.533 35.9153 Z" fill="#000000" fill-rule="nonzero" fill-opacity="1" /><path clip-path="url(#clip530)" d="M828.01 16.7545 L828.01 25.383 Q823.878 21.5346 819.179 19.6307 Q814.52 17.7268 809.254 17.7268 Q798.884 17.7268 793.374 24.0867 Q787.865 30.4061 787.865 42.3968 Q787.865 54.3469 793.374 60.7069 Q798.884 67.0263 809.254 67.0263 Q814.52 67.0263 819.179 65.1223 Q823.878 63.2184 828.01 59.3701 L828.01 67.9175 Q823.716 70.8341 818.895 72.2924 Q814.115 73.7508 808.768 73.7508 Q795.035 73.7508 787.136 65.3654 Q779.237 56.9395 779.237 42.3968 Q779.237 27.8135 787.136 19.4281 Q795.035 11.0023 808.768 11.0023 Q814.196 11.0023 818.976 12.4606 Q823.797 13.8784 828.01 16.7545 Z" fill="#000000" fill-rule="nonzero" fill-opacity="1" /><path clip-path="url(#clip530)" d="M857.905 32.4315 Q851.91 32.4315 848.426 37.1306 Q844.942 41.7891 844.942 49.9314 Q844.942 58.0738 848.386 62.7728 Q851.869 67.4314 857.905 67.4314 Q863.86 67.4314 867.344 62.7323 Q870.828 58.0333 870.828 49.9314 Q870.828 41.8701 867.344 37.1711 Q863.86 32.4315 857.905 32.4315 M857.905 26.1121 Q867.627 26.1121 873.177 32.4315 Q878.727 38.7509 878.727 49.9314 Q878.727 61.0714 873.177 67.4314 Q867.627 73.7508 857.905 73.7508 Q848.143 73.7508 842.593 67.4314 Q837.084 61.0714 837.084 49.9314 Q837.084 38.7509 842.593 32.4315 Q848.143 26.1121 857.905 26.1121 Z" fill="#000000" fill-rule="nonzero" fill-opacity="1" /><path clip-path="url(#clip530)" d="M928.796 45.1919 L928.796 72.576 L921.342 72.576 L921.342 45.4349 Q921.342 38.994 918.831 35.7938 Q916.319 32.5936 911.296 32.5936 Q905.26 32.5936 901.777 36.4419 Q898.293 40.2903 898.293 46.9338 L898.293 72.576 L890.799 72.576 L890.799 27.2059 L898.293 27.2059 L898.293 34.2544 Q900.966 30.163 904.572 28.1376 Q908.218 26.1121 912.957 26.1121 Q920.775 26.1121 924.786 30.9732 Q928.796 35.7938 928.796 45.1919 Z" fill="#000000" fill-rule="nonzero" fill-opacity="1" /><path clip-path="url(#clip530)" d="M966.632 9.54393 L966.632 15.7418 L959.502 15.7418 Q955.492 15.7418 953.912 17.3622 Q952.372 18.9825 952.372 23.1955 L952.372 27.2059 L964.647 27.2059 L964.647 32.9987 L952.372 32.9987 L952.372 72.576 L944.878 72.576 L944.878 32.9987 L937.749 32.9987 L937.749 27.2059 L944.878 27.2059 L944.878 24.0462 Q944.878 16.471 948.402 13.0277 Q951.927 9.54393 959.583 9.54393 L966.632 9.54393 Z" fill="#000000" fill-rule="nonzero" fill-opacity="1" /><path clip-path="url(#clip530)" d="M972.87 27.2059 L980.324 27.2059 L980.324 72.576 L972.87 72.576 L972.87 27.2059 M972.87 9.54393 L980.324 9.54393 L980.324 18.9825 L972.87 18.9825 L972.87 9.54393 Z" fill="#000000" fill-rule="nonzero" fill-opacity="1" /><path clip-path="url(#clip530)" d="M1025.77 49.3643 Q1025.77 41.2625 1022.41 36.8065 Q1019.09 32.3505 1013.05 32.3505 Q1007.06 32.3505 1003.7 36.8065 Q1000.38 41.2625 1000.38 49.3643 Q1000.38 57.4256 1003.7 61.8816 Q1007.06 66.3376 1013.05 66.3376 Q1019.09 66.3376 1022.41 61.8816 Q1025.77 57.4256 1025.77 49.3643 M1033.23 66.9452 Q1033.23 78.5308 1028.08 84.1616 Q1022.94 89.8329 1012.33 89.8329 Q1008.4 89.8329 1004.91 89.2252 Q1001.43 88.6581 998.148 87.4428 L998.148 80.1917 Q1001.43 81.9741 1004.63 82.8248 Q1007.83 83.6755 1011.15 83.6755 Q1018.48 83.6755 1022.13 79.8271 Q1025.77 76.0193 1025.77 68.282 L1025.77 64.5957 Q1023.47 68.6061 1019.86 70.5911 Q1016.26 72.576 1011.23 72.576 Q1002.89 72.576 997.783 66.2161 Q992.679 59.8562 992.679 49.3643 Q992.679 38.832 997.783 32.472 Q1002.89 26.1121 1011.23 26.1121 Q1016.26 26.1121 1019.86 28.0971 Q1023.47 30.082 1025.77 34.0924 L1025.77 27.2059 L1033.23 27.2059 L1033.23 66.9452 Z" fill="#000000" fill-rule="nonzero" fill-opacity="1" /><path clip-path="url(#clip530)" d="M1047.81 54.671 L1047.81 27.2059 L1055.27 27.2059 L1055.27 54.3874 Q1055.27 60.8284 1057.78 64.0691 Q1060.29 67.2693 1065.31 67.2693 Q1071.35 67.2693 1074.83 63.421 Q1078.36 59.5726 1078.36 52.9291 L1078.36 27.2059 L1085.81 27.2059 L1085.81 72.576 L1078.36 72.576 L1078.36 65.6084 Q1075.64 69.7404 1072.04 71.7658 Q1068.47 73.7508 1063.73 73.7508 Q1055.91 73.7508 1051.86 68.8897 Q1047.81 64.0286 1047.81 54.671 M1066.57 26.1121 L1066.57 26.1121 Z" fill="#000000" fill-rule="nonzero" fill-opacity="1" /><path clip-path="url(#clip530)" d="M1127.45 34.1734 Q1126.2 33.4443 1124.7 33.1202 Q1123.24 32.7556 1121.46 32.7556 Q1115.14 32.7556 1111.73 36.8875 Q1108.37 40.9789 1108.37 48.6757 L1108.37 72.576 L1100.88 72.576 L1100.88 27.2059 L1108.37 27.2059 L1108.37 34.2544 Q1110.72 30.1225 1114.49 28.1376 Q1118.26 26.1121 1123.64 26.1121 Q1124.41 26.1121 1125.35 26.2337 Q1126.28 26.3147 1127.41 26.5172 L1127.45 34.1734 Z" fill="#000000" fill-rule="nonzero" fill-opacity="1" /><path clip-path="url(#clip530)" d="M1155.89 49.7694 Q1146.86 49.7694 1143.37 51.8354 Q1139.89 53.9013 1139.89 58.8839 Q1139.89 62.8538 1142.48 65.2034 Q1145.11 67.5124 1149.61 67.5124 Q1155.81 67.5124 1159.54 63.1374 Q1163.3 58.7219 1163.3 51.4303 L1163.3 49.7694 L1155.89 49.7694 M1170.76 46.6907 L1170.76 72.576 L1163.3 72.576 L1163.3 65.6895 Q1160.75 69.8214 1156.94 71.8063 Q1153.14 73.7508 1147.63 73.7508 Q1140.66 73.7508 1136.53 69.8619 Q1132.44 65.9325 1132.44 59.3701 Q1132.44 51.7138 1137.54 47.825 Q1142.68 43.9361 1152.85 43.9361 L1163.3 43.9361 L1163.3 43.2069 Q1163.3 38.0623 1159.9 35.2672 Q1156.54 32.4315 1150.42 32.4315 Q1146.53 32.4315 1142.85 33.3632 Q1139.16 34.295 1135.76 36.1584 L1135.76 29.2718 Q1139.85 27.692 1143.7 26.9223 Q1147.54 26.1121 1151.19 26.1121 Q1161.03 26.1121 1165.9 31.2163 Q1170.76 36.3204 1170.76 46.6907 Z" fill="#000000" fill-rule="nonzero" fill-opacity="1" /><path clip-path="url(#clip530)" d="M1193.48 14.324 L1193.48 27.2059 L1208.84 27.2059 L1208.84 32.9987 L1193.48 32.9987 L1193.48 57.6282 Q1193.48 63.1779 1194.98 64.7578 Q1196.52 66.3376 1201.18 66.3376 L1208.84 66.3376 L1208.84 72.576 L1201.18 72.576 Q1192.55 72.576 1189.27 69.3758 Q1185.99 66.1351 1185.99 57.6282 L1185.99 32.9987 L1180.52 32.9987 L1180.52 27.2059 L1185.99 27.2059 L1185.99 14.324 L1193.48 14.324 Z" fill="#000000" fill-rule="nonzero" fill-opacity="1" /><path clip-path="url(#clip530)" d="M1218.64 27.2059 L1226.09 27.2059 L1226.09 72.576 L1218.64 72.576 L1218.64 27.2059 M1218.64 9.54393 L1226.09 9.54393 L1226.09 18.9825 L1218.64 18.9825 L1218.64 9.54393 Z" fill="#000000" fill-rule="nonzero" fill-opacity="1" /><path clip-path="url(#clip530)" d="M1259.27 32.4315 Q1253.27 32.4315 1249.79 37.1306 Q1246.31 41.7891 1246.31 49.9314 Q1246.31 58.0738 1249.75 62.7728 Q1253.23 67.4314 1259.27 67.4314 Q1265.22 67.4314 1268.71 62.7323 Q1272.19 58.0333 1272.19 49.9314 Q1272.19 41.8701 1268.71 37.1711 Q1265.22 32.4315 1259.27 32.4315 M1259.27 26.1121 Q1268.99 26.1121 1274.54 32.4315 Q1280.09 38.7509 1280.09 49.9314 Q1280.09 61.0714 1274.54 67.4314 Q1268.99 73.7508 1259.27 73.7508 Q1249.51 73.7508 1243.96 67.4314 Q1238.45 61.0714 1238.45 49.9314 Q1238.45 38.7509 1243.96 32.4315 Q1249.51 26.1121 1259.27 26.1121 Z" fill="#000000" fill-rule="nonzero" fill-opacity="1" /><path clip-path="url(#clip530)" d="M1330.16 45.1919 L1330.16 72.576 L1322.71 72.576 L1322.71 45.4349 Q1322.71 38.994 1320.19 35.7938 Q1317.68 32.5936 1312.66 32.5936 Q1306.62 32.5936 1303.14 36.4419 Q1299.66 40.2903 1299.66 46.9338 L1299.66 72.576 L1292.16 72.576 L1292.16 27.2059 L1299.66 27.2059 L1299.66 34.2544 Q1302.33 30.163 1305.94 28.1376 Q1309.58 26.1121 1314.32 26.1121 Q1322.14 26.1121 1326.15 30.9732 Q1330.16 35.7938 1330.16 45.1919 Z" fill="#000000" fill-rule="nonzero" fill-opacity="1" /><path clip-path="url(#clip530)" d="M1407.98 14.0809 L1407.98 22.0612 Q1403.32 19.8332 1399.19 18.7395 Q1395.06 17.6457 1391.21 17.6457 Q1384.52 17.6457 1380.88 20.2383 Q1377.27 22.8309 1377.27 27.611 Q1377.27 31.6214 1379.66 33.6873 Q1382.09 35.7128 1388.82 36.9686 L1393.76 37.9813 Q1402.91 39.7232 1407.25 44.1387 Q1411.62 48.5136 1411.62 55.8863 Q1411.62 64.6767 1405.71 69.2137 Q1399.84 73.7508 1388.45 73.7508 Q1384.16 73.7508 1379.3 72.7785 Q1374.48 71.8063 1369.29 69.9024 L1369.29 61.4765 Q1374.27 64.2716 1379.05 65.6895 Q1383.83 67.1073 1388.45 67.1073 Q1395.46 67.1073 1399.27 64.3527 Q1403.08 61.598 1403.08 56.4939 Q1403.08 52.0379 1400.32 49.5264 Q1397.61 47.0148 1391.37 45.759 L1386.39 44.7868 Q1377.23 42.9639 1373.14 39.075 Q1369.05 35.1862 1369.05 28.2591 Q1369.05 20.2383 1374.68 15.6203 Q1380.35 11.0023 1390.28 11.0023 Q1394.53 11.0023 1398.94 11.7719 Q1403.36 12.5416 1407.98 14.0809 Z" fill="#000000" fill-rule="nonzero" fill-opacity="1" /><path clip-path="url(#clip530)" d="M1461.77 45.1919 L1461.77 72.576 L1454.32 72.576 L1454.32 45.4349 Q1454.32 38.994 1451.81 35.7938 Q1449.3 32.5936 1444.27 32.5936 Q1438.24 32.5936 1434.75 36.4419 Q1431.27 40.2903 1431.27 46.9338 L1431.27 72.576 L1423.78 72.576 L1423.78 27.2059 L1431.27 27.2059 L1431.27 34.2544 Q1433.94 30.163 1437.55 28.1376 Q1441.19 26.1121 1445.93 26.1121 Q1453.75 26.1121 1457.76 30.9732 Q1461.77 35.7938 1461.77 45.1919 Z" fill="#000000" fill-rule="nonzero" fill-opacity="1" /><path clip-path="url(#clip530)" d="M1497.26 49.7694 Q1488.23 49.7694 1484.74 51.8354 Q1481.26 53.9013 1481.26 58.8839 Q1481.26 62.8538 1483.85 65.2034 Q1486.48 67.5124 1490.98 67.5124 Q1497.18 67.5124 1500.91 63.1374 Q1504.67 58.7219 1504.67 51.4303 L1504.67 49.7694 L1497.26 49.7694 M1512.13 46.6907 L1512.13 72.576 L1504.67 72.576 L1504.67 65.6895 Q1502.12 69.8214 1498.31 71.8063 Q1494.5 73.7508 1489 73.7508 Q1482.03 73.7508 1477.9 69.8619 Q1473.8 65.9325 1473.8 59.3701 Q1473.8 51.7138 1478.91 47.825 Q1484.05 43.9361 1494.22 43.9361 L1504.67 43.9361 L1504.67 43.2069 Q1504.67 38.0623 1501.27 35.2672 Q1497.91 32.4315 1491.79 32.4315 Q1487.9 32.4315 1484.22 33.3632 Q1480.53 34.295 1477.13 36.1584 L1477.13 29.2718 Q1481.22 27.692 1485.07 26.9223 Q1488.91 26.1121 1492.56 26.1121 Q1502.4 26.1121 1507.27 31.2163 Q1512.13 36.3204 1512.13 46.6907 Z" fill="#000000" fill-rule="nonzero" fill-opacity="1" /><path clip-path="url(#clip530)" d="M1534.69 65.7705 L1534.69 89.8329 L1527.2 89.8329 L1527.2 27.2059 L1534.69 27.2059 L1534.69 34.0924 Q1537.04 30.0415 1540.6 28.0971 Q1544.21 26.1121 1549.19 26.1121 Q1557.46 26.1121 1562.6 32.6746 Q1567.79 39.2371 1567.79 49.9314 Q1567.79 60.6258 1562.6 67.1883 Q1557.46 73.7508 1549.19 73.7508 Q1544.21 73.7508 1540.6 71.8063 Q1537.04 69.8214 1534.69 65.7705 M1560.05 49.9314 Q1560.05 41.7081 1556.65 37.0496 Q1553.28 32.3505 1547.37 32.3505 Q1541.45 32.3505 1538.05 37.0496 Q1534.69 41.7081 1534.69 49.9314 Q1534.69 58.1548 1538.05 62.8538 Q1541.45 67.5124 1547.37 67.5124 Q1553.28 67.5124 1556.65 62.8538 Q1560.05 58.1548 1560.05 49.9314 Z" fill="#000000" fill-rule="nonzero" fill-opacity="1" /><path clip-path="url(#clip530)" d="M1609.06 28.5427 L1609.06 35.5912 Q1605.9 33.9709 1602.5 33.1607 Q1599.1 32.3505 1595.45 32.3505 Q1589.9 32.3505 1587.11 34.0519 Q1584.35 35.7533 1584.35 39.156 Q1584.35 41.7486 1586.34 43.2475 Q1588.32 44.7058 1594.32 46.0426 L1596.87 46.6097 Q1604.81 48.3111 1608.13 51.4303 Q1611.49 54.509 1611.49 60.0587 Q1611.49 66.3781 1606.47 70.0644 Q1601.49 73.7508 1592.74 73.7508 Q1589.09 73.7508 1585.12 73.0216 Q1581.19 72.3329 1576.82 70.9151 L1576.82 63.2184 Q1580.95 65.3654 1584.96 66.4591 Q1588.97 67.5124 1592.9 67.5124 Q1598.17 67.5124 1601 65.73 Q1603.84 63.9071 1603.84 60.6258 Q1603.84 57.5877 1601.77 55.9673 Q1599.75 54.3469 1592.82 52.8481 L1590.23 52.2405 Q1583.3 50.7821 1580.22 47.7845 Q1577.14 44.7463 1577.14 39.4801 Q1577.14 33.0797 1581.68 29.5959 Q1586.22 26.1121 1594.56 26.1121 Q1598.69 26.1121 1602.34 26.7198 Q1605.99 27.3274 1609.06 28.5427 Z" fill="#000000" fill-rule="nonzero" fill-opacity="1" /><path clip-path="url(#clip530)" d="M1661.08 45.1919 L1661.08 72.576 L1653.62 72.576 L1653.62 45.4349 Q1653.62 38.994 1651.11 35.7938 Q1648.6 32.5936 1643.58 32.5936 Q1637.54 32.5936 1634.06 36.4419 Q1630.57 40.2903 1630.57 46.9338 L1630.57 72.576 L1623.08 72.576 L1623.08 9.54393 L1630.57 9.54393 L1630.57 34.2544 Q1633.25 30.163 1636.85 28.1376 Q1640.5 26.1121 1645.24 26.1121 Q1653.06 26.1121 1657.07 30.9732 Q1661.08 35.7938 1661.08 45.1919 Z" fill="#000000" fill-rule="nonzero" fill-opacity="1" /><path clip-path="url(#clip530)" d="M1693.53 32.4315 Q1687.53 32.4315 1684.05 37.1306 Q1680.56 41.7891 1680.56 49.9314 Q1680.56 58.0738 1684.01 62.7728 Q1687.49 67.4314 1693.53 67.4314 Q1699.48 67.4314 1702.96 62.7323 Q1706.45 58.0333 1706.45 49.9314 Q1706.45 41.8701 1702.96 37.1711 Q1699.48 32.4315 1693.53 32.4315 M1693.53 26.1121 Q1703.25 26.1121 1708.8 32.4315 Q1714.35 38.7509 1714.35 49.9314 Q1714.35 61.0714 1708.8 67.4314 Q1703.25 73.7508 1693.53 73.7508 Q1683.76 73.7508 1678.21 67.4314 Q1672.7 61.0714 1672.7 49.9314 Q1672.7 38.7509 1678.21 32.4315 Q1683.76 26.1121 1693.53 26.1121 Z" fill="#000000" fill-rule="nonzero" fill-opacity="1" /><path clip-path="url(#clip530)" d="M1734.08 14.324 L1734.08 27.2059 L1749.43 27.2059 L1749.43 32.9987 L1734.08 32.9987 L1734.08 57.6282 Q1734.08 63.1779 1735.57 64.7578 Q1737.11 66.3376 1741.77 66.3376 L1749.43 66.3376 L1749.43 72.576 L1741.77 72.576 Q1733.14 72.576 1729.86 69.3758 Q1726.58 66.1351 1726.58 57.6282 L1726.58 32.9987 L1721.11 32.9987 L1721.11 27.2059 L1726.58 27.2059 L1726.58 14.324 L1734.08 14.324 Z" fill="#000000" fill-rule="nonzero" fill-opacity="1" /><path clip-path="url(#clip530)" d="M1788.15 28.5427 L1788.15 35.5912 Q1785 33.9709 1781.59 33.1607 Q1778.19 32.3505 1774.54 32.3505 Q1768.99 32.3505 1766.2 34.0519 Q1763.44 35.7533 1763.44 39.156 Q1763.44 41.7486 1765.43 43.2475 Q1767.41 44.7058 1773.41 46.0426 L1775.96 46.6097 Q1783.9 48.3111 1787.22 51.4303 Q1790.59 54.509 1790.59 60.0587 Q1790.59 66.3781 1785.56 70.0644 Q1780.58 73.7508 1771.83 73.7508 Q1768.18 73.7508 1764.21 73.0216 Q1760.28 72.3329 1755.91 70.9151 L1755.91 63.2184 Q1760.04 65.3654 1764.05 66.4591 Q1768.06 67.5124 1771.99 67.5124 Q1777.26 67.5124 1780.09 65.73 Q1782.93 63.9071 1782.93 60.6258 Q1782.93 57.5877 1780.86 55.9673 Q1778.84 54.3469 1771.91 52.8481 L1769.32 52.2405 Q1762.39 50.7821 1759.31 47.7845 Q1756.23 44.7463 1756.23 39.4801 Q1756.23 33.0797 1760.77 29.5959 Q1765.31 26.1121 1773.65 26.1121 Q1777.78 26.1121 1781.43 26.7198 Q1785.08 27.3274 1788.15 28.5427 Z" fill="#000000" fill-rule="nonzero" fill-opacity="1" /><polyline clip-path="url(#clip532)" style="stroke:#009af9; stroke-linecap:round; stroke-linejoin:round; stroke-width:8; stroke-opacity:1; fill:none" points="932.221,310.324 1587.01,965.116 "/>
<circle clip-path="url(#clip532)" cx="1259.62" cy="637.72" r="14.4" fill="#e26f46" fill-rule="evenodd" fill-opacity="1" stroke="#000000" stroke-opacity="1" stroke-width="3.2"/>
<polyline clip-path="url(#clip532)" style="stroke:#3da44d; stroke-linecap:round; stroke-linejoin:round; stroke-width:8; stroke-opacity:1; fill:none" points="642.212,310.324 547.54,1231.49 "/>
<circle clip-path="url(#clip532)" cx="594.876" cy="770.906" r="14.4" fill="#c271d2" fill-rule="evenodd" fill-opacity="1" stroke="#000000" stroke-opacity="1" stroke-width="3.2"/>
<polyline clip-path="url(#clip532)" style="stroke:#ac8d18; stroke-linecap:round; stroke-linejoin:round; stroke-width:8; stroke-opacity:1; fill:none" points="791.298,310.324 764.893,1235.96 "/>
<circle clip-path="url(#clip532)" cx="778.096" cy="773.143" r="14.4" fill="#00a9ad" fill-rule="evenodd" fill-opacity="1" stroke="#000000" stroke-opacity="1" stroke-width="3.2"/>
<polyline clip-path="url(#clip532)" style="stroke:#ed5d92; stroke-linecap:round; stroke-linejoin:round; stroke-width:8; stroke-opacity:1; fill:none" points="852.532,310.324 893.704,1235.42 "/>
<circle clip-path="url(#clip532)" cx="873.118" cy="772.874" r="14.4" fill="#c68125" fill-rule="evenodd" fill-opacity="1" stroke="#000000" stroke-opacity="1" stroke-width="3.2"/>
<polyline clip-path="url(#clip532)" style="stroke:#00a98d; stroke-linecap:round; stroke-linejoin:round; stroke-width:8; stroke-opacity:1; fill:none" points="747.265,310.324 724.437,1236.06 "/>
<circle clip-path="url(#clip532)" cx="735.851" cy="773.191" r="14.4" fill="#8e971d" fill-rule="evenodd" fill-opacity="1" stroke="#000000" stroke-opacity="1" stroke-width="3.2"/>
<polyline clip-path="url(#clip532)" style="stroke:#00a8cb; stroke-linecap:round; stroke-linejoin:round; stroke-width:8; stroke-opacity:1; fill:none" points="796.31,310.324 800.929,1236.33 "/>
<circle clip-path="url(#clip532)" cx="798.619" cy="773.326" r="14.4" fill="#9b7fe8" fill-rule="evenodd" fill-opacity="1" stroke="#000000" stroke-opacity="1" stroke-width="3.2"/>
<path clip-path="url(#clip530)" d="M1916.03 972.17 L2352.76 972.17 L2352.76 609.29 L1916.03 609.29  Z" fill="#ffffff" fill-rule="evenodd" fill-opacity="1"/>
<polyline clip-path="url(#clip530)" style="stroke:#000000; stroke-linecap:round; stroke-linejoin:round; stroke-width:4; stroke-opacity:1; fill:none" points="1916.03,972.17 2352.76,972.17 2352.76,609.29 1916.03,609.29 1916.03,972.17 "/>
<polyline clip-path="url(#clip530)" style="stroke:#009af9; stroke-linecap:round; stroke-linejoin:round; stroke-width:8; stroke-opacity:1; fill:none" points="1938.98,661.13 2076.67,661.13 "/>
<path clip-path="url(#clip530)" d="M2107.03 645.123 L2107.03 652.484 L2115.8 652.484 L2115.8 655.794 L2107.03 655.794 L2107.03 669.868 Q2107.03 673.039 2107.89 673.942 Q2108.77 674.845 2111.43 674.845 L2115.8 674.845 L2115.8 678.41 L2111.43 678.41 Q2106.5 678.41 2104.62 676.581 Q2102.75 674.729 2102.75 669.868 L2102.75 655.794 L2099.62 655.794 L2099.62 652.484 L2102.75 652.484 L2102.75 645.123 L2107.03 645.123 Z" fill="#000000" fill-rule="nonzero" fill-opacity="1" /><path clip-path="url(#clip530)" d="M2137.03 656.882 L2166.71 656.882 L2166.71 660.771 L2137.03 660.771 L2137.03 656.882 M2137.03 666.326 L2166.71 666.326 L2166.71 670.261 L2137.03 670.261 L2137.03 666.326 Z" fill="#000000" fill-rule="nonzero" fill-opacity="1" /><path clip-path="url(#clip530)" d="M2201.87 646.928 Q2198.26 646.928 2196.43 650.493 Q2194.62 654.035 2194.62 661.164 Q2194.62 668.271 2196.43 671.836 Q2198.26 675.377 2201.87 675.377 Q2205.5 675.377 2207.31 671.836 Q2209.14 668.271 2209.14 661.164 Q2209.14 654.035 2207.31 650.493 Q2205.5 646.928 2201.87 646.928 M2201.87 643.225 Q2207.68 643.225 2210.73 647.831 Q2213.81 652.414 2213.81 661.164 Q2213.81 669.891 2210.73 674.498 Q2207.68 679.081 2201.87 679.081 Q2196.06 679.081 2192.98 674.498 Q2189.92 669.891 2189.92 661.164 Q2189.92 652.414 2192.98 647.831 Q2196.06 643.225 2201.87 643.225 Z" fill="#000000" fill-rule="nonzero" fill-opacity="1" /><path clip-path="url(#clip530)" d="M2222.03 672.53 L2226.91 672.53 L2226.91 678.41 L2222.03 678.41 L2222.03 672.53 Z" fill="#000000" fill-rule="nonzero" fill-opacity="1" /><path clip-path="url(#clip530)" d="M2247.1 646.928 Q2243.49 646.928 2241.66 650.493 Q2239.85 654.035 2239.85 661.164 Q2239.85 668.271 2241.66 671.836 Q2243.49 675.377 2247.1 675.377 Q2250.73 675.377 2252.54 671.836 Q2254.37 668.271 2254.37 661.164 Q2254.37 654.035 2252.54 650.493 Q2250.73 646.928 2247.1 646.928 M2247.1 643.225 Q2252.91 643.225 2255.96 647.831 Q2259.04 652.414 2259.04 661.164 Q2259.04 669.891 2255.96 674.498 Q2252.91 679.081 2247.1 679.081 Q2241.29 679.081 2238.21 674.498 Q2235.15 669.891 2235.15 661.164 Q2235.15 652.414 2238.21 647.831 Q2241.29 643.225 2247.1 643.225 Z" fill="#000000" fill-rule="nonzero" fill-opacity="1" /><path clip-path="url(#clip530)" d="M2298.26 653.248 L2298.26 657.275 Q2296.45 656.35 2294.51 655.887 Q2292.56 655.424 2290.48 655.424 Q2287.31 655.424 2285.71 656.396 Q2284.14 657.368 2284.14 659.312 Q2284.14 660.794 2285.27 661.65 Q2286.4 662.484 2289.83 663.248 L2291.29 663.572 Q2295.83 664.544 2297.72 666.326 Q2299.65 668.086 2299.65 671.257 Q2299.65 674.868 2296.77 676.974 Q2293.93 679.081 2288.93 679.081 Q2286.84 679.081 2284.58 678.664 Q2282.33 678.271 2279.83 677.461 L2279.83 673.062 Q2282.19 674.289 2284.48 674.914 Q2286.77 675.516 2289.02 675.516 Q2292.03 675.516 2293.65 674.498 Q2295.27 673.456 2295.27 671.581 Q2295.27 669.845 2294.09 668.919 Q2292.93 667.993 2288.97 667.136 L2287.49 666.789 Q2283.53 665.956 2281.77 664.243 Q2280.02 662.507 2280.02 659.498 Q2280.02 655.84 2282.61 653.85 Q2285.2 651.859 2289.97 651.859 Q2292.33 651.859 2294.41 652.206 Q2296.5 652.553 2298.26 653.248 Z" fill="#000000" fill-rule="nonzero" fill-opacity="1" /><polyline clip-path="url(#clip530)" style="stroke:#3da44d; stroke-linecap:round; stroke-linejoin:round; stroke-width:8; stroke-opacity:1; fill:none" points="1938.98,712.97 2076.67,712.97 "/>
<path clip-path="url(#clip530)" d="M2107.03 696.963 L2107.03 704.324 L2115.8 704.324 L2115.8 707.634 L2107.03 707.634 L2107.03 721.708 Q2107.03 724.879 2107.89 725.782 Q2108.77 726.685 2111.43 726.685 L2115.8 726.685 L2115.8 730.25 L2111.43 730.25 Q2106.5 730.25 2104.62 728.421 Q2102.75 726.569 2102.75 721.708 L2102.75 707.634 L2099.62 707.634 L2099.62 704.324 L2102.75 704.324 L2102.75 696.963 L2107.03 696.963 Z" fill="#000000" fill-rule="nonzero" fill-opacity="1" /><path clip-path="url(#clip530)" d="M2137.03 708.722 L2166.71 708.722 L2166.71 712.611 L2137.03 712.611 L2137.03 708.722 M2137.03 718.166 L2166.71 718.166 L2166.71 722.101 L2137.03 722.101 L2137.03 718.166 Z" fill="#000000" fill-rule="nonzero" fill-opacity="1" /><path clip-path="url(#clip530)" d="M2195.9 726.314 L2212.22 726.314 L2212.22 730.25 L2190.27 730.25 L2190.27 726.314 Q2192.93 723.56 2197.52 718.93 Q2202.12 714.277 2203.3 712.935 Q2205.55 710.412 2206.43 708.676 Q2207.33 706.916 2207.33 705.227 Q2207.33 702.472 2205.39 700.736 Q2203.47 699 2200.36 699 Q2198.16 699 2195.71 699.764 Q2193.28 700.528 2190.5 702.078 L2190.5 697.356 Q2193.33 696.222 2195.78 695.643 Q2198.23 695.065 2200.27 695.065 Q2205.64 695.065 2208.84 697.75 Q2212.03 700.435 2212.03 704.926 Q2212.03 707.055 2211.22 708.977 Q2210.43 710.875 2208.33 713.467 Q2207.75 714.139 2204.65 717.356 Q2201.54 720.551 2195.9 726.314 Z" fill="#000000" fill-rule="nonzero" fill-opacity="1" /><path clip-path="url(#clip530)" d="M2222.03 724.37 L2226.91 724.37 L2226.91 730.25 L2222.03 730.25 L2222.03 724.37 Z" fill="#000000" fill-rule="nonzero" fill-opacity="1" /><path clip-path="url(#clip530)" d="M2247.1 698.768 Q2243.49 698.768 2241.66 702.333 Q2239.85 705.875 2239.85 713.004 Q2239.85 720.111 2241.66 723.676 Q2243.49 727.217 2247.1 727.217 Q2250.73 727.217 2252.54 723.676 Q2254.37 720.111 2254.37 713.004 Q2254.37 705.875 2252.54 702.333 Q2250.73 698.768 2247.1 698.768 M2247.1 695.065 Q2252.91 695.065 2255.96 699.671 Q2259.04 704.254 2259.04 713.004 Q2259.04 721.731 2255.96 726.338 Q2252.91 730.921 2247.1 730.921 Q2241.29 730.921 2238.21 726.338 Q2235.15 721.731 2235.15 713.004 Q2235.15 704.254 2238.21 699.671 Q2241.29 695.065 2247.1 695.065 Z" fill="#000000" fill-rule="nonzero" fill-opacity="1" /><path clip-path="url(#clip530)" d="M2298.26 705.088 L2298.26 709.115 Q2296.45 708.19 2294.51 707.727 Q2292.56 707.264 2290.48 707.264 Q2287.31 707.264 2285.71 708.236 Q2284.14 709.208 2284.14 711.152 Q2284.14 712.634 2285.27 713.49 Q2286.4 714.324 2289.83 715.088 L2291.29 715.412 Q2295.83 716.384 2297.72 718.166 Q2299.65 719.926 2299.65 723.097 Q2299.65 726.708 2296.77 728.814 Q2293.93 730.921 2288.93 730.921 Q2286.84 730.921 2284.58 730.504 Q2282.33 730.111 2279.83 729.301 L2279.83 724.902 Q2282.19 726.129 2284.48 726.754 Q2286.77 727.356 2289.02 727.356 Q2292.03 727.356 2293.65 726.338 Q2295.27 725.296 2295.27 723.421 Q2295.27 721.685 2294.09 720.759 Q2292.93 719.833 2288.97 718.976 L2287.49 718.629 Q2283.53 717.796 2281.77 716.083 Q2280.02 714.347 2280.02 711.338 Q2280.02 707.68 2282.61 705.69 Q2285.2 703.699 2289.97 703.699 Q2292.33 703.699 2294.41 704.046 Q2296.5 704.393 2298.26 705.088 Z" fill="#000000" fill-rule="nonzero" fill-opacity="1" /><polyline clip-path="url(#clip530)" style="stroke:#ac8d18; stroke-linecap:round; stroke-linejoin:round; stroke-width:8; stroke-opacity:1; fill:none" points="1938.98,764.81 2076.67,764.81 "/>
<path clip-path="url(#clip530)" d="M2107.03 748.803 L2107.03 756.164 L2115.8 756.164 L2115.8 759.474 L2107.03 759.474 L2107.03 773.548 Q2107.03 776.719 2107.89 777.622 Q2108.77 778.525 2111.43 778.525 L2115.8 778.525 L2115.8 782.09 L2111.43 782.09 Q2106.5 782.09 2104.62 780.261 Q2102.75 778.409 2102.75 773.548 L2102.75 759.474 L2099.62 759.474 L2099.62 756.164 L2102.75 756.164 L2102.75 748.803 L2107.03 748.803 Z" fill="#000000" fill-rule="nonzero" fill-opacity="1" /><path clip-path="url(#clip530)" d="M2137.03 760.562 L2166.71 760.562 L2166.71 764.451 L2137.03 764.451 L2137.03 760.562 M2137.03 770.006 L2166.71 770.006 L2166.71 773.941 L2137.03 773.941 L2137.03 770.006 Z" fill="#000000" fill-rule="nonzero" fill-opacity="1" /><path clip-path="url(#clip530)" d="M2204.72 751.604 L2192.91 770.053 L2204.72 770.053 L2204.72 751.604 M2203.49 747.53 L2209.37 747.53 L2209.37 770.053 L2214.3 770.053 L2214.3 773.941 L2209.37 773.941 L2209.37 782.09 L2204.72 782.09 L2204.72 773.941 L2189.11 773.941 L2189.11 769.428 L2203.49 747.53 Z" fill="#000000" fill-rule="nonzero" fill-opacity="1" /><path clip-path="url(#clip530)" d="M2222.03 776.21 L2226.91 776.21 L2226.91 782.09 L2222.03 782.09 L2222.03 776.21 Z" fill="#000000" fill-rule="nonzero" fill-opacity="1" /><path clip-path="url(#clip530)" d="M2247.1 750.608 Q2243.49 750.608 2241.66 754.173 Q2239.85 757.715 2239.85 764.844 Q2239.85 771.951 2241.66 775.516 Q2243.49 779.057 2247.1 779.057 Q2250.73 779.057 2252.54 775.516 Q2254.37 771.951 2254.37 764.844 Q2254.37 757.715 2252.54 754.173 Q2250.73 750.608 2247.1 750.608 M2247.1 746.905 Q2252.91 746.905 2255.96 751.511 Q2259.04 756.094 2259.04 764.844 Q2259.04 773.571 2255.96 778.178 Q2252.91 782.761 2247.1 782.761 Q2241.29 782.761 2238.21 778.178 Q2235.15 773.571 2235.15 764.844 Q2235.15 756.094 2238.21 751.511 Q2241.29 746.905 2247.1 746.905 Z" fill="#000000" fill-rule="nonzero" fill-opacity="1" /><path clip-path="url(#clip530)" d="M2298.26 756.928 L2298.26 760.955 Q2296.45 760.03 2294.51 759.567 Q2292.56 759.104 2290.48 759.104 Q2287.31 759.104 2285.71 760.076 Q2284.14 761.048 2284.14 762.992 Q2284.14 764.474 2285.27 765.33 Q2286.4 766.164 2289.83 766.928 L2291.29 767.252 Q2295.83 768.224 2297.72 770.006 Q2299.65 771.766 2299.65 774.937 Q2299.65 778.548 2296.77 780.654 Q2293.93 782.761 2288.93 782.761 Q2286.84 782.761 2284.58 782.344 Q2282.33 781.951 2279.83 781.141 L2279.83 776.742 Q2282.19 777.969 2284.48 778.594 Q2286.77 779.196 2289.02 779.196 Q2292.03 779.196 2293.65 778.178 Q2295.27 777.136 2295.27 775.261 Q2295.27 773.525 2294.09 772.599 Q2292.93 771.673 2288.97 770.816 L2287.49 770.469 Q2283.53 769.636 2281.77 767.923 Q2280.02 766.187 2280.02 763.178 Q2280.02 759.52 2282.61 757.53 Q2285.2 755.539 2289.97 755.539 Q2292.33 755.539 2294.41 755.886 Q2296.5 756.233 2298.26 756.928 Z" fill="#000000" fill-rule="nonzero" fill-opacity="1" /><polyline clip-path="url(#clip530)" style="stroke:#ed5d92; stroke-linecap:round; stroke-linejoin:round; stroke-width:8; stroke-opacity:1; fill:none" points="1938.98,816.65 2076.67,816.65 "/>
<path clip-path="url(#clip530)" d="M2107.03 800.643 L2107.03 808.004 L2115.8 808.004 L2115.8 811.314 L2107.03 811.314 L2107.03 825.388 Q2107.03 828.559 2107.89 829.462 Q2108.77 830.365 2111.43 830.365 L2115.8 830.365 L2115.8 833.93 L2111.43 833.93 Q2106.5 833.93 2104.62 832.101 Q2102.75 830.249 2102.75 825.388 L2102.75 811.314 L2099.62 811.314 L2099.62 808.004 L2102.75 808.004 L2102.75 800.643 L2107.03 800.643 Z" fill="#000000" fill-rule="nonzero" fill-opacity="1" /><path clip-path="url(#clip530)" d="M2137.03 812.402 L2166.71 812.402 L2166.71 816.291 L2137.03 816.291 L2137.03 812.402 M2137.03 821.846 L2166.71 821.846 L2166.71 825.781 L2137.03 825.781 L2137.03 821.846 Z" fill="#000000" fill-rule="nonzero" fill-opacity="1" /><path clip-path="url(#clip530)" d="M2202.45 814.786 Q2199.3 814.786 2197.45 816.939 Q2195.62 819.092 2195.62 822.842 Q2195.62 826.569 2197.45 828.744 Q2199.3 830.897 2202.45 830.897 Q2205.59 830.897 2207.42 828.744 Q2209.28 826.569 2209.28 822.842 Q2209.28 819.092 2207.42 816.939 Q2205.59 814.786 2202.45 814.786 M2211.73 800.133 L2211.73 804.393 Q2209.97 803.559 2208.16 803.12 Q2206.38 802.68 2204.62 802.68 Q2199.99 802.68 2197.54 805.805 Q2195.11 808.93 2194.76 815.249 Q2196.13 813.235 2198.19 812.17 Q2200.25 811.082 2202.72 811.082 Q2207.93 811.082 2210.94 814.254 Q2213.97 817.402 2213.97 822.842 Q2213.97 828.166 2210.83 831.383 Q2207.68 834.601 2202.45 834.601 Q2196.45 834.601 2193.28 830.018 Q2190.11 825.411 2190.11 816.684 Q2190.11 808.49 2194 803.629 Q2197.89 798.745 2204.44 798.745 Q2206.2 798.745 2207.98 799.092 Q2209.78 799.439 2211.73 800.133 Z" fill="#000000" fill-rule="nonzero" fill-opacity="1" /><path clip-path="url(#clip530)" d="M2222.03 828.05 L2226.91 828.05 L2226.91 833.93 L2222.03 833.93 L2222.03 828.05 Z" fill="#000000" fill-rule="nonzero" fill-opacity="1" /><path clip-path="url(#clip530)" d="M2247.1 802.448 Q2243.49 802.448 2241.66 806.013 Q2239.85 809.555 2239.85 816.684 Q2239.85 823.791 2241.66 827.356 Q2243.49 830.897 2247.1 830.897 Q2250.73 830.897 2252.54 827.356 Q2254.37 823.791 2254.37 816.684 Q2254.37 809.555 2252.54 806.013 Q2250.73 802.448 2247.1 802.448 M2247.1 798.745 Q2252.91 798.745 2255.96 803.351 Q2259.04 807.934 2259.04 816.684 Q2259.04 825.411 2255.96 830.018 Q2252.91 834.601 2247.1 834.601 Q2241.29 834.601 2238.21 830.018 Q2235.15 825.411 2235.15 816.684 Q2235.15 807.934 2238.21 803.351 Q2241.29 798.745 2247.1 798.745 Z" fill="#000000" fill-rule="nonzero" fill-opacity="1" /><path clip-path="url(#clip530)" d="M2298.26 808.768 L2298.26 812.795 Q2296.45 811.87 2294.51 811.407 Q2292.56 810.944 2290.48 810.944 Q2287.31 810.944 2285.71 811.916 Q2284.14 812.888 2284.14 814.832 Q2284.14 816.314 2285.27 817.17 Q2286.4 818.004 2289.83 818.768 L2291.29 819.092 Q2295.83 820.064 2297.72 821.846 Q2299.65 823.606 2299.65 826.777 Q2299.65 830.388 2296.77 832.494 Q2293.93 834.601 2288.93 834.601 Q2286.84 834.601 2284.58 834.184 Q2282.33 833.791 2279.83 832.981 L2279.83 828.582 Q2282.19 829.809 2284.48 830.434 Q2286.77 831.036 2289.02 831.036 Q2292.03 831.036 2293.65 830.018 Q2295.27 828.976 2295.27 827.101 Q2295.27 825.365 2294.09 824.439 Q2292.93 823.513 2288.97 822.656 L2287.49 822.309 Q2283.53 821.476 2281.77 819.763 Q2280.02 818.027 2280.02 815.018 Q2280.02 811.36 2282.61 809.37 Q2285.2 807.379 2289.97 807.379 Q2292.33 807.379 2294.41 807.726 Q2296.5 808.073 2298.26 808.768 Z" fill="#000000" fill-rule="nonzero" fill-opacity="1" /><polyline clip-path="url(#clip530)" style="stroke:#00a98d; stroke-linecap:round; stroke-linejoin:round; stroke-width:8; stroke-opacity:1; fill:none" points="1938.98,868.49 2076.67,868.49 "/>
<path clip-path="url(#clip530)" d="M2107.03 852.483 L2107.03 859.844 L2115.8 859.844 L2115.8 863.154 L2107.03 863.154 L2107.03 877.228 Q2107.03 880.399 2107.89 881.302 Q2108.77 882.205 2111.43 882.205 L2115.8 882.205 L2115.8 885.77 L2111.43 885.77 Q2106.5 885.77 2104.62 883.941 Q2102.75 882.089 2102.75 877.228 L2102.75 863.154 L2099.62 863.154 L2099.62 859.844 L2102.75 859.844 L2102.75 852.483 L2107.03 852.483 Z" fill="#000000" fill-rule="nonzero" fill-opacity="1" /><path clip-path="url(#clip530)" d="M2137.03 864.242 L2166.71 864.242 L2166.71 868.131 L2137.03 868.131 L2137.03 864.242 M2137.03 873.686 L2166.71 873.686 L2166.71 877.621 L2137.03 877.621 L2137.03 873.686 Z" fill="#000000" fill-rule="nonzero" fill-opacity="1" /><path clip-path="url(#clip530)" d="M2201.87 869.358 Q2198.53 869.358 2196.61 871.14 Q2194.72 872.922 2194.72 876.047 Q2194.72 879.172 2196.61 880.955 Q2198.53 882.737 2201.87 882.737 Q2205.2 882.737 2207.12 880.955 Q2209.04 879.149 2209.04 876.047 Q2209.04 872.922 2207.12 871.14 Q2205.22 869.358 2201.87 869.358 M2197.19 867.367 Q2194.18 866.626 2192.49 864.566 Q2190.83 862.506 2190.83 859.543 Q2190.83 855.399 2193.77 852.992 Q2196.73 850.585 2201.87 850.585 Q2207.03 850.585 2209.97 852.992 Q2212.91 855.399 2212.91 859.543 Q2212.91 862.506 2211.22 864.566 Q2209.55 866.626 2206.57 867.367 Q2209.95 868.154 2211.82 870.446 Q2213.72 872.737 2213.72 876.047 Q2213.72 881.071 2210.64 883.756 Q2207.59 886.441 2201.87 886.441 Q2196.15 886.441 2193.07 883.756 Q2190.02 881.071 2190.02 876.047 Q2190.02 872.737 2191.91 870.446 Q2193.81 868.154 2197.19 867.367 M2195.48 859.983 Q2195.48 862.668 2197.15 864.172 Q2198.84 865.677 2201.87 865.677 Q2204.88 865.677 2206.57 864.172 Q2208.28 862.668 2208.28 859.983 Q2208.28 857.298 2206.57 855.793 Q2204.88 854.288 2201.87 854.288 Q2198.84 854.288 2197.15 855.793 Q2195.48 857.298 2195.48 859.983 Z" fill="#000000" fill-rule="nonzero" fill-opacity="1" /><path clip-path="url(#clip530)" d="M2222.03 879.89 L2226.91 879.89 L2226.91 885.77 L2222.03 885.77 L2222.03 879.89 Z" fill="#000000" fill-rule="nonzero" fill-opacity="1" /><path clip-path="url(#clip530)" d="M2247.1 854.288 Q2243.49 854.288 2241.66 857.853 Q2239.85 861.395 2239.85 868.524 Q2239.85 875.631 2241.66 879.196 Q2243.49 882.737 2247.1 882.737 Q2250.73 882.737 2252.54 879.196 Q2254.37 875.631 2254.37 868.524 Q2254.37 861.395 2252.54 857.853 Q2250.73 854.288 2247.1 854.288 M2247.1 850.585 Q2252.91 850.585 2255.96 855.191 Q2259.04 859.774 2259.04 868.524 Q2259.04 877.251 2255.96 881.858 Q2252.91 886.441 2247.1 886.441 Q2241.29 886.441 2238.21 881.858 Q2235.15 877.251 2235.15 868.524 Q2235.15 859.774 2238.21 855.191 Q2241.29 850.585 2247.1 850.585 Z" fill="#000000" fill-rule="nonzero" fill-opacity="1" /><path clip-path="url(#clip530)" d="M2298.26 860.608 L2298.26 864.635 Q2296.45 863.71 2294.51 863.247 Q2292.56 862.784 2290.48 862.784 Q2287.31 862.784 2285.71 863.756 Q2284.14 864.728 2284.14 866.672 Q2284.14 868.154 2285.27 869.01 Q2286.4 869.844 2289.83 870.608 L2291.29 870.932 Q2295.83 871.904 2297.72 873.686 Q2299.65 875.446 2299.65 878.617 Q2299.65 882.228 2296.77 884.334 Q2293.93 886.441 2288.93 886.441 Q2286.84 886.441 2284.58 886.024 Q2282.33 885.631 2279.83 884.821 L2279.83 880.422 Q2282.19 881.649 2284.48 882.274 Q2286.77 882.876 2289.02 882.876 Q2292.03 882.876 2293.65 881.858 Q2295.27 880.816 2295.27 878.941 Q2295.27 877.205 2294.09 876.279 Q2292.93 875.353 2288.97 874.496 L2287.49 874.149 Q2283.53 873.316 2281.77 871.603 Q2280.02 869.867 2280.02 866.858 Q2280.02 863.2 2282.61 861.21 Q2285.2 859.219 2289.97 859.219 Q2292.33 859.219 2294.41 859.566 Q2296.5 859.913 2298.26 860.608 Z" fill="#000000" fill-rule="nonzero" fill-opacity="1" /><polyline clip-path="url(#clip530)" style="stroke:#00a8cb; stroke-linecap:round; stroke-linejoin:round; stroke-width:8; stroke-opacity:1; fill:none" points="1938.98,920.33 2076.67,920.33 "/>
<path clip-path="url(#clip530)" d="M2107.03 904.323 L2107.03 911.684 L2115.8 911.684 L2115.8 914.994 L2107.03 914.994 L2107.03 929.068 Q2107.03 932.239 2107.89 933.142 Q2108.77 934.045 2111.43 934.045 L2115.8 934.045 L2115.8 937.61 L2111.43 937.61 Q2106.5 937.61 2104.62 935.781 Q2102.75 933.929 2102.75 929.068 L2102.75 914.994 L2099.62 914.994 L2099.62 911.684 L2102.75 911.684 L2102.75 904.323 L2107.03 904.323 Z" fill="#000000" fill-rule="nonzero" fill-opacity="1" /><path clip-path="url(#clip530)" d="M2137.03 916.082 L2166.71 916.082 L2166.71 919.971 L2137.03 919.971 L2137.03 916.082 M2137.03 925.526 L2166.71 925.526 L2166.71 929.461 L2137.03 929.461 L2137.03 925.526 Z" fill="#000000" fill-rule="nonzero" fill-opacity="1" /><path clip-path="url(#clip530)" d="M2192.68 933.674 L2200.32 933.674 L2200.32 907.309 L2192.01 908.975 L2192.01 904.716 L2200.27 903.05 L2204.95 903.05 L2204.95 933.674 L2212.59 933.674 L2212.59 937.61 L2192.68 937.61 L2192.68 933.674 Z" fill="#000000" fill-rule="nonzero" fill-opacity="1" /><path clip-path="url(#clip530)" d="M2226.06 933.674 L2242.38 933.674 L2242.38 937.61 L2220.43 937.61 L2220.43 933.674 Q2223.09 930.92 2227.68 926.29 Q2232.28 921.637 2233.47 920.295 Q2235.71 917.772 2236.59 916.036 Q2237.49 914.276 2237.49 912.587 Q2237.49 909.832 2235.55 908.096 Q2233.63 906.36 2230.53 906.36 Q2228.33 906.36 2225.87 907.124 Q2223.44 907.888 2220.66 909.438 L2220.66 904.716 Q2223.49 903.582 2225.94 903.003 Q2228.4 902.425 2230.43 902.425 Q2235.8 902.425 2239 905.11 Q2242.19 907.795 2242.19 912.286 Q2242.19 914.415 2241.38 916.337 Q2240.59 918.235 2238.49 920.827 Q2237.91 921.499 2234.81 924.716 Q2231.71 927.911 2226.06 933.674 Z" fill="#000000" fill-rule="nonzero" fill-opacity="1" /><path clip-path="url(#clip530)" d="M2252.19 931.73 L2257.08 931.73 L2257.08 937.61 L2252.19 937.61 L2252.19 931.73 Z" fill="#000000" fill-rule="nonzero" fill-opacity="1" /><path clip-path="url(#clip530)" d="M2277.26 906.128 Q2273.65 906.128 2271.82 909.693 Q2270.02 913.235 2270.02 920.364 Q2270.02 927.471 2271.82 931.036 Q2273.65 934.577 2277.26 934.577 Q2280.9 934.577 2282.7 931.036 Q2284.53 927.471 2284.53 920.364 Q2284.53 913.235 2282.7 909.693 Q2280.9 906.128 2277.26 906.128 M2277.26 902.425 Q2283.07 902.425 2286.13 907.031 Q2289.21 911.614 2289.21 920.364 Q2289.21 929.091 2286.13 933.698 Q2283.07 938.281 2277.26 938.281 Q2271.45 938.281 2268.37 933.698 Q2265.32 929.091 2265.32 920.364 Q2265.32 911.614 2268.37 907.031 Q2271.45 902.425 2277.26 902.425 Z" fill="#000000" fill-rule="nonzero" fill-opacity="1" /><path clip-path="url(#clip530)" d="M2328.42 912.448 L2328.42 916.475 Q2326.61 915.55 2324.67 915.087 Q2322.72 914.624 2320.64 914.624 Q2317.47 914.624 2315.87 915.596 Q2314.3 916.568 2314.3 918.512 Q2314.3 919.994 2315.43 920.85 Q2316.57 921.684 2319.99 922.448 L2321.45 922.772 Q2325.99 923.744 2327.89 925.526 Q2329.81 927.286 2329.81 930.457 Q2329.81 934.068 2326.94 936.174 Q2324.09 938.281 2319.09 938.281 Q2317.01 938.281 2314.74 937.864 Q2312.49 937.471 2309.99 936.661 L2309.99 932.262 Q2312.35 933.489 2314.65 934.114 Q2316.94 934.716 2319.18 934.716 Q2322.19 934.716 2323.81 933.698 Q2325.43 932.656 2325.43 930.781 Q2325.43 929.045 2324.25 928.119 Q2323.09 927.193 2319.14 926.336 L2317.65 925.989 Q2313.7 925.156 2311.94 923.443 Q2310.18 921.707 2310.18 918.698 Q2310.18 915.04 2312.77 913.05 Q2315.36 911.059 2320.13 911.059 Q2322.49 911.059 2324.58 911.406 Q2326.66 911.753 2328.42 912.448 Z" fill="#000000" fill-rule="nonzero" fill-opacity="1" /></svg>
