<?xml version="1.0" encoding="utf-8"?>
<svg xmlns="http://www.w3.org/2000/svg" xmlns:xlink="http://www.w3.org/1999/xlink" width="600" height="400" viewBox="0 0 2400 1600">
<defs>
  <clipPath id="clip430">
    <rect x="0" y="0" width="2400" height="1600"/>
  </clipPath>
</defs>
<path clip-path="url(#clip430)" d="M0 1600 L2400 1600 L2400 0 L0 0  Z" fill="#ffffff" fill-rule="evenodd" fill-opacity="1"/>
<defs>
  <clipPath id="clip431">
    <rect x="255" y="123" width="2098" height="1301"/>
  </clipPath>
</defs>
<path clip-path="url(#clip430)" d="M242.135 1423.18 L2352.76 1423.18 L2352.76 123.472 L242.135 123.472  Z" fill="#ffffff" fill-rule="evenodd" fill-opacity="1"/>
<defs>
  <clipPath id="clip432">
    <rect x="242" y="123" width="2112" height="1301"/>
  </clipPath>
</defs>
<polyline clip-path="url(#clip432)" style="stroke:#000000; stroke-linecap:round; stroke-linejoin:round; stroke-width:2; stroke-opacity:0.1; fill:none" points="301.869,1423.18 301.869,123.472 "/>
<polyline clip-path="url(#clip432)" style="stroke:#000000; stroke-linecap:round; stroke-linejoin:round; stroke-width:2; stroke-opacity:0.1; fill:none" points="799.657,1423.18 799.657,123.472 "/>
<polyline clip-path="url(#clip432)" style="stroke:#000000; stroke-linecap:round; stroke-linejoin:round; stroke-width:2; stroke-opacity:0.1; fill:none" points="1297.45,1423.18 1297.45,123.472 "/>
<polyline clip-path="url(#clip432)" style="stroke:#000000; stroke-linecap:round; stroke-linejoin:round; stroke-width:2; stroke-opacity:0.1; fill:none" points="1795.23,1423.18 1795.23,123.472 "/>
<polyline clip-path="url(#clip432)" style="stroke:#000000; stroke-linecap:round; stroke-linejoin:round; stroke-width:2; stroke-opacity:0.1; fill:none" points="2293.02,1423.18 2293.02,123.472 "/>
<polyline clip-path="url(#clip432)" style="stroke:#000000; stroke-linecap:round; stroke-linejoin:round; stroke-width:2; stroke-opacity:0.1; fill:none" points="242.135,1265.81 2352.76,1265.81 "/>
<polyline clip-path="url(#clip432)" style="stroke:#000000; stroke-linecap:round; stroke-linejoin:round; stroke-width:2; stroke-opacity:0.1; fill:none" points="242.135,1064.8 2352.76,1064.8 "/>
<polyline clip-path="url(#clip432)" style="stroke:#000000; stroke-linecap:round; stroke-linejoin:round; stroke-width:2; stroke-opacity:0.1; fill:none" points="242.135,863.791 2352.76,863.791 "/>
<polyline clip-path="url(#clip432)" style="stroke:#000000; stroke-linecap:round; stroke-linejoin:round; stroke-width:2; stroke-opacity:0.1; fill:none" points="242.135,662.781 2352.76,662.781 "/>
<polyline clip-path="url(#clip432)" style="stroke:#000000; stroke-linecap:round; stroke-linejoin:round; stroke-width:2; stroke-opacity:0.1; fill:none" points="242.135,461.771 2352.76,461.771 "/>
<polyline clip-path="url(#clip432)" style="stroke:#000000; stroke-linecap:round; stroke-linejoin:round; stroke-width:2; stroke-opacity:0.1; fill:none" points="242.135,260.761 2352.76,260.761 "/>
<polyline clip-path="url(#clip430)" style="stroke:#000000; stroke-linecap:round; stroke-linejoin:round; stroke-width:4; stroke-opacity:1; fill:none" points="242.135,1423.18 2352.76,1423.18 "/>
<polyline clip-path="url(#clip430)" style="stroke:#000000; stroke-linecap:round; stroke-linejoin:round; stroke-width:4; stroke-opacity:1; fill:none" points="301.869,1423.18 301.869,1404.28 "/>
<polyline clip-path="url(#clip430)" style="stroke:#000000; stroke-linecap:round; stroke-linejoin:round; stroke-width:4; stroke-opacity:1; fill:none" points="799.657,1423.18 799.657,1404.28 "/>
<polyline clip-path="url(#clip430)" style="stroke:#000000; stroke-linecap:round; stroke-linejoin:round; stroke-width:4; stroke-opacity:1; fill:none" points="1297.45,1423.18 1297.45,1404.28 "/>
<polyline clip-path="url(#clip430)" style="stroke:#000000; stroke-linecap:round; stroke-linejoin:round; stroke-width:4; stroke-opacity:1; fill:none" points="1795.23,1423.18 1795.23,1404.28 "/>
<polyline clip-path="url(#clip430)" style="stroke:#000000; stroke-linecap:round; stroke-linejoin:round; stroke-width:4; stroke-opacity:1; fill:none" points="2293.02,1423.18 2293.02,1404.28 "/>
<path clip-path="url(#clip430)" d="M301.869 1454.1 Q298.258 1454.1 296.429 1457.66 Q294.624 1461.2 294.624 1468.33 Q294.624 1475.44 296.429 1479.01 Q298.258 1482.55 301.869 1482.55 Q305.503 1482.55 307.309 1479.01 Q309.138 1475.44 309.138 1468.33 Q309.138 1461.2 307.309 1457.66 Q305.503 1454.1 301.869 1454.1 M301.869 1450.39 Q307.679 1450.39 310.735 1455 Q313.814 1459.58 313.814 1468.33 Q313.814 1477.06 310.735 1481.67 Q307.679 1486.25 301.869 1486.25 Q296.059 1486.25 292.98 1481.67 Q289.925 1477.06 289.925 1468.33 Q289.925 1459.58 292.98 1455 Q296.059 1450.39 301.869 1450.39 Z" fill="#000000" fill-rule="nonzero" fill-opacity="1" /><path clip-path="url(#clip430)" d="M789.935 1451.02 L808.291 1451.02 L808.291 1454.96 L794.217 1454.96 L794.217 1463.43 Q795.236 1463.08 796.254 1462.92 Q797.273 1462.73 798.292 1462.73 Q804.079 1462.73 807.458 1465.9 Q810.838 1469.08 810.838 1474.49 Q810.838 1480.07 807.366 1483.17 Q803.893 1486.25 797.574 1486.25 Q795.398 1486.25 793.13 1485.88 Q790.884 1485.51 788.477 1484.77 L788.477 1480.07 Q790.56 1481.2 792.782 1481.76 Q795.005 1482.32 797.481 1482.32 Q801.486 1482.32 803.824 1480.21 Q806.162 1478.1 806.162 1474.49 Q806.162 1470.88 803.824 1468.77 Q801.486 1466.67 797.481 1466.67 Q795.606 1466.67 793.731 1467.08 Q791.88 1467.5 789.935 1468.38 L789.935 1451.02 Z" fill="#000000" fill-rule="nonzero" fill-opacity="1" /><path clip-path="url(#clip430)" d="M1272.13 1481.64 L1279.77 1481.64 L1279.77 1455.28 L1271.46 1456.95 L1271.46 1452.69 L1279.73 1451.02 L1284.4 1451.02 L1284.4 1481.64 L1292.04 1481.64 L1292.04 1485.58 L1272.13 1485.58 L1272.13 1481.64 Z" fill="#000000" fill-rule="nonzero" fill-opacity="1" /><path clip-path="url(#clip430)" d="M1311.48 1454.1 Q1307.87 1454.1 1306.04 1457.66 Q1304.24 1461.2 1304.24 1468.33 Q1304.24 1475.44 1306.04 1479.01 Q1307.87 1482.55 1311.48 1482.55 Q1315.12 1482.55 1316.92 1479.01 Q1318.75 1475.44 1318.75 1468.33 Q1318.75 1461.2 1316.92 1457.66 Q1315.12 1454.1 1311.48 1454.1 M1311.48 1450.39 Q1317.29 1450.39 1320.35 1455 Q1323.43 1459.58 1323.43 1468.33 Q1323.43 1477.06 1320.35 1481.67 Q1317.29 1486.25 1311.48 1486.25 Q1305.67 1486.25 1302.6 1481.67 Q1299.54 1477.06 1299.54 1468.33 Q1299.54 1459.58 1302.6 1455 Q1305.67 1450.39 1311.48 1450.39 Z" fill="#000000" fill-rule="nonzero" fill-opacity="1" /><path clip-path="url(#clip430)" d="M1770.42 1481.64 L1778.06 1481.64 L1778.06 1455.28 L1769.75 1456.95 L1769.75 1452.69 L1778.01 1451.02 L1782.69 1451.02 L1782.69 1481.64 L1790.33 1481.64 L1790.33 1485.58 L1770.42 1485.58 L1770.42 1481.64 Z" fill="#000000" fill-rule="nonzero" fill-opacity="1" /><path clip-path="url(#clip430)" d="M1799.82 1451.02 L1818.17 1451.02 L1818.17 1454.96 L1804.1 1454.96 L1804.1 1463.43 Q1805.12 1463.08 1806.14 1462.92 Q1807.15 1462.73 1808.17 1462.73 Q1813.96 1462.73 1817.34 1465.9 Q1820.72 1469.08 1820.72 1474.49 Q1820.72 1480.07 1817.25 1483.17 Q1813.77 1486.25 1807.46 1486.25 Q1805.28 1486.25 1803.01 1485.88 Q1800.77 1485.51 1798.36 1484.77 L1798.36 1480.07 Q1800.44 1481.2 1802.66 1481.76 Q1804.89 1482.32 1807.36 1482.32 Q1811.37 1482.32 1813.71 1480.21 Q1816.04 1478.1 1816.04 1474.49 Q1816.04 1470.88 1813.71 1468.77 Q1811.37 1466.67 1807.36 1466.67 Q1805.49 1466.67 1803.61 1467.08 Q1801.76 1467.5 1799.82 1468.38 L1799.82 1451.02 Z" fill="#000000" fill-rule="nonzero" fill-opacity="1" /><path clip-path="url(#clip430)" d="M2271.79 1481.64 L2288.11 1481.64 L2288.11 1485.58 L2266.17 1485.58 L2266.17 1481.64 Q2268.83 1478.89 2273.41 1474.26 Q2278.02 1469.61 2279.2 1468.27 Q2281.45 1465.74 2282.33 1464.01 Q2283.23 1462.25 2283.23 1460.56 Q2283.23 1457.8 2281.29 1456.07 Q2279.36 1454.33 2276.26 1454.33 Q2274.06 1454.33 2271.61 1455.09 Q2269.18 1455.86 2266.4 1457.41 L2266.4 1452.69 Q2269.23 1451.55 2271.68 1450.97 Q2274.13 1450.39 2276.17 1450.39 Q2281.54 1450.39 2284.73 1453.08 Q2287.93 1455.77 2287.93 1460.26 Q2287.93 1462.39 2287.12 1464.31 Q2286.33 1466.2 2284.23 1468.8 Q2283.65 1469.47 2280.54 1472.69 Q2277.44 1475.88 2271.79 1481.64 Z" fill="#000000" fill-rule="nonzero" fill-opacity="1" /><path clip-path="url(#clip430)" d="M2307.93 1454.1 Q2304.32 1454.1 2302.49 1457.66 Q2300.68 1461.2 2300.68 1468.33 Q2300.68 1475.44 2302.49 1479.01 Q2304.32 1482.55 2307.93 1482.55 Q2311.56 1482.55 2313.37 1479.01 Q2315.2 1475.44 2315.2 1468.33 Q2315.2 1461.2 2313.37 1457.66 Q2311.56 1454.1 2307.93 1454.1 M2307.93 1450.39 Q2313.74 1450.39 2316.79 1455 Q2319.87 1459.58 2319.87 1468.33 Q2319.87 1477.06 2316.79 1481.67 Q2313.74 1486.25 2307.93 1486.25 Q2302.12 1486.25 2299.04 1481.67 Q2295.98 1477.06 2295.98 1468.33 Q2295.98 1459.58 2299.04 1455 Q2302.12 1450.39 2307.93 1450.39 Z" fill="#000000" fill-rule="nonzero" fill-opacity="1" /><path clip-path="url(#clip430)" d="M1167.62 1520.52 L1207.82 1520.52 L1207.82 1525.93 L1190.95 1525.93 L1190.95 1568.04 L1184.49 1568.04 L1184.49 1525.93 L1167.62 1525.93 L1167.62 1520.52 Z" fill="#000000" fill-rule="nonzero" fill-opacity="1" /><path clip-path="url(#clip430)" d="M1211.76 1532.4 L1217.62 1532.4 L1217.62 1568.04 L1211.76 1568.04 L1211.76 1532.4 M1211.76 1518.52 L1217.62 1518.52 L1217.62 1525.93 L1211.76 1525.93 L1211.76 1518.52 Z" fill="#000000" fill-rule="nonzero" fill-opacity="1" /><path clip-path="url(#clip430)" d="M1257.63 1539.24 Q1259.82 1535.29 1262.88 1533.41 Q1265.94 1531.54 1270.07 1531.54 Q1275.64 1531.54 1278.67 1535.45 Q1281.69 1539.33 1281.69 1546.53 L1281.69 1568.04 L1275.8 1568.04 L1275.8 1546.72 Q1275.8 1541.59 1273.99 1539.11 Q1272.17 1536.63 1268.45 1536.63 Q1263.9 1536.63 1261.26 1539.65 Q1258.61 1542.68 1258.61 1547.9 L1258.61 1568.04 L1252.73 1568.04 L1252.73 1546.72 Q1252.73 1541.56 1250.91 1539.11 Q1249.1 1536.63 1245.31 1536.63 Q1240.82 1536.63 1238.18 1539.68 Q1235.54 1542.71 1235.54 1547.9 L1235.54 1568.04 L1229.65 1568.04 L1229.65 1532.4 L1235.54 1532.4 L1235.54 1537.93 Q1237.54 1534.66 1240.34 1533.1 Q1243.15 1531.54 1247 1531.54 Q1250.88 1531.54 1253.59 1533.51 Q1256.32 1535.48 1257.63 1539.24 Z" fill="#000000" fill-rule="nonzero" fill-opacity="1" /><path clip-path="url(#clip430)" d="M1323.86 1548.76 L1323.86 1551.62 L1296.94 1551.62 Q1297.32 1557.67 1300.56 1560.85 Q1303.84 1564 1309.67 1564 Q1313.04 1564 1316.19 1563.17 Q1319.38 1562.35 1322.49 1560.69 L1322.49 1566.23 Q1319.34 1567.57 1316.03 1568.27 Q1312.72 1568.97 1309.32 1568.97 Q1300.79 1568.97 1295.79 1564 Q1290.82 1559.04 1290.82 1550.57 Q1290.82 1541.82 1295.54 1536.69 Q1300.28 1531.54 1308.3 1531.54 Q1315.49 1531.54 1319.66 1536.18 Q1323.86 1540.8 1323.86 1548.76 M1318.01 1547.04 Q1317.94 1542.23 1315.3 1539.37 Q1312.69 1536.5 1308.36 1536.5 Q1303.46 1536.5 1300.5 1539.27 Q1297.57 1542.04 1297.13 1547.07 L1318.01 1547.04 Z" fill="#000000" fill-rule="nonzero" fill-opacity="1" /><path clip-path="url(#clip430)" d="M1368.26 1518.58 Q1364 1525.9 1361.93 1533.06 Q1359.86 1540.23 1359.86 1547.58 Q1359.86 1554.93 1361.93 1562.16 Q1364.03 1569.35 1368.26 1576.64 L1363.17 1576.64 Q1358.4 1569.16 1356.01 1561.93 Q1353.65 1554.71 1353.65 1547.58 Q1353.65 1540.48 1356.01 1533.29 Q1358.37 1526.09 1363.17 1518.58 L1368.26 1518.58 Z" fill="#000000" fill-rule="nonzero" fill-opacity="1" /><path clip-path="url(#clip430)" d="M1402.35 1533.45 L1402.35 1538.98 Q1399.87 1537.71 1397.2 1537.07 Q1394.52 1536.44 1391.66 1536.44 Q1387.3 1536.44 1385.1 1537.77 Q1382.94 1539.11 1382.94 1541.79 Q1382.94 1543.82 1384.5 1545 Q1386.06 1546.15 1390.77 1547.2 L1392.77 1547.64 Q1399.01 1548.98 1401.62 1551.43 Q1404.26 1553.85 1404.26 1558.21 Q1404.26 1563.17 1400.32 1566.07 Q1396.4 1568.97 1389.53 1568.97 Q1386.66 1568.97 1383.54 1568.39 Q1380.45 1567.85 1377.02 1566.74 L1377.02 1560.69 Q1380.26 1562.38 1383.41 1563.24 Q1386.57 1564.07 1389.65 1564.07 Q1393.79 1564.07 1396.02 1562.66 Q1398.25 1561.23 1398.25 1558.65 Q1398.25 1556.27 1396.62 1554.99 Q1395.03 1553.72 1389.59 1552.54 L1387.55 1552.07 Q1382.11 1550.92 1379.69 1548.56 Q1377.27 1546.18 1377.27 1542.04 Q1377.27 1537.01 1380.84 1534.27 Q1384.4 1531.54 1390.96 1531.54 Q1394.2 1531.54 1397.07 1532.01 Q1399.93 1532.49 1402.35 1533.45 Z" fill="#000000" fill-rule="nonzero" fill-opacity="1" /><path clip-path="url(#clip430)" d="M1412.66 1518.58 L1417.76 1518.58 Q1422.53 1526.09 1424.89 1533.29 Q1427.27 1540.48 1427.27 1547.58 Q1427.27 1554.71 1424.89 1561.93 Q1422.53 1569.16 1417.76 1576.64 L1412.66 1576.64 Q1416.9 1569.35 1418.97 1562.16 Q1421.07 1554.93 1421.07 1547.58 Q1421.07 1540.23 1418.97 1533.06 Q1416.9 1525.9 1412.66 1518.58 Z" fill="#000000" fill-rule="nonzero" fill-opacity="1" /><polyline clip-path="url(#clip430)" style="stroke:#000000; stroke-linecap:round; stroke-linejoin:round; stroke-width:4; stroke-opacity:1; fill:none" points="242.135,1423.18 242.135,123.472 "/>
<polyline clip-path="url(#clip430)" style="stroke:#000000; stroke-linecap:round; stroke-linejoin:round; stroke-width:4; stroke-opacity:1; fill:none" points="242.135,1265.81 261.032,1265.81 "/>
<polyline clip-path="url(#clip430)" style="stroke:#000000; stroke-linecap:round; stroke-linejoin:round; stroke-width:4; stroke-opacity:1; fill:none" points="242.135,1064.8 261.032,1064.8 "/>
<polyline clip-path="url(#clip430)" style="stroke:#000000; stroke-linecap:round; stroke-linejoin:round; stroke-width:4; stroke-opacity:1; fill:none" points="242.135,863.791 261.032,863.791 "/>
<polyline clip-path="url(#clip430)" style="stroke:#000000; stroke-linecap:round; stroke-linejoin:round; stroke-width:4; stroke-opacity:1; fill:none" points="242.135,662.781 261.032,662.781 "/>
<polyline clip-path="url(#clip430)" style="stroke:#000000; stroke-linecap:round; stroke-linejoin:round; stroke-width:4; stroke-opacity:1; fill:none" points="242.135,461.771 261.032,461.771 "/>
<polyline clip-path="url(#clip430)" style="stroke:#000000; stroke-linecap:round; stroke-linejoin:round; stroke-width:4; stroke-opacity:1; fill:none" points="242.135,260.761 261.032,260.761 "/>
<path clip-path="url(#clip430)" d="M114.26 1266.26 L143.936 1266.26 L143.936 1270.2 L114.26 1270.2 L114.26 1266.26 Z" fill="#000000" fill-rule="nonzero" fill-opacity="1" /><path clip-path="url(#clip430)" d="M154.839 1279.15 L162.477 1279.15 L162.477 1252.79 L154.167 1254.46 L154.167 1250.2 L162.431 1248.53 L167.107 1248.53 L167.107 1279.15 L174.746 1279.15 L174.746 1283.09 L154.839 1283.09 L154.839 1279.15 Z" fill="#000000" fill-rule="nonzero" fill-opacity="1" /><path clip-path="url(#clip430)" d="M194.19 1251.61 Q190.579 1251.61 188.75 1255.17 Q186.945 1258.72 186.945 1265.84 Q186.945 1272.95 188.75 1276.52 Q190.579 1280.06 194.19 1280.06 Q197.825 1280.06 199.63 1276.52 Q201.459 1272.95 201.459 1265.84 Q201.459 1258.72 199.63 1255.17 Q197.825 1251.61 194.19 1251.61 M194.19 1247.91 Q200 1247.91 203.056 1252.51 Q206.135 1257.09 206.135 1265.84 Q206.135 1274.57 203.056 1279.18 Q200 1283.76 194.19 1283.76 Q188.38 1283.76 185.301 1279.18 Q182.246 1274.57 182.246 1265.84 Q182.246 1257.09 185.301 1252.51 Q188.38 1247.91 194.19 1247.91 Z" fill="#000000" fill-rule="nonzero" fill-opacity="1" /><path clip-path="url(#clip430)" d="M194.19 1050.6 Q190.579 1050.6 188.75 1054.16 Q186.945 1057.71 186.945 1064.84 Q186.945 1071.94 188.75 1075.51 Q190.579 1079.05 194.19 1079.05 Q197.825 1079.05 199.63 1075.51 Q201.459 1071.94 201.459 1064.84 Q201.459 1057.71 199.63 1054.16 Q197.825 1050.6 194.19 1050.6 M194.19 1046.9 Q200 1046.9 203.056 1051.5 Q206.135 1056.09 206.135 1064.84 Q206.135 1073.56 203.056 1078.17 Q200 1082.75 194.19 1082.75 Q188.38 1082.75 185.301 1078.17 Q182.246 1073.56 182.246 1064.84 Q182.246 1056.09 185.301 1051.5 Q188.38 1046.9 194.19 1046.9 Z" fill="#000000" fill-rule="nonzero" fill-opacity="1" /><path clip-path="url(#clip430)" d="M154.839 877.135 L162.477 877.135 L162.477 850.77 L154.167 852.436 L154.167 848.177 L162.431 846.511 L167.107 846.511 L167.107 877.135 L174.746 877.135 L174.746 881.071 L154.839 881.071 L154.839 877.135 Z" fill="#000000" fill-rule="nonzero" fill-opacity="1" /><path clip-path="url(#clip430)" d="M194.19 849.589 Q190.579 849.589 188.75 853.154 Q186.945 856.696 186.945 863.825 Q186.945 870.932 188.75 874.496 Q190.579 878.038 194.19 878.038 Q197.825 878.038 199.63 874.496 Q201.459 870.932 201.459 863.825 Q201.459 856.696 199.63 853.154 Q197.825 849.589 194.19 849.589 M194.19 845.886 Q200 845.886 203.056 850.492 Q206.135 855.075 206.135 863.825 Q206.135 872.552 203.056 877.159 Q200 881.742 194.19 881.742 Q188.38 881.742 185.301 877.159 Q182.246 872.552 182.246 863.825 Q182.246 855.075 185.301 850.492 Q188.38 845.886 194.19 845.886 Z" fill="#000000" fill-rule="nonzero" fill-opacity="1" /><path clip-path="url(#clip430)" d="M158.056 676.126 L174.376 676.126 L174.376 680.061 L152.431 680.061 L152.431 676.126 Q155.093 673.371 159.677 668.741 Q164.283 664.089 165.464 662.746 Q167.709 660.223 168.589 658.487 Q169.491 656.728 169.491 655.038 Q169.491 652.283 167.547 650.547 Q165.626 648.811 162.524 648.811 Q160.325 648.811 157.871 649.575 Q155.44 650.339 152.663 651.89 L152.663 647.167 Q155.487 646.033 157.94 645.454 Q160.394 644.876 162.431 644.876 Q167.802 644.876 170.996 647.561 Q174.19 650.246 174.19 654.737 Q174.19 656.866 173.38 658.788 Q172.593 660.686 170.487 663.278 Q169.908 663.95 166.806 667.167 Q163.704 670.362 158.056 676.126 Z" fill="#000000" fill-rule="nonzero" fill-opacity="1" /><path clip-path="url(#clip430)" d="M194.19 648.579 Q190.579 648.579 188.75 652.144 Q186.945 655.686 186.945 662.815 Q186.945 669.922 188.75 673.487 Q190.579 677.028 194.19 677.028 Q197.825 677.028 199.63 673.487 Q201.459 669.922 201.459 662.815 Q201.459 655.686 199.63 652.144 Q197.825 648.579 194.19 648.579 M194.19 644.876 Q200 644.876 203.056 649.482 Q206.135 654.066 206.135 662.815 Q206.135 671.542 203.056 676.149 Q200 680.732 194.19 680.732 Q188.38 680.732 185.301 676.149 Q182.246 671.542 182.246 662.815 Q182.246 654.066 185.301 649.482 Q188.38 644.876 194.19 644.876 Z" fill="#000000" fill-rule="nonzero" fill-opacity="1" /><path clip-path="url(#clip430)" d="M168.195 460.417 Q171.552 461.134 173.427 463.403 Q175.325 465.671 175.325 469.005 Q175.325 474.12 171.806 476.921 Q168.288 479.722 161.806 479.722 Q159.63 479.722 157.315 479.282 Q155.024 478.866 152.57 478.009 L152.57 473.495 Q154.515 474.63 156.829 475.208 Q159.144 475.787 161.667 475.787 Q166.065 475.787 168.357 474.051 Q170.672 472.315 170.672 469.005 Q170.672 465.949 168.519 464.236 Q166.39 462.5 162.57 462.5 L158.542 462.5 L158.542 458.658 L162.755 458.658 Q166.204 458.658 168.033 457.292 Q169.862 455.903 169.862 453.31 Q169.862 450.648 167.964 449.236 Q166.089 447.801 162.57 447.801 Q160.649 447.801 158.45 448.218 Q156.251 448.634 153.612 449.514 L153.612 445.347 Q156.274 444.607 158.589 444.236 Q160.927 443.866 162.987 443.866 Q168.311 443.866 171.413 446.297 Q174.514 448.704 174.514 452.824 Q174.514 455.695 172.871 457.685 Q171.227 459.653 168.195 460.417 Z" fill="#000000" fill-rule="nonzero" fill-opacity="1" /><path clip-path="url(#clip430)" d="M194.19 447.57 Q190.579 447.57 188.75 451.134 Q186.945 454.676 186.945 461.806 Q186.945 468.912 188.75 472.477 Q190.579 476.019 194.19 476.019 Q197.825 476.019 199.63 472.477 Q201.459 468.912 201.459 461.806 Q201.459 454.676 199.63 451.134 Q197.825 447.57 194.19 447.57 M194.19 443.866 Q200 443.866 203.056 448.472 Q206.135 453.056 206.135 461.806 Q206.135 470.533 203.056 475.139 Q200 479.722 194.19 479.722 Q188.38 479.722 185.301 475.139 Q182.246 470.533 182.246 461.806 Q182.246 453.056 185.301 448.472 Q188.38 443.866 194.19 443.866 Z" fill="#000000" fill-rule="nonzero" fill-opacity="1" /><path clip-path="url(#clip430)" d="M166.876 247.555 L155.07 266.004 L166.876 266.004 L166.876 247.555 M165.649 243.481 L171.528 243.481 L171.528 266.004 L176.459 266.004 L176.459 269.893 L171.528 269.893 L171.528 278.041 L166.876 278.041 L166.876 269.893 L151.274 269.893 L151.274 265.379 L165.649 243.481 Z" fill="#000000" fill-rule="nonzero" fill-opacity="1" /><path clip-path="url(#clip430)" d="M194.19 246.56 Q190.579 246.56 188.75 250.125 Q186.945 253.666 186.945 260.796 Q186.945 267.902 188.75 271.467 Q190.579 275.009 194.19 275.009 Q197.825 275.009 199.63 271.467 Q201.459 267.902 201.459 260.796 Q201.459 253.666 199.63 250.125 Q197.825 246.56 194.19 246.56 M194.19 242.856 Q200 242.856 203.056 247.463 Q206.135 252.046 206.135 260.796 Q206.135 269.523 203.056 274.129 Q200 278.712 194.19 278.712 Q188.38 278.712 185.301 274.129 Q182.246 269.523 182.246 260.796 Q182.246 252.046 185.301 247.463 Q188.38 242.856 194.19 242.856 Z" fill="#000000" fill-rule="nonzero" fill-opacity="1" /><path clip-path="url(#clip430)" d="M21.7677 1153.53 L39.6235 1153.53 L39.6235 1145.45 Q39.6235 1140.96 37.3 1138.51 Q34.9765 1136.06 30.6797 1136.06 Q26.4147 1136.06 24.0912 1138.51 Q21.7677 1140.96 21.7677 1145.45 L21.7677 1153.53 M16.4842 1159.96 L16.4842 1145.45 Q16.4842 1137.46 20.1126 1133.39 Q23.7092 1129.28 30.6797 1129.28 Q37.7138 1129.28 41.3104 1133.39 Q44.907 1137.46 44.907 1145.45 L44.907 1153.53 L64.0042 1153.53 L64.0042 1159.96 L16.4842 1159.96 Z" fill="#000000" fill-rule="nonzero" fill-opacity="1" /><path clip-path="url(#clip430)" d="M44.7161 1092.74 L47.5806 1092.74 L47.5806 1119.67 Q53.6281 1119.29 56.8109 1116.04 Q59.9619 1112.76 59.9619 1106.94 Q59.9619 1103.56 59.1344 1100.41 Q58.3069 1097.23 56.6518 1094.11 L62.1899 1094.11 Q63.5267 1097.26 64.227 1100.57 Q64.9272 1103.88 64.9272 1107.29 Q64.9272 1115.82 59.9619 1120.81 Q54.9967 1125.78 46.5303 1125.78 Q37.7774 1125.78 32.6531 1121.07 Q27.4968 1116.33 27.4968 1108.31 Q27.4968 1101.11 32.1438 1096.94 Q36.7589 1092.74 44.7161 1092.74 M42.9973 1098.6 Q38.1912 1098.66 35.3266 1101.3 Q32.4621 1103.91 32.4621 1108.24 Q32.4621 1113.14 35.2312 1116.1 Q38.0002 1119.03 43.0292 1119.48 L42.9973 1098.6 Z" fill="#000000" fill-rule="nonzero" fill-opacity="1" /><path clip-path="url(#clip430)" d="M42.4881 1053.5 L64.0042 1053.5 L64.0042 1059.35 L42.679 1059.35 Q37.6183 1059.35 35.1038 1061.33 Q32.5894 1063.3 32.5894 1067.25 Q32.5894 1071.99 35.6131 1074.73 Q38.6368 1077.46 43.8567 1077.46 L64.0042 1077.46 L64.0042 1083.35 L28.3562 1083.35 L28.3562 1077.46 L33.8944 1077.46 Q30.6797 1075.36 29.0883 1072.53 Q27.4968 1069.67 27.4968 1065.94 Q27.4968 1059.8 31.3163 1056.65 Q35.1038 1053.5 42.4881 1053.5 Z" fill="#000000" fill-rule="nonzero" fill-opacity="1" /><path clip-path="url(#clip430)" d="M33.7671 1018.36 L14.479 1018.36 L14.479 1012.5 L64.0042 1012.5 L64.0042 1018.36 L58.657 1018.36 Q61.8398 1020.2 63.3994 1023.04 Q64.9272 1025.84 64.9272 1029.78 Q64.9272 1036.25 59.771 1040.32 Q54.6147 1044.36 46.212 1044.36 Q37.8093 1044.36 32.6531 1040.32 Q27.4968 1036.25 27.4968 1029.78 Q27.4968 1025.84 29.0564 1023.04 Q30.5842 1020.2 33.7671 1018.36 M46.212 1038.31 Q52.6732 1038.31 56.3653 1035.67 Q60.0256 1033 60.0256 1028.35 Q60.0256 1023.71 56.3653 1021.03 Q52.6732 1018.36 46.212 1018.36 Q39.7508 1018.36 36.0905 1021.03 Q32.3984 1023.71 32.3984 1028.35 Q32.3984 1033 36.0905 1035.67 Q39.7508 1038.31 46.212 1038.31 Z" fill="#000000" fill-rule="nonzero" fill-opacity="1" /><path clip-path="url(#clip430)" d="M49.9359 1001.04 L28.3562 1001.04 L28.3562 995.187 L49.7131 995.187 Q54.7739 995.187 57.3202 993.213 Q59.8346 991.24 59.8346 987.293 Q59.8346 982.551 56.8109 979.814 Q53.7872 977.045 48.5673 977.045 L28.3562 977.045 L28.3562 971.188 L64.0042 971.188 L64.0042 977.045 L58.5296 977.045 Q61.7762 979.177 63.3676 982.01 Q64.9272 984.811 64.9272 988.535 Q64.9272 994.678 61.1078 997.86 Q57.2883 1001.04 49.9359 1001.04 M27.4968 986.307 L27.4968 986.307 Z" fill="#000000" fill-rule="nonzero" fill-opacity="1" /><path clip-path="url(#clip430)" d="M14.479 959.125 L14.479 953.269 L64.0042 953.269 L64.0042 959.125 L14.479 959.125 Z" fill="#000000" fill-rule="nonzero" fill-opacity="1" /><path clip-path="url(#clip430)" d="M49.9359 941.619 L28.3562 941.619 L28.3562 935.763 L49.7131 935.763 Q54.7739 935.763 57.3202 933.79 Q59.8346 931.816 59.8346 927.869 Q59.8346 923.127 56.8109 920.39 Q53.7872 917.621 48.5673 917.621 L28.3562 917.621 L28.3562 911.764 L64.0042 911.764 L64.0042 917.621 L58.5296 917.621 Q61.7762 919.753 63.3676 922.586 Q64.9272 925.387 64.9272 929.111 Q64.9272 935.254 61.1078 938.436 Q57.2883 941.619 49.9359 941.619 M27.4968 926.883 L27.4968 926.883 Z" fill="#000000" fill-rule="nonzero" fill-opacity="1" /><path clip-path="url(#clip430)" d="M35.1993 871.947 Q31.2526 869.751 29.3747 866.695 Q27.4968 863.639 27.4968 859.502 Q27.4968 853.932 31.4117 850.908 Q35.2948 847.884 42.4881 847.884 L64.0042 847.884 L64.0042 853.773 L42.679 853.773 Q37.5546 853.773 35.072 855.587 Q32.5894 857.401 32.5894 861.125 Q32.5894 865.676 35.6131 868.318 Q38.6368 870.96 43.8567 870.96 L64.0042 870.96 L64.0042 876.848 L42.679 876.848 Q37.5228 876.848 35.072 878.663 Q32.5894 880.477 32.5894 884.264 Q32.5894 888.752 35.6449 891.394 Q38.6686 894.036 43.8567 894.036 L64.0042 894.036 L64.0042 899.924 L28.3562 899.924 L28.3562 894.036 L33.8944 894.036 Q30.616 892.03 29.0564 889.23 Q27.4968 886.429 27.4968 882.577 Q27.4968 878.694 29.4702 875.989 Q31.4436 873.252 35.1993 871.947 Z" fill="#000000" fill-rule="nonzero" fill-opacity="1" /><path clip-path="url(#clip430)" d="M22.818 799.346 L46.4666 808.067 L46.4666 790.593 L22.818 799.346 M16.4842 802.974 L16.4842 795.686 L64.0042 777.575 L64.0042 784.259 L51.8138 788.588 L51.8138 810.008 L64.0042 814.337 L64.0042 821.117 L16.4842 802.974 Z" fill="#000000" fill-rule="nonzero" fill-opacity="1" /><path clip-path="url(#clip430)" d="M42.4881 741.259 L64.0042 741.259 L64.0042 747.115 L42.679 747.115 Q37.6183 747.115 35.1038 749.089 Q32.5894 751.062 32.5894 755.009 Q32.5894 759.751 35.6131 762.488 Q38.6368 765.226 43.8567 765.226 L64.0042 765.226 L64.0042 771.114 L28.3562 771.114 L28.3562 765.226 L33.8944 765.226 Q30.6797 763.125 29.0883 760.292 Q27.4968 757.428 27.4968 753.704 Q27.4968 747.561 31.3163 744.41 Q35.1038 741.259 42.4881 741.259 Z" fill="#000000" fill-rule="nonzero" fill-opacity="1" /><path clip-path="url(#clip430)" d="M45.7664 706.12 Q39.4007 706.12 35.8996 708.762 Q32.3984 711.372 32.3984 716.114 Q32.3984 720.825 35.8996 723.467 Q39.4007 726.077 45.7664 726.077 Q52.1003 726.077 55.6014 723.467 Q59.1026 720.825 59.1026 716.114 Q59.1026 711.372 55.6014 708.762 Q52.1003 706.12 45.7664 706.12 M59.58 700.264 Q68.683 700.264 73.1071 704.306 Q77.5631 708.348 77.5631 716.687 Q77.5631 719.774 77.0857 722.512 Q76.6401 725.249 75.6852 727.827 L69.9879 727.827 Q71.3884 725.249 72.0568 722.735 Q72.7252 720.22 72.7252 717.61 Q72.7252 711.849 69.7015 708.985 Q66.7096 706.12 60.6303 706.12 L57.7339 706.12 Q60.885 707.934 62.4446 710.767 Q64.0042 713.6 64.0042 717.546 Q64.0042 724.103 59.0071 728.114 Q54.01 732.124 45.7664 732.124 Q37.491 732.124 32.4939 728.114 Q27.4968 724.103 27.4968 717.546 Q27.4968 713.6 29.0564 710.767 Q30.616 707.934 33.7671 706.12 L28.3562 706.12 L28.3562 700.264 L59.58 700.264 Z" fill="#000000" fill-rule="nonzero" fill-opacity="1" /><path clip-path="url(#clip430)" d="M14.479 688.201 L14.479 682.344 L64.0042 682.344 L64.0042 688.201 L14.479 688.201 Z" fill="#000000" fill-rule="nonzero" fill-opacity="1" /><path clip-path="url(#clip430)" d="M44.7161 639.598 L47.5806 639.598 L47.5806 666.525 Q53.6281 666.143 56.8109 662.897 Q59.9619 659.619 59.9619 653.794 Q59.9619 650.42 59.1344 647.269 Q58.3069 644.086 56.6518 640.967 L62.1899 640.967 Q63.5267 644.118 64.227 647.428 Q64.9272 650.738 64.9272 654.144 Q64.9272 662.674 59.9619 667.671 Q54.9967 672.636 46.5303 672.636 Q37.7774 672.636 32.6531 667.926 Q27.4968 663.183 27.4968 655.163 Q27.4968 647.969 32.1438 643.8 Q36.7589 639.598 44.7161 639.598 M42.9973 645.455 Q38.1912 645.519 35.3266 648.16 Q32.4621 650.77 32.4621 655.099 Q32.4621 660 35.2312 662.961 Q38.0002 665.889 43.0292 666.334 L42.9973 645.455 Z" fill="#000000" fill-rule="nonzero" fill-opacity="1" /><path clip-path="url(#clip430)" d="M41.4059 585.331 L41.4059 605.606 Q50.9226 605.128 54.9649 602.932 Q59.9301 600.195 59.9301 595.452 Q59.9301 590.678 54.933 588.036 Q50.5407 585.713 41.4059 585.331 M35.995 585.426 Q26.9557 586.317 23.7729 588.036 Q18.744 590.773 18.744 595.452 Q18.744 600.322 23.7092 602.9 Q27.7196 604.937 35.995 605.542 L35.995 585.426 M13.9697 595.452 Q13.9697 587.813 20.7174 583.453 Q27.4332 579.092 39.337 579.092 Q51.2091 579.092 57.9567 583.453 Q64.7362 587.813 64.7362 595.452 Q64.7362 603.123 57.9567 607.452 Q51.2091 611.812 39.337 611.812 Q27.4332 611.812 20.7174 607.452 Q13.9697 603.123 13.9697 595.452 Z" fill="#000000" fill-rule="nonzero" fill-opacity="1" /><path clip-path="url(#clip430)" d="M14.5426 534.596 Q21.8632 538.861 29.0246 540.93 Q36.186 542.999 43.5384 542.999 Q50.8908 542.999 58.1159 540.93 Q65.3091 538.829 72.5979 534.596 L72.5979 539.689 Q65.1182 544.463 57.8931 546.85 Q50.668 549.205 43.5384 549.205 Q36.4406 549.205 29.2474 546.85 Q22.0542 544.495 14.5426 539.689 L14.5426 534.596 Z" fill="#000000" fill-rule="nonzero" fill-opacity="1" /><path clip-path="url(#clip430)" d="M33.7671 499.776 L14.479 499.776 L14.479 493.919 L64.0042 493.919 L64.0042 499.776 L58.657 499.776 Q61.8398 501.622 63.3994 504.454 Q64.9272 507.255 64.9272 511.202 Q64.9272 517.663 59.771 521.737 Q54.6147 525.78 46.212 525.78 Q37.8093 525.78 32.6531 521.737 Q27.4968 517.663 27.4968 511.202 Q27.4968 507.255 29.0564 504.454 Q30.5842 501.622 33.7671 499.776 M46.212 519.732 Q52.6732 519.732 56.3653 517.09 Q60.0256 514.417 60.0256 509.77 Q60.0256 505.123 56.3653 502.449 Q52.6732 499.776 46.212 499.776 Q39.7508 499.776 36.0905 502.449 Q32.3984 505.123 32.3984 509.77 Q32.3984 514.417 36.0905 517.09 Q39.7508 519.732 46.212 519.732 Z" fill="#000000" fill-rule="nonzero" fill-opacity="1" /><path clip-path="url(#clip430)" d="M44.7161 451.364 L47.5806 451.364 L47.5806 478.291 Q53.6281 477.909 56.8109 474.663 Q59.9619 471.385 59.9619 465.56 Q59.9619 462.186 59.1344 459.035 Q58.3069 455.852 56.6518 452.733 L62.1899 452.733 Q63.5267 455.884 64.227 459.194 Q64.9272 462.504 64.9272 465.91 Q64.9272 474.44 59.9619 479.437 Q54.9967 484.402 46.5303 484.402 Q37.7774 484.402 32.6531 479.692 Q27.4968 474.949 27.4968 466.929 Q27.4968 459.735 32.1438 455.566 Q36.7589 451.364 44.7161 451.364 M42.9973 457.221 Q38.1912 457.285 35.3266 459.926 Q32.4621 462.536 32.4621 466.865 Q32.4621 471.767 35.2312 474.727 Q38.0002 477.655 43.0292 478.1 L42.9973 457.221 Z" fill="#000000" fill-rule="nonzero" fill-opacity="1" /><path clip-path="url(#clip430)" d="M45.7664 418.295 Q39.4007 418.295 35.8996 420.936 Q32.3984 423.546 32.3984 428.289 Q32.3984 432.999 35.8996 435.641 Q39.4007 438.251 45.7664 438.251 Q52.1003 438.251 55.6014 435.641 Q59.1026 432.999 59.1026 428.289 Q59.1026 423.546 55.6014 420.936 Q52.1003 418.295 45.7664 418.295 M59.58 412.438 Q68.683 412.438 73.1071 416.48 Q77.5631 420.523 77.5631 428.862 Q77.5631 431.949 77.0857 434.686 Q76.6401 437.424 75.6852 440.002 L69.9879 440.002 Q71.3884 437.424 72.0568 434.909 Q72.7252 432.395 72.7252 429.785 Q72.7252 424.024 69.7015 421.159 Q66.7096 418.295 60.6303 418.295 L57.7339 418.295 Q60.885 420.109 62.4446 422.942 Q64.0042 425.774 64.0042 429.721 Q64.0042 436.278 59.0071 440.288 Q54.01 444.299 45.7664 444.299 Q37.491 444.299 32.4939 440.288 Q27.4968 436.278 27.4968 429.721 Q27.4968 425.774 29.0564 422.942 Q30.616 420.109 33.7671 418.295 L28.3562 418.295 L28.3562 412.438 L59.58 412.438 Z" fill="#000000" fill-rule="nonzero" fill-opacity="1" /><path clip-path="url(#clip430)" d="M14.5426 401.298 L14.5426 396.206 Q22.0542 391.431 29.2474 389.076 Q36.4406 386.689 43.5384 386.689 Q50.668 386.689 57.8931 389.076 Q65.1182 391.431 72.5979 396.206 L72.5979 401.298 Q65.3091 397.065 58.1159 394.996 Q50.8908 392.895 43.5384 392.895 Q36.186 392.895 29.0246 394.996 Q21.8632 397.065 14.5426 401.298 Z" fill="#000000" fill-rule="nonzero" fill-opacity="1" /><path clip-path="url(#clip430)" d="M774.777 16.7545 L774.777 25.383 Q770.645 21.5346 765.946 19.6307 Q761.288 17.7268 756.022 17.7268 Q745.651 17.7268 740.142 24.0867 Q734.633 30.4061 734.633 42.3968 Q734.633 54.3469 740.142 60.7069 Q745.651 67.0263 756.022 67.0263 Q761.288 67.0263 765.946 65.1223 Q770.645 63.2184 774.777 59.3701 L774.777 67.9175 Q770.483 70.8341 765.663 72.2924 Q760.883 73.7508 755.536 73.7508 Q741.803 73.7508 733.904 65.3654 Q726.004 56.9395 726.004 42.3968 Q726.004 27.8135 733.904 19.4281 Q741.803 11.0023 755.536 11.0023 Q760.964 11.0023 765.744 12.4606 Q770.564 13.8784 774.777 16.7545 Z" fill="#000000" fill-rule="nonzero" fill-opacity="1" /><path clip-path="url(#clip430)" d="M804.673 32.4315 Q798.678 32.4315 795.194 37.1306 Q791.71 41.7891 791.71 49.9314 Q791.71 58.0738 795.153 62.7728 Q798.637 67.4314 804.673 67.4314 Q810.628 67.4314 814.112 62.7323 Q817.595 58.0333 817.595 49.9314 Q817.595 41.8701 814.112 37.1711 Q810.628 32.4315 804.673 32.4315 M804.673 26.1121 Q814.395 26.1121 819.945 32.4315 Q825.495 38.7509 825.495 49.9314 Q825.495 61.0714 819.945 67.4314 Q814.395 73.7508 804.673 73.7508 Q794.91 73.7508 789.361 67.4314 Q783.851 61.0714 783.851 49.9314 Q783.851 38.7509 789.361 32.4315 Q794.91 26.1121 804.673 26.1121 Z" fill="#000000" fill-rule="nonzero" fill-opacity="1" /><path clip-path="url(#clip430)" d="M873.174 35.9153 Q875.969 30.8922 879.858 28.5022 Q883.747 26.1121 889.013 26.1121 Q896.102 26.1121 899.95 31.0947 Q903.799 36.0368 903.799 45.1919 L903.799 72.576 L896.304 72.576 L896.304 45.4349 Q896.304 38.913 893.995 35.7533 Q891.686 32.5936 886.947 32.5936 Q881.154 32.5936 877.792 36.4419 Q874.43 40.2903 874.43 46.9338 L874.43 72.576 L866.935 72.576 L866.935 45.4349 Q866.935 38.8725 864.626 35.7533 Q862.317 32.5936 857.497 32.5936 Q851.785 32.5936 848.423 36.4824 Q845.061 40.3308 845.061 46.9338 L845.061 72.576 L837.566 72.576 L837.566 27.2059 L845.061 27.2059 L845.061 34.2544 Q847.613 30.082 851.177 28.0971 Q854.742 26.1121 859.644 26.1121 Q864.586 26.1121 868.029 28.6237 Q871.513 31.1352 873.174 35.9153 Z" fill="#000000" fill-rule="nonzero" fill-opacity="1" /><path clip-path="url(#clip430)" d="M925.876 65.7705 L925.876 89.8329 L918.382 89.8329 L918.382 27.2059 L925.876 27.2059 L925.876 34.0924 Q928.226 30.0415 931.79 28.0971 Q935.396 26.1121 940.378 26.1121 Q948.642 26.1121 953.787 32.6746 Q958.972 39.2371 958.972 49.9314 Q958.972 60.6258 953.787 67.1883 Q948.642 73.7508 940.378 73.7508 Q935.396 73.7508 931.79 71.8063 Q928.226 69.8214 925.876 65.7705 M951.235 49.9314 Q951.235 41.7081 947.832 37.0496 Q944.47 32.3505 938.555 32.3505 Q932.641 32.3505 929.238 37.0496 Q925.876 41.7081 925.876 49.9314 Q925.876 58.1548 929.238 62.8538 Q932.641 67.5124 938.555 67.5124 Q944.47 67.5124 947.832 62.8538 Q951.235 58.1548 951.235 49.9314 Z" fill="#000000" fill-rule="nonzero" fill-opacity="1" /><path clip-path="url(#clip430)" d="M988.908 32.4315 Q982.913 32.4315 979.429 37.1306 Q975.945 41.7891 975.945 49.9314 Q975.945 58.0738 979.389 62.7728 Q982.872 67.4314 988.908 67.4314 Q994.863 67.4314 998.347 62.7323 Q1001.83 58.0333 1001.83 49.9314 Q1001.83 41.8701 998.347 37.1711 Q994.863 32.4315 988.908 32.4315 M988.908 26.1121 Q998.63 26.1121 1004.18 32.4315 Q1009.73 38.7509 1009.73 49.9314 Q1009.73 61.0714 1004.18 67.4314 Q998.63 73.7508 988.908 73.7508 Q979.145 73.7508 973.596 67.4314 Q968.087 61.0714 968.087 49.9314 Q968.087 38.7509 973.596 32.4315 Q979.145 26.1121 988.908 26.1121 Z" fill="#000000" fill-rule="nonzero" fill-opacity="1" /><path clip-path="url(#clip430)" d="M1021.32 54.671 L1021.32 27.2059 L1028.77 27.2059 L1028.77 54.3874 Q1028.77 60.8284 1031.28 64.0691 Q1033.79 67.2693 1038.82 67.2693 Q1044.85 67.2693 1048.33 63.421 Q1051.86 59.5726 1051.86 52.9291 L1051.86 27.2059 L1059.31 27.2059 L1059.31 72.576 L1051.86 72.576 L1051.86 65.6084 Q1049.15 69.7404 1045.54 71.7658 Q1041.98 73.7508 1037.24 73.7508 Q1029.42 73.7508 1025.37 68.8897 Q1021.32 64.0286 1021.32 54.671 M1040.07 26.1121 L1040.07 26.1121 Z" fill="#000000" fill-rule="nonzero" fill-opacity="1" /><path clip-path="url(#clip430)" d="M1112.38 45.1919 L1112.38 72.576 L1104.93 72.576 L1104.93 45.4349 Q1104.93 38.994 1102.41 35.7938 Q1099.9 32.5936 1094.88 32.5936 Q1088.84 32.5936 1085.36 36.4419 Q1081.88 40.2903 1081.88 46.9338 L1081.88 72.576 L1074.38 72.576 L1074.38 27.2059 L1081.88 27.2059 L1081.88 34.2544 Q1084.55 30.163 1088.16 28.1376 Q1091.8 26.1121 1096.54 26.1121 Q1104.36 26.1121 1108.37 30.9732 Q1112.38 35.7938 1112.38 45.1919 Z" fill="#000000" fill-rule="nonzero" fill-opacity="1" /><path clip-path="url(#clip430)" d="M1157.1 34.0924 L1157.1 9.54393 L1164.56 9.54393 L1164.56 72.576 L1157.1 72.576 L1157.1 65.7705 Q1154.75 69.8214 1151.15 71.8063 Q1147.58 73.7508 1142.56 73.7508 Q1134.34 73.7508 1129.15 67.1883 Q1124.01 60.6258 1124.01 49.9314 Q1124.01 39.2371 1129.15 32.6746 Q1134.34 26.1121 1142.56 26.1121 Q1147.58 26.1121 1151.15 28.0971 Q1154.75 30.0415 1157.1 34.0924 M1131.7 49.9314 Q1131.7 58.1548 1135.06 62.8538 Q1138.47 67.5124 1144.38 67.5124 Q1150.3 67.5124 1153.7 62.8538 Q1157.1 58.1548 1157.1 49.9314 Q1157.1 41.7081 1153.7 37.0496 Q1150.3 32.3505 1144.38 32.3505 Q1138.47 32.3505 1135.06 37.0496 Q1131.7 41.7081 1131.7 49.9314 Z" fill="#000000" fill-rule="nonzero" fill-opacity="1" /><path clip-path="url(#clip430)" d="M1214.79 18.8205 L1214.79 41.5461 L1225.08 41.5461 Q1230.79 41.5461 1233.91 38.5889 Q1237.03 35.6318 1237.03 30.163 Q1237.03 24.7348 1233.91 21.7777 Q1230.79 18.8205 1225.08 18.8205 L1214.79 18.8205 M1206.6 12.096 L1225.08 12.096 Q1235.24 12.096 1240.43 16.714 Q1245.65 21.2916 1245.65 30.163 Q1245.65 39.1155 1240.43 43.6931 Q1235.24 48.2706 1225.08 48.2706 L1214.79 48.2706 L1214.79 72.576 L1206.6 72.576 L1206.6 12.096 Z" fill="#000000" fill-rule="nonzero" fill-opacity="1" /><path clip-path="url(#clip430)" d="M1292.16 48.0275 L1292.16 51.6733 L1257.89 51.6733 Q1258.37 59.3701 1262.51 63.421 Q1266.68 67.4314 1274.09 67.4314 Q1278.39 67.4314 1282.4 66.3781 Q1286.45 65.3249 1290.42 63.2184 L1290.42 70.267 Q1286.41 71.9684 1282.19 72.8596 Q1277.98 73.7508 1273.65 73.7508 Q1262.79 73.7508 1256.43 67.4314 Q1250.11 61.1119 1250.11 50.3365 Q1250.11 39.1965 1256.11 32.6746 Q1262.14 26.1121 1272.35 26.1121 Q1281.5 26.1121 1286.81 32.0264 Q1292.16 37.9003 1292.16 48.0275 M1284.71 45.84 Q1284.62 39.7232 1281.26 36.0774 Q1277.94 32.4315 1272.43 32.4315 Q1266.19 32.4315 1262.43 35.9558 Q1258.7 39.4801 1258.13 45.8805 L1284.71 45.84 Z" fill="#000000" fill-rule="nonzero" fill-opacity="1" /><path clip-path="url(#clip430)" d="M1342.11 45.1919 L1342.11 72.576 L1334.65 72.576 L1334.65 45.4349 Q1334.65 38.994 1332.14 35.7938 Q1329.63 32.5936 1324.61 32.5936 Q1318.57 32.5936 1315.09 36.4419 Q1311.6 40.2903 1311.6 46.9338 L1311.6 72.576 L1304.11 72.576 L1304.11 27.2059 L1311.6 27.2059 L1311.6 34.2544 Q1314.28 30.163 1317.88 28.1376 Q1321.53 26.1121 1326.27 26.1121 Q1334.09 26.1121 1338.1 30.9732 Q1342.11 35.7938 1342.11 45.1919 Z" fill="#000000" fill-rule="nonzero" fill-opacity="1" /><path clip-path="url(#clip430)" d="M1386.83 34.0924 L1386.83 9.54393 L1394.28 9.54393 L1394.28 72.576 L1386.83 72.576 L1386.83 65.7705 Q1384.48 69.8214 1380.87 71.8063 Q1377.31 73.7508 1372.29 73.7508 Q1364.06 73.7508 1358.88 67.1883 Q1353.73 60.6258 1353.73 49.9314 Q1353.73 39.2371 1358.88 32.6746 Q1364.06 26.1121 1372.29 26.1121 Q1377.31 26.1121 1380.87 28.0971 Q1384.48 30.0415 1386.83 34.0924 M1361.43 49.9314 Q1361.43 58.1548 1364.79 62.8538 Q1368.19 67.5124 1374.11 67.5124 Q1380.02 67.5124 1383.43 62.8538 Q1386.83 58.1548 1386.83 49.9314 Q1386.83 41.7081 1383.43 37.0496 Q1380.02 32.3505 1374.11 32.3505 Q1368.19 32.3505 1364.79 37.0496 Q1361.43 41.7081 1361.43 49.9314 Z" fill="#000000" fill-rule="nonzero" fill-opacity="1" /><path clip-path="url(#clip430)" d="M1408.87 54.671 L1408.87 27.2059 L1416.32 27.2059 L1416.32 54.3874 Q1416.32 60.8284 1418.83 64.0691 Q1421.34 67.2693 1426.37 67.2693 Q1432.4 67.2693 1435.88 63.421 Q1439.41 59.5726 1439.41 52.9291 L1439.41 27.2059 L1446.86 27.2059 L1446.86 72.576 L1439.41 72.576 L1439.41 65.6084 Q1436.7 69.7404 1433.09 71.7658 Q1429.53 73.7508 1424.79 73.7508 Q1416.97 73.7508 1412.92 68.8897 Q1408.87 64.0286 1408.87 54.671 M1427.62 26.1121 L1427.62 26.1121 Z" fill="#000000" fill-rule="nonzero" fill-opacity="1" /><path clip-path="url(#clip430)" d="M1462.22 9.54393 L1469.67 9.54393 L1469.67 72.576 L1462.22 72.576 L1462.22 9.54393 Z" fill="#000000" fill-rule="nonzero" fill-opacity="1" /><path clip-path="url(#clip430)" d="M1484.5 54.671 L1484.5 27.2059 L1491.95 27.2059 L1491.95 54.3874 Q1491.95 60.8284 1494.46 64.0691 Q1496.97 67.2693 1502 67.2693 Q1508.03 67.2693 1511.52 63.421 Q1515.04 59.5726 1515.04 52.9291 L1515.04 27.2059 L1522.49 27.2059 L1522.49 72.576 L1515.04 72.576 L1515.04 65.6084 Q1512.33 69.7404 1508.72 71.7658 Q1505.16 73.7508 1500.42 73.7508 Q1492.6 73.7508 1488.55 68.8897 Q1484.5 64.0286 1484.5 54.671 M1503.25 26.1121 L1503.25 26.1121 Z" fill="#000000" fill-rule="nonzero" fill-opacity="1" /><path clip-path="url(#clip430)" d="M1573.17 35.9153 Q1575.97 30.8922 1579.85 28.5022 Q1583.74 26.1121 1589.01 26.1121 Q1596.1 26.1121 1599.95 31.0947 Q1603.79 36.0368 1603.79 45.1919 L1603.79 72.576 L1596.3 72.576 L1596.3 45.4349 Q1596.3 38.913 1593.99 35.7533 Q1591.68 32.5936 1586.94 32.5936 Q1581.15 32.5936 1577.79 36.4419 Q1574.43 40.2903 1574.43 46.9338 L1574.43 72.576 L1566.93 72.576 L1566.93 45.4349 Q1566.93 38.8725 1564.62 35.7533 Q1562.31 32.5936 1557.49 32.5936 Q1551.78 32.5936 1548.42 36.4824 Q1545.06 40.3308 1545.06 46.9338 L1545.06 72.576 L1537.56 72.576 L1537.56 27.2059 L1545.06 27.2059 L1545.06 34.2544 Q1547.61 30.082 1551.17 28.0971 Q1554.74 26.1121 1559.64 26.1121 Q1564.58 26.1121 1568.03 28.6237 Q1571.51 31.1352 1573.17 35.9153 Z" fill="#000000" fill-rule="nonzero" fill-opacity="1" /><path clip-path="url(#clip430)" d="M1665.57 20.1573 L1654.47 50.2555 L1676.71 50.2555 L1665.57 20.1573 M1660.95 12.096 L1670.23 12.096 L1693.28 72.576 L1684.77 72.576 L1679.26 57.061 L1652 57.061 L1646.49 72.576 L1637.86 72.576 L1660.95 12.096 Z" fill="#000000" fill-rule="nonzero" fill-opacity="1" /><path clip-path="url(#clip430)" d="M1739.5 45.1919 L1739.5 72.576 L1732.05 72.576 L1732.05 45.4349 Q1732.05 38.994 1729.53 35.7938 Q1727.02 32.5936 1722 32.5936 Q1715.96 32.5936 1712.48 36.4419 Q1709 40.2903 1709 46.9338 L1709 72.576 L1701.5 72.576 L1701.5 27.2059 L1709 27.2059 L1709 34.2544 Q1711.67 30.163 1715.28 28.1376 Q1718.92 26.1121 1723.66 26.1121 Q1731.48 26.1121 1735.49 30.9732 Q1739.5 35.7938 1739.5 45.1919 Z" fill="#000000" fill-rule="nonzero" fill-opacity="1" /><path clip-path="url(#clip430)" d="M1784.22 49.3643 Q1784.22 41.2625 1780.86 36.8065 Q1777.54 32.3505 1771.5 32.3505 Q1765.51 32.3505 1762.14 36.8065 Q1758.82 41.2625 1758.82 49.3643 Q1758.82 57.4256 1762.14 61.8816 Q1765.51 66.3376 1771.5 66.3376 Q1777.54 66.3376 1780.86 61.8816 Q1784.22 57.4256 1784.22 49.3643 M1791.68 66.9452 Q1791.68 78.5308 1786.53 84.1616 Q1781.39 89.8329 1770.77 89.8329 Q1766.84 89.8329 1763.36 89.2252 Q1759.88 88.6581 1756.6 87.4428 L1756.6 80.1917 Q1759.88 81.9741 1763.08 82.8248 Q1766.28 83.6755 1769.6 83.6755 Q1776.93 83.6755 1780.58 79.8271 Q1784.22 76.0193 1784.22 68.282 L1784.22 64.5957 Q1781.91 68.6061 1778.31 70.5911 Q1774.7 72.576 1769.68 72.576 Q1761.33 72.576 1756.23 66.2161 Q1751.13 59.8562 1751.13 49.3643 Q1751.13 38.832 1756.23 32.472 Q1761.33 26.1121 1769.68 26.1121 Q1774.7 26.1121 1778.31 28.0971 Q1781.91 30.082 1784.22 34.0924 L1784.22 27.2059 L1791.68 27.2059 L1791.68 66.9452 Z" fill="#000000" fill-rule="nonzero" fill-opacity="1" /><path clip-path="url(#clip430)" d="M1807.03 9.54393 L1814.48 9.54393 L1814.48 72.576 L1807.03 72.576 L1807.03 9.54393 Z" fill="#000000" fill-rule="nonzero" fill-opacity="1" /><path clip-path="url(#clip430)" d="M1868.89 48.0275 L1868.89 51.6733 L1834.62 51.6733 Q1835.1 59.3701 1839.23 63.421 Q1843.41 67.4314 1850.82 67.4314 Q1855.11 67.4314 1859.12 66.3781 Q1863.17 65.3249 1867.14 63.2184 L1867.14 70.267 Q1863.13 71.9684 1858.92 72.8596 Q1854.71 73.7508 1850.37 73.7508 Q1839.52 73.7508 1833.16 67.4314 Q1826.84 61.1119 1826.84 50.3365 Q1826.84 39.1965 1832.83 32.6746 Q1838.87 26.1121 1849.08 26.1121 Q1858.23 26.1121 1863.54 32.0264 Q1868.89 37.9003 1868.89 48.0275 M1861.43 45.84 Q1861.35 39.7232 1857.99 36.0774 Q1854.67 32.4315 1849.16 32.4315 Q1842.92 32.4315 1839.15 35.9558 Q1835.43 39.4801 1834.86 45.8805 L1861.43 45.84 Z" fill="#000000" fill-rule="nonzero" fill-opacity="1" /><polyline clip-path="url(#clip432)" style="stroke:#009af9; stroke-linecap:round; stroke-linejoin:round; stroke-width:8; stroke-opacity:1; fill:none" points="301.869,160.256 302.865,161.14 303.86,163.789 304.856,168.199 305.852,174.368 306.847,182.299 307.843,191.995 308.838,203.465 309.834,216.716 310.829,231.76 311.825,248.612 312.821,267.287 313.816,287.802 314.812,310.178 315.807,334.435 316.803,360.593 317.798,388.671 318.794,418.687 319.79,450.654 320.785,484.575 321.781,520.444 322.776,558.233 323.772,597.894 324.767,639.339 325.763,682.439 326.759,727.006 327.754,772.783 328.75,819.437 329.745,866.555 330.741,913.659 331.737,960.223 332.732,1005.71 333.728,1049.59 334.723,1091.44 335.719,1130.86 336.714,1167.6 337.71,1201.48 338.706,1232.38 339.701,1260.29 340.697,1285.21 341.692,1307.19 342.688,1326.3 343.683,1342.6 344.679,1356.19 345.675,1367.16 346.67,1375.58 347.666,1381.53 348.661,1385.12 349.657,1386.4 350.652,1385.45 351.648,1382.37 352.644,1377.21 353.639,1370.07 354.635,1361.02 355.63,1350.15 356.626,1337.56 357.621,1323.36 358.617,1307.64 359.613,1290.55 360.608,1272.23 361.604,1252.82 362.599,1232.49 363.595,1211.44 364.591,1189.84 365.586,1167.92 366.582,1145.88 367.577,1123.92 368.573,1102.27 369.568,1081.13 370.564,1060.69 371.56,1041.12 372.555,1022.58 373.551,1005.22 374.546,989.152 375.542,974.481 376.537,961.288 377.533,949.639 378.529,939.584 379.524,931.159 380.52,924.388 381.515,919.284 382.511,915.852 383.506,914.085 384.502,913.97 385.498,915.487 386.493,918.607 387.489,923.294 388.484,929.505 389.48,937.188 390.475,946.282 391.471,956.721 392.467,968.425 393.462,981.308 394.458,995.273 395.453,1010.21 396.449,1026.02 397.445,1042.57 398.44,1059.72 399.436,1077.36 400.431,1095.35 401.427,1113.55 402.422,1131.83 403.418,1150.05 404.414,1168.1 405.409,1185.86 406.405,1203.22 407.4,1220.09 408.396,1236.38 409.391,1252.02 410.387,1266.93 411.383,1281.07 412.378,1294.38 413.374,1306.83 414.369,1318.39 415.365,1329.03 416.36,1338.74 417.356,1347.51 418.352,1355.32 419.347,1362.18 420.343,1368.09 421.338,1373.06 422.334,1377.08 423.33,1380.18 424.325,1382.37 425.321,1383.67 426.316,1384.09 427.312,1383.66 428.307,1382.4 429.303,1380.34 430.299,1377.5 431.294,1373.92 432.29,1369.64 433.285,1364.69 434.281,1359.11 435.276,1352.94 436.272,1346.22 437.268,1339.01 438.263,1331.35 439.259,1323.29 440.254,1314.9 441.25,1306.21 442.245,1297.3 443.241,1288.21 444.237,1279.01 445.232,1269.76 446.228,1260.52 447.223,1251.34 448.219,1242.28 449.214,1233.41 450.21,1224.77 451.206,1216.41 452.201,1208.38 453.197,1200.72 454.192,1193.48 455.188,1186.68 456.184,1180.37 457.179,1174.55 458.175,1169.26 459.17,1164.51 460.166,1160.31 461.161,1156.66 462.157,1153.56 463.153,1151.01 464.148,1149 465.144,1147.52 466.139,1146.54 467.135,1146.06 468.13,1146.04 469.126,1146.45 470.122,1147.27 471.117,1148.47 472.113,1150 473.108,1151.83 474.104,1153.93 475.099,1156.25 476.095,1158.76 477.091,1161.41 478.086,1164.17 479.082,1166.99 480.077,1169.83 481.073,1172.66 482.068,1175.44 483.064,1178.14 484.06,1180.71 485.055,1183.13 486.051,1185.36 487.046,1187.38 488.042,1189.16 489.038,1190.67 490.033,1191.9 491.029,1192.83 492.024,1193.43 493.02,1193.69 494.015,1193.61 495.011,1193.16 496.007,1192.35 497.002,1191.17 497.998,1189.62 498.993,1187.7 499.989,1185.41 500.984,1182.75 501.98,1179.74 502.976,1176.38 503.971,1172.68 504.967,1168.67 505.962,1164.35 506.958,1159.73 507.953,1154.85 508.949,1149.72 509.945,1144.37 510.94,1138.81 511.936,1133.07 512.931,1127.17 513.927,1121.15 514.923,1115.02 515.918,1108.81 516.914,1102.55 517.909,1096.27 518.905,1089.99 519.9,1083.74 520.896,1077.53 521.892,1071.4 522.887,1065.36 523.883,1059.44 524.878,1053.66 525.874,1048.03 526.869,1042.57 527.865,1037.29 528.861,1032.22 529.856,1027.35 530.852,1022.71 531.847,1018.29 532.843,1014.1 533.838,1010.15 534.834,1006.44 535.83,1002.98 536.825,999.749 537.821,996.763 538.816,994.012 539.812,991.492 540.807,989.197 541.803,987.12 542.799,985.253 543.794,983.586 544.79,982.11 545.785,980.814 546.781,979.686 547.777,978.715 548.772,977.887 549.768,977.191 550.763,976.612 551.759,976.138 552.754,975.756 553.75,975.452 554.746,975.212 555.741,975.025 556.737,974.877 557.732,974.757 558.728,974.652 559.723,974.552 560.719,974.445 561.715,974.323 562.71,974.175 563.706,973.993 564.701,973.77 565.697,973.498 566.692,973.173 567.688,972.789 568.684,972.341 569.679,971.827 570.675,971.244 571.67,970.591 572.666,969.868 573.661,969.074 574.657,968.212 575.653,967.282 576.648,966.288 577.644,965.232 578.639,964.121 579.635,962.957 580.631,961.746 581.626,960.495 582.622,959.209 583.617,957.895 584.613,956.561 585.608,955.213 586.604,953.86 587.6,952.508 588.595,951.166 589.591,949.841 590.586,948.542 591.582,947.275 592.577,946.049 593.573,944.87 594.569,943.747 595.564,942.686 596.56,941.693 597.555,940.775 598.551,939.938 599.546,939.187 600.542,938.527 601.538,937.962 602.533,937.497 603.529,937.135 604.524,936.88 605.52,936.733 606.516,936.697 607.511,936.774 608.507,936.963 609.502,937.267 610.498,937.684 611.493,938.214 612.489,938.856 613.485,939.608 614.48,940.469 615.476,941.437 616.471,942.507 617.467,943.678 618.462,944.945 619.458,946.305 620.454,947.753 621.449,949.286 622.445,950.898 623.44,952.584 624.436,954.34 625.431,956.161 626.427,958.04 627.423,959.973 628.418,961.954 629.414,963.978 630.409,966.039 631.405,968.133 632.4,970.253 633.396,972.396 634.392,974.555 635.387,976.727 636.383,978.907 637.378,981.09 638.374,983.273 639.37,985.451 640.365,987.621 641.361,989.78 642.356,991.925 643.352,994.054 644.347,996.163 645.343,998.251 646.339,1000.32 647.334,1002.36 648.33,1004.38 649.325,1006.37 650.321,1008.33 651.316,1010.27 652.312,1012.18 653.308,1014.07 654.303,1015.93 655.299,1017.77 656.294,1019.59 657.29,1021.38 658.285,1023.15 659.281,1024.91 660.277,1026.64 661.272,1028.37 662.268,1030.07 663.263,1031.77 664.259,1033.46 665.254,1035.14 666.25,1036.81 667.246,1038.48 668.241,1040.15 669.237,1041.82 670.232,1043.49 671.228,1045.17 672.224,1046.85 673.219,1048.54 674.215,1050.23 675.21,1051.94 676.206,1053.66 677.201,1055.39 678.197,1057.12 679.193,1058.88 680.188,1060.64 681.184,1062.42 682.179,1064.21 683.175,1066.02 684.17,1067.83 685.166,1069.66 686.162,1071.5 687.157,1073.35 688.153,1075.21 689.148,1077.07 690.144,1078.95 691.139,1080.82 692.135,1082.71 693.131,1084.59 694.126,1086.47 695.122,1088.35 696.117,1090.23 697.113,1092.1 698.108,1093.96 699.104,1095.81 700.1,1097.65 701.095,1099.47 702.091,1101.28 703.086,1103.06 704.082,1104.83 705.078,1106.57 706.073,1108.29 707.069,1109.98 708.064,1111.64 709.06,1113.27 710.055,1114.86 711.051,1116.42 712.047,1117.95 713.042,1119.44 714.038,1120.89 715.033,1122.3 716.029,1123.66 717.024,1124.99 718.02,1126.27 719.016,1127.51 720.011,1128.71 721.007,1129.86 722.002,1130.96 722.998,1132.02 723.993,1133.04 724.989,1134.01 725.985,1134.93 726.98,1135.81 727.976,1136.64 728.971,1137.43 729.967,1138.17 730.963,1138.87 731.958,1139.53 732.954,1140.14 733.949,1140.72 734.945,1141.25 735.94,1141.74 736.936,1142.19 737.932,1142.61 738.927,1142.98 739.923,1143.32 740.918,1143.62 741.914,1143.89 742.909,1144.13 743.905,1144.33 744.901,1144.49 745.896,1144.63 746.892,1144.74 747.887,1144.82 748.883,1144.86 749.878,1144.88 750.874,1144.88 751.87,1144.84 752.865,1144.78 753.861,1144.7 754.856,1144.58 755.852,1144.45 756.847,1144.29 757.843,1144.1 758.839,1143.9 759.834,1143.67 760.83,1143.41 761.825,1143.14 762.821,1142.84 763.817,1142.51 764.812,1142.17 765.808,1141.8 766.803,1141.41 767.799,1141 768.794,1140.57 769.79,1140.11 770.786,1139.63 771.781,1139.13 772.777,1138.6 773.772,1138.05 774.768,1137.48 775.763,1136.89 776.759,1136.27 777.755,1135.63 778.75,1134.96 779.746,1134.27 780.741,1133.56 781.737,1132.82 782.732,1132.06 783.728,1131.27 784.724,1130.46 785.719,1129.63 786.715,1128.77 787.71,1127.89 788.706,1126.99 789.701,1126.06 790.697,1125.11 791.693,1124.14 792.688,1123.14 793.684,1122.13 794.679,1121.09 795.675,1120.03 796.671,1118.95 797.666,1117.85 798.662,1116.73 799.657,1115.59 800.653,1114.43 801.648,1113.26 802.644,1112.06 803.64,1110.85 804.635,1109.63 805.631,1108.39 806.626,1107.14 807.622,1105.87 808.617,1104.59 809.613,1103.3 810.609,1102 811.604,1100.69 812.6,1099.37 813.595,1098.05 814.591,1096.71 815.586,1095.37 816.582,1094.03 817.578,1092.67 818.573,1091.32 819.569,1089.96 820.564,1088.6 821.56,1087.24 822.556,1085.88 823.551,1084.52 824.547,1083.16 825.542,1081.8 826.538,1080.44 827.533,1079.09 828.529,1077.74 829.525,1076.39 830.52,1075.05 831.516,1073.71 832.511,1072.38 833.507,1071.06 834.502,1069.75 835.498,1068.44 836.494,1067.14 837.489,1065.85 838.485,1064.56 839.48,1063.29 840.476,1062.03 841.471,1060.77 842.467,1059.53 843.463,1058.3 844.458,1057.08 845.454,1055.87 846.449,1054.67 847.445,1053.48 848.44,1052.31 849.436,1051.14 850.432,1049.99 851.427,1048.86 852.423,1047.73 853.418,1046.62 854.414,1045.52 855.41,1044.44 856.405,1043.37 857.401,1042.31 858.396,1041.27 859.392,1040.25 860.387,1039.23 861.383,1038.23 862.379,1037.25 863.374,1036.28 864.37,1035.33 865.365,1034.4 866.361,1033.47 867.356,1032.57 868.352,1031.68 869.348,1030.81 870.343,1029.96 871.339,1029.12 872.334,1028.3 873.33,1027.5 874.325,1026.71 875.321,1025.95 876.317,1025.2 877.312,1024.47 878.308,1023.76 879.303,1023.07 880.299,1022.39 881.294,1021.74 882.29,1021.11 883.286,1020.49 884.281,1019.9 885.277,1019.33 886.272,1018.78 887.268,1018.25 888.264,1017.74 889.259,1017.25 890.255,1016.78 891.25,1016.34 892.246,1015.92 893.241,1015.52 894.237,1015.14 895.233,1014.78 896.228,1014.45 897.224,1014.13 898.219,1013.84 899.215,1013.58 900.21,1013.33 901.206,1013.11 902.202,1012.91 903.197,1012.73 904.193,1012.58 905.188,1012.45 906.184,1012.34 907.179,1012.25 908.175,1012.19 909.171,1012.15 910.166,1012.13 911.162,1012.13 912.157,1012.15 913.153,1012.2 914.149,1012.27 915.144,1012.36 916.14,1012.47 917.135,1012.6 918.131,1012.75 919.126,1012.92 920.122,1013.12 921.118,1013.33 922.113,1013.57 923.109,1013.82 924.104,1014.09 925.1,1014.38 926.095,1014.69 927.091,1015.02 928.087,1015.37 929.082,1015.73 930.078,1016.12 931.073,1016.52 932.069,1016.94 933.064,1017.37 934.06,1017.82 935.056,1018.29 936.051,1018.77 937.047,1019.27 938.042,1019.78 939.038,1020.31 940.033,1020.85 941.029,1021.41 942.025,1021.98 943.02,1022.57 944.016,1023.16 945.011,1023.77 946.007,1024.4 947.003,1025.03 947.998,1025.68 948.994,1026.34 949.989,1027.01 950.985,1027.69 951.98,1028.39 952.976,1029.09 953.972,1029.8 954.967,1030.52 955.963,1031.26 956.958,1032 957.954,1032.75 958.949,1033.51 959.945,1034.28 960.941,1035.05 961.936,1035.83 962.932,1036.62 963.927,1037.42 964.923,1038.22 965.918,1039.03 966.914,1039.85 967.91,1040.67 968.905,1041.5 969.901,1042.33 970.896,1043.16 971.892,1044 972.887,1044.85 973.883,1045.7 974.879,1046.55 975.874,1047.4 976.87,1048.26 977.865,1049.12 978.861,1049.98 979.857,1050.84 980.852,1051.7 981.848,1052.57 982.843,1053.43 983.839,1054.3 984.834,1055.16 985.83,1056.03 986.826,1056.89 987.821,1057.75 988.817,1058.61 989.812,1059.47 990.808,1060.33 991.803,1061.18 992.799,1062.03 993.795,1062.88 994.79,1063.73 995.786,1064.57 996.781,1065.4 997.777,1066.23 998.772,1067.06 999.768,1067.88 1000.76,1068.7 1001.76,1069.51 1002.75,1070.31 1003.75,1071.11 1004.75,1071.9 1005.74,1072.68 1006.74,1073.45 1007.73,1074.22 1008.73,1074.98 1009.72,1075.73 1010.72,1076.48 1011.71,1077.21 1012.71,1077.94 1013.71,1078.65 1014.7,1079.36 1015.7,1080.06 1016.69,1080.74 1017.69,1081.42 1018.68,1082.08 1019.68,1082.74 1020.68,1083.38 1021.67,1084.02 1022.67,1084.64 1023.66,1085.25 1024.66,1085.85 1025.65,1086.44 1026.65,1087.01 1027.64,1087.57 1028.64,1088.12 1029.64,1088.66 1030.63,1089.19 1031.63,1089.7 1032.62,1090.2 1033.62,1090.69 1034.61,1091.16 1035.61,1091.62 1036.6,1092.07 1037.6,1092.51 1038.6,1092.93 1039.59,1093.33 1040.59,1093.73 1041.58,1094.11 1042.58,1094.47 1043.57,1094.83 1044.57,1095.17 1045.56,1095.49 1046.56,1095.8 1047.56,1096.1 1048.55,1096.38 1049.55,1096.65 1050.54,1096.9 1051.54,1097.14 1052.53,1097.37 1053.53,1097.58 1054.52,1097.78 1055.52,1097.96 1056.52,1098.13 1057.51,1098.28 1058.51,1098.42 1059.5,1098.55 1060.5,1098.66 1061.49,1098.76 1062.49,1098.84 1063.48,1098.91 1064.48,1098.97 1065.48,1099.01 1066.47,1099.04 1067.47,1099.05 1068.46,1099.06 1069.46,1099.04 1070.45,1099.02 1071.45,1098.98 1072.45,1098.92 1073.44,1098.86 1074.44,1098.78 1075.43,1098.68 1076.43,1098.58 1077.42,1098.46 1078.42,1098.32 1079.41,1098.18 1080.41,1098.02 1081.41,1097.85 1082.4,1097.67 1083.4,1097.47 1084.39,1097.27 1085.39,1097.05 1086.38,1096.82 1087.38,1096.58 1088.37,1096.32 1089.37,1096.06 1090.37,1095.78 1091.36,1095.5 1092.36,1095.2 1093.35,1094.89 1094.35,1094.57 1095.34,1094.24 1096.34,1093.9 1097.33,1093.55 1098.33,1093.19 1099.33,1092.83 1100.32,1092.45 1101.32,1092.06 1102.31,1091.67 1103.31,1091.26 1104.3,1090.85 1105.3,1090.43 1106.29,1090 1107.29,1089.56 1108.29,1089.12 1109.28,1088.67 1110.28,1088.21 1111.27,1087.74 1112.27,1087.27 1113.26,1086.79 1114.26,1086.31 1115.25,1085.82 1116.25,1085.32 1117.25,1084.82 1118.24,1084.31 1119.24,1083.8 1120.23,1083.28 1121.23,1082.76 1122.22,1082.23 1123.22,1081.7 1124.22,1081.17 1125.21,1080.63 1126.21,1080.09 1127.2,1079.54 1128.2,1078.99 1129.19,1078.44 1130.19,1077.89 1131.18,1077.34 1132.18,1076.78 1133.18,1076.22 1134.17,1075.66 1135.17,1075.1 1136.16,1074.54 1137.16,1073.97 1138.15,1073.41 1139.15,1072.84 1140.14,1072.28 1141.14,1071.71 1142.14,1071.15 1143.13,1070.59 1144.13,1070.02 1145.12,1069.46 1146.12,1068.9 1147.11,1068.34 1148.11,1067.78 1149.1,1067.23 1150.1,1066.67 1151.1,1066.12 1152.09,1065.57 1153.09,1065.02 1154.08,1064.48 1155.08,1063.94 1156.07,1063.4 1157.07,1062.87 1158.06,1062.34 1159.06,1061.81 1160.06,1061.29 1161.05,1060.77 1162.05,1060.26 1163.04,1059.75 1164.04,1059.24 1165.03,1058.74 1166.03,1058.25 1167.02,1057.76 1168.02,1057.27 1169.02,1056.8 1170.01,1056.32 1171.01,1055.86 1172,1055.4 1173,1054.94 1173.99,1054.49 1174.99,1054.05 1175.99,1053.62 1176.98,1053.19 1177.98,1052.77 1178.97,1052.35 1179.97,1051.95 1180.96,1051.55 1181.96,1051.16 1182.95,1050.77 1183.95,1050.4 1184.95,1050.03 1185.94,1049.67 1186.94,1049.31 1187.93,1048.97 1188.93,1048.63 1189.92,1048.3 1190.92,1047.98 1191.91,1047.67 1192.91,1047.37 1193.91,1047.07 1194.9,1046.79 1195.9,1046.51 1196.89,1046.24 1197.89,1045.98 1198.88,1045.73 1199.88,1045.49 1200.87,1045.26 1201.87,1045.04 1202.87,1044.82 1203.86,1044.62 1204.86,1044.42 1205.85,1044.24 1206.85,1044.06 1207.84,1043.89 1208.84,1043.73 1209.83,1043.58 1210.83,1043.44 1211.83,1043.31 1212.82,1043.19 1213.82,1043.08 1214.81,1042.98 1215.81,1042.88 1216.8,1042.8 1217.8,1042.73 1218.79,1042.66 1219.79,1042.6 1220.79,1042.56 1221.78,1042.52 1222.78,1042.49 1223.77,1042.47 1224.77,1042.46 1225.76,1042.46 1226.76,1042.47 1227.75,1042.48 1228.75,1042.51 1229.75,1042.54 1230.74,1042.58 1231.74,1042.64 1232.73,1042.7 1233.73,1042.76 1234.72,1042.84 1235.72,1042.93 1236.72,1043.02 1237.71,1043.12 1238.71,1043.23 1239.7,1043.35 1240.7,1043.48 1241.69,1043.61 1242.69,1043.75 1243.68,1043.9 1244.68,1044.06 1245.68,1044.22 1246.67,1044.39 1247.67,1044.57 1248.66,1044.76 1249.66,1044.95 1250.65,1045.15 1251.65,1045.36 1252.64,1045.57 1253.64,1045.79 1254.64,1046.02 1255.63,1046.25 1256.63,1046.49 1257.62,1046.74 1258.62,1046.99 1259.61,1047.24 1260.61,1047.51 1261.6,1047.77 1262.6,1048.05 1263.6,1048.33 1264.59,1048.61 1265.59,1048.9 1266.58,1049.19 1267.58,1049.49 1268.57,1049.79 1269.57,1050.1 1270.56,1050.41 1271.56,1050.72 1272.56,1051.04 1273.55,1051.37 1274.55,1051.69 1275.54,1052.02 1276.54,1052.36 1277.53,1052.69 1278.53,1053.03 1279.52,1053.38 1280.52,1053.72 1281.52,1054.07 1282.51,1054.42 1283.51,1054.77 1284.5,1055.13 1285.5,1055.48 1286.49,1055.84 1287.49,1056.2 1288.49,1056.56 1289.48,1056.93 1290.48,1057.29 1291.47,1057.65 1292.47,1058.02 1293.46,1058.39 1294.46,1058.76 1295.45,1059.12 1296.45,1059.49 1297.45,1059.86 1298.44,1060.23 1299.44,1060.6 1300.43,1060.96 1301.43,1061.33 1302.42,1061.7 1303.42,1062.06 1304.41,1062.43 1305.41,1062.79 1306.41,1063.16 1307.4,1063.52 1308.4,1063.88 1309.39,1064.24 1310.39,1064.59 1311.38,1064.95 1312.38,1065.3 1313.37,1065.65 1314.37,1066 1315.37,1066.35 1316.36,1066.69 1317.36,1067.03 1318.35,1067.37 1319.35,1067.71 1320.34,1068.04 1321.34,1068.37 1322.33,1068.7 1323.33,1069.02 1324.33,1069.34 1325.32,1069.66 1326.32,1069.97 1327.31,1070.28 1328.31,1070.58 1329.3,1070.88 1330.3,1071.18 1331.29,1071.47 1332.29,1071.76 1333.29,1072.05 1334.28,1072.33 1335.28,1072.6 1336.27,1072.87 1337.27,1073.14 1338.26,1073.4 1339.26,1073.66 1340.26,1073.91 1341.25,1074.15 1342.25,1074.39 1343.24,1074.63 1344.24,1074.86 1345.23,1075.09 1346.23,1075.31 1347.22,1075.52 1348.22,1075.73 1349.22,1075.93 1350.21,1076.13 1351.21,1076.33 1352.2,1076.51 1353.2,1076.69 1354.19,1076.87 1355.19,1077.04 1356.18,1077.2 1357.18,1077.36 1358.18,1077.51 1359.17,1077.66 1360.17,1077.8 1361.16,1077.94 1362.16,1078.06 1363.15,1078.19 1364.15,1078.3 1365.14,1078.41 1366.14,1078.52 1367.14,1078.62 1368.13,1078.71 1369.13,1078.79 1370.12,1078.87 1371.12,1078.95 1372.11,1079.02 1373.11,1079.08 1374.1,1079.13 1375.1,1079.18 1376.1,1079.23 1377.09,1079.27 1378.09,1079.3 1379.08,1079.32 1380.08,1079.34 1381.07,1079.36 1382.07,1079.36 1383.06,1079.37 1384.06,1079.36 1385.06,1079.35 1386.05,1079.34 1387.05,1079.32 1388.04,1079.29 1389.04,1079.26 1390.03,1079.22 1391.03,1079.18 1392.03,1079.13 1393.02,1079.07 1394.02,1079.01 1395.01,1078.95 1396.01,1078.88 1397,1078.8 1398,1078.72 1398.99,1078.63 1399.99,1078.54 1400.99,1078.44 1401.98,1078.34 1402.98,1078.24 1403.97,1078.12 1404.97,1078.01 1405.96,1077.89 1406.96,1077.76 1407.95,1077.63 1408.95,1077.5 1409.95,1077.36 1410.94,1077.22 1411.94,1077.07 1412.93,1076.92 1413.93,1076.76 1414.92,1076.61 1415.92,1076.44 1416.91,1076.28 1417.91,1076.11 1418.91,1075.93 1419.9,1075.75 1420.9,1075.57 1421.89,1075.39 1422.89,1075.2 1423.88,1075.01 1424.88,1074.82 1425.87,1074.62 1426.87,1074.42 1427.87,1074.22 1428.86,1074.01 1429.86,1073.81 1430.85,1073.59 1431.85,1073.38 1432.84,1073.17 1433.84,1072.95 1434.83,1072.73 1435.83,1072.51 1436.83,1072.29 1437.82,1072.06 1438.82,1071.84 1439.81,1071.61 1440.81,1071.38 1441.8,1071.15 1442.8,1070.91 1443.79,1070.68 1444.79,1070.45 1445.79,1070.21 1446.78,1069.97 1447.78,1069.74 1448.77,1069.5 1449.77,1069.26 1450.76,1069.02 1451.76,1068.78 1452.76,1068.54 1453.75,1068.3 1454.75,1068.06 1455.74,1067.82 1456.74,1067.58 1457.73,1067.34 1458.73,1067.1 1459.72,1066.86 1460.72,1066.62 1461.72,1066.39 1462.71,1066.15 1463.71,1065.91 1464.7,1065.68 1465.7,1065.44 1466.69,1065.21 1467.69,1064.97 1468.68,1064.74 1469.68,1064.51 1470.68,1064.28 1471.67,1064.05 1472.67,1063.83 1473.66,1063.6 1474.66,1063.38 1475.65,1063.16 1476.65,1062.94 1477.64,1062.72 1478.64,1062.51 1479.64,1062.29 1480.63,1062.08 1481.63,1061.87 1482.62,1061.67 1483.62,1061.46 1484.61,1061.26 1485.61,1061.06 1486.6,1060.87 1487.6,1060.67 1488.6,1060.48 1489.59,1060.29 1490.59,1060.11 1491.58,1059.92 1492.58,1059.74 1493.57,1059.57 1494.57,1059.39 1495.56,1059.22 1496.56,1059.05 1497.56,1058.89 1498.55,1058.73 1499.55,1058.57 1500.54,1058.42 1501.54,1058.27 1502.53,1058.12 1503.53,1057.97 1504.53,1057.83 1505.52,1057.7 1506.52,1057.56 1507.51,1057.43 1508.51,1057.31 1509.5,1057.18 1510.5,1057.06 1511.49,1056.95 1512.49,1056.84 1513.49,1056.73 1514.48,1056.63 1515.48,1056.53 1516.47,1056.43 1517.47,1056.34 1518.46,1056.25 1519.46,1056.17 1520.45,1056.09 1521.45,1056.01 1522.45,1055.94 1523.44,1055.87 1524.44,1055.8 1525.43,1055.74 1526.43,1055.69 1527.42,1055.63 1528.42,1055.58 1529.41,1055.54 1530.41,1055.5 1531.41,1055.46 1532.4,1055.43 1533.4,1055.4 1534.39,1055.37 1535.39,1055.35 1536.38,1055.33 1537.38,1055.32 1538.37,1055.31 1539.37,1055.31 1540.37,1055.3 1541.36,1055.31 1542.36,1055.31 1543.35,1055.32 1544.35,1055.33 1545.34,1055.35 1546.34,1055.37 1547.33,1055.39 1548.33,1055.42 1549.33,1055.45 1550.32,1055.49 1551.32,1055.53 1552.31,1055.57 1553.31,1055.62 1554.3,1055.66 1555.3,1055.72 1556.3,1055.77 1557.29,1055.83 1558.29,1055.89 1559.28,1055.96 1560.28,1056.03 1561.27,1056.1 1562.27,1056.18 1563.26,1056.25 1564.26,1056.33 1565.26,1056.42 1566.25,1056.51 1567.25,1056.6 1568.24,1056.69 1569.24,1056.78 1570.23,1056.88 1571.23,1056.98 1572.22,1057.09 1573.22,1057.19 1574.22,1057.3 1575.21,1057.41 1576.21,1057.52 1577.2,1057.64 1578.2,1057.76 1579.19,1057.88 1580.19,1058 1581.18,1058.12 1582.18,1058.25 1583.18,1058.38 1584.17,1058.51 1585.17,1058.64 1586.16,1058.77 1587.16,1058.91 1588.15,1059.04 1589.15,1059.18 1590.14,1059.32 1591.14,1059.46 1592.14,1059.61 1593.13,1059.75 1594.13,1059.89 1595.12,1060.04 1596.12,1060.19 1597.11,1060.34 1598.11,1060.49 1599.1,1060.64 1600.1,1060.79 1601.1,1060.94 1602.09,1061.09 1603.09,1061.25 1604.08,1061.4 1605.08,1061.56 1606.07,1061.71 1607.07,1061.87 1608.07,1062.02 1609.06,1062.18 1610.06,1062.33 1611.05,1062.49 1612.05,1062.65 1613.04,1062.8 1614.04,1062.96 1615.03,1063.12 1616.03,1063.27 1617.03,1063.43 1618.02,1063.58 1619.02,1063.74 1620.01,1063.9 1621.01,1064.05 1622,1064.2 1623,1064.36 1623.99,1064.51 1624.99,1064.66 1625.99,1064.81 1626.98,1064.96 1627.98,1065.11 1628.97,1065.26 1629.97,1065.41 1630.96,1065.56 1631.96,1065.7 1632.95,1065.85 1633.95,1065.99 1634.95,1066.13 1635.94,1066.27 1636.94,1066.41 1637.93,1066.55 1638.93,1066.68 1639.92,1066.82 1640.92,1066.95 1641.91,1067.08 1642.91,1067.22 1643.91,1067.34 1644.9,1067.47 1645.9,1067.6 1646.89,1067.72 1647.89,1067.84 1648.88,1067.96 1649.88,1068.08 1650.87,1068.19 1651.87,1068.31 1652.87,1068.42 1653.86,1068.53 1654.86,1068.64 1655.85,1068.74 1656.85,1068.84 1657.84,1068.95 1658.84,1069.04 1659.83,1069.14 1660.83,1069.24 1661.83,1069.33 1662.82,1069.42 1663.82,1069.5 1664.81,1069.59 1665.81,1069.67 1666.8,1069.75 1667.8,1069.83 1668.8,1069.91 1669.79,1069.98 1670.79,1070.05 1671.78,1070.12 1672.78,1070.18 1673.77,1070.25 1674.77,1070.31 1675.76,1070.37 1676.76,1070.42 1677.76,1070.47 1678.75,1070.52 1679.75,1070.57 1680.74,1070.62 1681.74,1070.66 1682.73,1070.7 1683.73,1070.74 1684.72,1070.77 1685.72,1070.8 1686.72,1070.83 1687.71,1070.86 1688.71,1070.89 1689.7,1070.91 1690.7,1070.93 1691.69,1070.94 1692.69,1070.96 1693.68,1070.97 1694.68,1070.98 1695.68,1070.99 1696.67,1070.99 1697.67,1070.99 1698.66,1070.99 1699.66,1070.99 1700.65,1070.98 1701.65,1070.97 1702.64,1070.96 1703.64,1070.95 1704.64,1070.94 1705.63,1070.92 1706.63,1070.9 1707.62,1070.88 1708.62,1070.85 1709.61,1070.82 1710.61,1070.79 1711.6,1070.76 1712.6,1070.73 1713.6,1070.69 1714.59,1070.65 1715.59,1070.61 1716.58,1070.57 1717.58,1070.53 1718.57,1070.48 1719.57,1070.43 1720.57,1070.38 1721.56,1070.33 1722.56,1070.27 1723.55,1070.22 1724.55,1070.16 1725.54,1070.1 1726.54,1070.04 1727.53,1069.97 1728.53,1069.91 1729.53,1069.84 1730.52,1069.77 1731.52,1069.7 1732.51,1069.63 1733.51,1069.56 1734.5,1069.48 1735.5,1069.41 1736.49,1069.33 1737.49,1069.25 1738.49,1069.17 1739.48,1069.09 1740.48,1069 1741.47,1068.92 1742.47,1068.83 1743.46,1068.75 1744.46,1068.66 1745.45,1068.57 1746.45,1068.48 1747.45,1068.39 1748.44,1068.3 1749.44,1068.2 1750.43,1068.11 1751.43,1068.02 1752.42,1067.92 1753.42,1067.82 1754.41,1067.73 1755.41,1067.63 1756.41,1067.53 1757.4,1067.43 1758.4,1067.33 1759.39,1067.23 1760.39,1067.13 1761.38,1067.03 1762.38,1066.93 1763.37,1066.83 1764.37,1066.73 1765.37,1066.63 1766.36,1066.53 1767.36,1066.43 1768.35,1066.32 1769.35,1066.22 1770.34,1066.12 1771.34,1066.02 1772.34,1065.92 1773.33,1065.81 1774.33,1065.71 1775.32,1065.61 1776.32,1065.51 1777.31,1065.41 1778.31,1065.31 1779.3,1065.21 1780.3,1065.11 1781.3,1065.01 1782.29,1064.91 1783.29,1064.81 1784.28,1064.71 1785.28,1064.61 1786.27,1064.52 1787.27,1064.42 1788.26,1064.32 1789.26,1064.23 1790.26,1064.13 1791.25,1064.04 1792.25,1063.95 1793.24,1063.86 1794.24,1063.77 1795.23,1063.68 1796.23,1063.59 1797.22,1063.5 1798.22,1063.41 1799.22,1063.33 1800.21,1063.24 1801.21,1063.16 1802.2,1063.07 1803.2,1062.99 1804.19,1062.91 1805.19,1062.83 1806.18,1062.75 1807.18,1062.68 1808.18,1062.6 1809.17,1062.53 1810.17,1062.45 1811.16,1062.38 1812.16,1062.31 1813.15,1062.24 1814.15,1062.17 1815.14,1062.11 1816.14,1062.04 1817.14,1061.98 1818.13,1061.92 1819.13,1061.86 1820.12,1061.8 1821.12,1061.74 1822.11,1061.69 1823.11,1061.63 1824.11,1061.58 1825.1,1061.53 1826.1,1061.48 1827.09,1061.43 1828.09,1061.39 1829.08,1061.34 1830.08,1061.3 1831.07,1061.26 1832.07,1061.22 1833.07,1061.18 1834.06,1061.14 1835.06,1061.11 1836.05,1061.07 1837.05,1061.04 1838.04,1061.01 1839.04,1060.98 1840.03,1060.96 1841.03,1060.93 1842.03,1060.91 1843.02,1060.89 1844.02,1060.87 1845.01,1060.85 1846.01,1060.84 1847,1060.82 1848,1060.81 1848.99,1060.8 1849.99,1060.79 1850.99,1060.78 1851.98,1060.77 1852.98,1060.77 1853.97,1060.76 1854.97,1060.76 1855.96,1060.76 1856.96,1060.77 1857.95,1060.77 1858.95,1060.77 1859.95,1060.78 1860.94,1060.79 1861.94,1060.8 1862.93,1060.81 1863.93,1060.82 1864.92,1060.84 1865.92,1060.85 1866.91,1060.87 1867.91,1060.89 1868.91,1060.91 1869.9,1060.93 1870.9,1060.95 1871.89,1060.98 1872.89,1061.01 1873.88,1061.03 1874.88,1061.06 1875.87,1061.09 1876.87,1061.12 1877.87,1061.16 1878.86,1061.19 1879.86,1061.23 1880.85,1061.26 1881.85,1061.3 1882.84,1061.34 1883.84,1061.38 1884.84,1061.42 1885.83,1061.46 1886.83,1061.51 1887.82,1061.55 1888.82,1061.6 1889.81,1061.64 1890.81,1061.69 1891.8,1061.74 1892.8,1061.79 1893.8,1061.84 1894.79,1061.89 1895.79,1061.94 1896.78,1062 1897.78,1062.05 1898.77,1062.11 1899.77,1062.16 1900.76,1062.22 1901.76,1062.28 1902.76,1062.33 1903.75,1062.39 1904.75,1062.45 1905.74,1062.51 1906.74,1062.57 1907.73,1062.63 1908.73,1062.69 1909.72,1062.76 1910.72,1062.82 1911.72,1062.88 1912.71,1062.94 1913.71,1063.01 1914.7,1063.07 1915.7,1063.14 1916.69,1063.2 1917.69,1063.27 1918.68,1063.33 1919.68,1063.4 1920.68,1063.46 1921.67,1063.53 1922.67,1063.6 1923.66,1063.66 1924.66,1063.73 1925.65,1063.8 1926.65,1063.86 1927.64,1063.93 1928.64,1064 1929.64,1064.06 1930.63,1064.13 1931.63,1064.2 1932.62,1064.26 1933.62,1064.33 1934.61,1064.39 1935.61,1064.46 1936.61,1064.52 1937.6,1064.59 1938.6,1064.65 1939.59,1064.72 1940.59,1064.78 1941.58,1064.85 1942.58,1064.91 1943.57,1064.98 1944.57,1065.04 1945.57,1065.1 1946.56,1065.16 1947.56,1065.22 1948.55,1065.29 1949.55,1065.35 1950.54,1065.41 1951.54,1065.46 1952.53,1065.52 1953.53,1065.58 1954.53,1065.64 1955.52,1065.7 1956.52,1065.75 1957.51,1065.81 1958.51,1065.86 1959.5,1065.92 1960.5,1065.97 1961.49,1066.02 1962.49,1066.08 1963.49,1066.13 1964.48,1066.18 1965.48,1066.23 1966.47,1066.27 1967.47,1066.32 1968.46,1066.37 1969.46,1066.42 1970.45,1066.46 1971.45,1066.5 1972.45,1066.55 1973.44,1066.59 1974.44,1066.63 1975.43,1066.67 1976.43,1066.71 1977.42,1066.75 1978.42,1066.79 1979.41,1066.82 1980.41,1066.86 1981.41,1066.89 1982.4,1066.93 1983.4,1066.96 1984.39,1066.99 1985.39,1067.02 1986.38,1067.05 1987.38,1067.08 1988.38,1067.11 1989.37,1067.13 1990.37,1067.16 1991.36,1067.18 1992.36,1067.2 1993.35,1067.23 1994.35,1067.25 1995.34,1067.27 1996.34,1067.29 1997.34,1067.3 1998.33,1067.32 1999.33,1067.33 2000.32,1067.35 2001.32,1067.36 2002.31,1067.37 2003.31,1067.38 2004.3,1067.39 2005.3,1067.4 2006.3,1067.41 2007.29,1067.42 2008.29,1067.42 2009.28,1067.43 2010.28,1067.43 2011.27,1067.43 2012.27,1067.43 2013.26,1067.43 2014.26,1067.43 2015.26,1067.43 2016.25,1067.43 2017.25,1067.42 2018.24,1067.42 2019.24,1067.41 2020.23,1067.4 2021.23,1067.4 2022.22,1067.39 2023.22,1067.38 2024.22,1067.36 2025.21,1067.35 2026.21,1067.34 2027.2,1067.33 2028.2,1067.31 2029.19,1067.29 2030.19,1067.28 2031.18,1067.26 2032.18,1067.24 2033.18,1067.22 2034.17,1067.2 2035.17,1067.18 2036.16,1067.16 2037.16,1067.14 2038.15,1067.11 2039.15,1067.09 2040.15,1067.06 2041.14,1067.04 2042.14,1067.01 2043.13,1066.98 2044.13,1066.95 2045.12,1066.92 2046.12,1066.89 2047.11,1066.86 2048.11,1066.83 2049.11,1066.8 2050.1,1066.77 2051.1,1066.74 2052.09,1066.7 2053.09,1066.67 2054.08,1066.63 2055.08,1066.6 2056.07,1066.56 2057.07,1066.53 2058.07,1066.49 2059.06,1066.45 2060.06,1066.42 2061.05,1066.38 2062.05,1066.34 2063.04,1066.3 2064.04,1066.26 2065.03,1066.22 2066.03,1066.18 2067.03,1066.14 2068.02,1066.1 2069.02,1066.06 2070.01,1066.02 2071.01,1065.98 2072,1065.93 2073,1065.89 2073.99,1065.85 2074.99,1065.81 2075.99,1065.76 2076.98,1065.72 2077.98,1065.68 2078.97,1065.64 2079.97,1065.59 2080.96,1065.55 2081.96,1065.51 2082.95,1065.46 2083.95,1065.42 2084.95,1065.38 2085.94,1065.33 2086.94,1065.29 2087.93,1065.25 2088.93,1065.2 2089.92,1065.16 2090.92,1065.12 2091.91,1065.07 2092.91,1065.03 2093.91,1064.99 2094.9,1064.94 2095.9,1064.9 2096.89,1064.86 2097.89,1064.82 2098.88,1064.78 2099.88,1064.73 2100.88,1064.69 2101.87,1064.65 2102.87,1064.61 2103.86,1064.57 2104.86,1064.53 2105.85,1064.49 2106.85,1064.45 2107.84,1064.41 2108.84,1064.37 2109.84,1064.34 2110.83,1064.3 2111.83,1064.26 2112.82,1064.22 2113.82,1064.19 2114.81,1064.15 2115.81,1064.11 2116.8,1064.08 2117.8,1064.04 2118.8,1064.01 2119.79,1063.97 2120.79,1063.94 2121.78,1063.91 2122.78,1063.88 2123.77,1063.84 2124.77,1063.81 2125.76,1063.78 2126.76,1063.75 2127.76,1063.72 2128.75,1063.69 2129.75,1063.67 2130.74,1063.64 2131.74,1063.61 2132.73,1063.58 2133.73,1063.56 2134.72,1063.53 2135.72,1063.51 2136.72,1063.48 2137.71,1063.46 2138.71,1063.44 2139.7,1063.42 2140.7,1063.4 2141.69,1063.38 2142.69,1063.36 2143.68,1063.34 2144.68,1063.32 2145.68,1063.3 2146.67,1063.28 2147.67,1063.27 2148.66,1063.25 2149.66,1063.24 2150.65,1063.22 2151.65,1063.21 2152.65,1063.19 2153.64,1063.18 2154.64,1063.17 2155.63,1063.16 2156.63,1063.15 2157.62,1063.14 2158.62,1063.13 2159.61,1063.12 2160.61,1063.12 2161.61,1063.11 2162.6,1063.1 2163.6,1063.1 2164.59,1063.1 2165.59,1063.09 2166.58,1063.09 2167.58,1063.09 2168.57,1063.09 2169.57,1063.08 2170.57,1063.08 2171.56,1063.08 2172.56,1063.09 2173.55,1063.09 2174.55,1063.09 2175.54,1063.09 2176.54,1063.1 2177.53,1063.1 2178.53,1063.11 2179.53,1063.11 2180.52,1063.12 2181.52,1063.13 2182.51,1063.13 2183.51,1063.14 2184.5,1063.15 2185.5,1063.16 2186.49,1063.17 2187.49,1063.18 2188.49,1063.19 2189.48,1063.21 2190.48,1063.22 2191.47,1063.23 2192.47,1063.25 2193.46,1063.26 2194.46,1063.28 2195.45,1063.29 2196.45,1063.31 2197.45,1063.32 2198.44,1063.34 2199.44,1063.36 2200.43,1063.38 2201.43,1063.39 2202.42,1063.41 2203.42,1063.43 2204.42,1063.45 2205.41,1063.47 2206.41,1063.49 2207.4,1063.51 2208.4,1063.53 2209.39,1063.56 2210.39,1063.58 2211.38,1063.6 2212.38,1063.62 2213.38,1063.65 2214.37,1063.67 2215.37,1063.69 2216.36,1063.72 2217.36,1063.74 2218.35,1063.77 2219.35,1063.79 2220.34,1063.82 2221.34,1063.84 2222.34,1063.87 2223.33,1063.9 2224.33,1063.92 2225.32,1063.95 2226.32,1063.98 2227.31,1064 2228.31,1064.03 2229.3,1064.06 2230.3,1064.08 2231.3,1064.11 2232.29,1064.14 2233.29,1064.17 2234.28,1064.2 2235.28,1064.22 2236.27,1064.25 2237.27,1064.28 2238.26,1064.31 2239.26,1064.34 2240.26,1064.36 2241.25,1064.39 2242.25,1064.42 2243.24,1064.45 2244.24,1064.48 2245.23,1064.51 2246.23,1064.53 2247.22,1064.56 2248.22,1064.59 2249.22,1064.62 2250.21,1064.65 2251.21,1064.67 2252.2,1064.7 2253.2,1064.73 2254.19,1064.76 2255.19,1064.78 2256.19,1064.81 2257.18,1064.84 2258.18,1064.87 2259.17,1064.89 2260.17,1064.92 2261.16,1064.95 2262.16,1064.97 2263.15,1065 2264.15,1065.02 2265.15,1065.05 2266.14,1065.07 2267.14,1065.1 2268.13,1065.12 2269.13,1065.15 2270.12,1065.17 2271.12,1065.2 2272.11,1065.22 2273.11,1065.24 2274.11,1065.27 2275.1,1065.29 2276.1,1065.31 2277.09,1065.33 2278.09,1065.36 2279.08,1065.38 2280.08,1065.4 2281.07,1065.42 2282.07,1065.44 2283.07,1065.46 2284.06,1065.48 2285.06,1065.5 2286.05,1065.52 2287.05,1065.54 2288.04,1065.56 2289.04,1065.57 2290.03,1065.59 2291.03,1065.61 2292.03,1065.62 2293.02,1065.64 "/>
<path clip-path="url(#clip430)" d="M1993.45 270.476 L2282.4 270.476 L2282.4 166.796 L1993.45 166.796  Z" fill="#ffffff" fill-rule="evenodd" fill-opacity="1"/>
<polyline clip-path="url(#clip430)" style="stroke:#000000; stroke-linecap:round; stroke-linejoin:round; stroke-width:4; stroke-opacity:1; fill:none" points="1993.45,270.476 2282.4,270.476 2282.4,166.796 1993.45,166.796 1993.45,270.476 "/>
<polyline clip-path="url(#clip430)" style="stroke:#009af9; stroke-linecap:round; stroke-linejoin:round; stroke-width:8; stroke-opacity:1; fill:none" points="2016.9,218.636 2157.61,218.636 "/>
<path clip-path="url(#clip430)" d="M2200.32 219.481 L2185.57 219.481 Q2185.92 226.402 2187.52 229.342 Q2189.51 232.953 2192.96 232.953 Q2196.43 232.953 2198.35 229.319 Q2200.04 226.124 2200.32 219.481 M2200.25 215.545 Q2199.6 208.971 2198.35 206.657 Q2196.36 202.999 2192.96 202.999 Q2189.41 202.999 2187.54 206.61 Q2186.06 209.527 2185.62 215.545 L2200.25 215.545 M2192.96 199.527 Q2198.51 199.527 2201.68 204.434 Q2204.85 209.319 2204.85 217.976 Q2204.85 226.61 2201.68 231.518 Q2198.51 236.448 2192.96 236.448 Q2187.38 236.448 2184.23 231.518 Q2181.06 226.61 2181.06 217.976 Q2181.06 209.319 2184.23 204.434 Q2187.38 199.527 2192.96 199.527 Z" fill="#000000" fill-rule="nonzero" fill-opacity="1" /><path clip-path="url(#clip430)" d="M2222.15 199.944 Q2219.04 205.268 2217.54 210.476 Q2216.03 215.684 2216.03 221.032 Q2216.03 226.379 2217.54 231.633 Q2219.07 236.865 2222.15 242.166 L2218.44 242.166 Q2214.97 236.726 2213.23 231.471 Q2211.52 226.217 2211.52 221.032 Q2211.52 215.87 2213.23 210.638 Q2214.95 205.407 2218.44 199.944 L2222.15 199.944 Z" fill="#000000" fill-rule="nonzero" fill-opacity="1" /><path clip-path="url(#clip430)" d="M2234.62 202.629 L2234.62 209.99 L2243.4 209.99 L2243.4 213.3 L2234.62 213.3 L2234.62 227.374 Q2234.62 230.545 2235.48 231.448 Q2236.36 232.351 2239.02 232.351 L2243.4 232.351 L2243.4 235.916 L2239.02 235.916 Q2234.09 235.916 2232.21 234.087 Q2230.34 232.235 2230.34 227.374 L2230.34 213.3 L2227.21 213.3 L2227.21 209.99 L2230.34 209.99 L2230.34 202.629 L2234.62 202.629 Z" fill="#000000" fill-rule="nonzero" fill-opacity="1" /><path clip-path="url(#clip430)" d="M2248.33 199.944 L2252.03 199.944 Q2255.5 205.407 2257.21 210.638 Q2258.95 215.87 2258.95 221.032 Q2258.95 226.217 2257.21 231.471 Q2255.5 236.726 2252.03 242.166 L2248.33 242.166 Q2251.4 236.865 2252.91 231.633 Q2254.44 226.379 2254.44 221.032 Q2254.44 215.684 2252.91 210.476 Q2251.4 205.268 2248.33 199.944 Z" fill="#000000" fill-rule="nonzero" fill-opacity="1" /></svg>
