<?xml version="1.0" encoding="utf-8"?>
<svg xmlns="http://www.w3.org/2000/svg" xmlns:xlink="http://www.w3.org/1999/xlink" width="600" height="400" viewBox="0 0 2400 1600">
<defs>
  <clipPath id="clip550">
    <rect x="0" y="0" width="2400" height="1600"/>
  </clipPath>
</defs>
<path clip-path="url(#clip550)" d="M0 1600 L2400 1600 L2400 0 L0 0  Z" fill="#ffffff" fill-rule="evenodd" fill-opacity="1"/>
<defs>
  <clipPath id="clip551">
    <rect x="203" y="123" width="1847" height="1301"/>
  </clipPath>
</defs>
<path clip-path="url(#clip550)" d="M242.135 1423.18 L2352.76 1423.18 L2352.76 123.472 L242.135 123.472  Z" fill="#ffffff" fill-rule="evenodd" fill-opacity="1"/>
<defs>
  <clipPath id="clip552">
    <rect x="242" y="123" width="2112" height="1301"/>
  </clipPath>
</defs>
<polyline clip-path="url(#clip552)" style="stroke:#000000; stroke-linecap:round; stroke-linejoin:round; stroke-width:2; stroke-opacity:0.1; fill:none" points="301.869,1423.18 301.869,123.472 "/>
<polyline clip-path="url(#clip552)" style="stroke:#000000; stroke-linecap:round; stroke-linejoin:round; stroke-width:2; stroke-opacity:0.1; fill:none" points="799.657,1423.18 799.657,123.472 "/>
<polyline clip-path="url(#clip552)" style="stroke:#000000; stroke-linecap:round; stroke-linejoin:round; stroke-width:2; stroke-opacity:0.1; fill:none" points="1297.45,1423.18 1297.45,123.472 "/>
<polyline clip-path="url(#clip552)" style="stroke:#000000; stroke-linecap:round; stroke-linejoin:round; stroke-width:2; stroke-opacity:0.1; fill:none" points="1795.23,1423.18 1795.23,123.472 "/>
<polyline clip-path="url(#clip552)" style="stroke:#000000; stroke-linecap:round; stroke-linejoin:round; stroke-width:2; stroke-opacity:0.1; fill:none" points="2293.02,1423.18 2293.02,123.472 "/>
<polyline clip-path="url(#clip552)" style="stroke:#000000; stroke-linecap:round; stroke-linejoin:round; stroke-width:2; stroke-opacity:0.1; fill:none" points="242.135,1293.62 2352.76,1293.62 "/>
<polyline clip-path="url(#clip552)" style="stroke:#000000; stroke-linecap:round; stroke-linejoin:round; stroke-width:2; stroke-opacity:0.1; fill:none" points="242.135,1010.28 2352.76,1010.28 "/>
<polyline clip-path="url(#clip552)" style="stroke:#000000; stroke-linecap:round; stroke-linejoin:round; stroke-width:2; stroke-opacity:0.1; fill:none" points="242.135,726.94 2352.76,726.94 "/>
<polyline clip-path="url(#clip552)" style="stroke:#000000; stroke-linecap:round; stroke-linejoin:round; stroke-width:2; stroke-opacity:0.1; fill:none" points="242.135,443.598 2352.76,443.598 "/>
<polyline clip-path="url(#clip552)" style="stroke:#000000; stroke-linecap:round; stroke-linejoin:round; stroke-width:2; stroke-opacity:0.1; fill:none" points="242.135,160.256 2352.76,160.256 "/>
<polyline clip-path="url(#clip550)" style="stroke:#000000; stroke-linecap:round; stroke-linejoin:round; stroke-width:4; stroke-opacity:1; fill:none" points="242.135,1423.18 2352.76,1423.18 "/>
<polyline clip-path="url(#clip550)" style="stroke:#000000; stroke-linecap:round; stroke-linejoin:round; stroke-width:4; stroke-opacity:1; fill:none" points="301.869,1423.18 301.869,1404.28 "/>
<polyline clip-path="url(#clip550)" style="stroke:#000000; stroke-linecap:round; stroke-linejoin:round; stroke-width:4; stroke-opacity:1; fill:none" points="799.657,1423.18 799.657,1404.28 "/>
<polyline clip-path="url(#clip550)" style="stroke:#000000; stroke-linecap:round; stroke-linejoin:round; stroke-width:4; stroke-opacity:1; fill:none" points="1297.45,1423.18 1297.45,1404.28 "/>
<polyline clip-path="url(#clip550)" style="stroke:#000000; stroke-linecap:round; stroke-linejoin:round; stroke-width:4; stroke-opacity:1; fill:none" points="1795.23,1423.18 1795.23,1404.28 "/>
<polyline clip-path="url(#clip550)" style="stroke:#000000; stroke-linecap:round; stroke-linejoin:round; stroke-width:4; stroke-opacity:1; fill:none" points="2293.02,1423.18 2293.02,1404.28 "/>
<path clip-path="url(#clip550)" d="M279.254 1454.1 Q275.643 1454.1 273.814 1457.66 Q272.008 1461.2 272.008 1468.33 Q272.008 1475.44 273.814 1479.01 Q275.643 1482.55 279.254 1482.55 Q282.888 1482.55 284.693 1479.01 Q286.522 1475.44 286.522 1468.33 Q286.522 1461.2 284.693 1457.66 Q282.888 1454.1 279.254 1454.1 M279.254 1450.39 Q285.064 1450.39 288.119 1455 Q291.198 1459.58 291.198 1468.33 Q291.198 1477.06 288.119 1481.67 Q285.064 1486.25 279.254 1486.25 Q273.443 1486.25 270.365 1481.67 Q267.309 1477.06 267.309 1468.33 Q267.309 1459.58 270.365 1455 Q273.443 1450.39 279.254 1450.39 Z" fill="#000000" fill-rule="nonzero" fill-opacity="1" /><path clip-path="url(#clip550)" d="M299.416 1479.7 L304.3 1479.7 L304.3 1485.58 L299.416 1485.58 L299.416 1479.7 Z" fill="#000000" fill-rule="nonzero" fill-opacity="1" /><path clip-path="url(#clip550)" d="M324.485 1454.1 Q320.874 1454.1 319.045 1457.66 Q317.24 1461.2 317.24 1468.33 Q317.24 1475.44 319.045 1479.01 Q320.874 1482.55 324.485 1482.55 Q328.119 1482.55 329.925 1479.01 Q331.753 1475.44 331.753 1468.33 Q331.753 1461.2 329.925 1457.66 Q328.119 1454.1 324.485 1454.1 M324.485 1450.39 Q330.295 1450.39 333.351 1455 Q336.429 1459.58 336.429 1468.33 Q336.429 1477.06 333.351 1481.67 Q330.295 1486.25 324.485 1486.25 Q318.675 1486.25 315.596 1481.67 Q312.54 1477.06 312.54 1468.33 Q312.54 1459.58 315.596 1455 Q318.675 1450.39 324.485 1450.39 Z" fill="#000000" fill-rule="nonzero" fill-opacity="1" /><path clip-path="url(#clip550)" d="M771.394 1481.64 L787.713 1481.64 L787.713 1485.58 L765.769 1485.58 L765.769 1481.64 Q768.431 1478.89 773.014 1474.26 Q777.62 1469.61 778.801 1468.27 Q781.046 1465.74 781.926 1464.01 Q782.829 1462.25 782.829 1460.56 Q782.829 1457.8 780.884 1456.07 Q778.963 1454.33 775.861 1454.33 Q773.662 1454.33 771.208 1455.09 Q768.778 1455.86 766 1457.41 L766 1452.69 Q768.824 1451.55 771.278 1450.97 Q773.731 1450.39 775.768 1450.39 Q781.139 1450.39 784.333 1453.08 Q787.528 1455.77 787.528 1460.26 Q787.528 1462.39 786.718 1464.31 Q785.93 1466.2 783.824 1468.8 Q783.245 1469.47 780.143 1472.69 Q777.042 1475.88 771.394 1481.64 Z" fill="#000000" fill-rule="nonzero" fill-opacity="1" /><path clip-path="url(#clip550)" d="M797.528 1479.7 L802.412 1479.7 L802.412 1485.58 L797.528 1485.58 L797.528 1479.7 Z" fill="#000000" fill-rule="nonzero" fill-opacity="1" /><path clip-path="url(#clip550)" d="M812.643 1451.02 L831 1451.02 L831 1454.96 L816.926 1454.96 L816.926 1463.43 Q817.944 1463.08 818.963 1462.92 Q819.981 1462.73 821 1462.73 Q826.787 1462.73 830.166 1465.9 Q833.546 1469.08 833.546 1474.49 Q833.546 1480.07 830.074 1483.17 Q826.602 1486.25 820.282 1486.25 Q818.106 1486.25 815.838 1485.88 Q813.592 1485.51 811.185 1484.77 L811.185 1480.07 Q813.268 1481.2 815.491 1481.76 Q817.713 1482.32 820.19 1482.32 Q824.194 1482.32 826.532 1480.21 Q828.87 1478.1 828.87 1474.49 Q828.87 1470.88 826.532 1468.77 Q824.194 1466.67 820.19 1466.67 Q818.315 1466.67 816.44 1467.08 Q814.588 1467.5 812.643 1468.38 L812.643 1451.02 Z" fill="#000000" fill-rule="nonzero" fill-opacity="1" /><path clip-path="url(#clip550)" d="M1264.61 1451.02 L1282.97 1451.02 L1282.97 1454.96 L1268.89 1454.96 L1268.89 1463.43 Q1269.91 1463.08 1270.93 1462.92 Q1271.95 1462.73 1272.97 1462.73 Q1278.75 1462.73 1282.13 1465.9 Q1285.51 1469.08 1285.51 1474.49 Q1285.51 1480.07 1282.04 1483.17 Q1278.57 1486.25 1272.25 1486.25 Q1270.07 1486.25 1267.8 1485.88 Q1265.56 1485.51 1263.15 1484.77 L1263.15 1480.07 Q1265.23 1481.2 1267.46 1481.76 Q1269.68 1482.32 1272.16 1482.32 Q1276.16 1482.32 1278.5 1480.21 Q1280.84 1478.1 1280.84 1474.49 Q1280.84 1470.88 1278.5 1468.77 Q1276.16 1466.67 1272.16 1466.67 Q1270.28 1466.67 1268.41 1467.08 Q1266.55 1467.5 1264.61 1468.38 L1264.61 1451.02 Z" fill="#000000" fill-rule="nonzero" fill-opacity="1" /><path clip-path="url(#clip550)" d="M1294.73 1479.7 L1299.61 1479.7 L1299.61 1485.58 L1294.73 1485.58 L1294.73 1479.7 Z" fill="#000000" fill-rule="nonzero" fill-opacity="1" /><path clip-path="url(#clip550)" d="M1319.79 1454.1 Q1316.18 1454.1 1314.35 1457.66 Q1312.55 1461.2 1312.55 1468.33 Q1312.55 1475.44 1314.35 1479.01 Q1316.18 1482.55 1319.79 1482.55 Q1323.43 1482.55 1325.23 1479.01 Q1327.06 1475.44 1327.06 1468.33 Q1327.06 1461.2 1325.23 1457.66 Q1323.43 1454.1 1319.79 1454.1 M1319.79 1450.39 Q1325.6 1450.39 1328.66 1455 Q1331.74 1459.58 1331.74 1468.33 Q1331.74 1477.06 1328.66 1481.67 Q1325.6 1486.25 1319.79 1486.25 Q1313.98 1486.25 1310.91 1481.67 Q1307.85 1477.06 1307.85 1468.33 Q1307.85 1459.58 1310.91 1455 Q1313.98 1450.39 1319.79 1450.39 Z" fill="#000000" fill-rule="nonzero" fill-opacity="1" /><path clip-path="url(#clip550)" d="M1761.55 1451.02 L1783.78 1451.02 L1783.78 1453.01 L1771.23 1485.58 L1766.34 1485.58 L1778.15 1454.96 L1761.55 1454.96 L1761.55 1451.02 Z" fill="#000000" fill-rule="nonzero" fill-opacity="1" /><path clip-path="url(#clip550)" d="M1792.9 1479.7 L1797.78 1479.7 L1797.78 1485.58 L1792.9 1485.58 L1792.9 1479.7 Z" fill="#000000" fill-rule="nonzero" fill-opacity="1" /><path clip-path="url(#clip550)" d="M1808.01 1451.02 L1826.37 1451.02 L1826.37 1454.96 L1812.29 1454.96 L1812.29 1463.43 Q1813.31 1463.08 1814.33 1462.92 Q1815.35 1462.73 1816.37 1462.73 Q1822.15 1462.73 1825.53 1465.9 Q1828.91 1469.08 1828.91 1474.49 Q1828.91 1480.07 1825.44 1483.17 Q1821.97 1486.25 1815.65 1486.25 Q1813.47 1486.25 1811.21 1485.88 Q1808.96 1485.51 1806.55 1484.77 L1806.55 1480.07 Q1808.64 1481.2 1810.86 1481.76 Q1813.08 1482.32 1815.56 1482.32 Q1819.56 1482.32 1821.9 1480.21 Q1824.24 1478.1 1824.24 1474.49 Q1824.24 1470.88 1821.9 1468.77 Q1819.56 1466.67 1815.56 1466.67 Q1813.68 1466.67 1811.81 1467.08 Q1809.96 1467.5 1808.01 1468.38 L1808.01 1451.02 Z" fill="#000000" fill-rule="nonzero" fill-opacity="1" /><path clip-path="url(#clip550)" d="M2245.09 1481.64 L2252.73 1481.64 L2252.73 1455.28 L2244.42 1456.95 L2244.42 1452.69 L2252.69 1451.02 L2257.36 1451.02 L2257.36 1481.64 L2265 1481.64 L2265 1485.58 L2245.09 1485.58 L2245.09 1481.64 Z" fill="#000000" fill-rule="nonzero" fill-opacity="1" /><path clip-path="url(#clip550)" d="M2284.44 1454.1 Q2280.83 1454.1 2279.01 1457.66 Q2277.2 1461.2 2277.2 1468.33 Q2277.2 1475.44 2279.01 1479.01 Q2280.83 1482.55 2284.44 1482.55 Q2288.08 1482.55 2289.88 1479.01 Q2291.71 1475.44 2291.71 1468.33 Q2291.71 1461.2 2289.88 1457.66 Q2288.08 1454.1 2284.44 1454.1 M2284.44 1450.39 Q2290.26 1450.39 2293.31 1455 Q2296.39 1459.58 2296.39 1468.33 Q2296.39 1477.06 2293.31 1481.67 Q2290.26 1486.25 2284.44 1486.25 Q2278.63 1486.25 2275.56 1481.67 Q2272.5 1477.06 2272.5 1468.33 Q2272.5 1459.58 2275.56 1455 Q2278.63 1450.39 2284.44 1450.39 Z" fill="#000000" fill-rule="nonzero" fill-opacity="1" /><path clip-path="url(#clip550)" d="M2304.61 1479.7 L2309.49 1479.7 L2309.49 1485.58 L2304.61 1485.58 L2304.61 1479.7 Z" fill="#000000" fill-rule="nonzero" fill-opacity="1" /><path clip-path="url(#clip550)" d="M2329.68 1454.1 Q2326.07 1454.1 2324.24 1457.66 Q2322.43 1461.2 2322.43 1468.33 Q2322.43 1475.44 2324.24 1479.01 Q2326.07 1482.55 2329.68 1482.55 Q2333.31 1482.55 2335.12 1479.01 Q2336.94 1475.44 2336.94 1468.33 Q2336.94 1461.2 2335.12 1457.66 Q2333.31 1454.1 2329.68 1454.1 M2329.68 1450.39 Q2335.49 1450.39 2338.54 1455 Q2341.62 1459.58 2341.62 1468.33 Q2341.62 1477.06 2338.54 1481.67 Q2335.49 1486.25 2329.68 1486.25 Q2323.87 1486.25 2320.79 1481.67 Q2317.73 1477.06 2317.73 1468.33 Q2317.73 1459.58 2320.79 1455 Q2323.87 1450.39 2329.68 1450.39 Z" fill="#000000" fill-rule="nonzero" fill-opacity="1" /><path clip-path="url(#clip550)" d="M1167.62 1520.52 L1207.82 1520.52 L1207.82 1525.93 L1190.95 1525.93 L1190.95 1568.04 L1184.49 1568.04 L1184.49 1525.93 L1167.62 1525.93 L1167.62 1520.52 Z" fill="#000000" fill-rule="nonzero" fill-opacity="1" /><path clip-path="url(#clip550)" d="M1211.76 1532.4 L1217.62 1532.4 L1217.62 1568.04 L1211.76 1568.04 L1211.76 1532.4 M1211.76 1518.52 L1217.62 1518.52 L1217.62 1525.93 L1211.76 1525.93 L1211.76 1518.52 Z" fill="#000000" fill-rule="nonzero" fill-opacity="1" /><path clip-path="url(#clip550)" d="M1257.63 1539.24 Q1259.82 1535.29 1262.88 1533.41 Q1265.94 1531.54 1270.07 1531.54 Q1275.64 1531.54 1278.67 1535.45 Q1281.69 1539.33 1281.69 1546.53 L1281.69 1568.04 L1275.8 1568.04 L1275.8 1546.72 Q1275.8 1541.59 1273.99 1539.11 Q1272.17 1536.63 1268.45 1536.63 Q1263.9 1536.63 1261.26 1539.65 Q1258.61 1542.68 1258.61 1547.9 L1258.61 1568.04 L1252.73 1568.04 L1252.73 1546.72 Q1252.73 1541.56 1250.91 1539.11 Q1249.1 1536.63 1245.31 1536.63 Q1240.82 1536.63 1238.18 1539.68 Q1235.54 1542.71 1235.54 1547.9 L1235.54 1568.04 L1229.65 1568.04 L1229.65 1532.4 L1235.54 1532.4 L1235.54 1537.93 Q1237.54 1534.66 1240.34 1533.1 Q1243.15 1531.54 1247 1531.54 Q1250.88 1531.54 1253.59 1533.51 Q1256.32 1535.48 1257.63 1539.24 Z" fill="#000000" fill-rule="nonzero" fill-opacity="1" /><path clip-path="url(#clip550)" d="M1323.86 1548.76 L1323.86 1551.62 L1296.94 1551.62 Q1297.32 1557.67 1300.56 1560.85 Q1303.84 1564 1309.67 1564 Q1313.04 1564 1316.19 1563.17 Q1319.38 1562.35 1322.49 1560.69 L1322.49 1566.23 Q1319.34 1567.57 1316.03 1568.27 Q1312.72 1568.97 1309.32 1568.97 Q1300.79 1568.97 1295.79 1564 Q1290.82 1559.04 1290.82 1550.57 Q1290.82 1541.82 1295.54 1536.69 Q1300.28 1531.54 1308.3 1531.54 Q1315.49 1531.54 1319.66 1536.18 Q1323.86 1540.8 1323.86 1548.76 M1318.01 1547.04 Q1317.94 1542.23 1315.3 1539.37 Q1312.69 1536.5 1308.36 1536.5 Q1303.46 1536.5 1300.5 1539.27 Q1297.57 1542.04 1297.13 1547.07 L1318.01 1547.04 Z" fill="#000000" fill-rule="nonzero" fill-opacity="1" /><path clip-path="url(#clip550)" d="M1368.26 1518.58 Q1364 1525.9 1361.93 1533.06 Q1359.86 1540.23 1359.86 1547.58 Q1359.86 1554.93 1361.93 1562.16 Q1364.03 1569.35 1368.26 1576.64 L1363.17 1576.64 Q1358.4 1569.16 1356.01 1561.93 Q1353.65 1554.71 1353.65 1547.58 Q1353.65 1540.48 1356.01 1533.29 Q1358.37 1526.09 1363.17 1518.58 L1368.26 1518.58 Z" fill="#000000" fill-rule="nonzero" fill-opacity="1" /><path clip-path="url(#clip550)" d="M1402.35 1533.45 L1402.35 1538.98 Q1399.87 1537.71 1397.2 1537.07 Q1394.52 1536.44 1391.66 1536.44 Q1387.3 1536.44 1385.1 1537.77 Q1382.94 1539.11 1382.94 1541.79 Q1382.94 1543.82 1384.5 1545 Q1386.06 1546.15 1390.77 1547.2 L1392.77 1547.64 Q1399.01 1548.98 1401.62 1551.43 Q1404.26 1553.85 1404.26 1558.21 Q1404.26 1563.17 1400.32 1566.07 Q1396.4 1568.97 1389.53 1568.97 Q1386.66 1568.97 1383.54 1568.39 Q1380.45 1567.85 1377.02 1566.74 L1377.02 1560.69 Q1380.26 1562.38 1383.41 1563.24 Q1386.57 1564.07 1389.65 1564.07 Q1393.79 1564.07 1396.02 1562.66 Q1398.25 1561.23 1398.25 1558.65 Q1398.25 1556.27 1396.62 1554.99 Q1395.03 1553.72 1389.59 1552.54 L1387.55 1552.07 Q1382.11 1550.92 1379.69 1548.56 Q1377.27 1546.18 1377.27 1542.04 Q1377.27 1537.01 1380.84 1534.27 Q1384.4 1531.54 1390.96 1531.54 Q1394.2 1531.54 1397.07 1532.01 Q1399.93 1532.49 1402.35 1533.45 Z" fill="#000000" fill-rule="nonzero" fill-opacity="1" /><path clip-path="url(#clip550)" d="M1412.66 1518.58 L1417.76 1518.58 Q1422.53 1526.09 1424.89 1533.29 Q1427.27 1540.48 1427.27 1547.58 Q1427.27 1554.71 1424.89 1561.93 Q1422.53 1569.16 1417.76 1576.64 L1412.66 1576.64 Q1416.9 1569.35 1418.97 1562.16 Q1421.07 1554.93 1421.07 1547.58 Q1421.07 1540.23 1418.97 1533.06 Q1416.9 1525.9 1412.66 1518.58 Z" fill="#000000" fill-rule="nonzero" fill-opacity="1" /><polyline clip-path="url(#clip550)" style="stroke:#000000; stroke-linecap:round; stroke-linejoin:round; stroke-width:4; stroke-opacity:1; fill:none" points="242.135,1423.18 242.135,123.472 "/>
<polyline clip-path="url(#clip550)" style="stroke:#000000; stroke-linecap:round; stroke-linejoin:round; stroke-width:4; stroke-opacity:1; fill:none" points="242.135,1293.62 261.032,1293.62 "/>
<polyline clip-path="url(#clip550)" style="stroke:#000000; stroke-linecap:round; stroke-linejoin:round; stroke-width:4; stroke-opacity:1; fill:none" points="242.135,1010.28 261.032,1010.28 "/>
<polyline clip-path="url(#clip550)" style="stroke:#000000; stroke-linecap:round; stroke-linejoin:round; stroke-width:4; stroke-opacity:1; fill:none" points="242.135,726.94 261.032,726.94 "/>
<polyline clip-path="url(#clip550)" style="stroke:#000000; stroke-linecap:round; stroke-linejoin:round; stroke-width:4; stroke-opacity:1; fill:none" points="242.135,443.598 261.032,443.598 "/>
<polyline clip-path="url(#clip550)" style="stroke:#000000; stroke-linecap:round; stroke-linejoin:round; stroke-width:4; stroke-opacity:1; fill:none" points="242.135,160.256 261.032,160.256 "/>
<path clip-path="url(#clip550)" d="M114.26 1294.07 L143.936 1294.07 L143.936 1298.01 L114.26 1298.01 L114.26 1294.07 Z" fill="#000000" fill-rule="nonzero" fill-opacity="1" /><path clip-path="url(#clip550)" d="M158.056 1306.97 L174.376 1306.97 L174.376 1310.9 L152.431 1310.9 L152.431 1306.97 Q155.093 1304.21 159.677 1299.58 Q164.283 1294.93 165.464 1293.59 Q167.709 1291.06 168.589 1289.33 Q169.491 1287.57 169.491 1285.88 Q169.491 1283.13 167.547 1281.39 Q165.626 1279.65 162.524 1279.65 Q160.325 1279.65 157.871 1280.42 Q155.44 1281.18 152.663 1282.73 L152.663 1278.01 Q155.487 1276.88 157.94 1276.3 Q160.394 1275.72 162.431 1275.72 Q167.802 1275.72 170.996 1278.4 Q174.19 1281.09 174.19 1285.58 Q174.19 1287.71 173.38 1289.63 Q172.593 1291.53 170.487 1294.12 Q169.908 1294.79 166.806 1298.01 Q163.704 1301.2 158.056 1306.97 Z" fill="#000000" fill-rule="nonzero" fill-opacity="1" /><path clip-path="url(#clip550)" d="M194.19 1279.42 Q190.579 1279.42 188.75 1282.99 Q186.945 1286.53 186.945 1293.66 Q186.945 1300.76 188.75 1304.33 Q190.579 1307.87 194.19 1307.87 Q197.825 1307.87 199.63 1304.33 Q201.459 1300.76 201.459 1293.66 Q201.459 1286.53 199.63 1282.99 Q197.825 1279.42 194.19 1279.42 M194.19 1275.72 Q200 1275.72 203.056 1280.32 Q206.135 1284.91 206.135 1293.66 Q206.135 1302.38 203.056 1306.99 Q200 1311.57 194.19 1311.57 Q188.38 1311.57 185.301 1306.99 Q182.246 1302.38 182.246 1293.66 Q182.246 1284.91 185.301 1280.32 Q188.38 1275.72 194.19 1275.72 Z" fill="#000000" fill-rule="nonzero" fill-opacity="1" /><path clip-path="url(#clip550)" d="M194.19 996.08 Q190.579 996.08 188.75 999.645 Q186.945 1003.19 186.945 1010.32 Q186.945 1017.42 188.75 1020.99 Q190.579 1024.53 194.19 1024.53 Q197.825 1024.53 199.63 1020.99 Q201.459 1017.42 201.459 1010.32 Q201.459 1003.19 199.63 999.645 Q197.825 996.08 194.19 996.08 M194.19 992.376 Q200 992.376 203.056 996.983 Q206.135 1001.57 206.135 1010.32 Q206.135 1019.04 203.056 1023.65 Q200 1028.23 194.19 1028.23 Q188.38 1028.23 185.301 1023.65 Q182.246 1019.04 182.246 1010.32 Q182.246 1001.57 185.301 996.983 Q188.38 992.376 194.19 992.376 Z" fill="#000000" fill-rule="nonzero" fill-opacity="1" /><path clip-path="url(#clip550)" d="M158.056 740.284 L174.376 740.284 L174.376 744.22 L152.431 744.22 L152.431 740.284 Q155.093 737.53 159.677 732.9 Q164.283 728.247 165.464 726.905 Q167.709 724.382 168.589 722.646 Q169.491 720.886 169.491 719.197 Q169.491 716.442 167.547 714.706 Q165.626 712.97 162.524 712.97 Q160.325 712.97 157.871 713.734 Q155.44 714.497 152.663 716.048 L152.663 711.326 Q155.487 710.192 157.94 709.613 Q160.394 709.035 162.431 709.035 Q167.802 709.035 170.996 711.72 Q174.19 714.405 174.19 718.896 Q174.19 721.025 173.38 722.947 Q172.593 724.845 170.487 727.437 Q169.908 728.109 166.806 731.326 Q163.704 734.521 158.056 740.284 Z" fill="#000000" fill-rule="nonzero" fill-opacity="1" /><path clip-path="url(#clip550)" d="M194.19 712.738 Q190.579 712.738 188.75 716.303 Q186.945 719.845 186.945 726.974 Q186.945 734.081 188.75 737.646 Q190.579 741.187 194.19 741.187 Q197.825 741.187 199.63 737.646 Q201.459 734.081 201.459 726.974 Q201.459 719.845 199.63 716.303 Q197.825 712.738 194.19 712.738 M194.19 709.035 Q200 709.035 203.056 713.641 Q206.135 718.224 206.135 726.974 Q206.135 735.701 203.056 740.308 Q200 744.891 194.19 744.891 Q188.38 744.891 185.301 740.308 Q182.246 735.701 182.246 726.974 Q182.246 718.224 185.301 713.641 Q188.38 709.035 194.19 709.035 Z" fill="#000000" fill-rule="nonzero" fill-opacity="1" /><path clip-path="url(#clip550)" d="M166.876 430.392 L155.07 448.841 L166.876 448.841 L166.876 430.392 M165.649 426.318 L171.528 426.318 L171.528 448.841 L176.459 448.841 L176.459 452.73 L171.528 452.73 L171.528 460.878 L166.876 460.878 L166.876 452.73 L151.274 452.73 L151.274 448.216 L165.649 426.318 Z" fill="#000000" fill-rule="nonzero" fill-opacity="1" /><path clip-path="url(#clip550)" d="M194.19 429.397 Q190.579 429.397 188.75 432.961 Q186.945 436.503 186.945 443.633 Q186.945 450.739 188.75 454.304 Q190.579 457.846 194.19 457.846 Q197.825 457.846 199.63 454.304 Q201.459 450.739 201.459 443.633 Q201.459 436.503 199.63 432.961 Q197.825 429.397 194.19 429.397 M194.19 425.693 Q200 425.693 203.056 430.299 Q206.135 434.883 206.135 443.633 Q206.135 452.359 203.056 456.966 Q200 461.549 194.19 461.549 Q188.38 461.549 185.301 456.966 Q182.246 452.359 182.246 443.633 Q182.246 434.883 185.301 430.299 Q188.38 425.693 194.19 425.693 Z" fill="#000000" fill-rule="nonzero" fill-opacity="1" /><path clip-path="url(#clip550)" d="M164.607 158.393 Q161.459 158.393 159.607 160.546 Q157.778 162.698 157.778 166.448 Q157.778 170.175 159.607 172.351 Q161.459 174.504 164.607 174.504 Q167.755 174.504 169.584 172.351 Q171.436 170.175 171.436 166.448 Q171.436 162.698 169.584 160.546 Q167.755 158.393 164.607 158.393 M173.889 143.74 L173.889 147.999 Q172.13 147.166 170.325 146.726 Q168.542 146.286 166.783 146.286 Q162.153 146.286 159.7 149.411 Q157.269 152.536 156.922 158.856 Q158.288 156.842 160.348 155.777 Q162.408 154.689 164.885 154.689 Q170.093 154.689 173.102 157.86 Q176.135 161.009 176.135 166.448 Q176.135 171.772 172.987 174.99 Q169.839 178.208 164.607 178.208 Q158.612 178.208 155.44 173.624 Q152.269 169.018 152.269 160.291 Q152.269 152.097 156.158 147.236 Q160.047 142.351 166.598 142.351 Q168.357 142.351 170.139 142.699 Q171.945 143.046 173.889 143.74 Z" fill="#000000" fill-rule="nonzero" fill-opacity="1" /><path clip-path="url(#clip550)" d="M194.19 146.055 Q190.579 146.055 188.75 149.62 Q186.945 153.161 186.945 160.291 Q186.945 167.397 188.75 170.962 Q190.579 174.504 194.19 174.504 Q197.825 174.504 199.63 170.962 Q201.459 167.397 201.459 160.291 Q201.459 153.161 199.63 149.62 Q197.825 146.055 194.19 146.055 M194.19 142.351 Q200 142.351 203.056 146.958 Q206.135 151.541 206.135 160.291 Q206.135 169.018 203.056 173.624 Q200 178.208 194.19 178.208 Q188.38 178.208 185.301 173.624 Q182.246 169.018 182.246 160.291 Q182.246 151.541 185.301 146.958 Q188.38 142.351 194.19 142.351 Z" fill="#000000" fill-rule="nonzero" fill-opacity="1" /><path clip-path="url(#clip550)" d="M21.7677 1151.21 L39.6235 1151.21 L39.6235 1143.13 Q39.6235 1138.64 37.3 1136.19 Q34.9765 1133.74 30.6797 1133.74 Q26.4147 1133.74 24.0912 1136.19 Q21.7677 1138.64 21.7677 1143.13 L21.7677 1151.21 M16.4842 1157.64 L16.4842 1143.13 Q16.4842 1135.14 20.1126 1131.06 Q23.7092 1126.96 30.6797 1126.96 Q37.7138 1126.96 41.3104 1131.06 Q44.907 1135.14 44.907 1143.13 L44.907 1151.21 L64.0042 1151.21 L64.0042 1157.64 L16.4842 1157.64 Z" fill="#000000" fill-rule="nonzero" fill-opacity="1" /><path clip-path="url(#clip550)" d="M44.7161 1090.42 L47.5806 1090.42 L47.5806 1117.34 Q53.6281 1116.96 56.8109 1113.72 Q59.9619 1110.44 59.9619 1104.61 Q59.9619 1101.24 59.1344 1098.09 Q58.3069 1094.91 56.6518 1091.79 L62.1899 1091.79 Q63.5267 1094.94 64.227 1098.25 Q64.9272 1101.56 64.9272 1104.96 Q64.9272 1113.49 59.9619 1118.49 Q54.9967 1123.46 46.5303 1123.46 Q37.7774 1123.46 32.6531 1118.75 Q27.4968 1114 27.4968 1105.98 Q27.4968 1098.79 32.1438 1094.62 Q36.7589 1090.42 44.7161 1090.42 M42.9973 1096.27 Q38.1912 1096.34 35.3266 1098.98 Q32.4621 1101.59 32.4621 1105.92 Q32.4621 1110.82 35.2312 1113.78 Q38.0002 1116.71 43.0292 1117.15 L42.9973 1096.27 Z" fill="#000000" fill-rule="nonzero" fill-opacity="1" /><path clip-path="url(#clip550)" d="M42.4881 1051.17 L64.0042 1051.17 L64.0042 1057.03 L42.679 1057.03 Q37.6183 1057.03 35.1038 1059 Q32.5894 1060.98 32.5894 1064.92 Q32.5894 1069.67 35.6131 1072.4 Q38.6368 1075.14 43.8567 1075.14 L64.0042 1075.14 L64.0042 1081.03 L28.3562 1081.03 L28.3562 1075.14 L33.8944 1075.14 Q30.6797 1073.04 29.0883 1070.21 Q27.4968 1067.34 27.4968 1063.62 Q27.4968 1057.48 31.3163 1054.32 Q35.1038 1051.17 42.4881 1051.17 Z" fill="#000000" fill-rule="nonzero" fill-opacity="1" /><path clip-path="url(#clip550)" d="M33.7671 1016.03 L14.479 1016.03 L14.479 1010.18 L64.0042 1010.18 L64.0042 1016.03 L58.657 1016.03 Q61.8398 1017.88 63.3994 1020.71 Q64.9272 1023.51 64.9272 1027.46 Q64.9272 1033.92 59.771 1038 Q54.6147 1042.04 46.212 1042.04 Q37.8093 1042.04 32.6531 1038 Q27.4968 1033.92 27.4968 1027.46 Q27.4968 1023.51 29.0564 1020.71 Q30.5842 1017.88 33.7671 1016.03 M46.212 1035.99 Q52.6732 1035.99 56.3653 1033.35 Q60.0256 1030.68 60.0256 1026.03 Q60.0256 1021.38 56.3653 1018.71 Q52.6732 1016.03 46.212 1016.03 Q39.7508 1016.03 36.0905 1018.71 Q32.3984 1021.38 32.3984 1026.03 Q32.3984 1030.68 36.0905 1033.35 Q39.7508 1035.99 46.212 1035.99 Z" fill="#000000" fill-rule="nonzero" fill-opacity="1" /><path clip-path="url(#clip550)" d="M49.9359 998.72 L28.3562 998.72 L28.3562 992.863 L49.7131 992.863 Q54.7739 992.863 57.3202 990.89 Q59.8346 988.917 59.8346 984.97 Q59.8346 980.227 56.8109 977.49 Q53.7872 974.721 48.5673 974.721 L28.3562 974.721 L28.3562 968.865 L64.0042 968.865 L64.0042 974.721 L58.5296 974.721 Q61.7762 976.854 63.3676 979.686 Q64.9272 982.487 64.9272 986.211 Q64.9272 992.354 61.1078 995.537 Q57.2883 998.72 49.9359 998.72 M27.4968 983.983 L27.4968 983.983 Z" fill="#000000" fill-rule="nonzero" fill-opacity="1" /><path clip-path="url(#clip550)" d="M14.479 956.802 L14.479 950.945 L64.0042 950.945 L64.0042 956.802 L14.479 956.802 Z" fill="#000000" fill-rule="nonzero" fill-opacity="1" /><path clip-path="url(#clip550)" d="M49.9359 939.296 L28.3562 939.296 L28.3562 933.439 L49.7131 933.439 Q54.7739 933.439 57.3202 931.466 Q59.8346 929.493 59.8346 925.546 Q59.8346 920.803 56.8109 918.066 Q53.7872 915.297 48.5673 915.297 L28.3562 915.297 L28.3562 909.441 L64.0042 909.441 L64.0042 915.297 L58.5296 915.297 Q61.7762 917.43 63.3676 920.262 Q64.9272 923.063 64.9272 926.787 Q64.9272 932.93 61.1078 936.113 Q57.2883 939.296 49.9359 939.296 M27.4968 924.559 L27.4968 924.559 Z" fill="#000000" fill-rule="nonzero" fill-opacity="1" /><path clip-path="url(#clip550)" d="M35.1993 869.623 Q31.2526 867.427 29.3747 864.372 Q27.4968 861.316 27.4968 857.178 Q27.4968 851.608 31.4117 848.585 Q35.2948 845.561 42.4881 845.561 L64.0042 845.561 L64.0042 851.449 L42.679 851.449 Q37.5546 851.449 35.072 853.263 Q32.5894 855.078 32.5894 858.802 Q32.5894 863.353 35.6131 865.995 Q38.6368 868.637 43.8567 868.637 L64.0042 868.637 L64.0042 874.525 L42.679 874.525 Q37.5228 874.525 35.072 876.339 Q32.5894 878.153 32.5894 881.941 Q32.5894 886.429 35.6449 889.07 Q38.6686 891.712 43.8567 891.712 L64.0042 891.712 L64.0042 897.6 L28.3562 897.6 L28.3562 891.712 L33.8944 891.712 Q30.616 889.707 29.0564 886.906 Q27.4968 884.105 27.4968 880.254 Q27.4968 876.371 29.4702 873.665 Q31.4436 870.928 35.1993 869.623 Z" fill="#000000" fill-rule="nonzero" fill-opacity="1" /><path clip-path="url(#clip550)" d="M46.0847 796.959 Q46.0847 804.056 47.7079 806.794 Q49.3312 809.531 53.2461 809.531 Q56.3653 809.531 58.2114 807.494 Q60.0256 805.425 60.0256 801.892 Q60.0256 797.022 56.5881 794.094 Q53.1188 791.134 47.3897 791.134 L46.0847 791.134 L46.0847 796.959 M43.6657 785.278 L64.0042 785.278 L64.0042 791.134 L58.5933 791.134 Q61.8398 793.139 63.3994 796.131 Q64.9272 799.123 64.9272 803.452 Q64.9272 808.926 61.8716 812.173 Q58.7843 815.387 53.6281 815.387 Q47.6125 815.387 44.5569 811.377 Q41.5014 807.335 41.5014 799.346 L41.5014 791.134 L40.9285 791.134 Q36.8862 791.134 34.6901 793.808 Q32.4621 796.449 32.4621 801.256 Q32.4621 804.311 33.1941 807.207 Q33.9262 810.104 35.3903 812.777 L29.9795 812.777 Q28.7381 809.563 28.1334 806.539 Q27.4968 803.515 27.4968 800.651 Q27.4968 792.916 31.5072 789.097 Q35.5176 785.278 43.6657 785.278 Z" fill="#000000" fill-rule="nonzero" fill-opacity="1" /><path clip-path="url(#clip550)" d="M42.4881 743.582 L64.0042 743.582 L64.0042 749.439 L42.679 749.439 Q37.6183 749.439 35.1038 751.412 Q32.5894 753.385 32.5894 757.332 Q32.5894 762.075 35.6131 764.812 Q38.6368 767.549 43.8567 767.549 L64.0042 767.549 L64.0042 773.437 L28.3562 773.437 L28.3562 767.549 L33.8944 767.549 Q30.6797 765.448 29.0883 762.616 Q27.4968 759.751 27.4968 756.027 Q27.4968 749.884 31.3163 746.733 Q35.1038 743.582 42.4881 743.582 Z" fill="#000000" fill-rule="nonzero" fill-opacity="1" /><path clip-path="url(#clip550)" d="M45.7664 708.444 Q39.4007 708.444 35.8996 711.085 Q32.3984 713.695 32.3984 718.438 Q32.3984 723.148 35.8996 725.79 Q39.4007 728.4 45.7664 728.4 Q52.1003 728.4 55.6014 725.79 Q59.1026 723.148 59.1026 718.438 Q59.1026 713.695 55.6014 711.085 Q52.1003 708.444 45.7664 708.444 M59.58 702.587 Q68.683 702.587 73.1071 706.629 Q77.5631 710.672 77.5631 719.011 Q77.5631 722.098 77.0857 724.835 Q76.6401 727.572 75.6852 730.151 L69.9879 730.151 Q71.3884 727.572 72.0568 725.058 Q72.7252 722.544 72.7252 719.934 Q72.7252 714.173 69.7015 711.308 Q66.7096 708.444 60.6303 708.444 L57.7339 708.444 Q60.885 710.258 62.4446 713.09 Q64.0042 715.923 64.0042 719.87 Q64.0042 726.427 59.0071 730.437 Q54.01 734.447 45.7664 734.447 Q37.491 734.447 32.4939 730.437 Q27.4968 726.427 27.4968 719.87 Q27.4968 715.923 29.0564 713.09 Q30.616 710.258 33.7671 708.444 L28.3562 708.444 L28.3562 702.587 L59.58 702.587 Z" fill="#000000" fill-rule="nonzero" fill-opacity="1" /><path clip-path="url(#clip550)" d="M14.479 690.524 L14.479 684.668 L64.0042 684.668 L64.0042 690.524 L14.479 690.524 Z" fill="#000000" fill-rule="nonzero" fill-opacity="1" /><path clip-path="url(#clip550)" d="M44.7161 641.922 L47.5806 641.922 L47.5806 668.849 Q53.6281 668.467 56.8109 665.22 Q59.9619 661.942 59.9619 656.117 Q59.9619 652.744 59.1344 649.593 Q58.3069 646.41 56.6518 643.291 L62.1899 643.291 Q63.5267 646.442 64.227 649.752 Q64.9272 653.062 64.9272 656.468 Q64.9272 664.998 59.9619 669.995 Q54.9967 674.96 46.5303 674.96 Q37.7774 674.96 32.6531 670.249 Q27.4968 665.507 27.4968 657.486 Q27.4968 650.293 32.1438 646.123 Q36.7589 641.922 44.7161 641.922 M42.9973 647.778 Q38.1912 647.842 35.3266 650.484 Q32.4621 653.094 32.4621 657.422 Q32.4621 662.324 35.2312 665.284 Q38.0002 668.212 43.0292 668.658 L42.9973 647.778 Z" fill="#000000" fill-rule="nonzero" fill-opacity="1" /><path clip-path="url(#clip550)" d="M41.4059 587.654 L41.4059 607.929 Q50.9226 607.452 54.9649 605.255 Q59.9301 602.518 59.9301 597.776 Q59.9301 593.001 54.933 590.36 Q50.5407 588.036 41.4059 587.654 M35.995 587.75 Q26.9557 588.641 23.7729 590.36 Q18.744 593.097 18.744 597.776 Q18.744 602.645 23.7092 605.224 Q27.7196 607.261 35.995 607.865 L35.995 587.75 M13.9697 597.776 Q13.9697 590.137 20.7174 585.776 Q27.4332 581.416 39.337 581.416 Q51.2091 581.416 57.9567 585.776 Q64.7362 590.137 64.7362 597.776 Q64.7362 605.446 57.9567 609.775 Q51.2091 614.136 39.337 614.136 Q27.4332 614.136 20.7174 609.775 Q13.9697 605.446 13.9697 597.776 Z" fill="#000000" fill-rule="nonzero" fill-opacity="1" /><path clip-path="url(#clip550)" d="M14.5426 536.92 Q21.8632 541.185 29.0246 543.253 Q36.186 545.322 43.5384 545.322 Q50.8908 545.322 58.1159 543.253 Q65.3091 541.153 72.5979 536.92 L72.5979 542.012 Q65.1182 546.786 57.8931 549.174 Q50.668 551.529 43.5384 551.529 Q36.4406 551.529 29.2474 549.174 Q22.0542 546.818 14.5426 542.012 L14.5426 536.92 Z" fill="#000000" fill-rule="nonzero" fill-opacity="1" /><path clip-path="url(#clip550)" d="M33.7671 502.099 L14.479 502.099 L14.479 496.243 L64.0042 496.243 L64.0042 502.099 L58.657 502.099 Q61.8398 503.945 63.3994 506.778 Q64.9272 509.579 64.9272 513.526 Q64.9272 519.987 59.771 524.061 Q54.6147 528.103 46.212 528.103 Q37.8093 528.103 32.6531 524.061 Q27.4968 519.987 27.4968 513.526 Q27.4968 509.579 29.0564 506.778 Q30.5842 503.945 33.7671 502.099 M46.212 522.056 Q52.6732 522.056 56.3653 519.414 Q60.0256 516.74 60.0256 512.093 Q60.0256 507.446 56.3653 504.773 Q52.6732 502.099 46.212 502.099 Q39.7508 502.099 36.0905 504.773 Q32.3984 507.446 32.3984 512.093 Q32.3984 516.74 36.0905 519.414 Q39.7508 522.056 46.212 522.056 Z" fill="#000000" fill-rule="nonzero" fill-opacity="1" /><path clip-path="url(#clip550)" d="M44.7161 453.688 L47.5806 453.688 L47.5806 480.615 Q53.6281 480.233 56.8109 476.986 Q59.9619 473.708 59.9619 467.883 Q59.9619 464.51 59.1344 461.359 Q58.3069 458.176 56.6518 455.057 L62.1899 455.057 Q63.5267 458.208 64.227 461.518 Q64.9272 464.828 64.9272 468.234 Q64.9272 476.764 59.9619 481.761 Q54.9967 486.726 46.5303 486.726 Q37.7774 486.726 32.6531 482.015 Q27.4968 477.273 27.4968 469.252 Q27.4968 462.059 32.1438 457.889 Q36.7589 453.688 44.7161 453.688 M42.9973 459.544 Q38.1912 459.608 35.3266 462.25 Q32.4621 464.86 32.4621 469.188 Q32.4621 474.09 35.2312 477.05 Q38.0002 479.978 43.0292 480.424 L42.9973 459.544 Z" fill="#000000" fill-rule="nonzero" fill-opacity="1" /><path clip-path="url(#clip550)" d="M45.7664 420.618 Q39.4007 420.618 35.8996 423.26 Q32.3984 425.87 32.3984 430.612 Q32.3984 435.323 35.8996 437.965 Q39.4007 440.575 45.7664 440.575 Q52.1003 440.575 55.6014 437.965 Q59.1026 435.323 59.1026 430.612 Q59.1026 425.87 55.6014 423.26 Q52.1003 420.618 45.7664 420.618 M59.58 414.762 Q68.683 414.762 73.1071 418.804 Q77.5631 422.846 77.5631 431.185 Q77.5631 434.273 77.0857 437.01 Q76.6401 439.747 75.6852 442.325 L69.9879 442.325 Q71.3884 439.747 72.0568 437.233 Q72.7252 434.718 72.7252 432.108 Q72.7252 426.347 69.7015 423.483 Q66.7096 420.618 60.6303 420.618 L57.7339 420.618 Q60.885 422.432 62.4446 425.265 Q64.0042 428.098 64.0042 432.045 Q64.0042 438.601 59.0071 442.612 Q54.01 446.622 45.7664 446.622 Q37.491 446.622 32.4939 442.612 Q27.4968 438.601 27.4968 432.045 Q27.4968 428.098 29.0564 425.265 Q30.616 422.432 33.7671 420.618 L28.3562 420.618 L28.3562 414.762 L59.58 414.762 Z" fill="#000000" fill-rule="nonzero" fill-opacity="1" /><path clip-path="url(#clip550)" d="M14.5426 403.622 L14.5426 398.529 Q22.0542 393.755 29.2474 391.4 Q36.4406 389.012 43.5384 389.012 Q50.668 389.012 57.8931 391.4 Q65.1182 393.755 72.5979 398.529 L72.5979 403.622 Q65.3091 399.388 58.1159 397.32 Q50.8908 395.219 43.5384 395.219 Q36.186 395.219 29.0246 397.32 Q21.8632 399.388 14.5426 403.622 Z" fill="#000000" fill-rule="nonzero" fill-opacity="1" /><path clip-path="url(#clip550)" d="M500.632 43.6931 L500.632 65.8515 L513.757 65.8515 Q520.36 65.8515 523.52 63.1374 Q526.72 60.3828 526.72 54.752 Q526.72 49.0808 523.52 46.4072 Q520.36 43.6931 513.757 43.6931 L500.632 43.6931 M500.632 18.8205 L500.632 37.0496 L512.745 37.0496 Q518.74 37.0496 521.657 34.8216 Q524.614 32.5531 524.614 27.935 Q524.614 23.3575 521.657 21.089 Q518.74 18.8205 512.745 18.8205 L500.632 18.8205 M492.45 12.096 L513.352 12.096 Q522.71 12.096 527.773 15.9849 Q532.837 19.8737 532.837 27.0438 Q532.837 32.5936 530.245 35.8748 Q527.652 39.156 522.629 39.9662 Q528.665 41.2625 531.986 45.3944 Q535.349 49.4858 535.349 55.6432 Q535.349 63.745 529.839 68.1605 Q524.33 72.576 514.162 72.576 L492.45 72.576 L492.45 12.096 Z" fill="#000000" fill-rule="nonzero" fill-opacity="1" /><path clip-path="url(#clip550)" d="M587.848 48.0275 L587.848 51.6733 L553.578 51.6733 Q554.064 59.3701 558.196 63.421 Q562.368 67.4314 569.781 67.4314 Q574.075 67.4314 578.086 66.3781 Q582.137 65.3249 586.107 63.2184 L586.107 70.267 Q582.096 71.9684 577.883 72.8596 Q573.67 73.7508 569.336 73.7508 Q558.479 73.7508 552.119 67.4314 Q545.8 61.1119 545.8 50.3365 Q545.8 39.1965 551.795 32.6746 Q557.831 26.1121 568.039 26.1121 Q577.195 26.1121 582.501 32.0264 Q587.848 37.9003 587.848 48.0275 M580.395 45.84 Q580.314 39.7232 576.951 36.0774 Q573.63 32.4315 568.12 32.4315 Q561.882 32.4315 558.115 35.9558 Q554.388 39.4801 553.821 45.8805 L580.395 45.84 Z" fill="#000000" fill-rule="nonzero" fill-opacity="1" /><path clip-path="url(#clip550)" d="M629.006 28.5427 L629.006 35.5912 Q625.846 33.9709 622.443 33.1607 Q619.04 32.3505 615.395 32.3505 Q609.845 32.3505 607.05 34.0519 Q604.295 35.7533 604.295 39.156 Q604.295 41.7486 606.28 43.2475 Q608.265 44.7058 614.26 46.0426 L616.812 46.6097 Q624.752 48.3111 628.074 51.4303 Q631.436 54.509 631.436 60.0587 Q631.436 66.3781 626.413 70.0644 Q621.43 73.7508 612.68 73.7508 Q609.035 73.7508 605.065 73.0216 Q601.135 72.3329 596.76 70.9151 L596.76 63.2184 Q600.892 65.3654 604.903 66.4591 Q608.913 67.5124 612.842 67.5124 Q618.109 67.5124 620.944 65.73 Q623.78 63.9071 623.78 60.6258 Q623.78 57.5877 621.714 55.9673 Q619.689 54.3469 612.761 52.8481 L610.169 52.2405 Q603.242 50.7821 600.163 47.7845 Q597.084 44.7463 597.084 39.4801 Q597.084 33.0797 601.621 29.5959 Q606.158 26.1121 614.503 26.1121 Q618.635 26.1121 622.281 26.7198 Q625.927 27.3274 629.006 28.5427 Z" fill="#000000" fill-rule="nonzero" fill-opacity="1" /><path clip-path="url(#clip550)" d="M650.678 14.324 L650.678 27.2059 L666.031 27.2059 L666.031 32.9987 L650.678 32.9987 L650.678 57.6282 Q650.678 63.1779 652.177 64.7578 Q653.716 66.3376 658.375 66.3376 L666.031 66.3376 L666.031 72.576 L658.375 72.576 Q649.746 72.576 646.465 69.3758 Q643.184 66.1351 643.184 57.6282 L643.184 32.9987 L637.715 32.9987 L637.715 27.2059 L643.184 27.2059 L643.184 14.324 L650.678 14.324 Z" fill="#000000" fill-rule="nonzero" fill-opacity="1" /><path clip-path="url(#clip550)" d="M710.712 18.8205 L710.712 65.8515 L720.597 65.8515 Q733.114 65.8515 738.907 60.1802 Q744.74 54.509 744.74 42.2752 Q744.74 30.1225 738.907 24.4918 Q733.114 18.8205 720.597 18.8205 L710.712 18.8205 M702.529 12.096 L719.341 12.096 Q736.922 12.096 745.145 19.4281 Q753.368 26.7198 753.368 42.2752 Q753.368 57.9117 745.104 65.2439 Q736.841 72.576 719.341 72.576 L702.529 72.576 L702.529 12.096 Z" fill="#000000" fill-rule="nonzero" fill-opacity="1" /><path clip-path="url(#clip550)" d="M804.896 48.0275 L804.896 51.6733 L770.625 51.6733 Q771.111 59.3701 775.243 63.421 Q779.416 67.4314 786.829 67.4314 Q791.123 67.4314 795.133 66.3781 Q799.184 65.3249 803.154 63.2184 L803.154 70.267 Q799.144 71.9684 794.931 72.8596 Q790.718 73.7508 786.383 73.7508 Q775.527 73.7508 769.167 67.4314 Q762.847 61.1119 762.847 50.3365 Q762.847 39.1965 768.843 32.6746 Q774.879 26.1121 785.087 26.1121 Q794.242 26.1121 799.549 32.0264 Q804.896 37.9003 804.896 48.0275 M797.442 45.84 Q797.361 39.7232 793.999 36.0774 Q790.677 32.4315 785.168 32.4315 Q778.93 32.4315 775.162 35.9558 Q771.435 39.4801 770.868 45.8805 L797.442 45.84 Z" fill="#000000" fill-rule="nonzero" fill-opacity="1" /><path clip-path="url(#clip550)" d="M846.053 28.5427 L846.053 35.5912 Q842.893 33.9709 839.491 33.1607 Q836.088 32.3505 832.442 32.3505 Q826.892 32.3505 824.097 34.0519 Q821.343 35.7533 821.343 39.156 Q821.343 41.7486 823.327 43.2475 Q825.312 44.7058 831.308 46.0426 L833.86 46.6097 Q841.8 48.3111 845.121 51.4303 Q848.484 54.509 848.484 60.0587 Q848.484 66.3781 843.46 70.0644 Q838.478 73.7508 829.728 73.7508 Q826.082 73.7508 822.112 73.0216 Q818.183 72.3329 813.808 70.9151 L813.808 63.2184 Q817.94 65.3654 821.95 66.4591 Q825.961 67.5124 829.89 67.5124 Q835.156 67.5124 837.992 65.73 Q840.827 63.9071 840.827 60.6258 Q840.827 57.5877 838.761 55.9673 Q836.736 54.3469 829.809 52.8481 L827.216 52.2405 Q820.289 50.7821 817.211 47.7845 Q814.132 44.7463 814.132 39.4801 Q814.132 33.0797 818.669 29.5959 Q823.206 26.1121 831.551 26.1121 Q835.683 26.1121 839.329 26.7198 Q842.974 27.3274 846.053 28.5427 Z" fill="#000000" fill-rule="nonzero" fill-opacity="1" /><path clip-path="url(#clip550)" d="M860.353 27.2059 L867.806 27.2059 L867.806 72.576 L860.353 72.576 L860.353 27.2059 M860.353 9.54393 L867.806 9.54393 L867.806 18.9825 L860.353 18.9825 L860.353 9.54393 Z" fill="#000000" fill-rule="nonzero" fill-opacity="1" /><path clip-path="url(#clip550)" d="M913.258 49.3643 Q913.258 41.2625 909.895 36.8065 Q906.574 32.3505 900.538 32.3505 Q894.542 32.3505 891.18 36.8065 Q887.858 41.2625 887.858 49.3643 Q887.858 57.4256 891.18 61.8816 Q894.542 66.3376 900.538 66.3376 Q906.574 66.3376 909.895 61.8816 Q913.258 57.4256 913.258 49.3643 M920.711 66.9452 Q920.711 78.5308 915.567 84.1616 Q910.422 89.8329 899.809 89.8329 Q895.879 89.8329 892.395 89.2252 Q888.912 88.6581 885.63 87.4428 L885.63 80.1917 Q888.912 81.9741 892.112 82.8248 Q895.312 83.6755 898.634 83.6755 Q905.966 83.6755 909.612 79.8271 Q913.258 76.0193 913.258 68.282 L913.258 64.5957 Q910.949 68.6061 907.343 70.5911 Q903.738 72.576 898.715 72.576 Q890.37 72.576 885.266 66.2161 Q880.162 59.8562 880.162 49.3643 Q880.162 38.832 885.266 32.472 Q890.37 26.1121 898.715 26.1121 Q903.738 26.1121 907.343 28.0971 Q910.949 30.082 913.258 34.0924 L913.258 27.2059 L920.711 27.2059 L920.711 66.9452 Z" fill="#000000" fill-rule="nonzero" fill-opacity="1" /><path clip-path="url(#clip550)" d="M973.778 45.1919 L973.778 72.576 L966.324 72.576 L966.324 45.4349 Q966.324 38.994 963.813 35.7938 Q961.301 32.5936 956.278 32.5936 Q950.242 32.5936 946.759 36.4419 Q943.275 40.2903 943.275 46.9338 L943.275 72.576 L935.781 72.576 L935.781 27.2059 L943.275 27.2059 L943.275 34.2544 Q945.948 30.163 949.554 28.1376 Q953.199 26.1121 957.939 26.1121 Q965.757 26.1121 969.768 30.9732 Q973.778 35.7938 973.778 45.1919 Z" fill="#000000" fill-rule="nonzero" fill-opacity="1" /><path clip-path="url(#clip550)" d="M1023.52 18.8205 L1023.52 41.5461 L1033.81 41.5461 Q1039.52 41.5461 1042.64 38.5889 Q1045.76 35.6318 1045.76 30.163 Q1045.76 24.7348 1042.64 21.7777 Q1039.52 18.8205 1033.81 18.8205 L1023.52 18.8205 M1015.34 12.096 L1033.81 12.096 Q1043.98 12.096 1049.17 16.714 Q1054.39 21.2916 1054.39 30.163 Q1054.39 39.1155 1049.17 43.6931 Q1043.98 48.2706 1033.81 48.2706 L1023.52 48.2706 L1023.52 72.576 L1015.34 72.576 L1015.34 12.096 Z" fill="#000000" fill-rule="nonzero" fill-opacity="1" /><path clip-path="url(#clip550)" d="M1100.9 48.0275 L1100.9 51.6733 L1066.62 51.6733 Q1067.11 59.3701 1071.24 63.421 Q1075.42 67.4314 1082.83 67.4314 Q1087.12 67.4314 1091.13 66.3781 Q1095.18 65.3249 1099.15 63.2184 L1099.15 70.267 Q1095.14 71.9684 1090.93 72.8596 Q1086.72 73.7508 1082.38 73.7508 Q1071.53 73.7508 1065.17 67.4314 Q1058.85 61.1119 1058.85 50.3365 Q1058.85 39.1965 1064.84 32.6746 Q1070.88 26.1121 1081.09 26.1121 Q1090.24 26.1121 1095.55 32.0264 Q1100.9 37.9003 1100.9 48.0275 M1093.44 45.84 Q1093.36 39.7232 1090 36.0774 Q1086.68 32.4315 1081.17 32.4315 Q1074.93 32.4315 1071.16 35.9558 Q1067.43 39.4801 1066.87 45.8805 L1093.44 45.84 Z" fill="#000000" fill-rule="nonzero" fill-opacity="1" /><path clip-path="url(#clip550)" d="M1150.84 45.1919 L1150.84 72.576 L1143.39 72.576 L1143.39 45.4349 Q1143.39 38.994 1140.88 35.7938 Q1138.37 32.5936 1133.34 32.5936 Q1127.31 32.5936 1123.82 36.4419 Q1120.34 40.2903 1120.34 46.9338 L1120.34 72.576 L1112.85 72.576 L1112.85 27.2059 L1120.34 27.2059 L1120.34 34.2544 Q1123.01 30.163 1126.62 28.1376 Q1130.26 26.1121 1135 26.1121 Q1142.82 26.1121 1146.83 30.9732 Q1150.84 35.7938 1150.84 45.1919 Z" fill="#000000" fill-rule="nonzero" fill-opacity="1" /><path clip-path="url(#clip550)" d="M1195.57 34.0924 L1195.57 9.54393 L1203.02 9.54393 L1203.02 72.576 L1195.57 72.576 L1195.57 65.7705 Q1193.22 69.8214 1189.61 71.8063 Q1186.05 73.7508 1181.02 73.7508 Q1172.8 73.7508 1167.61 67.1883 Q1162.47 60.6258 1162.47 49.9314 Q1162.47 39.2371 1167.61 32.6746 Q1172.8 26.1121 1181.02 26.1121 Q1186.05 26.1121 1189.61 28.0971 Q1193.22 30.0415 1195.57 34.0924 M1170.17 49.9314 Q1170.17 58.1548 1173.53 62.8538 Q1176.93 67.5124 1182.85 67.5124 Q1188.76 67.5124 1192.16 62.8538 Q1195.57 58.1548 1195.57 49.9314 Q1195.57 41.7081 1192.16 37.0496 Q1188.76 32.3505 1182.85 32.3505 Q1176.93 32.3505 1173.53 37.0496 Q1170.17 41.7081 1170.17 49.9314 Z" fill="#000000" fill-rule="nonzero" fill-opacity="1" /><path clip-path="url(#clip550)" d="M1217.6 54.671 L1217.6 27.2059 L1225.06 27.2059 L1225.06 54.3874 Q1225.06 60.8284 1227.57 64.0691 Q1230.08 67.2693 1235.1 67.2693 Q1241.14 67.2693 1244.62 63.421 Q1248.15 59.5726 1248.15 52.9291 L1248.15 27.2059 L1255.6 27.2059 L1255.6 72.576 L1248.15 72.576 L1248.15 65.6084 Q1245.43 69.7404 1241.83 71.7658 Q1238.26 73.7508 1233.52 73.7508 Q1225.7 73.7508 1221.65 68.8897 Q1217.6 64.0286 1217.6 54.671 M1236.36 26.1121 L1236.36 26.1121 Z" fill="#000000" fill-rule="nonzero" fill-opacity="1" /><path clip-path="url(#clip550)" d="M1270.95 9.54393 L1278.41 9.54393 L1278.41 72.576 L1270.95 72.576 L1270.95 9.54393 Z" fill="#000000" fill-rule="nonzero" fill-opacity="1" /><path clip-path="url(#clip550)" d="M1293.23 54.671 L1293.23 27.2059 L1300.69 27.2059 L1300.69 54.3874 Q1300.69 60.8284 1303.2 64.0691 Q1305.71 67.2693 1310.73 67.2693 Q1316.77 67.2693 1320.25 63.421 Q1323.78 59.5726 1323.78 52.9291 L1323.78 27.2059 L1331.23 27.2059 L1331.23 72.576 L1323.78 72.576 L1323.78 65.6084 Q1321.06 69.7404 1317.46 71.7658 Q1313.89 73.7508 1309.15 73.7508 Q1301.33 73.7508 1297.28 68.8897 Q1293.23 64.0286 1293.23 54.671 M1311.99 26.1121 L1311.99 26.1121 Z" fill="#000000" fill-rule="nonzero" fill-opacity="1" /><path clip-path="url(#clip550)" d="M1381.91 35.9153 Q1384.7 30.8922 1388.59 28.5022 Q1392.48 26.1121 1397.75 26.1121 Q1404.83 26.1121 1408.68 31.0947 Q1412.53 36.0368 1412.53 45.1919 L1412.53 72.576 L1405.04 72.576 L1405.04 45.4349 Q1405.04 38.913 1402.73 35.7533 Q1400.42 32.5936 1395.68 32.5936 Q1389.89 32.5936 1386.52 36.4419 Q1383.16 40.2903 1383.16 46.9338 L1383.16 72.576 L1375.67 72.576 L1375.67 45.4349 Q1375.67 38.8725 1373.36 35.7533 Q1371.05 32.5936 1366.23 32.5936 Q1360.52 32.5936 1357.16 36.4824 Q1353.79 40.3308 1353.79 46.9338 L1353.79 72.576 L1346.3 72.576 L1346.3 27.2059 L1353.79 27.2059 L1353.79 34.2544 Q1356.35 30.082 1359.91 28.0971 Q1363.48 26.1121 1368.38 26.1121 Q1373.32 26.1121 1376.76 28.6237 Q1380.25 31.1352 1381.91 35.9153 Z" fill="#000000" fill-rule="nonzero" fill-opacity="1" /><path clip-path="url(#clip550)" d="M1474.31 20.1573 L1463.21 50.2555 L1485.45 50.2555 L1474.31 20.1573 M1469.69 12.096 L1478.97 12.096 L1502.02 72.576 L1493.51 72.576 L1488 57.061 L1460.74 57.061 L1455.23 72.576 L1446.6 72.576 L1469.69 12.096 Z" fill="#000000" fill-rule="nonzero" fill-opacity="1" /><path clip-path="url(#clip550)" d="M1548.24 45.1919 L1548.24 72.576 L1540.78 72.576 L1540.78 45.4349 Q1540.78 38.994 1538.27 35.7938 Q1535.76 32.5936 1530.74 32.5936 Q1524.7 32.5936 1521.22 36.4419 Q1517.73 40.2903 1517.73 46.9338 L1517.73 72.576 L1510.24 72.576 L1510.24 27.2059 L1517.73 27.2059 L1517.73 34.2544 Q1520.41 30.163 1524.01 28.1376 Q1527.66 26.1121 1532.4 26.1121 Q1540.22 26.1121 1544.23 30.9732 Q1548.24 35.7938 1548.24 45.1919 Z" fill="#000000" fill-rule="nonzero" fill-opacity="1" /><path clip-path="url(#clip550)" d="M1592.96 49.3643 Q1592.96 41.2625 1589.6 36.8065 Q1586.27 32.3505 1580.24 32.3505 Q1574.24 32.3505 1570.88 36.8065 Q1567.56 41.2625 1567.56 49.3643 Q1567.56 57.4256 1570.88 61.8816 Q1574.24 66.3376 1580.24 66.3376 Q1586.27 66.3376 1589.6 61.8816 Q1592.96 57.4256 1592.96 49.3643 M1600.41 66.9452 Q1600.41 78.5308 1595.27 84.1616 Q1590.12 89.8329 1579.51 89.8329 Q1575.58 89.8329 1572.1 89.2252 Q1568.61 88.6581 1565.33 87.4428 L1565.33 80.1917 Q1568.61 81.9741 1571.81 82.8248 Q1575.01 83.6755 1578.33 83.6755 Q1585.67 83.6755 1589.31 79.8271 Q1592.96 76.0193 1592.96 68.282 L1592.96 64.5957 Q1590.65 68.6061 1587.04 70.5911 Q1583.44 72.576 1578.42 72.576 Q1570.07 72.576 1564.97 66.2161 Q1559.86 59.8562 1559.86 49.3643 Q1559.86 38.832 1564.97 32.472 Q1570.07 26.1121 1578.42 26.1121 Q1583.44 26.1121 1587.04 28.0971 Q1590.65 30.082 1592.96 34.0924 L1592.96 27.2059 L1600.41 27.2059 L1600.41 66.9452 Z" fill="#000000" fill-rule="nonzero" fill-opacity="1" /><path clip-path="url(#clip550)" d="M1615.77 9.54393 L1623.22 9.54393 L1623.22 72.576 L1615.77 72.576 L1615.77 9.54393 Z" fill="#000000" fill-rule="nonzero" fill-opacity="1" /><path clip-path="url(#clip550)" d="M1677.62 48.0275 L1677.62 51.6733 L1643.35 51.6733 Q1643.84 59.3701 1647.97 63.421 Q1652.14 67.4314 1659.56 67.4314 Q1663.85 67.4314 1667.86 66.3781 Q1671.91 65.3249 1675.88 63.2184 L1675.88 70.267 Q1671.87 71.9684 1667.66 72.8596 Q1663.44 73.7508 1659.11 73.7508 Q1648.25 73.7508 1641.89 67.4314 Q1635.57 61.1119 1635.57 50.3365 Q1635.57 39.1965 1641.57 32.6746 Q1647.61 26.1121 1657.81 26.1121 Q1666.97 26.1121 1672.28 32.0264 Q1677.62 37.9003 1677.62 48.0275 M1670.17 45.84 Q1670.09 39.7232 1666.73 36.0774 Q1663.4 32.4315 1657.89 32.4315 Q1651.66 32.4315 1647.89 35.9558 Q1644.16 39.4801 1643.6 45.8805 L1670.17 45.84 Z" fill="#000000" fill-rule="nonzero" fill-opacity="1" /><path clip-path="url(#clip550)" d="M1745.23 44.2197 Q1747.87 45.1109 1750.34 48.0275 Q1752.85 50.9442 1755.36 56.0483 L1763.66 72.576 L1754.87 72.576 L1747.14 57.061 Q1744.14 50.9847 1741.3 48.9997 Q1738.51 47.0148 1733.65 47.0148 L1724.73 47.0148 L1724.73 72.576 L1716.55 72.576 L1716.55 12.096 L1735.02 12.096 Q1745.39 12.096 1750.5 16.4305 Q1755.6 20.7649 1755.6 29.5149 Q1755.6 35.2267 1752.93 38.994 Q1750.3 42.7613 1745.23 44.2197 M1724.73 18.8205 L1724.73 40.2903 L1735.02 40.2903 Q1740.94 40.2903 1743.94 37.5762 Q1746.97 34.8216 1746.97 29.5149 Q1746.97 24.2082 1743.94 21.5346 Q1740.94 18.8205 1735.02 18.8205 L1724.73 18.8205 Z" fill="#000000" fill-rule="nonzero" fill-opacity="1" /><path clip-path="url(#clip550)" d="M1808.95 48.0275 L1808.95 51.6733 L1774.68 51.6733 Q1775.17 59.3701 1779.3 63.421 Q1783.47 67.4314 1790.89 67.4314 Q1795.18 67.4314 1799.19 66.3781 Q1803.24 65.3249 1807.21 63.2184 L1807.21 70.267 Q1803.2 71.9684 1798.99 72.8596 Q1794.77 73.7508 1790.44 73.7508 Q1779.58 73.7508 1773.22 67.4314 Q1766.9 61.1119 1766.9 50.3365 Q1766.9 39.1965 1772.9 32.6746 Q1778.94 26.1121 1789.14 26.1121 Q1798.3 26.1121 1803.61 32.0264 Q1808.95 37.9003 1808.95 48.0275 M1801.5 45.84 Q1801.42 39.7232 1798.06 36.0774 Q1794.73 32.4315 1789.23 32.4315 Q1782.99 32.4315 1779.22 35.9558 Q1775.49 39.4801 1774.93 45.8805 L1801.5 45.84 Z" fill="#000000" fill-rule="nonzero" fill-opacity="1" /><path clip-path="url(#clip550)" d="M1850.11 28.5427 L1850.11 35.5912 Q1846.95 33.9709 1843.55 33.1607 Q1840.14 32.3505 1836.5 32.3505 Q1830.95 32.3505 1828.15 34.0519 Q1825.4 35.7533 1825.4 39.156 Q1825.4 41.7486 1827.38 43.2475 Q1829.37 44.7058 1835.36 46.0426 L1837.92 46.6097 Q1845.86 48.3111 1849.18 51.4303 Q1852.54 54.509 1852.54 60.0587 Q1852.54 66.3781 1847.52 70.0644 Q1842.53 73.7508 1833.79 73.7508 Q1830.14 73.7508 1826.17 73.0216 Q1822.24 72.3329 1817.86 70.9151 L1817.86 63.2184 Q1822 65.3654 1826.01 66.4591 Q1830.02 67.5124 1833.95 67.5124 Q1839.21 67.5124 1842.05 65.73 Q1844.88 63.9071 1844.88 60.6258 Q1844.88 57.5877 1842.82 55.9673 Q1840.79 54.3469 1833.87 52.8481 L1831.27 52.2405 Q1824.35 50.7821 1821.27 47.7845 Q1818.19 44.7463 1818.19 39.4801 Q1818.19 33.0797 1822.73 29.5959 Q1827.26 26.1121 1835.61 26.1121 Q1839.74 26.1121 1843.39 26.7198 Q1847.03 27.3274 1850.11 28.5427 Z" fill="#000000" fill-rule="nonzero" fill-opacity="1" /><path clip-path="url(#clip550)" d="M1871.62 65.7705 L1871.62 89.8329 L1864.13 89.8329 L1864.13 27.2059 L1871.62 27.2059 L1871.62 34.0924 Q1873.97 30.0415 1877.53 28.0971 Q1881.14 26.1121 1886.12 26.1121 Q1894.39 26.1121 1899.53 32.6746 Q1904.72 39.2371 1904.72 49.9314 Q1904.72 60.6258 1899.53 67.1883 Q1894.39 73.7508 1886.12 73.7508 Q1881.14 73.7508 1877.53 71.8063 Q1873.97 69.8214 1871.62 65.7705 M1896.98 49.9314 Q1896.98 41.7081 1893.58 37.0496 Q1890.21 32.3505 1884.3 32.3505 Q1878.39 32.3505 1874.98 37.0496 Q1871.62 41.7081 1871.62 49.9314 Q1871.62 58.1548 1874.98 62.8538 Q1878.39 67.5124 1884.3 67.5124 Q1890.21 67.5124 1893.58 62.8538 Q1896.98 58.1548 1896.98 49.9314 Z" fill="#000000" fill-rule="nonzero" fill-opacity="1" /><path clip-path="url(#clip550)" d="M1934.65 32.4315 Q1928.66 32.4315 1925.17 37.1306 Q1921.69 41.7891 1921.69 49.9314 Q1921.69 58.0738 1925.13 62.7728 Q1928.62 67.4314 1934.65 67.4314 Q1940.61 67.4314 1944.09 62.7323 Q1947.57 58.0333 1947.57 49.9314 Q1947.57 41.8701 1944.09 37.1711 Q1940.61 32.4315 1934.65 32.4315 M1934.65 26.1121 Q1944.37 26.1121 1949.92 32.4315 Q1955.47 38.7509 1955.47 49.9314 Q1955.47 61.0714 1949.92 67.4314 Q1944.37 73.7508 1934.65 73.7508 Q1924.89 73.7508 1919.34 67.4314 Q1913.83 61.0714 1913.83 49.9314 Q1913.83 38.7509 1919.34 32.4315 Q1924.89 26.1121 1934.65 26.1121 Z" fill="#000000" fill-rule="nonzero" fill-opacity="1" /><path clip-path="url(#clip550)" d="M2005.54 45.1919 L2005.54 72.576 L1998.09 72.576 L1998.09 45.4349 Q1998.09 38.994 1995.58 35.7938 Q1993.07 32.5936 1988.04 32.5936 Q1982.01 32.5936 1978.52 36.4419 Q1975.04 40.2903 1975.04 46.9338 L1975.04 72.576 L1967.55 72.576 L1967.55 27.2059 L1975.04 27.2059 L1975.04 34.2544 Q1977.71 30.163 1981.32 28.1376 Q1984.96 26.1121 1989.7 26.1121 Q1997.52 26.1121 2001.53 30.9732 Q2005.54 35.7938 2005.54 45.1919 Z" fill="#000000" fill-rule="nonzero" fill-opacity="1" /><path clip-path="url(#clip550)" d="M2049.33 28.5427 L2049.33 35.5912 Q2046.17 33.9709 2042.77 33.1607 Q2039.37 32.3505 2035.72 32.3505 Q2030.17 32.3505 2027.38 34.0519 Q2024.62 35.7533 2024.62 39.156 Q2024.62 41.7486 2026.61 43.2475 Q2028.59 44.7058 2034.59 46.0426 L2037.14 46.6097 Q2045.08 48.3111 2048.4 51.4303 Q2051.76 54.509 2051.76 60.0587 Q2051.76 66.3781 2046.74 70.0644 Q2041.76 73.7508 2033.01 73.7508 Q2029.36 73.7508 2025.39 73.0216 Q2021.46 72.3329 2017.09 70.9151 L2017.09 63.2184 Q2021.22 65.3654 2025.23 66.4591 Q2029.24 67.5124 2033.17 67.5124 Q2038.44 67.5124 2041.27 65.73 Q2044.11 63.9071 2044.11 60.6258 Q2044.11 57.5877 2042.04 55.9673 Q2040.02 54.3469 2033.09 52.8481 L2030.5 52.2405 Q2023.57 50.7821 2020.49 47.7845 Q2017.41 44.7463 2017.41 39.4801 Q2017.41 33.0797 2021.95 29.5959 Q2026.49 26.1121 2034.83 26.1121 Q2038.96 26.1121 2042.61 26.7198 Q2046.25 27.3274 2049.33 28.5427 Z" fill="#000000" fill-rule="nonzero" fill-opacity="1" /><path clip-path="url(#clip550)" d="M2102.44 48.0275 L2102.44 51.6733 L2068.17 51.6733 Q2068.66 59.3701 2072.79 63.421 Q2076.96 67.4314 2084.37 67.4314 Q2088.67 67.4314 2092.68 66.3781 Q2096.73 65.3249 2100.7 63.2184 L2100.7 70.267 Q2096.69 71.9684 2092.48 72.8596 Q2088.26 73.7508 2083.93 73.7508 Q2073.07 73.7508 2066.71 67.4314 Q2060.39 61.1119 2060.39 50.3365 Q2060.39 39.1965 2066.39 32.6746 Q2072.42 26.1121 2082.63 26.1121 Q2091.79 26.1121 2097.09 32.0264 Q2102.44 37.9003 2102.44 48.0275 M2094.99 45.84 Q2094.91 39.7232 2091.54 36.0774 Q2088.22 32.4315 2082.71 32.4315 Q2076.47 32.4315 2072.71 35.9558 Q2068.98 39.4801 2068.41 45.8805 L2094.99 45.84 Z" fill="#000000" fill-rule="nonzero" fill-opacity="1" /><polyline clip-path="url(#clip552)" style="stroke:#009af9; stroke-linecap:round; stroke-linejoin:round; stroke-width:12; stroke-opacity:1; fill:none" points="301.869,160.256 305.852,163.075 309.834,171.504 313.816,185.53 317.798,205.175 321.781,230.496 325.763,261.587 329.745,298.58 333.728,341.647 337.71,391 341.692,446.868 345.675,509.47 349.657,578.913 353.639,655.003 357.621,736.884 361.604,822.53 365.586,908.424 369.568,990.169 373.551,1064.11 377.533,1128.55 381.515,1183.48 385.498,1229.76 389.48,1268.44 393.462,1300.45 397.445,1326.57 401.427,1347.42 405.409,1363.47 409.391,1375.1 413.374,1382.64 417.356,1386.33 421.338,1386.4 425.321,1383.05 429.303,1376.47 433.285,1366.86 437.268,1354.43 441.25,1339.39 445.232,1321.99 449.214,1302.52 453.197,1281.29 457.179,1258.67 461.161,1235.06 465.144,1210.89 469.126,1186.59 473.108,1162.62 477.091,1139.37 481.073,1117.22 485.055,1096.46 489.038,1077.3 493.02,1059.91 497.002,1044.35 500.984,1030.64 504.967,1018.75 508.949,1008.62 512.931,1000.15 516.914,993.24 520.896,987.757 524.878,983.579 528.861,980.577 532.843,978.62 536.825,977.582 540.807,977.341 544.79,977.779 548.772,978.784 552.754,980.252 556.737,982.087 560.719,984.198 564.701,986.505 568.684,988.936 572.666,991.426 576.648,993.92 580.631,996.369 584.613,998.734 588.595,1000.98 592.577,1003.09 596.56,1005.03 600.542,1006.79 604.524,1008.37 608.507,1009.76 612.489,1010.96 616.471,1011.97 620.454,1012.8 624.436,1013.45 628.418,1013.95 632.4,1014.29 636.383,1014.5 640.365,1014.58 644.347,1014.55 648.33,1014.42 652.312,1014.21 656.294,1013.92 660.277,1013.58 664.259,1013.2 668.241,1012.78 672.224,1012.34 676.206,1011.88 680.188,1011.42 684.17,1010.96 688.153,1010.51 692.135,1010.07 696.117,1009.65 700.1,1009.25 704.082,1008.88 708.064,1008.54 712.047,1008.23 716.029,1007.94 720.011,1007.69 723.993,1007.47 727.976,1007.28 731.958,1007.12 735.94,1006.98 739.923,1006.87 743.905,1006.79 747.887,1006.73 751.87,1006.69 755.852,1006.67 759.834,1006.67 763.817,1006.69 767.799,1006.71 771.781,1006.75 775.763,1006.8 779.746,1006.86 783.728,1006.92 787.71,1006.99 791.693,1007.06 795.675,1007.14 799.657,1007.21 803.64,1007.29 807.622,1007.37 811.604,1007.45 815.586,1007.52 819.569,1007.6 823.551,1007.67 827.533,1007.74 831.516,1007.8 835.498,1007.87 839.48,1007.93 843.463,1007.99 847.445,1008.04 851.427,1008.09 855.41,1008.14 859.392,1008.19 863.374,1008.24 867.356,1008.28 871.339,1008.32 875.321,1008.36 879.303,1008.39 883.286,1008.43 887.268,1008.46 891.25,1008.49 895.233,1008.52 899.215,1008.56 903.197,1008.58 907.179,1008.61 911.162,1008.64 915.144,1008.67 919.126,1008.7 923.109,1008.72 927.091,1008.75 931.073,1008.78 935.056,1008.8 939.038,1008.83 943.02,1008.86 947.003,1008.88 950.985,1008.91 954.967,1008.94 958.949,1008.96 962.932,1008.99 966.914,1009.01 970.896,1009.04 974.879,1009.06 978.861,1009.09 982.843,1009.11 986.826,1009.14 990.808,1009.16 994.79,1009.19 998.772,1009.21 1002.75,1009.23 1006.74,1009.26 1010.72,1009.28 1014.7,1009.3 1018.68,1009.33 1022.67,1009.35 1026.65,1009.37 1030.63,1009.39 1034.61,1009.41 1038.6,1009.43 1042.58,1009.45 1046.56,1009.47 1050.54,1009.49 1054.52,1009.51 1058.51,1009.53 1062.49,1009.54 1066.47,1009.56 1070.45,1009.58 1074.44,1009.59 1078.42,1009.61 1082.4,1009.63 1086.38,1009.64 1090.37,1009.66 1094.35,1009.67 1098.33,1009.69 1102.31,1009.7 1106.29,1009.71 1110.28,1009.73 1114.26,1009.74 1118.24,1009.75 1122.22,1009.76 1126.21,1009.78 1130.19,1009.79 1134.17,1009.8 1138.15,1009.81 1142.14,1009.82 1146.12,1009.83 1150.1,1009.84 1154.08,1009.85 1158.06,1009.86 1162.05,1009.87 1166.03,1009.88 1170.01,1009.89 1173.99,1009.9 1177.98,1009.91 1181.96,1009.92 1185.94,1009.93 1189.92,1009.94 1193.91,1009.95 1197.89,1009.95 1201.87,1009.96 1205.85,1009.97 1209.83,1009.98 1213.82,1009.98 1217.8,1009.99 1221.78,1010 1225.76,1010.01 1229.75,1010.01 1233.73,1010.02 1237.71,1010.02 1241.69,1010.03 1245.68,1010.04 1249.66,1010.04 1253.64,1010.05 1257.62,1010.05 1261.6,1010.06 1265.59,1010.07 1269.57,1010.07 1273.55,1010.08 1277.53,1010.08 1281.52,1010.09 1285.5,1010.09 1289.48,1010.1 1293.46,1010.1 1297.45,1010.1 1301.43,1010.11 1305.41,1010.11 1309.39,1010.12 1313.37,1010.12 1317.36,1010.12 1321.34,1010.13 1325.32,1010.13 1329.3,1010.14 1333.29,1010.14 1337.27,1010.14 1341.25,1010.15 1345.23,1010.15 1349.22,1010.15 1353.2,1010.16 1357.18,1010.16 1361.16,1010.16 1365.14,1010.17 1369.13,1010.17 1373.11,1010.17 1377.09,1010.17 1381.07,1010.18 1385.06,1010.18 1389.04,1010.18 1393.02,1010.18 1397,1010.19 1400.99,1010.19 1404.97,1010.19 1408.95,1010.19 1412.93,1010.2 1416.91,1010.2 1420.9,1010.2 1424.88,1010.2 1428.86,1010.2 1432.84,1010.21 1436.83,1010.21 1440.81,1010.21 1444.79,1010.21 1448.77,1010.21 1452.76,1010.21 1456.74,1010.22 1460.72,1010.22 1464.7,1010.22 1468.68,1010.22 1472.67,1010.22 1476.65,1010.22 1480.63,1010.23 1484.61,1010.23 1488.6,1010.23 1492.58,1010.23 1496.56,1010.23 1500.54,1010.23 1504.53,1010.23 1508.51,1010.23 1512.49,1010.24 1516.47,1010.24 1520.45,1010.24 1524.44,1010.24 1528.42,1010.24 1532.4,1010.24 1536.38,1010.24 1540.37,1010.24 1544.35,1010.24 1548.33,1010.24 1552.31,1010.25 1556.3,1010.25 1560.28,1010.25 1564.26,1010.25 1568.24,1010.25 1572.22,1010.25 1576.21,1010.25 1580.19,1010.25 1584.17,1010.25 1588.15,1010.25 1592.14,1010.25 1596.12,1010.25 1600.1,1010.25 1604.08,1010.26 1608.07,1010.26 1612.05,1010.26 1616.03,1010.26 1620.01,1010.26 1623.99,1010.26 1627.98,1010.26 1631.96,1010.26 1635.94,1010.26 1639.92,1010.26 1643.91,1010.26 1647.89,1010.26 1651.87,1010.26 1655.85,1010.26 1659.83,1010.26 1663.82,1010.26 1667.8,1010.26 1671.78,1010.26 1675.76,1010.26 1679.75,1010.27 1683.73,1010.27 1687.71,1010.27 1691.69,1010.27 1695.68,1010.27 1699.66,1010.27 1703.64,1010.27 1707.62,1010.27 1711.6,1010.27 1715.59,1010.27 1719.57,1010.27 1723.55,1010.27 1727.53,1010.27 1731.52,1010.27 1735.5,1010.27 1739.48,1010.27 1743.46,1010.27 1747.45,1010.27 1751.43,1010.27 1755.41,1010.27 1759.39,1010.27 1763.37,1010.27 1767.36,1010.27 1771.34,1010.27 1775.32,1010.27 1779.3,1010.27 1783.29,1010.27 1787.27,1010.27 1791.25,1010.27 1795.23,1010.27 1799.22,1010.27 1803.2,1010.27 1807.18,1010.27 1811.16,1010.27 1815.14,1010.27 1819.13,1010.27 1823.11,1010.27 1827.09,1010.27 1831.07,1010.28 1835.06,1010.28 1839.04,1010.28 1843.02,1010.28 1847,1010.28 1850.99,1010.28 1854.97,1010.28 1858.95,1010.28 1862.93,1010.28 1866.91,1010.28 1870.9,1010.28 1874.88,1010.28 1878.86,1010.28 1882.84,1010.28 1886.83,1010.28 1890.81,1010.28 1894.79,1010.28 1898.77,1010.28 1902.76,1010.28 1906.74,1010.28 1910.72,1010.28 1914.7,1010.28 1918.68,1010.28 1922.67,1010.28 1926.65,1010.28 1930.63,1010.28 1934.61,1010.28 1938.6,1010.28 1942.58,1010.28 1946.56,1010.28 1950.54,1010.28 1954.53,1010.28 1958.51,1010.28 1962.49,1010.28 1966.47,1010.28 1970.45,1010.28 1974.44,1010.28 1978.42,1010.28 1982.4,1010.28 1986.38,1010.28 1990.37,1010.28 1994.35,1010.28 1998.33,1010.28 2002.31,1010.28 2006.3,1010.28 2010.28,1010.28 2014.26,1010.28 2018.24,1010.28 2022.22,1010.28 2026.21,1010.28 2030.19,1010.28 2034.17,1010.28 2038.15,1010.28 2042.14,1010.28 2046.12,1010.28 2050.1,1010.28 2054.08,1010.28 2058.07,1010.28 2062.05,1010.28 2066.03,1010.28 2070.01,1010.28 2073.99,1010.28 2077.98,1010.28 2081.96,1010.28 2085.94,1010.28 2089.92,1010.28 2093.91,1010.28 2097.89,1010.28 2101.87,1010.28 2105.85,1010.28 2109.84,1010.28 2113.82,1010.28 2117.8,1010.28 2121.78,1010.28 2125.76,1010.28 2129.75,1010.28 2133.73,1010.28 2137.71,1010.28 2141.69,1010.28 2145.68,1010.28 2149.66,1010.28 2153.64,1010.28 2157.62,1010.28 2161.61,1010.28 2165.59,1010.28 2169.57,1010.28 2173.55,1010.28 2177.53,1010.28 2181.52,1010.28 2185.5,1010.28 2189.48,1010.28 2193.46,1010.28 2197.45,1010.28 2201.43,1010.28 2205.41,1010.28 2209.39,1010.28 2213.38,1010.28 2217.36,1010.28 2221.34,1010.28 2225.32,1010.28 2229.3,1010.28 2233.29,1010.28 2237.27,1010.28 2241.25,1010.28 2245.23,1010.28 2249.22,1010.28 2253.2,1010.28 2257.18,1010.28 2261.16,1010.28 2265.15,1010.28 2269.13,1010.28 2273.11,1010.28 2277.09,1010.28 2281.07,1010.28 2285.06,1010.28 2289.04,1010.28 2293.02,1010.28 "/>
<path clip-path="url(#clip550)" d="M1670.53 270.476 L2282.4 270.476 L2282.4 166.796 L1670.53 166.796  Z" fill="#ffffff" fill-rule="evenodd" fill-opacity="1"/>
<polyline clip-path="url(#clip550)" style="stroke:#000000; stroke-linecap:round; stroke-linejoin:round; stroke-width:4; stroke-opacity:1; fill:none" points="1670.53,270.476 2282.4,270.476 2282.4,166.796 1670.53,166.796 1670.53,270.476 "/>
<polyline clip-path="url(#clip550)" style="stroke:#009af9; stroke-linecap:round; stroke-linejoin:round; stroke-width:12; stroke-opacity:1; fill:none" points="1693.98,218.636 1834.69,218.636 "/>
<path clip-path="url(#clip550)" d="M1858.14 199.897 L1862.42 199.897 L1862.42 221.17 L1875.13 209.99 L1880.57 209.99 L1866.82 222.119 L1881.15 235.916 L1875.6 235.916 L1862.42 223.254 L1862.42 235.916 L1858.14 235.916 L1858.14 199.897 Z" fill="#000000" fill-rule="nonzero" fill-opacity="1" /><path clip-path="url(#clip550)" d="M1901.38 214.388 L1931.06 214.388 L1931.06 218.277 L1901.38 218.277 L1901.38 214.388 M1901.38 223.832 L1931.06 223.832 L1931.06 227.768 L1901.38 227.768 L1901.38 223.832 Z" fill="#000000" fill-rule="nonzero" fill-opacity="1" /><path clip-path="url(#clip550)" d="M1966.22 204.434 Q1962.61 204.434 1960.78 207.999 Q1958.98 211.541 1958.98 218.67 Q1958.98 225.777 1960.78 229.342 Q1962.61 232.883 1966.22 232.883 Q1969.85 232.883 1971.66 229.342 Q1973.49 225.777 1973.49 218.67 Q1973.49 211.541 1971.66 207.999 Q1969.85 204.434 1966.22 204.434 M1966.22 200.731 Q1972.03 200.731 1975.09 205.337 Q1978.16 209.92 1978.16 218.67 Q1978.16 227.397 1975.09 232.004 Q1972.03 236.587 1966.22 236.587 Q1960.41 236.587 1957.33 232.004 Q1954.28 227.397 1954.28 218.67 Q1954.28 209.92 1957.33 205.337 Q1960.41 200.731 1966.22 200.731 Z" fill="#000000" fill-rule="nonzero" fill-opacity="1" /><path clip-path="url(#clip550)" d="M1986.38 230.036 L1991.27 230.036 L1991.27 235.916 L1986.38 235.916 L1986.38 230.036 Z" fill="#000000" fill-rule="nonzero" fill-opacity="1" /><path clip-path="url(#clip550)" d="M2005.48 231.981 L2021.8 231.981 L2021.8 235.916 L1999.85 235.916 L1999.85 231.981 Q2002.52 229.226 2007.1 224.596 Q2011.71 219.944 2012.89 218.601 Q2015.13 216.078 2016.01 214.342 Q2016.91 212.583 2016.91 210.893 Q2016.91 208.138 2014.97 206.402 Q2013.05 204.666 2009.95 204.666 Q2007.75 204.666 2005.29 205.43 Q2002.86 206.194 2000.09 207.745 L2000.09 203.022 Q2002.91 201.888 2005.36 201.309 Q2007.82 200.731 2009.85 200.731 Q2015.22 200.731 2018.42 203.416 Q2021.61 206.101 2021.61 210.592 Q2021.61 212.721 2020.8 214.643 Q2020.02 216.541 2017.91 219.133 Q2017.33 219.805 2014.23 223.022 Q2011.13 226.217 2005.48 231.981 Z" fill="#000000" fill-rule="nonzero" fill-opacity="1" /><path clip-path="url(#clip550)" d="M2032.1 230.036 L2036.98 230.036 L2036.98 234.018 L2033.19 241.425 L2030.2 241.425 L2032.1 234.018 L2032.1 230.036 Z" fill="#000000" fill-rule="nonzero" fill-opacity="1" /><path clip-path="url(#clip550)" d="M2079.76 222.976 Q2079.76 218.277 2077.82 215.615 Q2075.9 212.93 2072.52 212.93 Q2069.14 212.93 2067.19 215.615 Q2065.27 218.277 2065.27 222.976 Q2065.27 227.675 2067.19 230.36 Q2069.14 233.022 2072.52 233.022 Q2075.9 233.022 2077.82 230.36 Q2079.76 227.675 2079.76 222.976 M2065.27 213.925 Q2066.61 211.61 2068.65 210.499 Q2070.71 209.365 2073.56 209.365 Q2078.28 209.365 2081.22 213.115 Q2084.18 216.865 2084.18 222.976 Q2084.18 229.087 2081.22 232.837 Q2078.28 236.587 2073.56 236.587 Q2070.71 236.587 2068.65 235.476 Q2066.61 234.342 2065.27 232.027 L2065.27 235.916 L2060.99 235.916 L2060.99 199.897 L2065.27 199.897 L2065.27 213.925 Z" fill="#000000" fill-rule="nonzero" fill-opacity="1" /><path clip-path="url(#clip550)" d="M2106.87 214.388 L2136.54 214.388 L2136.54 218.277 L2106.87 218.277 L2106.87 214.388 M2106.87 223.832 L2136.54 223.832 L2136.54 227.768 L2106.87 227.768 L2106.87 223.832 Z" fill="#000000" fill-rule="nonzero" fill-opacity="1" /><path clip-path="url(#clip550)" d="M2171.71 204.434 Q2168.09 204.434 2166.27 207.999 Q2164.46 211.541 2164.46 218.67 Q2164.46 225.777 2166.27 229.342 Q2168.09 232.883 2171.71 232.883 Q2175.34 232.883 2177.15 229.342 Q2178.97 225.777 2178.97 218.67 Q2178.97 211.541 2177.15 207.999 Q2175.34 204.434 2171.71 204.434 M2171.71 200.731 Q2177.52 200.731 2180.57 205.337 Q2183.65 209.92 2183.65 218.67 Q2183.65 227.397 2180.57 232.004 Q2177.52 236.587 2171.71 236.587 Q2165.9 236.587 2162.82 232.004 Q2159.76 227.397 2159.76 218.67 Q2159.76 209.92 2162.82 205.337 Q2165.9 200.731 2171.71 200.731 Z" fill="#000000" fill-rule="nonzero" fill-opacity="1" /><path clip-path="url(#clip550)" d="M2191.87 230.036 L2196.75 230.036 L2196.75 235.916 L2191.87 235.916 L2191.87 230.036 Z" fill="#000000" fill-rule="nonzero" fill-opacity="1" /><path clip-path="url(#clip550)" d="M2210.96 231.981 L2227.28 231.981 L2227.28 235.916 L2205.34 235.916 L2205.34 231.981 Q2208 229.226 2212.59 224.596 Q2217.19 219.944 2218.37 218.601 Q2220.62 216.078 2221.5 214.342 Q2222.4 212.583 2222.4 210.893 Q2222.4 208.138 2220.46 206.402 Q2218.53 204.666 2215.43 204.666 Q2213.23 204.666 2210.78 205.43 Q2208.35 206.194 2205.57 207.745 L2205.57 203.022 Q2208.4 201.888 2210.85 201.309 Q2213.3 200.731 2215.34 200.731 Q2220.71 200.731 2223.9 203.416 Q2227.1 206.101 2227.1 210.592 Q2227.1 212.721 2226.29 214.643 Q2225.5 216.541 2223.4 219.133 Q2222.82 219.805 2219.71 223.022 Q2216.61 226.217 2210.96 231.981 Z" fill="#000000" fill-rule="nonzero" fill-opacity="1" /><path clip-path="url(#clip550)" d="M2247.1 219.504 Q2243.77 219.504 2241.84 221.286 Q2239.95 223.069 2239.95 226.194 Q2239.95 229.319 2241.84 231.101 Q2243.77 232.883 2247.1 232.883 Q2250.43 232.883 2252.35 231.101 Q2254.27 229.295 2254.27 226.194 Q2254.27 223.069 2252.35 221.286 Q2250.46 219.504 2247.1 219.504 M2242.42 217.513 Q2239.41 216.772 2237.72 214.712 Q2236.06 212.652 2236.06 209.689 Q2236.06 205.546 2239 203.138 Q2241.96 200.731 2247.1 200.731 Q2252.26 200.731 2255.2 203.138 Q2258.14 205.546 2258.14 209.689 Q2258.14 212.652 2256.45 214.712 Q2254.78 216.772 2251.8 217.513 Q2255.18 218.3 2257.05 220.592 Q2258.95 222.883 2258.95 226.194 Q2258.95 231.217 2255.87 233.902 Q2252.82 236.587 2247.1 236.587 Q2241.38 236.587 2238.3 233.902 Q2235.25 231.217 2235.25 226.194 Q2235.25 222.883 2237.15 220.592 Q2239.04 218.3 2242.42 217.513 M2240.71 210.129 Q2240.71 212.814 2242.38 214.319 Q2244.07 215.823 2247.1 215.823 Q2250.11 215.823 2251.8 214.319 Q2253.51 212.814 2253.51 210.129 Q2253.51 207.444 2251.8 205.939 Q2250.11 204.434 2247.1 204.434 Q2244.07 204.434 2242.38 205.939 Q2240.71 207.444 2240.71 210.129 Z" fill="#000000" fill-rule="nonzero" fill-opacity="1" /></svg>
