<?xml version="1.0" encoding="utf-8"?>
<svg xmlns="http://www.w3.org/2000/svg" xmlns:xlink="http://www.w3.org/1999/xlink" width="600" height="400" viewBox="0 0 2400 1600">
<defs>
  <clipPath id="clip600">
    <rect x="0" y="0" width="2400" height="1600"/>
  </clipPath>
</defs>
<path clip-path="url(#clip600)" d="M0 1600 L2400 1600 L2400 0 L0 0  Z" fill="#ffffff" fill-rule="evenodd" fill-opacity="1"/>
<defs>
  <clipPath id="clip601">
    <rect x="242" y="123" width="2112" height="1301"/>
  </clipPath>
</defs>
<path clip-path="url(#clip600)" d="M255.977 1423.18 L2352.76 1423.18 L2352.76 123.472 L255.977 123.472  Z" fill="#ffffff" fill-rule="evenodd" fill-opacity="1"/>
<defs>
  <clipPath id="clip602">
    <rect x="255" y="123" width="2098" height="1301"/>
  </clipPath>
</defs>
<polyline clip-path="url(#clip602)" style="stroke:#000000; stroke-linecap:round; stroke-linejoin:round; stroke-width:2; stroke-opacity:0.1; fill:none" points="315.32,1423.18 315.32,123.472 "/>
<polyline clip-path="url(#clip602)" style="stroke:#000000; stroke-linecap:round; stroke-linejoin:round; stroke-width:2; stroke-opacity:0.1; fill:none" points="809.843,1423.18 809.843,123.472 "/>
<polyline clip-path="url(#clip602)" style="stroke:#000000; stroke-linecap:round; stroke-linejoin:round; stroke-width:2; stroke-opacity:0.1; fill:none" points="1304.37,1423.18 1304.37,123.472 "/>
<polyline clip-path="url(#clip602)" style="stroke:#000000; stroke-linecap:round; stroke-linejoin:round; stroke-width:2; stroke-opacity:0.1; fill:none" points="1798.89,1423.18 1798.89,123.472 "/>
<polyline clip-path="url(#clip602)" style="stroke:#000000; stroke-linecap:round; stroke-linejoin:round; stroke-width:2; stroke-opacity:0.1; fill:none" points="2293.41,1423.18 2293.41,123.472 "/>
<polyline clip-path="url(#clip602)" style="stroke:#000000; stroke-linecap:round; stroke-linejoin:round; stroke-width:2; stroke-opacity:0.1; fill:none" points="255.977,1326.66 2352.76,1326.66 "/>
<polyline clip-path="url(#clip602)" style="stroke:#000000; stroke-linecap:round; stroke-linejoin:round; stroke-width:2; stroke-opacity:0.1; fill:none" points="255.977,1062.44 2352.76,1062.44 "/>
<polyline clip-path="url(#clip602)" style="stroke:#000000; stroke-linecap:round; stroke-linejoin:round; stroke-width:2; stroke-opacity:0.1; fill:none" points="255.977,798.22 2352.76,798.22 "/>
<polyline clip-path="url(#clip602)" style="stroke:#000000; stroke-linecap:round; stroke-linejoin:round; stroke-width:2; stroke-opacity:0.1; fill:none" points="255.977,534.002 2352.76,534.002 "/>
<polyline clip-path="url(#clip602)" style="stroke:#000000; stroke-linecap:round; stroke-linejoin:round; stroke-width:2; stroke-opacity:0.1; fill:none" points="255.977,269.785 2352.76,269.785 "/>
<polyline clip-path="url(#clip600)" style="stroke:#000000; stroke-linecap:round; stroke-linejoin:round; stroke-width:4; stroke-opacity:1; fill:none" points="255.977,1423.18 2352.76,1423.18 "/>
<polyline clip-path="url(#clip600)" style="stroke:#000000; stroke-linecap:round; stroke-linejoin:round; stroke-width:4; stroke-opacity:1; fill:none" points="315.32,1423.18 315.32,1404.28 "/>
<polyline clip-path="url(#clip600)" style="stroke:#000000; stroke-linecap:round; stroke-linejoin:round; stroke-width:4; stroke-opacity:1; fill:none" points="809.843,1423.18 809.843,1404.28 "/>
<polyline clip-path="url(#clip600)" style="stroke:#000000; stroke-linecap:round; stroke-linejoin:round; stroke-width:4; stroke-opacity:1; fill:none" points="1304.37,1423.18 1304.37,1404.28 "/>
<polyline clip-path="url(#clip600)" style="stroke:#000000; stroke-linecap:round; stroke-linejoin:round; stroke-width:4; stroke-opacity:1; fill:none" points="1798.89,1423.18 1798.89,1404.28 "/>
<polyline clip-path="url(#clip600)" style="stroke:#000000; stroke-linecap:round; stroke-linejoin:round; stroke-width:4; stroke-opacity:1; fill:none" points="2293.41,1423.18 2293.41,1404.28 "/>
<path clip-path="url(#clip600)" d="M292.704 1454.1 Q289.093 1454.1 287.265 1457.66 Q285.459 1461.2 285.459 1468.33 Q285.459 1475.44 287.265 1479.01 Q289.093 1482.55 292.704 1482.55 Q296.339 1482.55 298.144 1479.01 Q299.973 1475.44 299.973 1468.33 Q299.973 1461.2 298.144 1457.66 Q296.339 1454.1 292.704 1454.1 M292.704 1450.39 Q298.515 1450.39 301.57 1455 Q304.649 1459.58 304.649 1468.33 Q304.649 1477.06 301.57 1481.67 Q298.515 1486.25 292.704 1486.25 Q286.894 1486.25 283.816 1481.67 Q280.76 1477.06 280.76 1468.33 Q280.76 1459.58 283.816 1455 Q286.894 1450.39 292.704 1450.39 Z" fill="#000000" fill-rule="nonzero" fill-opacity="1" /><path clip-path="url(#clip600)" d="M312.866 1479.7 L317.751 1479.7 L317.751 1485.58 L312.866 1485.58 L312.866 1479.7 Z" fill="#000000" fill-rule="nonzero" fill-opacity="1" /><path clip-path="url(#clip600)" d="M337.936 1454.1 Q334.325 1454.1 332.496 1457.66 Q330.69 1461.2 330.69 1468.33 Q330.69 1475.44 332.496 1479.01 Q334.325 1482.55 337.936 1482.55 Q341.57 1482.55 343.375 1479.01 Q345.204 1475.44 345.204 1468.33 Q345.204 1461.2 343.375 1457.66 Q341.57 1454.1 337.936 1454.1 M337.936 1450.39 Q343.746 1450.39 346.801 1455 Q349.88 1459.58 349.88 1468.33 Q349.88 1477.06 346.801 1481.67 Q343.746 1486.25 337.936 1486.25 Q332.125 1486.25 329.047 1481.67 Q325.991 1477.06 325.991 1468.33 Q325.991 1459.58 329.047 1455 Q332.125 1450.39 337.936 1450.39 Z" fill="#000000" fill-rule="nonzero" fill-opacity="1" /><path clip-path="url(#clip600)" d="M781.58 1481.64 L797.899 1481.64 L797.899 1485.58 L775.955 1485.58 L775.955 1481.64 Q778.617 1478.89 783.2 1474.26 Q787.806 1469.61 788.987 1468.27 Q791.232 1465.74 792.112 1464.01 Q793.015 1462.25 793.015 1460.56 Q793.015 1457.8 791.07 1456.07 Q789.149 1454.33 786.047 1454.33 Q783.848 1454.33 781.394 1455.09 Q778.964 1455.86 776.186 1457.41 L776.186 1452.69 Q779.01 1451.55 781.464 1450.97 Q783.917 1450.39 785.955 1450.39 Q791.325 1450.39 794.519 1453.08 Q797.714 1455.77 797.714 1460.26 Q797.714 1462.39 796.904 1464.31 Q796.116 1466.2 794.01 1468.8 Q793.431 1469.47 790.329 1472.69 Q787.228 1475.88 781.58 1481.64 Z" fill="#000000" fill-rule="nonzero" fill-opacity="1" /><path clip-path="url(#clip600)" d="M807.714 1479.7 L812.598 1479.7 L812.598 1485.58 L807.714 1485.58 L807.714 1479.7 Z" fill="#000000" fill-rule="nonzero" fill-opacity="1" /><path clip-path="url(#clip600)" d="M822.829 1451.02 L841.186 1451.02 L841.186 1454.96 L827.112 1454.96 L827.112 1463.43 Q828.13 1463.08 829.149 1462.92 Q830.167 1462.73 831.186 1462.73 Q836.973 1462.73 840.352 1465.9 Q843.732 1469.08 843.732 1474.49 Q843.732 1480.07 840.26 1483.17 Q836.788 1486.25 830.468 1486.25 Q828.292 1486.25 826.024 1485.88 Q823.778 1485.51 821.371 1484.77 L821.371 1480.07 Q823.454 1481.2 825.677 1481.76 Q827.899 1482.32 830.376 1482.32 Q834.38 1482.32 836.718 1480.21 Q839.056 1478.1 839.056 1474.49 Q839.056 1470.88 836.718 1468.77 Q834.38 1466.67 830.376 1466.67 Q828.501 1466.67 826.626 1467.08 Q824.774 1467.5 822.829 1468.38 L822.829 1451.02 Z" fill="#000000" fill-rule="nonzero" fill-opacity="1" /><path clip-path="url(#clip600)" d="M1271.53 1451.02 L1289.89 1451.02 L1289.89 1454.96 L1275.81 1454.96 L1275.81 1463.43 Q1276.83 1463.08 1277.85 1462.92 Q1278.87 1462.73 1279.89 1462.73 Q1285.67 1462.73 1289.05 1465.9 Q1292.43 1469.08 1292.43 1474.49 Q1292.43 1480.07 1288.96 1483.17 Q1285.49 1486.25 1279.17 1486.25 Q1276.99 1486.25 1274.73 1485.88 Q1272.48 1485.51 1270.07 1484.77 L1270.07 1480.07 Q1272.16 1481.2 1274.38 1481.76 Q1276.6 1482.32 1279.08 1482.32 Q1283.08 1482.32 1285.42 1480.21 Q1287.76 1478.1 1287.76 1474.49 Q1287.76 1470.88 1285.42 1468.77 Q1283.08 1466.67 1279.08 1466.67 Q1277.2 1466.67 1275.33 1467.08 Q1273.48 1467.5 1271.53 1468.38 L1271.53 1451.02 Z" fill="#000000" fill-rule="nonzero" fill-opacity="1" /><path clip-path="url(#clip600)" d="M1301.65 1479.7 L1306.53 1479.7 L1306.53 1485.58 L1301.65 1485.58 L1301.65 1479.7 Z" fill="#000000" fill-rule="nonzero" fill-opacity="1" /><path clip-path="url(#clip600)" d="M1326.72 1454.1 Q1323.1 1454.1 1321.28 1457.66 Q1319.47 1461.2 1319.47 1468.33 Q1319.47 1475.44 1321.28 1479.01 Q1323.1 1482.55 1326.72 1482.55 Q1330.35 1482.55 1332.16 1479.01 Q1333.98 1475.44 1333.98 1468.33 Q1333.98 1461.2 1332.16 1457.66 Q1330.35 1454.1 1326.72 1454.1 M1326.72 1450.39 Q1332.53 1450.39 1335.58 1455 Q1338.66 1459.58 1338.66 1468.33 Q1338.66 1477.06 1335.58 1481.67 Q1332.53 1486.25 1326.72 1486.25 Q1320.91 1486.25 1317.83 1481.67 Q1314.77 1477.06 1314.77 1468.33 Q1314.77 1459.58 1317.83 1455 Q1320.91 1450.39 1326.72 1450.39 Z" fill="#000000" fill-rule="nonzero" fill-opacity="1" /><path clip-path="url(#clip600)" d="M1765.21 1451.02 L1787.43 1451.02 L1787.43 1453.01 L1774.89 1485.58 L1770 1485.58 L1781.81 1454.96 L1765.21 1454.96 L1765.21 1451.02 Z" fill="#000000" fill-rule="nonzero" fill-opacity="1" /><path clip-path="url(#clip600)" d="M1796.55 1479.7 L1801.44 1479.7 L1801.44 1485.58 L1796.55 1485.58 L1796.55 1479.7 Z" fill="#000000" fill-rule="nonzero" fill-opacity="1" /><path clip-path="url(#clip600)" d="M1811.67 1451.02 L1830.02 1451.02 L1830.02 1454.96 L1815.95 1454.96 L1815.95 1463.43 Q1816.97 1463.08 1817.99 1462.92 Q1819.01 1462.73 1820.02 1462.73 Q1825.81 1462.73 1829.19 1465.9 Q1832.57 1469.08 1832.57 1474.49 Q1832.57 1480.07 1829.1 1483.17 Q1825.63 1486.25 1819.31 1486.25 Q1817.13 1486.25 1814.86 1485.88 Q1812.62 1485.51 1810.21 1484.77 L1810.21 1480.07 Q1812.29 1481.2 1814.51 1481.76 Q1816.74 1482.32 1819.21 1482.32 Q1823.22 1482.32 1825.56 1480.21 Q1827.89 1478.1 1827.89 1474.49 Q1827.89 1470.88 1825.56 1468.77 Q1823.22 1466.67 1819.21 1466.67 Q1817.34 1466.67 1815.46 1467.08 Q1813.61 1467.5 1811.67 1468.38 L1811.67 1451.02 Z" fill="#000000" fill-rule="nonzero" fill-opacity="1" /><path clip-path="url(#clip600)" d="M2245.49 1481.64 L2253.12 1481.64 L2253.12 1455.28 L2244.81 1456.95 L2244.81 1452.69 L2253.08 1451.02 L2257.75 1451.02 L2257.75 1481.64 L2265.39 1481.64 L2265.39 1485.58 L2245.49 1485.58 L2245.49 1481.64 Z" fill="#000000" fill-rule="nonzero" fill-opacity="1" /><path clip-path="url(#clip600)" d="M2284.84 1454.1 Q2281.23 1454.1 2279.4 1457.66 Q2277.59 1461.2 2277.59 1468.33 Q2277.59 1475.44 2279.4 1479.01 Q2281.23 1482.55 2284.84 1482.55 Q2288.47 1482.55 2290.28 1479.01 Q2292.11 1475.44 2292.11 1468.33 Q2292.11 1461.2 2290.28 1457.66 Q2288.47 1454.1 2284.84 1454.1 M2284.84 1450.39 Q2290.65 1450.39 2293.7 1455 Q2296.78 1459.58 2296.78 1468.33 Q2296.78 1477.06 2293.7 1481.67 Q2290.65 1486.25 2284.84 1486.25 Q2279.03 1486.25 2275.95 1481.67 Q2272.89 1477.06 2272.89 1468.33 Q2272.89 1459.58 2275.95 1455 Q2279.03 1450.39 2284.84 1450.39 Z" fill="#000000" fill-rule="nonzero" fill-opacity="1" /><path clip-path="url(#clip600)" d="M2305 1479.7 L2309.88 1479.7 L2309.88 1485.58 L2305 1485.58 L2305 1479.7 Z" fill="#000000" fill-rule="nonzero" fill-opacity="1" /><path clip-path="url(#clip600)" d="M2330.07 1454.1 Q2326.46 1454.1 2324.63 1457.66 Q2322.82 1461.2 2322.82 1468.33 Q2322.82 1475.44 2324.63 1479.01 Q2326.46 1482.55 2330.07 1482.55 Q2333.7 1482.55 2335.51 1479.01 Q2337.34 1475.44 2337.34 1468.33 Q2337.34 1461.2 2335.51 1457.66 Q2333.7 1454.1 2330.07 1454.1 M2330.07 1450.39 Q2335.88 1450.39 2338.93 1455 Q2342.01 1459.58 2342.01 1468.33 Q2342.01 1477.06 2338.93 1481.67 Q2335.88 1486.25 2330.07 1486.25 Q2324.26 1486.25 2321.18 1481.67 Q2318.12 1477.06 2318.12 1468.33 Q2318.12 1459.58 2321.18 1455 Q2324.26 1450.39 2330.07 1450.39 Z" fill="#000000" fill-rule="nonzero" fill-opacity="1" /><path clip-path="url(#clip600)" d="M1174.54 1520.52 L1214.74 1520.52 L1214.74 1525.93 L1197.87 1525.93 L1197.87 1568.04 L1191.41 1568.04 L1191.41 1525.93 L1174.54 1525.93 L1174.54 1520.52 Z" fill="#000000" fill-rule="nonzero" fill-opacity="1" /><path clip-path="url(#clip600)" d="M1218.68 1532.4 L1224.54 1532.4 L1224.54 1568.04 L1218.68 1568.04 L1218.68 1532.4 M1218.68 1518.52 L1224.54 1518.52 L1224.54 1525.93 L1218.68 1525.93 L1218.68 1518.52 Z" fill="#000000" fill-rule="nonzero" fill-opacity="1" /><path clip-path="url(#clip600)" d="M1264.55 1539.24 Q1266.75 1535.29 1269.8 1533.41 Q1272.86 1531.54 1276.99 1531.54 Q1282.56 1531.54 1285.59 1535.45 Q1288.61 1539.33 1288.61 1546.53 L1288.61 1568.04 L1282.72 1568.04 L1282.72 1546.72 Q1282.72 1541.59 1280.91 1539.11 Q1279.09 1536.63 1275.37 1536.63 Q1270.82 1536.63 1268.18 1539.65 Q1265.54 1542.68 1265.54 1547.9 L1265.54 1568.04 L1259.65 1568.04 L1259.65 1546.72 Q1259.65 1541.56 1257.83 1539.11 Q1256.02 1536.63 1252.23 1536.63 Q1247.74 1536.63 1245.1 1539.68 Q1242.46 1542.71 1242.46 1547.9 L1242.46 1568.04 L1236.57 1568.04 L1236.57 1532.4 L1242.46 1532.4 L1242.46 1537.93 Q1244.47 1534.66 1247.27 1533.1 Q1250.07 1531.54 1253.92 1531.54 Q1257.8 1531.54 1260.51 1533.51 Q1263.24 1535.48 1264.55 1539.24 Z" fill="#000000" fill-rule="nonzero" fill-opacity="1" /><path clip-path="url(#clip600)" d="M1330.78 1548.76 L1330.78 1551.62 L1303.86 1551.62 Q1304.24 1557.67 1307.49 1560.85 Q1310.76 1564 1316.59 1564 Q1319.96 1564 1323.11 1563.17 Q1326.3 1562.35 1329.42 1560.69 L1329.42 1566.23 Q1326.26 1567.57 1322.95 1568.27 Q1319.64 1568.97 1316.24 1568.97 Q1307.71 1568.97 1302.71 1564 Q1297.75 1559.04 1297.75 1550.57 Q1297.75 1541.82 1302.46 1536.69 Q1307.2 1531.54 1315.22 1531.54 Q1322.41 1531.54 1326.58 1536.18 Q1330.78 1540.8 1330.78 1548.76 M1324.93 1547.04 Q1324.86 1542.23 1322.22 1539.37 Q1319.61 1536.5 1315.28 1536.5 Q1310.38 1536.5 1307.42 1539.27 Q1304.49 1542.04 1304.05 1547.07 L1324.93 1547.04 Z" fill="#000000" fill-rule="nonzero" fill-opacity="1" /><path clip-path="url(#clip600)" d="M1375.19 1518.58 Q1370.92 1525.9 1368.85 1533.06 Q1366.78 1540.23 1366.78 1547.58 Q1366.78 1554.93 1368.85 1562.16 Q1370.95 1569.35 1375.19 1576.64 L1370.09 1576.64 Q1365.32 1569.16 1362.93 1561.93 Q1360.58 1554.71 1360.58 1547.58 Q1360.58 1540.48 1362.93 1533.29 Q1365.29 1526.09 1370.09 1518.58 L1375.19 1518.58 Z" fill="#000000" fill-rule="nonzero" fill-opacity="1" /><path clip-path="url(#clip600)" d="M1409.27 1533.45 L1409.27 1538.98 Q1406.79 1537.71 1404.12 1537.07 Q1401.44 1536.44 1398.58 1536.44 Q1394.22 1536.44 1392.02 1537.77 Q1389.86 1539.11 1389.86 1541.79 Q1389.86 1543.82 1391.42 1545 Q1392.98 1546.15 1397.69 1547.2 L1399.69 1547.64 Q1405.93 1548.98 1408.54 1551.43 Q1411.18 1553.85 1411.18 1558.21 Q1411.18 1563.17 1407.24 1566.07 Q1403.32 1568.97 1396.45 1568.97 Q1393.58 1568.97 1390.46 1568.39 Q1387.38 1567.85 1383.94 1566.74 L1383.94 1560.69 Q1387.18 1562.38 1390.34 1563.24 Q1393.49 1564.07 1396.57 1564.07 Q1400.71 1564.07 1402.94 1562.66 Q1405.17 1561.23 1405.17 1558.65 Q1405.17 1556.27 1403.54 1554.99 Q1401.95 1553.72 1396.51 1552.54 L1394.47 1552.07 Q1389.03 1550.92 1386.61 1548.56 Q1384.19 1546.18 1384.19 1542.04 Q1384.19 1537.01 1387.76 1534.27 Q1391.32 1531.54 1397.88 1531.54 Q1401.13 1531.54 1403.99 1532.01 Q1406.85 1532.49 1409.27 1533.45 Z" fill="#000000" fill-rule="nonzero" fill-opacity="1" /><path clip-path="url(#clip600)" d="M1419.59 1518.58 L1424.68 1518.58 Q1429.45 1526.09 1431.81 1533.29 Q1434.2 1540.48 1434.2 1547.58 Q1434.2 1554.71 1431.81 1561.93 Q1429.45 1569.16 1424.68 1576.64 L1419.59 1576.64 Q1423.82 1569.35 1425.89 1562.16 Q1427.99 1554.93 1427.99 1547.58 Q1427.99 1540.23 1425.89 1533.06 Q1423.82 1525.9 1419.59 1518.58 Z" fill="#000000" fill-rule="nonzero" fill-opacity="1" /><polyline clip-path="url(#clip600)" style="stroke:#000000; stroke-linecap:round; stroke-linejoin:round; stroke-width:4; stroke-opacity:1; fill:none" points="255.977,1423.18 255.977,123.472 "/>
<polyline clip-path="url(#clip600)" style="stroke:#000000; stroke-linecap:round; stroke-linejoin:round; stroke-width:4; stroke-opacity:1; fill:none" points="255.977,1326.66 274.875,1326.66 "/>
<polyline clip-path="url(#clip600)" style="stroke:#000000; stroke-linecap:round; stroke-linejoin:round; stroke-width:4; stroke-opacity:1; fill:none" points="255.977,1062.44 274.875,1062.44 "/>
<polyline clip-path="url(#clip600)" style="stroke:#000000; stroke-linecap:round; stroke-linejoin:round; stroke-width:4; stroke-opacity:1; fill:none" points="255.977,798.22 274.875,798.22 "/>
<polyline clip-path="url(#clip600)" style="stroke:#000000; stroke-linecap:round; stroke-linejoin:round; stroke-width:4; stroke-opacity:1; fill:none" points="255.977,534.002 274.875,534.002 "/>
<polyline clip-path="url(#clip600)" style="stroke:#000000; stroke-linecap:round; stroke-linejoin:round; stroke-width:4; stroke-opacity:1; fill:none" points="255.977,269.785 274.875,269.785 "/>
<path clip-path="url(#clip600)" d="M114.26 1327.11 L143.936 1327.11 L143.936 1331.04 L114.26 1331.04 L114.26 1327.11 Z" fill="#000000" fill-rule="nonzero" fill-opacity="1" /><path clip-path="url(#clip600)" d="M164.028 1312.45 Q160.417 1312.45 158.589 1316.02 Q156.783 1319.56 156.783 1326.69 Q156.783 1333.8 158.589 1337.36 Q160.417 1340.9 164.028 1340.9 Q167.663 1340.9 169.468 1337.36 Q171.297 1333.8 171.297 1326.69 Q171.297 1319.56 169.468 1316.02 Q167.663 1312.45 164.028 1312.45 M164.028 1308.75 Q169.839 1308.75 172.894 1313.36 Q175.973 1317.94 175.973 1326.69 Q175.973 1335.42 172.894 1340.02 Q169.839 1344.61 164.028 1344.61 Q158.218 1344.61 155.14 1340.02 Q152.084 1335.42 152.084 1326.69 Q152.084 1317.94 155.14 1313.36 Q158.218 1308.75 164.028 1308.75 Z" fill="#000000" fill-rule="nonzero" fill-opacity="1" /><path clip-path="url(#clip600)" d="M184.19 1338.06 L189.075 1338.06 L189.075 1343.94 L184.19 1343.94 L184.19 1338.06 Z" fill="#000000" fill-rule="nonzero" fill-opacity="1" /><path clip-path="url(#clip600)" d="M200.07 1340 L207.709 1340 L207.709 1313.64 L199.399 1315.3 L199.399 1311.04 L207.662 1309.38 L212.338 1309.38 L212.338 1340 L219.977 1340 L219.977 1343.94 L200.07 1343.94 L200.07 1340 Z" fill="#000000" fill-rule="nonzero" fill-opacity="1" /><path clip-path="url(#clip600)" d="M162.802 1048.24 Q159.19 1048.24 157.362 1051.8 Q155.556 1055.34 155.556 1062.47 Q155.556 1069.58 157.362 1073.14 Q159.19 1076.69 162.802 1076.69 Q166.436 1076.69 168.241 1073.14 Q170.07 1069.58 170.07 1062.47 Q170.07 1055.34 168.241 1051.8 Q166.436 1048.24 162.802 1048.24 M162.802 1044.53 Q168.612 1044.53 171.667 1049.14 Q174.746 1053.72 174.746 1062.47 Q174.746 1071.2 171.667 1075.81 Q168.612 1080.39 162.802 1080.39 Q156.991 1080.39 153.913 1075.81 Q150.857 1071.2 150.857 1062.47 Q150.857 1053.72 153.913 1049.14 Q156.991 1044.53 162.802 1044.53 Z" fill="#000000" fill-rule="nonzero" fill-opacity="1" /><path clip-path="url(#clip600)" d="M182.963 1073.84 L187.848 1073.84 L187.848 1079.72 L182.963 1079.72 L182.963 1073.84 Z" fill="#000000" fill-rule="nonzero" fill-opacity="1" /><path clip-path="url(#clip600)" d="M208.033 1048.24 Q204.422 1048.24 202.593 1051.8 Q200.787 1055.34 200.787 1062.47 Q200.787 1069.58 202.593 1073.14 Q204.422 1076.69 208.033 1076.69 Q211.667 1076.69 213.473 1073.14 Q215.301 1069.58 215.301 1062.47 Q215.301 1055.34 213.473 1051.8 Q211.667 1048.24 208.033 1048.24 M208.033 1044.53 Q213.843 1044.53 216.898 1049.14 Q219.977 1053.72 219.977 1062.47 Q219.977 1071.2 216.898 1075.81 Q213.843 1080.39 208.033 1080.39 Q202.223 1080.39 199.144 1075.81 Q196.088 1071.2 196.088 1062.47 Q196.088 1053.72 199.144 1049.14 Q202.223 1044.53 208.033 1044.53 Z" fill="#000000" fill-rule="nonzero" fill-opacity="1" /><path clip-path="url(#clip600)" d="M164.028 784.019 Q160.417 784.019 158.589 787.584 Q156.783 791.125 156.783 798.255 Q156.783 805.361 158.589 808.926 Q160.417 812.468 164.028 812.468 Q167.663 812.468 169.468 808.926 Q171.297 805.361 171.297 798.255 Q171.297 791.125 169.468 787.584 Q167.663 784.019 164.028 784.019 M164.028 780.315 Q169.839 780.315 172.894 784.922 Q175.973 789.505 175.973 798.255 Q175.973 806.982 172.894 811.588 Q169.839 816.172 164.028 816.172 Q158.218 816.172 155.14 811.588 Q152.084 806.982 152.084 798.255 Q152.084 789.505 155.14 784.922 Q158.218 780.315 164.028 780.315 Z" fill="#000000" fill-rule="nonzero" fill-opacity="1" /><path clip-path="url(#clip600)" d="M184.19 809.621 L189.075 809.621 L189.075 815.5 L184.19 815.5 L184.19 809.621 Z" fill="#000000" fill-rule="nonzero" fill-opacity="1" /><path clip-path="url(#clip600)" d="M200.07 811.565 L207.709 811.565 L207.709 785.199 L199.399 786.866 L199.399 782.607 L207.662 780.94 L212.338 780.94 L212.338 811.565 L219.977 811.565 L219.977 815.5 L200.07 815.5 L200.07 811.565 Z" fill="#000000" fill-rule="nonzero" fill-opacity="1" /><path clip-path="url(#clip600)" d="M164.399 519.801 Q160.788 519.801 158.959 523.366 Q157.153 526.908 157.153 534.037 Q157.153 541.144 158.959 544.708 Q160.788 548.25 164.399 548.25 Q168.033 548.25 169.839 544.708 Q171.667 541.144 171.667 534.037 Q171.667 526.908 169.839 523.366 Q168.033 519.801 164.399 519.801 M164.399 516.097 Q170.209 516.097 173.264 520.704 Q176.343 525.287 176.343 534.037 Q176.343 542.764 173.264 547.37 Q170.209 551.954 164.399 551.954 Q158.589 551.954 155.51 547.37 Q152.454 542.764 152.454 534.037 Q152.454 525.287 155.51 520.704 Q158.589 516.097 164.399 516.097 Z" fill="#000000" fill-rule="nonzero" fill-opacity="1" /><path clip-path="url(#clip600)" d="M184.561 545.403 L189.445 545.403 L189.445 551.282 L184.561 551.282 L184.561 545.403 Z" fill="#000000" fill-rule="nonzero" fill-opacity="1" /><path clip-path="url(#clip600)" d="M203.658 547.347 L219.977 547.347 L219.977 551.282 L198.033 551.282 L198.033 547.347 Q200.695 544.593 205.278 539.963 Q209.885 535.31 211.065 533.968 Q213.311 531.445 214.19 529.709 Q215.093 527.949 215.093 526.259 Q215.093 523.505 213.149 521.769 Q211.227 520.033 208.125 520.033 Q205.926 520.033 203.473 520.797 Q201.042 521.56 198.264 523.111 L198.264 518.389 Q201.088 517.255 203.542 516.676 Q205.996 516.097 208.033 516.097 Q213.403 516.097 216.598 518.783 Q219.792 521.468 219.792 525.959 Q219.792 528.088 218.982 530.009 Q218.195 531.908 216.088 534.5 Q215.51 535.171 212.408 538.389 Q209.306 541.583 203.658 547.347 Z" fill="#000000" fill-rule="nonzero" fill-opacity="1" /><path clip-path="url(#clip600)" d="M163.45 255.583 Q159.839 255.583 158.01 259.148 Q156.204 262.69 156.204 269.819 Q156.204 276.926 158.01 280.491 Q159.839 284.032 163.45 284.032 Q167.084 284.032 168.889 280.491 Q170.718 276.926 170.718 269.819 Q170.718 262.69 168.889 259.148 Q167.084 255.583 163.45 255.583 M163.45 251.88 Q169.26 251.88 172.315 256.486 Q175.394 261.069 175.394 269.819 Q175.394 278.546 172.315 283.153 Q169.26 287.736 163.45 287.736 Q157.64 287.736 154.561 283.153 Q151.505 278.546 151.505 269.819 Q151.505 261.069 154.561 256.486 Q157.64 251.88 163.45 251.88 Z" fill="#000000" fill-rule="nonzero" fill-opacity="1" /><path clip-path="url(#clip600)" d="M183.612 281.185 L188.496 281.185 L188.496 287.065 L183.612 287.065 L183.612 281.185 Z" fill="#000000" fill-rule="nonzero" fill-opacity="1" /><path clip-path="url(#clip600)" d="M212.848 268.431 Q216.204 269.148 218.079 271.417 Q219.977 273.685 219.977 277.018 Q219.977 282.134 216.459 284.935 Q212.94 287.736 206.459 287.736 Q204.283 287.736 201.968 287.296 Q199.676 286.879 197.223 286.023 L197.223 281.509 Q199.167 282.643 201.482 283.222 Q203.797 283.801 206.32 283.801 Q210.718 283.801 213.01 282.065 Q215.324 280.329 215.324 277.018 Q215.324 273.963 213.172 272.25 Q211.042 270.514 207.223 270.514 L203.195 270.514 L203.195 266.671 L207.408 266.671 Q210.857 266.671 212.686 265.306 Q214.514 263.917 214.514 261.324 Q214.514 258.662 212.616 257.25 Q210.741 255.815 207.223 255.815 Q205.301 255.815 203.102 256.232 Q200.903 256.648 198.264 257.528 L198.264 253.361 Q200.926 252.62 203.241 252.25 Q205.579 251.88 207.639 251.88 Q212.963 251.88 216.065 254.31 Q219.167 256.718 219.167 260.838 Q219.167 263.708 217.523 265.699 Q215.88 267.667 212.848 268.431 Z" fill="#000000" fill-rule="nonzero" fill-opacity="1" /><path clip-path="url(#clip600)" d="M18.0438 1193.83 L24.314 1193.83 Q22.5634 1197.49 21.704 1200.74 Q20.8447 1203.98 20.8447 1207.01 Q20.8447 1212.26 22.8817 1215.12 Q24.9187 1217.95 28.6745 1217.95 Q31.8255 1217.95 33.4488 1216.08 Q35.0402 1214.17 36.0269 1208.88 L36.8226 1205 Q38.1912 1197.81 41.6605 1194.4 Q45.098 1190.96 50.8908 1190.96 Q57.7976 1190.96 61.3624 1195.61 Q64.9272 1200.23 64.9272 1209.17 Q64.9272 1212.54 64.1633 1216.36 Q63.3994 1220.15 61.9035 1224.22 L55.2831 1224.22 Q57.4793 1220.31 58.5933 1216.55 Q59.7073 1212.8 59.7073 1209.17 Q59.7073 1203.66 57.543 1200.67 Q55.3786 1197.68 51.3682 1197.68 Q47.8671 1197.68 45.8937 1199.84 Q43.9204 1201.98 42.9337 1206.88 L42.1698 1210.79 Q40.7375 1217.99 37.682 1221.2 Q34.6264 1224.42 29.1837 1224.42 Q22.8817 1224.42 19.2532 1219.99 Q15.6248 1215.54 15.6248 1207.74 Q15.6248 1204.4 16.2295 1200.93 Q16.8343 1197.46 18.0438 1193.83 Z" fill="#000000" fill-rule="nonzero" fill-opacity="1" /><path clip-path="url(#clip600)" d="M49.9359 1181.8 L28.3562 1181.8 L28.3562 1175.94 L49.7131 1175.94 Q54.7739 1175.94 57.3202 1173.97 Q59.8346 1171.99 59.8346 1168.05 Q59.8346 1163.31 56.8109 1160.57 Q53.7872 1157.8 48.5673 1157.8 L28.3562 1157.8 L28.3562 1151.94 L64.0042 1151.94 L64.0042 1157.8 L58.5296 1157.8 Q61.7762 1159.93 63.3676 1162.76 Q64.9272 1165.56 64.9272 1169.29 Q64.9272 1175.43 61.1078 1178.61 Q57.2883 1181.8 49.9359 1181.8 M27.4968 1167.06 L27.4968 1167.06 Z" fill="#000000" fill-rule="nonzero" fill-opacity="1" /><path clip-path="url(#clip600)" d="M58.657 1134.21 L77.5631 1134.21 L77.5631 1140.1 L28.3562 1140.1 L28.3562 1134.21 L33.7671 1134.21 Q30.5842 1132.37 29.0564 1129.57 Q27.4968 1126.73 27.4968 1122.82 Q27.4968 1116.33 32.6531 1112.28 Q37.8093 1108.21 46.212 1108.21 Q54.6147 1108.21 59.771 1112.28 Q64.9272 1116.33 64.9272 1122.82 Q64.9272 1126.73 63.3994 1129.57 Q61.8398 1132.37 58.657 1134.21 M46.212 1114.29 Q39.7508 1114.29 36.0905 1116.96 Q32.3984 1119.6 32.3984 1124.25 Q32.3984 1128.9 36.0905 1131.57 Q39.7508 1134.21 46.212 1134.21 Q52.6732 1134.21 56.3653 1131.57 Q60.0256 1128.9 60.0256 1124.25 Q60.0256 1119.6 56.3653 1116.96 Q52.6732 1114.29 46.212 1114.29 Z" fill="#000000" fill-rule="nonzero" fill-opacity="1" /><path clip-path="url(#clip600)" d="M58.657 1092.84 L77.5631 1092.84 L77.5631 1098.72 L28.3562 1098.72 L28.3562 1092.84 L33.7671 1092.84 Q30.5842 1090.99 29.0564 1088.19 Q27.4968 1085.36 27.4968 1081.44 Q27.4968 1074.95 32.6531 1070.91 Q37.8093 1066.83 46.212 1066.83 Q54.6147 1066.83 59.771 1070.91 Q64.9272 1074.95 64.9272 1081.44 Q64.9272 1085.36 63.3994 1088.19 Q61.8398 1090.99 58.657 1092.84 M46.212 1072.91 Q39.7508 1072.91 36.0905 1075.59 Q32.3984 1078.23 32.3984 1082.87 Q32.3984 1087.52 36.0905 1090.19 Q39.7508 1092.84 46.212 1092.84 Q52.6732 1092.84 56.3653 1090.19 Q60.0256 1087.52 60.0256 1082.87 Q60.0256 1078.23 56.3653 1075.59 Q52.6732 1072.91 46.212 1072.91 Z" fill="#000000" fill-rule="nonzero" fill-opacity="1" /><path clip-path="url(#clip600)" d="M32.4621 1043.31 Q32.4621 1048.02 36.1542 1050.76 Q39.8145 1053.5 46.212 1053.5 Q52.6095 1053.5 56.3017 1050.79 Q59.9619 1048.05 59.9619 1043.31 Q59.9619 1038.63 56.2698 1035.9 Q52.5777 1033.16 46.212 1033.16 Q39.8781 1033.16 36.186 1035.9 Q32.4621 1038.63 32.4621 1043.31 M27.4968 1043.31 Q27.4968 1035.67 32.4621 1031.31 Q37.4273 1026.95 46.212 1026.95 Q54.9649 1026.95 59.9619 1031.31 Q64.9272 1035.67 64.9272 1043.31 Q64.9272 1050.98 59.9619 1055.34 Q54.9649 1059.67 46.212 1059.67 Q37.4273 1059.67 32.4621 1055.34 Q27.4968 1050.98 27.4968 1043.31 Z" fill="#000000" fill-rule="nonzero" fill-opacity="1" /><path clip-path="url(#clip600)" d="M33.8307 996.587 Q33.2578 997.574 33.0032 998.752 Q32.7167 999.897 32.7167 1001.3 Q32.7167 1006.26 35.9632 1008.94 Q39.1779 1011.58 45.2253 1011.58 L64.0042 1011.58 L64.0042 1017.47 L28.3562 1017.47 L28.3562 1011.58 L33.8944 1011.58 Q30.6479 1009.73 29.0883 1006.77 Q27.4968 1003.81 27.4968 999.579 Q27.4968 998.974 27.5923 998.242 Q27.656 997.51 27.8151 996.619 L33.8307 996.587 Z" fill="#000000" fill-rule="nonzero" fill-opacity="1" /><path clip-path="url(#clip600)" d="M18.2347 984.652 L28.3562 984.652 L28.3562 972.589 L32.9077 972.589 L32.9077 984.652 L52.2594 984.652 Q56.6199 984.652 57.8613 983.474 Q59.1026 982.264 59.1026 978.604 L59.1026 972.589 L64.0042 972.589 L64.0042 978.604 Q64.0042 985.384 61.4897 987.962 Q58.9434 990.54 52.2594 990.54 L32.9077 990.54 L32.9077 994.837 L28.3562 994.837 L28.3562 990.54 L18.2347 990.54 L18.2347 984.652 Z" fill="#000000" fill-rule="nonzero" fill-opacity="1" /><path clip-path="url(#clip600)" d="M33.7671 920.708 L14.479 920.708 L14.479 914.852 L64.0042 914.852 L64.0042 920.708 L58.657 920.708 Q61.8398 922.554 63.3994 925.387 Q64.9272 928.188 64.9272 932.134 Q64.9272 938.596 59.771 942.67 Q54.6147 946.712 46.212 946.712 Q37.8093 946.712 32.6531 942.67 Q27.4968 938.596 27.4968 932.134 Q27.4968 928.188 29.0564 925.387 Q30.5842 922.554 33.7671 920.708 M46.212 940.664 Q52.6732 940.664 56.3653 938.023 Q60.0256 935.349 60.0256 930.702 Q60.0256 926.055 56.3653 923.382 Q52.6732 920.708 46.212 920.708 Q39.7508 920.708 36.0905 923.382 Q32.3984 926.055 32.3984 930.702 Q32.3984 935.349 36.0905 938.023 Q39.7508 940.664 46.212 940.664 Z" fill="#000000" fill-rule="nonzero" fill-opacity="1" /><path clip-path="url(#clip600)" d="M28.3562 902.789 L28.3562 896.932 L64.0042 896.932 L64.0042 902.789 L28.3562 902.789 M14.479 902.789 L14.479 896.932 L21.895 896.932 L21.895 902.789 L14.479 902.789 Z" fill="#000000" fill-rule="nonzero" fill-opacity="1" /><path clip-path="url(#clip600)" d="M29.4065 861.953 L34.9447 861.953 Q33.6716 864.435 33.035 867.109 Q32.3984 869.782 32.3984 872.647 Q32.3984 877.007 33.7352 879.204 Q35.072 881.368 37.7456 881.368 Q39.7826 881.368 40.9603 879.808 Q42.1061 878.249 43.1565 873.538 L43.6021 871.533 Q44.9389 865.295 47.3897 862.685 Q49.8086 860.043 54.1691 860.043 Q59.1344 860.043 62.0308 863.99 Q64.9272 867.904 64.9272 874.779 Q64.9272 877.644 64.3543 880.763 Q63.8132 883.851 62.6992 887.288 L56.6518 887.288 Q58.3387 884.042 59.198 880.891 Q60.0256 877.739 60.0256 874.652 Q60.0256 870.514 58.6251 868.286 Q57.1929 866.058 54.6147 866.058 Q52.2276 866.058 50.9545 867.682 Q49.6813 869.273 48.5037 874.716 L48.0262 876.753 Q46.8804 882.195 44.5251 884.614 Q42.138 887.033 38.0002 887.033 Q32.9713 887.033 30.2341 883.469 Q27.4968 879.904 27.4968 873.347 Q27.4968 870.101 27.9743 867.236 Q28.4517 864.372 29.4065 861.953 Z" fill="#000000" fill-rule="nonzero" fill-opacity="1" /><path clip-path="url(#clip600)" d="M58.657 845.052 L77.5631 845.052 L77.5631 850.94 L28.3562 850.94 L28.3562 845.052 L33.7671 845.052 Q30.5842 843.206 29.0564 840.405 Q27.4968 837.572 27.4968 833.657 Q27.4968 827.164 32.6531 823.122 Q37.8093 819.048 46.212 819.048 Q54.6147 819.048 59.771 823.122 Q64.9272 827.164 64.9272 833.657 Q64.9272 837.572 63.3994 840.405 Q61.8398 843.206 58.657 845.052 M46.212 825.127 Q39.7508 825.127 36.0905 827.801 Q32.3984 830.442 32.3984 835.089 Q32.3984 839.736 36.0905 842.41 Q39.7508 845.052 46.212 845.052 Q52.6732 845.052 56.3653 842.41 Q60.0256 839.736 60.0256 835.089 Q60.0256 830.442 56.3653 827.801 Q52.6732 825.127 46.212 825.127 Z" fill="#000000" fill-rule="nonzero" fill-opacity="1" /><path clip-path="url(#clip600)" d="M14.479 809.34 L14.479 803.484 L64.0042 803.484 L64.0042 809.34 L14.479 809.34 Z" fill="#000000" fill-rule="nonzero" fill-opacity="1" /><path clip-path="url(#clip600)" d="M46.0847 775.029 Q46.0847 782.127 47.7079 784.864 Q49.3312 787.601 53.2461 787.601 Q56.3653 787.601 58.2114 785.564 Q60.0256 783.495 60.0256 779.962 Q60.0256 775.092 56.5881 772.164 Q53.1188 769.204 47.3897 769.204 L46.0847 769.204 L46.0847 775.029 M43.6657 763.348 L64.0042 763.348 L64.0042 769.204 L58.5933 769.204 Q61.8398 771.209 63.3994 774.201 Q64.9272 777.193 64.9272 781.522 Q64.9272 786.996 61.8716 790.243 Q58.7843 793.458 53.6281 793.458 Q47.6125 793.458 44.5569 789.447 Q41.5014 785.405 41.5014 777.416 L41.5014 769.204 L40.9285 769.204 Q36.8862 769.204 34.6901 771.878 Q32.4621 774.52 32.4621 779.326 Q32.4621 782.381 33.1941 785.278 Q33.9262 788.174 35.3903 790.848 L29.9795 790.848 Q28.7381 787.633 28.1334 784.609 Q27.4968 781.585 27.4968 778.721 Q27.4968 770.987 31.5072 767.167 Q35.5176 763.348 43.6657 763.348 Z" fill="#000000" fill-rule="nonzero" fill-opacity="1" /><path clip-path="url(#clip600)" d="M29.7248 725.631 L35.1993 725.631 Q33.8307 728.114 33.1623 730.628 Q32.4621 733.111 32.4621 735.657 Q32.4621 741.354 36.0905 744.505 Q39.6872 747.656 46.212 747.656 Q52.7369 747.656 56.3653 744.505 Q59.9619 741.354 59.9619 735.657 Q59.9619 733.111 59.2935 730.628 Q58.5933 728.114 57.2247 725.631 L62.6355 725.631 Q63.7814 728.082 64.3543 730.723 Q64.9272 733.333 64.9272 736.293 Q64.9272 744.346 59.8664 749.089 Q54.8057 753.831 46.212 753.831 Q37.491 753.831 32.4939 749.057 Q27.4968 744.251 27.4968 735.912 Q27.4968 733.206 28.0697 730.628 Q28.6108 728.05 29.7248 725.631 Z" fill="#000000" fill-rule="nonzero" fill-opacity="1" /><path clip-path="url(#clip600)" d="M44.7161 684.954 L47.5806 684.954 L47.5806 711.881 Q53.6281 711.499 56.8109 708.253 Q59.9619 704.974 59.9619 699.15 Q59.9619 695.776 59.1344 692.625 Q58.3069 689.442 56.6518 686.323 L62.1899 686.323 Q63.5267 689.474 64.227 692.784 Q64.9272 696.094 64.9272 699.5 Q64.9272 708.03 59.9619 713.027 Q54.9967 717.992 46.5303 717.992 Q37.7774 717.992 32.6531 713.281 Q27.4968 708.539 27.4968 700.518 Q27.4968 693.325 32.1438 689.155 Q36.7589 684.954 44.7161 684.954 M42.9973 690.811 Q38.1912 690.874 35.3266 693.516 Q32.4621 696.126 32.4621 700.455 Q32.4621 705.356 35.2312 708.316 Q38.0002 711.244 43.0292 711.69 L42.9973 690.811 Z" fill="#000000" fill-rule="nonzero" fill-opacity="1" /><path clip-path="url(#clip600)" d="M35.1993 647.587 Q31.2526 645.391 29.3747 642.336 Q27.4968 639.28 27.4968 635.142 Q27.4968 629.572 31.4117 626.549 Q35.2948 623.525 42.4881 623.525 L64.0042 623.525 L64.0042 629.413 L42.679 629.413 Q37.5546 629.413 35.072 631.227 Q32.5894 633.042 32.5894 636.766 Q32.5894 641.317 35.6131 643.959 Q38.6368 646.601 43.8567 646.601 L64.0042 646.601 L64.0042 652.489 L42.679 652.489 Q37.5228 652.489 35.072 654.303 Q32.5894 656.117 32.5894 659.905 Q32.5894 664.393 35.6449 667.035 Q38.6686 669.676 43.8567 669.676 L64.0042 669.676 L64.0042 675.565 L28.3562 675.565 L28.3562 669.676 L33.8944 669.676 Q30.616 667.671 29.0564 664.87 Q27.4968 662.069 27.4968 658.218 Q27.4968 654.335 29.4702 651.63 Q31.4436 648.892 35.1993 647.587 Z" fill="#000000" fill-rule="nonzero" fill-opacity="1" /><path clip-path="url(#clip600)" d="M44.7161 581.352 L47.5806 581.352 L47.5806 608.279 Q53.6281 607.897 56.8109 604.651 Q59.9619 601.372 59.9619 595.548 Q59.9619 592.174 59.1344 589.023 Q58.3069 585.84 56.6518 582.721 L62.1899 582.721 Q63.5267 585.872 64.227 589.182 Q64.9272 592.492 64.9272 595.898 Q64.9272 604.428 59.9619 609.425 Q54.9967 614.39 46.5303 614.39 Q37.7774 614.39 32.6531 609.68 Q27.4968 604.937 27.4968 596.916 Q27.4968 589.723 32.1438 585.554 Q36.7589 581.352 44.7161 581.352 M42.9973 587.209 Q38.1912 587.272 35.3266 589.914 Q32.4621 592.524 32.4621 596.853 Q32.4621 601.754 35.2312 604.714 Q38.0002 607.643 43.0292 608.088 L42.9973 587.209 Z" fill="#000000" fill-rule="nonzero" fill-opacity="1" /><path clip-path="url(#clip600)" d="M42.4881 542.108 L64.0042 542.108 L64.0042 547.964 L42.679 547.964 Q37.6183 547.964 35.1038 549.937 Q32.5894 551.911 32.5894 555.858 Q32.5894 560.6 35.6131 563.337 Q38.6368 566.074 43.8567 566.074 L64.0042 566.074 L64.0042 571.963 L28.3562 571.963 L28.3562 566.074 L33.8944 566.074 Q30.6797 563.974 29.0883 561.141 Q27.4968 558.276 27.4968 554.553 Q27.4968 548.41 31.3163 545.259 Q35.1038 542.108 42.4881 542.108 Z" fill="#000000" fill-rule="nonzero" fill-opacity="1" /><path clip-path="url(#clip600)" d="M18.2347 524.634 L28.3562 524.634 L28.3562 512.571 L32.9077 512.571 L32.9077 524.634 L52.2594 524.634 Q56.6199 524.634 57.8613 523.456 Q59.1026 522.247 59.1026 518.586 L59.1026 512.571 L64.0042 512.571 L64.0042 518.586 Q64.0042 525.366 61.4897 527.944 Q58.9434 530.522 52.2594 530.522 L32.9077 530.522 L32.9077 534.819 L28.3562 534.819 L28.3562 530.522 L18.2347 530.522 L18.2347 524.634 Z" fill="#000000" fill-rule="nonzero" fill-opacity="1" /><path clip-path="url(#clip600)" d="M28.3562 454.515 L45.7028 467.406 L64.0042 453.847 L64.0042 460.754 L49.9996 471.13 L64.0042 481.506 L64.0042 488.413 L45.3526 474.567 L28.3562 487.235 L28.3562 480.328 L41.0558 470.875 L28.3562 461.422 L28.3562 454.515 Z" fill="#000000" fill-rule="nonzero" fill-opacity="1" /><path clip-path="url(#clip600)" d="M14.5426 410.783 Q21.8632 415.048 29.0246 417.117 Q36.186 419.186 43.5384 419.186 Q50.8908 419.186 58.1159 417.117 Q65.3091 415.016 72.5979 410.783 L72.5979 415.876 Q65.1182 420.65 57.8931 423.037 Q50.668 425.392 43.5384 425.392 Q36.4406 425.392 29.2474 423.037 Q22.0542 420.682 14.5426 415.876 L14.5426 410.783 Z" fill="#000000" fill-rule="nonzero" fill-opacity="1" /><path clip-path="url(#clip600)" d="M35.1993 371.666 Q31.2526 369.47 29.3747 366.414 Q27.4968 363.359 27.4968 359.221 Q27.4968 353.651 31.4117 350.627 Q35.2948 347.603 42.4881 347.603 L64.0042 347.603 L64.0042 353.492 L42.679 353.492 Q37.5546 353.492 35.072 355.306 Q32.5894 357.12 32.5894 360.844 Q32.5894 365.396 35.6131 368.037 Q38.6368 370.679 43.8567 370.679 L64.0042 370.679 L64.0042 376.567 L42.679 376.567 Q37.5228 376.567 35.072 378.382 Q32.5894 380.196 32.5894 383.983 Q32.5894 388.471 35.6449 391.113 Q38.6686 393.755 43.8567 393.755 L64.0042 393.755 L64.0042 399.643 L28.3562 399.643 L28.3562 393.755 L33.8944 393.755 Q30.616 391.75 29.0564 388.949 Q27.4968 386.148 27.4968 382.297 Q27.4968 378.413 29.4702 375.708 Q31.4436 372.971 35.1993 371.666 Z" fill="#000000" fill-rule="nonzero" fill-opacity="1" /><path clip-path="url(#clip600)" d="M14.5426 336.845 L14.5426 331.753 Q22.0542 326.979 29.2474 324.623 Q36.4406 322.236 43.5384 322.236 Q50.668 322.236 57.8931 324.623 Q65.1182 326.979 72.5979 331.753 L72.5979 336.845 Q65.3091 332.612 58.1159 330.543 Q50.8908 328.443 43.5384 328.443 Q36.186 328.443 29.0246 330.543 Q21.8632 332.612 14.5426 336.845 Z" fill="#000000" fill-rule="nonzero" fill-opacity="1" /><path clip-path="url(#clip600)" d="M740.906 43.6931 L740.906 65.8515 L754.031 65.8515 Q760.634 65.8515 763.794 63.1374 Q766.994 60.3828 766.994 54.752 Q766.994 49.0808 763.794 46.4072 Q760.634 43.6931 754.031 43.6931 L740.906 43.6931 M740.906 18.8205 L740.906 37.0496 L753.018 37.0496 Q759.014 37.0496 761.93 34.8216 Q764.887 32.5531 764.887 27.935 Q764.887 23.3575 761.93 21.089 Q759.014 18.8205 753.018 18.8205 L740.906 18.8205 M732.723 12.096 L753.626 12.096 Q762.983 12.096 768.047 15.9849 Q773.111 19.8737 773.111 27.0438 Q773.111 32.5936 770.518 35.8748 Q767.926 39.156 762.902 39.9662 Q768.938 41.2625 772.26 45.3944 Q775.622 49.4858 775.622 55.6432 Q775.622 63.745 770.113 68.1605 Q764.604 72.576 754.436 72.576 L732.723 72.576 L732.723 12.096 Z" fill="#000000" fill-rule="nonzero" fill-opacity="1" /><path clip-path="url(#clip600)" d="M828.122 48.0275 L828.122 51.6733 L793.851 51.6733 Q794.337 59.3701 798.469 63.421 Q802.642 67.4314 810.055 67.4314 Q814.349 67.4314 818.359 66.3781 Q822.41 65.3249 826.38 63.2184 L826.38 70.267 Q822.37 71.9684 818.157 72.8596 Q813.944 73.7508 809.609 73.7508 Q798.753 73.7508 792.393 67.4314 Q786.074 61.1119 786.074 50.3365 Q786.074 39.1965 792.069 32.6746 Q798.105 26.1121 808.313 26.1121 Q817.468 26.1121 822.775 32.0264 Q828.122 37.9003 828.122 48.0275 M820.668 45.84 Q820.587 39.7232 817.225 36.0774 Q813.903 32.4315 808.394 32.4315 Q802.156 32.4315 798.388 35.9558 Q794.662 39.4801 794.094 45.8805 L820.668 45.84 Z" fill="#000000" fill-rule="nonzero" fill-opacity="1" /><path clip-path="url(#clip600)" d="M869.279 28.5427 L869.279 35.5912 Q866.119 33.9709 862.717 33.1607 Q859.314 32.3505 855.668 32.3505 Q850.118 32.3505 847.323 34.0519 Q844.569 35.7533 844.569 39.156 Q844.569 41.7486 846.554 43.2475 Q848.539 44.7058 854.534 46.0426 L857.086 46.6097 Q865.026 48.3111 868.347 51.4303 Q871.71 54.509 871.71 60.0587 Q871.71 66.3781 866.687 70.0644 Q861.704 73.7508 852.954 73.7508 Q849.308 73.7508 845.338 73.0216 Q841.409 72.3329 837.034 70.9151 L837.034 63.2184 Q841.166 65.3654 845.176 66.4591 Q849.187 67.5124 853.116 67.5124 Q858.382 67.5124 861.218 65.73 Q864.054 63.9071 864.054 60.6258 Q864.054 57.5877 861.988 55.9673 Q859.962 54.3469 853.035 52.8481 L850.442 52.2405 Q843.515 50.7821 840.437 47.7845 Q837.358 44.7463 837.358 39.4801 Q837.358 33.0797 841.895 29.5959 Q846.432 26.1121 854.777 26.1121 Q858.909 26.1121 862.555 26.7198 Q866.2 27.3274 869.279 28.5427 Z" fill="#000000" fill-rule="nonzero" fill-opacity="1" /><path clip-path="url(#clip600)" d="M890.952 14.324 L890.952 27.2059 L906.304 27.2059 L906.304 32.9987 L890.952 32.9987 L890.952 57.6282 Q890.952 63.1779 892.45 64.7578 Q893.99 66.3376 898.648 66.3376 L906.304 66.3376 L906.304 72.576 L898.648 72.576 Q890.02 72.576 886.739 69.3758 Q883.457 66.1351 883.457 57.6282 L883.457 32.9987 L877.989 32.9987 L877.989 27.2059 L883.457 27.2059 L883.457 14.324 L890.952 14.324 Z" fill="#000000" fill-rule="nonzero" fill-opacity="1" /><path clip-path="url(#clip600)" d="M950.986 18.8205 L950.986 65.8515 L960.87 65.8515 Q973.387 65.8515 979.18 60.1802 Q985.014 54.509 985.014 42.2752 Q985.014 30.1225 979.18 24.4918 Q973.387 18.8205 960.87 18.8205 L950.986 18.8205 M942.803 12.096 L959.614 12.096 Q977.195 12.096 985.419 19.4281 Q993.642 26.7198 993.642 42.2752 Q993.642 57.9117 985.378 65.2439 Q977.114 72.576 959.614 72.576 L942.803 72.576 L942.803 12.096 Z" fill="#000000" fill-rule="nonzero" fill-opacity="1" /><path clip-path="url(#clip600)" d="M1045.17 48.0275 L1045.17 51.6733 L1010.9 51.6733 Q1011.38 59.3701 1015.52 63.421 Q1019.69 67.4314 1027.1 67.4314 Q1031.4 67.4314 1035.41 66.3781 Q1039.46 65.3249 1043.43 63.2184 L1043.43 70.267 Q1039.42 71.9684 1035.2 72.8596 Q1030.99 73.7508 1026.66 73.7508 Q1015.8 73.7508 1009.44 67.4314 Q1003.12 61.1119 1003.12 50.3365 Q1003.12 39.1965 1009.12 32.6746 Q1015.15 26.1121 1025.36 26.1121 Q1034.52 26.1121 1039.82 32.0264 Q1045.17 37.9003 1045.17 48.0275 M1037.72 45.84 Q1037.63 39.7232 1034.27 36.0774 Q1030.95 32.4315 1025.44 32.4315 Q1019.2 32.4315 1015.44 35.9558 Q1011.71 39.4801 1011.14 45.8805 L1037.72 45.84 Z" fill="#000000" fill-rule="nonzero" fill-opacity="1" /><path clip-path="url(#clip600)" d="M1086.33 28.5427 L1086.33 35.5912 Q1083.17 33.9709 1079.76 33.1607 Q1076.36 32.3505 1072.72 32.3505 Q1067.17 32.3505 1064.37 34.0519 Q1061.62 35.7533 1061.62 39.156 Q1061.62 41.7486 1063.6 43.2475 Q1065.59 44.7058 1071.58 46.0426 L1074.13 46.6097 Q1082.07 48.3111 1085.39 51.4303 Q1088.76 54.509 1088.76 60.0587 Q1088.76 66.3781 1083.73 70.0644 Q1078.75 73.7508 1070 73.7508 Q1066.36 73.7508 1062.39 73.0216 Q1058.46 72.3329 1054.08 70.9151 L1054.08 63.2184 Q1058.21 65.3654 1062.22 66.4591 Q1066.23 67.5124 1070.16 67.5124 Q1075.43 67.5124 1078.27 65.73 Q1081.1 63.9071 1081.1 60.6258 Q1081.1 57.5877 1079.03 55.9673 Q1077.01 54.3469 1070.08 52.8481 L1067.49 52.2405 Q1060.56 50.7821 1057.48 47.7845 Q1054.41 44.7463 1054.41 39.4801 Q1054.41 33.0797 1058.94 29.5959 Q1063.48 26.1121 1071.82 26.1121 Q1075.96 26.1121 1079.6 26.7198 Q1083.25 27.3274 1086.33 28.5427 Z" fill="#000000" fill-rule="nonzero" fill-opacity="1" /><path clip-path="url(#clip600)" d="M1100.63 27.2059 L1108.08 27.2059 L1108.08 72.576 L1100.63 72.576 L1100.63 27.2059 M1100.63 9.54393 L1108.08 9.54393 L1108.08 18.9825 L1100.63 18.9825 L1100.63 9.54393 Z" fill="#000000" fill-rule="nonzero" fill-opacity="1" /><path clip-path="url(#clip600)" d="M1153.53 49.3643 Q1153.53 41.2625 1150.17 36.8065 Q1146.85 32.3505 1140.81 32.3505 Q1134.82 32.3505 1131.45 36.8065 Q1128.13 41.2625 1128.13 49.3643 Q1128.13 57.4256 1131.45 61.8816 Q1134.82 66.3376 1140.81 66.3376 Q1146.85 66.3376 1150.17 61.8816 Q1153.53 57.4256 1153.53 49.3643 M1160.98 66.9452 Q1160.98 78.5308 1155.84 84.1616 Q1150.7 89.8329 1140.08 89.8329 Q1136.15 89.8329 1132.67 89.2252 Q1129.19 88.6581 1125.9 87.4428 L1125.9 80.1917 Q1129.19 81.9741 1132.39 82.8248 Q1135.59 83.6755 1138.91 83.6755 Q1146.24 83.6755 1149.89 79.8271 Q1153.53 76.0193 1153.53 68.282 L1153.53 64.5957 Q1151.22 68.6061 1147.62 70.5911 Q1144.01 72.576 1138.99 72.576 Q1130.64 72.576 1125.54 66.2161 Q1120.44 59.8562 1120.44 49.3643 Q1120.44 38.832 1125.54 32.472 Q1130.64 26.1121 1138.99 26.1121 Q1144.01 26.1121 1147.62 28.0971 Q1151.22 30.082 1153.53 34.0924 L1153.53 27.2059 L1160.98 27.2059 L1160.98 66.9452 Z" fill="#000000" fill-rule="nonzero" fill-opacity="1" /><path clip-path="url(#clip600)" d="M1214.05 45.1919 L1214.05 72.576 L1206.6 72.576 L1206.6 45.4349 Q1206.6 38.994 1204.09 35.7938 Q1201.57 32.5936 1196.55 32.5936 Q1190.52 32.5936 1187.03 36.4419 Q1183.55 40.2903 1183.55 46.9338 L1183.55 72.576 L1176.05 72.576 L1176.05 27.2059 L1183.55 27.2059 L1183.55 34.2544 Q1186.22 30.163 1189.83 28.1376 Q1193.47 26.1121 1198.21 26.1121 Q1206.03 26.1121 1210.04 30.9732 Q1214.05 35.7938 1214.05 45.1919 Z" fill="#000000" fill-rule="nonzero" fill-opacity="1" /><path clip-path="url(#clip600)" d="M1291.87 14.0809 L1291.87 22.0612 Q1287.21 19.8332 1283.08 18.7395 Q1278.95 17.6457 1275.1 17.6457 Q1268.41 17.6457 1264.77 20.2383 Q1261.16 22.8309 1261.16 27.611 Q1261.16 31.6214 1263.55 33.6873 Q1265.98 35.7128 1272.71 36.9686 L1277.65 37.9813 Q1286.81 39.7232 1291.14 44.1387 Q1295.52 48.5136 1295.52 55.8863 Q1295.52 64.6767 1289.6 69.2137 Q1283.73 73.7508 1272.34 73.7508 Q1268.05 73.7508 1263.19 72.7785 Q1258.37 71.8063 1253.18 69.9024 L1253.18 61.4765 Q1258.17 64.2716 1262.95 65.6895 Q1267.73 67.1073 1272.34 67.1073 Q1279.35 67.1073 1283.16 64.3527 Q1286.97 61.598 1286.97 56.4939 Q1286.97 52.0379 1284.21 49.5264 Q1281.5 47.0148 1275.26 45.759 L1270.28 44.7868 Q1261.12 42.9639 1257.03 39.075 Q1252.94 35.1862 1252.94 28.2591 Q1252.94 20.2383 1258.57 15.6203 Q1264.24 11.0023 1274.17 11.0023 Q1278.42 11.0023 1282.84 11.7719 Q1287.25 12.5416 1291.87 14.0809 Z" fill="#000000" fill-rule="nonzero" fill-opacity="1" /><path clip-path="url(#clip600)" d="M1307.18 54.671 L1307.18 27.2059 L1314.64 27.2059 L1314.64 54.3874 Q1314.64 60.8284 1317.15 64.0691 Q1319.66 67.2693 1324.68 67.2693 Q1330.72 67.2693 1334.2 63.421 Q1337.73 59.5726 1337.73 52.9291 L1337.73 27.2059 L1345.18 27.2059 L1345.18 72.576 L1337.73 72.576 L1337.73 65.6084 Q1335.01 69.7404 1331.41 71.7658 Q1327.84 73.7508 1323.1 73.7508 Q1315.28 73.7508 1311.23 68.8897 Q1307.18 64.0286 1307.18 54.671 M1325.94 26.1121 L1325.94 26.1121 Z" fill="#000000" fill-rule="nonzero" fill-opacity="1" /><path clip-path="url(#clip600)" d="M1367.74 65.7705 L1367.74 89.8329 L1360.25 89.8329 L1360.25 27.2059 L1367.74 27.2059 L1367.74 34.0924 Q1370.09 30.0415 1373.66 28.0971 Q1377.26 26.1121 1382.25 26.1121 Q1390.51 26.1121 1395.65 32.6746 Q1400.84 39.2371 1400.84 49.9314 Q1400.84 60.6258 1395.65 67.1883 Q1390.51 73.7508 1382.25 73.7508 Q1377.26 73.7508 1373.66 71.8063 Q1370.09 69.8214 1367.74 65.7705 M1393.1 49.9314 Q1393.1 41.7081 1389.7 37.0496 Q1386.34 32.3505 1380.42 32.3505 Q1374.51 32.3505 1371.11 37.0496 Q1367.74 41.7081 1367.74 49.9314 Q1367.74 58.1548 1371.11 62.8538 Q1374.51 67.5124 1380.42 67.5124 Q1386.34 67.5124 1389.7 62.8538 Q1393.1 58.1548 1393.1 49.9314 Z" fill="#000000" fill-rule="nonzero" fill-opacity="1" /><path clip-path="url(#clip600)" d="M1420.4 65.7705 L1420.4 89.8329 L1412.91 89.8329 L1412.91 27.2059 L1420.4 27.2059 L1420.4 34.0924 Q1422.75 30.0415 1426.32 28.0971 Q1429.92 26.1121 1434.91 26.1121 Q1443.17 26.1121 1448.32 32.6746 Q1453.5 39.2371 1453.5 49.9314 Q1453.5 60.6258 1448.32 67.1883 Q1443.17 73.7508 1434.91 73.7508 Q1429.92 73.7508 1426.32 71.8063 Q1422.75 69.8214 1420.4 65.7705 M1445.76 49.9314 Q1445.76 41.7081 1442.36 37.0496 Q1439 32.3505 1433.08 32.3505 Q1427.17 32.3505 1423.77 37.0496 Q1420.4 41.7081 1420.4 49.9314 Q1420.4 58.1548 1423.77 62.8538 Q1427.17 67.5124 1433.08 67.5124 Q1439 67.5124 1442.36 62.8538 Q1445.76 58.1548 1445.76 49.9314 Z" fill="#000000" fill-rule="nonzero" fill-opacity="1" /><path clip-path="url(#clip600)" d="M1483.44 32.4315 Q1477.44 32.4315 1473.96 37.1306 Q1470.47 41.7891 1470.47 49.9314 Q1470.47 58.0738 1473.92 62.7728 Q1477.4 67.4314 1483.44 67.4314 Q1489.39 67.4314 1492.88 62.7323 Q1496.36 58.0333 1496.36 49.9314 Q1496.36 41.8701 1492.88 37.1711 Q1489.39 32.4315 1483.44 32.4315 M1483.44 26.1121 Q1493.16 26.1121 1498.71 32.4315 Q1504.26 38.7509 1504.26 49.9314 Q1504.26 61.0714 1498.71 67.4314 Q1493.16 73.7508 1483.44 73.7508 Q1473.67 73.7508 1468.12 67.4314 Q1462.62 61.0714 1462.62 49.9314 Q1462.62 38.7509 1468.12 32.4315 Q1473.67 26.1121 1483.44 26.1121 Z" fill="#000000" fill-rule="nonzero" fill-opacity="1" /><path clip-path="url(#clip600)" d="M1542.9 34.1734 Q1541.65 33.4443 1540.15 33.1202 Q1538.69 32.7556 1536.91 32.7556 Q1530.59 32.7556 1527.19 36.8875 Q1523.82 40.9789 1523.82 48.6757 L1523.82 72.576 L1516.33 72.576 L1516.33 27.2059 L1523.82 27.2059 L1523.82 34.2544 Q1526.17 30.1225 1529.94 28.1376 Q1533.71 26.1121 1539.1 26.1121 Q1539.87 26.1121 1540.8 26.2337 Q1541.73 26.3147 1542.86 26.5172 L1542.9 34.1734 Z" fill="#000000" fill-rule="nonzero" fill-opacity="1" /><path clip-path="url(#clip600)" d="M1558.09 14.324 L1558.09 27.2059 L1573.45 27.2059 L1573.45 32.9987 L1558.09 32.9987 L1558.09 57.6282 Q1558.09 63.1779 1559.59 64.7578 Q1561.13 66.3376 1565.79 66.3376 L1573.45 66.3376 L1573.45 72.576 L1565.79 72.576 Q1557.16 72.576 1553.88 69.3758 Q1550.6 66.1351 1550.6 57.6282 L1550.6 32.9987 L1545.13 32.9987 L1545.13 27.2059 L1550.6 27.2059 L1550.6 14.324 L1558.09 14.324 Z" fill="#000000" fill-rule="nonzero" fill-opacity="1" /><path clip-path="url(#clip600)" d="M1609.95 12.096 L1622.14 12.096 L1637.57 53.2532 L1653.09 12.096 L1665.28 12.096 L1665.28 72.576 L1657.3 72.576 L1657.3 19.4686 L1641.71 60.9499 L1633.48 60.9499 L1617.89 19.4686 L1617.89 72.576 L1609.95 72.576 L1609.95 12.096 Z" fill="#000000" fill-rule="nonzero" fill-opacity="1" /><path clip-path="url(#clip600)" d="M1698.78 32.4315 Q1692.79 32.4315 1689.3 37.1306 Q1685.82 41.7891 1685.82 49.9314 Q1685.82 58.0738 1689.26 62.7728 Q1692.75 67.4314 1698.78 67.4314 Q1704.74 67.4314 1708.22 62.7323 Q1711.71 58.0333 1711.71 49.9314 Q1711.71 41.8701 1708.22 37.1711 Q1704.74 32.4315 1698.78 32.4315 M1698.78 26.1121 Q1708.51 26.1121 1714.05 32.4315 Q1719.6 38.7509 1719.6 49.9314 Q1719.6 61.0714 1714.05 67.4314 Q1708.51 73.7508 1698.78 73.7508 Q1689.02 73.7508 1683.47 67.4314 Q1677.96 61.0714 1677.96 49.9314 Q1677.96 38.7509 1683.47 32.4315 Q1689.02 26.1121 1698.78 26.1121 Z" fill="#000000" fill-rule="nonzero" fill-opacity="1" /><path clip-path="url(#clip600)" d="M1739.33 14.324 L1739.33 27.2059 L1754.69 27.2059 L1754.69 32.9987 L1739.33 32.9987 L1739.33 57.6282 Q1739.33 63.1779 1740.83 64.7578 Q1742.37 66.3376 1747.03 66.3376 L1754.69 66.3376 L1754.69 72.576 L1747.03 72.576 Q1738.4 72.576 1735.12 69.3758 Q1731.84 66.1351 1731.84 57.6282 L1731.84 32.9987 L1726.37 32.9987 L1726.37 27.2059 L1731.84 27.2059 L1731.84 14.324 L1739.33 14.324 Z" fill="#000000" fill-rule="nonzero" fill-opacity="1" /><path clip-path="url(#clip600)" d="M1764.49 27.2059 L1771.94 27.2059 L1771.94 72.576 L1764.49 72.576 L1764.49 27.2059 M1764.49 9.54393 L1771.94 9.54393 L1771.94 18.9825 L1764.49 18.9825 L1764.49 9.54393 Z" fill="#000000" fill-rule="nonzero" fill-opacity="1" /><path clip-path="url(#clip600)" d="M1805.12 32.4315 Q1799.12 32.4315 1795.64 37.1306 Q1792.16 41.7891 1792.16 49.9314 Q1792.16 58.0738 1795.6 62.7728 Q1799.08 67.4314 1805.12 67.4314 Q1811.07 67.4314 1814.56 62.7323 Q1818.04 58.0333 1818.04 49.9314 Q1818.04 41.8701 1814.56 37.1711 Q1811.07 32.4315 1805.12 32.4315 M1805.12 26.1121 Q1814.84 26.1121 1820.39 32.4315 Q1825.94 38.7509 1825.94 49.9314 Q1825.94 61.0714 1820.39 67.4314 Q1814.84 73.7508 1805.12 73.7508 Q1795.36 73.7508 1789.81 67.4314 Q1784.3 61.0714 1784.3 49.9314 Q1784.3 38.7509 1789.81 32.4315 Q1795.36 26.1121 1805.12 26.1121 Z" fill="#000000" fill-rule="nonzero" fill-opacity="1" /><path clip-path="url(#clip600)" d="M1876.01 45.1919 L1876.01 72.576 L1868.56 72.576 L1868.56 45.4349 Q1868.56 38.994 1866.04 35.7938 Q1863.53 32.5936 1858.51 32.5936 Q1852.47 32.5936 1848.99 36.4419 Q1845.51 40.2903 1845.51 46.9338 L1845.51 72.576 L1838.01 72.576 L1838.01 27.2059 L1845.51 27.2059 L1845.51 34.2544 Q1848.18 30.163 1851.79 28.1376 Q1855.43 26.1121 1860.17 26.1121 Q1867.99 26.1121 1872 30.9732 Q1876.01 35.7938 1876.01 45.1919 Z" fill="#000000" fill-rule="nonzero" fill-opacity="1" /><polyline clip-path="url(#clip602)" style="stroke:#009af9; stroke-linecap:round; stroke-linejoin:round; stroke-width:12; stroke-opacity:1; fill:none" points="315.32,1062.44 319.276,1060.41 323.232,1054.4 327.189,1044.44 331.145,1030.38 335.101,1011.91 339.057,988.609 343.013,959.904 346.969,925.112 350.926,883.454 354.882,834.1 358.838,776.263 362.794,709.391 366.75,633.538 370.707,550.018 374.663,462.3 378.619,376.494 382.575,300.158 386.531,239.337 390.488,196.466 394.444,170.839 398.4,160.256 402.356,162.223 406.312,174.481 410.268,195.147 414.225,222.698 418.181,255.914 422.137,293.817 426.093,335.618 430.049,380.677 434.006,428.465 437.962,478.54 441.918,530.52 445.874,584.059 449.83,638.831 453.786,694.511 457.743,750.752 461.699,807.177 465.655,863.362 469.611,918.831 473.567,973.06 477.524,1025.49 481.48,1075.54 485.436,1122.67 489.392,1166.38 493.348,1206.27 497.305,1242.04 501.261,1273.54 505.217,1300.74 509.173,1323.7 513.129,1342.61 517.085,1357.7 521.042,1369.25 524.998,1377.57 528.954,1382.99 532.91,1385.82 536.866,1386.4 540.823,1385.01 544.779,1381.96 548.735,1377.52 552.691,1371.94 556.647,1365.45 560.604,1358.26 564.56,1350.57 568.516,1342.55 572.472,1334.35 576.428,1326.1 580.384,1317.92 584.341,1309.89 588.297,1302.09 592.253,1294.59 596.209,1287.43 600.165,1280.65 604.122,1274.26 608.078,1268.29 612.034,1262.73 615.99,1257.58 619.946,1252.82 623.903,1248.44 627.859,1244.42 631.815,1240.73 635.771,1237.35 639.727,1234.25 643.683,1231.39 647.64,1228.75 651.596,1226.3 655.552,1224.02 659.508,1221.87 663.464,1219.83 667.421,1217.87 671.377,1215.99 675.333,1214.15 679.289,1212.34 683.245,1210.54 687.201,1208.74 691.158,1206.94 695.114,1205.11 699.07,1203.27 703.026,1201.39 706.982,1199.48 710.939,1197.53 714.895,1195.54 718.851,1193.52 722.807,1191.46 726.763,1189.37 730.72,1187.25 734.676,1185.1 738.632,1182.93 742.588,1180.74 746.544,1178.53 750.5,1176.32 754.457,1174.1 758.413,1171.88 762.369,1169.67 766.325,1167.46 770.281,1165.26 774.238,1163.08 778.194,1160.92 782.15,1158.79 786.106,1156.67 790.062,1154.59 794.019,1152.54 797.975,1150.52 801.931,1148.53 805.887,1146.59 809.843,1144.67 813.799,1142.8 817.756,1140.96 821.712,1139.16 825.668,1137.4 829.624,1135.68 833.58,1134 837.537,1132.36 841.493,1130.75 845.449,1129.18 849.405,1127.65 853.361,1126.15 857.317,1124.69 861.274,1123.27 865.23,1121.87 869.186,1120.51 873.142,1119.18 877.098,1117.88 881.055,1116.61 885.011,1115.37 888.967,1114.15 892.923,1112.97 896.879,1111.81 900.836,1110.67 904.792,1109.56 908.748,1108.48 912.704,1107.42 916.66,1106.38 920.616,1105.36 924.573,1104.37 928.529,1103.4 932.485,1102.44 936.441,1101.51 940.397,1100.6 944.354,1099.71 948.31,1098.83 952.266,1097.98 956.222,1097.14 960.178,1096.33 964.135,1095.53 968.091,1094.74 972.047,1093.98 976.003,1093.23 979.959,1092.5 983.915,1091.78 987.872,1091.08 991.828,1090.39 995.784,1089.73 999.74,1089.07 1003.7,1088.43 1007.65,1087.81 1011.61,1087.2 1015.56,1086.6 1019.52,1086.02 1023.48,1085.45 1027.43,1084.89 1031.39,1084.35 1035.35,1083.82 1039.3,1083.3 1043.26,1082.79 1047.21,1082.3 1051.17,1081.82 1055.13,1081.35 1059.08,1080.89 1063.04,1080.44 1067,1080 1070.95,1079.57 1074.91,1079.15 1078.86,1078.75 1082.82,1078.35 1086.78,1077.96 1090.73,1077.58 1094.69,1077.21 1098.64,1076.85 1102.6,1076.5 1106.56,1076.16 1110.51,1075.82 1114.47,1075.49 1118.43,1075.17 1122.38,1074.86 1126.34,1074.56 1130.29,1074.26 1134.25,1073.97 1138.21,1073.69 1142.16,1073.41 1146.12,1073.14 1150.08,1072.88 1154.03,1072.62 1157.99,1072.37 1161.94,1072.13 1165.9,1071.89 1169.86,1071.66 1173.81,1071.43 1177.77,1071.21 1181.72,1070.99 1185.68,1070.78 1189.64,1070.58 1193.59,1070.38 1197.55,1070.18 1201.51,1069.99 1205.46,1069.8 1209.42,1069.62 1213.37,1069.44 1217.33,1069.27 1221.29,1069.1 1225.24,1068.94 1229.2,1068.78 1233.16,1068.62 1237.11,1068.47 1241.07,1068.32 1245.02,1068.17 1248.98,1068.03 1252.94,1067.89 1256.89,1067.76 1260.85,1067.63 1264.8,1067.5 1268.76,1067.37 1272.72,1067.25 1276.67,1067.13 1280.63,1067.01 1284.59,1066.9 1288.54,1066.79 1292.5,1066.68 1296.45,1066.58 1300.41,1066.47 1304.37,1066.37 1308.32,1066.28 1312.28,1066.18 1316.24,1066.09 1320.19,1066 1324.15,1065.91 1328.1,1065.82 1332.06,1065.74 1336.02,1065.66 1339.97,1065.58 1343.93,1065.5 1347.88,1065.42 1351.84,1065.35 1355.8,1065.28 1359.75,1065.21 1363.71,1065.14 1367.67,1065.07 1371.62,1065 1375.58,1064.94 1379.53,1064.88 1383.49,1064.82 1387.45,1064.76 1391.4,1064.7 1395.36,1064.64 1399.32,1064.59 1403.27,1064.54 1407.23,1064.48 1411.18,1064.43 1415.14,1064.38 1419.1,1064.33 1423.05,1064.29 1427.01,1064.24 1430.96,1064.2 1434.92,1064.15 1438.88,1064.11 1442.83,1064.07 1446.79,1064.03 1450.75,1063.99 1454.7,1063.95 1458.66,1063.91 1462.61,1063.88 1466.57,1063.84 1470.53,1063.8 1474.48,1063.77 1478.44,1063.74 1482.39,1063.7 1486.35,1063.67 1490.31,1063.64 1494.26,1063.61 1498.22,1063.58 1502.18,1063.55 1506.13,1063.53 1510.09,1063.5 1514.04,1063.47 1518,1063.45 1521.96,1063.42 1525.91,1063.4 1529.87,1063.37 1533.83,1063.35 1537.78,1063.33 1541.74,1063.31 1545.69,1063.28 1549.65,1063.26 1553.61,1063.24 1557.56,1063.22 1561.52,1063.2 1565.47,1063.18 1569.43,1063.16 1573.39,1063.15 1577.34,1063.13 1581.3,1063.11 1585.26,1063.09 1589.21,1063.08 1593.17,1063.06 1597.12,1063.05 1601.08,1063.03 1605.04,1063.02 1608.99,1063 1612.95,1062.99 1616.91,1062.97 1620.86,1062.96 1624.82,1062.95 1628.77,1062.94 1632.73,1062.92 1636.69,1062.91 1640.64,1062.9 1644.6,1062.89 1648.55,1062.88 1652.51,1062.87 1656.47,1062.85 1660.42,1062.84 1664.38,1062.83 1668.34,1062.82 1672.29,1062.81 1676.25,1062.81 1680.2,1062.8 1684.16,1062.79 1688.12,1062.78 1692.07,1062.77 1696.03,1062.76 1699.99,1062.75 1703.94,1062.75 1707.9,1062.74 1711.85,1062.73 1715.81,1062.72 1719.77,1062.72 1723.72,1062.71 1727.68,1062.7 1731.63,1062.7 1735.59,1062.69 1739.55,1062.68 1743.5,1062.68 1747.46,1062.67 1751.42,1062.67 1755.37,1062.66 1759.33,1062.65 1763.28,1062.65 1767.24,1062.64 1771.2,1062.64 1775.15,1062.63 1779.11,1062.63 1783.07,1062.62 1787.02,1062.62 1790.98,1062.61 1794.93,1062.61 1798.89,1062.61 1802.85,1062.6 1806.8,1062.6 1810.76,1062.59 1814.71,1062.59 1818.67,1062.59 1822.63,1062.58 1826.58,1062.58 1830.54,1062.58 1834.5,1062.57 1838.45,1062.57 1842.41,1062.57 1846.36,1062.56 1850.32,1062.56 1854.28,1062.56 1858.23,1062.55 1862.19,1062.55 1866.14,1062.55 1870.1,1062.54 1874.06,1062.54 1878.01,1062.54 1881.97,1062.54 1885.93,1062.53 1889.88,1062.53 1893.84,1062.53 1897.79,1062.53 1901.75,1062.52 1905.71,1062.52 1909.66,1062.52 1913.62,1062.52 1917.58,1062.52 1921.53,1062.51 1925.49,1062.51 1929.44,1062.51 1933.4,1062.51 1937.36,1062.51 1941.31,1062.51 1945.27,1062.5 1949.22,1062.5 1953.18,1062.5 1957.14,1062.5 1961.09,1062.5 1965.05,1062.5 1969.01,1062.49 1972.96,1062.49 1976.92,1062.49 1980.87,1062.49 1984.83,1062.49 1988.79,1062.49 1992.74,1062.49 1996.7,1062.49 2000.66,1062.48 2004.61,1062.48 2008.57,1062.48 2012.52,1062.48 2016.48,1062.48 2020.44,1062.48 2024.39,1062.48 2028.35,1062.48 2032.3,1062.48 2036.26,1062.47 2040.22,1062.47 2044.17,1062.47 2048.13,1062.47 2052.09,1062.47 2056.04,1062.47 2060,1062.47 2063.95,1062.47 2067.91,1062.47 2071.87,1062.47 2075.82,1062.47 2079.78,1062.47 2083.74,1062.47 2087.69,1062.46 2091.65,1062.46 2095.6,1062.46 2099.56,1062.46 2103.52,1062.46 2107.47,1062.46 2111.43,1062.46 2115.38,1062.46 2119.34,1062.46 2123.3,1062.46 2127.25,1062.46 2131.21,1062.46 2135.17,1062.46 2139.12,1062.46 2143.08,1062.46 2147.03,1062.46 2150.99,1062.46 2154.95,1062.46 2158.9,1062.45 2162.86,1062.45 2166.82,1062.45 2170.77,1062.45 2174.73,1062.45 2178.68,1062.45 2182.64,1062.45 2186.6,1062.45 2190.55,1062.45 2194.51,1062.45 2198.46,1062.45 2202.42,1062.45 2206.38,1062.45 2210.33,1062.45 2214.29,1062.45 2218.25,1062.45 2222.2,1062.45 2226.16,1062.45 2230.11,1062.45 2234.07,1062.45 2238.03,1062.45 2241.98,1062.45 2245.94,1062.45 2249.9,1062.45 2253.85,1062.45 2257.81,1062.45 2261.76,1062.45 2265.72,1062.45 2269.68,1062.45 2273.63,1062.45 2277.59,1062.45 2281.54,1062.45 2285.5,1062.45 2289.46,1062.45 2293.41,1062.45 "/>
<path clip-path="url(#clip600)" d="M1994.99 270.476 L2282.86 270.476 L2282.86 166.796 L1994.99 166.796  Z" fill="#ffffff" fill-rule="evenodd" fill-opacity="1"/>
<polyline clip-path="url(#clip600)" style="stroke:#000000; stroke-linecap:round; stroke-linejoin:round; stroke-width:4; stroke-opacity:1; fill:none" points="1994.99,270.476 2282.86,270.476 2282.86,166.796 1994.99,166.796 1994.99,270.476 "/>
<polyline clip-path="url(#clip600)" style="stroke:#009af9; stroke-linecap:round; stroke-linejoin:round; stroke-width:12; stroke-opacity:1; fill:none" points="2018.29,218.636 2158.07,218.636 "/>
<path clip-path="url(#clip600)" d="M2206.02 209.99 L2196.65 222.606 L2206.51 235.916 L2201.49 235.916 L2193.94 225.731 L2186.39 235.916 L2181.37 235.916 L2191.44 222.351 L2182.23 209.99 L2187.25 209.99 L2194.13 219.226 L2201 209.99 L2206.02 209.99 Z" fill="#000000" fill-rule="nonzero" fill-opacity="1" /><path clip-path="url(#clip600)" d="M2222.76 199.944 Q2219.66 205.268 2218.15 210.476 Q2216.65 215.684 2216.65 221.032 Q2216.65 226.379 2218.15 231.633 Q2219.68 236.865 2222.76 242.166 L2219.06 242.166 Q2215.58 236.726 2213.85 231.471 Q2212.14 226.217 2212.14 221.032 Q2212.14 215.87 2213.85 210.638 Q2215.56 205.407 2219.06 199.944 L2222.76 199.944 Z" fill="#000000" fill-rule="nonzero" fill-opacity="1" /><path clip-path="url(#clip600)" d="M2235.24 202.629 L2235.24 209.99 L2244.01 209.99 L2244.01 213.3 L2235.24 213.3 L2235.24 227.374 Q2235.24 230.545 2236.09 231.448 Q2236.97 232.351 2239.64 232.351 L2244.01 232.351 L2244.01 235.916 L2239.64 235.916 Q2234.7 235.916 2232.83 234.087 Q2230.95 232.235 2230.95 227.374 L2230.95 213.3 L2227.83 213.3 L2227.83 209.99 L2230.95 209.99 L2230.95 202.629 L2235.24 202.629 Z" fill="#000000" fill-rule="nonzero" fill-opacity="1" /><path clip-path="url(#clip600)" d="M2248.94 199.944 L2252.64 199.944 Q2256.12 205.407 2257.83 210.638 Q2259.57 215.87 2259.57 221.032 Q2259.57 226.217 2257.83 231.471 Q2256.12 236.726 2252.64 242.166 L2248.94 242.166 Q2252.02 236.865 2253.52 231.633 Q2255.05 226.379 2255.05 221.032 Q2255.05 215.684 2253.52 210.476 Q2252.02 205.268 2248.94 199.944 Z" fill="#000000" fill-rule="nonzero" fill-opacity="1" /></svg>
