<?xml version="1.0" encoding="utf-8"?>
<svg xmlns="http://www.w3.org/2000/svg" xmlns:xlink="http://www.w3.org/1999/xlink" width="600" height="400" viewBox="0 0 2400 1600">
<defs>
  <clipPath id="clip700">
    <rect x="0" y="0" width="2400" height="1600"/>
  </clipPath>
</defs>
<path clip-path="url(#clip700)" d="M0 1600 L2400 1600 L2400 0 L0 0  Z" fill="#ffffff" fill-rule="evenodd" fill-opacity="1"/>
<defs>
  <clipPath id="clip701">
    <rect x="242" y="123" width="2112" height="1301"/>
  </clipPath>
</defs>
<path clip-path="url(#clip700)" d="M249.542 1423.18 L2352.76 1423.18 L2352.76 123.472 L249.542 123.472  Z" fill="#ffffff" fill-rule="evenodd" fill-opacity="1"/>
<defs>
  <clipPath id="clip702">
    <rect x="249" y="123" width="2104" height="1301"/>
  </clipPath>
</defs>
<polyline clip-path="url(#clip702)" style="stroke:#000000; stroke-linecap:round; stroke-linejoin:round; stroke-width:2; stroke-opacity:0.1; fill:none" points="309.067,1423.18 309.067,123.472 "/>
<polyline clip-path="url(#clip702)" style="stroke:#000000; stroke-linecap:round; stroke-linejoin:round; stroke-width:2; stroke-opacity:0.1; fill:none" points="805.108,1423.18 805.108,123.472 "/>
<polyline clip-path="url(#clip702)" style="stroke:#000000; stroke-linecap:round; stroke-linejoin:round; stroke-width:2; stroke-opacity:0.1; fill:none" points="1301.15,1423.18 1301.15,123.472 "/>
<polyline clip-path="url(#clip702)" style="stroke:#000000; stroke-linecap:round; stroke-linejoin:round; stroke-width:2; stroke-opacity:0.1; fill:none" points="1797.19,1423.18 1797.19,123.472 "/>
<polyline clip-path="url(#clip702)" style="stroke:#000000; stroke-linecap:round; stroke-linejoin:round; stroke-width:2; stroke-opacity:0.1; fill:none" points="2293.23,1423.18 2293.23,123.472 "/>
<polyline clip-path="url(#clip702)" style="stroke:#000000; stroke-linecap:round; stroke-linejoin:round; stroke-width:2; stroke-opacity:0.1; fill:none" points="249.542,1386.4 2352.76,1386.4 "/>
<polyline clip-path="url(#clip702)" style="stroke:#000000; stroke-linecap:round; stroke-linejoin:round; stroke-width:2; stroke-opacity:0.1; fill:none" points="249.542,1108.64 2352.76,1108.64 "/>
<polyline clip-path="url(#clip702)" style="stroke:#000000; stroke-linecap:round; stroke-linejoin:round; stroke-width:2; stroke-opacity:0.1; fill:none" points="249.542,830.89 2352.76,830.89 "/>
<polyline clip-path="url(#clip702)" style="stroke:#000000; stroke-linecap:round; stroke-linejoin:round; stroke-width:2; stroke-opacity:0.1; fill:none" points="249.542,553.138 2352.76,553.138 "/>
<polyline clip-path="url(#clip702)" style="stroke:#000000; stroke-linecap:round; stroke-linejoin:round; stroke-width:2; stroke-opacity:0.1; fill:none" points="249.542,275.385 2352.76,275.385 "/>
<polyline clip-path="url(#clip700)" style="stroke:#000000; stroke-linecap:round; stroke-linejoin:round; stroke-width:4; stroke-opacity:1; fill:none" points="249.542,1423.18 2352.76,1423.18 "/>
<polyline clip-path="url(#clip700)" style="stroke:#000000; stroke-linecap:round; stroke-linejoin:round; stroke-width:4; stroke-opacity:1; fill:none" points="309.067,1423.18 309.067,1404.28 "/>
<polyline clip-path="url(#clip700)" style="stroke:#000000; stroke-linecap:round; stroke-linejoin:round; stroke-width:4; stroke-opacity:1; fill:none" points="805.108,1423.18 805.108,1404.28 "/>
<polyline clip-path="url(#clip700)" style="stroke:#000000; stroke-linecap:round; stroke-linejoin:round; stroke-width:4; stroke-opacity:1; fill:none" points="1301.15,1423.18 1301.15,1404.28 "/>
<polyline clip-path="url(#clip700)" style="stroke:#000000; stroke-linecap:round; stroke-linejoin:round; stroke-width:4; stroke-opacity:1; fill:none" points="1797.19,1423.18 1797.19,1404.28 "/>
<polyline clip-path="url(#clip700)" style="stroke:#000000; stroke-linecap:round; stroke-linejoin:round; stroke-width:4; stroke-opacity:1; fill:none" points="2293.23,1423.18 2293.23,1404.28 "/>
<path clip-path="url(#clip700)" d="M286.451 1454.1 Q282.84 1454.1 281.012 1457.66 Q279.206 1461.2 279.206 1468.33 Q279.206 1475.44 281.012 1479.01 Q282.84 1482.55 286.451 1482.55 Q290.086 1482.55 291.891 1479.01 Q293.72 1475.44 293.72 1468.33 Q293.72 1461.2 291.891 1457.66 Q290.086 1454.1 286.451 1454.1 M286.451 1450.39 Q292.261 1450.39 295.317 1455 Q298.396 1459.58 298.396 1468.33 Q298.396 1477.06 295.317 1481.67 Q292.261 1486.25 286.451 1486.25 Q280.641 1486.25 277.562 1481.67 Q274.507 1477.06 274.507 1468.33 Q274.507 1459.58 277.562 1455 Q280.641 1450.39 286.451 1450.39 Z" fill="#000000" fill-rule="nonzero" fill-opacity="1" /><path clip-path="url(#clip700)" d="M306.613 1479.7 L311.497 1479.7 L311.497 1485.58 L306.613 1485.58 L306.613 1479.7 Z" fill="#000000" fill-rule="nonzero" fill-opacity="1" /><path clip-path="url(#clip700)" d="M331.683 1454.1 Q328.071 1454.1 326.243 1457.66 Q324.437 1461.2 324.437 1468.33 Q324.437 1475.44 326.243 1479.01 Q328.071 1482.55 331.683 1482.55 Q335.317 1482.55 337.122 1479.01 Q338.951 1475.44 338.951 1468.33 Q338.951 1461.2 337.122 1457.66 Q335.317 1454.1 331.683 1454.1 M331.683 1450.39 Q337.493 1450.39 340.548 1455 Q343.627 1459.58 343.627 1468.33 Q343.627 1477.06 340.548 1481.67 Q337.493 1486.25 331.683 1486.25 Q325.872 1486.25 322.794 1481.67 Q319.738 1477.06 319.738 1468.33 Q319.738 1459.58 322.794 1455 Q325.872 1450.39 331.683 1450.39 Z" fill="#000000" fill-rule="nonzero" fill-opacity="1" /><path clip-path="url(#clip700)" d="M776.844 1481.64 L793.164 1481.64 L793.164 1485.58 L771.219 1485.58 L771.219 1481.64 Q773.881 1478.89 778.465 1474.26 Q783.071 1469.61 784.252 1468.27 Q786.497 1465.74 787.377 1464.01 Q788.279 1462.25 788.279 1460.56 Q788.279 1457.8 786.335 1456.07 Q784.414 1454.33 781.312 1454.33 Q779.113 1454.33 776.659 1455.09 Q774.228 1455.86 771.451 1457.41 L771.451 1452.69 Q774.275 1451.55 776.728 1450.97 Q779.182 1450.39 781.219 1450.39 Q786.59 1450.39 789.784 1453.08 Q792.978 1455.77 792.978 1460.26 Q792.978 1462.39 792.168 1464.31 Q791.381 1466.2 789.275 1468.8 Q788.696 1469.47 785.594 1472.69 Q782.492 1475.88 776.844 1481.64 Z" fill="#000000" fill-rule="nonzero" fill-opacity="1" /><path clip-path="url(#clip700)" d="M802.978 1479.7 L807.863 1479.7 L807.863 1485.58 L802.978 1485.58 L802.978 1479.7 Z" fill="#000000" fill-rule="nonzero" fill-opacity="1" /><path clip-path="url(#clip700)" d="M818.094 1451.02 L836.45 1451.02 L836.45 1454.96 L822.376 1454.96 L822.376 1463.43 Q823.395 1463.08 824.413 1462.92 Q825.432 1462.73 826.45 1462.73 Q832.237 1462.73 835.617 1465.9 Q838.997 1469.08 838.997 1474.49 Q838.997 1480.07 835.524 1483.17 Q832.052 1486.25 825.733 1486.25 Q823.557 1486.25 821.288 1485.88 Q819.043 1485.51 816.636 1484.77 L816.636 1480.07 Q818.719 1481.2 820.941 1481.76 Q823.163 1482.32 825.64 1482.32 Q829.645 1482.32 831.983 1480.21 Q834.321 1478.1 834.321 1474.49 Q834.321 1470.88 831.983 1468.77 Q829.645 1466.67 825.64 1466.67 Q823.765 1466.67 821.89 1467.08 Q820.038 1467.5 818.094 1468.38 L818.094 1451.02 Z" fill="#000000" fill-rule="nonzero" fill-opacity="1" /><path clip-path="url(#clip700)" d="M1268.31 1451.02 L1286.67 1451.02 L1286.67 1454.96 L1272.6 1454.96 L1272.6 1463.43 Q1273.61 1463.08 1274.63 1462.92 Q1275.65 1462.73 1276.67 1462.73 Q1282.46 1462.73 1285.84 1465.9 Q1289.22 1469.08 1289.22 1474.49 Q1289.22 1480.07 1285.74 1483.17 Q1282.27 1486.25 1275.95 1486.25 Q1273.78 1486.25 1271.51 1485.88 Q1269.26 1485.51 1266.86 1484.77 L1266.86 1480.07 Q1268.94 1481.2 1271.16 1481.76 Q1273.38 1482.32 1275.86 1482.32 Q1279.86 1482.32 1282.2 1480.21 Q1284.54 1478.1 1284.54 1474.49 Q1284.54 1470.88 1282.2 1468.77 Q1279.86 1466.67 1275.86 1466.67 Q1273.98 1466.67 1272.11 1467.08 Q1270.26 1467.5 1268.31 1468.38 L1268.31 1451.02 Z" fill="#000000" fill-rule="nonzero" fill-opacity="1" /><path clip-path="url(#clip700)" d="M1298.43 1479.7 L1303.31 1479.7 L1303.31 1485.58 L1298.43 1485.58 L1298.43 1479.7 Z" fill="#000000" fill-rule="nonzero" fill-opacity="1" /><path clip-path="url(#clip700)" d="M1323.5 1454.1 Q1319.89 1454.1 1318.06 1457.66 Q1316.25 1461.2 1316.25 1468.33 Q1316.25 1475.44 1318.06 1479.01 Q1319.89 1482.55 1323.5 1482.55 Q1327.13 1482.55 1328.94 1479.01 Q1330.77 1475.44 1330.77 1468.33 Q1330.77 1461.2 1328.94 1457.66 Q1327.13 1454.1 1323.5 1454.1 M1323.5 1450.39 Q1329.31 1450.39 1332.36 1455 Q1335.44 1459.58 1335.44 1468.33 Q1335.44 1477.06 1332.36 1481.67 Q1329.31 1486.25 1323.5 1486.25 Q1317.69 1486.25 1314.61 1481.67 Q1311.55 1477.06 1311.55 1468.33 Q1311.55 1459.58 1314.61 1455 Q1317.69 1450.39 1323.5 1450.39 Z" fill="#000000" fill-rule="nonzero" fill-opacity="1" /><path clip-path="url(#clip700)" d="M1763.51 1451.02 L1785.73 1451.02 L1785.73 1453.01 L1773.19 1485.58 L1768.3 1485.58 L1780.11 1454.96 L1763.51 1454.96 L1763.51 1451.02 Z" fill="#000000" fill-rule="nonzero" fill-opacity="1" /><path clip-path="url(#clip700)" d="M1794.85 1479.7 L1799.74 1479.7 L1799.74 1485.58 L1794.85 1485.58 L1794.85 1479.7 Z" fill="#000000" fill-rule="nonzero" fill-opacity="1" /><path clip-path="url(#clip700)" d="M1809.97 1451.02 L1828.32 1451.02 L1828.32 1454.96 L1814.25 1454.96 L1814.25 1463.43 Q1815.27 1463.08 1816.29 1462.92 Q1817.31 1462.73 1818.32 1462.73 Q1824.11 1462.73 1827.49 1465.9 Q1830.87 1469.08 1830.87 1474.49 Q1830.87 1480.07 1827.4 1483.17 Q1823.93 1486.25 1817.61 1486.25 Q1815.43 1486.25 1813.16 1485.88 Q1810.92 1485.51 1808.51 1484.77 L1808.51 1480.07 Q1810.59 1481.2 1812.81 1481.76 Q1815.04 1482.32 1817.51 1482.32 Q1821.52 1482.32 1823.86 1480.21 Q1826.19 1478.1 1826.19 1474.49 Q1826.19 1470.88 1823.86 1468.77 Q1821.52 1466.67 1817.51 1466.67 Q1815.64 1466.67 1813.76 1467.08 Q1811.91 1467.5 1809.97 1468.38 L1809.97 1451.02 Z" fill="#000000" fill-rule="nonzero" fill-opacity="1" /><path clip-path="url(#clip700)" d="M2245.3 1481.64 L2252.94 1481.64 L2252.94 1455.28 L2244.63 1456.95 L2244.63 1452.69 L2252.9 1451.02 L2257.57 1451.02 L2257.57 1481.64 L2265.21 1481.64 L2265.21 1485.58 L2245.3 1485.58 L2245.3 1481.64 Z" fill="#000000" fill-rule="nonzero" fill-opacity="1" /><path clip-path="url(#clip700)" d="M2284.65 1454.1 Q2281.04 1454.1 2279.21 1457.66 Q2277.41 1461.2 2277.41 1468.33 Q2277.41 1475.44 2279.21 1479.01 Q2281.04 1482.55 2284.65 1482.55 Q2288.29 1482.55 2290.09 1479.01 Q2291.92 1475.44 2291.92 1468.33 Q2291.92 1461.2 2290.09 1457.66 Q2288.29 1454.1 2284.65 1454.1 M2284.65 1450.39 Q2290.46 1450.39 2293.52 1455 Q2296.6 1459.58 2296.6 1468.33 Q2296.6 1477.06 2293.52 1481.67 Q2290.46 1486.25 2284.65 1486.25 Q2278.84 1486.25 2275.77 1481.67 Q2272.71 1477.06 2272.71 1468.33 Q2272.71 1459.58 2275.77 1455 Q2278.84 1450.39 2284.65 1450.39 Z" fill="#000000" fill-rule="nonzero" fill-opacity="1" /><path clip-path="url(#clip700)" d="M2304.82 1479.7 L2309.7 1479.7 L2309.7 1485.58 L2304.82 1485.58 L2304.82 1479.7 Z" fill="#000000" fill-rule="nonzero" fill-opacity="1" /><path clip-path="url(#clip700)" d="M2329.89 1454.1 Q2326.27 1454.1 2324.45 1457.66 Q2322.64 1461.2 2322.64 1468.33 Q2322.64 1475.44 2324.45 1479.01 Q2326.27 1482.55 2329.89 1482.55 Q2333.52 1482.55 2335.33 1479.01 Q2337.15 1475.44 2337.15 1468.33 Q2337.15 1461.2 2335.33 1457.66 Q2333.52 1454.1 2329.89 1454.1 M2329.89 1450.39 Q2335.7 1450.39 2338.75 1455 Q2341.83 1459.58 2341.83 1468.33 Q2341.83 1477.06 2338.75 1481.67 Q2335.7 1486.25 2329.89 1486.25 Q2324.08 1486.25 2321 1481.67 Q2317.94 1477.06 2317.94 1468.33 Q2317.94 1459.58 2321 1455 Q2324.08 1450.39 2329.89 1450.39 Z" fill="#000000" fill-rule="nonzero" fill-opacity="1" /><path clip-path="url(#clip700)" d="M1171.32 1520.52 L1211.52 1520.52 L1211.52 1525.93 L1194.65 1525.93 L1194.65 1568.04 L1188.19 1568.04 L1188.19 1525.93 L1171.32 1525.93 L1171.32 1520.52 Z" fill="#000000" fill-rule="nonzero" fill-opacity="1" /><path clip-path="url(#clip700)" d="M1215.47 1532.4 L1221.32 1532.4 L1221.32 1568.04 L1215.47 1568.04 L1215.47 1532.4 M1215.47 1518.52 L1221.32 1518.52 L1221.32 1525.93 L1215.47 1525.93 L1215.47 1518.52 Z" fill="#000000" fill-rule="nonzero" fill-opacity="1" /><path clip-path="url(#clip700)" d="M1261.33 1539.24 Q1263.53 1535.29 1266.58 1533.41 Q1269.64 1531.54 1273.78 1531.54 Q1279.35 1531.54 1282.37 1535.45 Q1285.39 1539.33 1285.39 1546.53 L1285.39 1568.04 L1279.51 1568.04 L1279.51 1546.72 Q1279.51 1541.59 1277.69 1539.11 Q1275.88 1536.63 1272.15 1536.63 Q1267.6 1536.63 1264.96 1539.65 Q1262.32 1542.68 1262.32 1547.9 L1262.32 1568.04 L1256.43 1568.04 L1256.43 1546.72 Q1256.43 1541.56 1254.62 1539.11 Q1252.8 1536.63 1249.01 1536.63 Q1244.53 1536.63 1241.88 1539.68 Q1239.24 1542.71 1239.24 1547.9 L1239.24 1568.04 L1233.35 1568.04 L1233.35 1532.4 L1239.24 1532.4 L1239.24 1537.93 Q1241.25 1534.66 1244.05 1533.1 Q1246.85 1531.54 1250.7 1531.54 Q1254.58 1531.54 1257.29 1533.51 Q1260.03 1535.48 1261.33 1539.24 Z" fill="#000000" fill-rule="nonzero" fill-opacity="1" /><path clip-path="url(#clip700)" d="M1327.57 1548.76 L1327.57 1551.62 L1300.64 1551.62 Q1301.02 1557.67 1304.27 1560.85 Q1307.55 1564 1313.37 1564 Q1316.74 1564 1319.9 1563.17 Q1323.08 1562.35 1326.2 1560.69 L1326.2 1566.23 Q1323.05 1567.57 1319.74 1568.27 Q1316.43 1568.97 1313.02 1568.97 Q1304.49 1568.97 1299.49 1564 Q1294.53 1559.04 1294.53 1550.57 Q1294.53 1541.82 1299.24 1536.69 Q1303.98 1531.54 1312 1531.54 Q1319.2 1531.54 1323.37 1536.18 Q1327.57 1540.8 1327.57 1548.76 M1321.71 1547.04 Q1321.65 1542.23 1319 1539.37 Q1316.39 1536.5 1312.07 1536.5 Q1307.16 1536.5 1304.2 1539.27 Q1301.28 1542.04 1300.83 1547.07 L1321.71 1547.04 Z" fill="#000000" fill-rule="nonzero" fill-opacity="1" /><path clip-path="url(#clip700)" d="M1371.97 1518.58 Q1367.7 1525.9 1365.63 1533.06 Q1363.56 1540.23 1363.56 1547.58 Q1363.56 1554.93 1365.63 1562.16 Q1367.73 1569.35 1371.97 1576.64 L1366.87 1576.64 Q1362.1 1569.16 1359.71 1561.93 Q1357.36 1554.71 1357.36 1547.58 Q1357.36 1540.48 1359.71 1533.29 Q1362.07 1526.09 1366.87 1518.58 L1371.97 1518.58 Z" fill="#000000" fill-rule="nonzero" fill-opacity="1" /><path clip-path="url(#clip700)" d="M1406.06 1533.45 L1406.06 1538.98 Q1403.57 1537.71 1400.9 1537.07 Q1398.23 1536.44 1395.36 1536.44 Q1391 1536.44 1388.8 1537.77 Q1386.64 1539.11 1386.64 1541.79 Q1386.64 1543.82 1388.2 1545 Q1389.76 1546.15 1394.47 1547.2 L1396.48 1547.64 Q1402.71 1548.98 1405.32 1551.43 Q1407.97 1553.85 1407.97 1558.21 Q1407.97 1563.17 1404.02 1566.07 Q1400.1 1568.97 1393.23 1568.97 Q1390.36 1568.97 1387.25 1568.39 Q1384.16 1567.85 1380.72 1566.74 L1380.72 1560.69 Q1383.97 1562.38 1387.12 1563.24 Q1390.27 1564.07 1393.36 1564.07 Q1397.49 1564.07 1399.72 1562.66 Q1401.95 1561.23 1401.95 1558.65 Q1401.95 1556.27 1400.33 1554.99 Q1398.74 1553.72 1393.29 1552.54 L1391.26 1552.07 Q1385.81 1550.92 1383.39 1548.56 Q1380.97 1546.18 1380.97 1542.04 Q1380.97 1537.01 1384.54 1534.27 Q1388.1 1531.54 1394.66 1531.54 Q1397.91 1531.54 1400.77 1532.01 Q1403.64 1532.49 1406.06 1533.45 Z" fill="#000000" fill-rule="nonzero" fill-opacity="1" /><path clip-path="url(#clip700)" d="M1416.37 1518.58 L1421.46 1518.58 Q1426.24 1526.09 1428.59 1533.29 Q1430.98 1540.48 1430.98 1547.58 Q1430.98 1554.71 1428.59 1561.93 Q1426.24 1569.16 1421.46 1576.64 L1416.37 1576.64 Q1420.6 1569.35 1422.67 1562.16 Q1424.77 1554.93 1424.77 1547.58 Q1424.77 1540.23 1422.67 1533.06 Q1420.6 1525.9 1416.37 1518.58 Z" fill="#000000" fill-rule="nonzero" fill-opacity="1" /><polyline clip-path="url(#clip700)" style="stroke:#000000; stroke-linecap:round; stroke-linejoin:round; stroke-width:4; stroke-opacity:1; fill:none" points="249.542,1423.18 249.542,123.472 "/>
<polyline clip-path="url(#clip700)" style="stroke:#000000; stroke-linecap:round; stroke-linejoin:round; stroke-width:4; stroke-opacity:1; fill:none" points="249.542,1386.4 268.44,1386.4 "/>
<polyline clip-path="url(#clip700)" style="stroke:#000000; stroke-linecap:round; stroke-linejoin:round; stroke-width:4; stroke-opacity:1; fill:none" points="249.542,1108.64 268.44,1108.64 "/>
<polyline clip-path="url(#clip700)" style="stroke:#000000; stroke-linecap:round; stroke-linejoin:round; stroke-width:4; stroke-opacity:1; fill:none" points="249.542,830.89 268.44,830.89 "/>
<polyline clip-path="url(#clip700)" style="stroke:#000000; stroke-linecap:round; stroke-linejoin:round; stroke-width:4; stroke-opacity:1; fill:none" points="249.542,553.138 268.44,553.138 "/>
<polyline clip-path="url(#clip700)" style="stroke:#000000; stroke-linecap:round; stroke-linejoin:round; stroke-width:4; stroke-opacity:1; fill:none" points="249.542,275.385 268.44,275.385 "/>
<path clip-path="url(#clip700)" d="M126.205 1372.19 Q122.593 1372.19 120.765 1375.76 Q118.959 1379.3 118.959 1386.43 Q118.959 1393.54 120.765 1397.1 Q122.593 1400.64 126.205 1400.64 Q129.839 1400.64 131.644 1397.1 Q133.473 1393.54 133.473 1386.43 Q133.473 1379.3 131.644 1375.76 Q129.839 1372.19 126.205 1372.19 M126.205 1368.49 Q132.015 1368.49 135.07 1373.1 Q138.149 1377.68 138.149 1386.43 Q138.149 1395.16 135.07 1399.76 Q132.015 1404.35 126.205 1404.35 Q120.394 1404.35 117.316 1399.76 Q114.26 1395.16 114.26 1386.43 Q114.26 1377.68 117.316 1373.1 Q120.394 1368.49 126.205 1368.49 Z" fill="#000000" fill-rule="nonzero" fill-opacity="1" /><path clip-path="url(#clip700)" d="M146.366 1397.8 L151.251 1397.8 L151.251 1403.68 L146.366 1403.68 L146.366 1397.8 Z" fill="#000000" fill-rule="nonzero" fill-opacity="1" /><path clip-path="url(#clip700)" d="M171.436 1372.19 Q167.825 1372.19 165.996 1375.76 Q164.19 1379.3 164.19 1386.43 Q164.19 1393.54 165.996 1397.1 Q167.825 1400.64 171.436 1400.64 Q175.07 1400.64 176.876 1397.1 Q178.704 1393.54 178.704 1386.43 Q178.704 1379.3 176.876 1375.76 Q175.07 1372.19 171.436 1372.19 M171.436 1368.49 Q177.246 1368.49 180.301 1373.1 Q183.38 1377.68 183.38 1386.43 Q183.38 1395.16 180.301 1399.76 Q177.246 1404.35 171.436 1404.35 Q165.626 1404.35 162.547 1399.76 Q159.491 1395.16 159.491 1386.43 Q159.491 1377.68 162.547 1373.1 Q165.626 1368.49 171.436 1368.49 Z" fill="#000000" fill-rule="nonzero" fill-opacity="1" /><path clip-path="url(#clip700)" d="M201.598 1372.19 Q197.987 1372.19 196.158 1375.76 Q194.352 1379.3 194.352 1386.43 Q194.352 1393.54 196.158 1397.1 Q197.987 1400.64 201.598 1400.64 Q205.232 1400.64 207.037 1397.1 Q208.866 1393.54 208.866 1386.43 Q208.866 1379.3 207.037 1375.76 Q205.232 1372.19 201.598 1372.19 M201.598 1368.49 Q207.408 1368.49 210.463 1373.1 Q213.542 1377.68 213.542 1386.43 Q213.542 1395.16 210.463 1399.76 Q207.408 1404.35 201.598 1404.35 Q195.787 1404.35 192.709 1399.76 Q189.653 1395.16 189.653 1386.43 Q189.653 1377.68 192.709 1373.1 Q195.787 1368.49 201.598 1368.49 Z" fill="#000000" fill-rule="nonzero" fill-opacity="1" /><path clip-path="url(#clip700)" d="M127.2 1094.44 Q123.589 1094.44 121.76 1098.01 Q119.955 1101.55 119.955 1108.68 Q119.955 1115.78 121.76 1119.35 Q123.589 1122.89 127.2 1122.89 Q130.834 1122.89 132.64 1119.35 Q134.468 1115.78 134.468 1108.68 Q134.468 1101.55 132.64 1098.01 Q130.834 1094.44 127.2 1094.44 M127.2 1090.74 Q133.01 1090.74 136.066 1095.34 Q139.144 1099.93 139.144 1108.68 Q139.144 1117.4 136.066 1122.01 Q133.01 1126.59 127.2 1126.59 Q121.39 1126.59 118.311 1122.01 Q115.256 1117.4 115.256 1108.68 Q115.256 1099.93 118.311 1095.34 Q121.39 1090.74 127.2 1090.74 Z" fill="#000000" fill-rule="nonzero" fill-opacity="1" /><path clip-path="url(#clip700)" d="M147.362 1120.04 L152.246 1120.04 L152.246 1125.92 L147.362 1125.92 L147.362 1120.04 Z" fill="#000000" fill-rule="nonzero" fill-opacity="1" /><path clip-path="url(#clip700)" d="M172.431 1094.44 Q168.82 1094.44 166.991 1098.01 Q165.186 1101.55 165.186 1108.68 Q165.186 1115.78 166.991 1119.35 Q168.82 1122.89 172.431 1122.89 Q176.065 1122.89 177.871 1119.35 Q179.7 1115.78 179.7 1108.68 Q179.7 1101.55 177.871 1098.01 Q176.065 1094.44 172.431 1094.44 M172.431 1090.74 Q178.241 1090.74 181.297 1095.34 Q184.376 1099.93 184.376 1108.68 Q184.376 1117.4 181.297 1122.01 Q178.241 1126.59 172.431 1126.59 Q166.621 1126.59 163.542 1122.01 Q160.487 1117.4 160.487 1108.68 Q160.487 1099.93 163.542 1095.34 Q166.621 1090.74 172.431 1090.74 Z" fill="#000000" fill-rule="nonzero" fill-opacity="1" /><path clip-path="url(#clip700)" d="M192.639 1091.36 L210.996 1091.36 L210.996 1095.3 L196.922 1095.3 L196.922 1103.77 Q197.94 1103.42 198.959 1103.26 Q199.977 1103.08 200.996 1103.08 Q206.783 1103.08 210.162 1106.25 Q213.542 1109.42 213.542 1114.84 Q213.542 1120.41 210.07 1123.52 Q206.598 1126.59 200.278 1126.59 Q198.102 1126.59 195.834 1126.22 Q193.588 1125.85 191.181 1125.11 L191.181 1120.41 Q193.264 1121.55 195.487 1122.1 Q197.709 1122.66 200.186 1122.66 Q204.19 1122.66 206.528 1120.55 Q208.866 1118.45 208.866 1114.84 Q208.866 1111.22 206.528 1109.12 Q204.19 1107.01 200.186 1107.01 Q198.311 1107.01 196.436 1107.43 Q194.584 1107.84 192.639 1108.72 L192.639 1091.36 Z" fill="#000000" fill-rule="nonzero" fill-opacity="1" /><path clip-path="url(#clip700)" d="M126.205 816.689 Q122.593 816.689 120.765 820.254 Q118.959 823.795 118.959 830.925 Q118.959 838.031 120.765 841.596 Q122.593 845.138 126.205 845.138 Q129.839 845.138 131.644 841.596 Q133.473 838.031 133.473 830.925 Q133.473 823.795 131.644 820.254 Q129.839 816.689 126.205 816.689 M126.205 812.985 Q132.015 812.985 135.07 817.592 Q138.149 822.175 138.149 830.925 Q138.149 839.652 135.07 844.258 Q132.015 848.842 126.205 848.842 Q120.394 848.842 117.316 844.258 Q114.26 839.652 114.26 830.925 Q114.26 822.175 117.316 817.592 Q120.394 812.985 126.205 812.985 Z" fill="#000000" fill-rule="nonzero" fill-opacity="1" /><path clip-path="url(#clip700)" d="M146.366 842.291 L151.251 842.291 L151.251 848.17 L146.366 848.17 L146.366 842.291 Z" fill="#000000" fill-rule="nonzero" fill-opacity="1" /><path clip-path="url(#clip700)" d="M162.246 844.235 L169.885 844.235 L169.885 817.869 L161.575 819.536 L161.575 815.277 L169.839 813.61 L174.514 813.61 L174.514 844.235 L182.153 844.235 L182.153 848.17 L162.246 848.17 L162.246 844.235 Z" fill="#000000" fill-rule="nonzero" fill-opacity="1" /><path clip-path="url(#clip700)" d="M201.598 816.689 Q197.987 816.689 196.158 820.254 Q194.352 823.795 194.352 830.925 Q194.352 838.031 196.158 841.596 Q197.987 845.138 201.598 845.138 Q205.232 845.138 207.037 841.596 Q208.866 838.031 208.866 830.925 Q208.866 823.795 207.037 820.254 Q205.232 816.689 201.598 816.689 M201.598 812.985 Q207.408 812.985 210.463 817.592 Q213.542 822.175 213.542 830.925 Q213.542 839.652 210.463 844.258 Q207.408 848.842 201.598 848.842 Q195.787 848.842 192.709 844.258 Q189.653 839.652 189.653 830.925 Q189.653 822.175 192.709 817.592 Q195.787 812.985 201.598 812.985 Z" fill="#000000" fill-rule="nonzero" fill-opacity="1" /><path clip-path="url(#clip700)" d="M127.2 538.936 Q123.589 538.936 121.76 542.501 Q119.955 546.043 119.955 553.172 Q119.955 560.279 121.76 563.843 Q123.589 567.385 127.2 567.385 Q130.834 567.385 132.64 563.843 Q134.468 560.279 134.468 553.172 Q134.468 546.043 132.64 542.501 Q130.834 538.936 127.2 538.936 M127.2 535.233 Q133.01 535.233 136.066 539.839 Q139.144 544.422 139.144 553.172 Q139.144 561.899 136.066 566.506 Q133.01 571.089 127.2 571.089 Q121.39 571.089 118.311 566.506 Q115.256 561.899 115.256 553.172 Q115.256 544.422 118.311 539.839 Q121.39 535.233 127.2 535.233 Z" fill="#000000" fill-rule="nonzero" fill-opacity="1" /><path clip-path="url(#clip700)" d="M147.362 564.538 L152.246 564.538 L152.246 570.418 L147.362 570.418 L147.362 564.538 Z" fill="#000000" fill-rule="nonzero" fill-opacity="1" /><path clip-path="url(#clip700)" d="M163.241 566.482 L170.88 566.482 L170.88 540.117 L162.57 541.783 L162.57 537.524 L170.834 535.858 L175.51 535.858 L175.51 566.482 L183.149 566.482 L183.149 570.418 L163.241 570.418 L163.241 566.482 Z" fill="#000000" fill-rule="nonzero" fill-opacity="1" /><path clip-path="url(#clip700)" d="M192.639 535.858 L210.996 535.858 L210.996 539.793 L196.922 539.793 L196.922 548.265 Q197.94 547.918 198.959 547.756 Q199.977 547.57 200.996 547.57 Q206.783 547.57 210.162 550.742 Q213.542 553.913 213.542 559.33 Q213.542 564.908 210.07 568.01 Q206.598 571.089 200.278 571.089 Q198.102 571.089 195.834 570.718 Q193.588 570.348 191.181 569.607 L191.181 564.908 Q193.264 566.043 195.487 566.598 Q197.709 567.154 200.186 567.154 Q204.19 567.154 206.528 565.047 Q208.866 562.941 208.866 559.33 Q208.866 555.719 206.528 553.612 Q204.19 551.506 200.186 551.506 Q198.311 551.506 196.436 551.922 Q194.584 552.339 192.639 553.219 L192.639 535.858 Z" fill="#000000" fill-rule="nonzero" fill-opacity="1" /><path clip-path="url(#clip700)" d="M126.205 261.183 Q122.593 261.183 120.765 264.748 Q118.959 268.29 118.959 275.42 Q118.959 282.526 120.765 286.091 Q122.593 289.632 126.205 289.632 Q129.839 289.632 131.644 286.091 Q133.473 282.526 133.473 275.42 Q133.473 268.29 131.644 264.748 Q129.839 261.183 126.205 261.183 M126.205 257.48 Q132.015 257.48 135.07 262.086 Q138.149 266.67 138.149 275.42 Q138.149 284.146 135.07 288.753 Q132.015 293.336 126.205 293.336 Q120.394 293.336 117.316 288.753 Q114.26 284.146 114.26 275.42 Q114.26 266.67 117.316 262.086 Q120.394 257.48 126.205 257.48 Z" fill="#000000" fill-rule="nonzero" fill-opacity="1" /><path clip-path="url(#clip700)" d="M146.366 286.785 L151.251 286.785 L151.251 292.665 L146.366 292.665 L146.366 286.785 Z" fill="#000000" fill-rule="nonzero" fill-opacity="1" /><path clip-path="url(#clip700)" d="M165.464 288.73 L181.783 288.73 L181.783 292.665 L159.839 292.665 L159.839 288.73 Q162.501 285.975 167.084 281.345 Q171.69 276.693 172.871 275.35 Q175.116 272.827 175.996 271.091 Q176.899 269.332 176.899 267.642 Q176.899 264.887 174.954 263.151 Q173.033 261.415 169.931 261.415 Q167.732 261.415 165.278 262.179 Q162.848 262.943 160.07 264.494 L160.07 259.771 Q162.894 258.637 165.348 258.059 Q167.802 257.48 169.839 257.48 Q175.209 257.48 178.403 260.165 Q181.598 262.85 181.598 267.341 Q181.598 269.47 180.788 271.392 Q180.001 273.29 177.894 275.882 Q177.315 276.554 174.214 279.771 Q171.112 282.966 165.464 288.73 Z" fill="#000000" fill-rule="nonzero" fill-opacity="1" /><path clip-path="url(#clip700)" d="M201.598 261.183 Q197.987 261.183 196.158 264.748 Q194.352 268.29 194.352 275.42 Q194.352 282.526 196.158 286.091 Q197.987 289.632 201.598 289.632 Q205.232 289.632 207.037 286.091 Q208.866 282.526 208.866 275.42 Q208.866 268.29 207.037 264.748 Q205.232 261.183 201.598 261.183 M201.598 257.48 Q207.408 257.48 210.463 262.086 Q213.542 266.67 213.542 275.42 Q213.542 284.146 210.463 288.753 Q207.408 293.336 201.598 293.336 Q195.787 293.336 192.709 288.753 Q189.653 284.146 189.653 275.42 Q189.653 266.67 192.709 262.086 Q195.787 257.48 201.598 257.48 Z" fill="#000000" fill-rule="nonzero" fill-opacity="1" /><path clip-path="url(#clip700)" d="M16.4842 1213.44 L16.4842 1173.24 L21.895 1173.24 L21.895 1190.1 L64.0042 1190.1 L64.0042 1196.57 L21.895 1196.57 L21.895 1213.44 L16.4842 1213.44 Z" fill="#000000" fill-rule="nonzero" fill-opacity="1" /><path clip-path="url(#clip700)" d="M32.4621 1164.55 Q32.4621 1169.26 36.1542 1171.99 Q39.8145 1174.73 46.212 1174.73 Q52.6095 1174.73 56.3017 1172.03 Q59.9619 1169.29 59.9619 1164.55 Q59.9619 1159.87 56.2698 1157.13 Q52.5777 1154.39 46.212 1154.39 Q39.8781 1154.39 36.186 1157.13 Q32.4621 1159.87 32.4621 1164.55 M27.4968 1164.55 Q27.4968 1156.91 32.4621 1152.55 Q37.4273 1148.19 46.212 1148.19 Q54.9649 1148.19 59.9619 1152.55 Q64.9272 1156.91 64.9272 1164.55 Q64.9272 1172.22 59.9619 1176.58 Q54.9649 1180.91 46.212 1180.91 Q37.4273 1180.91 32.4621 1176.58 Q27.4968 1172.22 27.4968 1164.55 Z" fill="#000000" fill-rule="nonzero" fill-opacity="1" /><path clip-path="url(#clip700)" d="M18.2347 1132.69 L28.3562 1132.69 L28.3562 1120.62 L32.9077 1120.62 L32.9077 1132.69 L52.2594 1132.69 Q56.6199 1132.69 57.8613 1131.51 Q59.1026 1130.3 59.1026 1126.64 L59.1026 1120.62 L64.0042 1120.62 L64.0042 1126.64 Q64.0042 1133.42 61.4897 1136 Q58.9434 1138.57 52.2594 1138.57 L32.9077 1138.57 L32.9077 1142.87 L28.3562 1142.87 L28.3562 1138.57 L18.2347 1138.57 L18.2347 1132.69 Z" fill="#000000" fill-rule="nonzero" fill-opacity="1" /><path clip-path="url(#clip700)" d="M46.0847 1096.72 Q46.0847 1103.82 47.7079 1106.55 Q49.3312 1109.29 53.2461 1109.29 Q56.3653 1109.29 58.2114 1107.26 Q60.0256 1105.19 60.0256 1101.65 Q60.0256 1096.78 56.5881 1093.86 Q53.1188 1090.9 47.3897 1090.9 L46.0847 1090.9 L46.0847 1096.72 M43.6657 1085.04 L64.0042 1085.04 L64.0042 1090.9 L58.5933 1090.9 Q61.8398 1092.9 63.3994 1095.89 Q64.9272 1098.88 64.9272 1103.21 Q64.9272 1108.69 61.8716 1111.93 Q58.7843 1115.15 53.6281 1115.15 Q47.6125 1115.15 44.5569 1111.14 Q41.5014 1107.1 41.5014 1099.11 L41.5014 1090.9 L40.9285 1090.9 Q36.8862 1090.9 34.6901 1093.57 Q32.4621 1096.21 32.4621 1101.02 Q32.4621 1104.07 33.1941 1106.97 Q33.9262 1109.86 35.3903 1112.54 L29.9795 1112.54 Q28.7381 1109.32 28.1334 1106.3 Q27.4968 1103.28 27.4968 1100.41 Q27.4968 1092.68 31.5072 1088.86 Q35.5176 1085.04 43.6657 1085.04 Z" fill="#000000" fill-rule="nonzero" fill-opacity="1" /><path clip-path="url(#clip700)" d="M14.479 1072.98 L14.479 1067.12 L64.0042 1067.12 L64.0042 1072.98 L14.479 1072.98 Z" fill="#000000" fill-rule="nonzero" fill-opacity="1" /><path clip-path="url(#clip700)" d="M35.1993 1006.39 Q31.2526 1004.19 29.3747 1001.14 Q27.4968 998.083 27.4968 993.945 Q27.4968 988.375 31.4117 985.352 Q35.2948 982.328 42.4881 982.328 L64.0042 982.328 L64.0042 988.216 L42.679 988.216 Q37.5546 988.216 35.072 990.031 Q32.5894 991.845 32.5894 995.569 Q32.5894 1000.12 35.6131 1002.76 Q38.6368 1005.4 43.8567 1005.4 L64.0042 1005.4 L64.0042 1011.29 L42.679 1011.29 Q37.5228 1011.29 35.072 1013.11 Q32.5894 1014.92 32.5894 1018.71 Q32.5894 1023.2 35.6449 1025.84 Q38.6686 1028.48 43.8567 1028.48 L64.0042 1028.48 L64.0042 1034.37 L28.3562 1034.37 L28.3562 1028.48 L33.8944 1028.48 Q30.616 1026.47 29.0564 1023.67 Q27.4968 1020.87 27.4968 1017.02 Q27.4968 1013.14 29.4702 1010.43 Q31.4436 1007.7 35.1993 1006.39 Z" fill="#000000" fill-rule="nonzero" fill-opacity="1" /><path clip-path="url(#clip700)" d="M44.7161 940.155 L47.5806 940.155 L47.5806 967.082 Q53.6281 966.7 56.8109 963.454 Q59.9619 960.175 59.9619 954.351 Q59.9619 950.977 59.1344 947.826 Q58.3069 944.643 56.6518 941.524 L62.1899 941.524 Q63.5267 944.675 64.227 947.985 Q64.9272 951.295 64.9272 954.701 Q64.9272 963.231 59.9619 968.228 Q54.9967 973.193 46.5303 973.193 Q37.7774 973.193 32.6531 968.483 Q27.4968 963.74 27.4968 955.719 Q27.4968 948.526 32.1438 944.357 Q36.7589 940.155 44.7161 940.155 M42.9973 946.012 Q38.1912 946.075 35.3266 948.717 Q32.4621 951.327 32.4621 955.656 Q32.4621 960.557 35.2312 963.517 Q38.0002 966.446 43.0292 966.891 L42.9973 946.012 Z" fill="#000000" fill-rule="nonzero" fill-opacity="1" /><path clip-path="url(#clip700)" d="M29.7248 904.889 L35.1993 904.889 Q33.8307 907.372 33.1623 909.886 Q32.4621 912.369 32.4621 914.915 Q32.4621 920.613 36.0905 923.764 Q39.6872 926.915 46.212 926.915 Q52.7369 926.915 56.3653 923.764 Q59.9619 920.613 59.9619 914.915 Q59.9619 912.369 59.2935 909.886 Q58.5933 907.372 57.2247 904.889 L62.6355 904.889 Q63.7814 907.34 64.3543 909.982 Q64.9272 912.592 64.9272 915.552 Q64.9272 923.604 59.8664 928.347 Q54.8057 933.089 46.212 933.089 Q37.491 933.089 32.4939 928.315 Q27.4968 923.509 27.4968 915.17 Q27.4968 912.464 28.0697 909.886 Q28.6108 907.308 29.7248 904.889 Z" fill="#000000" fill-rule="nonzero" fill-opacity="1" /><path clip-path="url(#clip700)" d="M42.4881 865.072 L64.0042 865.072 L64.0042 870.928 L42.679 870.928 Q37.6183 870.928 35.1038 872.902 Q32.5894 874.875 32.5894 878.822 Q32.5894 883.564 35.6131 886.301 Q38.6368 889.039 43.8567 889.039 L64.0042 889.039 L64.0042 894.927 L14.479 894.927 L14.479 889.039 L33.8944 889.039 Q30.6797 886.938 29.0883 884.105 Q27.4968 881.241 27.4968 877.517 Q27.4968 871.374 31.3163 868.223 Q35.1038 865.072 42.4881 865.072 Z" fill="#000000" fill-rule="nonzero" fill-opacity="1" /><path clip-path="url(#clip700)" d="M46.0847 837.19 Q46.0847 844.288 47.7079 847.025 Q49.3312 849.762 53.2461 849.762 Q56.3653 849.762 58.2114 847.725 Q60.0256 845.656 60.0256 842.123 Q60.0256 837.254 56.5881 834.325 Q53.1188 831.365 47.3897 831.365 L46.0847 831.365 L46.0847 837.19 M43.6657 825.509 L64.0042 825.509 L64.0042 831.365 L58.5933 831.365 Q61.8398 833.371 63.3994 836.362 Q64.9272 839.354 64.9272 843.683 Q64.9272 849.157 61.8716 852.404 Q58.7843 855.619 53.6281 855.619 Q47.6125 855.619 44.5569 851.608 Q41.5014 847.566 41.5014 839.577 L41.5014 831.365 L40.9285 831.365 Q36.8862 831.365 34.6901 834.039 Q32.4621 836.681 32.4621 841.487 Q32.4621 844.542 33.1941 847.439 Q33.9262 850.335 35.3903 853.009 L29.9795 853.009 Q28.7381 849.794 28.1334 846.77 Q27.4968 843.747 27.4968 840.882 Q27.4968 833.148 31.5072 829.328 Q35.5176 825.509 43.6657 825.509 Z" fill="#000000" fill-rule="nonzero" fill-opacity="1" /><path clip-path="url(#clip700)" d="M42.4881 783.813 L64.0042 783.813 L64.0042 789.67 L42.679 789.67 Q37.6183 789.67 35.1038 791.643 Q32.5894 793.617 32.5894 797.563 Q32.5894 802.306 35.6131 805.043 Q38.6368 807.78 43.8567 807.78 L64.0042 807.78 L64.0042 813.669 L28.3562 813.669 L28.3562 807.78 L33.8944 807.78 Q30.6797 805.68 29.0883 802.847 Q27.4968 799.982 27.4968 796.258 Q27.4968 790.116 31.3163 786.965 Q35.1038 783.813 42.4881 783.813 Z" fill="#000000" fill-rule="nonzero" fill-opacity="1" /><path clip-path="url(#clip700)" d="M28.3562 772.132 L28.3562 766.276 L64.0042 766.276 L64.0042 772.132 L28.3562 772.132 M14.479 772.132 L14.479 766.276 L21.895 766.276 L21.895 772.132 L14.479 772.132 Z" fill="#000000" fill-rule="nonzero" fill-opacity="1" /><path clip-path="url(#clip700)" d="M29.7248 728.368 L35.1993 728.368 Q33.8307 730.851 33.1623 733.365 Q32.4621 735.848 32.4621 738.394 Q32.4621 744.091 36.0905 747.243 Q39.6872 750.394 46.212 750.394 Q52.7369 750.394 56.3653 747.243 Q59.9619 744.091 59.9619 738.394 Q59.9619 735.848 59.2935 733.365 Q58.5933 730.851 57.2247 728.368 L62.6355 728.368 Q63.7814 730.819 64.3543 733.461 Q64.9272 736.071 64.9272 739.031 Q64.9272 747.083 59.8664 751.826 Q54.8057 756.568 46.212 756.568 Q37.491 756.568 32.4939 751.794 Q27.4968 746.988 27.4968 738.649 Q27.4968 735.943 28.0697 733.365 Q28.6108 730.787 29.7248 728.368 Z" fill="#000000" fill-rule="nonzero" fill-opacity="1" /><path clip-path="url(#clip700)" d="M46.0847 701.982 Q46.0847 709.08 47.7079 711.817 Q49.3312 714.555 53.2461 714.555 Q56.3653 714.555 58.2114 712.518 Q60.0256 710.449 60.0256 706.916 Q60.0256 702.046 56.5881 699.118 Q53.1188 696.158 47.3897 696.158 L46.0847 696.158 L46.0847 701.982 M43.6657 690.301 L64.0042 690.301 L64.0042 696.158 L58.5933 696.158 Q61.8398 698.163 63.3994 701.155 Q64.9272 704.147 64.9272 708.475 Q64.9272 713.95 61.8716 717.196 Q58.7843 720.411 53.6281 720.411 Q47.6125 720.411 44.5569 716.401 Q41.5014 712.358 41.5014 704.369 L41.5014 696.158 L40.9285 696.158 Q36.8862 696.158 34.6901 698.831 Q32.4621 701.473 32.4621 706.279 Q32.4621 709.335 33.1941 712.231 Q33.9262 715.128 35.3903 717.801 L29.9795 717.801 Q28.7381 714.586 28.1334 711.563 Q27.4968 708.539 27.4968 705.674 Q27.4968 697.94 31.5072 694.121 Q35.5176 690.301 43.6657 690.301 Z" fill="#000000" fill-rule="nonzero" fill-opacity="1" /><path clip-path="url(#clip700)" d="M14.479 678.238 L14.479 672.382 L64.0042 672.382 L64.0042 678.238 L14.479 678.238 Z" fill="#000000" fill-rule="nonzero" fill-opacity="1" /><path clip-path="url(#clip700)" d="M44.7161 608.916 L47.5806 608.916 L47.5806 635.843 Q53.6281 635.461 56.8109 632.214 Q59.9619 628.936 59.9619 623.111 Q59.9619 619.737 59.1344 616.586 Q58.3069 613.404 56.6518 610.284 L62.1899 610.284 Q63.5267 613.435 64.227 616.746 Q64.9272 620.056 64.9272 623.461 Q64.9272 631.991 59.9619 636.988 Q54.9967 641.954 46.5303 641.954 Q37.7774 641.954 32.6531 637.243 Q27.4968 632.501 27.4968 624.48 Q27.4968 617.287 32.1438 613.117 Q36.7589 608.916 44.7161 608.916 M42.9973 614.772 Q38.1912 614.836 35.3266 617.478 Q32.4621 620.088 32.4621 624.416 Q32.4621 629.318 35.2312 632.278 Q38.0002 635.206 43.0292 635.652 L42.9973 614.772 Z" fill="#000000" fill-rule="nonzero" fill-opacity="1" /><path clip-path="url(#clip700)" d="M42.4881 569.671 L64.0042 569.671 L64.0042 575.528 L42.679 575.528 Q37.6183 575.528 35.1038 577.501 Q32.5894 579.474 32.5894 583.421 Q32.5894 588.163 35.6131 590.901 Q38.6368 593.638 43.8567 593.638 L64.0042 593.638 L64.0042 599.526 L28.3562 599.526 L28.3562 593.638 L33.8944 593.638 Q30.6797 591.537 29.0883 588.705 Q27.4968 585.84 27.4968 582.116 Q27.4968 575.973 31.3163 572.822 Q35.1038 569.671 42.4881 569.671 Z" fill="#000000" fill-rule="nonzero" fill-opacity="1" /><path clip-path="url(#clip700)" d="M44.7161 527.498 L47.5806 527.498 L47.5806 554.425 Q53.6281 554.043 56.8109 550.797 Q59.9619 547.518 59.9619 541.694 Q59.9619 538.32 59.1344 535.169 Q58.3069 531.986 56.6518 528.867 L62.1899 528.867 Q63.5267 532.018 64.227 535.328 Q64.9272 538.638 64.9272 542.044 Q64.9272 550.574 59.9619 555.571 Q54.9967 560.536 46.5303 560.536 Q37.7774 560.536 32.6531 555.826 Q27.4968 551.083 27.4968 543.062 Q27.4968 535.869 32.1438 531.7 Q36.7589 527.498 44.7161 527.498 M42.9973 533.355 Q38.1912 533.418 35.3266 536.06 Q32.4621 538.67 32.4621 542.999 Q32.4621 547.9 35.2312 550.86 Q38.0002 553.789 43.0292 554.234 L42.9973 533.355 Z" fill="#000000" fill-rule="nonzero" fill-opacity="1" /><path clip-path="url(#clip700)" d="M33.8307 497.229 Q33.2578 498.216 33.0032 499.394 Q32.7167 500.54 32.7167 501.94 Q32.7167 506.905 35.9632 509.579 Q39.1779 512.221 45.2253 512.221 L64.0042 512.221 L64.0042 518.109 L28.3562 518.109 L28.3562 512.221 L33.8944 512.221 Q30.6479 510.375 29.0883 507.415 Q27.4968 504.454 27.4968 500.221 Q27.4968 499.617 27.5923 498.884 Q27.656 498.152 27.8151 497.261 L33.8307 497.229 Z" fill="#000000" fill-rule="nonzero" fill-opacity="1" /><path clip-path="url(#clip700)" d="M45.7664 468.775 Q39.4007 468.775 35.8996 471.416 Q32.3984 474.026 32.3984 478.769 Q32.3984 483.479 35.8996 486.121 Q39.4007 488.731 45.7664 488.731 Q52.1003 488.731 55.6014 486.121 Q59.1026 483.479 59.1026 478.769 Q59.1026 474.026 55.6014 471.416 Q52.1003 468.775 45.7664 468.775 M59.58 462.918 Q68.683 462.918 73.1071 466.96 Q77.5631 471.003 77.5631 479.342 Q77.5631 482.429 77.0857 485.166 Q76.6401 487.904 75.6852 490.482 L69.9879 490.482 Q71.3884 487.904 72.0568 485.389 Q72.7252 482.875 72.7252 480.265 Q72.7252 474.504 69.7015 471.639 Q66.7096 468.775 60.6303 468.775 L57.7339 468.775 Q60.885 470.589 62.4446 473.422 Q64.0042 476.254 64.0042 480.201 Q64.0042 486.758 59.0071 490.768 Q54.01 494.779 45.7664 494.779 Q37.491 494.779 32.4939 490.768 Q27.4968 486.758 27.4968 480.201 Q27.4968 476.254 29.0564 473.422 Q30.616 470.589 33.7671 468.775 L28.3562 468.775 L28.3562 462.918 L59.58 462.918 Z" fill="#000000" fill-rule="nonzero" fill-opacity="1" /><path clip-path="url(#clip700)" d="M67.3143 436.023 Q73.68 438.506 75.6216 440.861 Q77.5631 443.216 77.5631 447.163 L77.5631 451.842 L72.6615 451.842 L72.6615 448.404 Q72.6615 445.985 71.5157 444.649 Q70.3699 443.312 66.1048 441.689 L63.4312 440.638 L28.3562 455.057 L28.3562 448.85 L56.238 437.71 L28.3562 426.57 L28.3562 420.363 L67.3143 436.023 Z" fill="#000000" fill-rule="nonzero" fill-opacity="1" /><path clip-path="url(#clip700)" d="M14.5426 377.49 Q21.8632 381.755 29.0246 383.824 Q36.186 385.893 43.5384 385.893 Q50.8908 385.893 58.1159 383.824 Q65.3091 381.724 72.5979 377.49 L72.5979 382.583 Q65.1182 387.357 57.8931 389.744 Q50.668 392.1 43.5384 392.1 Q36.4406 392.1 29.2474 389.744 Q22.0542 387.389 14.5426 382.583 L14.5426 377.49 Z" fill="#000000" fill-rule="nonzero" fill-opacity="1" /><path clip-path="url(#clip700)" d="M16.4842 365.873 L16.4842 359.444 L60.694 359.444 Q69.2877 359.444 73.1708 362.722 Q77.0539 365.969 77.0539 373.194 L77.0539 375.644 L71.643 375.644 L71.643 373.639 Q71.643 369.374 69.2559 367.624 Q66.8687 365.873 60.694 365.873 L16.4842 365.873 Z" fill="#000000" fill-rule="nonzero" fill-opacity="1" /><path clip-path="url(#clip700)" d="M14.5426 347.826 L14.5426 342.734 Q22.0542 337.959 29.2474 335.604 Q36.4406 333.217 43.5384 333.217 Q50.668 333.217 57.8931 335.604 Q65.1182 337.959 72.5979 342.734 L72.5979 347.826 Q65.3091 343.593 58.1159 341.524 Q50.8908 339.424 43.5384 339.424 Q36.186 339.424 29.0246 341.524 Q21.8632 343.593 14.5426 347.826 Z" fill="#000000" fill-rule="nonzero" fill-opacity="1" /><path clip-path="url(#clip700)" d="M626.957 12.096 L665.198 12.096 L665.198 18.9825 L635.14 18.9825 L635.14 36.8875 L663.942 36.8875 L663.942 43.7741 L635.14 43.7741 L635.14 65.6895 L665.927 65.6895 L665.927 72.576 L626.957 72.576 L626.957 12.096 Z" fill="#000000" fill-rule="nonzero" fill-opacity="1" /><path clip-path="url(#clip700)" d="M716.766 45.1919 L716.766 72.576 L709.312 72.576 L709.312 45.4349 Q709.312 38.994 706.8 35.7938 Q704.289 32.5936 699.266 32.5936 Q693.23 32.5936 689.746 36.4419 Q686.262 40.2903 686.262 46.9338 L686.262 72.576 L678.768 72.576 L678.768 27.2059 L686.262 27.2059 L686.262 34.2544 Q688.936 30.163 692.541 28.1376 Q696.187 26.1121 700.926 26.1121 Q708.745 26.1121 712.755 30.9732 Q716.766 35.7938 716.766 45.1919 Z" fill="#000000" fill-rule="nonzero" fill-opacity="1" /><path clip-path="url(#clip700)" d="M770.44 48.0275 L770.44 51.6733 L736.169 51.6733 Q736.655 59.3701 740.787 63.421 Q744.96 67.4314 752.373 67.4314 Q756.667 67.4314 760.677 66.3781 Q764.728 65.3249 768.698 63.2184 L768.698 70.267 Q764.688 71.9684 760.475 72.8596 Q756.262 73.7508 751.927 73.7508 Q741.071 73.7508 734.711 67.4314 Q728.392 61.1119 728.392 50.3365 Q728.392 39.1965 734.387 32.6746 Q740.423 26.1121 750.631 26.1121 Q759.786 26.1121 765.093 32.0264 Q770.44 37.9003 770.44 48.0275 M762.986 45.84 Q762.905 39.7232 759.543 36.0774 Q756.221 32.4315 750.712 32.4315 Q744.474 32.4315 740.706 35.9558 Q736.98 39.4801 736.412 45.8805 L762.986 45.84 Z" fill="#000000" fill-rule="nonzero" fill-opacity="1" /><path clip-path="url(#clip700)" d="M808.964 34.1734 Q807.708 33.4443 806.209 33.1202 Q804.751 32.7556 802.969 32.7556 Q796.649 32.7556 793.247 36.8875 Q789.884 40.9789 789.884 48.6757 L789.884 72.576 L782.39 72.576 L782.39 27.2059 L789.884 27.2059 L789.884 34.2544 Q792.234 30.1225 796.001 28.1376 Q799.769 26.1121 805.156 26.1121 Q805.926 26.1121 806.858 26.2337 Q807.789 26.3147 808.924 26.5172 L808.964 34.1734 Z" fill="#000000" fill-rule="nonzero" fill-opacity="1" /><path clip-path="url(#clip700)" d="M845.179 49.3643 Q845.179 41.2625 841.817 36.8065 Q838.495 32.3505 832.459 32.3505 Q826.464 32.3505 823.102 36.8065 Q819.78 41.2625 819.78 49.3643 Q819.78 57.4256 823.102 61.8816 Q826.464 66.3376 832.459 66.3376 Q838.495 66.3376 841.817 61.8816 Q845.179 57.4256 845.179 49.3643 M852.633 66.9452 Q852.633 78.5308 847.488 84.1616 Q842.344 89.8329 831.73 89.8329 Q827.801 89.8329 824.317 89.2252 Q820.833 88.6581 817.552 87.4428 L817.552 80.1917 Q820.833 81.9741 824.033 82.8248 Q827.234 83.6755 830.555 83.6755 Q837.888 83.6755 841.533 79.8271 Q845.179 76.0193 845.179 68.282 L845.179 64.5957 Q842.87 68.6061 839.265 70.5911 Q835.66 72.576 830.636 72.576 Q822.292 72.576 817.187 66.2161 Q812.083 59.8562 812.083 49.3643 Q812.083 38.832 817.187 32.472 Q822.292 26.1121 830.636 26.1121 Q835.66 26.1121 839.265 28.0971 Q842.87 30.082 845.179 34.0924 L845.179 27.2059 L852.633 27.2059 L852.633 66.9452 Z" fill="#000000" fill-rule="nonzero" fill-opacity="1" /><path clip-path="url(#clip700)" d="M886.863 76.7889 Q883.703 84.8907 880.706 87.3618 Q877.708 89.8329 872.685 89.8329 L866.73 89.8329 L866.73 83.5945 L871.105 83.5945 Q874.184 83.5945 875.885 82.1361 Q877.586 80.6778 879.652 75.2496 L880.989 71.8468 L862.639 27.2059 L870.538 27.2059 L884.716 62.6918 L898.894 27.2059 L906.793 27.2059 L886.863 76.7889 Z" fill="#000000" fill-rule="nonzero" fill-opacity="1" /><path clip-path="url(#clip700)" d="M972.459 44.2197 Q975.092 45.1109 977.563 48.0275 Q980.074 50.9442 982.586 56.0483 L990.89 72.576 L982.1 72.576 L974.363 57.061 Q971.365 50.9847 968.529 48.9997 Q965.734 47.0148 960.873 47.0148 L951.961 47.0148 L951.961 72.576 L943.778 72.576 L943.778 12.096 L962.25 12.096 Q972.621 12.096 977.725 16.4305 Q982.829 20.7649 982.829 29.5149 Q982.829 35.2267 980.155 38.994 Q977.522 42.7613 972.459 44.2197 M951.961 18.8205 L951.961 40.2903 L962.25 40.2903 Q968.165 40.2903 971.162 37.5762 Q974.2 34.8216 974.2 29.5149 Q974.2 24.2082 971.162 21.5346 Q968.165 18.8205 962.25 18.8205 L951.961 18.8205 Z" fill="#000000" fill-rule="nonzero" fill-opacity="1" /><path clip-path="url(#clip700)" d="M1036.18 48.0275 L1036.18 51.6733 L1001.91 51.6733 Q1002.39 59.3701 1006.53 63.421 Q1010.7 67.4314 1018.11 67.4314 Q1022.41 67.4314 1026.42 66.3781 Q1030.47 65.3249 1034.44 63.2184 L1034.44 70.267 Q1030.43 71.9684 1026.21 72.8596 Q1022 73.7508 1017.67 73.7508 Q1006.81 73.7508 1000.45 67.4314 Q994.131 61.1119 994.131 50.3365 Q994.131 39.1965 1000.13 32.6746 Q1006.16 26.1121 1016.37 26.1121 Q1025.53 26.1121 1030.83 32.0264 Q1036.18 37.9003 1036.18 48.0275 M1028.73 45.84 Q1028.64 39.7232 1025.28 36.0774 Q1021.96 32.4315 1016.45 32.4315 Q1010.21 32.4315 1006.45 35.9558 Q1002.72 39.4801 1002.15 45.8805 L1028.73 45.84 Z" fill="#000000" fill-rule="nonzero" fill-opacity="1" /><path clip-path="url(#clip700)" d="M1083.74 35.9153 Q1086.53 30.8922 1090.42 28.5022 Q1094.31 26.1121 1099.58 26.1121 Q1106.67 26.1121 1110.51 31.0947 Q1114.36 36.0368 1114.36 45.1919 L1114.36 72.576 L1106.87 72.576 L1106.87 45.4349 Q1106.87 38.913 1104.56 35.7533 Q1102.25 32.5936 1097.51 32.5936 Q1091.72 32.5936 1088.35 36.4419 Q1084.99 40.2903 1084.99 46.9338 L1084.99 72.576 L1077.5 72.576 L1077.5 45.4349 Q1077.5 38.8725 1075.19 35.7533 Q1072.88 32.5936 1068.06 32.5936 Q1062.35 32.5936 1058.99 36.4824 Q1055.62 40.3308 1055.62 46.9338 L1055.62 72.576 L1048.13 72.576 L1048.13 27.2059 L1055.62 27.2059 L1055.62 34.2544 Q1058.18 30.082 1061.74 28.0971 Q1065.31 26.1121 1070.21 26.1121 Q1075.15 26.1121 1078.59 28.6237 Q1082.08 31.1352 1083.74 35.9153 Z" fill="#000000" fill-rule="nonzero" fill-opacity="1" /><path clip-path="url(#clip700)" d="M1146.81 32.4315 Q1140.81 32.4315 1137.33 37.1306 Q1133.85 41.7891 1133.85 49.9314 Q1133.85 58.0738 1137.29 62.7728 Q1140.77 67.4314 1146.81 67.4314 Q1152.76 67.4314 1156.25 62.7323 Q1159.73 58.0333 1159.73 49.9314 Q1159.73 41.8701 1156.25 37.1711 Q1152.76 32.4315 1146.81 32.4315 M1146.81 26.1121 Q1156.53 26.1121 1162.08 32.4315 Q1167.63 38.7509 1167.63 49.9314 Q1167.63 61.0714 1162.08 67.4314 Q1156.53 73.7508 1146.81 73.7508 Q1137.05 73.7508 1131.5 67.4314 Q1125.99 61.0714 1125.99 49.9314 Q1125.99 38.7509 1131.5 32.4315 Q1137.05 26.1121 1146.81 26.1121 Z" fill="#000000" fill-rule="nonzero" fill-opacity="1" /><path clip-path="url(#clip700)" d="M1174.64 27.2059 L1182.54 27.2059 L1196.72 65.2844 L1210.89 27.2059 L1218.79 27.2059 L1201.78 72.576 L1191.65 72.576 L1174.64 27.2059 Z" fill="#000000" fill-rule="nonzero" fill-opacity="1" /><path clip-path="url(#clip700)" d="M1267.89 48.0275 L1267.89 51.6733 L1233.62 51.6733 Q1234.11 59.3701 1238.24 63.421 Q1242.41 67.4314 1249.82 67.4314 Q1254.12 67.4314 1258.13 66.3781 Q1262.18 65.3249 1266.15 63.2184 L1266.15 70.267 Q1262.14 71.9684 1257.93 72.8596 Q1253.71 73.7508 1249.38 73.7508 Q1238.52 73.7508 1232.16 67.4314 Q1225.84 61.1119 1225.84 50.3365 Q1225.84 39.1965 1231.84 32.6746 Q1237.87 26.1121 1248.08 26.1121 Q1257.24 26.1121 1262.54 32.0264 Q1267.89 37.9003 1267.89 48.0275 M1260.44 45.84 Q1260.36 39.7232 1256.99 36.0774 Q1253.67 32.4315 1248.16 32.4315 Q1241.92 32.4315 1238.16 35.9558 Q1234.43 39.4801 1233.86 45.8805 L1260.44 45.84 Z" fill="#000000" fill-rule="nonzero" fill-opacity="1" /><path clip-path="url(#clip700)" d="M1309.98 34.0924 L1309.98 9.54393 L1317.43 9.54393 L1317.43 72.576 L1309.98 72.576 L1309.98 65.7705 Q1307.63 69.8214 1304.03 71.8063 Q1300.46 73.7508 1295.44 73.7508 Q1287.21 73.7508 1282.03 67.1883 Q1276.88 60.6258 1276.88 49.9314 Q1276.88 39.2371 1282.03 32.6746 Q1287.21 26.1121 1295.44 26.1121 Q1300.46 26.1121 1304.03 28.0971 Q1307.63 30.0415 1309.98 34.0924 M1284.58 49.9314 Q1284.58 58.1548 1287.94 62.8538 Q1291.35 67.5124 1297.26 67.5124 Q1303.17 67.5124 1306.58 62.8538 Q1309.98 58.1548 1309.98 49.9314 Q1309.98 41.7081 1306.58 37.0496 Q1303.17 32.3505 1297.26 32.3505 Q1291.35 32.3505 1287.94 37.0496 Q1284.58 41.7081 1284.58 49.9314 Z" fill="#000000" fill-rule="nonzero" fill-opacity="1" /><path clip-path="url(#clip700)" d="M1391.73 49.9314 Q1391.73 41.7081 1388.32 37.0496 Q1384.96 32.3505 1379.05 32.3505 Q1373.13 32.3505 1369.73 37.0496 Q1366.37 41.7081 1366.37 49.9314 Q1366.37 58.1548 1369.73 62.8538 Q1373.13 67.5124 1379.05 67.5124 Q1384.96 67.5124 1388.32 62.8538 Q1391.73 58.1548 1391.73 49.9314 M1366.37 34.0924 Q1368.72 30.0415 1372.28 28.0971 Q1375.89 26.1121 1380.87 26.1121 Q1389.13 26.1121 1394.28 32.6746 Q1399.46 39.2371 1399.46 49.9314 Q1399.46 60.6258 1394.28 67.1883 Q1389.13 73.7508 1380.87 73.7508 Q1375.89 73.7508 1372.28 71.8063 Q1368.72 69.8214 1366.37 65.7705 L1366.37 72.576 L1358.87 72.576 L1358.87 9.54393 L1366.37 9.54393 L1366.37 34.0924 Z" fill="#000000" fill-rule="nonzero" fill-opacity="1" /><path clip-path="url(#clip700)" d="M1430.7 76.7889 Q1427.54 84.8907 1424.54 87.3618 Q1421.54 89.8329 1416.52 89.8329 L1410.56 89.8329 L1410.56 83.5945 L1414.94 83.5945 Q1418.02 83.5945 1419.72 82.1361 Q1421.42 80.6778 1423.49 75.2496 L1424.82 71.8468 L1406.47 27.2059 L1414.37 27.2059 L1428.55 62.6918 L1442.73 27.2059 L1450.63 27.2059 L1430.7 76.7889 Z" fill="#000000" fill-rule="nonzero" fill-opacity="1" /><path clip-path="url(#clip700)" d="M1494.66 14.324 L1494.66 27.2059 L1510.01 27.2059 L1510.01 32.9987 L1494.66 32.9987 L1494.66 57.6282 Q1494.66 63.1779 1496.16 64.7578 Q1497.7 66.3376 1502.36 66.3376 L1510.01 66.3376 L1510.01 72.576 L1502.36 72.576 Q1493.73 72.576 1490.45 69.3758 Q1487.17 66.1351 1487.17 57.6282 L1487.17 32.9987 L1481.7 32.9987 L1481.7 27.2059 L1487.17 27.2059 L1487.17 14.324 L1494.66 14.324 Z" fill="#000000" fill-rule="nonzero" fill-opacity="1" /><path clip-path="url(#clip700)" d="M1557.53 45.1919 L1557.53 72.576 L1550.08 72.576 L1550.08 45.4349 Q1550.08 38.994 1547.57 35.7938 Q1545.05 32.5936 1540.03 32.5936 Q1533.99 32.5936 1530.51 36.4419 Q1527.03 40.2903 1527.03 46.9338 L1527.03 72.576 L1519.53 72.576 L1519.53 9.54393 L1527.03 9.54393 L1527.03 34.2544 Q1529.7 30.163 1533.31 28.1376 Q1536.95 26.1121 1541.69 26.1121 Q1549.51 26.1121 1553.52 30.9732 Q1557.53 35.7938 1557.53 45.1919 Z" fill="#000000" fill-rule="nonzero" fill-opacity="1" /><path clip-path="url(#clip700)" d="M1611.21 48.0275 L1611.21 51.6733 L1576.93 51.6733 Q1577.42 59.3701 1581.55 63.421 Q1585.72 67.4314 1593.14 67.4314 Q1597.43 67.4314 1601.44 66.3781 Q1605.49 65.3249 1609.46 63.2184 L1609.46 70.267 Q1605.45 71.9684 1601.24 72.8596 Q1597.03 73.7508 1592.69 73.7508 Q1581.84 73.7508 1575.48 67.4314 Q1569.16 61.1119 1569.16 50.3365 Q1569.16 39.1965 1575.15 32.6746 Q1581.19 26.1121 1591.4 26.1121 Q1600.55 26.1121 1605.86 32.0264 Q1611.21 37.9003 1611.21 48.0275 M1603.75 45.84 Q1603.67 39.7232 1600.31 36.0774 Q1596.99 32.4315 1591.48 32.4315 Q1585.24 32.4315 1581.47 35.9558 Q1577.74 39.4801 1577.18 45.8805 L1603.75 45.84 Z" fill="#000000" fill-rule="nonzero" fill-opacity="1" /><path clip-path="url(#clip700)" d="M1658.32 18.8205 L1658.32 65.8515 L1668.2 65.8515 Q1680.72 65.8515 1686.51 60.1802 Q1692.34 54.509 1692.34 42.2752 Q1692.34 30.1225 1686.51 24.4918 Q1680.72 18.8205 1668.2 18.8205 L1658.32 18.8205 M1650.13 12.096 L1666.95 12.096 Q1684.53 12.096 1692.75 19.4281 Q1700.97 26.7198 1700.97 42.2752 Q1700.97 57.9117 1692.71 65.2439 Q1684.45 72.576 1666.95 72.576 L1650.13 72.576 L1650.13 12.096 Z" fill="#000000" fill-rule="nonzero" fill-opacity="1" /><path clip-path="url(#clip700)" d="M1734.31 49.7694 Q1725.28 49.7694 1721.79 51.8354 Q1718.31 53.9013 1718.31 58.8839 Q1718.31 62.8538 1720.9 65.2034 Q1723.54 67.5124 1728.03 67.5124 Q1734.23 67.5124 1737.96 63.1374 Q1741.73 58.7219 1741.73 51.4303 L1741.73 49.7694 L1734.31 49.7694 M1749.18 46.6907 L1749.18 72.576 L1741.73 72.576 L1741.73 65.6895 Q1739.17 69.8214 1735.37 71.8063 Q1731.56 73.7508 1726.05 73.7508 Q1719.08 73.7508 1714.95 69.8619 Q1710.86 65.9325 1710.86 59.3701 Q1710.86 51.7138 1715.96 47.825 Q1721.11 43.9361 1731.27 43.9361 L1741.73 43.9361 L1741.73 43.2069 Q1741.73 38.0623 1738.32 35.2672 Q1734.96 32.4315 1728.84 32.4315 Q1724.95 32.4315 1721.27 33.3632 Q1717.58 34.295 1714.18 36.1584 L1714.18 29.2718 Q1718.27 27.692 1722.12 26.9223 Q1725.97 26.1121 1729.61 26.1121 Q1739.46 26.1121 1744.32 31.2163 Q1749.18 36.3204 1749.18 46.6907 Z" fill="#000000" fill-rule="nonzero" fill-opacity="1" /><path clip-path="url(#clip700)" d="M1799.86 35.9153 Q1802.65 30.8922 1806.54 28.5022 Q1810.43 26.1121 1815.69 26.1121 Q1822.78 26.1121 1826.63 31.0947 Q1830.48 36.0368 1830.48 45.1919 L1830.48 72.576 L1822.99 72.576 L1822.99 45.4349 Q1822.99 38.913 1820.68 35.7533 Q1818.37 32.5936 1813.63 32.5936 Q1807.84 32.5936 1804.47 36.4419 Q1801.11 40.2903 1801.11 46.9338 L1801.11 72.576 L1793.62 72.576 L1793.62 45.4349 Q1793.62 38.8725 1791.31 35.7533 Q1789 32.5936 1784.18 32.5936 Q1778.47 32.5936 1775.1 36.4824 Q1771.74 40.3308 1771.74 46.9338 L1771.74 72.576 L1764.25 72.576 L1764.25 27.2059 L1771.74 27.2059 L1771.74 34.2544 Q1774.29 30.082 1777.86 28.0971 Q1781.42 26.1121 1786.33 26.1121 Q1791.27 26.1121 1794.71 28.6237 Q1798.19 31.1352 1799.86 35.9153 Z" fill="#000000" fill-rule="nonzero" fill-opacity="1" /><path clip-path="url(#clip700)" d="M1852.56 65.7705 L1852.56 89.8329 L1845.06 89.8329 L1845.06 27.2059 L1852.56 27.2059 L1852.56 34.0924 Q1854.91 30.0415 1858.47 28.0971 Q1862.08 26.1121 1867.06 26.1121 Q1875.32 26.1121 1880.47 32.6746 Q1885.65 39.2371 1885.65 49.9314 Q1885.65 60.6258 1880.47 67.1883 Q1875.32 73.7508 1867.06 73.7508 Q1862.08 73.7508 1858.47 71.8063 Q1854.91 69.8214 1852.56 65.7705 M1877.92 49.9314 Q1877.92 41.7081 1874.51 37.0496 Q1871.15 32.3505 1865.24 32.3505 Q1859.32 32.3505 1855.92 37.0496 Q1852.56 41.7081 1852.56 49.9314 Q1852.56 58.1548 1855.92 62.8538 Q1859.32 67.5124 1865.24 67.5124 Q1871.15 67.5124 1874.51 62.8538 Q1877.92 58.1548 1877.92 49.9314 Z" fill="#000000" fill-rule="nonzero" fill-opacity="1" /><path clip-path="url(#clip700)" d="M1936.82 48.0275 L1936.82 51.6733 L1902.55 51.6733 Q1903.03 59.3701 1907.16 63.421 Q1911.34 67.4314 1918.75 67.4314 Q1923.04 67.4314 1927.05 66.3781 Q1931.11 65.3249 1935.07 63.2184 L1935.07 70.267 Q1931.06 71.9684 1926.85 72.8596 Q1922.64 73.7508 1918.3 73.7508 Q1907.45 73.7508 1901.09 67.4314 Q1894.77 61.1119 1894.77 50.3365 Q1894.77 39.1965 1900.76 32.6746 Q1906.8 26.1121 1917.01 26.1121 Q1926.16 26.1121 1931.47 32.0264 Q1936.82 37.9003 1936.82 48.0275 M1929.36 45.84 Q1929.28 39.7232 1925.92 36.0774 Q1922.6 32.4315 1917.09 32.4315 Q1910.85 32.4315 1907.08 35.9558 Q1903.36 39.4801 1902.79 45.8805 L1929.36 45.84 Z" fill="#000000" fill-rule="nonzero" fill-opacity="1" /><path clip-path="url(#clip700)" d="M1975.34 34.1734 Q1974.09 33.4443 1972.59 33.1202 Q1971.13 32.7556 1969.35 32.7556 Q1963.03 32.7556 1959.62 36.8875 Q1956.26 40.9789 1956.26 48.6757 L1956.26 72.576 L1948.77 72.576 L1948.77 27.2059 L1956.26 27.2059 L1956.26 34.2544 Q1958.61 30.1225 1962.38 28.1376 Q1966.15 26.1121 1971.53 26.1121 Q1972.3 26.1121 1973.23 26.2337 Q1974.17 26.3147 1975.3 26.5172 L1975.34 34.1734 Z" fill="#000000" fill-rule="nonzero" fill-opacity="1" /><polyline clip-path="url(#clip702)" style="stroke:#009af9; stroke-linecap:round; stroke-linejoin:round; stroke-width:12; stroke-opacity:1; fill:none" points="309.067,160.256 313.035,160.317 317.004,160.727 320.972,161.831 324.94,164.021 328.909,167.786 332.877,173.775 336.845,182.858 340.814,196.195 344.782,215.31 348.75,242.131 352.719,278.953 356.687,328.159 360.655,391.441 364.624,468.116 368.592,552.654 372.56,633.573 376.529,697.751 380.497,738.669 384.465,759.16 388.434,766.617 392.402,768.022 396.37,768.182 400.338,769.912 404.307,774.657 408.275,783.032 412.243,795.178 416.212,810.978 420.18,830.186 424.148,852.5 428.117,877.596 432.085,905.149 436.053,934.835 440.022,966.329 443.99,999.289 447.958,1033.35 451.927,1068.1 455.895,1103.08 459.863,1137.76 463.832,1171.57 467.8,1203.88 471.768,1234.08 475.737,1261.61 479.705,1286.03 483.673,1307.03 487.642,1324.52 491.61,1338.59 495.578,1349.51 499.547,1357.65 503.515,1363.47 507.483,1367.41 511.452,1369.92 515.42,1371.4 519.388,1372.17 523.357,1372.5 527.325,1372.59 531.293,1372.6 535.262,1372.62 539.23,1372.73 543.198,1372.95 547.167,1373.29 551.135,1373.75 555.103,1374.32 559.072,1374.97 563.04,1375.68 567.008,1376.41 570.977,1377.16 574.945,1377.9 578.913,1378.61 582.882,1379.28 586.85,1379.89 590.818,1380.46 594.787,1380.96 598.755,1381.41 602.723,1381.8 606.692,1382.14 610.66,1382.43 614.628,1382.68 618.597,1382.89 622.565,1383.07 626.533,1383.22 630.502,1383.35 634.47,1383.45 638.438,1383.54 642.407,1383.62 646.375,1383.68 650.343,1383.74 654.311,1383.79 658.28,1383.84 662.248,1383.88 666.216,1383.92 670.185,1383.96 674.153,1383.99 678.121,1384.03 682.09,1384.06 686.058,1384.1 690.026,1384.14 693.995,1384.17 697.963,1384.21 701.931,1384.25 705.9,1384.29 709.868,1384.34 713.836,1384.38 717.805,1384.43 721.773,1384.48 725.741,1384.53 729.71,1384.58 733.678,1384.63 737.646,1384.68 741.615,1384.74 745.583,1384.79 749.551,1384.84 753.52,1384.9 757.488,1384.95 761.456,1385 765.425,1385.06 769.393,1385.11 773.361,1385.16 777.33,1385.21 781.298,1385.26 785.266,1385.31 789.235,1385.35 793.203,1385.4 797.171,1385.44 801.14,1385.48 805.108,1385.52 809.076,1385.56 813.045,1385.6 817.013,1385.64 820.981,1385.67 824.95,1385.7 828.918,1385.73 832.886,1385.76 836.855,1385.79 840.823,1385.82 844.791,1385.84 848.76,1385.87 852.728,1385.89 856.696,1385.91 860.665,1385.94 864.633,1385.96 868.601,1385.98 872.57,1385.99 876.538,1386.01 880.506,1386.03 884.475,1386.05 888.443,1386.06 892.411,1386.08 896.38,1386.09 900.348,1386.1 904.316,1386.12 908.284,1386.13 912.253,1386.14 916.221,1386.15 920.189,1386.16 924.158,1386.17 928.126,1386.18 932.094,1386.19 936.063,1386.2 940.031,1386.21 943.999,1386.22 947.968,1386.23 951.936,1386.23 955.904,1386.24 959.873,1386.25 963.841,1386.26 967.809,1386.26 971.778,1386.27 975.746,1386.27 979.714,1386.28 983.683,1386.28 987.651,1386.29 991.619,1386.29 995.588,1386.3 999.556,1386.3 1003.52,1386.31 1007.49,1386.31 1011.46,1386.32 1015.43,1386.32 1019.4,1386.32 1023.37,1386.33 1027.33,1386.33 1031.3,1386.33 1035.27,1386.34 1039.24,1386.34 1043.21,1386.34 1047.18,1386.34 1051.14,1386.35 1055.11,1386.35 1059.08,1386.35 1063.05,1386.35 1067.02,1386.36 1070.99,1386.36 1074.95,1386.36 1078.92,1386.36 1082.89,1386.36 1086.86,1386.36 1090.83,1386.37 1094.8,1386.37 1098.76,1386.37 1102.73,1386.37 1106.7,1386.37 1110.67,1386.37 1114.64,1386.37 1118.61,1386.37 1122.57,1386.38 1126.54,1386.38 1130.51,1386.38 1134.48,1386.38 1138.45,1386.38 1142.42,1386.38 1146.38,1386.38 1150.35,1386.38 1154.32,1386.38 1158.29,1386.38 1162.26,1386.38 1166.23,1386.38 1170.19,1386.38 1174.16,1386.39 1178.13,1386.39 1182.1,1386.39 1186.07,1386.39 1190.04,1386.39 1194,1386.39 1197.97,1386.39 1201.94,1386.39 1205.91,1386.39 1209.88,1386.39 1213.85,1386.39 1217.81,1386.39 1221.78,1386.39 1225.75,1386.39 1229.72,1386.39 1233.69,1386.39 1237.66,1386.39 1241.62,1386.39 1245.59,1386.39 1249.56,1386.39 1253.53,1386.39 1257.5,1386.39 1261.47,1386.39 1265.43,1386.39 1269.4,1386.39 1273.37,1386.39 1277.34,1386.39 1281.31,1386.39 1285.28,1386.39 1289.24,1386.39 1293.21,1386.39 1297.18,1386.39 1301.15,1386.39 1305.12,1386.39 1309.09,1386.39 1313.05,1386.39 1317.02,1386.39 1320.99,1386.39 1324.96,1386.39 1328.93,1386.39 1332.9,1386.39 1336.86,1386.39 1340.83,1386.39 1344.8,1386.39 1348.77,1386.39 1352.74,1386.39 1356.71,1386.39 1360.67,1386.39 1364.64,1386.39 1368.61,1386.39 1372.58,1386.39 1376.55,1386.39 1380.52,1386.39 1384.48,1386.39 1388.45,1386.39 1392.42,1386.39 1396.39,1386.4 1400.36,1386.4 1404.33,1386.4 1408.29,1386.4 1412.26,1386.4 1416.23,1386.4 1420.2,1386.4 1424.17,1386.4 1428.14,1386.4 1432.1,1386.4 1436.07,1386.4 1440.04,1386.4 1444.01,1386.4 1447.98,1386.4 1451.95,1386.4 1455.91,1386.4 1459.88,1386.4 1463.85,1386.4 1467.82,1386.4 1471.79,1386.4 1475.76,1386.4 1479.72,1386.4 1483.69,1386.4 1487.66,1386.4 1491.63,1386.4 1495.6,1386.4 1499.57,1386.4 1503.53,1386.4 1507.5,1386.4 1511.47,1386.4 1515.44,1386.4 1519.41,1386.4 1523.38,1386.4 1527.34,1386.4 1531.31,1386.4 1535.28,1386.4 1539.25,1386.4 1543.22,1386.4 1547.19,1386.4 1551.15,1386.4 1555.12,1386.4 1559.09,1386.4 1563.06,1386.4 1567.03,1386.4 1571,1386.4 1574.96,1386.4 1578.93,1386.4 1582.9,1386.4 1586.87,1386.4 1590.84,1386.4 1594.81,1386.4 1598.77,1386.4 1602.74,1386.4 1606.71,1386.4 1610.68,1386.4 1614.65,1386.4 1618.62,1386.4 1622.58,1386.4 1626.55,1386.4 1630.52,1386.4 1634.49,1386.4 1638.46,1386.4 1642.43,1386.4 1646.39,1386.4 1650.36,1386.4 1654.33,1386.4 1658.3,1386.4 1662.27,1386.4 1666.24,1386.4 1670.2,1386.4 1674.17,1386.4 1678.14,1386.4 1682.11,1386.4 1686.08,1386.4 1690.05,1386.4 1694.01,1386.4 1697.98,1386.4 1701.95,1386.4 1705.92,1386.4 1709.89,1386.4 1713.86,1386.4 1717.82,1386.4 1721.79,1386.4 1725.76,1386.4 1729.73,1386.4 1733.7,1386.4 1737.67,1386.4 1741.63,1386.4 1745.6,1386.4 1749.57,1386.4 1753.54,1386.4 1757.51,1386.4 1761.48,1386.4 1765.44,1386.4 1769.41,1386.4 1773.38,1386.4 1777.35,1386.4 1781.32,1386.4 1785.28,1386.4 1789.25,1386.4 1793.22,1386.4 1797.19,1386.4 1801.16,1386.4 1805.13,1386.4 1809.09,1386.4 1813.06,1386.4 1817.03,1386.4 1821,1386.4 1824.97,1386.4 1828.94,1386.4 1832.9,1386.4 1836.87,1386.4 1840.84,1386.4 1844.81,1386.4 1848.78,1386.4 1852.75,1386.4 1856.71,1386.4 1860.68,1386.4 1864.65,1386.4 1868.62,1386.4 1872.59,1386.4 1876.56,1386.4 1880.52,1386.4 1884.49,1386.4 1888.46,1386.4 1892.43,1386.4 1896.4,1386.4 1900.37,1386.4 1904.33,1386.4 1908.3,1386.4 1912.27,1386.4 1916.24,1386.4 1920.21,1386.4 1924.18,1386.4 1928.14,1386.4 1932.11,1386.4 1936.08,1386.4 1940.05,1386.4 1944.02,1386.4 1947.99,1386.4 1951.95,1386.4 1955.92,1386.4 1959.89,1386.4 1963.86,1386.4 1967.83,1386.4 1971.8,1386.4 1975.76,1386.4 1979.73,1386.4 1983.7,1386.4 1987.67,1386.4 1991.64,1386.4 1995.61,1386.4 1999.57,1386.4 2003.54,1386.4 2007.51,1386.4 2011.48,1386.4 2015.45,1386.4 2019.42,1386.4 2023.38,1386.4 2027.35,1386.4 2031.32,1386.4 2035.29,1386.4 2039.26,1386.4 2043.23,1386.4 2047.19,1386.4 2051.16,1386.4 2055.13,1386.4 2059.1,1386.4 2063.07,1386.4 2067.04,1386.4 2071,1386.4 2074.97,1386.4 2078.94,1386.4 2082.91,1386.4 2086.88,1386.4 2090.85,1386.4 2094.81,1386.4 2098.78,1386.4 2102.75,1386.4 2106.72,1386.4 2110.69,1386.4 2114.66,1386.4 2118.62,1386.4 2122.59,1386.4 2126.56,1386.4 2130.53,1386.4 2134.5,1386.4 2138.47,1386.4 2142.43,1386.4 2146.4,1386.4 2150.37,1386.4 2154.34,1386.4 2158.31,1386.4 2162.28,1386.4 2166.24,1386.4 2170.21,1386.4 2174.18,1386.4 2178.15,1386.4 2182.12,1386.4 2186.09,1386.4 2190.05,1386.4 2194.02,1386.4 2197.99,1386.4 2201.96,1386.4 2205.93,1386.4 2209.9,1386.4 2213.86,1386.4 2217.83,1386.4 2221.8,1386.4 2225.77,1386.4 2229.74,1386.4 2233.71,1386.4 2237.67,1386.4 2241.64,1386.4 2245.61,1386.4 2249.58,1386.4 2253.55,1386.4 2257.52,1386.4 2261.48,1386.4 2265.45,1386.4 2269.42,1386.4 2273.39,1386.4 2277.36,1386.4 2281.33,1386.4 2285.29,1386.4 2289.26,1386.4 2293.23,1386.4 "/>
<path clip-path="url(#clip700)" d="M1846.31 270.476 L2282.65 270.476 L2282.65 166.796 L1846.31 166.796  Z" fill="#ffffff" fill-rule="evenodd" fill-opacity="1"/>
<polyline clip-path="url(#clip700)" style="stroke:#000000; stroke-linecap:round; stroke-linejoin:round; stroke-width:4; stroke-opacity:1; fill:none" points="1846.31,270.476 2282.65,270.476 2282.65,166.796 1846.31,166.796 1846.31,270.476 "/>
<polyline clip-path="url(#clip700)" style="stroke:#009af9; stroke-linecap:round; stroke-linejoin:round; stroke-width:12; stroke-opacity:1; fill:none" points="1869.68,218.636 2009.89,218.636 "/>
<path clip-path="url(#clip700)" d="M2033.26 201.356 L2055.11 201.356 L2055.11 205.291 L2037.94 205.291 L2037.94 215.522 L2054.4 215.522 L2054.4 219.457 L2037.94 219.457 L2037.94 231.981 L2055.53 231.981 L2055.53 235.916 L2033.26 235.916 L2033.26 201.356 Z" fill="#000000" fill-rule="nonzero" fill-opacity="1" /><path clip-path="url(#clip700)" d="M2078.66 214.388 L2108.33 214.388 L2108.33 218.277 L2078.66 218.277 L2078.66 214.388 M2078.66 223.832 L2108.33 223.832 L2108.33 227.768 L2078.66 227.768 L2078.66 223.832 Z" fill="#000000" fill-rule="nonzero" fill-opacity="1" /><path clip-path="url(#clip700)" d="M2128.29 201.356 L2157.52 201.356 L2157.52 205.291 L2145.25 205.291 L2145.25 235.916 L2140.55 235.916 L2140.55 205.291 L2128.29 205.291 L2128.29 201.356 Z" fill="#000000" fill-rule="nonzero" fill-opacity="1" /><path clip-path="url(#clip700)" d="M2194.26 206.194 L2194.26 219.087 L2207.15 219.087 L2207.15 223.022 L2194.26 223.022 L2194.26 235.916 L2190.37 235.916 L2190.37 223.022 L2177.47 223.022 L2177.47 219.087 L2190.37 219.087 L2190.37 206.194 L2194.26 206.194 Z" fill="#000000" fill-rule="nonzero" fill-opacity="1" /><path clip-path="url(#clip700)" d="M2240.81 235.916 L2227.61 201.356 L2232.5 201.356 L2243.45 230.453 L2254.42 201.356 L2259.28 201.356 L2246.11 235.916 L2240.81 235.916 Z" fill="#000000" fill-rule="nonzero" fill-opacity="1" /></svg>
