<?xml version="1.0" encoding="utf-8"?>
<svg xmlns="http://www.w3.org/2000/svg" xmlns:xlink="http://www.w3.org/1999/xlink" width="600" height="400" viewBox="0 0 2400 1600">
<defs>
  <clipPath id="clip560">
    <rect x="0" y="0" width="2400" height="1600"/>
  </clipPath>
</defs>
<path clip-path="url(#clip560)" d="M0 1600 L2400 1600 L2400 0 L0 0  Z" fill="#ffffff" fill-rule="evenodd" fill-opacity="1"/>
<defs>
  <clipPath id="clip561">
    <rect x="249" y="123" width="2104" height="1301"/>
  </clipPath>
</defs>
<path clip-path="url(#clip560)" d="M280.487 1423.18 L2352.76 1423.18 L2352.76 123.472 L280.487 123.472  Z" fill="#ffffff" fill-rule="evenodd" fill-opacity="1"/>
<defs>
  <clipPath id="clip562">
    <rect x="280" y="123" width="2073" height="1301"/>
  </clipPath>
</defs>
<polyline clip-path="url(#clip562)" style="stroke:#000000; stroke-linecap:round; stroke-linejoin:round; stroke-width:2; stroke-opacity:0.1; fill:none" points="666.451,1386.4 1966.79,1386.4 "/>
<polyline clip-path="url(#clip560)" style="stroke:#000000; stroke-linecap:round; stroke-linejoin:round; stroke-width:4; stroke-opacity:1; fill:none" points="666.451,1386.4 1966.79,1386.4 "/>
<path clip-path="url(#clip560)" d="M665.557 1417.31 Q661.946 1417.31 660.117 1420.88 Q658.311 1424.42 658.311 1431.55 Q658.311 1438.66 660.117 1442.22 Q661.946 1445.76 665.557 1445.76 Q669.191 1445.76 670.996 1442.22 Q672.825 1438.66 672.825 1431.55 Q672.825 1424.42 670.996 1420.88 Q669.191 1417.31 665.557 1417.31 M665.557 1413.61 Q671.367 1413.61 674.422 1418.22 Q677.501 1422.8 677.501 1431.55 Q677.501 1440.28 674.422 1444.88 Q671.367 1449.47 665.557 1449.47 Q659.747 1449.47 656.668 1444.88 Q653.612 1440.28 653.612 1431.55 Q653.612 1422.8 656.668 1418.22 Q659.747 1413.61 665.557 1413.61 Z" fill="#000000" fill-rule="nonzero" fill-opacity="1" /><path clip-path="url(#clip560)" d="M685.719 1442.92 L690.603 1442.92 L690.603 1448.8 L685.719 1448.8 L685.719 1442.92 Z" fill="#000000" fill-rule="nonzero" fill-opacity="1" /><path clip-path="url(#clip560)" d="M710.788 1417.31 Q707.177 1417.31 705.348 1420.88 Q703.543 1424.42 703.543 1431.55 Q703.543 1438.66 705.348 1442.22 Q707.177 1445.76 710.788 1445.76 Q714.422 1445.76 716.228 1442.22 Q718.056 1438.66 718.056 1431.55 Q718.056 1424.42 716.228 1420.88 Q714.422 1417.31 710.788 1417.31 M710.788 1413.61 Q716.598 1413.61 719.654 1418.22 Q722.732 1422.8 722.732 1431.55 Q722.732 1440.28 719.654 1444.88 Q716.598 1449.47 710.788 1449.47 Q704.978 1449.47 701.899 1444.88 Q698.844 1440.28 698.844 1431.55 Q698.844 1422.8 701.899 1418.22 Q704.978 1413.61 710.788 1413.61 Z" fill="#000000" fill-rule="nonzero" fill-opacity="1" /><path clip-path="url(#clip560)" d="M740.95 1417.31 Q737.339 1417.31 735.51 1420.88 Q733.704 1424.42 733.704 1431.55 Q733.704 1438.66 735.51 1442.22 Q737.339 1445.76 740.95 1445.76 Q744.584 1445.76 746.39 1442.22 Q748.218 1438.66 748.218 1431.55 Q748.218 1424.42 746.39 1420.88 Q744.584 1417.31 740.95 1417.31 M740.95 1413.61 Q746.76 1413.61 749.815 1418.22 Q752.894 1422.8 752.894 1431.55 Q752.894 1440.28 749.815 1444.88 Q746.76 1449.47 740.95 1449.47 Q735.14 1449.47 732.061 1444.88 Q729.005 1440.28 729.005 1431.55 Q729.005 1422.8 732.061 1418.22 Q735.14 1413.61 740.95 1413.61 Z" fill="#000000" fill-rule="nonzero" fill-opacity="1" /><path clip-path="url(#clip560)" d="M972.738 1417.31 Q969.127 1417.31 967.299 1420.88 Q965.493 1424.42 965.493 1431.55 Q965.493 1438.66 967.299 1442.22 Q969.127 1445.76 972.738 1445.76 Q976.373 1445.76 978.178 1442.22 Q980.007 1438.66 980.007 1431.55 Q980.007 1424.42 978.178 1420.88 Q976.373 1417.31 972.738 1417.31 M972.738 1413.61 Q978.549 1413.61 981.604 1418.22 Q984.683 1422.8 984.683 1431.55 Q984.683 1440.28 981.604 1444.88 Q978.549 1449.47 972.738 1449.47 Q966.928 1449.47 963.85 1444.88 Q960.794 1440.28 960.794 1431.55 Q960.794 1422.8 963.85 1418.22 Q966.928 1413.61 972.738 1413.61 Z" fill="#000000" fill-rule="nonzero" fill-opacity="1" /><path clip-path="url(#clip560)" d="M992.9 1442.92 L997.785 1442.92 L997.785 1448.8 L992.9 1448.8 L992.9 1442.92 Z" fill="#000000" fill-rule="nonzero" fill-opacity="1" /><path clip-path="url(#clip560)" d="M1012 1444.86 L1028.32 1444.86 L1028.32 1448.8 L1006.37 1448.8 L1006.37 1444.86 Q1009.03 1442.11 1013.62 1437.48 Q1018.22 1432.82 1019.4 1431.48 Q1021.65 1428.96 1022.53 1427.22 Q1023.43 1425.46 1023.43 1423.77 Q1023.43 1421.02 1021.49 1419.28 Q1019.57 1417.55 1016.46 1417.55 Q1014.27 1417.55 1011.81 1418.31 Q1009.38 1419.07 1006.6 1420.62 L1006.6 1415.9 Q1009.43 1414.77 1011.88 1414.19 Q1014.34 1413.61 1016.37 1413.61 Q1021.74 1413.61 1024.94 1416.3 Q1028.13 1418.98 1028.13 1423.47 Q1028.13 1425.6 1027.32 1427.52 Q1026.53 1429.42 1024.43 1432.01 Q1023.85 1432.68 1020.75 1435.9 Q1017.65 1439.1 1012 1444.86 Z" fill="#000000" fill-rule="nonzero" fill-opacity="1" /><path clip-path="url(#clip560)" d="M1038.18 1414.24 L1056.53 1414.24 L1056.53 1418.17 L1042.46 1418.17 L1042.46 1426.64 Q1043.48 1426.3 1044.5 1426.13 Q1045.52 1425.95 1046.53 1425.95 Q1052.32 1425.95 1055.7 1429.12 Q1059.08 1432.29 1059.08 1437.71 Q1059.08 1443.29 1055.61 1446.39 Q1052.14 1449.47 1045.82 1449.47 Q1043.64 1449.47 1041.37 1449.1 Q1039.13 1448.73 1036.72 1447.99 L1036.72 1443.29 Q1038.8 1444.42 1041.03 1444.98 Q1043.25 1445.53 1045.72 1445.53 Q1049.73 1445.53 1052.07 1443.43 Q1054.4 1441.32 1054.4 1437.71 Q1054.4 1434.1 1052.07 1431.99 Q1049.73 1429.88 1045.72 1429.88 Q1043.85 1429.88 1041.97 1430.3 Q1040.12 1430.72 1038.18 1431.6 L1038.18 1414.24 Z" fill="#000000" fill-rule="nonzero" fill-opacity="1" /><path clip-path="url(#clip560)" d="M1278.92 1417.31 Q1275.31 1417.31 1273.48 1420.88 Q1271.68 1424.42 1271.68 1431.55 Q1271.68 1438.66 1273.48 1442.22 Q1275.31 1445.76 1278.92 1445.76 Q1282.56 1445.76 1284.36 1442.22 Q1286.19 1438.66 1286.19 1431.55 Q1286.19 1424.42 1284.36 1420.88 Q1282.56 1417.31 1278.92 1417.31 M1278.92 1413.61 Q1284.73 1413.61 1287.79 1418.22 Q1290.87 1422.8 1290.87 1431.55 Q1290.87 1440.28 1287.79 1444.88 Q1284.73 1449.47 1278.92 1449.47 Q1273.11 1449.47 1270.04 1444.88 Q1266.98 1440.28 1266.98 1431.55 Q1266.98 1422.8 1270.04 1418.22 Q1273.11 1413.61 1278.92 1413.61 Z" fill="#000000" fill-rule="nonzero" fill-opacity="1" /><path clip-path="url(#clip560)" d="M1299.09 1442.92 L1303.97 1442.92 L1303.97 1448.8 L1299.09 1448.8 L1299.09 1442.92 Z" fill="#000000" fill-rule="nonzero" fill-opacity="1" /><path clip-path="url(#clip560)" d="M1314.2 1414.24 L1332.56 1414.24 L1332.56 1418.17 L1318.48 1418.17 L1318.48 1426.64 Q1319.5 1426.3 1320.52 1426.13 Q1321.54 1425.95 1322.56 1425.95 Q1328.35 1425.95 1331.73 1429.12 Q1335.1 1432.29 1335.1 1437.71 Q1335.1 1443.29 1331.63 1446.39 Q1328.16 1449.47 1321.84 1449.47 Q1319.67 1449.47 1317.4 1449.1 Q1315.15 1448.73 1312.74 1447.99 L1312.74 1443.29 Q1314.83 1444.42 1317.05 1444.98 Q1319.27 1445.53 1321.75 1445.53 Q1325.75 1445.53 1328.09 1443.43 Q1330.43 1441.32 1330.43 1437.71 Q1330.43 1434.1 1328.09 1431.99 Q1325.75 1429.88 1321.75 1429.88 Q1319.87 1429.88 1318 1430.3 Q1316.15 1430.72 1314.2 1431.6 L1314.2 1414.24 Z" fill="#000000" fill-rule="nonzero" fill-opacity="1" /><path clip-path="url(#clip560)" d="M1354.32 1417.31 Q1350.71 1417.31 1348.88 1420.88 Q1347.07 1424.42 1347.07 1431.55 Q1347.07 1438.66 1348.88 1442.22 Q1350.71 1445.76 1354.32 1445.76 Q1357.95 1445.76 1359.76 1442.22 Q1361.59 1438.66 1361.59 1431.55 Q1361.59 1424.42 1359.76 1420.88 Q1357.95 1417.31 1354.32 1417.31 M1354.32 1413.61 Q1360.13 1413.61 1363.18 1418.22 Q1366.26 1422.8 1366.26 1431.55 Q1366.26 1440.28 1363.18 1444.88 Q1360.13 1449.47 1354.32 1449.47 Q1348.51 1449.47 1345.43 1444.88 Q1342.37 1440.28 1342.37 1431.55 Q1342.37 1422.8 1345.43 1418.22 Q1348.51 1413.61 1354.32 1413.61 Z" fill="#000000" fill-rule="nonzero" fill-opacity="1" /><path clip-path="url(#clip560)" d="M1586.11 1417.31 Q1582.5 1417.31 1580.67 1420.88 Q1578.86 1424.42 1578.86 1431.55 Q1578.86 1438.66 1580.67 1442.22 Q1582.5 1445.76 1586.11 1445.76 Q1589.74 1445.76 1591.55 1442.22 Q1593.37 1438.66 1593.37 1431.55 Q1593.37 1424.42 1591.55 1420.88 Q1589.74 1417.31 1586.11 1417.31 M1586.11 1413.61 Q1591.92 1413.61 1594.97 1418.22 Q1598.05 1422.8 1598.05 1431.55 Q1598.05 1440.28 1594.97 1444.88 Q1591.92 1449.47 1586.11 1449.47 Q1580.3 1449.47 1577.22 1444.88 Q1574.16 1440.28 1574.16 1431.55 Q1574.16 1422.8 1577.22 1418.22 Q1580.3 1413.61 1586.11 1413.61 Z" fill="#000000" fill-rule="nonzero" fill-opacity="1" /><path clip-path="url(#clip560)" d="M1606.27 1442.92 L1611.15 1442.92 L1611.15 1448.8 L1606.27 1448.8 L1606.27 1442.92 Z" fill="#000000" fill-rule="nonzero" fill-opacity="1" /><path clip-path="url(#clip560)" d="M1620.16 1414.24 L1642.38 1414.24 L1642.38 1416.23 L1629.83 1448.8 L1624.95 1448.8 L1636.75 1418.17 L1620.16 1418.17 L1620.16 1414.24 Z" fill="#000000" fill-rule="nonzero" fill-opacity="1" /><path clip-path="url(#clip560)" d="M1651.55 1414.24 L1669.9 1414.24 L1669.9 1418.17 L1655.83 1418.17 L1655.83 1426.64 Q1656.85 1426.3 1657.87 1426.13 Q1658.88 1425.95 1659.9 1425.95 Q1665.69 1425.95 1669.07 1429.12 Q1672.45 1432.29 1672.45 1437.71 Q1672.45 1443.29 1668.98 1446.39 Q1665.5 1449.47 1659.18 1449.47 Q1657.01 1449.47 1654.74 1449.1 Q1652.49 1448.73 1650.09 1447.99 L1650.09 1443.29 Q1652.17 1444.42 1654.39 1444.98 Q1656.62 1445.53 1659.09 1445.53 Q1663.1 1445.53 1665.43 1443.43 Q1667.77 1441.32 1667.77 1437.71 Q1667.77 1434.1 1665.43 1431.99 Q1663.1 1429.88 1659.09 1429.88 Q1657.22 1429.88 1655.34 1430.3 Q1653.49 1430.72 1651.55 1431.6 L1651.55 1414.24 Z" fill="#000000" fill-rule="nonzero" fill-opacity="1" /><path clip-path="url(#clip560)" d="M1882.06 1444.86 L1889.7 1444.86 L1889.7 1418.49 L1881.39 1420.16 L1881.39 1415.9 L1889.65 1414.24 L1894.33 1414.24 L1894.33 1444.86 L1901.97 1444.86 L1901.97 1448.8 L1882.06 1448.8 L1882.06 1444.86 Z" fill="#000000" fill-rule="nonzero" fill-opacity="1" /><path clip-path="url(#clip560)" d="M1911.41 1442.92 L1916.3 1442.92 L1916.3 1448.8 L1911.41 1448.8 L1911.41 1442.92 Z" fill="#000000" fill-rule="nonzero" fill-opacity="1" /><path clip-path="url(#clip560)" d="M1936.48 1417.31 Q1932.87 1417.31 1931.04 1420.88 Q1929.24 1424.42 1929.24 1431.55 Q1929.24 1438.66 1931.04 1442.22 Q1932.87 1445.76 1936.48 1445.76 Q1940.12 1445.76 1941.92 1442.22 Q1943.75 1438.66 1943.75 1431.55 Q1943.75 1424.42 1941.92 1420.88 Q1940.12 1417.31 1936.48 1417.31 M1936.48 1413.61 Q1942.29 1413.61 1945.35 1418.22 Q1948.43 1422.8 1948.43 1431.55 Q1948.43 1440.28 1945.35 1444.88 Q1942.29 1449.47 1936.48 1449.47 Q1930.67 1449.47 1927.59 1444.88 Q1924.54 1440.28 1924.54 1431.55 Q1924.54 1422.8 1927.59 1418.22 Q1930.67 1413.61 1936.48 1413.61 Z" fill="#000000" fill-rule="nonzero" fill-opacity="1" /><path clip-path="url(#clip560)" d="M1966.64 1417.31 Q1963.03 1417.31 1961.2 1420.88 Q1959.4 1424.42 1959.4 1431.55 Q1959.4 1438.66 1961.2 1442.22 Q1963.03 1445.76 1966.64 1445.76 Q1970.28 1445.76 1972.08 1442.22 Q1973.91 1438.66 1973.91 1431.55 Q1973.91 1424.42 1972.08 1420.88 Q1970.28 1417.31 1966.64 1417.31 M1966.64 1413.61 Q1972.45 1413.61 1975.51 1418.22 Q1978.59 1422.8 1978.59 1431.55 Q1978.59 1440.28 1975.51 1444.88 Q1972.45 1449.47 1966.64 1449.47 Q1960.83 1449.47 1957.76 1444.88 Q1954.7 1440.28 1954.7 1431.55 Q1954.7 1422.8 1957.76 1418.22 Q1960.83 1413.61 1966.64 1413.61 Z" fill="#000000" fill-rule="nonzero" fill-opacity="1" /><path clip-path="url(#clip560)" d="M1238.5 1520.52 L1278.7 1520.52 L1278.7 1525.93 L1261.83 1525.93 L1261.83 1568.04 L1255.37 1568.04 L1255.37 1525.93 L1238.5 1525.93 L1238.5 1520.52 Z" fill="#000000" fill-rule="nonzero" fill-opacity="1" /><path clip-path="url(#clip560)" d="M1282.64 1532.4 L1288.5 1532.4 L1288.5 1568.04 L1282.64 1568.04 L1282.64 1532.4 M1282.64 1518.52 L1288.5 1518.52 L1288.5 1525.93 L1282.64 1525.93 L1282.64 1518.52 Z" fill="#000000" fill-rule="nonzero" fill-opacity="1" /><path clip-path="url(#clip560)" d="M1328.51 1539.24 Q1330.71 1535.29 1333.76 1533.41 Q1336.82 1531.54 1340.95 1531.54 Q1346.52 1531.54 1349.55 1535.45 Q1352.57 1539.33 1352.57 1546.53 L1352.57 1568.04 L1346.68 1568.04 L1346.68 1546.72 Q1346.68 1541.59 1344.87 1539.11 Q1343.05 1536.63 1339.33 1536.63 Q1334.78 1536.63 1332.14 1539.65 Q1329.5 1542.68 1329.5 1547.9 L1329.5 1568.04 L1323.61 1568.04 L1323.61 1546.72 Q1323.61 1541.56 1321.79 1539.11 Q1319.98 1536.63 1316.19 1536.63 Q1311.7 1536.63 1309.06 1539.68 Q1306.42 1542.71 1306.42 1547.9 L1306.42 1568.04 L1300.53 1568.04 L1300.53 1532.4 L1306.42 1532.4 L1306.42 1537.93 Q1308.43 1534.66 1311.23 1533.1 Q1314.03 1531.54 1317.88 1531.54 Q1321.76 1531.54 1324.47 1533.51 Q1327.2 1535.48 1328.51 1539.24 Z" fill="#000000" fill-rule="nonzero" fill-opacity="1" /><path clip-path="url(#clip560)" d="M1394.74 1548.76 L1394.74 1551.62 L1367.82 1551.62 Q1368.2 1557.67 1371.45 1560.85 Q1374.72 1564 1380.55 1564 Q1383.92 1564 1387.07 1563.17 Q1390.26 1562.35 1393.38 1560.69 L1393.38 1566.23 Q1390.22 1567.57 1386.91 1568.27 Q1383.6 1568.97 1380.2 1568.97 Q1371.67 1568.97 1366.67 1564 Q1361.71 1559.04 1361.71 1550.57 Q1361.71 1541.82 1366.42 1536.69 Q1371.16 1531.54 1379.18 1531.54 Q1386.37 1531.54 1390.54 1536.18 Q1394.74 1540.8 1394.74 1548.76 M1388.89 1547.04 Q1388.82 1542.23 1386.18 1539.37 Q1383.57 1536.5 1379.24 1536.5 Q1374.34 1536.5 1371.38 1539.27 Q1368.45 1542.04 1368.01 1547.07 L1388.89 1547.04 Z" fill="#000000" fill-rule="nonzero" fill-opacity="1" /><polyline clip-path="url(#clip560)" style="stroke:#000000; stroke-linecap:round; stroke-linejoin:round; stroke-width:4; stroke-opacity:1; fill:none" points="666.451,1386.4 678.309,1386.4 "/>
<path clip-path="url(#clip560)" d="M500.896 1406.19 L508.535 1406.19 L508.535 1379.82 L500.225 1381.49 L500.225 1377.23 L508.489 1375.56 L513.164 1375.56 L513.164 1406.19 L520.803 1406.19 L520.803 1410.12 L500.896 1410.12 L500.896 1406.19 Z" fill="#000000" fill-rule="nonzero" fill-opacity="1" /><path clip-path="url(#clip560)" d="M540.248 1378.64 Q536.637 1378.64 534.808 1382.21 Q533.002 1385.75 533.002 1392.88 Q533.002 1399.98 534.808 1403.55 Q536.637 1407.09 540.248 1407.09 Q543.882 1407.09 545.687 1403.55 Q547.516 1399.98 547.516 1392.88 Q547.516 1385.75 545.687 1382.21 Q543.882 1378.64 540.248 1378.64 M540.248 1374.94 Q546.058 1374.94 549.113 1379.54 Q552.192 1384.13 552.192 1392.88 Q552.192 1401.6 549.113 1406.21 Q546.058 1410.79 540.248 1410.79 Q534.437 1410.79 531.359 1406.21 Q528.303 1401.6 528.303 1392.88 Q528.303 1384.13 531.359 1379.54 Q534.437 1374.94 540.248 1374.94 Z" fill="#000000" fill-rule="nonzero" fill-opacity="1" /><path clip-path="url(#clip560)" d="M552.192 1369.04 L576.304 1369.04 L576.304 1372.24 L552.192 1372.24 L552.192 1369.04 Z" fill="#000000" fill-rule="nonzero" fill-opacity="1" /><path clip-path="url(#clip560)" d="M584.165 1354.63 L587.964 1354.63 L587.964 1382.71 L584.165 1382.71 L584.165 1354.63 Z" fill="#000000" fill-rule="nonzero" fill-opacity="1" /><path clip-path="url(#clip560)" d="M612.885 1370 L612.885 1382.71 L609.424 1382.71 L609.424 1370.11 Q609.424 1367.12 608.258 1365.64 Q607.092 1364.15 604.76 1364.15 Q601.957 1364.15 600.34 1365.94 Q598.722 1367.72 598.722 1370.81 L598.722 1382.71 L595.243 1382.71 L595.243 1361.65 L598.722 1361.65 L598.722 1364.92 Q599.964 1363.02 601.638 1362.08 Q603.33 1361.14 605.531 1361.14 Q609.161 1361.14 611.023 1363.4 Q612.885 1365.64 612.885 1370 Z" fill="#000000" fill-rule="nonzero" fill-opacity="1" /><path clip-path="url(#clip560)" d="M630.451 1353.45 L630.451 1356.33 L627.141 1356.33 Q625.279 1356.33 624.546 1357.08 Q623.831 1357.83 623.831 1359.79 L623.831 1361.65 L629.53 1361.65 L629.53 1364.34 L623.831 1364.34 L623.831 1382.71 L620.351 1382.71 L620.351 1364.34 L617.041 1364.34 L617.041 1361.65 L620.351 1361.65 L620.351 1360.18 Q620.351 1356.66 621.988 1355.07 Q623.624 1353.45 627.179 1353.45 L630.451 1353.45 Z" fill="#000000" fill-rule="nonzero" fill-opacity="1" /><path clip-path="url(#clip560)" d="Mnan nan Lnan nan Lnan nan Lnan nan Lnan nan Lnan nan Lnan nan Lnan nan Lnan nan Lnan nan Lnan nan Lnan nan Z" fill="#000000" fill-rule="nonzero" fill-opacity="1" /><path clip-path="url(#clip560)" d="Mnan nan Qnan nan nan nan Qnan nan nan nan Qnan nan nan nan Qnan nan nan nan Qnan nan nan nan Qnan nan nan nan Qnan nan nan nan Qnan nan nan nan Mnan nan Qnan nan nan nan Qnan nan nan nan Qnan nan nan nan Qnan nan nan nan Qnan nan nan nan Qnan nan nan nan Qnan nan nan nan Qnan nan nan nan Z" fill="#000000" fill-rule="nonzero" fill-opacity="1" /><path clip-path="url(#clip560)" d="Mnan nan Lnan nan Lnan nan Lnan nan Lnan nan Lnan nan Lnan nan Lnan nan Lnan nan Lnan nan Lnan nan Z" fill="#000000" fill-rule="nonzero" fill-opacity="1" /><path clip-path="url(#clip560)" d="Mnan nan Qnan nan nan nan Qnan nan nan nan Qnan nan nan nan Qnan nan nan nan Qnan nan nan nan Qnan nan nan nan Lnan nan Lnan nan Mnan nan Lnan nan Lnan nan Lnan nan Qnan nan nan nan Qnan nan nan nan Qnan nan nan nan Qnan nan nan nan Qnan nan nan nan Qnan nan nan nan Lnan nan Lnan nan Qnan nan nan nan Qnan nan nan nan Qnan nan nan nan Qnan nan nan nan Lnan nan Qnan nan nan nan Qnan nan nan nan Qnan nan nan nan Qnan nan nan nan Z" fill="#000000" fill-rule="nonzero" fill-opacity="1" /><path clip-path="url(#clip560)" d="Mnan nan Lnan nan Lnan nan Lnan nan Lnan nan Lnan nan Lnan nan Lnan nan Lnan nan Lnan nan Lnan nan Z" fill="#000000" fill-rule="nonzero" fill-opacity="1" /><path clip-path="url(#clip560)" d="M14.1925 895.579 L79.3773 895.579 L79.3773 900.99 L14.1925 900.99 L14.1925 895.579 Z" fill="#000000" fill-rule="nonzero" fill-opacity="1" /><path clip-path="url(#clip560)" d="M14.1925 873.618 L79.3773 873.618 L79.3773 879.029 L14.1925 879.029 L14.1925 873.618 Z" fill="#000000" fill-rule="nonzero" fill-opacity="1" /><path clip-path="url(#clip560)" d="M20.1444 823.36 L26.9239 823.36 Q23.9002 826.607 22.4043 830.299 Q20.9083 833.959 20.9083 838.097 Q20.9083 846.245 25.9054 850.574 Q30.8707 854.903 40.2919 854.903 Q49.6813 854.903 54.6784 850.574 Q59.6436 846.245 59.6436 838.097 Q59.6436 833.959 58.1477 830.299 Q56.6518 826.607 53.6281 823.36 L60.3439 823.36 Q62.6355 826.734 63.7814 830.522 Q64.9272 834.278 64.9272 838.479 Q64.9272 849.269 58.3387 855.475 Q51.7183 861.682 40.2919 861.682 Q28.8336 861.682 22.2451 855.475 Q15.6248 849.269 15.6248 838.479 Q15.6248 834.214 16.7706 830.458 Q17.8846 826.671 20.1444 823.36 Z" fill="#000000" fill-rule="nonzero" fill-opacity="1" /><path clip-path="url(#clip560)" d="M14.5426 799.616 Q21.8632 803.881 29.0246 805.95 Q36.186 808.019 43.5384 808.019 Q50.8908 808.019 58.1159 805.95 Q65.3091 803.85 72.5979 799.616 L72.5979 804.709 Q65.1182 809.483 57.8931 811.87 Q50.668 814.226 43.5384 814.226 Q36.4406 814.226 29.2474 811.87 Q22.0542 809.515 14.5426 804.709 L14.5426 799.616 Z" fill="#000000" fill-rule="nonzero" fill-opacity="1" /><path clip-path="url(#clip560)" d="M46.212 784.752 Q52.6732 784.752 56.3653 782.111 Q60.0256 779.437 60.0256 774.79 Q60.0256 770.143 56.3653 767.47 Q52.6732 764.796 46.212 764.796 Q39.7508 764.796 36.0905 767.47 Q32.3984 770.143 32.3984 774.79 Q32.3984 779.437 36.0905 782.111 Q39.7508 784.752 46.212 784.752 M58.657 764.796 Q61.8398 766.642 63.3994 769.475 Q64.9272 772.276 64.9272 776.222 Q64.9272 782.684 59.771 786.758 Q54.6147 790.8 46.212 790.8 Q37.8093 790.8 32.6531 786.758 Q27.4968 782.684 27.4968 776.222 Q27.4968 772.276 29.0564 769.475 Q30.5842 766.642 33.7671 764.796 L28.3562 764.796 L28.3562 758.939 L77.5631 758.939 L77.5631 764.796 L58.657 764.796 Z" fill="#000000" fill-rule="nonzero" fill-opacity="1" /><path clip-path="url(#clip560)" d="M55.9197 745.381 L55.9197 738.665 L61.3942 738.665 L71.5793 743.885 L71.5793 747.99 L61.3942 745.381 L55.9197 745.381 Z" fill="#000000" fill-rule="nonzero" fill-opacity="1" /><path clip-path="url(#clip560)" d="M18.2347 720.363 L28.3562 720.363 L28.3562 708.3 L32.9077 708.3 L32.9077 720.363 L52.2594 720.363 Q56.6199 720.363 57.8613 719.186 Q59.1026 717.976 59.1026 714.316 L59.1026 708.3 L64.0042 708.3 L64.0042 714.316 Q64.0042 721.095 61.4897 723.673 Q58.9434 726.252 52.2594 726.252 L32.9077 726.252 L32.9077 730.548 L28.3562 730.548 L28.3562 726.252 L18.2347 726.252 L18.2347 720.363 Z" fill="#000000" fill-rule="nonzero" fill-opacity="1" /><path clip-path="url(#clip560)" d="M14.5426 701.521 L14.5426 696.428 Q22.0542 691.654 29.2474 689.299 Q36.4406 686.912 43.5384 686.912 Q50.668 686.912 57.8931 689.299 Q65.1182 691.654 72.5979 696.428 L72.5979 701.521 Q65.3091 697.288 58.1159 695.219 Q50.8908 693.118 43.5384 693.118 Q36.186 693.118 29.0246 695.219 Q21.8632 697.288 14.5426 701.521 Z" fill="#000000" fill-rule="nonzero" fill-opacity="1" /><path clip-path="url(#clip560)" d="M14.1925 667.623 L79.3773 667.623 L79.3773 673.034 L14.1925 673.034 L14.1925 667.623 Z" fill="#000000" fill-rule="nonzero" fill-opacity="1" /><path clip-path="url(#clip560)" d="M14.1925 645.662 L79.3773 645.662 L79.3773 651.073 L14.1925 651.073 L14.1925 645.662 Z" fill="#000000" fill-rule="nonzero" fill-opacity="1" /><path clip-path="url(#clip560)" d="M823.626 16.7545 L823.626 25.383 Q819.494 21.5346 814.795 19.6307 Q810.137 17.7268 804.871 17.7268 Q794.5 17.7268 788.991 24.0867 Q783.482 30.4061 783.482 42.3968 Q783.482 54.3469 788.991 60.7069 Q794.5 67.0263 804.871 67.0263 Q810.137 67.0263 814.795 65.1223 Q819.494 63.2184 823.626 59.3701 L823.626 67.9175 Q819.332 70.8341 814.512 72.2924 Q809.732 73.7508 804.384 73.7508 Q790.652 73.7508 782.753 65.3654 Q774.853 56.9395 774.853 42.3968 Q774.853 27.8135 782.753 19.4281 Q790.652 11.0023 804.384 11.0023 Q809.813 11.0023 814.593 12.4606 Q819.413 13.8784 823.626 16.7545 Z" fill="#000000" fill-rule="nonzero" fill-opacity="1" /><path clip-path="url(#clip560)" d="M853.522 32.4315 Q847.527 32.4315 844.043 37.1306 Q840.559 41.7891 840.559 49.9314 Q840.559 58.0738 844.002 62.7728 Q847.486 67.4314 853.522 67.4314 Q859.477 67.4314 862.96 62.7323 Q866.444 58.0333 866.444 49.9314 Q866.444 41.8701 862.96 37.1711 Q859.477 32.4315 853.522 32.4315 M853.522 26.1121 Q863.244 26.1121 868.794 32.4315 Q874.344 38.7509 874.344 49.9314 Q874.344 61.0714 868.794 67.4314 Q863.244 73.7508 853.522 73.7508 Q843.759 73.7508 838.209 67.4314 Q832.7 61.0714 832.7 49.9314 Q832.7 38.7509 838.209 32.4315 Q843.759 26.1121 853.522 26.1121 Z" fill="#000000" fill-rule="nonzero" fill-opacity="1" /><path clip-path="url(#clip560)" d="M924.413 45.1919 L924.413 72.576 L916.959 72.576 L916.959 45.4349 Q916.959 38.994 914.447 35.7938 Q911.936 32.5936 906.913 32.5936 Q900.877 32.5936 897.393 36.4419 Q893.909 40.2903 893.909 46.9338 L893.909 72.576 L886.415 72.576 L886.415 27.2059 L893.909 27.2059 L893.909 34.2544 Q896.583 30.163 900.188 28.1376 Q903.834 26.1121 908.574 26.1121 Q916.392 26.1121 920.402 30.9732 Q924.413 35.7938 924.413 45.1919 Z" fill="#000000" fill-rule="nonzero" fill-opacity="1" /><path clip-path="url(#clip560)" d="M968.203 28.5427 L968.203 35.5912 Q965.043 33.9709 961.641 33.1607 Q958.238 32.3505 954.592 32.3505 Q949.042 32.3505 946.247 34.0519 Q943.492 35.7533 943.492 39.156 Q943.492 41.7486 945.477 43.2475 Q947.462 44.7058 953.458 46.0426 L956.01 46.6097 Q963.95 48.3111 967.271 51.4303 Q970.634 54.509 970.634 60.0587 Q970.634 66.3781 965.61 70.0644 Q960.628 73.7508 951.878 73.7508 Q948.232 73.7508 944.262 73.0216 Q940.333 72.3329 935.958 70.9151 L935.958 63.2184 Q940.09 65.3654 944.1 66.4591 Q948.11 67.5124 952.04 67.5124 Q957.306 67.5124 960.142 65.73 Q962.977 63.9071 962.977 60.6258 Q962.977 57.5877 960.911 55.9673 Q958.886 54.3469 951.959 52.8481 L949.366 52.2405 Q942.439 50.7821 939.361 47.7845 Q936.282 44.7463 936.282 39.4801 Q936.282 33.0797 940.819 29.5959 Q945.356 26.1121 953.701 26.1121 Q957.833 26.1121 961.478 26.7198 Q965.124 27.3274 968.203 28.5427 Z" fill="#000000" fill-rule="nonzero" fill-opacity="1" /><path clip-path="url(#clip560)" d="M989.875 14.324 L989.875 27.2059 L1005.23 27.2059 L1005.23 32.9987 L989.875 32.9987 L989.875 57.6282 Q989.875 63.1779 991.374 64.7578 Q992.913 66.3376 997.572 66.3376 L1005.23 66.3376 L1005.23 72.576 L997.572 72.576 Q988.944 72.576 985.662 69.3758 Q982.381 66.1351 982.381 57.6282 L982.381 32.9987 L976.912 32.9987 L976.912 27.2059 L982.381 27.2059 L982.381 14.324 L989.875 14.324 Z" fill="#000000" fill-rule="nonzero" fill-opacity="1" /><path clip-path="url(#clip560)" d="M1041.32 34.1734 Q1040.07 33.4443 1038.57 33.1202 Q1037.11 32.7556 1035.33 32.7556 Q1029.01 32.7556 1025.6 36.8875 Q1022.24 40.9789 1022.24 48.6757 L1022.24 72.576 L1014.75 72.576 L1014.75 27.2059 L1022.24 27.2059 L1022.24 34.2544 Q1024.59 30.1225 1028.36 28.1376 Q1032.13 26.1121 1037.51 26.1121 Q1038.28 26.1121 1039.22 26.2337 Q1040.15 26.3147 1041.28 26.5172 L1041.32 34.1734 Z" fill="#000000" fill-rule="nonzero" fill-opacity="1" /><path clip-path="url(#clip560)" d="M1069.76 49.7694 Q1060.73 49.7694 1057.24 51.8354 Q1053.76 53.9013 1053.76 58.8839 Q1053.76 62.8538 1056.35 65.2034 Q1058.98 67.5124 1063.48 67.5124 Q1069.68 67.5124 1073.4 63.1374 Q1077.17 58.7219 1077.17 51.4303 L1077.17 49.7694 L1069.76 49.7694 M1084.63 46.6907 L1084.63 72.576 L1077.17 72.576 L1077.17 65.6895 Q1074.62 69.8214 1070.81 71.8063 Q1067 73.7508 1061.5 73.7508 Q1054.53 73.7508 1050.4 69.8619 Q1046.3 65.9325 1046.3 59.3701 Q1046.3 51.7138 1051.41 47.825 Q1056.55 43.9361 1066.72 43.9361 L1077.17 43.9361 L1077.17 43.2069 Q1077.17 38.0623 1073.77 35.2672 Q1070.41 32.4315 1064.29 32.4315 Q1060.4 32.4315 1056.72 33.3632 Q1053.03 34.295 1049.63 36.1584 L1049.63 29.2718 Q1053.72 27.692 1057.57 26.9223 Q1061.41 26.1121 1065.06 26.1121 Q1074.9 26.1121 1079.76 31.2163 Q1084.63 36.3204 1084.63 46.6907 Z" fill="#000000" fill-rule="nonzero" fill-opacity="1" /><path clip-path="url(#clip560)" d="M1099.98 27.2059 L1107.43 27.2059 L1107.43 72.576 L1099.98 72.576 L1099.98 27.2059 M1099.98 9.54393 L1107.43 9.54393 L1107.43 18.9825 L1099.98 18.9825 L1099.98 9.54393 Z" fill="#000000" fill-rule="nonzero" fill-opacity="1" /><path clip-path="url(#clip560)" d="M1160.74 45.1919 L1160.74 72.576 L1153.29 72.576 L1153.29 45.4349 Q1153.29 38.994 1150.78 35.7938 Q1148.27 32.5936 1143.24 32.5936 Q1137.21 32.5936 1133.72 36.4419 Q1130.24 40.2903 1130.24 46.9338 L1130.24 72.576 L1122.74 72.576 L1122.74 27.2059 L1130.24 27.2059 L1130.24 34.2544 Q1132.91 30.163 1136.52 28.1376 Q1140.16 26.1121 1144.9 26.1121 Q1152.72 26.1121 1156.73 30.9732 Q1160.74 35.7938 1160.74 45.1919 Z" fill="#000000" fill-rule="nonzero" fill-opacity="1" /><path clip-path="url(#clip560)" d="M1182.98 14.324 L1182.98 27.2059 L1198.33 27.2059 L1198.33 32.9987 L1182.98 32.9987 L1182.98 57.6282 Q1182.98 63.1779 1184.48 64.7578 Q1186.02 66.3376 1190.68 66.3376 L1198.33 66.3376 L1198.33 72.576 L1190.68 72.576 Q1182.05 72.576 1178.77 69.3758 Q1175.49 66.1351 1175.49 57.6282 L1175.49 32.9987 L1170.02 32.9987 L1170.02 27.2059 L1175.49 27.2059 L1175.49 14.324 L1182.98 14.324 Z" fill="#000000" fill-rule="nonzero" fill-opacity="1" /><path clip-path="url(#clip560)" d="M1263.51 44.2197 Q1266.15 45.1109 1268.62 48.0275 Q1271.13 50.9442 1273.64 56.0483 L1281.95 72.576 L1273.16 72.576 L1265.42 57.061 Q1262.42 50.9847 1259.58 48.9997 Q1256.79 47.0148 1251.93 47.0148 L1243.02 47.0148 L1243.02 72.576 L1234.83 72.576 L1234.83 12.096 L1253.31 12.096 Q1263.68 12.096 1268.78 16.4305 Q1273.88 20.7649 1273.88 29.5149 Q1273.88 35.2267 1271.21 38.994 Q1268.58 42.7613 1263.51 44.2197 M1243.02 18.8205 L1243.02 40.2903 L1253.31 40.2903 Q1259.22 40.2903 1262.22 37.5762 Q1265.26 34.8216 1265.26 29.5149 Q1265.26 24.2082 1262.22 21.5346 Q1259.22 18.8205 1253.31 18.8205 L1243.02 18.8205 Z" fill="#000000" fill-rule="nonzero" fill-opacity="1" /><path clip-path="url(#clip560)" d="M1327.23 48.0275 L1327.23 51.6733 L1292.96 51.6733 Q1293.45 59.3701 1297.58 63.421 Q1301.75 67.4314 1309.17 67.4314 Q1313.46 67.4314 1317.47 66.3781 Q1321.52 65.3249 1325.49 63.2184 L1325.49 70.267 Q1321.48 71.9684 1317.27 72.8596 Q1313.06 73.7508 1308.72 73.7508 Q1297.87 73.7508 1291.51 67.4314 Q1285.19 61.1119 1285.19 50.3365 Q1285.19 39.1965 1291.18 32.6746 Q1297.22 26.1121 1307.43 26.1121 Q1316.58 26.1121 1321.89 32.0264 Q1327.23 37.9003 1327.23 48.0275 M1319.78 45.84 Q1319.7 39.7232 1316.34 36.0774 Q1313.02 32.4315 1307.51 32.4315 Q1301.27 32.4315 1297.5 35.9558 Q1293.77 39.4801 1293.21 45.8805 L1319.78 45.84 Z" fill="#000000" fill-rule="nonzero" fill-opacity="1" /><path clip-path="url(#clip560)" d="M1368.39 28.5427 L1368.39 35.5912 Q1365.23 33.9709 1361.83 33.1607 Q1358.43 32.3505 1354.78 32.3505 Q1349.23 32.3505 1346.44 34.0519 Q1343.68 35.7533 1343.68 39.156 Q1343.68 41.7486 1345.67 43.2475 Q1347.65 44.7058 1353.65 46.0426 L1356.2 46.6097 Q1364.14 48.3111 1367.46 51.4303 Q1370.82 54.509 1370.82 60.0587 Q1370.82 66.3781 1365.8 70.0644 Q1360.82 73.7508 1352.07 73.7508 Q1348.42 73.7508 1344.45 73.0216 Q1340.52 72.3329 1336.15 70.9151 L1336.15 63.2184 Q1340.28 65.3654 1344.29 66.4591 Q1348.3 67.5124 1352.23 67.5124 Q1357.49 67.5124 1360.33 65.73 Q1363.17 63.9071 1363.17 60.6258 Q1363.17 57.5877 1361.1 55.9673 Q1359.07 54.3469 1352.15 52.8481 L1349.56 52.2405 Q1342.63 50.7821 1339.55 47.7845 Q1336.47 44.7463 1336.47 39.4801 Q1336.47 33.0797 1341.01 29.5959 Q1345.54 26.1121 1353.89 26.1121 Q1358.02 26.1121 1361.67 26.7198 Q1365.31 27.3274 1368.39 28.5427 Z" fill="#000000" fill-rule="nonzero" fill-opacity="1" /><path clip-path="url(#clip560)" d="M1382.69 27.2059 L1390.15 27.2059 L1390.15 72.576 L1382.69 72.576 L1382.69 27.2059 M1382.69 9.54393 L1390.15 9.54393 L1390.15 18.9825 L1382.69 18.9825 L1382.69 9.54393 Z" fill="#000000" fill-rule="nonzero" fill-opacity="1" /><path clip-path="url(#clip560)" d="M1435.6 34.0924 L1435.6 9.54393 L1443.05 9.54393 L1443.05 72.576 L1435.6 72.576 L1435.6 65.7705 Q1433.25 69.8214 1429.64 71.8063 Q1426.08 73.7508 1421.05 73.7508 Q1412.83 73.7508 1407.65 67.1883 Q1402.5 60.6258 1402.5 49.9314 Q1402.5 39.2371 1407.65 32.6746 Q1412.83 26.1121 1421.05 26.1121 Q1426.08 26.1121 1429.64 28.0971 Q1433.25 30.0415 1435.6 34.0924 M1410.2 49.9314 Q1410.2 58.1548 1413.56 62.8538 Q1416.96 67.5124 1422.88 67.5124 Q1428.79 67.5124 1432.19 62.8538 Q1435.6 58.1548 1435.6 49.9314 Q1435.6 41.7081 1432.19 37.0496 Q1428.79 32.3505 1422.88 32.3505 Q1416.96 32.3505 1413.56 37.0496 Q1410.2 41.7081 1410.2 49.9314 Z" fill="#000000" fill-rule="nonzero" fill-opacity="1" /><path clip-path="url(#clip560)" d="M1457.63 54.671 L1457.63 27.2059 L1465.09 27.2059 L1465.09 54.3874 Q1465.09 60.8284 1467.6 64.0691 Q1470.11 67.2693 1475.13 67.2693 Q1481.17 67.2693 1484.65 63.421 Q1488.18 59.5726 1488.18 52.9291 L1488.18 27.2059 L1495.63 27.2059 L1495.63 72.576 L1488.18 72.576 L1488.18 65.6084 Q1485.46 69.7404 1481.86 71.7658 Q1478.29 73.7508 1473.55 73.7508 Q1465.74 73.7508 1461.68 68.8897 Q1457.63 64.0286 1457.63 54.671 M1476.39 26.1121 L1476.39 26.1121 Z" fill="#000000" fill-rule="nonzero" fill-opacity="1" /><path clip-path="url(#clip560)" d="M1531.6 49.7694 Q1522.57 49.7694 1519.09 51.8354 Q1515.6 53.9013 1515.6 58.8839 Q1515.6 62.8538 1518.19 65.2034 Q1520.83 67.5124 1525.32 67.5124 Q1531.52 67.5124 1535.25 63.1374 Q1539.02 58.7219 1539.02 51.4303 L1539.02 49.7694 L1531.6 49.7694 M1546.47 46.6907 L1546.47 72.576 L1539.02 72.576 L1539.02 65.6895 Q1536.46 69.8214 1532.66 71.8063 Q1528.85 73.7508 1523.34 73.7508 Q1516.37 73.7508 1512.24 69.8619 Q1508.15 65.9325 1508.15 59.3701 Q1508.15 51.7138 1513.25 47.825 Q1518.4 43.9361 1528.56 43.9361 L1539.02 43.9361 L1539.02 43.2069 Q1539.02 38.0623 1535.61 35.2672 Q1532.25 32.4315 1526.13 32.4315 Q1522.25 32.4315 1518.56 33.3632 Q1514.87 34.295 1511.47 36.1584 L1511.47 29.2718 Q1515.56 27.692 1519.41 26.9223 Q1523.26 26.1121 1526.9 26.1121 Q1536.75 26.1121 1541.61 31.2163 Q1546.47 36.3204 1546.47 46.6907 Z" fill="#000000" fill-rule="nonzero" fill-opacity="1" /><path clip-path="url(#clip560)" d="M1561.82 9.54393 L1569.28 9.54393 L1569.28 72.576 L1561.82 72.576 L1561.82 9.54393 Z" fill="#000000" fill-rule="nonzero" fill-opacity="1" /><path clip-path="url(#clip560)" d="M1656.86 16.7545 L1656.86 25.383 Q1652.72 21.5346 1648.03 19.6307 Q1643.37 17.7268 1638.1 17.7268 Q1627.73 17.7268 1622.22 24.0867 Q1616.71 30.4061 1616.71 42.3968 Q1616.71 54.3469 1622.22 60.7069 Q1627.73 67.0263 1638.1 67.0263 Q1643.37 67.0263 1648.03 65.1223 Q1652.72 63.2184 1656.86 59.3701 L1656.86 67.9175 Q1652.56 70.8341 1647.74 72.2924 Q1642.96 73.7508 1637.61 73.7508 Q1623.88 73.7508 1615.98 65.3654 Q1608.08 56.9395 1608.08 42.3968 Q1608.08 27.8135 1615.98 19.4281 Q1623.88 11.0023 1637.61 11.0023 Q1643.04 11.0023 1647.82 12.4606 Q1652.64 13.8784 1656.86 16.7545 Z" fill="#000000" fill-rule="nonzero" fill-opacity="1" /><path clip-path="url(#clip560)" d="M1706.89 45.1919 L1706.89 72.576 L1699.43 72.576 L1699.43 45.4349 Q1699.43 38.994 1696.92 35.7938 Q1694.41 32.5936 1689.39 32.5936 Q1683.35 32.5936 1679.87 36.4419 Q1676.38 40.2903 1676.38 46.9338 L1676.38 72.576 L1668.89 72.576 L1668.89 9.54393 L1676.38 9.54393 L1676.38 34.2544 Q1679.06 30.163 1682.66 28.1376 Q1686.31 26.1121 1691.05 26.1121 Q1698.86 26.1121 1702.87 30.9732 Q1706.89 35.7938 1706.89 45.1919 Z" fill="#000000" fill-rule="nonzero" fill-opacity="1" /><path clip-path="url(#clip560)" d="M1760.56 48.0275 L1760.56 51.6733 L1726.29 51.6733 Q1726.78 59.3701 1730.91 63.421 Q1735.08 67.4314 1742.49 67.4314 Q1746.79 67.4314 1750.8 66.3781 Q1754.85 65.3249 1758.82 63.2184 L1758.82 70.267 Q1754.81 71.9684 1750.59 72.8596 Q1746.38 73.7508 1742.05 73.7508 Q1731.19 73.7508 1724.83 67.4314 Q1718.51 61.1119 1718.51 50.3365 Q1718.51 39.1965 1724.51 32.6746 Q1730.54 26.1121 1740.75 26.1121 Q1749.91 26.1121 1755.21 32.0264 Q1760.56 37.9003 1760.56 48.0275 M1753.11 45.84 Q1753.03 39.7232 1749.66 36.0774 Q1746.34 32.4315 1740.83 32.4315 Q1734.59 32.4315 1730.83 35.9558 Q1727.1 39.4801 1726.53 45.8805 L1753.11 45.84 Z" fill="#000000" fill-rule="nonzero" fill-opacity="1" /><path clip-path="url(#clip560)" d="M1805.44 28.9478 L1805.44 35.9153 Q1802.28 34.1734 1799.08 33.3227 Q1795.92 32.4315 1792.68 32.4315 Q1785.43 32.4315 1781.42 37.0496 Q1777.41 41.6271 1777.41 49.9314 Q1777.41 58.2358 1781.42 62.8538 Q1785.43 67.4314 1792.68 67.4314 Q1795.92 67.4314 1799.08 66.5807 Q1802.28 65.6895 1805.44 63.9476 L1805.44 70.8341 Q1802.32 72.2924 1798.96 73.0216 Q1795.64 73.7508 1791.87 73.7508 Q1781.62 73.7508 1775.59 67.3098 Q1769.55 60.8689 1769.55 49.9314 Q1769.55 38.832 1775.63 32.472 Q1781.75 26.1121 1792.36 26.1121 Q1795.8 26.1121 1799.08 26.8413 Q1802.37 27.5299 1805.44 28.9478 Z" fill="#000000" fill-rule="nonzero" fill-opacity="1" /><path clip-path="url(#clip560)" d="M1818.12 9.54393 L1825.62 9.54393 L1825.62 46.7717 L1847.86 27.2059 L1857.38 27.2059 L1833.31 48.4326 L1858.39 72.576 L1848.67 72.576 L1825.62 50.4176 L1825.62 72.576 L1818.12 72.576 L1818.12 9.54393 Z" fill="#000000" fill-rule="nonzero" fill-opacity="1" /><polyline clip-path="url(#clip562)" style="stroke:#009af9; stroke-linecap:round; stroke-linejoin:round; stroke-width:12; stroke-opacity:1; fill:none" points="703.253,1386.4 715.521,1386.4 727.788,1386.4 740.055,1386.4 752.323,1386.4 764.59,1386.4 776.857,1386.4 789.125,1386.4 801.392,1386.4 813.659,1386.4 825.927,1386.4 838.194,1386.4 850.462,1386.4 862.729,1386.4 874.996,1386.4 887.264,1386.4 899.531,1386.4 911.798,1386.4 924.066,1386.4 936.333,1386.4 948.6,1386.4 960.868,1386.4 973.135,1386.4 985.403,1386.4 997.67,1386.4 1009.94,1386.4 1022.2,1386.4 1034.47,1386.4 1046.74,1386.4 1059.01,1386.4 1071.27,1386.4 1083.54,1386.4 1095.81,1386.4 1108.08,1386.4 1120.34,1386.4 1132.61,1386.4 1144.88,1386.4 1157.15,1386.4 1169.41,1386.4 1181.68,1386.4 1193.95,1386.4 1206.22,1386.4 1218.48,1386.4 1230.75,1386.4 1243.02,1386.4 1255.28,1386.4 1267.55,1386.4 1279.82,1386.4 1292.09,1386.4 1304.35,1386.4 1316.62,1386.4 1328.89,1386.4 1341.16,1386.4 1353.42,1386.4 1365.69,1386.4 1377.96,1386.4 1390.23,1386.4 1402.49,1386.4 1414.76,1386.4 1427.03,1386.4 1439.29,1386.4 1451.56,1386.4 1463.83,1386.4 1476.1,1386.4 1488.36,1386.4 1500.63,1386.4 1512.9,1386.4 1525.17,1386.4 1537.43,1386.4 1549.7,1386.4 1561.97,1386.4 1574.24,1386.4 1586.5,1386.4 1598.77,1386.4 1611.04,1386.4 1623.31,1386.4 1635.57,1386.4 1647.84,1386.4 1660.11,1386.4 1672.37,1386.4 1684.64,1386.4 1696.91,1386.4 1709.18,1386.4 1721.44,1386.4 1733.71,1386.4 1745.98,1386.4 1758.25,1386.4 1770.51,1386.4 1782.78,1386.4 1795.05,1386.4 1807.32,1386.4 1819.58,1386.4 1831.85,1386.4 1844.12,1386.4 1856.39,1386.4 1868.65,1386.4 1880.92,1386.4 1893.19,1386.4 1905.45,1386.4 1917.72,1386.4 1929.99,1386.4 "/>
<polyline clip-path="url(#clip562)" style="stroke:#e26f46; stroke-linecap:round; stroke-linejoin:round; stroke-width:8; stroke-opacity:1; fill:none" points="703.253,1386.4 715.521,1386.4 727.788,1386.39 740.055,1386.39 752.323,1386.38 764.59,1386.35 776.857,1386.3 789.125,1386.23 801.392,1386.11 813.659,1385.95 825.927,1385.72 838.194,1385.42 850.462,1385.04 862.729,1384.56 874.996,1383.96 887.264,1383.23 899.531,1382.36 911.798,1381.33 924.066,1386.4 936.333,1386.4 948.6,1386.4 960.868,1386.4 973.135,1386.4 985.403,1386.4 997.67,1386.4 1009.94,1386.4 1022.2,1386.4 1034.47,1386.4 1046.74,1386.4 1059.01,1386.4 1071.27,1386.4 1083.54,1386.4 1095.81,1386.4 1108.08,1386.4 1120.34,1386.4 1132.61,1386.4 1144.88,1386.4 1157.15,1386.4 1169.41,1386.4 1181.68,1386.4 1193.95,1386.4 1206.22,1386.4 1218.48,1386.4 1230.75,1386.4 1243.02,1386.4 1255.28,1386.4 1267.55,1386.4 1279.82,1386.4 1292.09,1386.4 1304.35,1386.4 1316.62,1386.4 1328.89,1386.4 1341.16,1386.4 1353.42,1386.4 1365.69,1386.4 1377.96,1386.4 1390.23,1386.4 1402.49,1386.4 1414.76,1386.4 1427.03,1386.4 1439.29,1386.4 1451.56,1386.4 1463.83,1386.4 1476.1,1386.4 1488.36,1386.4 1500.63,1386.4 1512.9,1386.4 1525.17,1386.4 1537.43,1386.4 1549.7,1386.4 1561.97,1386.4 1574.24,1386.4 1586.5,1386.4 1598.77,1386.4 1611.04,1386.4 1623.31,1386.4 1635.57,1386.4 1647.84,1386.4 1660.11,1386.4 1672.37,1386.4 1684.64,1386.4 1696.91,1386.4 1709.18,1386.4 1721.44,1386.4 1733.71,1386.4 1745.98,1386.4 1758.25,1386.4 1770.51,1386.4 1782.78,1386.4 1795.05,1386.4 1807.32,1386.4 1819.58,1386.4 1831.85,1386.4 1844.12,1386.4 1856.39,1386.4 1868.65,1386.4 1880.92,1386.4 1893.19,1386.4 1905.45,1386.4 1917.72,1386.4 1929.99,1386.4 "/>
<polyline clip-path="url(#clip562)" style="stroke:#3da44d; stroke-linecap:round; stroke-linejoin:round; stroke-width:8; stroke-opacity:1; fill:none" points="703.253,1386.4 715.521,1386.4 727.788,1386.4 740.055,1386.4 752.323,1386.4 764.59,1386.4 776.857,1386.4 789.125,1386.4 801.392,1386.4 813.659,1386.4 825.927,1386.4 838.194,1386.4 850.462,1386.4 862.729,1386.4 874.996,1386.4 887.264,1386.4 899.531,1386.4 911.798,1386.4 924.066,1386.4 936.333,1386.4 948.6,1386.4 960.868,1386.4 973.135,1386.4 985.403,1386.4 997.67,1386.4 1009.94,1386.4 1022.2,1386.4 1034.47,1386.4 1046.74,1386.4 1059.01,1386.4 1071.27,1386.4 1083.54,1386.4 1095.81,1386.4 1108.08,1386.4 1120.34,1386.4 1132.61,1386.4 1144.88,1386.4 1157.15,1386.4 1169.41,1386.4 1181.68,1386.4 1193.95,1386.4 1206.22,1386.4 1218.48,1386.4 1230.75,1386.4 1243.02,1386.4 1255.28,1386.4 1267.55,1386.4 1279.82,1386.4 1292.09,1386.4 1304.35,1386.4 1316.62,1386.4 1328.89,1386.4 1341.16,1386.4 1353.42,1386.4 1365.69,1386.4 1377.96,1386.4 1390.23,1386.4 1402.49,1386.4 1414.76,1386.4 1427.03,1386.4 1439.29,1386.4 1451.56,1386.4 1463.83,1386.4 1476.1,1386.4 1488.36,1386.4 1500.63,1386.4 1512.9,1386.4 1525.17,1386.4 1537.43,1386.4 1549.7,1386.4 1561.97,1386.4 1574.24,1386.4 1586.5,1386.4 1598.77,1386.4 1611.04,1386.4 1623.31,1386.4 1635.57,1386.4 1647.84,1386.4 1660.11,1386.4 1672.37,1386.4 1684.64,1386.4 1696.91,1386.4 1709.18,1386.4 1721.44,1386.4 1733.71,1386.4 1745.98,1386.4 1758.25,1386.4 1770.51,1386.4 1782.78,1386.4 1795.05,1386.4 1807.32,1386.4 1819.58,1386.4 1831.85,1386.4 1844.12,1386.4 1856.39,1386.4 1868.65,1386.4 1880.92,1386.4 1893.19,1386.4 1905.45,1386.4 1917.72,1386.4 1929.99,1386.4 "/>
<path clip-path="url(#clip560)" d="M1915.99 374.156 L2283.68 374.156 L2283.68 166.796 L1915.99 166.796  Z" fill="#ffffff" fill-rule="evenodd" fill-opacity="1"/>
<polyline clip-path="url(#clip560)" style="stroke:#000000; stroke-linecap:round; stroke-linejoin:round; stroke-width:4; stroke-opacity:1; fill:none" points="1915.99,374.156 2283.68,374.156 2283.68,166.796 1915.99,166.796 1915.99,374.156 "/>
<polyline clip-path="url(#clip560)" style="stroke:#009af9; stroke-linecap:round; stroke-linejoin:round; stroke-width:12; stroke-opacity:1; fill:none" points="1939.02,218.636 2077.17,218.636 "/>
<path clip-path="url(#clip560)" d="M2128.06 204.018 L2128.06 208.948 Q2125.7 206.749 2123.02 205.661 Q2120.35 204.573 2117.35 204.573 Q2111.42 204.573 2108.27 208.208 Q2105.12 211.819 2105.12 218.67 Q2105.12 225.499 2108.27 229.133 Q2111.42 232.744 2117.35 232.744 Q2120.35 232.744 2123.02 231.656 Q2125.7 230.569 2128.06 228.369 L2128.06 233.254 Q2125.61 234.92 2122.85 235.754 Q2120.12 236.587 2117.07 236.587 Q2109.22 236.587 2104.71 231.795 Q2100.19 226.981 2100.19 218.67 Q2100.19 210.337 2104.71 205.546 Q2109.22 200.731 2117.07 200.731 Q2120.17 200.731 2122.9 201.564 Q2125.66 202.374 2128.06 204.018 Z" fill="#000000" fill-rule="nonzero" fill-opacity="1" /><path clip-path="url(#clip560)" d="M2146.88 222.883 Q2141.72 222.883 2139.73 224.064 Q2137.74 225.244 2137.74 228.092 Q2137.74 230.36 2139.22 231.703 Q2140.73 233.022 2143.29 233.022 Q2146.84 233.022 2148.97 230.522 Q2151.12 227.999 2151.12 223.832 L2151.12 222.883 L2146.88 222.883 M2155.38 221.124 L2155.38 235.916 L2151.12 235.916 L2151.12 231.981 Q2149.66 234.342 2147.48 235.476 Q2145.31 236.587 2142.16 236.587 Q2138.18 236.587 2135.82 234.365 Q2133.48 232.119 2133.48 228.369 Q2133.48 223.994 2136.4 221.772 Q2139.34 219.55 2145.15 219.55 L2151.12 219.55 L2151.12 219.133 Q2151.12 216.194 2149.17 214.596 Q2147.25 212.976 2143.76 212.976 Q2141.54 212.976 2139.43 213.508 Q2137.32 214.041 2135.38 215.106 L2135.38 211.17 Q2137.72 210.268 2139.91 209.828 Q2142.11 209.365 2144.2 209.365 Q2149.82 209.365 2152.6 212.282 Q2155.38 215.198 2155.38 221.124 Z" fill="#000000" fill-rule="nonzero" fill-opacity="1" /><path clip-path="url(#clip560)" d="M2180.68 210.754 L2180.68 214.782 Q2178.87 213.856 2176.93 213.393 Q2174.98 212.93 2172.9 212.93 Q2169.73 212.93 2168.13 213.902 Q2166.56 214.874 2166.56 216.819 Q2166.56 218.3 2167.69 219.157 Q2168.83 219.99 2172.25 220.754 L2173.71 221.078 Q2178.25 222.05 2180.15 223.832 Q2182.07 225.592 2182.07 228.763 Q2182.07 232.374 2179.2 234.481 Q2176.35 236.587 2171.35 236.587 Q2169.27 236.587 2167 236.17 Q2164.75 235.777 2162.25 234.967 L2162.25 230.569 Q2164.61 231.795 2166.91 232.42 Q2169.2 233.022 2171.44 233.022 Q2174.45 233.022 2176.07 232.004 Q2177.69 230.962 2177.69 229.087 Q2177.69 227.351 2176.51 226.425 Q2175.35 225.499 2171.4 224.643 L2169.91 224.295 Q2165.96 223.462 2164.2 221.749 Q2162.44 220.013 2162.44 217.004 Q2162.44 213.346 2165.03 211.356 Q2167.62 209.365 2172.39 209.365 Q2174.75 209.365 2176.84 209.712 Q2178.92 210.059 2180.68 210.754 Z" fill="#000000" fill-rule="nonzero" fill-opacity="1" /><path clip-path="url(#clip560)" d="M2211.03 221.888 L2211.03 223.971 L2191.44 223.971 Q2191.72 228.369 2194.08 230.684 Q2196.47 232.976 2200.7 232.976 Q2203.16 232.976 2205.45 232.374 Q2207.76 231.772 2210.03 230.569 L2210.03 234.596 Q2207.74 235.568 2205.33 236.078 Q2202.92 236.587 2200.45 236.587 Q2194.24 236.587 2190.61 232.976 Q2187 229.365 2187 223.207 Q2187 216.842 2190.42 213.115 Q2193.87 209.365 2199.71 209.365 Q2204.94 209.365 2207.97 212.745 Q2211.03 216.101 2211.03 221.888 M2206.77 220.638 Q2206.72 217.143 2204.8 215.059 Q2202.9 212.976 2199.75 212.976 Q2196.19 212.976 2194.04 214.99 Q2191.91 217.004 2191.58 220.661 L2206.77 220.638 Z" fill="#000000" fill-rule="nonzero" fill-opacity="1" /><path clip-path="url(#clip560)" d="M2244.82 205.962 L2238.48 223.161 L2251.19 223.161 L2244.82 205.962 M2242.18 201.356 L2247.48 201.356 L2260.66 235.916 L2255.79 235.916 L2252.65 227.05 L2237.07 227.05 L2233.92 235.916 L2228.99 235.916 L2242.18 201.356 Z" fill="#000000" fill-rule="nonzero" fill-opacity="1" /><polyline clip-path="url(#clip560)" style="stroke:#e26f46; stroke-linecap:round; stroke-linejoin:round; stroke-width:8; stroke-opacity:1; fill:none" points="1939.02,270.476 2077.17,270.476 "/>
<path clip-path="url(#clip560)" d="M2128.06 255.858 L2128.06 260.788 Q2125.7 258.589 2123.02 257.501 Q2120.35 256.413 2117.35 256.413 Q2111.42 256.413 2108.27 260.048 Q2105.12 263.659 2105.12 270.51 Q2105.12 277.339 2108.27 280.973 Q2111.42 284.584 2117.35 284.584 Q2120.35 284.584 2123.02 283.496 Q2125.7 282.409 2128.06 280.209 L2128.06 285.094 Q2125.61 286.76 2122.85 287.594 Q2120.12 288.427 2117.07 288.427 Q2109.22 288.427 2104.71 283.635 Q2100.19 278.821 2100.19 270.51 Q2100.19 262.177 2104.71 257.386 Q2109.22 252.571 2117.07 252.571 Q2120.17 252.571 2122.9 253.404 Q2125.66 254.214 2128.06 255.858 Z" fill="#000000" fill-rule="nonzero" fill-opacity="1" /><path clip-path="url(#clip560)" d="M2146.88 274.723 Q2141.72 274.723 2139.73 275.904 Q2137.74 277.084 2137.74 279.932 Q2137.74 282.2 2139.22 283.543 Q2140.73 284.862 2143.29 284.862 Q2146.84 284.862 2148.97 282.362 Q2151.12 279.839 2151.12 275.672 L2151.12 274.723 L2146.88 274.723 M2155.38 272.964 L2155.38 287.756 L2151.12 287.756 L2151.12 283.821 Q2149.66 286.182 2147.48 287.316 Q2145.31 288.427 2142.16 288.427 Q2138.18 288.427 2135.82 286.205 Q2133.48 283.959 2133.48 280.209 Q2133.48 275.834 2136.4 273.612 Q2139.34 271.39 2145.15 271.39 L2151.12 271.39 L2151.12 270.973 Q2151.12 268.034 2149.17 266.436 Q2147.25 264.816 2143.76 264.816 Q2141.54 264.816 2139.43 265.348 Q2137.32 265.881 2135.38 266.946 L2135.38 263.01 Q2137.72 262.108 2139.91 261.668 Q2142.11 261.205 2144.2 261.205 Q2149.82 261.205 2152.6 264.122 Q2155.38 267.038 2155.38 272.964 Z" fill="#000000" fill-rule="nonzero" fill-opacity="1" /><path clip-path="url(#clip560)" d="M2180.68 262.594 L2180.68 266.622 Q2178.87 265.696 2176.93 265.233 Q2174.98 264.77 2172.9 264.77 Q2169.73 264.77 2168.13 265.742 Q2166.56 266.714 2166.56 268.659 Q2166.56 270.14 2167.69 270.997 Q2168.83 271.83 2172.25 272.594 L2173.71 272.918 Q2178.25 273.89 2180.15 275.672 Q2182.07 277.432 2182.07 280.603 Q2182.07 284.214 2179.2 286.321 Q2176.35 288.427 2171.35 288.427 Q2169.27 288.427 2167 288.01 Q2164.75 287.617 2162.25 286.807 L2162.25 282.409 Q2164.61 283.635 2166.91 284.26 Q2169.2 284.862 2171.44 284.862 Q2174.45 284.862 2176.07 283.844 Q2177.69 282.802 2177.69 280.927 Q2177.69 279.191 2176.51 278.265 Q2175.35 277.339 2171.4 276.483 L2169.91 276.135 Q2165.96 275.302 2164.2 273.589 Q2162.44 271.853 2162.44 268.844 Q2162.44 265.186 2165.03 263.196 Q2167.62 261.205 2172.39 261.205 Q2174.75 261.205 2176.84 261.552 Q2178.92 261.899 2180.68 262.594 Z" fill="#000000" fill-rule="nonzero" fill-opacity="1" /><path clip-path="url(#clip560)" d="M2211.03 273.728 L2211.03 275.811 L2191.44 275.811 Q2191.72 280.209 2194.08 282.524 Q2196.47 284.816 2200.7 284.816 Q2203.16 284.816 2205.45 284.214 Q2207.76 283.612 2210.03 282.409 L2210.03 286.436 Q2207.74 287.408 2205.33 287.918 Q2202.92 288.427 2200.45 288.427 Q2194.24 288.427 2190.61 284.816 Q2187 281.205 2187 275.047 Q2187 268.682 2190.42 264.955 Q2193.87 261.205 2199.71 261.205 Q2204.94 261.205 2207.97 264.585 Q2211.03 267.941 2211.03 273.728 M2206.77 272.478 Q2206.72 268.983 2204.8 266.899 Q2202.9 264.816 2199.75 264.816 Q2196.19 264.816 2194.04 266.83 Q2191.91 268.844 2191.58 272.501 L2206.77 272.478 Z" fill="#000000" fill-rule="nonzero" fill-opacity="1" /><path clip-path="url(#clip560)" d="M2237.95 271.251 L2237.95 283.913 L2245.45 283.913 Q2249.22 283.913 2251.03 282.362 Q2252.85 280.788 2252.85 277.571 Q2252.85 274.33 2251.03 272.802 Q2249.22 271.251 2245.45 271.251 L2237.95 271.251 M2237.95 257.038 L2237.95 267.455 L2244.87 267.455 Q2248.29 267.455 2249.96 266.182 Q2251.65 264.885 2251.65 262.247 Q2251.65 259.631 2249.96 258.335 Q2248.29 257.038 2244.87 257.038 L2237.95 257.038 M2233.27 253.196 L2245.22 253.196 Q2250.56 253.196 2253.46 255.418 Q2256.35 257.64 2256.35 261.737 Q2256.35 264.909 2254.87 266.784 Q2253.39 268.659 2250.52 269.122 Q2253.97 269.862 2255.86 272.223 Q2257.78 274.561 2257.78 278.08 Q2257.78 282.709 2254.64 285.233 Q2251.49 287.756 2245.68 287.756 L2233.27 287.756 L2233.27 253.196 Z" fill="#000000" fill-rule="nonzero" fill-opacity="1" /><polyline clip-path="url(#clip560)" style="stroke:#3da44d; stroke-linecap:round; stroke-linejoin:round; stroke-width:8; stroke-opacity:1; fill:none" points="1939.02,322.316 2077.17,322.316 "/>
<path clip-path="url(#clip560)" d="M2128.06 307.698 L2128.06 312.628 Q2125.7 310.429 2123.02 309.341 Q2120.35 308.253 2117.35 308.253 Q2111.42 308.253 2108.27 311.888 Q2105.12 315.499 2105.12 322.35 Q2105.12 329.179 2108.27 332.813 Q2111.42 336.424 2117.35 336.424 Q2120.35 336.424 2123.02 335.336 Q2125.7 334.249 2128.06 332.049 L2128.06 336.934 Q2125.61 338.6 2122.85 339.434 Q2120.12 340.267 2117.07 340.267 Q2109.22 340.267 2104.71 335.475 Q2100.19 330.661 2100.19 322.35 Q2100.19 314.017 2104.71 309.226 Q2109.22 304.411 2117.07 304.411 Q2120.17 304.411 2122.9 305.244 Q2125.66 306.054 2128.06 307.698 Z" fill="#000000" fill-rule="nonzero" fill-opacity="1" /><path clip-path="url(#clip560)" d="M2146.88 326.563 Q2141.72 326.563 2139.73 327.744 Q2137.74 328.924 2137.74 331.772 Q2137.74 334.04 2139.22 335.383 Q2140.73 336.702 2143.29 336.702 Q2146.84 336.702 2148.97 334.202 Q2151.12 331.679 2151.12 327.512 L2151.12 326.563 L2146.88 326.563 M2155.38 324.804 L2155.38 339.596 L2151.12 339.596 L2151.12 335.661 Q2149.66 338.022 2147.48 339.156 Q2145.31 340.267 2142.16 340.267 Q2138.18 340.267 2135.82 338.045 Q2133.48 335.799 2133.48 332.049 Q2133.48 327.674 2136.4 325.452 Q2139.34 323.23 2145.15 323.23 L2151.12 323.23 L2151.12 322.813 Q2151.12 319.874 2149.17 318.276 Q2147.25 316.656 2143.76 316.656 Q2141.54 316.656 2139.43 317.188 Q2137.32 317.721 2135.38 318.786 L2135.38 314.85 Q2137.72 313.948 2139.91 313.508 Q2142.11 313.045 2144.2 313.045 Q2149.82 313.045 2152.6 315.962 Q2155.38 318.878 2155.38 324.804 Z" fill="#000000" fill-rule="nonzero" fill-opacity="1" /><path clip-path="url(#clip560)" d="M2180.68 314.434 L2180.68 318.462 Q2178.87 317.536 2176.93 317.073 Q2174.98 316.61 2172.9 316.61 Q2169.73 316.61 2168.13 317.582 Q2166.56 318.554 2166.56 320.499 Q2166.56 321.98 2167.69 322.837 Q2168.83 323.67 2172.25 324.434 L2173.71 324.758 Q2178.25 325.73 2180.15 327.512 Q2182.07 329.272 2182.07 332.443 Q2182.07 336.054 2179.2 338.161 Q2176.35 340.267 2171.35 340.267 Q2169.27 340.267 2167 339.85 Q2164.75 339.457 2162.25 338.647 L2162.25 334.249 Q2164.61 335.475 2166.91 336.1 Q2169.2 336.702 2171.44 336.702 Q2174.45 336.702 2176.07 335.684 Q2177.69 334.642 2177.69 332.767 Q2177.69 331.031 2176.51 330.105 Q2175.35 329.179 2171.4 328.323 L2169.91 327.975 Q2165.96 327.142 2164.2 325.429 Q2162.44 323.693 2162.44 320.684 Q2162.44 317.026 2165.03 315.036 Q2167.62 313.045 2172.39 313.045 Q2174.75 313.045 2176.84 313.392 Q2178.92 313.739 2180.68 314.434 Z" fill="#000000" fill-rule="nonzero" fill-opacity="1" /><path clip-path="url(#clip560)" d="M2211.03 325.568 L2211.03 327.651 L2191.44 327.651 Q2191.72 332.049 2194.08 334.364 Q2196.47 336.656 2200.7 336.656 Q2203.16 336.656 2205.45 336.054 Q2207.76 335.452 2210.03 334.249 L2210.03 338.276 Q2207.74 339.248 2205.33 339.758 Q2202.92 340.267 2200.45 340.267 Q2194.24 340.267 2190.61 336.656 Q2187 333.045 2187 326.887 Q2187 320.522 2190.42 316.795 Q2193.87 313.045 2199.71 313.045 Q2204.94 313.045 2207.97 316.425 Q2211.03 319.781 2211.03 325.568 M2206.77 324.318 Q2206.72 320.823 2204.8 318.739 Q2202.9 316.656 2199.75 316.656 Q2196.19 316.656 2194.04 318.67 Q2191.91 320.684 2191.58 324.341 L2206.77 324.318 Z" fill="#000000" fill-rule="nonzero" fill-opacity="1" /><path clip-path="url(#clip560)" d="M2259.15 307.698 L2259.15 312.628 Q2256.79 310.429 2254.1 309.341 Q2251.44 308.253 2248.43 308.253 Q2242.51 308.253 2239.36 311.888 Q2236.21 315.499 2236.21 322.35 Q2236.21 329.179 2239.36 332.813 Q2242.51 336.424 2248.43 336.424 Q2251.44 336.424 2254.1 335.336 Q2256.79 334.249 2259.15 332.049 L2259.15 336.934 Q2256.7 338.6 2253.94 339.434 Q2251.21 340.267 2248.16 340.267 Q2240.31 340.267 2235.79 335.475 Q2231.28 330.661 2231.28 322.35 Q2231.28 314.017 2235.79 309.226 Q2240.31 304.411 2248.16 304.411 Q2251.26 304.411 2253.99 305.244 Q2256.74 306.054 2259.15 307.698 Z" fill="#000000" fill-rule="nonzero" fill-opacity="1" /></svg>
