<?xml version="1.0" encoding="utf-8"?>
<svg xmlns="http://www.w3.org/2000/svg" xmlns:xlink="http://www.w3.org/1999/xlink" width="600" height="400" viewBox="0 0 2400 1600">
<defs>
  <clipPath id="clip660">
    <rect x="0" y="0" width="2400" height="1600"/>
  </clipPath>
</defs>
<path clip-path="url(#clip660)" d="M0 1600 L2400 1600 L2400 0 L0 0  Z" fill="#ffffff" fill-rule="evenodd" fill-opacity="1"/>
<defs>
  <clipPath id="clip661">
    <rect x="416" y="123" width="1301" height="1301"/>
  </clipPath>
</defs>
<path clip-path="url(#clip660)" d="M416.787 1423.18 L1716.5 1423.18 L1716.5 123.472 L416.787 123.472  Z" fill="#ffffff" fill-rule="evenodd" fill-opacity="1"/>
<polyline clip-path="url(#clip661)" style="stroke:#000000; stroke-linecap:round; stroke-linejoin:round; stroke-width:2; stroke-opacity:0.1; fill:none" points="602.46,1423.18 602.46,123.472 "/>
<polyline clip-path="url(#clip661)" style="stroke:#000000; stroke-linecap:round; stroke-linejoin:round; stroke-width:2; stroke-opacity:0.1; fill:none" points="834.551,1423.18 834.551,123.472 "/>
<polyline clip-path="url(#clip661)" style="stroke:#000000; stroke-linecap:round; stroke-linejoin:round; stroke-width:2; stroke-opacity:0.1; fill:none" points="1066.64,1423.18 1066.64,123.472 "/>
<polyline clip-path="url(#clip661)" style="stroke:#000000; stroke-linecap:round; stroke-linejoin:round; stroke-width:2; stroke-opacity:0.1; fill:none" points="1298.73,1423.18 1298.73,123.472 "/>
<polyline clip-path="url(#clip661)" style="stroke:#000000; stroke-linecap:round; stroke-linejoin:round; stroke-width:2; stroke-opacity:0.1; fill:none" points="1530.82,1423.18 1530.82,123.472 "/>
<polyline clip-path="url(#clip661)" style="stroke:#000000; stroke-linecap:round; stroke-linejoin:round; stroke-width:2; stroke-opacity:0.1; fill:none" points="416.787,1237.51 1716.5,1237.51 "/>
<polyline clip-path="url(#clip661)" style="stroke:#000000; stroke-linecap:round; stroke-linejoin:round; stroke-width:2; stroke-opacity:0.1; fill:none" points="416.787,1005.42 1716.5,1005.42 "/>
<polyline clip-path="url(#clip661)" style="stroke:#000000; stroke-linecap:round; stroke-linejoin:round; stroke-width:2; stroke-opacity:0.1; fill:none" points="416.787,773.326 1716.5,773.326 "/>
<polyline clip-path="url(#clip661)" style="stroke:#000000; stroke-linecap:round; stroke-linejoin:round; stroke-width:2; stroke-opacity:0.1; fill:none" points="416.787,541.235 1716.5,541.235 "/>
<polyline clip-path="url(#clip661)" style="stroke:#000000; stroke-linecap:round; stroke-linejoin:round; stroke-width:2; stroke-opacity:0.1; fill:none" points="416.787,309.145 1716.5,309.145 "/>
<polyline clip-path="url(#clip660)" style="stroke:#000000; stroke-linecap:round; stroke-linejoin:round; stroke-width:4; stroke-opacity:1; fill:none" points="416.787,1423.18 1716.5,1423.18 "/>
<polyline clip-path="url(#clip660)" style="stroke:#000000; stroke-linecap:round; stroke-linejoin:round; stroke-width:4; stroke-opacity:1; fill:none" points="602.46,1423.18 602.46,1404.28 "/>
<polyline clip-path="url(#clip660)" style="stroke:#000000; stroke-linecap:round; stroke-linejoin:round; stroke-width:4; stroke-opacity:1; fill:none" points="834.551,1423.18 834.551,1404.28 "/>
<polyline clip-path="url(#clip660)" style="stroke:#000000; stroke-linecap:round; stroke-linejoin:round; stroke-width:4; stroke-opacity:1; fill:none" points="1066.64,1423.18 1066.64,1404.28 "/>
<polyline clip-path="url(#clip660)" style="stroke:#000000; stroke-linecap:round; stroke-linejoin:round; stroke-width:4; stroke-opacity:1; fill:none" points="1298.73,1423.18 1298.73,1404.28 "/>
<polyline clip-path="url(#clip660)" style="stroke:#000000; stroke-linecap:round; stroke-linejoin:round; stroke-width:4; stroke-opacity:1; fill:none" points="1530.82,1423.18 1530.82,1404.28 "/>
<path clip-path="url(#clip660)" d="M564.763 1454.1 Q561.152 1454.1 559.324 1457.66 Q557.518 1461.2 557.518 1468.33 Q557.518 1475.44 559.324 1479.01 Q561.152 1482.55 564.763 1482.55 Q568.398 1482.55 570.203 1479.01 Q572.032 1475.44 572.032 1468.33 Q572.032 1461.2 570.203 1457.66 Q568.398 1454.1 564.763 1454.1 M564.763 1450.39 Q570.574 1450.39 573.629 1455 Q576.708 1459.58 576.708 1468.33 Q576.708 1477.06 573.629 1481.67 Q570.574 1486.25 564.763 1486.25 Q558.953 1486.25 555.875 1481.67 Q552.819 1477.06 552.819 1468.33 Q552.819 1459.58 555.875 1455 Q558.953 1450.39 564.763 1450.39 Z" fill="#000000" fill-rule="nonzero" fill-opacity="1" /><path clip-path="url(#clip660)" d="M584.925 1479.7 L589.81 1479.7 L589.81 1485.58 L584.925 1485.58 L584.925 1479.7 Z" fill="#000000" fill-rule="nonzero" fill-opacity="1" /><path clip-path="url(#clip660)" d="M609.995 1454.1 Q606.383 1454.1 604.555 1457.66 Q602.749 1461.2 602.749 1468.33 Q602.749 1475.44 604.555 1479.01 Q606.383 1482.55 609.995 1482.55 Q613.629 1482.55 615.434 1479.01 Q617.263 1475.44 617.263 1468.33 Q617.263 1461.2 615.434 1457.66 Q613.629 1454.1 609.995 1454.1 M609.995 1450.39 Q615.805 1450.39 618.86 1455 Q621.939 1459.58 621.939 1468.33 Q621.939 1477.06 618.86 1481.67 Q615.805 1486.25 609.995 1486.25 Q604.184 1486.25 601.106 1481.67 Q598.05 1477.06 598.05 1468.33 Q598.05 1459.58 601.106 1455 Q604.184 1450.39 609.995 1450.39 Z" fill="#000000" fill-rule="nonzero" fill-opacity="1" /><path clip-path="url(#clip660)" d="M640.156 1454.1 Q636.545 1454.1 634.717 1457.66 Q632.911 1461.2 632.911 1468.33 Q632.911 1475.44 634.717 1479.01 Q636.545 1482.55 640.156 1482.55 Q643.791 1482.55 645.596 1479.01 Q647.425 1475.44 647.425 1468.33 Q647.425 1461.2 645.596 1457.66 Q643.791 1454.1 640.156 1454.1 M640.156 1450.39 Q645.967 1450.39 649.022 1455 Q652.101 1459.58 652.101 1468.33 Q652.101 1477.06 649.022 1481.67 Q645.967 1486.25 640.156 1486.25 Q634.346 1486.25 631.268 1481.67 Q628.212 1477.06 628.212 1468.33 Q628.212 1459.58 631.268 1455 Q634.346 1450.39 640.156 1450.39 Z" fill="#000000" fill-rule="nonzero" fill-opacity="1" /><path clip-path="url(#clip660)" d="M797.352 1454.1 Q793.741 1454.1 791.912 1457.66 Q790.106 1461.2 790.106 1468.33 Q790.106 1475.44 791.912 1479.01 Q793.741 1482.55 797.352 1482.55 Q800.986 1482.55 802.791 1479.01 Q804.62 1475.44 804.62 1468.33 Q804.62 1461.2 802.791 1457.66 Q800.986 1454.1 797.352 1454.1 M797.352 1450.39 Q803.162 1450.39 806.217 1455 Q809.296 1459.58 809.296 1468.33 Q809.296 1477.06 806.217 1481.67 Q803.162 1486.25 797.352 1486.25 Q791.542 1486.25 788.463 1481.67 Q785.407 1477.06 785.407 1468.33 Q785.407 1459.58 788.463 1455 Q791.542 1450.39 797.352 1450.39 Z" fill="#000000" fill-rule="nonzero" fill-opacity="1" /><path clip-path="url(#clip660)" d="M817.514 1479.7 L822.398 1479.7 L822.398 1485.58 L817.514 1485.58 L817.514 1479.7 Z" fill="#000000" fill-rule="nonzero" fill-opacity="1" /><path clip-path="url(#clip660)" d="M836.611 1481.64 L852.93 1481.64 L852.93 1485.58 L830.986 1485.58 L830.986 1481.64 Q833.648 1478.89 838.231 1474.26 Q842.838 1469.61 844.018 1468.27 Q846.263 1465.74 847.143 1464.01 Q848.046 1462.25 848.046 1460.56 Q848.046 1457.8 846.101 1456.07 Q844.18 1454.33 841.078 1454.33 Q838.879 1454.33 836.426 1455.09 Q833.995 1455.86 831.217 1457.41 L831.217 1452.69 Q834.041 1451.55 836.495 1450.97 Q838.949 1450.39 840.986 1450.39 Q846.356 1450.39 849.55 1453.08 Q852.745 1455.77 852.745 1460.26 Q852.745 1462.39 851.935 1464.31 Q851.148 1466.2 849.041 1468.8 Q848.463 1469.47 845.361 1472.69 Q842.259 1475.88 836.611 1481.64 Z" fill="#000000" fill-rule="nonzero" fill-opacity="1" /><path clip-path="url(#clip660)" d="M862.791 1451.02 L881.148 1451.02 L881.148 1454.96 L867.074 1454.96 L867.074 1463.43 Q868.092 1463.08 869.111 1462.92 Q870.129 1462.73 871.148 1462.73 Q876.935 1462.73 880.314 1465.9 Q883.694 1469.08 883.694 1474.49 Q883.694 1480.07 880.222 1483.17 Q876.749 1486.25 870.43 1486.25 Q868.254 1486.25 865.986 1485.88 Q863.74 1485.51 861.333 1484.77 L861.333 1480.07 Q863.416 1481.2 865.638 1481.76 Q867.861 1482.32 870.337 1482.32 Q874.342 1482.32 876.68 1480.21 Q879.018 1478.1 879.018 1474.49 Q879.018 1470.88 876.68 1468.77 Q874.342 1466.67 870.337 1466.67 Q868.462 1466.67 866.587 1467.08 Q864.736 1467.5 862.791 1468.38 L862.791 1451.02 Z" fill="#000000" fill-rule="nonzero" fill-opacity="1" /><path clip-path="url(#clip660)" d="M1028.94 1454.1 Q1025.33 1454.1 1023.5 1457.66 Q1021.7 1461.2 1021.7 1468.33 Q1021.7 1475.44 1023.5 1479.01 Q1025.33 1482.55 1028.94 1482.55 Q1032.58 1482.55 1034.38 1479.01 Q1036.21 1475.44 1036.21 1468.33 Q1036.21 1461.2 1034.38 1457.66 Q1032.58 1454.1 1028.94 1454.1 M1028.94 1450.39 Q1034.75 1450.39 1037.81 1455 Q1040.89 1459.58 1040.89 1468.33 Q1040.89 1477.06 1037.81 1481.67 Q1034.75 1486.25 1028.94 1486.25 Q1023.13 1486.25 1020.06 1481.67 Q1017 1477.06 1017 1468.33 Q1017 1459.58 1020.06 1455 Q1023.13 1450.39 1028.94 1450.39 Z" fill="#000000" fill-rule="nonzero" fill-opacity="1" /><path clip-path="url(#clip660)" d="M1049.11 1479.7 L1053.99 1479.7 L1053.99 1485.58 L1049.11 1485.58 L1049.11 1479.7 Z" fill="#000000" fill-rule="nonzero" fill-opacity="1" /><path clip-path="url(#clip660)" d="M1064.22 1451.02 L1082.58 1451.02 L1082.58 1454.96 L1068.5 1454.96 L1068.5 1463.43 Q1069.52 1463.08 1070.54 1462.92 Q1071.56 1462.73 1072.58 1462.73 Q1078.37 1462.73 1081.75 1465.9 Q1085.12 1469.08 1085.12 1474.49 Q1085.12 1480.07 1081.65 1483.17 Q1078.18 1486.25 1071.86 1486.25 Q1069.69 1486.25 1067.42 1485.88 Q1065.17 1485.51 1062.76 1484.77 L1062.76 1480.07 Q1064.85 1481.2 1067.07 1481.76 Q1069.29 1482.32 1071.77 1482.32 Q1075.77 1482.32 1078.11 1480.21 Q1080.45 1478.1 1080.45 1474.49 Q1080.45 1470.88 1078.11 1468.77 Q1075.77 1466.67 1071.77 1466.67 Q1069.89 1466.67 1068.02 1467.08 Q1066.17 1467.5 1064.22 1468.38 L1064.22 1451.02 Z" fill="#000000" fill-rule="nonzero" fill-opacity="1" /><path clip-path="url(#clip660)" d="M1104.34 1454.1 Q1100.73 1454.1 1098.9 1457.66 Q1097.09 1461.2 1097.09 1468.33 Q1097.09 1475.44 1098.9 1479.01 Q1100.73 1482.55 1104.34 1482.55 Q1107.97 1482.55 1109.78 1479.01 Q1111.61 1475.44 1111.61 1468.33 Q1111.61 1461.2 1109.78 1457.66 Q1107.97 1454.1 1104.34 1454.1 M1104.34 1450.39 Q1110.15 1450.39 1113.2 1455 Q1116.28 1459.58 1116.28 1468.33 Q1116.28 1477.06 1113.2 1481.67 Q1110.15 1486.25 1104.34 1486.25 Q1098.53 1486.25 1095.45 1481.67 Q1092.39 1477.06 1092.39 1468.33 Q1092.39 1459.58 1095.45 1455 Q1098.53 1450.39 1104.34 1450.39 Z" fill="#000000" fill-rule="nonzero" fill-opacity="1" /><path clip-path="url(#clip660)" d="M1261.53 1454.1 Q1257.92 1454.1 1256.09 1457.66 Q1254.29 1461.2 1254.29 1468.33 Q1254.29 1475.44 1256.09 1479.01 Q1257.92 1482.55 1261.53 1482.55 Q1265.17 1482.55 1266.97 1479.01 Q1268.8 1475.44 1268.8 1468.33 Q1268.8 1461.2 1266.97 1457.66 Q1265.17 1454.1 1261.53 1454.1 M1261.53 1450.39 Q1267.34 1450.39 1270.4 1455 Q1273.48 1459.58 1273.48 1468.33 Q1273.48 1477.06 1270.4 1481.67 Q1267.34 1486.25 1261.53 1486.25 Q1255.72 1486.25 1252.64 1481.67 Q1249.59 1477.06 1249.59 1468.33 Q1249.59 1459.58 1252.64 1455 Q1255.72 1450.39 1261.53 1450.39 Z" fill="#000000" fill-rule="nonzero" fill-opacity="1" /><path clip-path="url(#clip660)" d="M1281.69 1479.7 L1286.58 1479.7 L1286.58 1485.58 L1281.69 1485.58 L1281.69 1479.7 Z" fill="#000000" fill-rule="nonzero" fill-opacity="1" /><path clip-path="url(#clip660)" d="M1295.58 1451.02 L1317.81 1451.02 L1317.81 1453.01 L1305.26 1485.58 L1300.38 1485.58 L1312.18 1454.96 L1295.58 1454.96 L1295.58 1451.02 Z" fill="#000000" fill-rule="nonzero" fill-opacity="1" /><path clip-path="url(#clip660)" d="M1326.97 1451.02 L1345.33 1451.02 L1345.33 1454.96 L1331.25 1454.96 L1331.25 1463.43 Q1332.27 1463.08 1333.29 1462.92 Q1334.31 1462.73 1335.33 1462.73 Q1341.12 1462.73 1344.5 1465.9 Q1347.88 1469.08 1347.88 1474.49 Q1347.88 1480.07 1344.4 1483.17 Q1340.93 1486.25 1334.61 1486.25 Q1332.44 1486.25 1330.17 1485.88 Q1327.92 1485.51 1325.51 1484.77 L1325.51 1480.07 Q1327.6 1481.2 1329.82 1481.76 Q1332.04 1482.32 1334.52 1482.32 Q1338.52 1482.32 1340.86 1480.21 Q1343.2 1478.1 1343.2 1474.49 Q1343.2 1470.88 1340.86 1468.77 Q1338.52 1466.67 1334.52 1466.67 Q1332.64 1466.67 1330.77 1467.08 Q1328.92 1467.5 1326.97 1468.38 L1326.97 1451.02 Z" fill="#000000" fill-rule="nonzero" fill-opacity="1" /><path clip-path="url(#clip660)" d="M1482.89 1481.64 L1490.53 1481.64 L1490.53 1455.28 L1482.22 1456.95 L1482.22 1452.69 L1490.49 1451.02 L1495.16 1451.02 L1495.16 1481.64 L1502.8 1481.64 L1502.8 1485.58 L1482.89 1485.58 L1482.89 1481.64 Z" fill="#000000" fill-rule="nonzero" fill-opacity="1" /><path clip-path="url(#clip660)" d="M1512.25 1479.7 L1517.13 1479.7 L1517.13 1485.58 L1512.25 1485.58 L1512.25 1479.7 Z" fill="#000000" fill-rule="nonzero" fill-opacity="1" /><path clip-path="url(#clip660)" d="M1537.32 1454.1 Q1533.7 1454.1 1531.88 1457.66 Q1530.07 1461.2 1530.07 1468.33 Q1530.07 1475.44 1531.88 1479.01 Q1533.7 1482.55 1537.32 1482.55 Q1540.95 1482.55 1542.76 1479.01 Q1544.58 1475.44 1544.58 1468.33 Q1544.58 1461.2 1542.76 1457.66 Q1540.95 1454.1 1537.32 1454.1 M1537.32 1450.39 Q1543.13 1450.39 1546.18 1455 Q1549.26 1459.58 1549.26 1468.33 Q1549.26 1477.06 1546.18 1481.67 Q1543.13 1486.25 1537.32 1486.25 Q1531.51 1486.25 1528.43 1481.67 Q1525.37 1477.06 1525.37 1468.33 Q1525.37 1459.58 1528.43 1455 Q1531.51 1450.39 1537.32 1450.39 Z" fill="#000000" fill-rule="nonzero" fill-opacity="1" /><path clip-path="url(#clip660)" d="M1567.48 1454.1 Q1563.87 1454.1 1562.04 1457.66 Q1560.23 1461.2 1560.23 1468.33 Q1560.23 1475.44 1562.04 1479.01 Q1563.87 1482.55 1567.48 1482.55 Q1571.11 1482.55 1572.92 1479.01 Q1574.75 1475.44 1574.75 1468.33 Q1574.75 1461.2 1572.92 1457.66 Q1571.11 1454.1 1567.48 1454.1 M1567.48 1450.39 Q1573.29 1450.39 1576.34 1455 Q1579.42 1459.58 1579.42 1468.33 Q1579.42 1477.06 1576.34 1481.67 Q1573.29 1486.25 1567.48 1486.25 Q1561.67 1486.25 1558.59 1481.67 Q1555.53 1477.06 1555.53 1468.33 Q1555.53 1459.58 1558.59 1455 Q1561.67 1450.39 1567.48 1450.39 Z" fill="#000000" fill-rule="nonzero" fill-opacity="1" /><path clip-path="url(#clip660)" d="M1083.26 1532.4 L1070.37 1549.74 L1083.92 1568.04 L1077.02 1568.04 L1066.64 1554.04 L1056.27 1568.04 L1049.36 1568.04 L1063.2 1549.39 L1050.54 1532.4 L1057.44 1532.4 L1066.9 1545.1 L1076.35 1532.4 L1083.26 1532.4 Z" fill="#000000" fill-rule="nonzero" fill-opacity="1" /><polyline clip-path="url(#clip660)" style="stroke:#000000; stroke-linecap:round; stroke-linejoin:round; stroke-width:4; stroke-opacity:1; fill:none" points="416.787,1423.18 416.787,123.472 "/>
<polyline clip-path="url(#clip660)" style="stroke:#000000; stroke-linecap:round; stroke-linejoin:round; stroke-width:4; stroke-opacity:1; fill:none" points="416.787,1237.51 428.465,1237.51 "/>
<polyline clip-path="url(#clip660)" style="stroke:#000000; stroke-linecap:round; stroke-linejoin:round; stroke-width:4; stroke-opacity:1; fill:none" points="416.787,1005.42 428.465,1005.42 "/>
<polyline clip-path="url(#clip660)" style="stroke:#000000; stroke-linecap:round; stroke-linejoin:round; stroke-width:4; stroke-opacity:1; fill:none" points="416.787,773.326 428.465,773.326 "/>
<polyline clip-path="url(#clip660)" style="stroke:#000000; stroke-linecap:round; stroke-linejoin:round; stroke-width:4; stroke-opacity:1; fill:none" points="416.787,541.235 428.465,541.235 "/>
<polyline clip-path="url(#clip660)" style="stroke:#000000; stroke-linecap:round; stroke-linejoin:round; stroke-width:4; stroke-opacity:1; fill:none" points="416.787,309.145 428.465,309.145 "/>
<path clip-path="url(#clip660)" d="M293.45 1223.31 Q289.839 1223.31 288.01 1226.87 Q286.205 1230.41 286.205 1237.54 Q286.205 1244.65 288.01 1248.21 Q289.839 1251.75 293.45 1251.75 Q297.084 1251.75 298.89 1248.21 Q300.718 1244.65 300.718 1237.54 Q300.718 1230.41 298.89 1226.87 Q297.084 1223.31 293.45 1223.31 M293.45 1219.6 Q299.26 1219.6 302.316 1224.21 Q305.394 1228.79 305.394 1237.54 Q305.394 1246.27 302.316 1250.88 Q299.26 1255.46 293.45 1255.46 Q287.64 1255.46 284.561 1250.88 Q281.506 1246.27 281.506 1237.54 Q281.506 1228.79 284.561 1224.21 Q287.64 1219.6 293.45 1219.6 Z" fill="#000000" fill-rule="nonzero" fill-opacity="1" /><path clip-path="url(#clip660)" d="M313.612 1248.91 L318.496 1248.91 L318.496 1254.79 L313.612 1254.79 L313.612 1248.91 Z" fill="#000000" fill-rule="nonzero" fill-opacity="1" /><path clip-path="url(#clip660)" d="M338.681 1223.31 Q335.07 1223.31 333.241 1226.87 Q331.436 1230.41 331.436 1237.54 Q331.436 1244.65 333.241 1248.21 Q335.07 1251.75 338.681 1251.75 Q342.315 1251.75 344.121 1248.21 Q345.95 1244.65 345.95 1237.54 Q345.95 1230.41 344.121 1226.87 Q342.315 1223.31 338.681 1223.31 M338.681 1219.6 Q344.491 1219.6 347.547 1224.21 Q350.626 1228.79 350.626 1237.54 Q350.626 1246.27 347.547 1250.88 Q344.491 1255.46 338.681 1255.46 Q332.871 1255.46 329.792 1250.88 Q326.737 1246.27 326.737 1237.54 Q326.737 1228.79 329.792 1224.21 Q332.871 1219.6 338.681 1219.6 Z" fill="#000000" fill-rule="nonzero" fill-opacity="1" /><path clip-path="url(#clip660)" d="M368.843 1223.31 Q365.232 1223.31 363.403 1226.87 Q361.598 1230.41 361.598 1237.54 Q361.598 1244.65 363.403 1248.21 Q365.232 1251.75 368.843 1251.75 Q372.477 1251.75 374.283 1248.21 Q376.111 1244.65 376.111 1237.54 Q376.111 1230.41 374.283 1226.87 Q372.477 1223.31 368.843 1223.31 M368.843 1219.6 Q374.653 1219.6 377.709 1224.21 Q380.787 1228.79 380.787 1237.54 Q380.787 1246.27 377.709 1250.88 Q374.653 1255.46 368.843 1255.46 Q363.033 1255.46 359.954 1250.88 Q356.899 1246.27 356.899 1237.54 Q356.899 1228.79 359.954 1224.21 Q363.033 1219.6 368.843 1219.6 Z" fill="#000000" fill-rule="nonzero" fill-opacity="1" /><path clip-path="url(#clip660)" d="M294.445 991.215 Q290.834 991.215 289.005 994.78 Q287.2 998.322 287.2 1005.45 Q287.2 1012.56 289.005 1016.12 Q290.834 1019.66 294.445 1019.66 Q298.079 1019.66 299.885 1016.12 Q301.714 1012.56 301.714 1005.45 Q301.714 998.322 299.885 994.78 Q298.079 991.215 294.445 991.215 M294.445 987.512 Q300.255 987.512 303.311 992.118 Q306.39 996.701 306.39 1005.45 Q306.39 1014.18 303.311 1018.78 Q300.255 1023.37 294.445 1023.37 Q288.635 1023.37 285.556 1018.78 Q282.501 1014.18 282.501 1005.45 Q282.501 996.701 285.556 992.118 Q288.635 987.512 294.445 987.512 Z" fill="#000000" fill-rule="nonzero" fill-opacity="1" /><path clip-path="url(#clip660)" d="M314.607 1016.82 L319.491 1016.82 L319.491 1022.7 L314.607 1022.7 L314.607 1016.82 Z" fill="#000000" fill-rule="nonzero" fill-opacity="1" /><path clip-path="url(#clip660)" d="M333.704 1018.76 L350.024 1018.76 L350.024 1022.7 L328.079 1022.7 L328.079 1018.76 Q330.741 1016.01 335.325 1011.38 Q339.931 1006.72 341.112 1005.38 Q343.357 1002.86 344.237 1001.12 Q345.139 999.363 345.139 997.674 Q345.139 994.919 343.195 993.183 Q341.274 991.447 338.172 991.447 Q335.973 991.447 333.519 992.211 Q331.089 992.975 328.311 994.526 L328.311 989.803 Q331.135 988.669 333.589 988.09 Q336.042 987.512 338.079 987.512 Q343.45 987.512 346.644 990.197 Q349.838 992.882 349.838 997.373 Q349.838 999.502 349.028 1001.42 Q348.241 1003.32 346.135 1005.91 Q345.556 1006.59 342.454 1009.8 Q339.352 1013 333.704 1018.76 Z" fill="#000000" fill-rule="nonzero" fill-opacity="1" /><path clip-path="url(#clip660)" d="M359.885 988.137 L378.241 988.137 L378.241 992.072 L364.167 992.072 L364.167 1000.54 Q365.186 1000.2 366.204 1000.03 Q367.223 999.85 368.241 999.85 Q374.028 999.85 377.408 1003.02 Q380.787 1006.19 380.787 1011.61 Q380.787 1017.19 377.315 1020.29 Q373.843 1023.37 367.524 1023.37 Q365.348 1023.37 363.079 1023 Q360.834 1022.63 358.426 1021.89 L358.426 1017.19 Q360.51 1018.32 362.732 1018.88 Q364.954 1019.43 367.431 1019.43 Q371.436 1019.43 373.774 1017.33 Q376.111 1015.22 376.111 1011.61 Q376.111 1008 373.774 1005.89 Q371.436 1003.78 367.431 1003.78 Q365.556 1003.78 363.681 1004.2 Q361.829 1004.62 359.885 1005.5 L359.885 988.137 Z" fill="#000000" fill-rule="nonzero" fill-opacity="1" /><path clip-path="url(#clip660)" d="M293.45 759.125 Q289.839 759.125 288.01 762.689 Q286.205 766.231 286.205 773.361 Q286.205 780.467 288.01 784.032 Q289.839 787.574 293.45 787.574 Q297.084 787.574 298.89 784.032 Q300.718 780.467 300.718 773.361 Q300.718 766.231 298.89 762.689 Q297.084 759.125 293.45 759.125 M293.45 755.421 Q299.26 755.421 302.316 760.027 Q305.394 764.611 305.394 773.361 Q305.394 782.088 302.316 786.694 Q299.26 791.277 293.45 791.277 Q287.64 791.277 284.561 786.694 Q281.506 782.088 281.506 773.361 Q281.506 764.611 284.561 760.027 Q287.64 755.421 293.45 755.421 Z" fill="#000000" fill-rule="nonzero" fill-opacity="1" /><path clip-path="url(#clip660)" d="M313.612 784.726 L318.496 784.726 L318.496 790.606 L313.612 790.606 L313.612 784.726 Z" fill="#000000" fill-rule="nonzero" fill-opacity="1" /><path clip-path="url(#clip660)" d="M328.727 756.046 L347.084 756.046 L347.084 759.981 L333.01 759.981 L333.01 768.453 Q334.028 768.106 335.047 767.944 Q336.065 767.759 337.084 767.759 Q342.871 767.759 346.251 770.93 Q349.63 774.101 349.63 779.518 Q349.63 785.097 346.158 788.199 Q342.686 791.277 336.366 791.277 Q334.19 791.277 331.922 790.907 Q329.677 790.537 327.269 789.796 L327.269 785.097 Q329.352 786.231 331.575 786.787 Q333.797 787.342 336.274 787.342 Q340.278 787.342 342.616 785.236 Q344.954 783.129 344.954 779.518 Q344.954 775.907 342.616 773.801 Q340.278 771.694 336.274 771.694 Q334.399 771.694 332.524 772.111 Q330.672 772.527 328.727 773.407 L328.727 756.046 Z" fill="#000000" fill-rule="nonzero" fill-opacity="1" /><path clip-path="url(#clip660)" d="M368.843 759.125 Q365.232 759.125 363.403 762.689 Q361.598 766.231 361.598 773.361 Q361.598 780.467 363.403 784.032 Q365.232 787.574 368.843 787.574 Q372.477 787.574 374.283 784.032 Q376.111 780.467 376.111 773.361 Q376.111 766.231 374.283 762.689 Q372.477 759.125 368.843 759.125 M368.843 755.421 Q374.653 755.421 377.709 760.027 Q380.787 764.611 380.787 773.361 Q380.787 782.088 377.709 786.694 Q374.653 791.277 368.843 791.277 Q363.033 791.277 359.954 786.694 Q356.899 782.088 356.899 773.361 Q356.899 764.611 359.954 760.027 Q363.033 755.421 368.843 755.421 Z" fill="#000000" fill-rule="nonzero" fill-opacity="1" /><path clip-path="url(#clip660)" d="M294.445 527.034 Q290.834 527.034 289.005 530.599 Q287.2 534.14 287.2 541.27 Q287.2 548.376 289.005 551.941 Q290.834 555.483 294.445 555.483 Q298.079 555.483 299.885 551.941 Q301.714 548.376 301.714 541.27 Q301.714 534.14 299.885 530.599 Q298.079 527.034 294.445 527.034 M294.445 523.33 Q300.255 523.33 303.311 527.937 Q306.39 532.52 306.39 541.27 Q306.39 549.997 303.311 554.603 Q300.255 559.187 294.445 559.187 Q288.635 559.187 285.556 554.603 Q282.501 549.997 282.501 541.27 Q282.501 532.52 285.556 527.937 Q288.635 523.33 294.445 523.33 Z" fill="#000000" fill-rule="nonzero" fill-opacity="1" /><path clip-path="url(#clip660)" d="M314.607 552.636 L319.491 552.636 L319.491 558.515 L314.607 558.515 L314.607 552.636 Z" fill="#000000" fill-rule="nonzero" fill-opacity="1" /><path clip-path="url(#clip660)" d="M328.496 523.955 L350.718 523.955 L350.718 525.946 L338.172 558.515 L333.288 558.515 L345.093 527.89 L328.496 527.89 L328.496 523.955 Z" fill="#000000" fill-rule="nonzero" fill-opacity="1" /><path clip-path="url(#clip660)" d="M359.885 523.955 L378.241 523.955 L378.241 527.89 L364.167 527.89 L364.167 536.363 Q365.186 536.015 366.204 535.853 Q367.223 535.668 368.241 535.668 Q374.028 535.668 377.408 538.84 Q380.787 542.011 380.787 547.427 Q380.787 553.006 377.315 556.108 Q373.843 559.187 367.524 559.187 Q365.348 559.187 363.079 558.816 Q360.834 558.446 358.426 557.705 L358.426 553.006 Q360.51 554.14 362.732 554.696 Q364.954 555.251 367.431 555.251 Q371.436 555.251 373.774 553.145 Q376.111 551.039 376.111 547.427 Q376.111 543.816 373.774 541.71 Q371.436 539.603 367.431 539.603 Q365.556 539.603 363.681 540.02 Q361.829 540.437 359.885 541.316 L359.885 523.955 Z" fill="#000000" fill-rule="nonzero" fill-opacity="1" /><path clip-path="url(#clip660)" d="M284.26 322.489 L291.899 322.489 L291.899 296.124 L283.589 297.791 L283.589 293.531 L291.853 291.865 L296.529 291.865 L296.529 322.489 L304.167 322.489 L304.167 326.425 L284.26 326.425 L284.26 322.489 Z" fill="#000000" fill-rule="nonzero" fill-opacity="1" /><path clip-path="url(#clip660)" d="M313.612 320.545 L318.496 320.545 L318.496 326.425 L313.612 326.425 L313.612 320.545 Z" fill="#000000" fill-rule="nonzero" fill-opacity="1" /><path clip-path="url(#clip660)" d="M338.681 294.943 Q335.07 294.943 333.241 298.508 Q331.436 302.05 331.436 309.179 Q331.436 316.286 333.241 319.851 Q335.07 323.392 338.681 323.392 Q342.315 323.392 344.121 319.851 Q345.95 316.286 345.95 309.179 Q345.95 302.05 344.121 298.508 Q342.315 294.943 338.681 294.943 M338.681 291.24 Q344.491 291.24 347.547 295.846 Q350.626 300.429 350.626 309.179 Q350.626 317.906 347.547 322.513 Q344.491 327.096 338.681 327.096 Q332.871 327.096 329.792 322.513 Q326.737 317.906 326.737 309.179 Q326.737 300.429 329.792 295.846 Q332.871 291.24 338.681 291.24 Z" fill="#000000" fill-rule="nonzero" fill-opacity="1" /><path clip-path="url(#clip660)" d="M368.843 294.943 Q365.232 294.943 363.403 298.508 Q361.598 302.05 361.598 309.179 Q361.598 316.286 363.403 319.851 Q365.232 323.392 368.843 323.392 Q372.477 323.392 374.283 319.851 Q376.111 316.286 376.111 309.179 Q376.111 302.05 374.283 298.508 Q372.477 294.943 368.843 294.943 M368.843 291.24 Q374.653 291.24 377.709 295.846 Q380.787 300.429 380.787 309.179 Q380.787 317.906 377.709 322.513 Q374.653 327.096 368.843 327.096 Q363.033 327.096 359.954 322.513 Q356.899 317.906 356.899 309.179 Q356.899 300.429 359.954 295.846 Q363.033 291.24 368.843 291.24 Z" fill="#000000" fill-rule="nonzero" fill-opacity="1" /><path clip-path="url(#clip660)" d="M234.56 771.639 Q240.925 774.122 242.867 776.477 Q244.808 778.832 244.808 782.779 L244.808 787.458 L239.907 787.458 L239.907 784.02 Q239.907 781.601 238.761 780.265 Q237.615 778.928 233.35 777.305 L230.677 776.254 L195.602 790.673 L195.602 784.466 L223.483 773.326 L195.602 762.186 L195.602 755.979 L234.56 771.639 Z" fill="#000000" fill-rule="nonzero" fill-opacity="1" /><path clip-path="url(#clip660)" d="M8.03869 18.8205 L8.03869 65.8515 L17.9229 65.8515 Q30.4402 65.8515 36.233 60.1802 Q42.0663 54.509 42.0663 42.2752 Q42.0663 30.1225 36.233 24.4918 Q30.4402 18.8205 17.9229 18.8205 L8.03869 18.8205 M-0.144137 12.096 L16.6671 12.096 Q34.248 12.096 42.4714 19.4281 Q50.6947 26.7198 50.6947 42.2752 Q50.6947 57.9117 42.4309 65.2439 Q34.167 72.576 16.6671 72.576 L-0.144137 72.576 L-0.144137 12.096 Z" fill="#000000" fill-rule="nonzero" fill-opacity="1" /><path clip-path="url(#clip660)" d="M80.9955 32.4315 Q75.0001 32.4315 71.5164 37.1306 Q68.0326 41.7891 68.0326 49.9314 Q68.0326 58.0738 71.4758 62.7728 Q74.9596 67.4314 80.9955 67.4314 Q86.9503 67.4314 90.4341 62.7323 Q93.9179 58.0333 93.9179 49.9314 Q93.9179 41.8701 90.4341 37.1711 Q86.9503 32.4315 80.9955 32.4315 M80.9955 26.1121 Q90.7176 26.1121 96.2674 32.4315 Q101.817 38.7509 101.817 49.9314 Q101.817 61.0714 96.2674 67.4314 Q90.7176 73.7508 80.9955 73.7508 Q71.2328 73.7508 65.6831 67.4314 Q60.1738 61.0714 60.1738 49.9314 Q60.1738 38.7509 65.6831 32.4315 Q71.2328 26.1121 80.9955 26.1121 Z" fill="#000000" fill-rule="nonzero" fill-opacity="1" /><path clip-path="url(#clip660)" d="M131.753 32.4315 Q125.758 32.4315 122.274 37.1306 Q118.79 41.7891 118.79 49.9314 Q118.79 58.0738 122.234 62.7728 Q125.717 67.4314 131.753 67.4314 Q137.708 67.4314 141.192 62.7323 Q144.676 58.0333 144.676 49.9314 Q144.676 41.8701 141.192 37.1711 Q137.708 32.4315 131.753 32.4315 M131.753 26.1121 Q141.475 26.1121 147.025 32.4315 Q152.575 38.7509 152.575 49.9314 Q152.575 61.0714 147.025 67.4314 Q141.475 73.7508 131.753 73.7508 Q121.991 73.7508 116.441 67.4314 Q110.932 61.0714 110.932 49.9314 Q110.932 38.7509 116.441 32.4315 Q121.991 26.1121 131.753 26.1121 Z" fill="#000000" fill-rule="nonzero" fill-opacity="1" /><path clip-path="url(#clip660)" d="M191.221 34.1734 Q189.965 33.4443 188.466 33.1202 Q187.008 32.7556 185.225 32.7556 Q178.906 32.7556 175.503 36.8875 Q172.141 40.9789 172.141 48.6757 L172.141 72.576 L164.647 72.576 L164.647 27.2059 L172.141 27.2059 L172.141 34.2544 Q174.49 30.1225 178.258 28.1376 Q182.025 26.1121 187.413 26.1121 Q188.182 26.1121 189.114 26.2337 Q190.046 26.3147 191.18 26.5172 L191.221 34.1734 Z" fill="#000000" fill-rule="nonzero" fill-opacity="1" /><path clip-path="url(#clip660)" d="M261.99 14.0809 L261.99 22.0612 Q257.331 19.8332 253.199 18.7395 Q249.067 17.6457 245.219 17.6457 Q238.535 17.6457 234.889 20.2383 Q231.284 22.8309 231.284 27.611 Q231.284 31.6214 233.674 33.6873 Q236.105 35.7128 242.829 36.9686 L247.771 37.9813 Q256.926 39.7232 261.261 44.1387 Q265.636 48.5136 265.636 55.8863 Q265.636 64.6767 259.721 69.2137 Q253.848 73.7508 242.465 73.7508 Q238.171 73.7508 233.309 72.7785 Q228.489 71.8063 223.304 69.9024 L223.304 61.4765 Q228.286 64.2716 233.066 65.6895 Q237.846 67.1073 242.465 67.1073 Q249.473 67.1073 253.28 64.3527 Q257.088 61.598 257.088 56.4939 Q257.088 52.0379 254.334 49.5264 Q251.62 47.0148 245.381 45.759 L240.399 44.7868 Q231.244 42.9639 227.152 39.075 Q223.061 35.1862 223.061 28.2591 Q223.061 20.2383 228.691 15.6203 Q234.363 11.0023 244.287 11.0023 Q248.541 11.0023 252.956 11.7719 Q257.372 12.5416 261.99 14.0809 Z" fill="#000000" fill-rule="nonzero" fill-opacity="1" /><path clip-path="url(#clip660)" d="M315.786 45.1919 L315.786 72.576 L308.332 72.576 L308.332 45.4349 Q308.332 38.994 305.821 35.7938 Q303.309 32.5936 298.286 32.5936 Q292.25 32.5936 288.766 36.4419 Q285.283 40.2903 285.283 46.9338 L285.283 72.576 L277.788 72.576 L277.788 27.2059 L285.283 27.2059 L285.283 34.2544 Q287.956 30.163 291.561 28.1376 Q295.207 26.1121 299.947 26.1121 Q307.765 26.1121 311.775 30.9732 Q315.786 35.7938 315.786 45.1919 Z" fill="#000000" fill-rule="nonzero" fill-opacity="1" /><path clip-path="url(#clip660)" d="M351.272 49.7694 Q342.238 49.7694 338.755 51.8354 Q335.271 53.9013 335.271 58.8839 Q335.271 62.8538 337.863 65.2034 Q340.496 67.5124 344.993 67.5124 Q351.191 67.5124 354.918 63.1374 Q358.685 58.7219 358.685 51.4303 L358.685 49.7694 L351.272 49.7694 M366.139 46.6907 L366.139 72.576 L358.685 72.576 L358.685 65.6895 Q356.133 69.8214 352.325 71.8063 Q348.517 73.7508 343.008 73.7508 Q336.04 73.7508 331.908 69.8619 Q327.817 65.9325 327.817 59.3701 Q327.817 51.7138 332.921 47.825 Q338.066 43.9361 348.234 43.9361 L358.685 43.9361 L358.685 43.2069 Q358.685 38.0623 355.282 35.2672 Q351.92 32.4315 345.803 32.4315 Q341.914 32.4315 338.228 33.3632 Q334.542 34.295 331.139 36.1584 L331.139 29.2718 Q335.23 27.692 339.079 26.9223 Q342.927 26.1121 346.573 26.1121 Q356.416 26.1121 361.278 31.2163 Q366.139 36.3204 366.139 46.6907 Z" fill="#000000" fill-rule="nonzero" fill-opacity="1" /><path clip-path="url(#clip660)" d="M388.702 65.7705 L388.702 89.8329 L381.208 89.8329 L381.208 27.2059 L388.702 27.2059 L388.702 34.0924 Q391.052 30.0415 394.616 28.0971 Q398.222 26.1121 403.204 26.1121 Q411.468 26.1121 416.613 32.6746 Q421.798 39.2371 421.798 49.9314 Q421.798 60.6258 416.613 67.1883 Q411.468 73.7508 403.204 73.7508 Q398.222 73.7508 394.616 71.8063 Q391.052 69.8214 388.702 65.7705 M414.061 49.9314 Q414.061 41.7081 410.658 37.0496 Q407.296 32.3505 401.381 32.3505 Q395.467 32.3505 392.064 37.0496 Q388.702 41.7081 388.702 49.9314 Q388.702 58.1548 392.064 62.8538 Q395.467 67.5124 401.381 67.5124 Q407.296 67.5124 410.658 62.8538 Q414.061 58.1548 414.061 49.9314 Z" fill="#000000" fill-rule="nonzero" fill-opacity="1" /><path clip-path="url(#clip660)" d="M463.077 28.5427 L463.077 35.5912 Q459.917 33.9709 456.514 33.1607 Q453.112 32.3505 449.466 32.3505 Q443.916 32.3505 441.121 34.0519 Q438.366 35.7533 438.366 39.156 Q438.366 41.7486 440.351 43.2475 Q442.336 44.7058 448.331 46.0426 L450.884 46.6097 Q458.823 48.3111 462.145 51.4303 Q465.507 54.509 465.507 60.0587 Q465.507 66.3781 460.484 70.0644 Q455.502 73.7508 446.752 73.7508 Q443.106 73.7508 439.136 73.0216 Q435.207 72.3329 430.832 70.9151 L430.832 63.2184 Q434.963 65.3654 438.974 66.4591 Q442.984 67.5124 446.914 67.5124 Q452.18 67.5124 455.015 65.73 Q457.851 63.9071 457.851 60.6258 Q457.851 57.5877 455.785 55.9673 Q453.76 54.3469 446.833 52.8481 L444.24 52.2405 Q437.313 50.7821 434.234 47.7845 Q431.156 44.7463 431.156 39.4801 Q431.156 33.0797 435.693 29.5959 Q440.23 26.1121 448.575 26.1121 Q452.706 26.1121 456.352 26.7198 Q459.998 27.3274 463.077 28.5427 Z" fill="#000000" fill-rule="nonzero" fill-opacity="1" /><path clip-path="url(#clip660)" d="M515.09 45.1919 L515.09 72.576 L507.637 72.576 L507.637 45.4349 Q507.637 38.994 505.125 35.7938 Q502.614 32.5936 497.59 32.5936 Q491.555 32.5936 488.071 36.4419 Q484.587 40.2903 484.587 46.9338 L484.587 72.576 L477.093 72.576 L477.093 9.54393 L484.587 9.54393 L484.587 34.2544 Q487.261 30.163 490.866 28.1376 Q494.512 26.1121 499.251 26.1121 Q507.07 26.1121 511.08 30.9732 Q515.09 35.7938 515.09 45.1919 Z" fill="#000000" fill-rule="nonzero" fill-opacity="1" /><path clip-path="url(#clip660)" d="M547.538 32.4315 Q541.543 32.4315 538.059 37.1306 Q534.575 41.7891 534.575 49.9314 Q534.575 58.0738 538.018 62.7728 Q541.502 67.4314 547.538 67.4314 Q553.493 67.4314 556.977 62.7323 Q560.46 58.0333 560.46 49.9314 Q560.46 41.8701 556.977 37.1711 Q553.493 32.4315 547.538 32.4315 M547.538 26.1121 Q557.26 26.1121 562.81 32.4315 Q568.36 38.7509 568.36 49.9314 Q568.36 61.0714 562.81 67.4314 Q557.26 73.7508 547.538 73.7508 Q537.775 73.7508 532.226 67.4314 Q526.716 61.0714 526.716 49.9314 Q526.716 38.7509 532.226 32.4315 Q537.775 26.1121 547.538 26.1121 Z" fill="#000000" fill-rule="nonzero" fill-opacity="1" /><path clip-path="url(#clip660)" d="M588.088 14.324 L588.088 27.2059 L603.441 27.2059 L603.441 32.9987 L588.088 32.9987 L588.088 57.6282 Q588.088 63.1779 589.586 64.7578 Q591.126 66.3376 595.784 66.3376 L603.441 66.3376 L603.441 72.576 L595.784 72.576 Q587.156 72.576 583.875 69.3758 Q580.593 66.1351 580.593 57.6282 L580.593 32.9987 L575.125 32.9987 L575.125 27.2059 L580.593 27.2059 L580.593 14.324 L588.088 14.324 Z" fill="#000000" fill-rule="nonzero" fill-opacity="1" /><path clip-path="url(#clip660)" d="M642.167 28.5427 L642.167 35.5912 Q639.008 33.9709 635.605 33.1607 Q632.202 32.3505 628.556 32.3505 Q623.006 32.3505 620.211 34.0519 Q617.457 35.7533 617.457 39.156 Q617.457 41.7486 619.442 43.2475 Q621.427 44.7058 627.422 46.0426 L629.974 46.6097 Q637.914 48.3111 641.236 51.4303 Q644.598 54.509 644.598 60.0587 Q644.598 66.3781 639.575 70.0644 Q634.592 73.7508 625.842 73.7508 Q622.196 73.7508 618.226 73.0216 Q614.297 72.3329 609.922 70.9151 L609.922 63.2184 Q614.054 65.3654 618.064 66.4591 Q622.075 67.5124 626.004 67.5124 Q631.27 67.5124 634.106 65.73 Q636.942 63.9071 636.942 60.6258 Q636.942 57.5877 634.876 55.9673 Q632.85 54.3469 625.923 52.8481 L623.331 52.2405 Q616.403 50.7821 613.325 47.7845 Q610.246 44.7463 610.246 39.4801 Q610.246 33.0797 614.783 29.5959 Q619.32 26.1121 627.665 26.1121 Q631.797 26.1121 635.443 26.7198 Q639.089 27.3274 642.167 28.5427 Z" fill="#000000" fill-rule="nonzero" fill-opacity="1" /><path clip-path="url(#clip660)" d="M658.371 62.2867 L666.918 62.2867 L666.918 72.576 L658.371 72.576 L658.371 62.2867 M658.371 29.6769 L666.918 29.6769 L666.918 39.9662 L658.371 39.9662 L658.371 29.6769 Z" fill="#000000" fill-rule="nonzero" fill-opacity="1" /><path clip-path="url(#clip660)" d="M719.296 18.8205 L719.296 41.5461 L729.586 41.5461 Q735.298 41.5461 738.417 38.5889 Q741.536 35.6318 741.536 30.163 Q741.536 24.7348 738.417 21.7777 Q735.298 18.8205 729.586 18.8205 L719.296 18.8205 M711.114 12.096 L729.586 12.096 Q739.754 12.096 744.939 16.714 Q750.164 21.2916 750.164 30.163 Q750.164 39.1155 744.939 43.6931 Q739.754 48.2706 729.586 48.2706 L719.296 48.2706 L719.296 72.576 L711.114 72.576 L711.114 12.096 Z" fill="#000000" fill-rule="nonzero" fill-opacity="1" /><path clip-path="url(#clip660)" d="M785.65 34.1734 Q784.394 33.4443 782.896 33.1202 Q781.437 32.7556 779.655 32.7556 Q773.336 32.7556 769.933 36.8875 Q766.571 40.9789 766.571 48.6757 L766.571 72.576 L759.076 72.576 L759.076 27.2059 L766.571 27.2059 L766.571 34.2544 Q768.92 30.1225 772.687 28.1376 Q776.455 26.1121 781.842 26.1121 Q782.612 26.1121 783.544 26.2337 Q784.476 26.3147 785.61 26.5172 L785.65 34.1734 Z" fill="#000000" fill-rule="nonzero" fill-opacity="1" /><path clip-path="url(#clip660)" d="M830.453 48.0275 L830.453 51.6733 L796.183 51.6733 Q796.669 59.3701 800.801 63.421 Q804.973 67.4314 812.386 67.4314 Q816.68 67.4314 820.691 66.3781 Q824.741 65.3249 828.711 63.2184 L828.711 70.267 Q824.701 71.9684 820.488 72.8596 Q816.275 73.7508 811.941 73.7508 Q801.084 73.7508 794.724 67.4314 Q788.405 61.1119 788.405 50.3365 Q788.405 39.1965 794.4 32.6746 Q800.436 26.1121 810.644 26.1121 Q819.799 26.1121 825.106 32.0264 Q830.453 37.9003 830.453 48.0275 M823 45.84 Q822.919 39.7232 819.556 36.0774 Q816.235 32.4315 810.725 32.4315 Q804.487 32.4315 800.72 35.9558 Q796.993 39.4801 796.426 45.8805 L823 45.84 Z" fill="#000000" fill-rule="nonzero" fill-opacity="1" /><path clip-path="url(#clip660)" d="M871.61 28.5427 L871.61 35.5912 Q868.451 33.9709 865.048 33.1607 Q861.645 32.3505 857.999 32.3505 Q852.45 32.3505 849.655 34.0519 Q846.9 35.7533 846.9 39.156 Q846.9 41.7486 848.885 43.2475 Q850.87 44.7058 856.865 46.0426 L859.417 46.6097 Q867.357 48.3111 870.679 51.4303 Q874.041 54.509 874.041 60.0587 Q874.041 66.3781 869.018 70.0644 Q864.035 73.7508 855.285 73.7508 Q851.639 73.7508 847.67 73.0216 Q843.74 72.3329 839.365 70.9151 L839.365 63.2184 Q843.497 65.3654 847.508 66.4591 Q851.518 67.5124 855.447 67.5124 Q860.714 67.5124 863.549 65.73 Q866.385 63.9071 866.385 60.6258 Q866.385 57.5877 864.319 55.9673 Q862.293 54.3469 855.366 52.8481 L852.774 52.2405 Q845.847 50.7821 842.768 47.7845 Q839.689 44.7463 839.689 39.4801 Q839.689 33.0797 844.226 29.5959 Q848.763 26.1121 857.108 26.1121 Q861.24 26.1121 864.886 26.7198 Q868.532 27.3274 871.61 28.5427 Z" fill="#000000" fill-rule="nonzero" fill-opacity="1" /><path clip-path="url(#clip660)" d="M918.56 28.9478 L918.56 35.9153 Q915.401 34.1734 912.201 33.3227 Q909.041 32.4315 905.8 32.4315 Q898.549 32.4315 894.539 37.0496 Q890.528 41.6271 890.528 49.9314 Q890.528 58.2358 894.539 62.8538 Q898.549 67.4314 905.8 67.4314 Q909.041 67.4314 912.201 66.5807 Q915.401 65.6895 918.56 63.9476 L918.56 70.8341 Q915.441 72.2924 912.079 73.0216 Q908.757 73.7508 904.99 73.7508 Q894.741 73.7508 888.705 67.3098 Q882.669 60.8689 882.669 49.9314 Q882.669 38.832 888.746 32.472 Q894.863 26.1121 905.476 26.1121 Q908.919 26.1121 912.201 26.8413 Q915.482 27.5299 918.56 28.9478 Z" fill="#000000" fill-rule="nonzero" fill-opacity="1" /><path clip-path="url(#clip660)" d="M957.814 34.1734 Q956.558 33.4443 955.059 33.1202 Q953.601 32.7556 951.818 32.7556 Q945.499 32.7556 942.096 36.8875 Q938.734 40.9789 938.734 48.6757 L938.734 72.576 L931.24 72.576 L931.24 27.2059 L938.734 27.2059 L938.734 34.2544 Q941.083 30.1225 944.851 28.1376 Q948.618 26.1121 954.006 26.1121 Q954.776 26.1121 955.707 26.2337 Q956.639 26.3147 957.773 26.5172 L957.814 34.1734 Z" fill="#000000" fill-rule="nonzero" fill-opacity="1" /><path clip-path="url(#clip660)" d="M965.632 27.2059 L973.086 27.2059 L973.086 72.576 L965.632 72.576 L965.632 27.2059 M965.632 9.54393 L973.086 9.54393 L973.086 18.9825 L965.632 18.9825 L965.632 9.54393 Z" fill="#000000" fill-rule="nonzero" fill-opacity="1" /><path clip-path="url(#clip660)" d="M1021.25 49.9314 Q1021.25 41.7081 1017.85 37.0496 Q1014.49 32.3505 1008.57 32.3505 Q1002.66 32.3505 999.254 37.0496 Q995.892 41.7081 995.892 49.9314 Q995.892 58.1548 999.254 62.8538 Q1002.66 67.5124 1008.57 67.5124 Q1014.49 67.5124 1017.85 62.8538 Q1021.25 58.1548 1021.25 49.9314 M995.892 34.0924 Q998.242 30.0415 1001.81 28.0971 Q1005.41 26.1121 1010.39 26.1121 Q1018.66 26.1121 1023.8 32.6746 Q1028.99 39.2371 1028.99 49.9314 Q1028.99 60.6258 1023.8 67.1883 Q1018.66 73.7508 1010.39 73.7508 Q1005.41 73.7508 1001.81 71.8063 Q998.242 69.8214 995.892 65.7705 L995.892 72.576 L988.398 72.576 L988.398 9.54393 L995.892 9.54393 L995.892 34.0924 Z" fill="#000000" fill-rule="nonzero" fill-opacity="1" /><path clip-path="url(#clip660)" d="M1080.15 48.0275 L1080.15 51.6733 L1045.88 51.6733 Q1046.37 59.3701 1050.5 63.421 Q1054.67 67.4314 1062.08 67.4314 Q1066.38 67.4314 1070.39 66.3781 Q1074.44 65.3249 1078.41 63.2184 L1078.41 70.267 Q1074.4 71.9684 1070.19 72.8596 Q1065.97 73.7508 1061.64 73.7508 Q1050.78 73.7508 1044.42 67.4314 Q1038.1 61.1119 1038.1 50.3365 Q1038.1 39.1965 1044.1 32.6746 Q1050.13 26.1121 1060.34 26.1121 Q1069.5 26.1121 1074.8 32.0264 Q1080.15 37.9003 1080.15 48.0275 M1072.7 45.84 Q1072.62 39.7232 1069.25 36.0774 Q1065.93 32.4315 1060.42 32.4315 Q1054.18 32.4315 1050.42 35.9558 Q1046.69 39.4801 1046.12 45.8805 L1072.7 45.84 Z" fill="#000000" fill-rule="nonzero" fill-opacity="1" /><path clip-path="url(#clip660)" d="M1122.24 34.0924 L1122.24 9.54393 L1129.69 9.54393 L1129.69 72.576 L1122.24 72.576 L1122.24 65.7705 Q1119.89 69.8214 1116.29 71.8063 Q1112.72 73.7508 1107.7 73.7508 Q1099.47 73.7508 1094.29 67.1883 Q1089.14 60.6258 1089.14 49.9314 Q1089.14 39.2371 1094.29 32.6746 Q1099.47 26.1121 1107.7 26.1121 Q1112.72 26.1121 1116.29 28.0971 Q1119.89 30.0415 1122.24 34.0924 M1096.84 49.9314 Q1096.84 58.1548 1100.2 62.8538 Q1103.61 67.5124 1109.52 67.5124 Q1115.43 67.5124 1118.84 62.8538 Q1122.24 58.1548 1122.24 49.9314 Q1122.24 41.7081 1118.84 37.0496 Q1115.43 32.3505 1109.52 32.3505 Q1103.61 32.3505 1100.2 37.0496 Q1096.84 41.7081 1096.84 49.9314 Z" fill="#000000" fill-rule="nonzero" fill-opacity="1" /><path clip-path="url(#clip660)" d="M1179.92 18.8205 L1179.92 65.8515 L1189.81 65.8515 Q1202.33 65.8515 1208.12 60.1802 Q1213.95 54.509 1213.95 42.2752 Q1213.95 30.1225 1208.12 24.4918 Q1202.33 18.8205 1189.81 18.8205 L1179.92 18.8205 M1171.74 12.096 L1188.55 12.096 Q1206.13 12.096 1214.36 19.4281 Q1222.58 26.7198 1222.58 42.2752 Q1222.58 57.9117 1214.32 65.2439 Q1206.05 72.576 1188.55 72.576 L1171.74 72.576 L1171.74 12.096 Z" fill="#000000" fill-rule="nonzero" fill-opacity="1" /><path clip-path="url(#clip660)" d="M1252.88 32.4315 Q1246.89 32.4315 1243.4 37.1306 Q1239.92 41.7891 1239.92 49.9314 Q1239.92 58.0738 1243.36 62.7728 Q1246.85 67.4314 1252.88 67.4314 Q1258.84 67.4314 1262.32 62.7323 Q1265.8 58.0333 1265.8 49.9314 Q1265.8 41.8701 1262.32 37.1711 Q1258.84 32.4315 1252.88 32.4315 M1252.88 26.1121 Q1262.6 26.1121 1268.15 32.4315 Q1273.7 38.7509 1273.7 49.9314 Q1273.7 61.0714 1268.15 67.4314 Q1262.6 73.7508 1252.88 73.7508 Q1243.12 73.7508 1237.57 67.4314 Q1232.06 61.0714 1232.06 49.9314 Q1232.06 38.7509 1237.57 32.4315 Q1243.12 26.1121 1252.88 26.1121 Z" fill="#000000" fill-rule="nonzero" fill-opacity="1" /><path clip-path="url(#clip660)" d="M1303.64 32.4315 Q1297.64 32.4315 1294.16 37.1306 Q1290.68 41.7891 1290.68 49.9314 Q1290.68 58.0738 1294.12 62.7728 Q1297.6 67.4314 1303.64 67.4314 Q1309.59 67.4314 1313.08 62.7323 Q1316.56 58.0333 1316.56 49.9314 Q1316.56 41.8701 1313.08 37.1711 Q1309.59 32.4315 1303.64 32.4315 M1303.64 26.1121 Q1313.36 26.1121 1318.91 32.4315 Q1324.46 38.7509 1324.46 49.9314 Q1324.46 61.0714 1318.91 67.4314 Q1313.36 73.7508 1303.64 73.7508 Q1293.88 73.7508 1288.33 67.4314 Q1282.82 61.0714 1282.82 49.9314 Q1282.82 38.7509 1288.33 32.4315 Q1293.88 26.1121 1303.64 26.1121 Z" fill="#000000" fill-rule="nonzero" fill-opacity="1" /><path clip-path="url(#clip660)" d="M1363.11 34.1734 Q1361.85 33.4443 1360.35 33.1202 Q1358.89 32.7556 1357.11 32.7556 Q1350.79 32.7556 1347.39 36.8875 Q1344.03 40.9789 1344.03 48.6757 L1344.03 72.576 L1336.53 72.576 L1336.53 27.2059 L1344.03 27.2059 L1344.03 34.2544 Q1346.38 30.1225 1350.14 28.1376 Q1353.91 26.1121 1359.3 26.1121 Q1360.07 26.1121 1361 26.2337 Q1361.93 26.3147 1363.07 26.5172 L1363.11 34.1734 Z" fill="#000000" fill-rule="nonzero" fill-opacity="1" /><path clip-path="url(#clip660)" d="M1397.62 12.096 L1405.8 12.096 L1405.8 37.6572 L1432.94 12.096 L1443.48 12.096 L1413.46 40.2903 L1445.62 72.576 L1434.85 72.576 L1405.8 43.45 L1405.8 72.576 L1397.62 72.576 L1397.62 12.096 Z" fill="#000000" fill-rule="nonzero" fill-opacity="1" /><path clip-path="url(#clip660)" d="M1489.41 45.1919 L1489.41 72.576 L1481.96 72.576 L1481.96 45.4349 Q1481.96 38.994 1479.45 35.7938 Q1476.94 32.5936 1471.91 32.5936 Q1465.88 32.5936 1462.39 36.4419 Q1458.91 40.2903 1458.91 46.9338 L1458.91 72.576 L1451.42 72.576 L1451.42 27.2059 L1458.91 27.2059 L1458.91 34.2544 Q1461.58 30.163 1465.19 28.1376 Q1468.84 26.1121 1473.57 26.1121 Q1481.39 26.1121 1485.4 30.9732 Q1489.41 35.7938 1489.41 45.1919 Z" fill="#000000" fill-rule="nonzero" fill-opacity="1" /><path clip-path="url(#clip660)" d="M1521.86 32.4315 Q1515.87 32.4315 1512.38 37.1306 Q1508.9 41.7891 1508.9 49.9314 Q1508.9 58.0738 1512.34 62.7728 Q1515.83 67.4314 1521.86 67.4314 Q1527.82 67.4314 1531.3 62.7323 Q1534.78 58.0333 1534.78 49.9314 Q1534.78 41.8701 1531.3 37.1711 Q1527.82 32.4315 1521.86 32.4315 M1521.86 26.1121 Q1531.58 26.1121 1537.13 32.4315 Q1542.68 38.7509 1542.68 49.9314 Q1542.68 61.0714 1537.13 67.4314 Q1531.58 73.7508 1521.86 73.7508 Q1512.1 73.7508 1506.55 67.4314 Q1501.04 61.0714 1501.04 49.9314 Q1501.04 38.7509 1506.55 32.4315 Q1512.1 26.1121 1521.86 26.1121 Z" fill="#000000" fill-rule="nonzero" fill-opacity="1" /><path clip-path="url(#clip660)" d="M1587.61 49.9314 Q1587.61 41.7081 1584.21 37.0496 Q1580.84 32.3505 1574.93 32.3505 Q1569.01 32.3505 1565.61 37.0496 Q1562.25 41.7081 1562.25 49.9314 Q1562.25 58.1548 1565.61 62.8538 Q1569.01 67.5124 1574.93 67.5124 Q1580.84 67.5124 1584.21 62.8538 Q1587.61 58.1548 1587.61 49.9314 M1562.25 34.0924 Q1564.6 30.0415 1568.16 28.0971 Q1571.77 26.1121 1576.75 26.1121 Q1585.02 26.1121 1590.16 32.6746 Q1595.34 39.2371 1595.34 49.9314 Q1595.34 60.6258 1590.16 67.1883 Q1585.02 73.7508 1576.75 73.7508 Q1571.77 73.7508 1568.16 71.8063 Q1564.6 69.8214 1562.25 65.7705 L1562.25 72.576 L1554.75 72.576 L1554.75 9.54393 L1562.25 9.54393 L1562.25 34.0924 Z" fill="#000000" fill-rule="nonzero" fill-opacity="1" /><path clip-path="url(#clip660)" d="M1671.79 27.2059 L1655.38 49.2833 L1672.64 72.576 L1663.85 72.576 L1650.64 54.752 L1637.43 72.576 L1628.64 72.576 L1646.26 48.8377 L1630.14 27.2059 L1638.93 27.2059 L1650.96 43.369 L1663 27.2059 L1671.79 27.2059 Z" fill="#000000" fill-rule="nonzero" fill-opacity="1" /><path clip-path="url(#clip660)" d="M1679.4 46.5287 L1701.24 46.5287 L1701.24 53.1722 L1679.4 53.1722 L1679.4 46.5287 Z" fill="#000000" fill-rule="nonzero" fill-opacity="1" /><path clip-path="url(#clip660)" d="M1758.72 16.7545 L1758.72 25.383 Q1754.59 21.5346 1749.89 19.6307 Q1745.23 17.7268 1739.96 17.7268 Q1729.59 17.7268 1724.08 24.0867 Q1718.57 30.4061 1718.57 42.3968 Q1718.57 54.3469 1724.08 60.7069 Q1729.59 67.0263 1739.96 67.0263 Q1745.23 67.0263 1749.89 65.1223 Q1754.59 63.2184 1758.72 59.3701 L1758.72 67.9175 Q1754.42 70.8341 1749.6 72.2924 Q1744.82 73.7508 1739.48 73.7508 Q1725.74 73.7508 1717.84 65.3654 Q1709.95 56.9395 1709.95 42.3968 Q1709.95 27.8135 1717.84 19.4281 Q1725.74 11.0023 1739.48 11.0023 Q1744.9 11.0023 1749.68 12.4606 Q1754.51 13.8784 1758.72 16.7545 Z" fill="#000000" fill-rule="nonzero" fill-opacity="1" /><path clip-path="url(#clip660)" d="M1788.61 32.4315 Q1782.62 32.4315 1779.13 37.1306 Q1775.65 41.7891 1775.65 49.9314 Q1775.65 58.0738 1779.09 62.7728 Q1782.58 67.4314 1788.61 67.4314 Q1794.57 67.4314 1798.05 62.7323 Q1801.54 58.0333 1801.54 49.9314 Q1801.54 41.8701 1798.05 37.1711 Q1794.57 32.4315 1788.61 32.4315 M1788.61 26.1121 Q1798.34 26.1121 1803.89 32.4315 Q1809.44 38.7509 1809.44 49.9314 Q1809.44 61.0714 1803.89 67.4314 Q1798.34 73.7508 1788.61 73.7508 Q1778.85 73.7508 1773.3 67.4314 Q1767.79 61.0714 1767.79 49.9314 Q1767.79 38.7509 1773.3 32.4315 Q1778.85 26.1121 1788.61 26.1121 Z" fill="#000000" fill-rule="nonzero" fill-opacity="1" /><path clip-path="url(#clip660)" d="M1859.5 45.1919 L1859.5 72.576 L1852.05 72.576 L1852.05 45.4349 Q1852.05 38.994 1849.54 35.7938 Q1847.03 32.5936 1842 32.5936 Q1835.97 32.5936 1832.48 36.4419 Q1829 40.2903 1829 46.9338 L1829 72.576 L1821.51 72.576 L1821.51 27.2059 L1829 27.2059 L1829 34.2544 Q1831.67 30.163 1835.28 28.1376 Q1838.93 26.1121 1843.67 26.1121 Q1851.48 26.1121 1855.49 30.9732 Q1859.5 35.7938 1859.5 45.1919 Z" fill="#000000" fill-rule="nonzero" fill-opacity="1" /><path clip-path="url(#clip660)" d="M1903.29 28.5427 L1903.29 35.5912 Q1900.14 33.9709 1896.73 33.1607 Q1893.33 32.3505 1889.68 32.3505 Q1884.13 32.3505 1881.34 34.0519 Q1878.58 35.7533 1878.58 39.156 Q1878.58 41.7486 1880.57 43.2475 Q1882.55 44.7058 1888.55 46.0426 L1891.1 46.6097 Q1899.04 48.3111 1902.36 51.4303 Q1905.73 54.509 1905.73 60.0587 Q1905.73 66.3781 1900.7 70.0644 Q1895.72 73.7508 1886.97 73.7508 Q1883.32 73.7508 1879.35 73.0216 Q1875.42 72.3329 1871.05 70.9151 L1871.05 63.2184 Q1875.18 65.3654 1879.19 66.4591 Q1883.2 67.5124 1887.13 67.5124 Q1892.4 67.5124 1895.23 65.73 Q1898.07 63.9071 1898.07 60.6258 Q1898.07 57.5877 1896 55.9673 Q1893.98 54.3469 1887.05 52.8481 L1884.46 52.2405 Q1877.53 50.7821 1874.45 47.7845 Q1871.37 44.7463 1871.37 39.4801 Q1871.37 33.0797 1875.91 29.5959 Q1880.45 26.1121 1888.79 26.1121 Q1892.92 26.1121 1896.57 26.7198 Q1900.22 27.3274 1903.29 28.5427 Z" fill="#000000" fill-rule="nonzero" fill-opacity="1" /><path clip-path="url(#clip660)" d="M1924.97 14.324 L1924.97 27.2059 L1940.32 27.2059 L1940.32 32.9987 L1924.97 32.9987 L1924.97 57.6282 Q1924.97 63.1779 1926.47 64.7578 Q1928.01 66.3376 1932.66 66.3376 L1940.32 66.3376 L1940.32 72.576 L1932.66 72.576 Q1924.04 72.576 1920.75 69.3758 Q1917.47 66.1351 1917.47 57.6282 L1917.47 32.9987 L1912 32.9987 L1912 27.2059 L1917.47 27.2059 L1917.47 14.324 L1924.97 14.324 Z" fill="#000000" fill-rule="nonzero" fill-opacity="1" /><path clip-path="url(#clip660)" d="M1976.41 34.1734 Q1975.16 33.4443 1973.66 33.1202 Q1972.2 32.7556 1970.42 32.7556 Q1964.1 32.7556 1960.7 36.8875 Q1957.33 40.9789 1957.33 48.6757 L1957.33 72.576 L1949.84 72.576 L1949.84 27.2059 L1957.33 27.2059 L1957.33 34.2544 Q1959.68 30.1225 1963.45 28.1376 Q1967.22 26.1121 1972.61 26.1121 Q1973.38 26.1121 1974.31 26.2337 Q1975.24 26.3147 1976.37 26.5172 L1976.41 34.1734 Z" fill="#000000" fill-rule="nonzero" fill-opacity="1" /><path clip-path="url(#clip660)" d="M2004.85 49.7694 Q1995.82 49.7694 1992.33 51.8354 Q1988.85 53.9013 1988.85 58.8839 Q1988.85 62.8538 1991.44 65.2034 Q1994.08 67.5124 1998.57 67.5124 Q2004.77 67.5124 2008.5 63.1374 Q2012.26 58.7219 2012.26 51.4303 L2012.26 49.7694 L2004.85 49.7694 M2019.72 46.6907 L2019.72 72.576 L2012.26 72.576 L2012.26 65.6895 Q2009.71 69.8214 2005.9 71.8063 Q2002.1 73.7508 1996.59 73.7508 Q1989.62 73.7508 1985.49 69.8619 Q1981.4 65.9325 1981.4 59.3701 Q1981.4 51.7138 1986.5 47.825 Q1991.64 43.9361 2001.81 43.9361 L2012.26 43.9361 L2012.26 43.2069 Q2012.26 38.0623 2008.86 35.2672 Q2005.5 32.4315 1999.38 32.4315 Q1995.49 32.4315 1991.81 33.3632 Q1988.12 34.295 1984.72 36.1584 L1984.72 29.2718 Q1988.81 27.692 1992.66 26.9223 Q1996.51 26.1121 2000.15 26.1121 Q2010 26.1121 2014.86 31.2163 Q2019.72 36.3204 2019.72 46.6907 Z" fill="#000000" fill-rule="nonzero" fill-opacity="1" /><path clip-path="url(#clip660)" d="M2035.07 27.2059 L2042.52 27.2059 L2042.52 72.576 L2035.07 72.576 L2035.07 27.2059 M2035.07 9.54393 L2042.52 9.54393 L2042.52 18.9825 L2035.07 18.9825 L2035.07 9.54393 Z" fill="#000000" fill-rule="nonzero" fill-opacity="1" /><path clip-path="url(#clip660)" d="M2095.83 45.1919 L2095.83 72.576 L2088.38 72.576 L2088.38 45.4349 Q2088.38 38.994 2085.87 35.7938 Q2083.36 32.5936 2078.33 32.5936 Q2072.3 32.5936 2068.81 36.4419 Q2065.33 40.2903 2065.33 46.9338 L2065.33 72.576 L2057.84 72.576 L2057.84 27.2059 L2065.33 27.2059 L2065.33 34.2544 Q2068 30.163 2071.61 28.1376 Q2075.26 26.1121 2080 26.1121 Q2087.81 26.1121 2091.82 30.9732 Q2095.83 35.7938 2095.83 45.1919 Z" fill="#000000" fill-rule="nonzero" fill-opacity="1" /><path clip-path="url(#clip660)" d="M2118.07 14.324 L2118.07 27.2059 L2133.43 27.2059 L2133.43 32.9987 L2118.07 32.9987 L2118.07 57.6282 Q2118.07 63.1779 2119.57 64.7578 Q2121.11 66.3376 2125.77 66.3376 L2133.43 66.3376 L2133.43 72.576 L2125.77 72.576 Q2117.14 72.576 2113.86 69.3758 Q2110.58 66.1351 2110.58 57.6282 L2110.58 32.9987 L2105.11 32.9987 L2105.11 27.2059 L2110.58 27.2059 L2110.58 14.324 L2118.07 14.324 Z" fill="#000000" fill-rule="nonzero" fill-opacity="1" /><circle clip-path="url(#clip661)" cx="602.46" cy="1237.51" r="21.6" fill="#009af9" fill-rule="evenodd" fill-opacity="1" stroke="#000000" stroke-opacity="1" stroke-width="3.2"/>
<polyline clip-path="url(#clip661)" style="stroke:#e26f46; stroke-linecap:round; stroke-linejoin:round; stroke-width:8; stroke-opacity:1; fill:none" points="602.46,1260.72 1530.82,1260.72 1530.82,1214.3 602.46,1214.3 602.46,1260.72 "/>
<circle clip-path="url(#clip661)" cx="1530.82" cy="1237.51" r="14.4" fill="#3da44d" fill-rule="evenodd" fill-opacity="1" stroke="#000000" stroke-opacity="1" stroke-width="3.2"/>
<polyline clip-path="url(#clip661)" style="stroke:#c271d2; stroke-linecap:round; stroke-linejoin:round; stroke-width:8; stroke-opacity:1; fill:none" points="607.483,1260.17 1513.84,1059.23 1503.79,1013.91 597.437,1214.85 607.483,1260.17 "/>
<circle clip-path="url(#clip661)" cx="1508.82" cy="1036.57" r="14.4" fill="#ac8d18" fill-rule="evenodd" fill-opacity="1" stroke="#000000" stroke-opacity="1" stroke-width="3.2"/>
<polyline clip-path="url(#clip661)" style="stroke:#00a9ad; stroke-linecap:round; stroke-linejoin:round; stroke-width:8; stroke-opacity:1; fill:none" points="617.378,1255.29 1328.55,658.546 1298.71,622.988 587.541,1219.73 617.378,1255.29 "/>
<circle clip-path="url(#clip661)" cx="1313.63" cy="640.767" r="14.4" fill="#ed5d92" fill-rule="evenodd" fill-opacity="1" stroke="#000000" stroke-opacity="1" stroke-width="3.2"/>
<polyline clip-path="url(#clip661)" style="stroke:#c68125; stroke-linecap:round; stroke-linejoin:round; stroke-width:8; stroke-opacity:1; fill:none" points="623.902,1246.39 979.171,388.694 936.287,370.93 581.018,1228.63 623.902,1246.39 "/>
<circle clip-path="url(#clip661)" cx="957.729" cy="379.812" r="14.4" fill="#00a98d" fill-rule="evenodd" fill-opacity="1" stroke="#000000" stroke-opacity="1" stroke-width="3.2"/>
<polyline clip-path="url(#clip661)" style="stroke:#8e971d; stroke-linecap:round; stroke-linejoin:round; stroke-width:8; stroke-opacity:1; fill:none" points="625.316,1241.54 786.525,327.279 740.812,319.218 579.603,1233.48 625.316,1241.54 "/>
<circle clip-path="url(#clip661)" cx="763.668" cy="323.249" r="14.4" fill="#00a8cb" fill-rule="evenodd" fill-opacity="1" stroke="#000000" stroke-opacity="1" stroke-width="3.2"/>
<path clip-path="url(#clip660)" d="M1786.6 972.17 L2185.51 972.17 L2185.51 609.29 L1786.6 609.29  Z" fill="#ffffff" fill-rule="evenodd" fill-opacity="1"/>
<polyline clip-path="url(#clip660)" style="stroke:#000000; stroke-linecap:round; stroke-linejoin:round; stroke-width:4; stroke-opacity:1; fill:none" points="1786.6,972.17 2185.51,972.17 2185.51,609.29 1786.6,609.29 1786.6,972.17 "/>
<circle clip-path="url(#clip660)" cx="1880.08" cy="661.13" r="21.2677" fill="#009af9" fill-rule="evenodd" fill-opacity="1" stroke="#000000" stroke-opacity="1" stroke-width="3.15077"/>
<path clip-path="url(#clip660)" d="M1995.27 662.762 L1995.27 678.41 L1991.01 678.41 L1991.01 662.9 Q1991.01 659.22 1989.57 657.391 Q1988.14 655.562 1985.27 655.562 Q1981.82 655.562 1979.83 657.762 Q1977.84 659.961 1977.84 663.757 L1977.84 678.41 L1973.55 678.41 L1973.55 642.391 L1977.84 642.391 L1977.84 656.512 Q1979.36 654.174 1981.42 653.016 Q1983.51 651.859 1986.22 651.859 Q1990.68 651.859 1992.98 654.637 Q1995.27 657.391 1995.27 662.762 Z" fill="#000000" fill-rule="nonzero" fill-opacity="1" /><path clip-path="url(#clip660)" d="M2003.76 652.484 L2008.02 652.484 L2008.02 678.41 L2003.76 678.41 L2003.76 652.484 M2003.76 642.391 L2008.02 642.391 L2008.02 647.785 L2003.76 647.785 L2003.76 642.391 Z" fill="#000000" fill-rule="nonzero" fill-opacity="1" /><path clip-path="url(#clip660)" d="M2038.48 662.762 L2038.48 678.41 L2034.23 678.41 L2034.23 662.9 Q2034.23 659.22 2032.79 657.391 Q2031.36 655.562 2028.48 655.562 Q2025.04 655.562 2023.05 657.762 Q2021.05 659.961 2021.05 663.757 L2021.05 678.41 L2016.77 678.41 L2016.77 652.484 L2021.05 652.484 L2021.05 656.512 Q2022.58 654.174 2024.64 653.016 Q2026.73 651.859 2029.43 651.859 Q2033.9 651.859 2036.19 654.637 Q2038.48 657.391 2038.48 662.762 Z" fill="#000000" fill-rule="nonzero" fill-opacity="1" /><path clip-path="url(#clip660)" d="M2064.04 665.146 Q2064.04 660.516 2062.12 657.97 Q2060.22 655.424 2056.77 655.424 Q2053.35 655.424 2051.42 657.97 Q2049.53 660.516 2049.53 665.146 Q2049.53 669.752 2051.42 672.298 Q2053.35 674.845 2056.77 674.845 Q2060.22 674.845 2062.12 672.298 Q2064.04 669.752 2064.04 665.146 M2068.3 675.192 Q2068.3 681.812 2065.36 685.03 Q2062.42 688.271 2056.36 688.271 Q2054.11 688.271 2052.12 687.923 Q2050.13 687.599 2048.25 686.905 L2048.25 682.761 Q2050.13 683.78 2051.96 684.266 Q2053.79 684.752 2055.68 684.752 Q2059.87 684.752 2061.96 682.553 Q2064.04 680.377 2064.04 675.956 L2064.04 673.849 Q2062.72 676.141 2060.66 677.275 Q2058.6 678.41 2055.73 678.41 Q2050.96 678.41 2048.04 674.775 Q2045.13 671.141 2045.13 665.146 Q2045.13 659.127 2048.04 655.493 Q2050.96 651.859 2055.73 651.859 Q2058.6 651.859 2060.66 652.993 Q2062.72 654.127 2064.04 656.419 L2064.04 652.484 L2068.3 652.484 L2068.3 675.192 Z" fill="#000000" fill-rule="nonzero" fill-opacity="1" /><path clip-path="url(#clip660)" d="M2099.25 664.382 L2099.25 666.465 L2079.67 666.465 Q2079.94 670.863 2082.3 673.178 Q2084.69 675.47 2088.92 675.47 Q2091.38 675.47 2093.67 674.868 Q2095.98 674.266 2098.25 673.062 L2098.25 677.09 Q2095.96 678.062 2093.55 678.572 Q2091.15 679.081 2088.67 679.081 Q2082.47 679.081 2078.83 675.47 Q2075.22 671.859 2075.22 665.701 Q2075.22 659.336 2078.65 655.609 Q2082.1 651.859 2087.93 651.859 Q2093.16 651.859 2096.19 655.238 Q2099.25 658.595 2099.25 664.382 M2094.99 663.132 Q2094.94 659.637 2093.02 657.553 Q2091.12 655.47 2087.98 655.47 Q2084.41 655.47 2082.26 657.484 Q2080.13 659.498 2079.8 663.155 L2094.99 663.132 Z" fill="#000000" fill-rule="nonzero" fill-opacity="1" /><polyline clip-path="url(#clip660)" style="stroke:#e26f46; stroke-linecap:round; stroke-linejoin:round; stroke-width:8; stroke-opacity:1; fill:none" points="1809.97,712.97 1950.19,712.97 "/>
<path clip-path="url(#clip660)" d="M1980.96 696.963 L1980.96 704.324 L1989.74 704.324 L1989.74 707.634 L1980.96 707.634 L1980.96 721.708 Q1980.96 724.879 1981.82 725.782 Q1982.7 726.685 1985.36 726.685 L1989.74 726.685 L1989.74 730.25 L1985.36 730.25 Q1980.43 730.25 1978.55 728.421 Q1976.68 726.569 1976.68 721.708 L1976.68 707.634 L1973.55 707.634 L1973.55 704.324 L1976.68 704.324 L1976.68 696.963 L1980.96 696.963 Z" fill="#000000" fill-rule="nonzero" fill-opacity="1" /><path clip-path="url(#clip660)" d="M2010.96 708.722 L2040.64 708.722 L2040.64 712.611 L2010.96 712.611 L2010.96 708.722 M2010.96 718.166 L2040.64 718.166 L2040.64 722.101 L2010.96 722.101 L2010.96 718.166 Z" fill="#000000" fill-rule="nonzero" fill-opacity="1" /><path clip-path="url(#clip660)" d="M2075.8 698.768 Q2072.19 698.768 2070.36 702.333 Q2068.55 705.875 2068.55 713.004 Q2068.55 720.111 2070.36 723.676 Q2072.19 727.217 2075.8 727.217 Q2079.43 727.217 2081.24 723.676 Q2083.07 720.111 2083.07 713.004 Q2083.07 705.875 2081.24 702.333 Q2079.43 698.768 2075.8 698.768 M2075.8 695.065 Q2081.61 695.065 2084.67 699.671 Q2087.74 704.254 2087.74 713.004 Q2087.74 721.731 2084.67 726.338 Q2081.61 730.921 2075.8 730.921 Q2069.99 730.921 2066.91 726.338 Q2063.86 721.731 2063.86 713.004 Q2063.86 704.254 2066.91 699.671 Q2069.99 695.065 2075.8 695.065 Z" fill="#000000" fill-rule="nonzero" fill-opacity="1" /><path clip-path="url(#clip660)" d="M2095.96 724.37 L2100.85 724.37 L2100.85 730.25 L2095.96 730.25 L2095.96 724.37 Z" fill="#000000" fill-rule="nonzero" fill-opacity="1" /><path clip-path="url(#clip660)" d="M2121.03 698.768 Q2117.42 698.768 2115.59 702.333 Q2113.79 705.875 2113.79 713.004 Q2113.79 720.111 2115.59 723.676 Q2117.42 727.217 2121.03 727.217 Q2124.66 727.217 2126.47 723.676 Q2128.3 720.111 2128.3 713.004 Q2128.3 705.875 2126.47 702.333 Q2124.66 698.768 2121.03 698.768 M2121.03 695.065 Q2126.84 695.065 2129.9 699.671 Q2132.98 704.254 2132.98 713.004 Q2132.98 721.731 2129.9 726.338 Q2126.84 730.921 2121.03 730.921 Q2115.22 730.921 2112.14 726.338 Q2109.09 721.731 2109.09 713.004 Q2109.09 704.254 2112.14 699.671 Q2115.22 695.065 2121.03 695.065 Z" fill="#000000" fill-rule="nonzero" fill-opacity="1" /><polyline clip-path="url(#clip660)" style="stroke:#c271d2; stroke-linecap:round; stroke-linejoin:round; stroke-width:8; stroke-opacity:1; fill:none" points="1809.97,764.81 1950.19,764.81 "/>
<path clip-path="url(#clip660)" d="M1980.96 748.803 L1980.96 756.164 L1989.74 756.164 L1989.74 759.474 L1980.96 759.474 L1980.96 773.548 Q1980.96 776.719 1981.82 777.622 Q1982.7 778.525 1985.36 778.525 L1989.74 778.525 L1989.74 782.09 L1985.36 782.09 Q1980.43 782.09 1978.55 780.261 Q1976.68 778.409 1976.68 773.548 L1976.68 759.474 L1973.55 759.474 L1973.55 756.164 L1976.68 756.164 L1976.68 748.803 L1980.96 748.803 Z" fill="#000000" fill-rule="nonzero" fill-opacity="1" /><path clip-path="url(#clip660)" d="M2010.96 760.562 L2040.64 760.562 L2040.64 764.451 L2010.96 764.451 L2010.96 760.562 M2010.96 770.006 L2040.64 770.006 L2040.64 773.941 L2010.96 773.941 L2010.96 770.006 Z" fill="#000000" fill-rule="nonzero" fill-opacity="1" /><path clip-path="url(#clip660)" d="M2075.8 750.608 Q2072.19 750.608 2070.36 754.173 Q2068.55 757.715 2068.55 764.844 Q2068.55 771.951 2070.36 775.516 Q2072.19 779.057 2075.8 779.057 Q2079.43 779.057 2081.24 775.516 Q2083.07 771.951 2083.07 764.844 Q2083.07 757.715 2081.24 754.173 Q2079.43 750.608 2075.8 750.608 M2075.8 746.905 Q2081.61 746.905 2084.67 751.511 Q2087.74 756.094 2087.74 764.844 Q2087.74 773.571 2084.67 778.178 Q2081.61 782.761 2075.8 782.761 Q2069.99 782.761 2066.91 778.178 Q2063.86 773.571 2063.86 764.844 Q2063.86 756.094 2066.91 751.511 Q2069.99 746.905 2075.8 746.905 Z" fill="#000000" fill-rule="nonzero" fill-opacity="1" /><path clip-path="url(#clip660)" d="M2095.96 776.21 L2100.85 776.21 L2100.85 782.09 L2095.96 782.09 L2095.96 776.21 Z" fill="#000000" fill-rule="nonzero" fill-opacity="1" /><path clip-path="url(#clip660)" d="M2115.06 778.154 L2131.38 778.154 L2131.38 782.09 L2109.43 782.09 L2109.43 778.154 Q2112.1 775.4 2116.68 770.77 Q2121.29 766.117 2122.47 764.775 Q2124.71 762.252 2125.59 760.516 Q2126.49 758.756 2126.49 757.067 Q2126.49 754.312 2124.55 752.576 Q2122.63 750.84 2119.53 750.84 Q2117.33 750.84 2114.87 751.604 Q2112.44 752.368 2109.66 753.918 L2109.66 749.196 Q2112.49 748.062 2114.94 747.483 Q2117.4 746.905 2119.43 746.905 Q2124.8 746.905 2128 749.59 Q2131.19 752.275 2131.19 756.766 Q2131.19 758.895 2130.38 760.817 Q2129.6 762.715 2127.49 765.307 Q2126.91 765.979 2123.81 769.196 Q2120.71 772.391 2115.06 778.154 Z" fill="#000000" fill-rule="nonzero" fill-opacity="1" /><path clip-path="url(#clip660)" d="M2141.24 747.53 L2159.6 747.53 L2159.6 751.465 L2145.52 751.465 L2145.52 759.937 Q2146.54 759.59 2147.56 759.428 Q2148.58 759.242 2149.6 759.242 Q2155.38 759.242 2158.76 762.414 Q2162.14 765.585 2162.14 771.002 Q2162.14 776.58 2158.67 779.682 Q2155.2 782.761 2148.88 782.761 Q2146.7 782.761 2144.43 782.39 Q2142.19 782.02 2139.78 781.279 L2139.78 776.58 Q2141.86 777.715 2144.09 778.27 Q2146.31 778.826 2148.79 778.826 Q2152.79 778.826 2155.13 776.719 Q2157.47 774.613 2157.47 771.002 Q2157.47 767.391 2155.13 765.284 Q2152.79 763.178 2148.79 763.178 Q2146.91 763.178 2145.04 763.594 Q2143.18 764.011 2141.24 764.891 L2141.24 747.53 Z" fill="#000000" fill-rule="nonzero" fill-opacity="1" /><polyline clip-path="url(#clip660)" style="stroke:#00a9ad; stroke-linecap:round; stroke-linejoin:round; stroke-width:8; stroke-opacity:1; fill:none" points="1809.97,816.65 1950.19,816.65 "/>
<path clip-path="url(#clip660)" d="M1980.96 800.643 L1980.96 808.004 L1989.74 808.004 L1989.74 811.314 L1980.96 811.314 L1980.96 825.388 Q1980.96 828.559 1981.82 829.462 Q1982.7 830.365 1985.36 830.365 L1989.74 830.365 L1989.74 833.93 L1985.36 833.93 Q1980.43 833.93 1978.55 832.101 Q1976.68 830.249 1976.68 825.388 L1976.68 811.314 L1973.55 811.314 L1973.55 808.004 L1976.68 808.004 L1976.68 800.643 L1980.96 800.643 Z" fill="#000000" fill-rule="nonzero" fill-opacity="1" /><path clip-path="url(#clip660)" d="M2010.96 812.402 L2040.64 812.402 L2040.64 816.291 L2010.96 816.291 L2010.96 812.402 M2010.96 821.846 L2040.64 821.846 L2040.64 825.781 L2010.96 825.781 L2010.96 821.846 Z" fill="#000000" fill-rule="nonzero" fill-opacity="1" /><path clip-path="url(#clip660)" d="M2075.8 802.448 Q2072.19 802.448 2070.36 806.013 Q2068.55 809.555 2068.55 816.684 Q2068.55 823.791 2070.36 827.356 Q2072.19 830.897 2075.8 830.897 Q2079.43 830.897 2081.24 827.356 Q2083.07 823.791 2083.07 816.684 Q2083.07 809.555 2081.24 806.013 Q2079.43 802.448 2075.8 802.448 M2075.8 798.745 Q2081.61 798.745 2084.67 803.351 Q2087.74 807.934 2087.74 816.684 Q2087.74 825.411 2084.67 830.018 Q2081.61 834.601 2075.8 834.601 Q2069.99 834.601 2066.91 830.018 Q2063.86 825.411 2063.86 816.684 Q2063.86 807.934 2066.91 803.351 Q2069.99 798.745 2075.8 798.745 Z" fill="#000000" fill-rule="nonzero" fill-opacity="1" /><path clip-path="url(#clip660)" d="M2095.96 828.05 L2100.85 828.05 L2100.85 833.93 L2095.96 833.93 L2095.96 828.05 Z" fill="#000000" fill-rule="nonzero" fill-opacity="1" /><path clip-path="url(#clip660)" d="M2111.08 799.37 L2129.43 799.37 L2129.43 803.305 L2115.36 803.305 L2115.36 811.777 Q2116.38 811.43 2117.4 811.268 Q2118.41 811.082 2119.43 811.082 Q2125.22 811.082 2128.6 814.254 Q2131.98 817.425 2131.98 822.842 Q2131.98 828.42 2128.51 831.522 Q2125.04 834.601 2118.72 834.601 Q2116.54 834.601 2114.27 834.23 Q2112.03 833.86 2109.62 833.119 L2109.62 828.42 Q2111.7 829.555 2113.92 830.11 Q2116.15 830.666 2118.62 830.666 Q2122.63 830.666 2124.97 828.559 Q2127.3 826.453 2127.3 822.842 Q2127.3 819.231 2124.97 817.124 Q2122.63 815.018 2118.62 815.018 Q2116.75 815.018 2114.87 815.434 Q2113.02 815.851 2111.08 816.731 L2111.08 799.37 Z" fill="#000000" fill-rule="nonzero" fill-opacity="1" /><polyline clip-path="url(#clip660)" style="stroke:#c68125; stroke-linecap:round; stroke-linejoin:round; stroke-width:8; stroke-opacity:1; fill:none" points="1809.97,868.49 1950.19,868.49 "/>
<path clip-path="url(#clip660)" d="M1980.96 852.483 L1980.96 859.844 L1989.74 859.844 L1989.74 863.154 L1980.96 863.154 L1980.96 877.228 Q1980.96 880.399 1981.82 881.302 Q1982.7 882.205 1985.36 882.205 L1989.74 882.205 L1989.74 885.77 L1985.36 885.77 Q1980.43 885.77 1978.55 883.941 Q1976.68 882.089 1976.68 877.228 L1976.68 863.154 L1973.55 863.154 L1973.55 859.844 L1976.68 859.844 L1976.68 852.483 L1980.96 852.483 Z" fill="#000000" fill-rule="nonzero" fill-opacity="1" /><path clip-path="url(#clip660)" d="M2010.96 864.242 L2040.64 864.242 L2040.64 868.131 L2010.96 868.131 L2010.96 864.242 M2010.96 873.686 L2040.64 873.686 L2040.64 877.621 L2010.96 877.621 L2010.96 873.686 Z" fill="#000000" fill-rule="nonzero" fill-opacity="1" /><path clip-path="url(#clip660)" d="M2075.8 854.288 Q2072.19 854.288 2070.36 857.853 Q2068.55 861.395 2068.55 868.524 Q2068.55 875.631 2070.36 879.196 Q2072.19 882.737 2075.8 882.737 Q2079.43 882.737 2081.24 879.196 Q2083.07 875.631 2083.07 868.524 Q2083.07 861.395 2081.24 857.853 Q2079.43 854.288 2075.8 854.288 M2075.8 850.585 Q2081.61 850.585 2084.67 855.191 Q2087.74 859.774 2087.74 868.524 Q2087.74 877.251 2084.67 881.858 Q2081.61 886.441 2075.8 886.441 Q2069.99 886.441 2066.91 881.858 Q2063.86 877.251 2063.86 868.524 Q2063.86 859.774 2066.91 855.191 Q2069.99 850.585 2075.8 850.585 Z" fill="#000000" fill-rule="nonzero" fill-opacity="1" /><path clip-path="url(#clip660)" d="M2095.96 879.89 L2100.85 879.89 L2100.85 885.77 L2095.96 885.77 L2095.96 879.89 Z" fill="#000000" fill-rule="nonzero" fill-opacity="1" /><path clip-path="url(#clip660)" d="M2109.85 851.21 L2132.07 851.21 L2132.07 853.2 L2119.53 885.77 L2114.64 885.77 L2126.45 855.145 L2109.85 855.145 L2109.85 851.21 Z" fill="#000000" fill-rule="nonzero" fill-opacity="1" /><path clip-path="url(#clip660)" d="M2141.24 851.21 L2159.6 851.21 L2159.6 855.145 L2145.52 855.145 L2145.52 863.617 Q2146.54 863.27 2147.56 863.108 Q2148.58 862.922 2149.6 862.922 Q2155.38 862.922 2158.76 866.094 Q2162.14 869.265 2162.14 874.682 Q2162.14 880.26 2158.67 883.362 Q2155.2 886.441 2148.88 886.441 Q2146.7 886.441 2144.43 886.07 Q2142.19 885.7 2139.78 884.959 L2139.78 880.26 Q2141.86 881.395 2144.09 881.95 Q2146.31 882.506 2148.79 882.506 Q2152.79 882.506 2155.13 880.399 Q2157.47 878.293 2157.47 874.682 Q2157.47 871.071 2155.13 868.964 Q2152.79 866.858 2148.79 866.858 Q2146.91 866.858 2145.04 867.274 Q2143.18 867.691 2141.24 868.571 L2141.24 851.21 Z" fill="#000000" fill-rule="nonzero" fill-opacity="1" /><polyline clip-path="url(#clip660)" style="stroke:#8e971d; stroke-linecap:round; stroke-linejoin:round; stroke-width:8; stroke-opacity:1; fill:none" points="1809.97,920.33 1950.19,920.33 "/>
<path clip-path="url(#clip660)" d="M1980.96 904.323 L1980.96 911.684 L1989.74 911.684 L1989.74 914.994 L1980.96 914.994 L1980.96 929.068 Q1980.96 932.239 1981.82 933.142 Q1982.7 934.045 1985.36 934.045 L1989.74 934.045 L1989.74 937.61 L1985.36 937.61 Q1980.43 937.61 1978.55 935.781 Q1976.68 933.929 1976.68 929.068 L1976.68 914.994 L1973.55 914.994 L1973.55 911.684 L1976.68 911.684 L1976.68 904.323 L1980.96 904.323 Z" fill="#000000" fill-rule="nonzero" fill-opacity="1" /><path clip-path="url(#clip660)" d="M2010.96 916.082 L2040.64 916.082 L2040.64 919.971 L2010.96 919.971 L2010.96 916.082 M2010.96 925.526 L2040.64 925.526 L2040.64 929.461 L2010.96 929.461 L2010.96 925.526 Z" fill="#000000" fill-rule="nonzero" fill-opacity="1" /><path clip-path="url(#clip660)" d="M2066.61 933.674 L2074.25 933.674 L2074.25 907.309 L2065.94 908.975 L2065.94 904.716 L2074.2 903.05 L2078.88 903.05 L2078.88 933.674 L2086.52 933.674 L2086.52 937.61 L2066.61 937.61 L2066.61 933.674 Z" fill="#000000" fill-rule="nonzero" fill-opacity="1" /><path clip-path="url(#clip660)" d="M2095.96 931.73 L2100.85 931.73 L2100.85 937.61 L2095.96 937.61 L2095.96 931.73 Z" fill="#000000" fill-rule="nonzero" fill-opacity="1" /><path clip-path="url(#clip660)" d="M2121.03 906.128 Q2117.42 906.128 2115.59 909.693 Q2113.79 913.235 2113.79 920.364 Q2113.79 927.471 2115.59 931.036 Q2117.42 934.577 2121.03 934.577 Q2124.66 934.577 2126.47 931.036 Q2128.3 927.471 2128.3 920.364 Q2128.3 913.235 2126.47 909.693 Q2124.66 906.128 2121.03 906.128 M2121.03 902.425 Q2126.84 902.425 2129.9 907.031 Q2132.98 911.614 2132.98 920.364 Q2132.98 929.091 2129.9 933.698 Q2126.84 938.281 2121.03 938.281 Q2115.22 938.281 2112.14 933.698 Q2109.09 929.091 2109.09 920.364 Q2109.09 911.614 2112.14 907.031 Q2115.22 902.425 2121.03 902.425 Z" fill="#000000" fill-rule="nonzero" fill-opacity="1" /></svg>
