<?xml version="1.0" encoding="utf-8"?>
<svg xmlns="http://www.w3.org/2000/svg" xmlns:xlink="http://www.w3.org/1999/xlink" width="600" height="400" viewBox="0 0 2400 1600">
<defs>
  <clipPath id="clip610">
    <rect x="0" y="0" width="2400" height="1600"/>
  </clipPath>
</defs>
<path clip-path="url(#clip610)" d="M0 1600 L2400 1600 L2400 0 L0 0  Z" fill="#ffffff" fill-rule="evenodd" fill-opacity="1"/>
<defs>
  <clipPath id="clip611">
    <rect x="280" y="123" width="2073" height="1301"/>
  </clipPath>
</defs>
<path clip-path="url(#clip610)" d="M416.787 1423.18 L1716.5 1423.18 L1716.5 123.472 L416.787 123.472  Z" fill="#ffffff" fill-rule="evenodd" fill-opacity="1"/>
<defs>
  <clipPath id="clip612">
    <rect x="416" y="123" width="1301" height="1301"/>
  </clipPath>
</defs>
<polyline clip-path="url(#clip612)" style="stroke:#000000; stroke-linecap:round; stroke-linejoin:round; stroke-width:2; stroke-opacity:0.1; fill:none" points="602.46,1423.18 602.46,123.472 "/>
<polyline clip-path="url(#clip612)" style="stroke:#000000; stroke-linecap:round; stroke-linejoin:round; stroke-width:2; stroke-opacity:0.1; fill:none" points="834.551,1423.18 834.551,123.472 "/>
<polyline clip-path="url(#clip612)" style="stroke:#000000; stroke-linecap:round; stroke-linejoin:round; stroke-width:2; stroke-opacity:0.1; fill:none" points="1066.64,1423.18 1066.64,123.472 "/>
<polyline clip-path="url(#clip612)" style="stroke:#000000; stroke-linecap:round; stroke-linejoin:round; stroke-width:2; stroke-opacity:0.1; fill:none" points="1298.73,1423.18 1298.73,123.472 "/>
<polyline clip-path="url(#clip612)" style="stroke:#000000; stroke-linecap:round; stroke-linejoin:round; stroke-width:2; stroke-opacity:0.1; fill:none" points="1530.82,1423.18 1530.82,123.472 "/>
<polyline clip-path="url(#clip612)" style="stroke:#000000; stroke-linecap:round; stroke-linejoin:round; stroke-width:2; stroke-opacity:0.1; fill:none" points="416.787,1237.51 1716.5,1237.51 "/>
<polyline clip-path="url(#clip612)" style="stroke:#000000; stroke-linecap:round; stroke-linejoin:round; stroke-width:2; stroke-opacity:0.1; fill:none" points="416.787,1005.42 1716.5,1005.42 "/>
<polyline clip-path="url(#clip612)" style="stroke:#000000; stroke-linecap:round; stroke-linejoin:round; stroke-width:2; stroke-opacity:0.1; fill:none" points="416.787,773.326 1716.5,773.326 "/>
<polyline clip-path="url(#clip612)" style="stroke:#000000; stroke-linecap:round; stroke-linejoin:round; stroke-width:2; stroke-opacity:0.1; fill:none" points="416.787,541.235 1716.5,541.235 "/>
<polyline clip-path="url(#clip612)" style="stroke:#000000; stroke-linecap:round; stroke-linejoin:round; stroke-width:2; stroke-opacity:0.1; fill:none" points="416.787,309.145 1716.5,309.145 "/>
<polyline clip-path="url(#clip610)" style="stroke:#000000; stroke-linecap:round; stroke-linejoin:round; stroke-width:4; stroke-opacity:1; fill:none" points="416.787,1423.18 1716.5,1423.18 "/>
<polyline clip-path="url(#clip610)" style="stroke:#000000; stroke-linecap:round; stroke-linejoin:round; stroke-width:4; stroke-opacity:1; fill:none" points="602.46,1423.18 602.46,1404.28 "/>
<polyline clip-path="url(#clip610)" style="stroke:#000000; stroke-linecap:round; stroke-linejoin:round; stroke-width:4; stroke-opacity:1; fill:none" points="834.551,1423.18 834.551,1404.28 "/>
<polyline clip-path="url(#clip610)" style="stroke:#000000; stroke-linecap:round; stroke-linejoin:round; stroke-width:4; stroke-opacity:1; fill:none" points="1066.64,1423.18 1066.64,1404.28 "/>
<polyline clip-path="url(#clip610)" style="stroke:#000000; stroke-linecap:round; stroke-linejoin:round; stroke-width:4; stroke-opacity:1; fill:none" points="1298.73,1423.18 1298.73,1404.28 "/>
<polyline clip-path="url(#clip610)" style="stroke:#000000; stroke-linecap:round; stroke-linejoin:round; stroke-width:4; stroke-opacity:1; fill:none" points="1530.82,1423.18 1530.82,1404.28 "/>
<path clip-path="url(#clip610)" d="M564.763 1454.1 Q561.152 1454.1 559.324 1457.66 Q557.518 1461.2 557.518 1468.33 Q557.518 1475.44 559.324 1479.01 Q561.152 1482.55 564.763 1482.55 Q568.398 1482.55 570.203 1479.01 Q572.032 1475.44 572.032 1468.33 Q572.032 1461.2 570.203 1457.66 Q568.398 1454.1 564.763 1454.1 M564.763 1450.39 Q570.574 1450.39 573.629 1455 Q576.708 1459.58 576.708 1468.33 Q576.708 1477.06 573.629 1481.67 Q570.574 1486.25 564.763 1486.25 Q558.953 1486.25 555.875 1481.67 Q552.819 1477.06 552.819 1468.33 Q552.819 1459.58 555.875 1455 Q558.953 1450.39 564.763 1450.39 Z" fill="#000000" fill-rule="nonzero" fill-opacity="1" /><path clip-path="url(#clip610)" d="M584.925 1479.7 L589.81 1479.7 L589.81 1485.58 L584.925 1485.58 L584.925 1479.7 Z" fill="#000000" fill-rule="nonzero" fill-opacity="1" /><path clip-path="url(#clip610)" d="M609.995 1454.1 Q606.383 1454.1 604.555 1457.66 Q602.749 1461.2 602.749 1468.33 Q602.749 1475.44 604.555 1479.01 Q606.383 1482.55 609.995 1482.55 Q613.629 1482.55 615.434 1479.01 Q617.263 1475.44 617.263 1468.33 Q617.263 1461.2 615.434 1457.66 Q613.629 1454.1 609.995 1454.1 M609.995 1450.39 Q615.805 1450.39 618.86 1455 Q621.939 1459.58 621.939 1468.33 Q621.939 1477.06 618.86 1481.67 Q615.805 1486.25 609.995 1486.25 Q604.184 1486.25 601.106 1481.67 Q598.05 1477.06 598.05 1468.33 Q598.05 1459.58 601.106 1455 Q604.184 1450.39 609.995 1450.39 Z" fill="#000000" fill-rule="nonzero" fill-opacity="1" /><path clip-path="url(#clip610)" d="M640.156 1454.1 Q636.545 1454.1 634.717 1457.66 Q632.911 1461.2 632.911 1468.33 Q632.911 1475.44 634.717 1479.01 Q636.545 1482.55 640.156 1482.55 Q643.791 1482.55 645.596 1479.01 Q647.425 1475.44 647.425 1468.33 Q647.425 1461.2 645.596 1457.66 Q643.791 1454.1 640.156 1454.1 M640.156 1450.39 Q645.967 1450.39 649.022 1455 Q652.101 1459.58 652.101 1468.33 Q652.101 1477.06 649.022 1481.67 Q645.967 1486.25 640.156 1486.25 Q634.346 1486.25 631.268 1481.67 Q628.212 1477.06 628.212 1468.33 Q628.212 1459.58 631.268 1455 Q634.346 1450.39 640.156 1450.39 Z" fill="#000000" fill-rule="nonzero" fill-opacity="1" /><path clip-path="url(#clip610)" d="M797.352 1454.1 Q793.741 1454.1 791.912 1457.66 Q790.106 1461.2 790.106 1468.33 Q790.106 1475.44 791.912 1479.01 Q793.741 1482.55 797.352 1482.55 Q800.986 1482.55 802.791 1479.01 Q804.62 1475.44 804.62 1468.33 Q804.62 1461.2 802.791 1457.66 Q800.986 1454.1 797.352 1454.1 M797.352 1450.39 Q803.162 1450.39 806.217 1455 Q809.296 1459.58 809.296 1468.33 Q809.296 1477.06 806.217 1481.67 Q803.162 1486.25 797.352 1486.25 Q791.542 1486.25 788.463 1481.67 Q785.407 1477.06 785.407 1468.33 Q785.407 1459.58 788.463 1455 Q791.542 1450.39 797.352 1450.39 Z" fill="#000000" fill-rule="nonzero" fill-opacity="1" /><path clip-path="url(#clip610)" d="M817.514 1479.7 L822.398 1479.7 L822.398 1485.58 L817.514 1485.58 L817.514 1479.7 Z" fill="#000000" fill-rule="nonzero" fill-opacity="1" /><path clip-path="url(#clip610)" d="M836.611 1481.64 L852.93 1481.64 L852.93 1485.58 L830.986 1485.58 L830.986 1481.64 Q833.648 1478.89 838.231 1474.26 Q842.838 1469.61 844.018 1468.27 Q846.263 1465.74 847.143 1464.01 Q848.046 1462.25 848.046 1460.56 Q848.046 1457.8 846.101 1456.07 Q844.18 1454.33 841.078 1454.33 Q838.879 1454.33 836.426 1455.09 Q833.995 1455.86 831.217 1457.41 L831.217 1452.69 Q834.041 1451.55 836.495 1450.97 Q838.949 1450.39 840.986 1450.39 Q846.356 1450.39 849.55 1453.08 Q852.745 1455.77 852.745 1460.26 Q852.745 1462.39 851.935 1464.31 Q851.148 1466.2 849.041 1468.8 Q848.463 1469.47 845.361 1472.69 Q842.259 1475.88 836.611 1481.64 Z" fill="#000000" fill-rule="nonzero" fill-opacity="1" /><path clip-path="url(#clip610)" d="M862.791 1451.02 L881.148 1451.02 L881.148 1454.96 L867.074 1454.96 L867.074 1463.43 Q868.092 1463.08 869.111 1462.92 Q870.129 1462.73 871.148 1462.73 Q876.935 1462.73 880.314 1465.9 Q883.694 1469.08 883.694 1474.49 Q883.694 1480.07 880.222 1483.17 Q876.749 1486.25 870.43 1486.25 Q868.254 1486.25 865.986 1485.88 Q863.74 1485.51 861.333 1484.77 L861.333 1480.07 Q863.416 1481.2 865.638 1481.76 Q867.861 1482.32 870.337 1482.32 Q874.342 1482.32 876.68 1480.21 Q879.018 1478.1 879.018 1474.49 Q879.018 1470.88 876.68 1468.77 Q874.342 1466.67 870.337 1466.67 Q868.462 1466.67 866.587 1467.08 Q864.736 1467.5 862.791 1468.38 L862.791 1451.02 Z" fill="#000000" fill-rule="nonzero" fill-opacity="1" /><path clip-path="url(#clip610)" d="M1028.94 1454.1 Q1025.33 1454.1 1023.5 1457.66 Q1021.7 1461.2 1021.7 1468.33 Q1021.7 1475.44 1023.5 1479.01 Q1025.33 1482.55 1028.94 1482.55 Q1032.58 1482.55 1034.38 1479.01 Q1036.21 1475.44 1036.21 1468.33 Q1036.21 1461.2 1034.38 1457.66 Q1032.58 1454.1 1028.94 1454.1 M1028.94 1450.39 Q1034.75 1450.39 1037.81 1455 Q1040.89 1459.58 1040.89 1468.33 Q1040.89 1477.06 1037.81 1481.67 Q1034.75 1486.25 1028.94 1486.25 Q1023.13 1486.25 1020.06 1481.67 Q1017 1477.06 1017 1468.33 Q1017 1459.58 1020.06 1455 Q1023.13 1450.39 1028.94 1450.39 Z" fill="#000000" fill-rule="nonzero" fill-opacity="1" /><path clip-path="url(#clip610)" d="M1049.11 1479.7 L1053.99 1479.7 L1053.99 1485.58 L1049.11 1485.58 L1049.11 1479.7 Z" fill="#000000" fill-rule="nonzero" fill-opacity="1" /><path clip-path="url(#clip610)" d="M1064.22 1451.02 L1082.58 1451.02 L1082.58 1454.96 L1068.5 1454.96 L1068.5 1463.43 Q1069.52 1463.08 1070.54 1462.92 Q1071.56 1462.73 1072.58 1462.73 Q1078.37 1462.73 1081.75 1465.9 Q1085.12 1469.08 1085.12 1474.49 Q1085.12 1480.07 1081.65 1483.17 Q1078.18 1486.25 1071.86 1486.25 Q1069.69 1486.25 1067.42 1485.88 Q1065.17 1485.51 1062.76 1484.77 L1062.76 1480.07 Q1064.85 1481.2 1067.07 1481.76 Q1069.29 1482.32 1071.77 1482.32 Q1075.77 1482.32 1078.11 1480.21 Q1080.45 1478.1 1080.45 1474.49 Q1080.45 1470.88 1078.11 1468.77 Q1075.77 1466.67 1071.77 1466.67 Q1069.89 1466.67 1068.02 1467.08 Q1066.17 1467.5 1064.22 1468.38 L1064.22 1451.02 Z" fill="#000000" fill-rule="nonzero" fill-opacity="1" /><path clip-path="url(#clip610)" d="M1104.34 1454.1 Q1100.73 1454.1 1098.9 1457.66 Q1097.09 1461.2 1097.09 1468.33 Q1097.09 1475.44 1098.9 1479.01 Q1100.73 1482.55 1104.34 1482.55 Q1107.97 1482.55 1109.78 1479.01 Q1111.61 1475.44 1111.61 1468.33 Q1111.61 1461.2 1109.78 1457.66 Q1107.97 1454.1 1104.34 1454.1 M1104.34 1450.39 Q1110.15 1450.39 1113.2 1455 Q1116.28 1459.58 1116.28 1468.33 Q1116.28 1477.06 1113.2 1481.67 Q1110.15 1486.25 1104.34 1486.25 Q1098.53 1486.25 1095.45 1481.67 Q1092.39 1477.06 1092.39 1468.33 Q1092.39 1459.58 1095.45 1455 Q1098.53 1450.39 1104.34 1450.39 Z" fill="#000000" fill-rule="nonzero" fill-opacity="1" /><path clip-path="url(#clip610)" d="M1261.53 1454.1 Q1257.92 1454.1 1256.09 1457.66 Q1254.29 1461.2 1254.29 1468.33 Q1254.29 1475.44 1256.09 1479.01 Q1257.92 1482.55 1261.53 1482.55 Q1265.17 1482.55 1266.97 1479.01 Q1268.8 1475.44 1268.8 1468.33 Q1268.8 1461.2 1266.97 1457.66 Q1265.17 1454.1 1261.53 1454.1 M1261.53 1450.39 Q1267.34 1450.39 1270.4 1455 Q1273.48 1459.58 1273.48 1468.33 Q1273.48 1477.06 1270.4 1481.67 Q1267.34 1486.25 1261.53 1486.25 Q1255.72 1486.25 1252.64 1481.67 Q1249.59 1477.06 1249.59 1468.33 Q1249.59 1459.58 1252.64 1455 Q1255.72 1450.39 1261.53 1450.39 Z" fill="#000000" fill-rule="nonzero" fill-opacity="1" /><path clip-path="url(#clip610)" d="M1281.69 1479.7 L1286.58 1479.7 L1286.58 1485.58 L1281.69 1485.58 L1281.69 1479.7 Z" fill="#000000" fill-rule="nonzero" fill-opacity="1" /><path clip-path="url(#clip610)" d="M1295.58 1451.02 L1317.81 1451.02 L1317.81 1453.01 L1305.26 1485.58 L1300.38 1485.58 L1312.18 1454.96 L1295.58 1454.96 L1295.58 1451.02 Z" fill="#000000" fill-rule="nonzero" fill-opacity="1" /><path clip-path="url(#clip610)" d="M1326.97 1451.02 L1345.33 1451.02 L1345.33 1454.96 L1331.25 1454.96 L1331.25 1463.43 Q1332.27 1463.08 1333.29 1462.92 Q1334.31 1462.73 1335.33 1462.73 Q1341.12 1462.73 1344.5 1465.9 Q1347.88 1469.08 1347.88 1474.49 Q1347.88 1480.07 1344.4 1483.17 Q1340.93 1486.25 1334.61 1486.25 Q1332.44 1486.25 1330.17 1485.88 Q1327.92 1485.51 1325.51 1484.77 L1325.51 1480.07 Q1327.6 1481.2 1329.82 1481.76 Q1332.04 1482.32 1334.52 1482.32 Q1338.52 1482.32 1340.86 1480.21 Q1343.2 1478.1 1343.2 1474.49 Q1343.2 1470.88 1340.86 1468.77 Q1338.52 1466.67 1334.52 1466.67 Q1332.64 1466.67 1330.77 1467.08 Q1328.92 1467.5 1326.97 1468.38 L1326.97 1451.02 Z" fill="#000000" fill-rule="nonzero" fill-opacity="1" /><path clip-path="url(#clip610)" d="M1482.89 1481.64 L1490.53 1481.64 L1490.53 1455.28 L1482.22 1456.95 L1482.22 1452.69 L1490.49 1451.02 L1495.16 1451.02 L1495.16 1481.64 L1502.8 1481.64 L1502.8 1485.58 L1482.89 1485.58 L1482.89 1481.64 Z" fill="#000000" fill-rule="nonzero" fill-opacity="1" /><path clip-path="url(#clip610)" d="M1512.25 1479.7 L1517.13 1479.7 L1517.13 1485.58 L1512.25 1485.58 L1512.25 1479.7 Z" fill="#000000" fill-rule="nonzero" fill-opacity="1" /><path clip-path="url(#clip610)" d="M1537.32 1454.1 Q1533.7 1454.1 1531.88 1457.66 Q1530.07 1461.2 1530.07 1468.33 Q1530.07 1475.44 1531.88 1479.01 Q1533.7 1482.55 1537.32 1482.55 Q1540.95 1482.55 1542.76 1479.01 Q1544.58 1475.44 1544.58 1468.33 Q1544.58 1461.2 1542.76 1457.66 Q1540.95 1454.1 1537.32 1454.1 M1537.32 1450.39 Q1543.13 1450.39 1546.18 1455 Q1549.26 1459.58 1549.26 1468.33 Q1549.26 1477.06 1546.18 1481.67 Q1543.13 1486.25 1537.32 1486.25 Q1531.51 1486.25 1528.43 1481.67 Q1525.37 1477.06 1525.37 1468.33 Q1525.37 1459.58 1528.43 1455 Q1531.51 1450.39 1537.32 1450.39 Z" fill="#000000" fill-rule="nonzero" fill-opacity="1" /><path clip-path="url(#clip610)" d="M1567.48 1454.1 Q1563.87 1454.1 1562.04 1457.66 Q1560.23 1461.2 1560.23 1468.33 Q1560.23 1475.44 1562.04 1479.01 Q1563.87 1482.55 1567.48 1482.55 Q1571.11 1482.55 1572.92 1479.01 Q1574.75 1475.44 1574.75 1468.33 Q1574.75 1461.2 1572.92 1457.66 Q1571.11 1454.1 1567.48 1454.1 M1567.48 1450.39 Q1573.29 1450.39 1576.34 1455 Q1579.42 1459.58 1579.42 1468.33 Q1579.42 1477.06 1576.34 1481.67 Q1573.29 1486.25 1567.48 1486.25 Q1561.67 1486.25 1558.59 1481.67 Q1555.53 1477.06 1555.53 1468.33 Q1555.53 1459.58 1558.59 1455 Q1561.67 1450.39 1567.48 1450.39 Z" fill="#000000" fill-rule="nonzero" fill-opacity="1" /><path clip-path="url(#clip610)" d="M1083.26 1532.4 L1070.37 1549.74 L1083.92 1568.04 L1077.02 1568.04 L1066.64 1554.04 L1056.27 1568.04 L1049.36 1568.04 L1063.2 1549.39 L1050.54 1532.4 L1057.44 1532.4 L1066.9 1545.1 L1076.35 1532.4 L1083.26 1532.4 Z" fill="#000000" fill-rule="nonzero" fill-opacity="1" /><polyline clip-path="url(#clip610)" style="stroke:#000000; stroke-linecap:round; stroke-linejoin:round; stroke-width:4; stroke-opacity:1; fill:none" points="416.787,1423.18 416.787,123.472 "/>
<polyline clip-path="url(#clip610)" style="stroke:#000000; stroke-linecap:round; stroke-linejoin:round; stroke-width:4; stroke-opacity:1; fill:none" points="416.787,1237.51 428.465,1237.51 "/>
<polyline clip-path="url(#clip610)" style="stroke:#000000; stroke-linecap:round; stroke-linejoin:round; stroke-width:4; stroke-opacity:1; fill:none" points="416.787,1005.42 428.465,1005.42 "/>
<polyline clip-path="url(#clip610)" style="stroke:#000000; stroke-linecap:round; stroke-linejoin:round; stroke-width:4; stroke-opacity:1; fill:none" points="416.787,773.326 428.465,773.326 "/>
<polyline clip-path="url(#clip610)" style="stroke:#000000; stroke-linecap:round; stroke-linejoin:round; stroke-width:4; stroke-opacity:1; fill:none" points="416.787,541.235 428.465,541.235 "/>
<polyline clip-path="url(#clip610)" style="stroke:#000000; stroke-linecap:round; stroke-linejoin:round; stroke-width:4; stroke-opacity:1; fill:none" points="416.787,309.145 428.465,309.145 "/>
<path clip-path="url(#clip610)" d="M293.45 1223.31 Q289.839 1223.31 288.01 1226.87 Q286.205 1230.41 286.205 1237.54 Q286.205 1244.65 288.01 1248.21 Q289.839 1251.75 293.45 1251.75 Q297.084 1251.75 298.89 1248.21 Q300.718 1244.65 300.718 1237.54 Q300.718 1230.41 298.89 1226.87 Q297.084 1223.31 293.45 1223.31 M293.45 1219.6 Q299.26 1219.6 302.316 1224.21 Q305.394 1228.79 305.394 1237.54 Q305.394 1246.27 302.316 1250.88 Q299.26 1255.46 293.45 1255.46 Q287.64 1255.46 284.561 1250.88 Q281.506 1246.27 281.506 1237.54 Q281.506 1228.79 284.561 1224.21 Q287.64 1219.6 293.45 1219.6 Z" fill="#000000" fill-rule="nonzero" fill-opacity="1" /><path clip-path="url(#clip610)" d="M313.612 1248.91 L318.496 1248.91 L318.496 1254.79 L313.612 1254.79 L313.612 1248.91 Z" fill="#000000" fill-rule="nonzero" fill-opacity="1" /><path clip-path="url(#clip610)" d="M338.681 1223.31 Q335.07 1223.31 333.241 1226.87 Q331.436 1230.41 331.436 1237.54 Q331.436 1244.65 333.241 1248.21 Q335.07 1251.75 338.681 1251.75 Q342.315 1251.75 344.121 1248.21 Q345.95 1244.65 345.95 1237.54 Q345.95 1230.41 344.121 1226.87 Q342.315 1223.31 338.681 1223.31 M338.681 1219.6 Q344.491 1219.6 347.547 1224.21 Q350.626 1228.79 350.626 1237.54 Q350.626 1246.27 347.547 1250.88 Q344.491 1255.46 338.681 1255.46 Q332.871 1255.46 329.792 1250.88 Q326.737 1246.27 326.737 1237.54 Q326.737 1228.79 329.792 1224.21 Q332.871 1219.6 338.681 1219.6 Z" fill="#000000" fill-rule="nonzero" fill-opacity="1" /><path clip-path="url(#clip610)" d="M368.843 1223.31 Q365.232 1223.31 363.403 1226.87 Q361.598 1230.41 361.598 1237.54 Q361.598 1244.65 363.403 1248.21 Q365.232 1251.75 368.843 1251.75 Q372.477 1251.75 374.283 1248.21 Q376.111 1244.65 376.111 1237.54 Q376.111 1230.41 374.283 1226.87 Q372.477 1223.31 368.843 1223.31 M368.843 1219.6 Q374.653 1219.6 377.709 1224.21 Q380.787 1228.79 380.787 1237.54 Q380.787 1246.27 377.709 1250.88 Q374.653 1255.46 368.843 1255.46 Q363.033 1255.46 359.954 1250.88 Q356.899 1246.27 356.899 1237.54 Q356.899 1228.79 359.954 1224.21 Q363.033 1219.6 368.843 1219.6 Z" fill="#000000" fill-rule="nonzero" fill-opacity="1" /><path clip-path="url(#clip610)" d="M294.445 991.215 Q290.834 991.215 289.005 994.78 Q287.2 998.322 287.2 1005.45 Q287.2 1012.56 289.005 1016.12 Q290.834 1019.66 294.445 1019.66 Q298.079 1019.66 299.885 1016.12 Q301.714 1012.56 301.714 1005.45 Q301.714 998.322 299.885 994.78 Q298.079 991.215 294.445 991.215 M294.445 987.512 Q300.255 987.512 303.311 992.118 Q306.39 996.701 306.39 1005.45 Q306.39 1014.18 303.311 1018.78 Q300.255 1023.37 294.445 1023.37 Q288.635 1023.37 285.556 1018.78 Q282.501 1014.18 282.501 1005.45 Q282.501 996.701 285.556 992.118 Q288.635 987.512 294.445 987.512 Z" fill="#000000" fill-rule="nonzero" fill-opacity="1" /><path clip-path="url(#clip610)" d="M314.607 1016.82 L319.491 1016.82 L319.491 1022.7 L314.607 1022.7 L314.607 1016.82 Z" fill="#000000" fill-rule="nonzero" fill-opacity="1" /><path clip-path="url(#clip610)" d="M333.704 1018.76 L350.024 1018.76 L350.024 1022.7 L328.079 1022.7 L328.079 1018.76 Q330.741 1016.01 335.325 1011.38 Q339.931 1006.72 341.112 1005.38 Q343.357 1002.86 344.237 1001.12 Q345.139 999.363 345.139 997.674 Q345.139 994.919 343.195 993.183 Q341.274 991.447 338.172 991.447 Q335.973 991.447 333.519 992.211 Q331.089 992.975 328.311 994.526 L328.311 989.803 Q331.135 988.669 333.589 988.09 Q336.042 987.512 338.079 987.512 Q343.45 987.512 346.644 990.197 Q349.838 992.882 349.838 997.373 Q349.838 999.502 349.028 1001.42 Q348.241 1003.32 346.135 1005.91 Q345.556 1006.59 342.454 1009.8 Q339.352 1013 333.704 1018.76 Z" fill="#000000" fill-rule="nonzero" fill-opacity="1" /><path clip-path="url(#clip610)" d="M359.885 988.137 L378.241 988.137 L378.241 992.072 L364.167 992.072 L364.167 1000.54 Q365.186 1000.2 366.204 1000.03 Q367.223 999.85 368.241 999.85 Q374.028 999.85 377.408 1003.02 Q380.787 1006.19 380.787 1011.61 Q380.787 1017.19 377.315 1020.29 Q373.843 1023.37 367.524 1023.37 Q365.348 1023.37 363.079 1023 Q360.834 1022.63 358.426 1021.89 L358.426 1017.19 Q360.51 1018.32 362.732 1018.88 Q364.954 1019.43 367.431 1019.43 Q371.436 1019.43 373.774 1017.33 Q376.111 1015.22 376.111 1011.61 Q376.111 1008 373.774 1005.89 Q371.436 1003.78 367.431 1003.78 Q365.556 1003.78 363.681 1004.2 Q361.829 1004.62 359.885 1005.5 L359.885 988.137 Z" fill="#000000" fill-rule="nonzero" fill-opacity="1" /><path clip-path="url(#clip610)" d="M293.45 759.125 Q289.839 759.125 288.01 762.689 Q286.205 766.231 286.205 773.361 Q286.205 780.467 288.01 784.032 Q289.839 787.574 293.45 787.574 Q297.084 787.574 298.89 784.032 Q300.718 780.467 300.718 773.361 Q300.718 766.231 298.89 762.689 Q297.084 759.125 293.45 759.125 M293.45 755.421 Q299.26 755.421 302.316 760.027 Q305.394 764.611 305.394 773.361 Q305.394 782.088 302.316 786.694 Q299.26 791.277 293.45 791.277 Q287.64 791.277 284.561 786.694 Q281.506 782.088 281.506 773.361 Q281.506 764.611 284.561 760.027 Q287.64 755.421 293.45 755.421 Z" fill="#000000" fill-rule="nonzero" fill-opacity="1" /><path clip-path="url(#clip610)" d="M313.612 784.726 L318.496 784.726 L318.496 790.606 L313.612 790.606 L313.612 784.726 Z" fill="#000000" fill-rule="nonzero" fill-opacity="1" /><path clip-path="url(#clip610)" d="M328.727 756.046 L347.084 756.046 L347.084 759.981 L333.01 759.981 L333.01 768.453 Q334.028 768.106 335.047 767.944 Q336.065 767.759 337.084 767.759 Q342.871 767.759 346.251 770.93 Q349.63 774.101 349.63 779.518 Q349.63 785.097 346.158 788.199 Q342.686 791.277 336.366 791.277 Q334.19 791.277 331.922 790.907 Q329.677 790.537 327.269 789.796 L327.269 785.097 Q329.352 786.231 331.575 786.787 Q333.797 787.342 336.274 787.342 Q340.278 787.342 342.616 785.236 Q344.954 783.129 344.954 779.518 Q344.954 775.907 342.616 773.801 Q340.278 771.694 336.274 771.694 Q334.399 771.694 332.524 772.111 Q330.672 772.527 328.727 773.407 L328.727 756.046 Z" fill="#000000" fill-rule="nonzero" fill-opacity="1" /><path clip-path="url(#clip610)" d="M368.843 759.125 Q365.232 759.125 363.403 762.689 Q361.598 766.231 361.598 773.361 Q361.598 780.467 363.403 784.032 Q365.232 787.574 368.843 787.574 Q372.477 787.574 374.283 784.032 Q376.111 780.467 376.111 773.361 Q376.111 766.231 374.283 762.689 Q372.477 759.125 368.843 759.125 M368.843 755.421 Q374.653 755.421 377.709 760.027 Q380.787 764.611 380.787 773.361 Q380.787 782.088 377.709 786.694 Q374.653 791.277 368.843 791.277 Q363.033 791.277 359.954 786.694 Q356.899 782.088 356.899 773.361 Q356.899 764.611 359.954 760.027 Q363.033 755.421 368.843 755.421 Z" fill="#000000" fill-rule="nonzero" fill-opacity="1" /><path clip-path="url(#clip610)" d="M294.445 527.034 Q290.834 527.034 289.005 530.599 Q287.2 534.14 287.2 541.27 Q287.2 548.376 289.005 551.941 Q290.834 555.483 294.445 555.483 Q298.079 555.483 299.885 551.941 Q301.714 548.376 301.714 541.27 Q301.714 534.14 299.885 530.599 Q298.079 527.034 294.445 527.034 M294.445 523.33 Q300.255 523.33 303.311 527.937 Q306.39 532.52 306.39 541.27 Q306.39 549.997 303.311 554.603 Q300.255 559.187 294.445 559.187 Q288.635 559.187 285.556 554.603 Q282.501 549.997 282.501 541.27 Q282.501 532.52 285.556 527.937 Q288.635 523.33 294.445 523.33 Z" fill="#000000" fill-rule="nonzero" fill-opacity="1" /><path clip-path="url(#clip610)" d="M314.607 552.636 L319.491 552.636 L319.491 558.515 L314.607 558.515 L314.607 552.636 Z" fill="#000000" fill-rule="nonzero" fill-opacity="1" /><path clip-path="url(#clip610)" d="M328.496 523.955 L350.718 523.955 L350.718 525.946 L338.172 558.515 L333.288 558.515 L345.093 527.89 L328.496 527.89 L328.496 523.955 Z" fill="#000000" fill-rule="nonzero" fill-opacity="1" /><path clip-path="url(#clip610)" d="M359.885 523.955 L378.241 523.955 L378.241 527.89 L364.167 527.89 L364.167 536.363 Q365.186 536.015 366.204 535.853 Q367.223 535.668 368.241 535.668 Q374.028 535.668 377.408 538.84 Q380.787 542.011 380.787 547.427 Q380.787 553.006 377.315 556.108 Q373.843 559.187 367.524 559.187 Q365.348 559.187 363.079 558.816 Q360.834 558.446 358.426 557.705 L358.426 553.006 Q360.51 554.14 362.732 554.696 Q364.954 555.251 367.431 555.251 Q371.436 555.251 373.774 553.145 Q376.111 551.039 376.111 547.427 Q376.111 543.816 373.774 541.71 Q371.436 539.603 367.431 539.603 Q365.556 539.603 363.681 540.02 Q361.829 540.437 359.885 541.316 L359.885 523.955 Z" fill="#000000" fill-rule="nonzero" fill-opacity="1" /><path clip-path="url(#clip610)" d="M284.26 322.489 L291.899 322.489 L291.899 296.124 L283.589 297.791 L283.589 293.531 L291.853 291.865 L296.529 291.865 L296.529 322.489 L304.167 322.489 L304.167 326.425 L284.26 326.425 L284.26 322.489 Z" fill="#000000" fill-rule="nonzero" fill-opacity="1" /><path clip-path="url(#clip610)" d="M313.612 320.545 L318.496 320.545 L318.496 326.425 L313.612 326.425 L313.612 320.545 Z" fill="#000000" fill-rule="nonzero" fill-opacity="1" /><path clip-path="url(#clip610)" d="M338.681 294.943 Q335.07 294.943 333.241 298.508 Q331.436 302.05 331.436 309.179 Q331.436 316.286 333.241 319.851 Q335.07 323.392 338.681 323.392 Q342.315 323.392 344.121 319.851 Q345.95 316.286 345.95 309.179 Q345.95 302.05 344.121 298.508 Q342.315 294.943 338.681 294.943 M338.681 291.24 Q344.491 291.24 347.547 295.846 Q350.626 300.429 350.626 309.179 Q350.626 317.906 347.547 322.513 Q344.491 327.096 338.681 327.096 Q332.871 327.096 329.792 322.513 Q326.737 317.906 326.737 309.179 Q326.737 300.429 329.792 295.846 Q332.871 291.24 338.681 291.24 Z" fill="#000000" fill-rule="nonzero" fill-opacity="1" /><path clip-path="url(#clip610)" d="M368.843 294.943 Q365.232 294.943 363.403 298.508 Q361.598 302.05 361.598 309.179 Q361.598 316.286 363.403 319.851 Q365.232 323.392 368.843 323.392 Q372.477 323.392 374.283 319.851 Q376.111 316.286 376.111 309.179 Q376.111 302.05 374.283 298.508 Q372.477 294.943 368.843 294.943 M368.843 291.24 Q374.653 291.24 377.709 295.846 Q380.787 300.429 380.787 309.179 Q380.787 317.906 377.709 322.513 Q374.653 327.096 368.843 327.096 Q363.033 327.096 359.954 322.513 Q356.899 317.906 356.899 309.179 Q356.899 300.429 359.954 295.846 Q363.033 291.24 368.843 291.24 Z" fill="#000000" fill-rule="nonzero" fill-opacity="1" /><path clip-path="url(#clip610)" d="M234.56 771.639 Q240.925 774.122 242.867 776.477 Q244.808 778.832 244.808 782.779 L244.808 787.458 L239.907 787.458 L239.907 784.02 Q239.907 781.601 238.761 780.265 Q237.615 778.928 233.35 777.305 L230.677 776.254 L195.602 790.673 L195.602 784.466 L223.483 773.326 L195.602 762.186 L195.602 755.979 L234.56 771.639 Z" fill="#000000" fill-rule="nonzero" fill-opacity="1" /><path clip-path="url(#clip610)" d="M147.653 18.8205 L147.653 65.8515 L157.537 65.8515 Q170.055 65.8515 175.847 60.1802 Q181.681 54.509 181.681 42.2752 Q181.681 30.1225 175.847 24.4918 Q170.055 18.8205 157.537 18.8205 L147.653 18.8205 M139.47 12.096 L156.282 12.096 Q173.862 12.096 182.086 19.4281 Q190.309 26.7198 190.309 42.2752 Q190.309 57.9117 182.045 65.2439 Q173.781 72.576 156.282 72.576 L139.47 72.576 L139.47 12.096 Z" fill="#000000" fill-rule="nonzero" fill-opacity="1" /><path clip-path="url(#clip610)" d="M220.61 32.4315 Q214.615 32.4315 211.131 37.1306 Q207.647 41.7891 207.647 49.9314 Q207.647 58.0738 211.09 62.7728 Q214.574 67.4314 220.61 67.4314 Q226.565 67.4314 230.048 62.7323 Q233.532 58.0333 233.532 49.9314 Q233.532 41.8701 230.048 37.1711 Q226.565 32.4315 220.61 32.4315 M220.61 26.1121 Q230.332 26.1121 235.882 32.4315 Q241.432 38.7509 241.432 49.9314 Q241.432 61.0714 235.882 67.4314 Q230.332 73.7508 220.61 73.7508 Q210.847 73.7508 205.297 67.4314 Q199.788 61.0714 199.788 49.9314 Q199.788 38.7509 205.297 32.4315 Q210.847 26.1121 220.61 26.1121 Z" fill="#000000" fill-rule="nonzero" fill-opacity="1" /><path clip-path="url(#clip610)" d="M271.368 32.4315 Q265.372 32.4315 261.889 37.1306 Q258.405 41.7891 258.405 49.9314 Q258.405 58.0738 261.848 62.7728 Q265.332 67.4314 271.368 67.4314 Q277.323 67.4314 280.806 62.7323 Q284.29 58.0333 284.29 49.9314 Q284.29 41.8701 280.806 37.1711 Q277.323 32.4315 271.368 32.4315 M271.368 26.1121 Q281.09 26.1121 286.64 32.4315 Q292.189 38.7509 292.189 49.9314 Q292.189 61.0714 286.64 67.4314 Q281.09 73.7508 271.368 73.7508 Q261.605 73.7508 256.055 67.4314 Q250.546 61.0714 250.546 49.9314 Q250.546 38.7509 256.055 32.4315 Q261.605 26.1121 271.368 26.1121 Z" fill="#000000" fill-rule="nonzero" fill-opacity="1" /><path clip-path="url(#clip610)" d="M330.835 34.1734 Q329.579 33.4443 328.08 33.1202 Q326.622 32.7556 324.84 32.7556 Q318.52 32.7556 315.117 36.8875 Q311.755 40.9789 311.755 48.6757 L311.755 72.576 L304.261 72.576 L304.261 27.2059 L311.755 27.2059 L311.755 34.2544 Q314.105 30.1225 317.872 28.1376 Q321.639 26.1121 327.027 26.1121 Q327.797 26.1121 328.729 26.2337 Q329.66 26.3147 330.794 26.5172 L330.835 34.1734 Z" fill="#000000" fill-rule="nonzero" fill-opacity="1" /><path clip-path="url(#clip610)" d="M401.604 14.0809 L401.604 22.0612 Q396.946 19.8332 392.814 18.7395 Q388.682 17.6457 384.834 17.6457 Q378.15 17.6457 374.504 20.2383 Q370.898 22.8309 370.898 27.611 Q370.898 31.6214 373.288 33.6873 Q375.719 35.7128 382.444 36.9686 L387.386 37.9813 Q396.541 39.7232 400.875 44.1387 Q405.25 48.5136 405.25 55.8863 Q405.25 64.6767 399.336 69.2137 Q393.462 73.7508 382.079 73.7508 Q377.785 73.7508 372.924 72.7785 Q368.103 71.8063 362.918 69.9024 L362.918 61.4765 Q367.901 64.2716 372.681 65.6895 Q377.461 67.1073 382.079 67.1073 Q389.087 67.1073 392.895 64.3527 Q396.703 61.598 396.703 56.4939 Q396.703 52.0379 393.948 49.5264 Q391.234 47.0148 384.996 45.759 L380.013 44.7868 Q370.858 42.9639 366.767 39.075 Q362.675 35.1862 362.675 28.2591 Q362.675 20.2383 368.306 15.6203 Q373.977 11.0023 383.902 11.0023 Q388.155 11.0023 392.571 11.7719 Q396.986 12.5416 401.604 14.0809 Z" fill="#000000" fill-rule="nonzero" fill-opacity="1" /><path clip-path="url(#clip610)" d="M455.4 45.1919 L455.4 72.576 L447.947 72.576 L447.947 45.4349 Q447.947 38.994 445.435 35.7938 Q442.924 32.5936 437.9 32.5936 Q431.865 32.5936 428.381 36.4419 Q424.897 40.2903 424.897 46.9338 L424.897 72.576 L417.403 72.576 L417.403 27.2059 L424.897 27.2059 L424.897 34.2544 Q427.571 30.163 431.176 28.1376 Q434.822 26.1121 439.561 26.1121 Q447.38 26.1121 451.39 30.9732 Q455.4 35.7938 455.4 45.1919 Z" fill="#000000" fill-rule="nonzero" fill-opacity="1" /><path clip-path="url(#clip610)" d="M490.886 49.7694 Q481.853 49.7694 478.369 51.8354 Q474.885 53.9013 474.885 58.8839 Q474.885 62.8538 477.478 65.2034 Q480.111 67.5124 484.607 67.5124 Q490.805 67.5124 494.532 63.1374 Q498.299 58.7219 498.299 51.4303 L498.299 49.7694 L490.886 49.7694 M505.753 46.6907 L505.753 72.576 L498.299 72.576 L498.299 65.6895 Q495.747 69.8214 491.939 71.8063 Q488.132 73.7508 482.622 73.7508 Q475.655 73.7508 471.523 69.8619 Q467.431 65.9325 467.431 59.3701 Q467.431 51.7138 472.536 47.825 Q477.68 43.9361 487.848 43.9361 L498.299 43.9361 L498.299 43.2069 Q498.299 38.0623 494.897 35.2672 Q491.534 32.4315 485.417 32.4315 Q481.529 32.4315 477.842 33.3632 Q474.156 34.295 470.753 36.1584 L470.753 29.2718 Q474.845 27.692 478.693 26.9223 Q482.541 26.1121 486.187 26.1121 Q496.031 26.1121 500.892 31.2163 Q505.753 36.3204 505.753 46.6907 Z" fill="#000000" fill-rule="nonzero" fill-opacity="1" /><path clip-path="url(#clip610)" d="M528.317 65.7705 L528.317 89.8329 L520.822 89.8329 L520.822 27.2059 L528.317 27.2059 L528.317 34.0924 Q530.666 30.0415 534.231 28.0971 Q537.836 26.1121 542.819 26.1121 Q551.083 26.1121 556.227 32.6746 Q561.412 39.2371 561.412 49.9314 Q561.412 60.6258 556.227 67.1883 Q551.083 73.7508 542.819 73.7508 Q537.836 73.7508 534.231 71.8063 Q530.666 69.8214 528.317 65.7705 M553.675 49.9314 Q553.675 41.7081 550.272 37.0496 Q546.91 32.3505 540.996 32.3505 Q535.082 32.3505 531.679 37.0496 Q528.317 41.7081 528.317 49.9314 Q528.317 58.1548 531.679 62.8538 Q535.082 67.5124 540.996 67.5124 Q546.91 67.5124 550.272 62.8538 Q553.675 58.1548 553.675 49.9314 Z" fill="#000000" fill-rule="nonzero" fill-opacity="1" /><path clip-path="url(#clip610)" d="M602.691 28.5427 L602.691 35.5912 Q599.531 33.9709 596.129 33.1607 Q592.726 32.3505 589.08 32.3505 Q583.53 32.3505 580.735 34.0519 Q577.981 35.7533 577.981 39.156 Q577.981 41.7486 579.966 43.2475 Q581.951 44.7058 587.946 46.0426 L590.498 46.6097 Q598.438 48.3111 601.759 51.4303 Q605.122 54.509 605.122 60.0587 Q605.122 66.3781 600.099 70.0644 Q595.116 73.7508 586.366 73.7508 Q582.72 73.7508 578.75 73.0216 Q574.821 72.3329 570.446 70.9151 L570.446 63.2184 Q574.578 65.3654 578.588 66.4591 Q582.599 67.5124 586.528 67.5124 Q591.794 67.5124 594.63 65.73 Q597.466 63.9071 597.466 60.6258 Q597.466 57.5877 595.4 55.9673 Q593.374 54.3469 586.447 52.8481 L583.854 52.2405 Q576.927 50.7821 573.849 47.7845 Q570.77 44.7463 570.77 39.4801 Q570.77 33.0797 575.307 29.5959 Q579.844 26.1121 588.189 26.1121 Q592.321 26.1121 595.967 26.7198 Q599.612 27.3274 602.691 28.5427 Z" fill="#000000" fill-rule="nonzero" fill-opacity="1" /><path clip-path="url(#clip610)" d="M654.705 45.1919 L654.705 72.576 L647.251 72.576 L647.251 45.4349 Q647.251 38.994 644.74 35.7938 Q642.228 32.5936 637.205 32.5936 Q631.169 32.5936 627.685 36.4419 Q624.201 40.2903 624.201 46.9338 L624.201 72.576 L616.707 72.576 L616.707 9.54393 L624.201 9.54393 L624.201 34.2544 Q626.875 30.163 630.48 28.1376 Q634.126 26.1121 638.866 26.1121 Q646.684 26.1121 650.694 30.9732 Q654.705 35.7938 654.705 45.1919 Z" fill="#000000" fill-rule="nonzero" fill-opacity="1" /><path clip-path="url(#clip610)" d="M687.153 32.4315 Q681.157 32.4315 677.673 37.1306 Q674.19 41.7891 674.19 49.9314 Q674.19 58.0738 677.633 62.7728 Q681.117 67.4314 687.153 67.4314 Q693.107 67.4314 696.591 62.7323 Q700.075 58.0333 700.075 49.9314 Q700.075 41.8701 696.591 37.1711 Q693.107 32.4315 687.153 32.4315 M687.153 26.1121 Q696.875 26.1121 702.424 32.4315 Q707.974 38.7509 707.974 49.9314 Q707.974 61.0714 702.424 67.4314 Q696.875 73.7508 687.153 73.7508 Q677.39 73.7508 671.84 67.4314 Q666.331 61.0714 666.331 49.9314 Q666.331 38.7509 671.84 32.4315 Q677.39 26.1121 687.153 26.1121 Z" fill="#000000" fill-rule="nonzero" fill-opacity="1" /><path clip-path="url(#clip610)" d="M727.702 14.324 L727.702 27.2059 L743.055 27.2059 L743.055 32.9987 L727.702 32.9987 L727.702 57.6282 Q727.702 63.1779 729.201 64.7578 Q730.74 66.3376 735.399 66.3376 L743.055 66.3376 L743.055 72.576 L735.399 72.576 Q726.77 72.576 723.489 69.3758 Q720.208 66.1351 720.208 57.6282 L720.208 32.9987 L714.739 32.9987 L714.739 27.2059 L720.208 27.2059 L720.208 14.324 L727.702 14.324 Z" fill="#000000" fill-rule="nonzero" fill-opacity="1" /><path clip-path="url(#clip610)" d="M781.782 28.5427 L781.782 35.5912 Q778.622 33.9709 775.219 33.1607 Q771.816 32.3505 768.171 32.3505 Q762.621 32.3505 759.826 34.0519 Q757.071 35.7533 757.071 39.156 Q757.071 41.7486 759.056 43.2475 Q761.041 44.7058 767.036 46.0426 L769.588 46.6097 Q777.528 48.3111 780.85 51.4303 Q784.212 54.509 784.212 60.0587 Q784.212 66.3781 779.189 70.0644 Q774.206 73.7508 765.457 73.7508 Q761.811 73.7508 757.841 73.0216 Q753.911 72.3329 749.536 70.9151 L749.536 63.2184 Q753.668 65.3654 757.679 66.4591 Q761.689 67.5124 765.619 67.5124 Q770.885 67.5124 773.72 65.73 Q776.556 63.9071 776.556 60.6258 Q776.556 57.5877 774.49 55.9673 Q772.465 54.3469 765.538 52.8481 L762.945 52.2405 Q756.018 50.7821 752.939 47.7845 Q749.861 44.7463 749.861 39.4801 Q749.861 33.0797 754.398 29.5959 Q758.935 26.1121 767.279 26.1121 Q771.411 26.1121 775.057 26.7198 Q778.703 27.3274 781.782 28.5427 Z" fill="#000000" fill-rule="nonzero" fill-opacity="1" /><path clip-path="url(#clip610)" d="M797.985 62.2867 L806.533 62.2867 L806.533 72.576 L797.985 72.576 L797.985 62.2867 M797.985 29.6769 L806.533 29.6769 L806.533 39.9662 L797.985 39.9662 L797.985 29.6769 Z" fill="#000000" fill-rule="nonzero" fill-opacity="1" /><path clip-path="url(#clip610)" d="M858.911 18.8205 L858.911 41.5461 L869.2 41.5461 Q874.912 41.5461 878.031 38.5889 Q881.15 35.6318 881.15 30.163 Q881.15 24.7348 878.031 21.7777 Q874.912 18.8205 869.2 18.8205 L858.911 18.8205 M850.728 12.096 L869.2 12.096 Q879.368 12.096 884.553 16.714 Q889.779 21.2916 889.779 30.163 Q889.779 39.1155 884.553 43.6931 Q879.368 48.2706 869.2 48.2706 L858.911 48.2706 L858.911 72.576 L850.728 72.576 L850.728 12.096 Z" fill="#000000" fill-rule="nonzero" fill-opacity="1" /><path clip-path="url(#clip610)" d="M925.265 34.1734 Q924.009 33.4443 922.51 33.1202 Q921.052 32.7556 919.269 32.7556 Q912.95 32.7556 909.547 36.8875 Q906.185 40.9789 906.185 48.6757 L906.185 72.576 L898.691 72.576 L898.691 27.2059 L906.185 27.2059 L906.185 34.2544 Q908.534 30.1225 912.302 28.1376 Q916.069 26.1121 921.457 26.1121 Q922.226 26.1121 923.158 26.2337 Q924.09 26.3147 925.224 26.5172 L925.265 34.1734 Z" fill="#000000" fill-rule="nonzero" fill-opacity="1" /><path clip-path="url(#clip610)" d="M970.068 48.0275 L970.068 51.6733 L935.797 51.6733 Q936.283 59.3701 940.415 63.421 Q944.587 67.4314 952.001 67.4314 Q956.295 67.4314 960.305 66.3781 Q964.356 65.3249 968.326 63.2184 L968.326 70.267 Q964.315 71.9684 960.102 72.8596 Q955.89 73.7508 951.555 73.7508 Q940.699 73.7508 934.339 67.4314 Q928.019 61.1119 928.019 50.3365 Q928.019 39.1965 934.015 32.6746 Q940.05 26.1121 950.259 26.1121 Q959.414 26.1121 964.72 32.0264 Q970.068 37.9003 970.068 48.0275 M962.614 45.84 Q962.533 39.7232 959.171 36.0774 Q955.849 32.4315 950.34 32.4315 Q944.101 32.4315 940.334 35.9558 Q936.607 39.4801 936.04 45.8805 L962.614 45.84 Z" fill="#000000" fill-rule="nonzero" fill-opacity="1" /><path clip-path="url(#clip610)" d="M1011.22 28.5427 L1011.22 35.5912 Q1008.07 33.9709 1004.66 33.1607 Q1001.26 32.3505 997.614 32.3505 Q992.064 32.3505 989.269 34.0519 Q986.514 35.7533 986.514 39.156 Q986.514 41.7486 988.499 43.2475 Q990.484 44.7058 996.48 46.0426 L999.032 46.6097 Q1006.97 48.3111 1010.29 51.4303 Q1013.66 54.509 1013.66 60.0587 Q1013.66 66.3781 1008.63 70.0644 Q1003.65 73.7508 994.9 73.7508 Q991.254 73.7508 987.284 73.0216 Q983.355 72.3329 978.98 70.9151 L978.98 63.2184 Q983.112 65.3654 987.122 66.4591 Q991.132 67.5124 995.062 67.5124 Q1000.33 67.5124 1003.16 65.73 Q1006 63.9071 1006 60.6258 Q1006 57.5877 1003.93 55.9673 Q1001.91 54.3469 994.981 52.8481 L992.388 52.2405 Q985.461 50.7821 982.382 47.7845 Q979.304 44.7463 979.304 39.4801 Q979.304 33.0797 983.841 29.5959 Q988.378 26.1121 996.723 26.1121 Q1000.85 26.1121 1004.5 26.7198 Q1008.15 27.3274 1011.22 28.5427 Z" fill="#000000" fill-rule="nonzero" fill-opacity="1" /><path clip-path="url(#clip610)" d="M1058.17 28.9478 L1058.17 35.9153 Q1055.02 34.1734 1051.81 33.3227 Q1048.66 32.4315 1045.41 32.4315 Q1038.16 32.4315 1034.15 37.0496 Q1030.14 41.6271 1030.14 49.9314 Q1030.14 58.2358 1034.15 62.8538 Q1038.16 67.4314 1045.41 67.4314 Q1048.66 67.4314 1051.81 66.5807 Q1055.02 65.6895 1058.17 63.9476 L1058.17 70.8341 Q1055.06 72.2924 1051.69 73.0216 Q1048.37 73.7508 1044.6 73.7508 Q1034.36 73.7508 1028.32 67.3098 Q1022.28 60.8689 1022.28 49.9314 Q1022.28 38.832 1028.36 32.472 Q1034.48 26.1121 1045.09 26.1121 Q1048.53 26.1121 1051.81 26.8413 Q1055.1 27.5299 1058.17 28.9478 Z" fill="#000000" fill-rule="nonzero" fill-opacity="1" /><path clip-path="url(#clip610)" d="M1097.43 34.1734 Q1096.17 33.4443 1094.67 33.1202 Q1093.22 32.7556 1091.43 32.7556 Q1085.11 32.7556 1081.71 36.8875 Q1078.35 40.9789 1078.35 48.6757 L1078.35 72.576 L1070.85 72.576 L1070.85 27.2059 L1078.35 27.2059 L1078.35 34.2544 Q1080.7 30.1225 1084.47 28.1376 Q1088.23 26.1121 1093.62 26.1121 Q1094.39 26.1121 1095.32 26.2337 Q1096.25 26.3147 1097.39 26.5172 L1097.43 34.1734 Z" fill="#000000" fill-rule="nonzero" fill-opacity="1" /><path clip-path="url(#clip610)" d="M1105.25 27.2059 L1112.7 27.2059 L1112.7 72.576 L1105.25 72.576 L1105.25 27.2059 M1105.25 9.54393 L1112.7 9.54393 L1112.7 18.9825 L1105.25 18.9825 L1105.25 9.54393 Z" fill="#000000" fill-rule="nonzero" fill-opacity="1" /><path clip-path="url(#clip610)" d="M1160.87 49.9314 Q1160.87 41.7081 1157.46 37.0496 Q1154.1 32.3505 1148.19 32.3505 Q1142.27 32.3505 1138.87 37.0496 Q1135.51 41.7081 1135.51 49.9314 Q1135.51 58.1548 1138.87 62.8538 Q1142.27 67.5124 1148.19 67.5124 Q1154.1 67.5124 1157.46 62.8538 Q1160.87 58.1548 1160.87 49.9314 M1135.51 34.0924 Q1137.86 30.0415 1141.42 28.0971 Q1145.03 26.1121 1150.01 26.1121 Q1158.27 26.1121 1163.42 32.6746 Q1168.6 39.2371 1168.6 49.9314 Q1168.6 60.6258 1163.42 67.1883 Q1158.27 73.7508 1150.01 73.7508 Q1145.03 73.7508 1141.42 71.8063 Q1137.86 69.8214 1135.51 65.7705 L1135.51 72.576 L1128.01 72.576 L1128.01 9.54393 L1135.51 9.54393 L1135.51 34.0924 Z" fill="#000000" fill-rule="nonzero" fill-opacity="1" /><path clip-path="url(#clip610)" d="M1219.77 48.0275 L1219.77 51.6733 L1185.49 51.6733 Q1185.98 59.3701 1190.11 63.421 Q1194.29 67.4314 1201.7 67.4314 Q1205.99 67.4314 1210 66.3781 Q1214.05 65.3249 1218.02 63.2184 L1218.02 70.267 Q1214.01 71.9684 1209.8 72.8596 Q1205.59 73.7508 1201.25 73.7508 Q1190.4 73.7508 1184.04 67.4314 Q1177.72 61.1119 1177.72 50.3365 Q1177.72 39.1965 1183.71 32.6746 Q1189.75 26.1121 1199.96 26.1121 Q1209.11 26.1121 1214.42 32.0264 Q1219.77 37.9003 1219.77 48.0275 M1212.31 45.84 Q1212.23 39.7232 1208.87 36.0774 Q1205.55 32.4315 1200.04 32.4315 Q1193.8 32.4315 1190.03 35.9558 Q1186.3 39.4801 1185.74 45.8805 L1212.31 45.84 Z" fill="#000000" fill-rule="nonzero" fill-opacity="1" /><path clip-path="url(#clip610)" d="M1261.85 34.0924 L1261.85 9.54393 L1269.31 9.54393 L1269.31 72.576 L1261.85 72.576 L1261.85 65.7705 Q1259.5 69.8214 1255.9 71.8063 Q1252.33 73.7508 1247.31 73.7508 Q1239.09 73.7508 1233.9 67.1883 Q1228.76 60.6258 1228.76 49.9314 Q1228.76 39.2371 1233.9 32.6746 Q1239.09 26.1121 1247.31 26.1121 Q1252.33 26.1121 1255.9 28.0971 Q1259.5 30.0415 1261.85 34.0924 M1236.46 49.9314 Q1236.46 58.1548 1239.82 62.8538 Q1243.22 67.5124 1249.13 67.5124 Q1255.05 67.5124 1258.45 62.8538 Q1261.85 58.1548 1261.85 49.9314 Q1261.85 41.7081 1258.45 37.0496 Q1255.05 32.3505 1249.13 32.3505 Q1243.22 32.3505 1239.82 37.0496 Q1236.46 41.7081 1236.46 49.9314 Z" fill="#000000" fill-rule="nonzero" fill-opacity="1" /><path clip-path="url(#clip610)" d="M1331.57 20.1573 L1320.47 50.2555 L1342.71 50.2555 L1331.57 20.1573 M1326.95 12.096 L1336.23 12.096 L1359.28 72.576 L1350.77 72.576 L1345.26 57.061 L1318 57.061 L1312.49 72.576 L1303.86 72.576 L1326.95 12.096 Z" fill="#000000" fill-rule="nonzero" fill-opacity="1" /><path clip-path="url(#clip610)" d="M1405.5 45.1919 L1405.5 72.576 L1398.05 72.576 L1398.05 45.4349 Q1398.05 38.994 1395.53 35.7938 Q1393.02 32.5936 1388 32.5936 Q1381.96 32.5936 1378.48 36.4419 Q1375 40.2903 1375 46.9338 L1375 72.576 L1367.5 72.576 L1367.5 27.2059 L1375 27.2059 L1375 34.2544 Q1377.67 30.163 1381.27 28.1376 Q1384.92 26.1121 1389.66 26.1121 Q1397.48 26.1121 1401.49 30.9732 Q1405.5 35.7938 1405.5 45.1919 Z" fill="#000000" fill-rule="nonzero" fill-opacity="1" /><path clip-path="url(#clip610)" d="M1450.22 49.3643 Q1450.22 41.2625 1446.86 36.8065 Q1443.54 32.3505 1437.5 32.3505 Q1431.51 32.3505 1428.14 36.8065 Q1424.82 41.2625 1424.82 49.3643 Q1424.82 57.4256 1428.14 61.8816 Q1431.51 66.3376 1437.5 66.3376 Q1443.54 66.3376 1446.86 61.8816 Q1450.22 57.4256 1450.22 49.3643 M1457.68 66.9452 Q1457.68 78.5308 1452.53 84.1616 Q1447.39 89.8329 1436.77 89.8329 Q1432.84 89.8329 1429.36 89.2252 Q1425.88 88.6581 1422.59 87.4428 L1422.59 80.1917 Q1425.88 81.9741 1429.08 82.8248 Q1432.28 83.6755 1435.6 83.6755 Q1442.93 83.6755 1446.58 79.8271 Q1450.22 76.0193 1450.22 68.282 L1450.22 64.5957 Q1447.91 68.6061 1444.31 70.5911 Q1440.7 72.576 1435.68 72.576 Q1427.33 72.576 1422.23 66.2161 Q1417.13 59.8562 1417.13 49.3643 Q1417.13 38.832 1422.23 32.472 Q1427.33 26.1121 1435.68 26.1121 Q1440.7 26.1121 1444.31 28.0971 Q1447.91 30.082 1450.22 34.0924 L1450.22 27.2059 L1457.68 27.2059 L1457.68 66.9452 Z" fill="#000000" fill-rule="nonzero" fill-opacity="1" /><path clip-path="url(#clip610)" d="M1473.03 9.54393 L1480.48 9.54393 L1480.48 72.576 L1473.03 72.576 L1473.03 9.54393 Z" fill="#000000" fill-rule="nonzero" fill-opacity="1" /><path clip-path="url(#clip610)" d="M1534.89 48.0275 L1534.89 51.6733 L1500.61 51.6733 Q1501.1 59.3701 1505.23 63.421 Q1509.41 67.4314 1516.82 67.4314 Q1521.11 67.4314 1525.12 66.3781 Q1529.17 65.3249 1533.14 63.2184 L1533.14 70.267 Q1529.13 71.9684 1524.92 72.8596 Q1520.71 73.7508 1516.37 73.7508 Q1505.52 73.7508 1499.16 67.4314 Q1492.84 61.1119 1492.84 50.3365 Q1492.84 39.1965 1498.83 32.6746 Q1504.87 26.1121 1515.08 26.1121 Q1524.23 26.1121 1529.54 32.0264 Q1534.89 37.9003 1534.89 48.0275 M1527.43 45.84 Q1527.35 39.7232 1523.99 36.0774 Q1520.67 32.4315 1515.16 32.4315 Q1508.92 32.4315 1505.15 35.9558 Q1501.42 39.4801 1500.86 45.8805 L1527.43 45.84 Z" fill="#000000" fill-rule="nonzero" fill-opacity="1" /><path clip-path="url(#clip610)" d="M1619.1 16.7545 L1619.1 25.383 Q1614.97 21.5346 1610.27 19.6307 Q1605.61 17.7268 1600.35 17.7268 Q1589.98 17.7268 1584.47 24.0867 Q1578.96 30.4061 1578.96 42.3968 Q1578.96 54.3469 1584.47 60.7069 Q1589.98 67.0263 1600.35 67.0263 Q1605.61 67.0263 1610.27 65.1223 Q1614.97 63.2184 1619.1 59.3701 L1619.1 67.9175 Q1614.81 70.8341 1609.99 72.2924 Q1605.21 73.7508 1599.86 73.7508 Q1586.13 73.7508 1578.23 65.3654 Q1570.33 56.9395 1570.33 42.3968 Q1570.33 27.8135 1578.23 19.4281 Q1586.13 11.0023 1599.86 11.0023 Q1605.29 11.0023 1610.07 12.4606 Q1614.89 13.8784 1619.1 16.7545 Z" fill="#000000" fill-rule="nonzero" fill-opacity="1" /><path clip-path="url(#clip610)" d="M1649 32.4315 Q1643 32.4315 1639.52 37.1306 Q1636.04 41.7891 1636.04 49.9314 Q1636.04 58.0738 1639.48 62.7728 Q1642.96 67.4314 1649 67.4314 Q1654.95 67.4314 1658.44 62.7323 Q1661.92 58.0333 1661.92 49.9314 Q1661.92 41.8701 1658.44 37.1711 Q1654.95 32.4315 1649 32.4315 M1649 26.1121 Q1658.72 26.1121 1664.27 32.4315 Q1669.82 38.7509 1669.82 49.9314 Q1669.82 61.0714 1664.27 67.4314 Q1658.72 73.7508 1649 73.7508 Q1639.24 73.7508 1633.69 67.4314 Q1628.18 61.0714 1628.18 49.9314 Q1628.18 38.7509 1633.69 32.4315 Q1639.24 26.1121 1649 26.1121 Z" fill="#000000" fill-rule="nonzero" fill-opacity="1" /><path clip-path="url(#clip610)" d="M1719.89 45.1919 L1719.89 72.576 L1712.44 72.576 L1712.44 45.4349 Q1712.44 38.994 1709.92 35.7938 Q1707.41 32.5936 1702.39 32.5936 Q1696.35 32.5936 1692.87 36.4419 Q1689.39 40.2903 1689.39 46.9338 L1689.39 72.576 L1681.89 72.576 L1681.89 27.2059 L1689.39 27.2059 L1689.39 34.2544 Q1692.06 30.163 1695.67 28.1376 Q1699.31 26.1121 1704.05 26.1121 Q1711.87 26.1121 1715.88 30.9732 Q1719.89 35.7938 1719.89 45.1919 Z" fill="#000000" fill-rule="nonzero" fill-opacity="1" /><path clip-path="url(#clip610)" d="M1763.68 28.5427 L1763.68 35.5912 Q1760.52 33.9709 1757.12 33.1607 Q1753.72 32.3505 1750.07 32.3505 Q1744.52 32.3505 1741.72 34.0519 Q1738.97 35.7533 1738.97 39.156 Q1738.97 41.7486 1740.95 43.2475 Q1742.94 44.7058 1748.94 46.0426 L1751.49 46.6097 Q1759.43 48.3111 1762.75 51.4303 Q1766.11 54.509 1766.11 60.0587 Q1766.11 66.3781 1761.09 70.0644 Q1756.11 73.7508 1747.36 73.7508 Q1743.71 73.7508 1739.74 73.0216 Q1735.81 72.3329 1731.44 70.9151 L1731.44 63.2184 Q1735.57 65.3654 1739.58 66.4591 Q1743.59 67.5124 1747.52 67.5124 Q1752.78 67.5124 1755.62 65.73 Q1758.45 63.9071 1758.45 60.6258 Q1758.45 57.5877 1756.39 55.9673 Q1754.36 54.3469 1747.44 52.8481 L1744.84 52.2405 Q1737.92 50.7821 1734.84 47.7845 Q1731.76 44.7463 1731.76 39.4801 Q1731.76 33.0797 1736.3 29.5959 Q1740.83 26.1121 1749.18 26.1121 Q1753.31 26.1121 1756.96 26.7198 Q1760.6 27.3274 1763.68 28.5427 Z" fill="#000000" fill-rule="nonzero" fill-opacity="1" /><path clip-path="url(#clip610)" d="M1785.35 14.324 L1785.35 27.2059 L1800.71 27.2059 L1800.71 32.9987 L1785.35 32.9987 L1785.35 57.6282 Q1785.35 63.1779 1786.85 64.7578 Q1788.39 66.3376 1793.05 66.3376 L1800.71 66.3376 L1800.71 72.576 L1793.05 72.576 Q1784.42 72.576 1781.14 69.3758 Q1777.86 66.1351 1777.86 57.6282 L1777.86 32.9987 L1772.39 32.9987 L1772.39 27.2059 L1777.86 27.2059 L1777.86 14.324 L1785.35 14.324 Z" fill="#000000" fill-rule="nonzero" fill-opacity="1" /><path clip-path="url(#clip610)" d="M1836.8 34.1734 Q1835.54 33.4443 1834.04 33.1202 Q1832.59 32.7556 1830.8 32.7556 Q1824.48 32.7556 1821.08 36.8875 Q1817.72 40.9789 1817.72 48.6757 L1817.72 72.576 L1810.23 72.576 L1810.23 27.2059 L1817.72 27.2059 L1817.72 34.2544 Q1820.07 30.1225 1823.84 28.1376 Q1827.6 26.1121 1832.99 26.1121 Q1833.76 26.1121 1834.69 26.2337 Q1835.62 26.3147 1836.76 26.5172 L1836.8 34.1734 Z" fill="#000000" fill-rule="nonzero" fill-opacity="1" /><path clip-path="url(#clip610)" d="M1865.24 49.7694 Q1856.2 49.7694 1852.72 51.8354 Q1849.24 53.9013 1849.24 58.8839 Q1849.24 62.8538 1851.83 65.2034 Q1854.46 67.5124 1858.96 67.5124 Q1865.16 67.5124 1868.88 63.1374 Q1872.65 58.7219 1872.65 51.4303 L1872.65 49.7694 L1865.24 49.7694 M1880.1 46.6907 L1880.1 72.576 L1872.65 72.576 L1872.65 65.6895 Q1870.1 69.8214 1866.29 71.8063 Q1862.48 73.7508 1856.97 73.7508 Q1850.01 73.7508 1845.87 69.8619 Q1841.78 65.9325 1841.78 59.3701 Q1841.78 51.7138 1846.89 47.825 Q1852.03 43.9361 1862.2 43.9361 L1872.65 43.9361 L1872.65 43.2069 Q1872.65 38.0623 1869.25 35.2672 Q1865.88 32.4315 1859.77 32.4315 Q1855.88 32.4315 1852.19 33.3632 Q1848.51 34.295 1845.1 36.1584 L1845.1 29.2718 Q1849.19 27.692 1853.04 26.9223 Q1856.89 26.1121 1860.54 26.1121 Q1870.38 26.1121 1875.24 31.2163 Q1880.1 36.3204 1880.1 46.6907 Z" fill="#000000" fill-rule="nonzero" fill-opacity="1" /><path clip-path="url(#clip610)" d="M1895.46 27.2059 L1902.91 27.2059 L1902.91 72.576 L1895.46 72.576 L1895.46 27.2059 M1895.46 9.54393 L1902.91 9.54393 L1902.91 18.9825 L1895.46 18.9825 L1895.46 9.54393 Z" fill="#000000" fill-rule="nonzero" fill-opacity="1" /><path clip-path="url(#clip610)" d="M1956.22 45.1919 L1956.22 72.576 L1948.77 72.576 L1948.77 45.4349 Q1948.77 38.994 1946.25 35.7938 Q1943.74 32.5936 1938.72 32.5936 Q1932.68 32.5936 1929.2 36.4419 Q1925.72 40.2903 1925.72 46.9338 L1925.72 72.576 L1918.22 72.576 L1918.22 27.2059 L1925.72 27.2059 L1925.72 34.2544 Q1928.39 30.163 1932 28.1376 Q1935.64 26.1121 1940.38 26.1121 Q1948.2 26.1121 1952.21 30.9732 Q1956.22 35.7938 1956.22 45.1919 Z" fill="#000000" fill-rule="nonzero" fill-opacity="1" /><path clip-path="url(#clip610)" d="M1978.46 14.324 L1978.46 27.2059 L1993.81 27.2059 L1993.81 32.9987 L1978.46 32.9987 L1978.46 57.6282 Q1978.46 63.1779 1979.96 64.7578 Q1981.5 66.3376 1986.16 66.3376 L1993.81 66.3376 L1993.81 72.576 L1986.16 72.576 Q1977.53 72.576 1974.25 69.3758 Q1970.97 66.1351 1970.97 57.6282 L1970.97 32.9987 L1965.5 32.9987 L1965.5 27.2059 L1970.97 27.2059 L1970.97 14.324 L1978.46 14.324 Z" fill="#000000" fill-rule="nonzero" fill-opacity="1" /><circle clip-path="url(#clip612)" cx="602.46" cy="1237.51" r="21.6" fill="#009af9" fill-rule="evenodd" fill-opacity="1" stroke="#000000" stroke-opacity="1" stroke-width="3.2"/>
<polyline clip-path="url(#clip612)" style="stroke:#e26f46; stroke-linecap:round; stroke-linejoin:round; stroke-width:8; stroke-opacity:1; fill:none" points="602.46,1260.72 1530.82,1260.72 1530.82,1214.3 602.46,1214.3 602.46,1260.72 "/>
<circle clip-path="url(#clip612)" cx="1530.82" cy="1237.51" r="14.4" fill="#3da44d" fill-rule="evenodd" fill-opacity="1" stroke="#000000" stroke-opacity="1" stroke-width="3.2"/>
<polyline clip-path="url(#clip612)" style="stroke:#c271d2; stroke-linecap:round; stroke-linejoin:round; stroke-width:8; stroke-opacity:1; fill:none" points="607.483,1260.17 1513.84,1059.23 1503.79,1013.91 597.437,1214.85 607.483,1260.17 "/>
<circle clip-path="url(#clip612)" cx="1508.82" cy="1036.57" r="14.4" fill="#ac8d18" fill-rule="evenodd" fill-opacity="1" stroke="#000000" stroke-opacity="1" stroke-width="3.2"/>
<polyline clip-path="url(#clip612)" style="stroke:#00a9ad; stroke-linecap:round; stroke-linejoin:round; stroke-width:8; stroke-opacity:1; fill:none" points="617.378,1255.29 1328.55,658.546 1298.71,622.988 587.541,1219.73 617.378,1255.29 "/>
<circle clip-path="url(#clip612)" cx="1313.63" cy="640.767" r="14.4" fill="#ed5d92" fill-rule="evenodd" fill-opacity="1" stroke="#000000" stroke-opacity="1" stroke-width="3.2"/>
<polyline clip-path="url(#clip612)" style="stroke:#c68125; stroke-linecap:round; stroke-linejoin:round; stroke-width:8; stroke-opacity:1; fill:none" points="623.902,1246.39 979.171,388.694 936.287,370.93 581.018,1228.63 623.902,1246.39 "/>
<circle clip-path="url(#clip612)" cx="957.729" cy="379.812" r="14.4" fill="#00a98d" fill-rule="evenodd" fill-opacity="1" stroke="#000000" stroke-opacity="1" stroke-width="3.2"/>
<polyline clip-path="url(#clip612)" style="stroke:#8e971d; stroke-linecap:round; stroke-linejoin:round; stroke-width:8; stroke-opacity:1; fill:none" points="625.316,1241.54 786.525,327.279 740.812,319.218 579.603,1233.48 625.316,1241.54 "/>
<circle clip-path="url(#clip612)" cx="763.668" cy="323.249" r="14.4" fill="#00a8cb" fill-rule="evenodd" fill-opacity="1" stroke="#000000" stroke-opacity="1" stroke-width="3.2"/>
<path clip-path="url(#clip610)" d="M1786.6 972.17 L2185.51 972.17 L2185.51 609.29 L1786.6 609.29  Z" fill="#ffffff" fill-rule="evenodd" fill-opacity="1"/>
<polyline clip-path="url(#clip610)" style="stroke:#000000; stroke-linecap:round; stroke-linejoin:round; stroke-width:4; stroke-opacity:1; fill:none" points="1786.6,972.17 2185.51,972.17 2185.51,609.29 1786.6,609.29 1786.6,972.17 "/>
<circle clip-path="url(#clip610)" cx="1880.08" cy="661.13" r="21.2677" fill="#009af9" fill-rule="evenodd" fill-opacity="1" stroke="#000000" stroke-opacity="1" stroke-width="3.15077"/>
<path clip-path="url(#clip610)" d="M1995.27 662.762 L1995.27 678.41 L1991.01 678.41 L1991.01 662.9 Q1991.01 659.22 1989.57 657.391 Q1988.14 655.562 1985.27 655.562 Q1981.82 655.562 1979.83 657.762 Q1977.84 659.961 1977.84 663.757 L1977.84 678.41 L1973.55 678.41 L1973.55 642.391 L1977.84 642.391 L1977.84 656.512 Q1979.36 654.174 1981.42 653.016 Q1983.51 651.859 1986.22 651.859 Q1990.68 651.859 1992.98 654.637 Q1995.27 657.391 1995.27 662.762 Z" fill="#000000" fill-rule="nonzero" fill-opacity="1" /><path clip-path="url(#clip610)" d="M2003.76 652.484 L2008.02 652.484 L2008.02 678.41 L2003.76 678.41 L2003.76 652.484 M2003.76 642.391 L2008.02 642.391 L2008.02 647.785 L2003.76 647.785 L2003.76 642.391 Z" fill="#000000" fill-rule="nonzero" fill-opacity="1" /><path clip-path="url(#clip610)" d="M2038.48 662.762 L2038.48 678.41 L2034.23 678.41 L2034.23 662.9 Q2034.23 659.22 2032.79 657.391 Q2031.36 655.562 2028.48 655.562 Q2025.04 655.562 2023.05 657.762 Q2021.05 659.961 2021.05 663.757 L2021.05 678.41 L2016.77 678.41 L2016.77 652.484 L2021.05 652.484 L2021.05 656.512 Q2022.58 654.174 2024.64 653.016 Q2026.73 651.859 2029.43 651.859 Q2033.9 651.859 2036.19 654.637 Q2038.48 657.391 2038.48 662.762 Z" fill="#000000" fill-rule="nonzero" fill-opacity="1" /><path clip-path="url(#clip610)" d="M2064.04 665.146 Q2064.04 660.516 2062.12 657.97 Q2060.22 655.424 2056.77 655.424 Q2053.35 655.424 2051.42 657.97 Q2049.53 660.516 2049.53 665.146 Q2049.53 669.752 2051.42 672.298 Q2053.35 674.845 2056.77 674.845 Q2060.22 674.845 2062.12 672.298 Q2064.04 669.752 2064.04 665.146 M2068.3 675.192 Q2068.3 681.812 2065.36 685.03 Q2062.42 688.271 2056.36 688.271 Q2054.11 688.271 2052.12 687.923 Q2050.13 687.599 2048.25 686.905 L2048.25 682.761 Q2050.13 683.78 2051.96 684.266 Q2053.79 684.752 2055.68 684.752 Q2059.87 684.752 2061.96 682.553 Q2064.04 680.377 2064.04 675.956 L2064.04 673.849 Q2062.72 676.141 2060.66 677.275 Q2058.6 678.41 2055.73 678.41 Q2050.96 678.41 2048.04 674.775 Q2045.13 671.141 2045.13 665.146 Q2045.13 659.127 2048.04 655.493 Q2050.96 651.859 2055.73 651.859 Q2058.6 651.859 2060.66 652.993 Q2062.72 654.127 2064.04 656.419 L2064.04 652.484 L2068.3 652.484 L2068.3 675.192 Z" fill="#000000" fill-rule="nonzero" fill-opacity="1" /><path clip-path="url(#clip610)" d="M2099.25 664.382 L2099.25 666.465 L2079.67 666.465 Q2079.94 670.863 2082.3 673.178 Q2084.69 675.47 2088.92 675.47 Q2091.38 675.47 2093.67 674.868 Q2095.98 674.266 2098.25 673.062 L2098.25 677.09 Q2095.96 678.062 2093.55 678.572 Q2091.15 679.081 2088.67 679.081 Q2082.47 679.081 2078.83 675.47 Q2075.22 671.859 2075.22 665.701 Q2075.22 659.336 2078.65 655.609 Q2082.1 651.859 2087.93 651.859 Q2093.16 651.859 2096.19 655.238 Q2099.25 658.595 2099.25 664.382 M2094.99 663.132 Q2094.94 659.637 2093.02 657.553 Q2091.12 655.47 2087.98 655.47 Q2084.41 655.47 2082.26 657.484 Q2080.13 659.498 2079.8 663.155 L2094.99 663.132 Z" fill="#000000" fill-rule="nonzero" fill-opacity="1" /><polyline clip-path="url(#clip610)" style="stroke:#e26f46; stroke-linecap:round; stroke-linejoin:round; stroke-width:8; stroke-opacity:1; fill:none" points="1809.97,712.97 1950.19,712.97 "/>
<path clip-path="url(#clip610)" d="M1980.96 696.963 L1980.96 704.324 L1989.74 704.324 L1989.74 707.634 L1980.96 707.634 L1980.96 721.708 Q1980.96 724.879 1981.82 725.782 Q1982.7 726.685 1985.36 726.685 L1989.74 726.685 L1989.74 730.25 L1985.36 730.25 Q1980.43 730.25 1978.55 728.421 Q1976.68 726.569 1976.68 721.708 L1976.68 707.634 L1973.55 707.634 L1973.55 704.324 L1976.68 704.324 L1976.68 696.963 L1980.96 696.963 Z" fill="#000000" fill-rule="nonzero" fill-opacity="1" /><path clip-path="url(#clip610)" d="M2010.96 708.722 L2040.64 708.722 L2040.64 712.611 L2010.96 712.611 L2010.96 708.722 M2010.96 718.166 L2040.64 718.166 L2040.64 722.101 L2010.96 722.101 L2010.96 718.166 Z" fill="#000000" fill-rule="nonzero" fill-opacity="1" /><path clip-path="url(#clip610)" d="M2075.8 698.768 Q2072.19 698.768 2070.36 702.333 Q2068.55 705.875 2068.55 713.004 Q2068.55 720.111 2070.36 723.676 Q2072.19 727.217 2075.8 727.217 Q2079.43 727.217 2081.24 723.676 Q2083.07 720.111 2083.07 713.004 Q2083.07 705.875 2081.24 702.333 Q2079.43 698.768 2075.8 698.768 M2075.8 695.065 Q2081.61 695.065 2084.67 699.671 Q2087.74 704.254 2087.74 713.004 Q2087.74 721.731 2084.67 726.338 Q2081.61 730.921 2075.8 730.921 Q2069.99 730.921 2066.91 726.338 Q2063.86 721.731 2063.86 713.004 Q2063.86 704.254 2066.91 699.671 Q2069.99 695.065 2075.8 695.065 Z" fill="#000000" fill-rule="nonzero" fill-opacity="1" /><path clip-path="url(#clip610)" d="M2095.96 724.37 L2100.85 724.37 L2100.85 730.25 L2095.96 730.25 L2095.96 724.37 Z" fill="#000000" fill-rule="nonzero" fill-opacity="1" /><path clip-path="url(#clip610)" d="M2121.03 698.768 Q2117.42 698.768 2115.59 702.333 Q2113.79 705.875 2113.79 713.004 Q2113.79 720.111 2115.59 723.676 Q2117.42 727.217 2121.03 727.217 Q2124.66 727.217 2126.47 723.676 Q2128.3 720.111 2128.3 713.004 Q2128.3 705.875 2126.47 702.333 Q2124.66 698.768 2121.03 698.768 M2121.03 695.065 Q2126.84 695.065 2129.9 699.671 Q2132.98 704.254 2132.98 713.004 Q2132.98 721.731 2129.9 726.338 Q2126.84 730.921 2121.03 730.921 Q2115.22 730.921 2112.14 726.338 Q2109.09 721.731 2109.09 713.004 Q2109.09 704.254 2112.14 699.671 Q2115.22 695.065 2121.03 695.065 Z" fill="#000000" fill-rule="nonzero" fill-opacity="1" /><polyline clip-path="url(#clip610)" style="stroke:#c271d2; stroke-linecap:round; stroke-linejoin:round; stroke-width:8; stroke-opacity:1; fill:none" points="1809.97,764.81 1950.19,764.81 "/>
<path clip-path="url(#clip610)" d="M1980.96 748.803 L1980.96 756.164 L1989.74 756.164 L1989.74 759.474 L1980.96 759.474 L1980.96 773.548 Q1980.96 776.719 1981.82 777.622 Q1982.7 778.525 1985.36 778.525 L1989.74 778.525 L1989.74 782.09 L1985.36 782.09 Q1980.43 782.09 1978.55 780.261 Q1976.68 778.409 1976.68 773.548 L1976.68 759.474 L1973.55 759.474 L1973.55 756.164 L1976.68 756.164 L1976.68 748.803 L1980.96 748.803 Z" fill="#000000" fill-rule="nonzero" fill-opacity="1" /><path clip-path="url(#clip610)" d="M2010.96 760.562 L2040.64 760.562 L2040.64 764.451 L2010.96 764.451 L2010.96 760.562 M2010.96 770.006 L2040.64 770.006 L2040.64 773.941 L2010.96 773.941 L2010.96 770.006 Z" fill="#000000" fill-rule="nonzero" fill-opacity="1" /><path clip-path="url(#clip610)" d="M2075.8 750.608 Q2072.19 750.608 2070.36 754.173 Q2068.55 757.715 2068.55 764.844 Q2068.55 771.951 2070.36 775.516 Q2072.19 779.057 2075.8 779.057 Q2079.43 779.057 2081.24 775.516 Q2083.07 771.951 2083.07 764.844 Q2083.07 757.715 2081.24 754.173 Q2079.43 750.608 2075.8 750.608 M2075.8 746.905 Q2081.61 746.905 2084.67 751.511 Q2087.74 756.094 2087.74 764.844 Q2087.74 773.571 2084.67 778.178 Q2081.61 782.761 2075.8 782.761 Q2069.99 782.761 2066.91 778.178 Q2063.86 773.571 2063.86 764.844 Q2063.86 756.094 2066.91 751.511 Q2069.99 746.905 2075.8 746.905 Z" fill="#000000" fill-rule="nonzero" fill-opacity="1" /><path clip-path="url(#clip610)" d="M2095.96 776.21 L2100.85 776.21 L2100.85 782.09 L2095.96 782.09 L2095.96 776.21 Z" fill="#000000" fill-rule="nonzero" fill-opacity="1" /><path clip-path="url(#clip610)" d="M2115.06 778.154 L2131.38 778.154 L2131.38 782.09 L2109.43 782.09 L2109.43 778.154 Q2112.1 775.4 2116.68 770.77 Q2121.29 766.117 2122.47 764.775 Q2124.71 762.252 2125.59 760.516 Q2126.49 758.756 2126.49 757.067 Q2126.49 754.312 2124.55 752.576 Q2122.63 750.84 2119.53 750.84 Q2117.33 750.84 2114.87 751.604 Q2112.44 752.368 2109.66 753.918 L2109.66 749.196 Q2112.49 748.062 2114.94 747.483 Q2117.4 746.905 2119.43 746.905 Q2124.8 746.905 2128 749.59 Q2131.19 752.275 2131.19 756.766 Q2131.19 758.895 2130.38 760.817 Q2129.6 762.715 2127.49 765.307 Q2126.91 765.979 2123.81 769.196 Q2120.71 772.391 2115.06 778.154 Z" fill="#000000" fill-rule="nonzero" fill-opacity="1" /><path clip-path="url(#clip610)" d="M2141.24 747.53 L2159.6 747.53 L2159.6 751.465 L2145.52 751.465 L2145.52 759.937 Q2146.54 759.59 2147.56 759.428 Q2148.58 759.242 2149.6 759.242 Q2155.38 759.242 2158.76 762.414 Q2162.14 765.585 2162.14 771.002 Q2162.14 776.58 2158.67 779.682 Q2155.2 782.761 2148.88 782.761 Q2146.7 782.761 2144.43 782.39 Q2142.19 782.02 2139.78 781.279 L2139.78 776.58 Q2141.86 777.715 2144.09 778.27 Q2146.31 778.826 2148.79 778.826 Q2152.79 778.826 2155.13 776.719 Q2157.47 774.613 2157.47 771.002 Q2157.47 767.391 2155.13 765.284 Q2152.79 763.178 2148.79 763.178 Q2146.91 763.178 2145.04 763.594 Q2143.18 764.011 2141.24 764.891 L2141.24 747.53 Z" fill="#000000" fill-rule="nonzero" fill-opacity="1" /><polyline clip-path="url(#clip610)" style="stroke:#00a9ad; stroke-linecap:round; stroke-linejoin:round; stroke-width:8; stroke-opacity:1; fill:none" points="1809.97,816.65 1950.19,816.65 "/>
<path clip-path="url(#clip610)" d="M1980.96 800.643 L1980.96 808.004 L1989.74 808.004 L1989.74 811.314 L1980.96 811.314 L1980.96 825.388 Q1980.96 828.559 1981.82 829.462 Q1982.7 830.365 1985.36 830.365 L1989.74 830.365 L1989.74 833.93 L1985.36 833.93 Q1980.43 833.93 1978.55 832.101 Q1976.68 830.249 1976.68 825.388 L1976.68 811.314 L1973.55 811.314 L1973.55 808.004 L1976.68 808.004 L1976.68 800.643 L1980.96 800.643 Z" fill="#000000" fill-rule="nonzero" fill-opacity="1" /><path clip-path="url(#clip610)" d="M2010.96 812.402 L2040.64 812.402 L2040.64 816.291 L2010.96 816.291 L2010.96 812.402 M2010.96 821.846 L2040.64 821.846 L2040.64 825.781 L2010.96 825.781 L2010.96 821.846 Z" fill="#000000" fill-rule="nonzero" fill-opacity="1" /><path clip-path="url(#clip610)" d="M2075.8 802.448 Q2072.19 802.448 2070.36 806.013 Q2068.55 809.555 2068.55 816.684 Q2068.55 823.791 2070.36 827.356 Q2072.19 830.897 2075.8 830.897 Q2079.43 830.897 2081.24 827.356 Q2083.07 823.791 2083.07 816.684 Q2083.07 809.555 2081.24 806.013 Q2079.43 802.448 2075.8 802.448 M2075.8 798.745 Q2081.61 798.745 2084.67 803.351 Q2087.74 807.934 2087.74 816.684 Q2087.74 825.411 2084.67 830.018 Q2081.61 834.601 2075.8 834.601 Q2069.99 834.601 2066.91 830.018 Q2063.86 825.411 2063.86 816.684 Q2063.86 807.934 2066.91 803.351 Q2069.99 798.745 2075.8 798.745 Z" fill="#000000" fill-rule="nonzero" fill-opacity="1" /><path clip-path="url(#clip610)" d="M2095.96 828.05 L2100.85 828.05 L2100.85 833.93 L2095.96 833.93 L2095.96 828.05 Z" fill="#000000" fill-rule="nonzero" fill-opacity="1" /><path clip-path="url(#clip610)" d="M2111.08 799.37 L2129.43 799.37 L2129.43 803.305 L2115.36 803.305 L2115.36 811.777 Q2116.38 811.43 2117.4 811.268 Q2118.41 811.082 2119.43 811.082 Q2125.22 811.082 2128.6 814.254 Q2131.98 817.425 2131.98 822.842 Q2131.98 828.42 2128.51 831.522 Q2125.04 834.601 2118.72 834.601 Q2116.54 834.601 2114.27 834.23 Q2112.03 833.86 2109.62 833.119 L2109.62 828.42 Q2111.7 829.555 2113.92 830.11 Q2116.15 830.666 2118.62 830.666 Q2122.63 830.666 2124.97 828.559 Q2127.3 826.453 2127.3 822.842 Q2127.3 819.231 2124.97 817.124 Q2122.63 815.018 2118.62 815.018 Q2116.75 815.018 2114.87 815.434 Q2113.02 815.851 2111.08 816.731 L2111.08 799.37 Z" fill="#000000" fill-rule="nonzero" fill-opacity="1" /><polyline clip-path="url(#clip610)" style="stroke:#c68125; stroke-linecap:round; stroke-linejoin:round; stroke-width:8; stroke-opacity:1; fill:none" points="1809.97,868.49 1950.19,868.49 "/>
<path clip-path="url(#clip610)" d="M1980.96 852.483 L1980.96 859.844 L1989.74 859.844 L1989.74 863.154 L1980.96 863.154 L1980.96 877.228 Q1980.96 880.399 1981.82 881.302 Q1982.7 882.205 1985.36 882.205 L1989.74 882.205 L1989.74 885.77 L1985.36 885.77 Q1980.43 885.77 1978.55 883.941 Q1976.68 882.089 1976.68 877.228 L1976.68 863.154 L1973.55 863.154 L1973.55 859.844 L1976.68 859.844 L1976.68 852.483 L1980.96 852.483 Z" fill="#000000" fill-rule="nonzero" fill-opacity="1" /><path clip-path="url(#clip610)" d="M2010.96 864.242 L2040.64 864.242 L2040.64 868.131 L2010.96 868.131 L2010.96 864.242 M2010.96 873.686 L2040.64 873.686 L2040.64 877.621 L2010.96 877.621 L2010.96 873.686 Z" fill="#000000" fill-rule="nonzero" fill-opacity="1" /><path clip-path="url(#clip610)" d="M2075.8 854.288 Q2072.19 854.288 2070.36 857.853 Q2068.55 861.395 2068.55 868.524 Q2068.55 875.631 2070.36 879.196 Q2072.19 882.737 2075.8 882.737 Q2079.43 882.737 2081.24 879.196 Q2083.07 875.631 2083.07 868.524 Q2083.07 861.395 2081.24 857.853 Q2079.43 854.288 2075.8 854.288 M2075.8 850.585 Q2081.61 850.585 2084.67 855.191 Q2087.74 859.774 2087.74 868.524 Q2087.74 877.251 2084.67 881.858 Q2081.61 886.441 2075.8 886.441 Q2069.99 886.441 2066.91 881.858 Q2063.86 877.251 2063.86 868.524 Q2063.86 859.774 2066.91 855.191 Q2069.99 850.585 2075.8 850.585 Z" fill="#000000" fill-rule="nonzero" fill-opacity="1" /><path clip-path="url(#clip610)" d="M2095.96 879.89 L2100.85 879.89 L2100.85 885.77 L2095.96 885.77 L2095.96 879.89 Z" fill="#000000" fill-rule="nonzero" fill-opacity="1" /><path clip-path="url(#clip610)" d="M2109.85 851.21 L2132.07 851.21 L2132.07 853.2 L2119.53 885.77 L2114.64 885.77 L2126.45 855.145 L2109.85 855.145 L2109.85 851.21 Z" fill="#000000" fill-rule="nonzero" fill-opacity="1" /><path clip-path="url(#clip610)" d="M2141.24 851.21 L2159.6 851.21 L2159.6 855.145 L2145.52 855.145 L2145.52 863.617 Q2146.54 863.27 2147.56 863.108 Q2148.58 862.922 2149.6 862.922 Q2155.38 862.922 2158.76 866.094 Q2162.14 869.265 2162.14 874.682 Q2162.14 880.26 2158.67 883.362 Q2155.2 886.441 2148.88 886.441 Q2146.7 886.441 2144.43 886.07 Q2142.19 885.7 2139.78 884.959 L2139.78 880.26 Q2141.86 881.395 2144.09 881.95 Q2146.31 882.506 2148.79 882.506 Q2152.79 882.506 2155.13 880.399 Q2157.47 878.293 2157.47 874.682 Q2157.47 871.071 2155.13 868.964 Q2152.79 866.858 2148.79 866.858 Q2146.91 866.858 2145.04 867.274 Q2143.18 867.691 2141.24 868.571 L2141.24 851.21 Z" fill="#000000" fill-rule="nonzero" fill-opacity="1" /><polyline clip-path="url(#clip610)" style="stroke:#8e971d; stroke-linecap:round; stroke-linejoin:round; stroke-width:8; stroke-opacity:1; fill:none" points="1809.97,920.33 1950.19,920.33 "/>
<path clip-path="url(#clip610)" d="M1980.96 904.323 L1980.96 911.684 L1989.74 911.684 L1989.74 914.994 L1980.96 914.994 L1980.96 929.068 Q1980.96 932.239 1981.82 933.142 Q1982.7 934.045 1985.36 934.045 L1989.74 934.045 L1989.74 937.61 L1985.36 937.61 Q1980.43 937.61 1978.55 935.781 Q1976.68 933.929 1976.68 929.068 L1976.68 914.994 L1973.55 914.994 L1973.55 911.684 L1976.68 911.684 L1976.68 904.323 L1980.96 904.323 Z" fill="#000000" fill-rule="nonzero" fill-opacity="1" /><path clip-path="url(#clip610)" d="M2010.96 916.082 L2040.64 916.082 L2040.64 919.971 L2010.96 919.971 L2010.96 916.082 M2010.96 925.526 L2040.64 925.526 L2040.64 929.461 L2010.96 929.461 L2010.96 925.526 Z" fill="#000000" fill-rule="nonzero" fill-opacity="1" /><path clip-path="url(#clip610)" d="M2066.61 933.674 L2074.25 933.674 L2074.25 907.309 L2065.94 908.975 L2065.94 904.716 L2074.2 903.05 L2078.88 903.05 L2078.88 933.674 L2086.52 933.674 L2086.52 937.61 L2066.61 937.61 L2066.61 933.674 Z" fill="#000000" fill-rule="nonzero" fill-opacity="1" /><path clip-path="url(#clip610)" d="M2095.96 931.73 L2100.85 931.73 L2100.85 937.61 L2095.96 937.61 L2095.96 931.73 Z" fill="#000000" fill-rule="nonzero" fill-opacity="1" /><path clip-path="url(#clip610)" d="M2121.03 906.128 Q2117.42 906.128 2115.59 909.693 Q2113.79 913.235 2113.79 920.364 Q2113.79 927.471 2115.59 931.036 Q2117.42 934.577 2121.03 934.577 Q2124.66 934.577 2126.47 931.036 Q2128.3 927.471 2128.3 920.364 Q2128.3 913.235 2126.47 909.693 Q2124.66 906.128 2121.03 906.128 M2121.03 902.425 Q2126.84 902.425 2129.9 907.031 Q2132.98 911.614 2132.98 920.364 Q2132.98 929.091 2129.9 933.698 Q2126.84 938.281 2121.03 938.281 Q2115.22 938.281 2112.14 933.698 Q2109.09 929.091 2109.09 920.364 Q2109.09 911.614 2112.14 907.031 Q2115.22 902.425 2121.03 902.425 Z" fill="#000000" fill-rule="nonzero" fill-opacity="1" /></svg>
