<?xml version="1.0" encoding="utf-8"?>
<svg xmlns="http://www.w3.org/2000/svg" xmlns:xlink="http://www.w3.org/1999/xlink" width="600" height="400" viewBox="0 0 2400 1600">
<defs>
  <clipPath id="clip410">
    <rect x="0" y="0" width="2400" height="1600"/>
  </clipPath>
</defs>
<path clip-path="url(#clip410)" d="M0 1600 L2400 1600 L2400 0 L0 0  Z" fill="#ffffff" fill-rule="evenodd" fill-opacity="1"/>
<defs>
  <clipPath id="clip411">
    <rect x="205" y="123" width="2149" height="1301"/>
  </clipPath>
</defs>
<path clip-path="url(#clip410)" d="M219.866 1423.18 L2352.76 1423.18 L2352.76 123.472 L219.866 123.472  Z" fill="#ffffff" fill-rule="evenodd" fill-opacity="1"/>
<defs>
  <clipPath id="clip412">
    <rect x="219" y="123" width="2134" height="1301"/>
  </clipPath>
</defs>
<polyline clip-path="url(#clip412)" style="stroke:#000000; stroke-linecap:round; stroke-linejoin:round; stroke-width:2; stroke-opacity:0.1; fill:none" points="555.683,1423.18 555.683,123.472 "/>
<polyline clip-path="url(#clip412)" style="stroke:#000000; stroke-linecap:round; stroke-linejoin:round; stroke-width:2; stroke-opacity:0.1; fill:none" points="1053.7,1423.18 1053.7,123.472 "/>
<polyline clip-path="url(#clip412)" style="stroke:#000000; stroke-linecap:round; stroke-linejoin:round; stroke-width:2; stroke-opacity:0.1; fill:none" points="1551.73,1423.18 1551.73,123.472 "/>
<polyline clip-path="url(#clip412)" style="stroke:#000000; stroke-linecap:round; stroke-linejoin:round; stroke-width:2; stroke-opacity:0.1; fill:none" points="2049.75,1423.18 2049.75,123.472 "/>
<polyline clip-path="url(#clip412)" style="stroke:#000000; stroke-linecap:round; stroke-linejoin:round; stroke-width:2; stroke-opacity:0.1; fill:none" points="219.866,1386.4 2352.76,1386.4 "/>
<polyline clip-path="url(#clip412)" style="stroke:#000000; stroke-linecap:round; stroke-linejoin:round; stroke-width:2; stroke-opacity:0.1; fill:none" points="219.866,1137.38 2352.76,1137.38 "/>
<polyline clip-path="url(#clip412)" style="stroke:#000000; stroke-linecap:round; stroke-linejoin:round; stroke-width:2; stroke-opacity:0.1; fill:none" points="219.866,888.374 2352.76,888.374 "/>
<polyline clip-path="url(#clip412)" style="stroke:#000000; stroke-linecap:round; stroke-linejoin:round; stroke-width:2; stroke-opacity:0.1; fill:none" points="219.866,639.363 2352.76,639.363 "/>
<polyline clip-path="url(#clip412)" style="stroke:#000000; stroke-linecap:round; stroke-linejoin:round; stroke-width:2; stroke-opacity:0.1; fill:none" points="219.866,390.352 2352.76,390.352 "/>
<polyline clip-path="url(#clip412)" style="stroke:#000000; stroke-linecap:round; stroke-linejoin:round; stroke-width:2; stroke-opacity:0.1; fill:none" points="219.866,141.341 2352.76,141.341 "/>
<polyline clip-path="url(#clip410)" style="stroke:#000000; stroke-linecap:round; stroke-linejoin:round; stroke-width:4; stroke-opacity:1; fill:none" points="219.866,1423.18 2352.76,1423.18 "/>
<polyline clip-path="url(#clip410)" style="stroke:#000000; stroke-linecap:round; stroke-linejoin:round; stroke-width:4; stroke-opacity:1; fill:none" points="555.683,1423.18 555.683,1404.28 "/>
<polyline clip-path="url(#clip410)" style="stroke:#000000; stroke-linecap:round; stroke-linejoin:round; stroke-width:4; stroke-opacity:1; fill:none" points="1053.7,1423.18 1053.7,1404.28 "/>
<polyline clip-path="url(#clip410)" style="stroke:#000000; stroke-linecap:round; stroke-linejoin:round; stroke-width:4; stroke-opacity:1; fill:none" points="1551.73,1423.18 1551.73,1404.28 "/>
<polyline clip-path="url(#clip410)" style="stroke:#000000; stroke-linecap:round; stroke-linejoin:round; stroke-width:4; stroke-opacity:1; fill:none" points="2049.75,1423.18 2049.75,1404.28 "/>
<path clip-path="url(#clip410)" d="M533.067 1454.1 Q529.456 1454.1 527.628 1457.66 Q525.822 1461.2 525.822 1468.33 Q525.822 1475.44 527.628 1479.01 Q529.456 1482.55 533.067 1482.55 Q536.702 1482.55 538.507 1479.01 Q540.336 1475.44 540.336 1468.33 Q540.336 1461.2 538.507 1457.66 Q536.702 1454.1 533.067 1454.1 M533.067 1450.39 Q538.878 1450.39 541.933 1455 Q545.012 1459.58 545.012 1468.33 Q545.012 1477.06 541.933 1481.67 Q538.878 1486.25 533.067 1486.25 Q527.257 1486.25 524.179 1481.67 Q521.123 1477.06 521.123 1468.33 Q521.123 1459.58 524.179 1455 Q527.257 1450.39 533.067 1450.39 Z" fill="#000000" fill-rule="nonzero" fill-opacity="1" /><path clip-path="url(#clip410)" d="M553.229 1479.7 L558.114 1479.7 L558.114 1485.58 L553.229 1485.58 L553.229 1479.7 Z" fill="#000000" fill-rule="nonzero" fill-opacity="1" /><path clip-path="url(#clip410)" d="M578.299 1454.1 Q574.688 1454.1 572.859 1457.66 Q571.053 1461.2 571.053 1468.33 Q571.053 1475.44 572.859 1479.01 Q574.688 1482.55 578.299 1482.55 Q581.933 1482.55 583.739 1479.01 Q585.567 1475.44 585.567 1468.33 Q585.567 1461.2 583.739 1457.66 Q581.933 1454.1 578.299 1454.1 M578.299 1450.39 Q584.109 1450.39 587.164 1455 Q590.243 1459.58 590.243 1468.33 Q590.243 1477.06 587.164 1481.67 Q584.109 1486.25 578.299 1486.25 Q572.489 1486.25 569.41 1481.67 Q566.354 1477.06 566.354 1468.33 Q566.354 1459.58 569.41 1455 Q572.489 1450.39 578.299 1450.39 Z" fill="#000000" fill-rule="nonzero" fill-opacity="1" /><path clip-path="url(#clip410)" d="M1031.89 1454.1 Q1028.28 1454.1 1026.45 1457.66 Q1024.64 1461.2 1024.64 1468.33 Q1024.64 1475.44 1026.45 1479.01 Q1028.28 1482.55 1031.89 1482.55 Q1035.52 1482.55 1037.33 1479.01 Q1039.16 1475.44 1039.16 1468.33 Q1039.16 1461.2 1037.33 1457.66 Q1035.52 1454.1 1031.89 1454.1 M1031.89 1450.39 Q1037.7 1450.39 1040.75 1455 Q1043.83 1459.58 1043.83 1468.33 Q1043.83 1477.06 1040.75 1481.67 Q1037.7 1486.25 1031.89 1486.25 Q1026.08 1486.25 1023 1481.67 Q1019.94 1477.06 1019.94 1468.33 Q1019.94 1459.58 1023 1455 Q1026.08 1450.39 1031.89 1450.39 Z" fill="#000000" fill-rule="nonzero" fill-opacity="1" /><path clip-path="url(#clip410)" d="M1052.05 1479.7 L1056.93 1479.7 L1056.93 1485.58 L1052.05 1485.58 L1052.05 1479.7 Z" fill="#000000" fill-rule="nonzero" fill-opacity="1" /><path clip-path="url(#clip410)" d="M1071.15 1481.64 L1087.47 1481.64 L1087.47 1485.58 L1065.52 1485.58 L1065.52 1481.64 Q1068.18 1478.89 1072.77 1474.26 Q1077.37 1469.61 1078.55 1468.27 Q1080.8 1465.74 1081.68 1464.01 Q1082.58 1462.25 1082.58 1460.56 Q1082.58 1457.8 1080.64 1456.07 Q1078.72 1454.33 1075.61 1454.33 Q1073.42 1454.33 1070.96 1455.09 Q1068.53 1455.86 1065.75 1457.41 L1065.75 1452.69 Q1068.58 1451.55 1071.03 1450.97 Q1073.48 1450.39 1075.52 1450.39 Q1080.89 1450.39 1084.09 1453.08 Q1087.28 1455.77 1087.28 1460.26 Q1087.28 1462.39 1086.47 1464.31 Q1085.68 1466.2 1083.58 1468.8 Q1083 1469.47 1079.9 1472.69 Q1076.8 1475.88 1071.15 1481.64 Z" fill="#000000" fill-rule="nonzero" fill-opacity="1" /><path clip-path="url(#clip410)" d="M1528.87 1454.1 Q1525.26 1454.1 1523.43 1457.66 Q1521.62 1461.2 1521.62 1468.33 Q1521.62 1475.44 1523.43 1479.01 Q1525.26 1482.55 1528.87 1482.55 Q1532.5 1482.55 1534.31 1479.01 Q1536.14 1475.44 1536.14 1468.33 Q1536.14 1461.2 1534.31 1457.66 Q1532.5 1454.1 1528.87 1454.1 M1528.87 1450.39 Q1534.68 1450.39 1537.73 1455 Q1540.81 1459.58 1540.81 1468.33 Q1540.81 1477.06 1537.73 1481.67 Q1534.68 1486.25 1528.87 1486.25 Q1523.06 1486.25 1519.98 1481.67 Q1516.92 1477.06 1516.92 1468.33 Q1516.92 1459.58 1519.98 1455 Q1523.06 1450.39 1528.87 1450.39 Z" fill="#000000" fill-rule="nonzero" fill-opacity="1" /><path clip-path="url(#clip410)" d="M1549.03 1479.7 L1553.91 1479.7 L1553.91 1485.58 L1549.03 1485.58 L1549.03 1479.7 Z" fill="#000000" fill-rule="nonzero" fill-opacity="1" /><path clip-path="url(#clip410)" d="M1576.95 1455.09 L1565.14 1473.54 L1576.95 1473.54 L1576.95 1455.09 M1575.72 1451.02 L1581.6 1451.02 L1581.6 1473.54 L1586.53 1473.54 L1586.53 1477.43 L1581.6 1477.43 L1581.6 1485.58 L1576.95 1485.58 L1576.95 1477.43 L1561.34 1477.43 L1561.34 1472.92 L1575.72 1451.02 Z" fill="#000000" fill-rule="nonzero" fill-opacity="1" /><path clip-path="url(#clip410)" d="M2027.05 1454.1 Q2023.44 1454.1 2021.61 1457.66 Q2019.81 1461.2 2019.81 1468.33 Q2019.81 1475.44 2021.61 1479.01 Q2023.44 1482.55 2027.05 1482.55 Q2030.69 1482.55 2032.49 1479.01 Q2034.32 1475.44 2034.32 1468.33 Q2034.32 1461.2 2032.49 1457.66 Q2030.69 1454.1 2027.05 1454.1 M2027.05 1450.39 Q2032.86 1450.39 2035.92 1455 Q2039 1459.58 2039 1468.33 Q2039 1477.06 2035.92 1481.67 Q2032.86 1486.25 2027.05 1486.25 Q2021.24 1486.25 2018.16 1481.67 Q2015.11 1477.06 2015.11 1468.33 Q2015.11 1459.58 2018.16 1455 Q2021.24 1450.39 2027.05 1450.39 Z" fill="#000000" fill-rule="nonzero" fill-opacity="1" /><path clip-path="url(#clip410)" d="M2047.21 1479.7 L2052.1 1479.7 L2052.1 1485.58 L2047.21 1485.58 L2047.21 1479.7 Z" fill="#000000" fill-rule="nonzero" fill-opacity="1" /><path clip-path="url(#clip410)" d="M2072.86 1466.44 Q2069.71 1466.44 2067.86 1468.59 Q2066.03 1470.74 2066.03 1474.49 Q2066.03 1478.22 2067.86 1480.39 Q2069.71 1482.55 2072.86 1482.55 Q2076.01 1482.55 2077.84 1480.39 Q2079.69 1478.22 2079.69 1474.49 Q2079.69 1470.74 2077.84 1468.59 Q2076.01 1466.44 2072.86 1466.44 M2082.14 1451.78 L2082.14 1456.04 Q2080.38 1455.21 2078.58 1454.77 Q2076.8 1454.33 2075.04 1454.33 Q2070.41 1454.33 2067.95 1457.45 Q2065.52 1460.58 2065.18 1466.9 Q2066.54 1464.89 2068.6 1463.82 Q2070.66 1462.73 2073.14 1462.73 Q2078.35 1462.73 2081.36 1465.9 Q2084.39 1469.05 2084.39 1474.49 Q2084.39 1479.82 2081.24 1483.03 Q2078.09 1486.25 2072.86 1486.25 Q2066.87 1486.25 2063.7 1481.67 Q2060.52 1477.06 2060.52 1468.33 Q2060.52 1460.14 2064.41 1455.28 Q2068.3 1450.39 2074.85 1450.39 Q2076.61 1450.39 2078.39 1450.74 Q2080.2 1451.09 2082.14 1451.78 Z" fill="#000000" fill-rule="nonzero" fill-opacity="1" /><path clip-path="url(#clip410)" d="M1073.76 1525.81 L1073.76 1562.76 L1081.53 1562.76 Q1091.36 1562.76 1095.91 1558.3 Q1100.5 1553.85 1100.5 1544.24 Q1100.5 1534.69 1095.91 1530.26 Q1091.36 1525.81 1081.53 1525.81 L1073.76 1525.81 M1067.33 1520.52 L1080.54 1520.52 Q1094.35 1520.52 1100.81 1526.28 Q1107.28 1532.01 1107.28 1544.24 Q1107.28 1556.52 1100.78 1562.28 Q1094.29 1568.04 1080.54 1568.04 L1067.33 1568.04 L1067.33 1520.52 Z" fill="#000000" fill-rule="nonzero" fill-opacity="1" /><path clip-path="url(#clip410)" d="M1131.08 1536.5 Q1126.37 1536.5 1123.64 1540.19 Q1120.9 1543.85 1120.9 1550.25 Q1120.9 1556.65 1123.6 1560.34 Q1126.34 1564 1131.08 1564 Q1135.76 1564 1138.5 1560.31 Q1141.24 1556.62 1141.24 1550.25 Q1141.24 1543.92 1138.5 1540.23 Q1135.76 1536.5 1131.08 1536.5 M1131.08 1531.54 Q1138.72 1531.54 1143.08 1536.5 Q1147.44 1541.47 1147.44 1550.25 Q1147.44 1559 1143.08 1564 Q1138.72 1568.97 1131.08 1568.97 Q1123.41 1568.97 1119.05 1564 Q1114.72 1559 1114.72 1550.25 Q1114.72 1541.47 1119.05 1536.5 Q1123.41 1531.54 1131.08 1531.54 Z" fill="#000000" fill-rule="nonzero" fill-opacity="1" /><path clip-path="url(#clip410)" d="M1170.96 1536.5 Q1166.25 1536.5 1163.52 1540.19 Q1160.78 1543.85 1160.78 1550.25 Q1160.78 1556.65 1163.48 1560.34 Q1166.22 1564 1170.96 1564 Q1175.64 1564 1178.38 1560.31 Q1181.12 1556.62 1181.12 1550.25 Q1181.12 1543.92 1178.38 1540.23 Q1175.64 1536.5 1170.96 1536.5 M1170.96 1531.54 Q1178.6 1531.54 1182.96 1536.5 Q1187.32 1541.47 1187.32 1550.25 Q1187.32 1559 1182.96 1564 Q1178.6 1568.97 1170.96 1568.97 Q1163.29 1568.97 1158.93 1564 Q1154.6 1559 1154.6 1550.25 Q1154.6 1541.47 1158.93 1536.5 Q1163.29 1531.54 1170.96 1531.54 Z" fill="#000000" fill-rule="nonzero" fill-opacity="1" /><path clip-path="url(#clip410)" d="M1217.69 1537.87 Q1216.7 1537.3 1215.52 1537.04 Q1214.38 1536.76 1212.98 1536.76 Q1208.01 1536.76 1205.34 1540 Q1202.7 1543.22 1202.7 1549.27 L1202.7 1568.04 L1196.81 1568.04 L1196.81 1532.4 L1202.7 1532.4 L1202.7 1537.93 Q1204.54 1534.69 1207.5 1533.13 Q1210.46 1531.54 1214.7 1531.54 Q1215.3 1531.54 1216.03 1531.63 Q1216.77 1531.7 1217.66 1531.85 L1217.69 1537.87 Z" fill="#000000" fill-rule="nonzero" fill-opacity="1" /><path clip-path="url(#clip410)" d="M1270.21 1533.76 L1270.21 1539.24 Q1267.72 1537.87 1265.21 1537.2 Q1262.73 1536.5 1260.18 1536.5 Q1254.48 1536.5 1251.33 1540.13 Q1248.18 1543.73 1248.18 1550.25 Q1248.18 1556.78 1251.33 1560.4 Q1254.48 1564 1260.18 1564 Q1262.73 1564 1265.21 1563.33 Q1267.72 1562.63 1270.21 1561.26 L1270.21 1566.68 Q1267.76 1567.82 1265.11 1568.39 Q1262.5 1568.97 1259.54 1568.97 Q1251.49 1568.97 1246.75 1563.91 Q1242.01 1558.85 1242.01 1550.25 Q1242.01 1541.53 1246.78 1536.53 Q1251.59 1531.54 1259.93 1531.54 Q1262.63 1531.54 1265.21 1532.11 Q1267.79 1532.65 1270.21 1533.76 Z" fill="#000000" fill-rule="nonzero" fill-opacity="1" /><path clip-path="url(#clip410)" d="M1310.88 1548.76 L1310.88 1551.62 L1283.96 1551.62 Q1284.34 1557.67 1287.58 1560.85 Q1290.86 1564 1296.69 1564 Q1300.06 1564 1303.21 1563.17 Q1306.39 1562.35 1309.51 1560.69 L1309.51 1566.23 Q1306.36 1567.57 1303.05 1568.27 Q1299.74 1568.97 1296.34 1568.97 Q1287.81 1568.97 1282.81 1564 Q1277.84 1559.04 1277.84 1550.57 Q1277.84 1541.82 1282.56 1536.69 Q1287.3 1531.54 1295.32 1531.54 Q1302.51 1531.54 1306.68 1536.18 Q1310.88 1540.8 1310.88 1548.76 M1305.03 1547.04 Q1304.96 1542.23 1302.32 1539.37 Q1299.71 1536.5 1295.38 1536.5 Q1290.48 1536.5 1287.52 1539.27 Q1284.59 1542.04 1284.15 1547.07 L1305.03 1547.04 Z" fill="#000000" fill-rule="nonzero" fill-opacity="1" /><path clip-path="url(#clip410)" d="M1350.13 1546.53 L1350.13 1568.04 L1344.27 1568.04 L1344.27 1546.72 Q1344.27 1541.66 1342.3 1539.14 Q1340.32 1536.63 1336.38 1536.63 Q1331.63 1536.63 1328.9 1539.65 Q1326.16 1542.68 1326.16 1547.9 L1326.16 1568.04 L1320.27 1568.04 L1320.27 1532.4 L1326.16 1532.4 L1326.16 1537.93 Q1328.26 1534.72 1331.09 1533.13 Q1333.96 1531.54 1337.68 1531.54 Q1343.83 1531.54 1346.98 1535.36 Q1350.13 1539.14 1350.13 1546.53 Z" fill="#000000" fill-rule="nonzero" fill-opacity="1" /><path clip-path="url(#clip410)" d="M1367.6 1522.27 L1367.6 1532.4 L1379.66 1532.4 L1379.66 1536.95 L1367.6 1536.95 L1367.6 1556.3 Q1367.6 1560.66 1368.78 1561.9 Q1369.99 1563.14 1373.65 1563.14 L1379.66 1563.14 L1379.66 1568.04 L1373.65 1568.04 Q1366.87 1568.04 1364.29 1565.53 Q1361.71 1562.98 1361.71 1556.3 L1361.71 1536.95 L1357.42 1536.95 L1357.42 1532.4 L1361.71 1532.4 L1361.71 1522.27 L1367.6 1522.27 Z" fill="#000000" fill-rule="nonzero" fill-opacity="1" /><path clip-path="url(#clip410)" d="M1417.86 1548.76 L1417.86 1551.62 L1390.93 1551.62 Q1391.31 1557.67 1394.56 1560.85 Q1397.84 1564 1403.66 1564 Q1407.04 1564 1410.19 1563.17 Q1413.37 1562.35 1416.49 1560.69 L1416.49 1566.23 Q1413.34 1567.57 1410.03 1568.27 Q1406.72 1568.97 1403.31 1568.97 Q1394.78 1568.97 1389.79 1564 Q1384.82 1559.04 1384.82 1550.57 Q1384.82 1541.82 1389.53 1536.69 Q1394.27 1531.54 1402.29 1531.54 Q1409.49 1531.54 1413.66 1536.18 Q1417.86 1540.8 1417.86 1548.76 M1412 1547.04 Q1411.94 1542.23 1409.3 1539.37 Q1406.69 1536.5 1402.36 1536.5 Q1397.46 1536.5 1394.5 1539.27 Q1391.57 1542.04 1391.12 1547.07 L1412 1547.04 Z" fill="#000000" fill-rule="nonzero" fill-opacity="1" /><path clip-path="url(#clip410)" d="M1448.13 1537.87 Q1447.14 1537.3 1445.96 1537.04 Q1444.82 1536.76 1443.42 1536.76 Q1438.45 1536.76 1435.78 1540 Q1433.14 1543.22 1433.14 1549.27 L1433.14 1568.04 L1427.25 1568.04 L1427.25 1532.4 L1433.14 1532.4 L1433.14 1537.93 Q1434.98 1534.69 1437.94 1533.13 Q1440.9 1531.54 1445.14 1531.54 Q1445.74 1531.54 1446.47 1531.63 Q1447.2 1531.7 1448.1 1531.85 L1448.13 1537.87 Z" fill="#000000" fill-rule="nonzero" fill-opacity="1" /><path clip-path="url(#clip410)" d="M1504.62 1532.4 L1491.73 1549.74 L1505.29 1568.04 L1498.38 1568.04 L1488.01 1554.04 L1477.63 1568.04 L1470.73 1568.04 L1484.57 1549.39 L1471.9 1532.4 L1478.81 1532.4 L1488.26 1545.1 L1497.72 1532.4 L1504.62 1532.4 Z" fill="#000000" fill-rule="nonzero" fill-opacity="1" /><polyline clip-path="url(#clip410)" style="stroke:#000000; stroke-linecap:round; stroke-linejoin:round; stroke-width:4; stroke-opacity:1; fill:none" points="219.866,1423.18 219.866,123.472 "/>
<polyline clip-path="url(#clip410)" style="stroke:#000000; stroke-linecap:round; stroke-linejoin:round; stroke-width:4; stroke-opacity:1; fill:none" points="219.866,1386.4 238.764,1386.4 "/>
<polyline clip-path="url(#clip410)" style="stroke:#000000; stroke-linecap:round; stroke-linejoin:round; stroke-width:4; stroke-opacity:1; fill:none" points="219.866,1137.38 238.764,1137.38 "/>
<polyline clip-path="url(#clip410)" style="stroke:#000000; stroke-linecap:round; stroke-linejoin:round; stroke-width:4; stroke-opacity:1; fill:none" points="219.866,888.374 238.764,888.374 "/>
<polyline clip-path="url(#clip410)" style="stroke:#000000; stroke-linecap:round; stroke-linejoin:round; stroke-width:4; stroke-opacity:1; fill:none" points="219.866,639.363 238.764,639.363 "/>
<polyline clip-path="url(#clip410)" style="stroke:#000000; stroke-linecap:round; stroke-linejoin:round; stroke-width:4; stroke-opacity:1; fill:none" points="219.866,390.352 238.764,390.352 "/>
<polyline clip-path="url(#clip410)" style="stroke:#000000; stroke-linecap:round; stroke-linejoin:round; stroke-width:4; stroke-opacity:1; fill:none" points="219.866,141.341 238.764,141.341 "/>
<path clip-path="url(#clip410)" d="M126.691 1372.19 Q123.08 1372.19 121.251 1375.76 Q119.445 1379.3 119.445 1386.43 Q119.445 1393.54 121.251 1397.1 Q123.08 1400.64 126.691 1400.64 Q130.325 1400.64 132.13 1397.1 Q133.959 1393.54 133.959 1386.43 Q133.959 1379.3 132.13 1375.76 Q130.325 1372.19 126.691 1372.19 M126.691 1368.49 Q132.501 1368.49 135.556 1373.1 Q138.635 1377.68 138.635 1386.43 Q138.635 1395.16 135.556 1399.76 Q132.501 1404.35 126.691 1404.35 Q120.88 1404.35 117.802 1399.76 Q114.746 1395.16 114.746 1386.43 Q114.746 1377.68 117.802 1373.1 Q120.88 1368.49 126.691 1368.49 Z" fill="#000000" fill-rule="nonzero" fill-opacity="1" /><path clip-path="url(#clip410)" d="M146.853 1397.8 L151.737 1397.8 L151.737 1403.68 L146.853 1403.68 L146.853 1397.8 Z" fill="#000000" fill-rule="nonzero" fill-opacity="1" /><path clip-path="url(#clip410)" d="M171.922 1372.19 Q168.311 1372.19 166.482 1375.76 Q164.677 1379.3 164.677 1386.43 Q164.677 1393.54 166.482 1397.1 Q168.311 1400.64 171.922 1400.64 Q175.556 1400.64 177.362 1397.1 Q179.19 1393.54 179.19 1386.43 Q179.19 1379.3 177.362 1375.76 Q175.556 1372.19 171.922 1372.19 M171.922 1368.49 Q177.732 1368.49 180.788 1373.1 Q183.866 1377.68 183.866 1386.43 Q183.866 1395.16 180.788 1399.76 Q177.732 1404.35 171.922 1404.35 Q166.112 1404.35 163.033 1399.76 Q159.978 1395.16 159.978 1386.43 Q159.978 1377.68 163.033 1373.1 Q166.112 1368.49 171.922 1368.49 Z" fill="#000000" fill-rule="nonzero" fill-opacity="1" /><path clip-path="url(#clip410)" d="M127.917 1123.18 Q124.306 1123.18 122.478 1126.75 Q120.672 1130.29 120.672 1137.42 Q120.672 1144.53 122.478 1148.09 Q124.306 1151.63 127.917 1151.63 Q131.552 1151.63 133.357 1148.09 Q135.186 1144.53 135.186 1137.42 Q135.186 1130.29 133.357 1126.75 Q131.552 1123.18 127.917 1123.18 M127.917 1119.48 Q133.728 1119.48 136.783 1124.09 Q139.862 1128.67 139.862 1137.42 Q139.862 1146.15 136.783 1150.75 Q133.728 1155.34 127.917 1155.34 Q122.107 1155.34 119.029 1150.75 Q115.973 1146.15 115.973 1137.42 Q115.973 1128.67 119.029 1124.09 Q122.107 1119.48 127.917 1119.48 Z" fill="#000000" fill-rule="nonzero" fill-opacity="1" /><path clip-path="url(#clip410)" d="M148.079 1148.79 L152.964 1148.79 L152.964 1154.66 L148.079 1154.66 L148.079 1148.79 Z" fill="#000000" fill-rule="nonzero" fill-opacity="1" /><path clip-path="url(#clip410)" d="M163.959 1150.73 L171.598 1150.73 L171.598 1124.36 L163.288 1126.03 L163.288 1121.77 L171.552 1120.1 L176.227 1120.1 L176.227 1150.73 L183.866 1150.73 L183.866 1154.66 L163.959 1154.66 L163.959 1150.73 Z" fill="#000000" fill-rule="nonzero" fill-opacity="1" /><path clip-path="url(#clip410)" d="M128.288 874.173 Q124.677 874.173 122.848 877.737 Q121.043 881.279 121.043 888.409 Q121.043 895.515 122.848 899.08 Q124.677 902.621 128.288 902.621 Q131.922 902.621 133.728 899.08 Q135.556 895.515 135.556 888.409 Q135.556 881.279 133.728 877.737 Q131.922 874.173 128.288 874.173 M128.288 870.469 Q134.098 870.469 137.154 875.075 Q140.232 879.659 140.232 888.409 Q140.232 897.135 137.154 901.742 Q134.098 906.325 128.288 906.325 Q122.478 906.325 119.399 901.742 Q116.343 897.135 116.343 888.409 Q116.343 879.659 119.399 875.075 Q122.478 870.469 128.288 870.469 Z" fill="#000000" fill-rule="nonzero" fill-opacity="1" /><path clip-path="url(#clip410)" d="M148.45 899.774 L153.334 899.774 L153.334 905.654 L148.45 905.654 L148.45 899.774 Z" fill="#000000" fill-rule="nonzero" fill-opacity="1" /><path clip-path="url(#clip410)" d="M167.547 901.719 L183.866 901.719 L183.866 905.654 L161.922 905.654 L161.922 901.719 Q164.584 898.964 169.167 894.334 Q173.774 889.682 174.954 888.339 Q177.2 885.816 178.079 884.08 Q178.982 882.321 178.982 880.631 Q178.982 877.876 177.038 876.14 Q175.116 874.404 172.014 874.404 Q169.815 874.404 167.362 875.168 Q164.931 875.932 162.153 877.483 L162.153 872.761 Q164.977 871.626 167.431 871.048 Q169.885 870.469 171.922 870.469 Q177.292 870.469 180.487 873.154 Q183.681 875.839 183.681 880.33 Q183.681 882.46 182.871 884.381 Q182.084 886.279 179.977 888.872 Q179.399 889.543 176.297 892.76 Q173.195 895.955 167.547 901.719 Z" fill="#000000" fill-rule="nonzero" fill-opacity="1" /><path clip-path="url(#clip410)" d="M127.339 625.162 Q123.728 625.162 121.899 628.726 Q120.093 632.268 120.093 639.398 Q120.093 646.504 121.899 650.069 Q123.728 653.611 127.339 653.611 Q130.973 653.611 132.779 650.069 Q134.607 646.504 134.607 639.398 Q134.607 632.268 132.779 628.726 Q130.973 625.162 127.339 625.162 M127.339 621.458 Q133.149 621.458 136.204 626.064 Q139.283 630.648 139.283 639.398 Q139.283 648.124 136.204 652.731 Q133.149 657.314 127.339 657.314 Q121.529 657.314 118.45 652.731 Q115.394 648.124 115.394 639.398 Q115.394 630.648 118.45 626.064 Q121.529 621.458 127.339 621.458 Z" fill="#000000" fill-rule="nonzero" fill-opacity="1" /><path clip-path="url(#clip410)" d="M147.501 650.763 L152.385 650.763 L152.385 656.643 L147.501 656.643 L147.501 650.763 Z" fill="#000000" fill-rule="nonzero" fill-opacity="1" /><path clip-path="url(#clip410)" d="M176.737 638.009 Q180.093 638.726 181.968 640.995 Q183.866 643.263 183.866 646.597 Q183.866 651.712 180.348 654.513 Q176.829 657.314 170.348 657.314 Q168.172 657.314 165.857 656.874 Q163.565 656.458 161.112 655.601 L161.112 651.087 Q163.056 652.222 165.371 652.8 Q167.686 653.379 170.209 653.379 Q174.607 653.379 176.899 651.643 Q179.214 649.907 179.214 646.597 Q179.214 643.541 177.061 641.828 Q174.931 640.092 171.112 640.092 L167.084 640.092 L167.084 636.25 L171.297 636.25 Q174.746 636.25 176.575 634.884 Q178.403 633.495 178.403 630.902 Q178.403 628.24 176.505 626.828 Q174.63 625.393 171.112 625.393 Q169.19 625.393 166.991 625.81 Q164.792 626.226 162.153 627.106 L162.153 622.939 Q164.815 622.199 167.13 621.828 Q169.468 621.458 171.528 621.458 Q176.852 621.458 179.954 623.888 Q183.056 626.296 183.056 630.416 Q183.056 633.287 181.413 635.277 Q179.769 637.245 176.737 638.009 Z" fill="#000000" fill-rule="nonzero" fill-opacity="1" /><path clip-path="url(#clip410)" d="M126.205 376.151 Q122.593 376.151 120.765 379.716 Q118.959 383.257 118.959 390.387 Q118.959 397.493 120.765 401.058 Q122.593 404.6 126.205 404.6 Q129.839 404.6 131.644 401.058 Q133.473 397.493 133.473 390.387 Q133.473 383.257 131.644 379.716 Q129.839 376.151 126.205 376.151 M126.205 372.447 Q132.015 372.447 135.07 377.053 Q138.149 381.637 138.149 390.387 Q138.149 399.114 135.07 403.72 Q132.015 408.303 126.205 408.303 Q120.394 408.303 117.316 403.72 Q114.26 399.114 114.26 390.387 Q114.26 381.637 117.316 377.053 Q120.394 372.447 126.205 372.447 Z" fill="#000000" fill-rule="nonzero" fill-opacity="1" /><path clip-path="url(#clip410)" d="M146.366 401.752 L151.251 401.752 L151.251 407.632 L146.366 407.632 L146.366 401.752 Z" fill="#000000" fill-rule="nonzero" fill-opacity="1" /><path clip-path="url(#clip410)" d="M174.283 377.146 L162.477 395.595 L174.283 395.595 L174.283 377.146 M173.056 373.072 L178.936 373.072 L178.936 395.595 L183.866 395.595 L183.866 399.484 L178.936 399.484 L178.936 407.632 L174.283 407.632 L174.283 399.484 L158.681 399.484 L158.681 394.97 L173.056 373.072 Z" fill="#000000" fill-rule="nonzero" fill-opacity="1" /><path clip-path="url(#clip410)" d="M127.686 127.14 Q124.075 127.14 122.246 130.705 Q120.441 134.246 120.441 141.376 Q120.441 148.482 122.246 152.047 Q124.075 155.589 127.686 155.589 Q131.32 155.589 133.126 152.047 Q134.954 148.482 134.954 141.376 Q134.954 134.246 133.126 130.705 Q131.32 127.14 127.686 127.14 M127.686 123.436 Q133.496 123.436 136.552 128.043 Q139.63 132.626 139.63 141.376 Q139.63 150.103 136.552 154.709 Q133.496 159.292 127.686 159.292 Q121.876 159.292 118.797 154.709 Q115.742 150.103 115.742 141.376 Q115.742 132.626 118.797 128.043 Q121.876 123.436 127.686 123.436 Z" fill="#000000" fill-rule="nonzero" fill-opacity="1" /><path clip-path="url(#clip410)" d="M147.848 152.742 L152.732 152.742 L152.732 158.621 L147.848 158.621 L147.848 152.742 Z" fill="#000000" fill-rule="nonzero" fill-opacity="1" /><path clip-path="url(#clip410)" d="M162.964 124.061 L181.32 124.061 L181.32 127.996 L167.246 127.996 L167.246 136.468 Q168.264 136.121 169.283 135.959 Q170.302 135.774 171.32 135.774 Q177.107 135.774 180.487 138.945 Q183.866 142.117 183.866 147.533 Q183.866 153.112 180.394 156.214 Q176.922 159.292 170.602 159.292 Q168.427 159.292 166.158 158.922 Q163.913 158.552 161.505 157.811 L161.505 153.112 Q163.589 154.246 165.811 154.802 Q168.033 155.357 170.51 155.357 Q174.514 155.357 176.852 153.251 Q179.19 151.144 179.19 147.533 Q179.19 143.922 176.852 141.816 Q174.514 139.709 170.51 139.709 Q168.635 139.709 166.76 140.126 Q164.908 140.543 162.964 141.422 L162.964 124.061 Z" fill="#000000" fill-rule="nonzero" fill-opacity="1" /><path clip-path="url(#clip410)" d="M21.7677 985.972 L58.7206 985.972 L58.7206 978.206 Q58.7206 968.371 54.2646 963.82 Q49.8086 959.236 40.1964 959.236 Q30.6479 959.236 26.2237 963.82 Q21.7677 968.371 21.7677 978.206 L21.7677 985.972 M16.4842 992.402 L16.4842 979.193 Q16.4842 965.379 22.2451 958.918 Q27.9743 952.457 40.1964 952.457 Q52.4822 952.457 58.2432 958.95 Q64.0042 965.443 64.0042 979.193 L64.0042 992.402 L16.4842 992.402 Z" fill="#000000" fill-rule="nonzero" fill-opacity="1" /><path clip-path="url(#clip410)" d="M32.4621 928.649 Q32.4621 933.36 36.1542 936.097 Q39.8145 938.834 46.212 938.834 Q52.6095 938.834 56.3017 936.129 Q59.9619 933.392 59.9619 928.649 Q59.9619 923.97 56.2698 921.233 Q52.5777 918.496 46.212 918.496 Q39.8781 918.496 36.186 921.233 Q32.4621 923.97 32.4621 928.649 M27.4968 928.649 Q27.4968 921.01 32.4621 916.65 Q37.4273 912.289 46.212 912.289 Q54.9649 912.289 59.9619 916.65 Q64.9272 921.01 64.9272 928.649 Q64.9272 936.32 59.9619 940.68 Q54.9649 945.009 46.212 945.009 Q37.4273 945.009 32.4621 940.68 Q27.4968 936.32 27.4968 928.649 Z" fill="#000000" fill-rule="nonzero" fill-opacity="1" /><path clip-path="url(#clip410)" d="M32.4621 888.768 Q32.4621 893.479 36.1542 896.216 Q39.8145 898.953 46.212 898.953 Q52.6095 898.953 56.3017 896.248 Q59.9619 893.511 59.9619 888.768 Q59.9619 884.089 56.2698 881.352 Q52.5777 878.615 46.212 878.615 Q39.8781 878.615 36.186 881.352 Q32.4621 884.089 32.4621 888.768 M27.4968 888.768 Q27.4968 881.129 32.4621 876.769 Q37.4273 872.408 46.212 872.408 Q54.9649 872.408 59.9619 876.769 Q64.9272 881.129 64.9272 888.768 Q64.9272 896.439 59.9619 900.799 Q54.9649 905.128 46.212 905.128 Q37.4273 905.128 32.4621 900.799 Q27.4968 896.439 27.4968 888.768 Z" fill="#000000" fill-rule="nonzero" fill-opacity="1" /><path clip-path="url(#clip410)" d="M33.8307 842.044 Q33.2578 843.03 33.0032 844.208 Q32.7167 845.354 32.7167 846.754 Q32.7167 851.72 35.9632 854.393 Q39.1779 857.035 45.2253 857.035 L64.0042 857.035 L64.0042 862.923 L28.3562 862.923 L28.3562 857.035 L33.8944 857.035 Q30.6479 855.189 29.0883 852.229 Q27.4968 849.269 27.4968 845.036 Q27.4968 844.431 27.5923 843.699 Q27.656 842.967 27.8151 842.076 L33.8307 842.044 Z" fill="#000000" fill-rule="nonzero" fill-opacity="1" /><path clip-path="url(#clip410)" d="M29.7248 789.527 L35.1993 789.527 Q33.8307 792.009 33.1623 794.524 Q32.4621 797.006 32.4621 799.553 Q32.4621 805.25 36.0905 808.401 Q39.6872 811.552 46.212 811.552 Q52.7369 811.552 56.3653 808.401 Q59.9619 805.25 59.9619 799.553 Q59.9619 797.006 59.2935 794.524 Q58.5933 792.009 57.2247 789.527 L62.6355 789.527 Q63.7814 791.978 64.3543 794.619 Q64.9272 797.229 64.9272 800.189 Q64.9272 808.242 59.8664 812.984 Q54.8057 817.727 46.212 817.727 Q37.491 817.727 32.4939 812.953 Q27.4968 808.146 27.4968 799.807 Q27.4968 797.102 28.0697 794.524 Q28.6108 791.946 29.7248 789.527 Z" fill="#000000" fill-rule="nonzero" fill-opacity="1" /><path clip-path="url(#clip410)" d="M44.7161 748.85 L47.5806 748.85 L47.5806 775.777 Q53.6281 775.395 56.8109 772.148 Q59.9619 768.87 59.9619 763.045 Q59.9619 759.672 59.1344 756.521 Q58.3069 753.338 56.6518 750.218 L62.1899 750.218 Q63.5267 753.369 64.227 756.68 Q64.9272 759.99 64.9272 763.395 Q64.9272 771.926 59.9619 776.923 Q54.9967 781.888 46.5303 781.888 Q37.7774 781.888 32.6531 777.177 Q27.4968 772.435 27.4968 764.414 Q27.4968 757.221 32.1438 753.051 Q36.7589 748.85 44.7161 748.85 M42.9973 754.706 Q38.1912 754.77 35.3266 757.412 Q32.4621 760.022 32.4621 764.35 Q32.4621 769.252 35.2312 772.212 Q38.0002 775.14 43.0292 775.586 L42.9973 754.706 Z" fill="#000000" fill-rule="nonzero" fill-opacity="1" /><path clip-path="url(#clip410)" d="M42.4881 709.605 L64.0042 709.605 L64.0042 715.462 L42.679 715.462 Q37.6183 715.462 35.1038 717.435 Q32.5894 719.408 32.5894 723.355 Q32.5894 728.098 35.6131 730.835 Q38.6368 733.572 43.8567 733.572 L64.0042 733.572 L64.0042 739.46 L28.3562 739.46 L28.3562 733.572 L33.8944 733.572 Q30.6797 731.471 29.0883 728.639 Q27.4968 725.774 27.4968 722.05 Q27.4968 715.907 31.3163 712.756 Q35.1038 709.605 42.4881 709.605 Z" fill="#000000" fill-rule="nonzero" fill-opacity="1" /><path clip-path="url(#clip410)" d="M18.2347 692.131 L28.3562 692.131 L28.3562 680.068 L32.9077 680.068 L32.9077 692.131 L52.2594 692.131 Q56.6199 692.131 57.8613 690.954 Q59.1026 689.744 59.1026 686.084 L59.1026 680.068 L64.0042 680.068 L64.0042 686.084 Q64.0042 692.863 61.4897 695.442 Q58.9434 698.02 52.2594 698.02 L32.9077 698.02 L32.9077 702.317 L28.3562 702.317 L28.3562 698.02 L18.2347 698.02 L18.2347 692.131 Z" fill="#000000" fill-rule="nonzero" fill-opacity="1" /><path clip-path="url(#clip410)" d="M44.7161 641.874 L47.5806 641.874 L47.5806 668.801 Q53.6281 668.419 56.8109 665.173 Q59.9619 661.894 59.9619 656.07 Q59.9619 652.696 59.1344 649.545 Q58.3069 646.362 56.6518 643.243 L62.1899 643.243 Q63.5267 646.394 64.227 649.704 Q64.9272 653.014 64.9272 656.42 Q64.9272 664.95 59.9619 669.947 Q54.9967 674.912 46.5303 674.912 Q37.7774 674.912 32.6531 670.202 Q27.4968 665.459 27.4968 657.438 Q27.4968 650.245 32.1438 646.076 Q36.7589 641.874 44.7161 641.874 M42.9973 647.731 Q38.1912 647.794 35.3266 650.436 Q32.4621 653.046 32.4621 657.375 Q32.4621 662.276 35.2312 665.236 Q38.0002 668.165 43.0292 668.61 L42.9973 647.731 Z" fill="#000000" fill-rule="nonzero" fill-opacity="1" /><path clip-path="url(#clip410)" d="M33.8307 611.605 Q33.2578 612.592 33.0032 613.77 Q32.7167 614.915 32.7167 616.316 Q32.7167 621.281 35.9632 623.955 Q39.1779 626.596 45.2253 626.596 L64.0042 626.596 L64.0042 632.485 L28.3562 632.485 L28.3562 626.596 L33.8944 626.596 Q30.6479 624.75 29.0883 621.79 Q27.4968 618.83 27.4968 614.597 Q27.4968 613.992 27.5923 613.26 Q27.656 612.528 27.8151 611.637 L33.8307 611.605 Z" fill="#000000" fill-rule="nonzero" fill-opacity="1" /><path clip-path="url(#clip410)" d="M67.3143 569.91 Q73.68 572.392 75.6216 574.748 Q77.5631 577.103 77.5631 581.05 L77.5631 585.729 L72.6615 585.729 L72.6615 582.291 Q72.6615 579.872 71.5157 578.535 Q70.3699 577.199 66.1048 575.575 L63.4312 574.525 L28.3562 588.943 L28.3562 582.737 L56.238 571.597 L28.3562 560.457 L28.3562 554.25 L67.3143 569.91 Z" fill="#000000" fill-rule="nonzero" fill-opacity="1" /><path clip-path="url(#clip410)" d="M945.225 18.8205 L945.225 65.8515 L955.109 65.8515 Q967.626 65.8515 973.419 60.1802 Q979.253 54.509 979.253 42.2752 Q979.253 30.1225 973.419 24.4918 Q967.626 18.8205 955.109 18.8205 L945.225 18.8205 M937.042 12.096 L953.853 12.096 Q971.434 12.096 979.658 19.4281 Q987.881 26.7198 987.881 42.2752 Q987.881 57.9117 979.617 65.2439 Q971.353 72.576 953.853 72.576 L937.042 72.576 L937.042 12.096 Z" fill="#000000" fill-rule="nonzero" fill-opacity="1" /><path clip-path="url(#clip410)" d="M1018.18 32.4315 Q1012.19 32.4315 1008.7 37.1306 Q1005.22 41.7891 1005.22 49.9314 Q1005.22 58.0738 1008.66 62.7728 Q1012.15 67.4314 1018.18 67.4314 Q1024.14 67.4314 1027.62 62.7323 Q1031.1 58.0333 1031.1 49.9314 Q1031.1 41.8701 1027.62 37.1711 Q1024.14 32.4315 1018.18 32.4315 M1018.18 26.1121 Q1027.9 26.1121 1033.45 32.4315 Q1039 38.7509 1039 49.9314 Q1039 61.0714 1033.45 67.4314 Q1027.9 73.7508 1018.18 73.7508 Q1008.42 73.7508 1002.87 67.4314 Q997.36 61.0714 997.36 49.9314 Q997.36 38.7509 1002.87 32.4315 Q1008.42 26.1121 1018.18 26.1121 Z" fill="#000000" fill-rule="nonzero" fill-opacity="1" /><path clip-path="url(#clip410)" d="M1068.94 32.4315 Q1062.94 32.4315 1059.46 37.1306 Q1055.98 41.7891 1055.98 49.9314 Q1055.98 58.0738 1059.42 62.7728 Q1062.9 67.4314 1068.94 67.4314 Q1074.89 67.4314 1078.38 62.7323 Q1081.86 58.0333 1081.86 49.9314 Q1081.86 41.8701 1078.38 37.1711 Q1074.89 32.4315 1068.94 32.4315 M1068.94 26.1121 Q1078.66 26.1121 1084.21 32.4315 Q1089.76 38.7509 1089.76 49.9314 Q1089.76 61.0714 1084.21 67.4314 Q1078.66 73.7508 1068.94 73.7508 Q1059.18 73.7508 1053.63 67.4314 Q1048.12 61.0714 1048.12 49.9314 Q1048.12 38.7509 1053.63 32.4315 Q1059.18 26.1121 1068.94 26.1121 Z" fill="#000000" fill-rule="nonzero" fill-opacity="1" /><path clip-path="url(#clip410)" d="M1128.41 34.1734 Q1127.15 33.4443 1125.65 33.1202 Q1124.19 32.7556 1122.41 32.7556 Q1116.09 32.7556 1112.69 36.8875 Q1109.33 40.9789 1109.33 48.6757 L1109.33 72.576 L1101.83 72.576 L1101.83 27.2059 L1109.33 27.2059 L1109.33 34.2544 Q1111.68 30.1225 1115.44 28.1376 Q1119.21 26.1121 1124.6 26.1121 Q1125.37 26.1121 1126.3 26.2337 Q1127.23 26.3147 1128.37 26.5172 L1128.41 34.1734 Z" fill="#000000" fill-rule="nonzero" fill-opacity="1" /><path clip-path="url(#clip410)" d="M1208.21 16.7545 L1208.21 25.383 Q1204.08 21.5346 1199.38 19.6307 Q1194.72 17.7268 1189.45 17.7268 Q1179.08 17.7268 1173.57 24.0867 Q1168.07 30.4061 1168.07 42.3968 Q1168.07 54.3469 1173.57 60.7069 Q1179.08 67.0263 1189.45 67.0263 Q1194.72 67.0263 1199.38 65.1223 Q1204.08 63.2184 1208.21 59.3701 L1208.21 67.9175 Q1203.92 70.8341 1199.1 72.2924 Q1194.32 73.7508 1188.97 73.7508 Q1175.24 73.7508 1167.34 65.3654 Q1159.44 56.9395 1159.44 42.3968 Q1159.44 27.8135 1167.34 19.4281 Q1175.24 11.0023 1188.97 11.0023 Q1194.4 11.0023 1199.18 12.4606 Q1204 13.8784 1208.21 16.7545 Z" fill="#000000" fill-rule="nonzero" fill-opacity="1" /><path clip-path="url(#clip410)" d="M1259.33 48.0275 L1259.33 51.6733 L1225.06 51.6733 Q1225.55 59.3701 1229.68 63.421 Q1233.85 67.4314 1241.27 67.4314 Q1245.56 67.4314 1249.57 66.3781 Q1253.62 65.3249 1257.59 63.2184 L1257.59 70.267 Q1253.58 71.9684 1249.37 72.8596 Q1245.15 73.7508 1240.82 73.7508 Q1229.96 73.7508 1223.6 67.4314 Q1217.28 61.1119 1217.28 50.3365 Q1217.28 39.1965 1223.28 32.6746 Q1229.31 26.1121 1239.52 26.1121 Q1248.68 26.1121 1253.98 32.0264 Q1259.33 37.9003 1259.33 48.0275 M1251.88 45.84 Q1251.8 39.7232 1248.44 36.0774 Q1245.11 32.4315 1239.6 32.4315 Q1233.37 32.4315 1229.6 35.9558 Q1225.87 39.4801 1225.3 45.8805 L1251.88 45.84 Z" fill="#000000" fill-rule="nonzero" fill-opacity="1" /><path clip-path="url(#clip410)" d="M1309.28 45.1919 L1309.28 72.576 L1301.83 72.576 L1301.83 45.4349 Q1301.83 38.994 1299.31 35.7938 Q1296.8 32.5936 1291.78 32.5936 Q1285.74 32.5936 1282.26 36.4419 Q1278.78 40.2903 1278.78 46.9338 L1278.78 72.576 L1271.28 72.576 L1271.28 27.2059 L1278.78 27.2059 L1278.78 34.2544 Q1281.45 30.163 1285.06 28.1376 Q1288.7 26.1121 1293.44 26.1121 Q1301.26 26.1121 1305.27 30.9732 Q1309.28 35.7938 1309.28 45.1919 Z" fill="#000000" fill-rule="nonzero" fill-opacity="1" /><path clip-path="url(#clip410)" d="M1331.52 14.324 L1331.52 27.2059 L1346.87 27.2059 L1346.87 32.9987 L1331.52 32.9987 L1331.52 57.6282 Q1331.52 63.1779 1333.02 64.7578 Q1334.56 66.3376 1339.22 66.3376 L1346.87 66.3376 L1346.87 72.576 L1339.22 72.576 Q1330.59 72.576 1327.31 69.3758 Q1324.03 66.1351 1324.03 57.6282 L1324.03 32.9987 L1318.56 32.9987 L1318.56 27.2059 L1324.03 27.2059 L1324.03 14.324 L1331.52 14.324 Z" fill="#000000" fill-rule="nonzero" fill-opacity="1" /><path clip-path="url(#clip410)" d="M1395.48 48.0275 L1395.48 51.6733 L1361.21 51.6733 Q1361.7 59.3701 1365.83 63.421 Q1370 67.4314 1377.42 67.4314 Q1381.71 67.4314 1385.72 66.3781 Q1389.77 65.3249 1393.74 63.2184 L1393.74 70.267 Q1389.73 71.9684 1385.52 72.8596 Q1381.3 73.7508 1376.97 73.7508 Q1366.11 73.7508 1359.75 67.4314 Q1353.43 61.1119 1353.43 50.3365 Q1353.43 39.1965 1359.43 32.6746 Q1365.47 26.1121 1375.67 26.1121 Q1384.83 26.1121 1390.14 32.0264 Q1395.48 37.9003 1395.48 48.0275 M1388.03 45.84 Q1387.95 39.7232 1384.59 36.0774 Q1381.26 32.4315 1375.76 32.4315 Q1369.52 32.4315 1365.75 35.9558 Q1362.02 39.4801 1361.46 45.8805 L1388.03 45.84 Z" fill="#000000" fill-rule="nonzero" fill-opacity="1" /><path clip-path="url(#clip410)" d="M1434.01 34.1734 Q1432.75 33.4443 1431.25 33.1202 Q1429.79 32.7556 1428.01 32.7556 Q1421.69 32.7556 1418.29 36.8875 Q1414.93 40.9789 1414.93 48.6757 L1414.93 72.576 L1407.43 72.576 L1407.43 27.2059 L1414.93 27.2059 L1414.93 34.2544 Q1417.28 30.1225 1421.04 28.1376 Q1424.81 26.1121 1430.2 26.1121 Q1430.97 26.1121 1431.9 26.2337 Q1432.83 26.3147 1433.97 26.5172 L1434.01 34.1734 Z" fill="#000000" fill-rule="nonzero" fill-opacity="1" /><path clip-path="url(#clip410)" d="M1476.7 18.8205 L1476.7 41.5461 L1486.99 41.5461 Q1492.7 41.5461 1495.82 38.5889 Q1498.94 35.6318 1498.94 30.163 Q1498.94 24.7348 1495.82 21.7777 Q1492.7 18.8205 1486.99 18.8205 L1476.7 18.8205 M1468.52 12.096 L1486.99 12.096 Q1497.16 12.096 1502.35 16.714 Q1507.57 21.2916 1507.57 30.163 Q1507.57 39.1155 1502.35 43.6931 Q1497.16 48.2706 1486.99 48.2706 L1476.7 48.2706 L1476.7 72.576 L1468.52 72.576 L1468.52 12.096 Z" fill="#000000" fill-rule="nonzero" fill-opacity="1" /><path clip-path="url(#clip410)" d="M1535.12 49.7694 Q1526.08 49.7694 1522.6 51.8354 Q1519.12 53.9013 1519.12 58.8839 Q1519.12 62.8538 1521.71 65.2034 Q1524.34 67.5124 1528.84 67.5124 Q1535.04 67.5124 1538.76 63.1374 Q1542.53 58.7219 1542.53 51.4303 L1542.53 49.7694 L1535.12 49.7694 M1549.98 46.6907 L1549.98 72.576 L1542.53 72.576 L1542.53 65.6895 Q1539.98 69.8214 1536.17 71.8063 Q1532.36 73.7508 1526.85 73.7508 Q1519.89 73.7508 1515.75 69.8619 Q1511.66 65.9325 1511.66 59.3701 Q1511.66 51.7138 1516.77 47.825 Q1521.91 43.9361 1532.08 43.9361 L1542.53 43.9361 L1542.53 43.2069 Q1542.53 38.0623 1539.13 35.2672 Q1535.77 32.4315 1529.65 32.4315 Q1525.76 32.4315 1522.07 33.3632 Q1518.39 34.295 1514.98 36.1584 L1514.98 29.2718 Q1519.08 27.692 1522.92 26.9223 Q1526.77 26.1121 1530.42 26.1121 Q1540.26 26.1121 1545.12 31.2163 Q1549.98 36.3204 1549.98 46.6907 Z" fill="#000000" fill-rule="nonzero" fill-opacity="1" /><path clip-path="url(#clip410)" d="M1572.71 14.324 L1572.71 27.2059 L1588.06 27.2059 L1588.06 32.9987 L1572.71 32.9987 L1572.71 57.6282 Q1572.71 63.1779 1574.21 64.7578 Q1575.75 66.3376 1580.41 66.3376 L1588.06 66.3376 L1588.06 72.576 L1580.41 72.576 Q1571.78 72.576 1568.5 69.3758 Q1565.22 66.1351 1565.22 57.6282 L1565.22 32.9987 L1559.75 32.9987 L1559.75 27.2059 L1565.22 27.2059 L1565.22 14.324 L1572.71 14.324 Z" fill="#000000" fill-rule="nonzero" fill-opacity="1" /><path clip-path="url(#clip410)" d="M1635.58 45.1919 L1635.58 72.576 L1628.13 72.576 L1628.13 45.4349 Q1628.13 38.994 1625.61 35.7938 Q1623.1 32.5936 1618.08 32.5936 Q1612.04 32.5936 1608.56 36.4419 Q1605.08 40.2903 1605.08 46.9338 L1605.08 72.576 L1597.58 72.576 L1597.58 9.54393 L1605.08 9.54393 L1605.08 34.2544 Q1607.75 30.163 1611.36 28.1376 Q1615 26.1121 1619.74 26.1121 Q1627.56 26.1121 1631.57 30.9732 Q1635.58 35.7938 1635.58 45.1919 Z" fill="#000000" fill-rule="nonzero" fill-opacity="1" /><polyline clip-path="url(#clip412)" style="stroke:#009af9; stroke-linecap:round; stroke-linejoin:round; stroke-width:12; stroke-opacity:1; fill:none" points="1800.74,1386.4 1800.74,1385.88 1800.74,1384.34 1800.73,1381.8 1800.71,1378.27 1800.67,1373.79 1800.61,1368.37 1800.5,1362.03 1800.34,1354.8 1800.1,1346.69 1799.79,1337.73 1799.36,1327.94 1798.82,1317.34 1798.14,1305.95 1797.29,1293.8 1796.26,1280.91 1795.03,1267.31 1793.57,1253.01 1791.87,1238.05 1789.9,1222.45 1787.63,1206.23 1785.06,1189.43 1782.15,1172.07 1778.89,1154.18 1775.25,1135.78 1771.22,1116.92 1766.78,1097.61 1761.91,1077.88 1756.59,1057.78 1750.8,1037.33 1744.54,1016.56 1737.79,995.511 1730.53,974.208 1722.76,952.688 1714.46,930.984 1705.63,909.131 1696.26,887.162 1686.36,865.111 1675.9,843.013 1664.91,820.902 1653.36,798.81 1641.28,776.773 1628.66,754.821 1615.5,732.989 1601.83,711.308 1587.64,689.81 1572.94,668.524 1557.76,647.481 1542.11,626.71 1526,606.237 1509.45,586.09 1492.48,566.294 1475.12,546.873 1457.38,527.85 1439.29,509.246 1420.88,491.08 1402.18,473.372 1383.2,456.138 1363.98,439.394 1344.56,423.151 1324.95,407.424 1305.2,392.22 1285.33,377.55 1265.39,363.419 1245.39,349.833 1225.38,336.795 1205.4,324.306 1185.46,312.366 1165.62,300.974 1145.9,290.127 1126.34,279.819 1106.98,270.046 1087.84,260.798 1068.97,252.067 1050.39,243.843 1032.14,236.115 1014.26,228.871 996.78,222.096 979.726,215.777 963.133,209.899 947.033,204.446 931.457,199.402 916.435,194.75 901.997,190.475 888.172,186.557 874.987,182.982 862.472,179.73 850.654,176.787 839.559,174.135 829.214,171.759 819.644,169.644 810.874,167.774 802.929,166.137 795.834,164.721 789.611,163.515 784.285,162.508 779.878,161.693 776.413,161.063 773.911,160.615 772.395,160.346 771.885,160.256 "/>
<polyline clip-path="url(#clip412)" style="stroke:#e26f46; stroke-linecap:round; stroke-linejoin:round; stroke-width:8; stroke-opacity:1; fill:none" points="1800.74,1386.4 1800.74,1386.4 1800.74,1386.4 1800.73,1386.4 1800.71,1386.4 1800.67,1386.4 1800.61,1386.4 1800.5,1386.4 1800.34,1386.4 1800.1,1386.4 1799.79,1386.4 1799.36,1386.4 1798.82,1386.4 1798.14,1386.4 1797.29,1386.4 1796.26,1386.4 1795.03,1386.4 1793.57,1386.4 1791.87,1238.05 1789.9,1222.45 1787.63,1206.23 1785.06,1189.43 1782.15,1172.07 1778.89,1154.18 1775.25,1135.78 1771.22,1116.92 1766.78,1097.61 1761.91,1077.88 1756.59,1057.78 1750.8,1037.33 1744.54,1016.56 1737.79,995.511 1730.53,974.208 1722.76,952.688 1714.46,930.984 1705.63,909.131 1696.26,887.162 1686.36,865.111 1675.9,843.013 1664.91,820.902 1653.36,798.81 1641.28,776.773 1628.66,754.821 1615.5,732.989 1601.83,711.308 1587.64,689.81 1572.94,668.524 1557.76,647.481 1542.11,626.71 1526,606.237 1509.45,586.09 1492.48,566.294 1475.12,546.873 1457.38,527.85 1439.29,509.246 1420.88,491.08 1402.18,473.372 1383.2,456.138 1363.98,439.394 1344.56,423.151 1324.95,407.424 1305.2,392.22 1285.33,377.55 1265.39,363.419 1245.39,349.833 1225.38,336.795 1205.4,324.306 1185.46,312.366 1165.62,300.974 1145.9,290.127 1126.34,279.819 1106.98,270.046 1087.84,260.798 1068.97,252.067 1050.39,243.843 1032.14,236.115 1014.26,228.871 996.78,222.096 979.726,215.777 963.133,209.899 947.033,204.446 931.457,199.402 916.435,194.75 901.997,190.475 888.172,186.557 874.987,182.982 862.472,179.73 850.654,176.787 839.559,174.135 829.214,171.759 819.644,169.644 810.874,167.774 802.929,166.137 795.834,164.721 789.611,163.515 784.285,162.508 779.878,161.693 776.413,161.063 773.911,160.615 772.395,160.346 771.885,160.256 "/>
<polyline clip-path="url(#clip412)" style="stroke:#3da44d; stroke-linecap:round; stroke-linejoin:round; stroke-width:8; stroke-opacity:1; fill:none" points="1800.74,1386.4 1800.74,1385.88 1800.74,1384.34 1800.73,1381.8 1800.71,1378.27 1800.67,1373.79 1800.61,1368.37 1800.5,1362.03 1800.34,1354.8 1800.1,1346.69 1799.79,1337.73 1799.36,1327.94 1798.82,1317.34 1798.14,1305.95 1797.29,1293.8 1796.26,1280.91 1795.03,1267.31 1793.57,1253.01 1791.87,1238.05 1789.9,1222.45 1787.63,1206.23 1785.06,1189.43 1782.15,1172.07 1778.89,1154.18 1775.25,1135.78 1771.22,1116.92 1766.78,1097.61 1761.91,1077.88 1756.59,1057.78 1750.8,1037.33 1744.54,1016.56 1737.79,995.511 1730.53,974.208 1722.76,952.688 1714.46,930.984 1705.63,909.131 1696.26,887.162 1686.36,865.111 1675.9,843.013 1664.91,820.902 1653.36,798.81 1641.28,776.773 1628.66,754.821 1615.5,732.989 1601.83,711.308 1587.64,689.81 1572.94,668.524 1557.76,647.481 1542.11,626.71 1526,606.237 1509.45,586.09 1492.48,566.294 1475.12,546.873 1457.38,527.85 1439.29,509.246 1420.88,491.08 1402.18,473.372 1383.2,456.138 1363.98,439.394 1344.56,423.151 1324.95,407.424 1305.2,392.22 1285.33,377.55 1265.39,363.419 1245.39,349.833 1225.38,336.795 1205.4,324.306 1185.46,312.366 1165.62,300.974 1145.9,290.127 1126.34,279.819 1106.98,270.046 1087.84,260.798 1068.97,252.067 1050.39,243.843 1032.14,236.115 1014.26,228.871 996.78,222.096 979.726,215.777 963.133,209.899 947.033,204.446 931.457,199.402 916.435,194.75 901.997,190.475 888.172,186.557 874.987,182.982 862.472,179.73 850.654,176.787 839.559,174.135 829.214,171.759 819.644,169.644 810.874,167.774 802.929,166.137 795.834,164.721 789.611,163.515 784.285,162.508 779.878,161.693 776.413,161.063 773.911,160.615 772.395,160.346 771.885,160.256 "/>
<path clip-path="url(#clip410)" d="M1451.94 374.156 L2281.66 374.156 L2281.66 166.796 L1451.94 166.796  Z" fill="#ffffff" fill-rule="evenodd" fill-opacity="1"/>
<polyline clip-path="url(#clip410)" style="stroke:#000000; stroke-linecap:round; stroke-linejoin:round; stroke-width:4; stroke-opacity:1; fill:none" points="1451.94,374.156 2281.66,374.156 2281.66,166.796 1451.94,166.796 1451.94,374.156 "/>
<polyline clip-path="url(#clip410)" style="stroke:#009af9; stroke-linecap:round; stroke-linejoin:round; stroke-width:12; stroke-opacity:1; fill:none" points="1475.64,218.636 1617.83,218.636 "/>
<path clip-path="url(#clip410)" d="M1669.4 204.018 L1669.4 208.948 Q1667.04 206.749 1664.35 205.661 Q1661.69 204.573 1658.68 204.573 Q1652.76 204.573 1649.61 208.208 Q1646.46 211.819 1646.46 218.67 Q1646.46 225.499 1649.61 229.133 Q1652.76 232.744 1658.68 232.744 Q1661.69 232.744 1664.35 231.656 Q1667.04 230.569 1669.4 228.369 L1669.4 233.254 Q1666.95 234.92 1664.19 235.754 Q1661.46 236.587 1658.4 236.587 Q1650.56 236.587 1646.04 231.795 Q1641.53 226.981 1641.53 218.67 Q1641.53 210.337 1646.04 205.546 Q1650.56 200.731 1658.4 200.731 Q1661.51 200.731 1664.24 201.564 Q1666.99 202.374 1669.4 204.018 Z" fill="#000000" fill-rule="nonzero" fill-opacity="1" /><path clip-path="url(#clip410)" d="M1688.22 222.883 Q1683.06 222.883 1681.07 224.064 Q1679.08 225.244 1679.08 228.092 Q1679.08 230.36 1680.56 231.703 Q1682.06 233.022 1684.63 233.022 Q1688.17 233.022 1690.3 230.522 Q1692.45 227.999 1692.45 223.832 L1692.45 222.883 L1688.22 222.883 M1696.71 221.124 L1696.71 235.916 L1692.45 235.916 L1692.45 231.981 Q1691 234.342 1688.82 235.476 Q1686.64 236.587 1683.5 236.587 Q1679.51 236.587 1677.15 234.365 Q1674.82 232.119 1674.82 228.369 Q1674.82 223.994 1677.73 221.772 Q1680.67 219.55 1686.48 219.55 L1692.45 219.55 L1692.45 219.133 Q1692.45 216.194 1690.51 214.596 Q1688.59 212.976 1685.09 212.976 Q1682.87 212.976 1680.76 213.508 Q1678.66 214.041 1676.71 215.106 L1676.71 211.17 Q1679.05 210.268 1681.25 209.828 Q1683.45 209.365 1685.53 209.365 Q1691.16 209.365 1693.94 212.282 Q1696.71 215.198 1696.71 221.124 Z" fill="#000000" fill-rule="nonzero" fill-opacity="1" /><path clip-path="url(#clip410)" d="M1722.01 210.754 L1722.01 214.782 Q1720.21 213.856 1718.26 213.393 Q1716.32 212.93 1714.24 212.93 Q1711.07 212.93 1709.47 213.902 Q1707.89 214.874 1707.89 216.819 Q1707.89 218.3 1709.03 219.157 Q1710.16 219.99 1713.59 220.754 L1715.05 221.078 Q1719.58 222.05 1721.48 223.832 Q1723.4 225.592 1723.4 228.763 Q1723.4 232.374 1720.53 234.481 Q1717.69 236.587 1712.69 236.587 Q1710.6 236.587 1708.33 236.17 Q1706.09 235.777 1703.59 234.967 L1703.59 230.569 Q1705.95 231.795 1708.24 232.42 Q1710.53 233.022 1712.78 233.022 Q1715.79 233.022 1717.41 232.004 Q1719.03 230.962 1719.03 229.087 Q1719.03 227.351 1717.85 226.425 Q1716.69 225.499 1712.73 224.643 L1711.25 224.295 Q1707.29 223.462 1705.53 221.749 Q1703.77 220.013 1703.77 217.004 Q1703.77 213.346 1706.37 211.356 Q1708.96 209.365 1713.73 209.365 Q1716.09 209.365 1718.17 209.712 Q1720.26 210.059 1722.01 210.754 Z" fill="#000000" fill-rule="nonzero" fill-opacity="1" /><path clip-path="url(#clip410)" d="M1752.36 221.888 L1752.36 223.971 L1732.78 223.971 Q1733.06 228.369 1735.42 230.684 Q1737.8 232.976 1742.04 232.976 Q1744.49 232.976 1746.78 232.374 Q1749.1 231.772 1751.37 230.569 L1751.37 234.596 Q1749.07 235.568 1746.67 236.078 Q1744.26 236.587 1741.78 236.587 Q1735.58 236.587 1731.95 232.976 Q1728.33 229.365 1728.33 223.207 Q1728.33 216.842 1731.76 213.115 Q1735.21 209.365 1741.04 209.365 Q1746.27 209.365 1749.31 212.745 Q1752.36 216.101 1752.36 221.888 M1748.1 220.638 Q1748.06 217.143 1746.13 215.059 Q1744.24 212.976 1741.09 212.976 Q1737.52 212.976 1735.37 214.99 Q1733.24 217.004 1732.92 220.661 L1748.1 220.638 Z" fill="#000000" fill-rule="nonzero" fill-opacity="1" /><path clip-path="url(#clip410)" d="M1786.16 205.962 L1779.82 223.161 L1792.52 223.161 L1786.16 205.962 M1783.52 201.356 L1788.82 201.356 L1801.99 235.916 L1797.13 235.916 L1793.98 227.05 L1778.4 227.05 L1775.26 235.916 L1770.32 235.916 L1783.52 201.356 Z" fill="#000000" fill-rule="nonzero" fill-opacity="1" /><path clip-path="url(#clip410)" d="M1807.11 230.036 L1811.99 230.036 L1811.99 235.916 L1807.11 235.916 L1807.11 230.036 M1807.11 211.402 L1811.99 211.402 L1811.99 217.282 L1807.11 217.282 L1807.11 211.402 Z" fill="#000000" fill-rule="nonzero" fill-opacity="1" /><path clip-path="url(#clip410)" d="M1841.18 232.027 L1841.18 245.777 L1836.9 245.777 L1836.9 209.99 L1841.18 209.99 L1841.18 213.925 Q1842.52 211.61 1844.56 210.499 Q1846.62 209.365 1849.47 209.365 Q1854.19 209.365 1857.13 213.115 Q1860.09 216.865 1860.09 222.976 Q1860.09 229.087 1857.13 232.837 Q1854.19 236.587 1849.47 236.587 Q1846.62 236.587 1844.56 235.476 Q1842.52 234.342 1841.18 232.027 M1855.67 222.976 Q1855.67 218.277 1853.73 215.615 Q1851.81 212.93 1848.43 212.93 Q1845.05 212.93 1843.1 215.615 Q1841.18 218.277 1841.18 222.976 Q1841.18 227.675 1843.1 230.36 Q1845.05 233.022 1848.43 233.022 Q1851.81 233.022 1853.73 230.36 Q1855.67 227.675 1855.67 222.976 Z" fill="#000000" fill-rule="nonzero" fill-opacity="1" /><path clip-path="url(#clip410)" d="M1882.18 213.971 Q1881.46 213.555 1880.6 213.37 Q1879.77 213.161 1878.75 213.161 Q1875.14 213.161 1873.19 215.522 Q1871.27 217.86 1871.27 222.258 L1871.27 235.916 L1866.99 235.916 L1866.99 209.99 L1871.27 209.99 L1871.27 214.018 Q1872.62 211.657 1874.77 210.522 Q1876.92 209.365 1880 209.365 Q1880.44 209.365 1880.97 209.434 Q1881.5 209.481 1882.15 209.596 L1882.18 213.971 Z" fill="#000000" fill-rule="nonzero" fill-opacity="1" /><path clip-path="url(#clip410)" d="M1907.78 221.888 L1907.78 223.971 L1888.19 223.971 Q1888.47 228.369 1890.83 230.684 Q1893.22 232.976 1897.45 232.976 Q1899.91 232.976 1902.2 232.374 Q1904.51 231.772 1906.78 230.569 L1906.78 234.596 Q1904.49 235.568 1902.08 236.078 Q1899.68 236.587 1897.2 236.587 Q1891 236.587 1887.36 232.976 Q1883.75 229.365 1883.75 223.207 Q1883.75 216.842 1887.18 213.115 Q1890.62 209.365 1896.46 209.365 Q1901.69 209.365 1904.72 212.745 Q1907.78 216.101 1907.78 221.888 M1903.52 220.638 Q1903.47 217.143 1901.55 215.059 Q1899.65 212.976 1896.5 212.976 Q1892.94 212.976 1890.79 214.99 Q1888.66 217.004 1888.33 220.661 L1903.52 220.638 Z" fill="#000000" fill-rule="nonzero" fill-opacity="1" /><path clip-path="url(#clip410)" d="M1931.3 210.754 L1931.3 214.782 Q1929.49 213.856 1927.55 213.393 Q1925.6 212.93 1923.52 212.93 Q1920.35 212.93 1918.75 213.902 Q1917.18 214.874 1917.18 216.819 Q1917.18 218.3 1918.31 219.157 Q1919.44 219.99 1922.87 220.754 L1924.33 221.078 Q1928.87 222.05 1930.76 223.832 Q1932.68 225.592 1932.68 228.763 Q1932.68 232.374 1929.81 234.481 Q1926.97 236.587 1921.97 236.587 Q1919.88 236.587 1917.62 236.17 Q1915.37 235.777 1912.87 234.967 L1912.87 230.569 Q1915.23 231.795 1917.52 232.42 Q1919.81 233.022 1922.06 233.022 Q1925.07 233.022 1926.69 232.004 Q1928.31 230.962 1928.31 229.087 Q1928.31 227.351 1927.13 226.425 Q1925.97 225.499 1922.01 224.643 L1920.53 224.295 Q1916.57 223.462 1914.81 221.749 Q1913.06 220.013 1913.06 217.004 Q1913.06 213.346 1915.65 211.356 Q1918.24 209.365 1923.01 209.365 Q1925.37 209.365 1927.45 209.712 Q1929.54 210.059 1931.3 210.754 Z" fill="#000000" fill-rule="nonzero" fill-opacity="1" /><path clip-path="url(#clip410)" d="M1958.12 210.985 L1958.12 214.967 Q1956.32 213.971 1954.49 213.485 Q1952.68 212.976 1950.83 212.976 Q1946.69 212.976 1944.4 215.615 Q1942.11 218.231 1942.11 222.976 Q1942.11 227.721 1944.4 230.36 Q1946.69 232.976 1950.83 232.976 Q1952.68 232.976 1954.49 232.49 Q1956.32 231.981 1958.12 230.985 L1958.12 234.92 Q1956.34 235.754 1954.42 236.17 Q1952.52 236.587 1950.37 236.587 Q1944.51 236.587 1941.06 232.906 Q1937.62 229.226 1937.62 222.976 Q1937.62 216.633 1941.09 212.999 Q1944.58 209.365 1950.65 209.365 Q1952.62 209.365 1954.49 209.782 Q1956.37 210.175 1958.12 210.985 Z" fill="#000000" fill-rule="nonzero" fill-opacity="1" /><path clip-path="url(#clip410)" d="M1980.55 213.971 Q1979.84 213.555 1978.98 213.37 Q1978.15 213.161 1977.13 213.161 Q1973.52 213.161 1971.57 215.522 Q1969.65 217.86 1969.65 222.258 L1969.65 235.916 L1965.37 235.916 L1965.37 209.99 L1969.65 209.99 L1969.65 214.018 Q1970.99 211.657 1973.15 210.522 Q1975.3 209.365 1978.38 209.365 Q1978.82 209.365 1979.35 209.434 Q1979.88 209.481 1980.53 209.596 L1980.55 213.971 Z" fill="#000000" fill-rule="nonzero" fill-opacity="1" /><path clip-path="url(#clip410)" d="M1985.02 209.99 L1989.28 209.99 L1989.28 235.916 L1985.02 235.916 L1985.02 209.99 M1985.02 199.897 L1989.28 199.897 L1989.28 205.291 L1985.02 205.291 L1985.02 199.897 Z" fill="#000000" fill-rule="nonzero" fill-opacity="1" /><path clip-path="url(#clip410)" d="M2016.8 222.976 Q2016.8 218.277 2014.86 215.615 Q2012.94 212.93 2009.56 212.93 Q2006.18 212.93 2004.24 215.615 Q2002.31 218.277 2002.31 222.976 Q2002.31 227.675 2004.24 230.36 Q2006.18 233.022 2009.56 233.022 Q2012.94 233.022 2014.86 230.36 Q2016.8 227.675 2016.8 222.976 M2002.31 213.925 Q2003.66 211.61 2005.69 210.499 Q2007.75 209.365 2010.6 209.365 Q2015.32 209.365 2018.26 213.115 Q2021.23 216.865 2021.23 222.976 Q2021.23 229.087 2018.26 232.837 Q2015.32 236.587 2010.6 236.587 Q2007.75 236.587 2005.69 235.476 Q2003.66 234.342 2002.31 232.027 L2002.31 235.916 L1998.03 235.916 L1998.03 199.897 L2002.31 199.897 L2002.31 213.925 Z" fill="#000000" fill-rule="nonzero" fill-opacity="1" /><path clip-path="url(#clip410)" d="M2050.46 221.888 L2050.46 223.971 L2030.88 223.971 Q2031.16 228.369 2033.52 230.684 Q2035.9 232.976 2040.14 232.976 Q2042.59 232.976 2044.88 232.374 Q2047.2 231.772 2049.47 230.569 L2049.47 234.596 Q2047.17 235.568 2044.77 236.078 Q2042.36 236.587 2039.88 236.587 Q2033.68 236.587 2030.05 232.976 Q2026.43 229.365 2026.43 223.207 Q2026.43 216.842 2029.86 213.115 Q2033.31 209.365 2039.14 209.365 Q2044.37 209.365 2047.41 212.745 Q2050.46 216.101 2050.46 221.888 M2046.2 220.638 Q2046.16 217.143 2044.24 215.059 Q2042.34 212.976 2039.19 212.976 Q2035.62 212.976 2033.47 214.99 Q2031.34 217.004 2031.02 220.661 L2046.2 220.638 Z" fill="#000000" fill-rule="nonzero" fill-opacity="1" /><path clip-path="url(#clip410)" d="M2074.51 213.925 L2074.51 199.897 L2078.77 199.897 L2078.77 235.916 L2074.51 235.916 L2074.51 232.027 Q2073.17 234.342 2071.11 235.476 Q2069.07 236.587 2066.2 236.587 Q2061.5 236.587 2058.54 232.837 Q2055.6 229.087 2055.6 222.976 Q2055.6 216.865 2058.54 213.115 Q2061.5 209.365 2066.2 209.365 Q2069.07 209.365 2071.11 210.499 Q2073.17 211.61 2074.51 213.925 M2060 222.976 Q2060 227.675 2061.92 230.36 Q2063.86 233.022 2067.24 233.022 Q2070.62 233.022 2072.57 230.36 Q2074.51 227.675 2074.51 222.976 Q2074.51 218.277 2072.57 215.615 Q2070.62 212.93 2067.24 212.93 Q2063.86 212.93 2061.92 215.615 Q2060 218.277 2060 222.976 Z" fill="#000000" fill-rule="nonzero" fill-opacity="1" /><path clip-path="url(#clip410)" d="M2114.4 222.883 Q2109.23 222.883 2107.24 224.064 Q2105.25 225.244 2105.25 228.092 Q2105.25 230.36 2106.73 231.703 Q2108.24 233.022 2110.81 233.022 Q2114.35 233.022 2116.48 230.522 Q2118.63 227.999 2118.63 223.832 L2118.63 222.883 L2114.4 222.883 M2122.89 221.124 L2122.89 235.916 L2118.63 235.916 L2118.63 231.981 Q2117.17 234.342 2115 235.476 Q2112.82 236.587 2109.67 236.587 Q2105.69 236.587 2103.33 234.365 Q2100.99 232.119 2100.99 228.369 Q2100.99 223.994 2103.91 221.772 Q2106.85 219.55 2112.66 219.55 L2118.63 219.55 L2118.63 219.133 Q2118.63 216.194 2116.69 214.596 Q2114.77 212.976 2111.27 212.976 Q2109.05 212.976 2106.94 213.508 Q2104.84 214.041 2102.89 215.106 L2102.89 211.17 Q2105.23 210.268 2107.43 209.828 Q2109.63 209.365 2111.71 209.365 Q2117.34 209.365 2120.11 212.282 Q2122.89 215.198 2122.89 221.124 Z" fill="#000000" fill-rule="nonzero" fill-opacity="1" /><path clip-path="url(#clip410)" d="M2153.22 220.268 L2153.22 235.916 L2148.96 235.916 L2148.96 220.407 Q2148.96 216.726 2147.52 214.897 Q2146.09 213.069 2143.22 213.069 Q2139.77 213.069 2137.78 215.268 Q2135.79 217.467 2135.79 221.263 L2135.79 235.916 L2131.5 235.916 L2131.5 209.99 L2135.79 209.99 L2135.79 214.018 Q2137.31 211.68 2139.37 210.522 Q2141.46 209.365 2144.17 209.365 Q2148.63 209.365 2150.92 212.143 Q2153.22 214.897 2153.22 220.268 Z" fill="#000000" fill-rule="nonzero" fill-opacity="1" /><path clip-path="url(#clip410)" d="M2178.77 222.652 Q2178.77 218.022 2176.85 215.476 Q2174.95 212.93 2171.5 212.93 Q2168.08 212.93 2166.16 215.476 Q2164.26 218.022 2164.26 222.652 Q2164.26 227.258 2166.16 229.805 Q2168.08 232.351 2171.5 232.351 Q2174.95 232.351 2176.85 229.805 Q2178.77 227.258 2178.77 222.652 M2183.03 232.698 Q2183.03 239.318 2180.09 242.536 Q2177.15 245.777 2171.09 245.777 Q2168.84 245.777 2166.85 245.43 Q2164.86 245.105 2162.98 244.411 L2162.98 240.268 Q2164.86 241.286 2166.69 241.772 Q2168.52 242.258 2170.41 242.258 Q2174.6 242.258 2176.69 240.059 Q2178.77 237.883 2178.77 233.462 L2178.77 231.356 Q2177.45 233.647 2175.39 234.781 Q2173.33 235.916 2170.46 235.916 Q2165.69 235.916 2162.78 232.281 Q2159.86 228.647 2159.86 222.652 Q2159.86 216.633 2162.78 212.999 Q2165.69 209.365 2170.46 209.365 Q2173.33 209.365 2175.39 210.499 Q2177.45 211.633 2178.77 213.925 L2178.77 209.99 L2183.03 209.99 L2183.03 232.698 Z" fill="#000000" fill-rule="nonzero" fill-opacity="1" /><path clip-path="url(#clip410)" d="M2191.8 199.897 L2196.06 199.897 L2196.06 235.916 L2191.8 235.916 L2191.8 199.897 Z" fill="#000000" fill-rule="nonzero" fill-opacity="1" /><path clip-path="url(#clip410)" d="M2227.15 221.888 L2227.15 223.971 L2207.57 223.971 Q2207.85 228.369 2210.21 230.684 Q2212.59 232.976 2216.83 232.976 Q2219.28 232.976 2221.57 232.374 Q2223.89 231.772 2226.16 230.569 L2226.16 234.596 Q2223.86 235.568 2221.46 236.078 Q2219.05 236.587 2216.57 236.587 Q2210.37 236.587 2206.73 232.976 Q2203.12 229.365 2203.12 223.207 Q2203.12 216.842 2206.55 213.115 Q2210 209.365 2215.83 209.365 Q2221.06 209.365 2224.1 212.745 Q2227.15 216.101 2227.15 221.888 M2222.89 220.638 Q2222.85 217.143 2220.92 215.059 Q2219.03 212.976 2215.88 212.976 Q2212.31 212.976 2210.16 214.99 Q2208.03 217.004 2207.71 220.661 L2222.89 220.638 Z" fill="#000000" fill-rule="nonzero" fill-opacity="1" /><polyline clip-path="url(#clip410)" style="stroke:#e26f46; stroke-linecap:round; stroke-linejoin:round; stroke-width:8; stroke-opacity:1; fill:none" points="1475.64,270.476 1617.83,270.476 "/>
<path clip-path="url(#clip410)" d="M1669.4 255.858 L1669.4 260.788 Q1667.04 258.589 1664.35 257.501 Q1661.69 256.413 1658.68 256.413 Q1652.76 256.413 1649.61 260.048 Q1646.46 263.659 1646.46 270.51 Q1646.46 277.339 1649.61 280.973 Q1652.76 284.584 1658.68 284.584 Q1661.69 284.584 1664.35 283.496 Q1667.04 282.409 1669.4 280.209 L1669.4 285.094 Q1666.95 286.76 1664.19 287.594 Q1661.46 288.427 1658.4 288.427 Q1650.56 288.427 1646.04 283.635 Q1641.53 278.821 1641.53 270.51 Q1641.53 262.177 1646.04 257.386 Q1650.56 252.571 1658.4 252.571 Q1661.51 252.571 1664.24 253.404 Q1666.99 254.214 1669.4 255.858 Z" fill="#000000" fill-rule="nonzero" fill-opacity="1" /><path clip-path="url(#clip410)" d="M1688.22 274.723 Q1683.06 274.723 1681.07 275.904 Q1679.08 277.084 1679.08 279.932 Q1679.08 282.2 1680.56 283.543 Q1682.06 284.862 1684.63 284.862 Q1688.17 284.862 1690.3 282.362 Q1692.45 279.839 1692.45 275.672 L1692.45 274.723 L1688.22 274.723 M1696.71 272.964 L1696.71 287.756 L1692.45 287.756 L1692.45 283.821 Q1691 286.182 1688.82 287.316 Q1686.64 288.427 1683.5 288.427 Q1679.51 288.427 1677.15 286.205 Q1674.82 283.959 1674.82 280.209 Q1674.82 275.834 1677.73 273.612 Q1680.67 271.39 1686.48 271.39 L1692.45 271.39 L1692.45 270.973 Q1692.45 268.034 1690.51 266.436 Q1688.59 264.816 1685.09 264.816 Q1682.87 264.816 1680.76 265.348 Q1678.66 265.881 1676.71 266.946 L1676.71 263.01 Q1679.05 262.108 1681.25 261.668 Q1683.45 261.205 1685.53 261.205 Q1691.16 261.205 1693.94 264.122 Q1696.71 267.038 1696.71 272.964 Z" fill="#000000" fill-rule="nonzero" fill-opacity="1" /><path clip-path="url(#clip410)" d="M1722.01 262.594 L1722.01 266.622 Q1720.21 265.696 1718.26 265.233 Q1716.32 264.77 1714.24 264.77 Q1711.07 264.77 1709.47 265.742 Q1707.89 266.714 1707.89 268.659 Q1707.89 270.14 1709.03 270.997 Q1710.16 271.83 1713.59 272.594 L1715.05 272.918 Q1719.58 273.89 1721.48 275.672 Q1723.4 277.432 1723.4 280.603 Q1723.4 284.214 1720.53 286.321 Q1717.69 288.427 1712.69 288.427 Q1710.6 288.427 1708.33 288.01 Q1706.09 287.617 1703.59 286.807 L1703.59 282.409 Q1705.95 283.635 1708.24 284.26 Q1710.53 284.862 1712.78 284.862 Q1715.79 284.862 1717.41 283.844 Q1719.03 282.802 1719.03 280.927 Q1719.03 279.191 1717.85 278.265 Q1716.69 277.339 1712.73 276.483 L1711.25 276.135 Q1707.29 275.302 1705.53 273.589 Q1703.77 271.853 1703.77 268.844 Q1703.77 265.186 1706.37 263.196 Q1708.96 261.205 1713.73 261.205 Q1716.09 261.205 1718.17 261.552 Q1720.26 261.899 1722.01 262.594 Z" fill="#000000" fill-rule="nonzero" fill-opacity="1" /><path clip-path="url(#clip410)" d="M1752.36 273.728 L1752.36 275.811 L1732.78 275.811 Q1733.06 280.209 1735.42 282.524 Q1737.8 284.816 1742.04 284.816 Q1744.49 284.816 1746.78 284.214 Q1749.1 283.612 1751.37 282.409 L1751.37 286.436 Q1749.07 287.408 1746.67 287.918 Q1744.26 288.427 1741.78 288.427 Q1735.58 288.427 1731.95 284.816 Q1728.33 281.205 1728.33 275.047 Q1728.33 268.682 1731.76 264.955 Q1735.21 261.205 1741.04 261.205 Q1746.27 261.205 1749.31 264.585 Q1752.36 267.941 1752.36 273.728 M1748.1 272.478 Q1748.06 268.983 1746.13 266.899 Q1744.24 264.816 1741.09 264.816 Q1737.52 264.816 1735.37 266.83 Q1733.24 268.844 1732.92 272.501 L1748.1 272.478 Z" fill="#000000" fill-rule="nonzero" fill-opacity="1" /><path clip-path="url(#clip410)" d="M1779.28 271.251 L1779.28 283.913 L1786.78 283.913 Q1790.56 283.913 1792.36 282.362 Q1794.19 280.788 1794.19 277.571 Q1794.19 274.33 1792.36 272.802 Q1790.56 271.251 1786.78 271.251 L1779.28 271.251 M1779.28 257.038 L1779.28 267.455 L1786.2 267.455 Q1789.63 267.455 1791.3 266.182 Q1792.99 264.885 1792.99 262.247 Q1792.99 259.631 1791.3 258.335 Q1789.63 257.038 1786.2 257.038 L1779.28 257.038 M1774.61 253.196 L1786.55 253.196 Q1791.9 253.196 1794.79 255.418 Q1797.69 257.64 1797.69 261.737 Q1797.69 264.909 1796.2 266.784 Q1794.72 268.659 1791.85 269.122 Q1795.3 269.862 1797.2 272.223 Q1799.12 274.561 1799.12 278.08 Q1799.12 282.709 1795.97 285.233 Q1792.82 287.756 1787.01 287.756 L1774.61 287.756 L1774.61 253.196 Z" fill="#000000" fill-rule="nonzero" fill-opacity="1" /><path clip-path="url(#clip410)" d="M1808.03 281.876 L1812.92 281.876 L1812.92 287.756 L1808.03 287.756 L1808.03 281.876 M1808.03 263.242 L1812.92 263.242 L1812.92 269.122 L1808.03 269.122 L1808.03 263.242 Z" fill="#000000" fill-rule="nonzero" fill-opacity="1" /><path clip-path="url(#clip410)" d="M1842.11 283.867 L1842.11 297.617 L1837.82 297.617 L1837.82 261.83 L1842.11 261.83 L1842.11 265.765 Q1843.45 263.45 1845.49 262.339 Q1847.55 261.205 1850.39 261.205 Q1855.12 261.205 1858.06 264.955 Q1861.02 268.705 1861.02 274.816 Q1861.02 280.927 1858.06 284.677 Q1855.12 288.427 1850.39 288.427 Q1847.55 288.427 1845.49 287.316 Q1843.45 286.182 1842.11 283.867 M1856.6 274.816 Q1856.6 270.117 1854.65 267.455 Q1852.73 264.77 1849.35 264.77 Q1845.97 264.77 1844.03 267.455 Q1842.11 270.117 1842.11 274.816 Q1842.11 279.515 1844.03 282.2 Q1845.97 284.862 1849.35 284.862 Q1852.73 284.862 1854.65 282.2 Q1856.6 279.515 1856.6 274.816 Z" fill="#000000" fill-rule="nonzero" fill-opacity="1" /><path clip-path="url(#clip410)" d="M1883.1 265.811 Q1882.38 265.395 1881.53 265.21 Q1880.69 265.001 1879.68 265.001 Q1876.06 265.001 1874.12 267.362 Q1872.2 269.7 1872.2 274.098 L1872.2 287.756 L1867.92 287.756 L1867.92 261.83 L1872.2 261.83 L1872.2 265.858 Q1873.54 263.497 1875.69 262.362 Q1877.85 261.205 1880.93 261.205 Q1881.37 261.205 1881.9 261.274 Q1882.43 261.321 1883.08 261.436 L1883.1 265.811 Z" fill="#000000" fill-rule="nonzero" fill-opacity="1" /><path clip-path="url(#clip410)" d="M1908.7 273.728 L1908.7 275.811 L1889.12 275.811 Q1889.4 280.209 1891.76 282.524 Q1894.14 284.816 1898.38 284.816 Q1900.83 284.816 1903.12 284.214 Q1905.44 283.612 1907.71 282.409 L1907.71 286.436 Q1905.42 287.408 1903.01 287.918 Q1900.6 288.427 1898.12 288.427 Q1891.92 288.427 1888.29 284.816 Q1884.68 281.205 1884.68 275.047 Q1884.68 268.682 1888.1 264.955 Q1891.55 261.205 1897.38 261.205 Q1902.62 261.205 1905.65 264.585 Q1908.7 267.941 1908.7 273.728 M1904.44 272.478 Q1904.4 268.983 1902.48 266.899 Q1900.58 264.816 1897.43 264.816 Q1893.87 264.816 1891.71 266.83 Q1889.58 268.844 1889.26 272.501 L1904.44 272.478 Z" fill="#000000" fill-rule="nonzero" fill-opacity="1" /><path clip-path="url(#clip410)" d="M1932.22 262.594 L1932.22 266.622 Q1930.42 265.696 1928.47 265.233 Q1926.53 264.77 1924.44 264.77 Q1921.27 264.77 1919.68 265.742 Q1918.1 266.714 1918.1 268.659 Q1918.1 270.14 1919.24 270.997 Q1920.37 271.83 1923.8 272.594 L1925.25 272.918 Q1929.79 273.89 1931.69 275.672 Q1933.61 277.432 1933.61 280.603 Q1933.61 284.214 1930.74 286.321 Q1927.89 288.427 1922.89 288.427 Q1920.81 288.427 1918.54 288.01 Q1916.3 287.617 1913.8 286.807 L1913.8 282.409 Q1916.16 283.635 1918.45 284.26 Q1920.74 284.862 1922.99 284.862 Q1925.99 284.862 1927.62 283.844 Q1929.24 282.802 1929.24 280.927 Q1929.24 279.191 1928.06 278.265 Q1926.9 277.339 1922.94 276.483 L1921.46 276.135 Q1917.5 275.302 1915.74 273.589 Q1913.98 271.853 1913.98 268.844 Q1913.98 265.186 1916.57 263.196 Q1919.17 261.205 1923.93 261.205 Q1926.3 261.205 1928.38 261.552 Q1930.46 261.899 1932.22 262.594 Z" fill="#000000" fill-rule="nonzero" fill-opacity="1" /><path clip-path="url(#clip410)" d="M1959.05 262.825 L1959.05 266.807 Q1957.24 265.811 1955.42 265.325 Q1953.61 264.816 1951.76 264.816 Q1947.62 264.816 1945.32 267.455 Q1943.03 270.071 1943.03 274.816 Q1943.03 279.561 1945.32 282.2 Q1947.62 284.816 1951.76 284.816 Q1953.61 284.816 1955.42 284.33 Q1957.24 283.821 1959.05 282.825 L1959.05 286.76 Q1957.27 287.594 1955.35 288.01 Q1953.45 288.427 1951.3 288.427 Q1945.44 288.427 1941.99 284.746 Q1938.54 281.066 1938.54 274.816 Q1938.54 268.473 1942.01 264.839 Q1945.51 261.205 1951.57 261.205 Q1953.54 261.205 1955.42 261.622 Q1957.29 262.015 1959.05 262.825 Z" fill="#000000" fill-rule="nonzero" fill-opacity="1" /><path clip-path="url(#clip410)" d="M1981.48 265.811 Q1980.76 265.395 1979.91 265.21 Q1979.07 265.001 1978.05 265.001 Q1974.44 265.001 1972.5 267.362 Q1970.58 269.7 1970.58 274.098 L1970.58 287.756 L1966.3 287.756 L1966.3 261.83 L1970.58 261.83 L1970.58 265.858 Q1971.92 263.497 1974.07 262.362 Q1976.23 261.205 1979.3 261.205 Q1979.74 261.205 1980.28 261.274 Q1980.81 261.321 1981.46 261.436 L1981.48 265.811 Z" fill="#000000" fill-rule="nonzero" fill-opacity="1" /><path clip-path="url(#clip410)" d="M1985.95 261.83 L1990.21 261.83 L1990.21 287.756 L1985.95 287.756 L1985.95 261.83 M1985.95 251.737 L1990.21 251.737 L1990.21 257.131 L1985.95 257.131 L1985.95 251.737 Z" fill="#000000" fill-rule="nonzero" fill-opacity="1" /><path clip-path="url(#clip410)" d="M2017.73 274.816 Q2017.73 270.117 2015.79 267.455 Q2013.86 264.77 2010.49 264.77 Q2007.11 264.77 2005.16 267.455 Q2003.24 270.117 2003.24 274.816 Q2003.24 279.515 2005.16 282.2 Q2007.11 284.862 2010.49 284.862 Q2013.86 284.862 2015.79 282.2 Q2017.73 279.515 2017.73 274.816 M2003.24 265.765 Q2004.58 263.45 2006.62 262.339 Q2008.68 261.205 2011.53 261.205 Q2016.25 261.205 2019.19 264.955 Q2022.15 268.705 2022.15 274.816 Q2022.15 280.927 2019.19 284.677 Q2016.25 288.427 2011.53 288.427 Q2008.68 288.427 2006.62 287.316 Q2004.58 286.182 2003.24 283.867 L2003.24 287.756 L1998.96 287.756 L1998.96 251.737 L2003.24 251.737 L2003.24 265.765 Z" fill="#000000" fill-rule="nonzero" fill-opacity="1" /><path clip-path="url(#clip410)" d="M2051.39 273.728 L2051.39 275.811 L2031.8 275.811 Q2032.08 280.209 2034.44 282.524 Q2036.83 284.816 2041.06 284.816 Q2043.52 284.816 2045.81 284.214 Q2048.12 283.612 2050.39 282.409 L2050.39 286.436 Q2048.1 287.408 2045.69 287.918 Q2043.29 288.427 2040.81 288.427 Q2034.61 288.427 2030.97 284.816 Q2027.36 281.205 2027.36 275.047 Q2027.36 268.682 2030.79 264.955 Q2034.24 261.205 2040.07 261.205 Q2045.3 261.205 2048.33 264.585 Q2051.39 267.941 2051.39 273.728 M2047.13 272.478 Q2047.08 268.983 2045.16 266.899 Q2043.26 264.816 2040.11 264.816 Q2036.55 264.816 2034.4 266.83 Q2032.27 268.844 2031.94 272.501 L2047.13 272.478 Z" fill="#000000" fill-rule="nonzero" fill-opacity="1" /><path clip-path="url(#clip410)" d="M2075.44 265.765 L2075.44 251.737 L2079.7 251.737 L2079.7 287.756 L2075.44 287.756 L2075.44 283.867 Q2074.1 286.182 2072.04 287.316 Q2070 288.427 2067.13 288.427 Q2062.43 288.427 2059.47 284.677 Q2056.53 280.927 2056.53 274.816 Q2056.53 268.705 2059.47 264.955 Q2062.43 261.205 2067.13 261.205 Q2070 261.205 2072.04 262.339 Q2074.1 263.45 2075.44 265.765 M2060.92 274.816 Q2060.92 279.515 2062.85 282.2 Q2064.79 284.862 2068.17 284.862 Q2071.55 284.862 2073.49 282.2 Q2075.44 279.515 2075.44 274.816 Q2075.44 270.117 2073.49 267.455 Q2071.55 264.77 2068.17 264.77 Q2064.79 264.77 2062.85 267.455 Q2060.92 270.117 2060.92 274.816 Z" fill="#000000" fill-rule="nonzero" fill-opacity="1" /><path clip-path="url(#clip410)" d="M2103.38 251.737 L2107.66 251.737 L2107.66 273.01 L2120.37 261.83 L2125.81 261.83 L2112.06 273.959 L2126.39 287.756 L2120.83 287.756 L2107.66 275.094 L2107.66 287.756 L2103.38 287.756 L2103.38 251.737 Z" fill="#000000" fill-rule="nonzero" fill-opacity="1" /><path clip-path="url(#clip410)" d="M2152.54 272.108 L2152.54 287.756 L2148.29 287.756 L2148.29 272.247 Q2148.29 268.566 2146.85 266.737 Q2145.42 264.909 2142.54 264.909 Q2139.1 264.909 2137.1 267.108 Q2135.11 269.307 2135.11 273.103 L2135.11 287.756 L2130.83 287.756 L2130.83 261.83 L2135.11 261.83 L2135.11 265.858 Q2136.64 263.52 2138.7 262.362 Q2140.79 261.205 2143.49 261.205 Q2147.96 261.205 2150.25 263.983 Q2152.54 266.737 2152.54 272.108 Z" fill="#000000" fill-rule="nonzero" fill-opacity="1" /><path clip-path="url(#clip410)" d="M2171.09 264.816 Q2167.66 264.816 2165.67 267.501 Q2163.68 270.163 2163.68 274.816 Q2163.68 279.469 2165.65 282.154 Q2167.64 284.816 2171.09 284.816 Q2174.49 284.816 2176.48 282.131 Q2178.47 279.446 2178.47 274.816 Q2178.47 270.21 2176.48 267.524 Q2174.49 264.816 2171.09 264.816 M2171.09 261.205 Q2176.64 261.205 2179.81 264.816 Q2182.98 268.427 2182.98 274.816 Q2182.98 281.182 2179.81 284.816 Q2176.64 288.427 2171.09 288.427 Q2165.51 288.427 2162.34 284.816 Q2159.19 281.182 2159.19 274.816 Q2159.19 268.427 2162.34 264.816 Q2165.51 261.205 2171.09 261.205 Z" fill="#000000" fill-rule="nonzero" fill-opacity="1" /><path clip-path="url(#clip410)" d="M2208.66 274.816 Q2208.66 270.117 2206.71 267.455 Q2204.79 264.77 2201.41 264.77 Q2198.03 264.77 2196.09 267.455 Q2194.16 270.117 2194.16 274.816 Q2194.16 279.515 2196.09 282.2 Q2198.03 284.862 2201.41 284.862 Q2204.79 284.862 2206.71 282.2 Q2208.66 279.515 2208.66 274.816 M2194.16 265.765 Q2195.51 263.45 2197.54 262.339 Q2199.6 261.205 2202.45 261.205 Q2207.17 261.205 2210.11 264.955 Q2213.08 268.705 2213.08 274.816 Q2213.08 280.927 2210.11 284.677 Q2207.17 288.427 2202.45 288.427 Q2199.6 288.427 2197.54 287.316 Q2195.51 286.182 2194.16 283.867 L2194.16 287.756 L2189.88 287.756 L2189.88 251.737 L2194.16 251.737 L2194.16 265.765 Z" fill="#000000" fill-rule="nonzero" fill-opacity="1" /><path clip-path="url(#clip410)" d="M2256.76 261.83 L2247.38 274.446 L2257.24 287.756 L2252.22 287.756 L2244.67 277.571 L2237.13 287.756 L2232.1 287.756 L2242.17 274.191 L2232.96 261.83 L2237.98 261.83 L2244.86 271.066 L2251.73 261.83 L2256.76 261.83 Z" fill="#000000" fill-rule="nonzero" fill-opacity="1" /><polyline clip-path="url(#clip410)" style="stroke:#3da44d; stroke-linecap:round; stroke-linejoin:round; stroke-width:8; stroke-opacity:1; fill:none" points="1475.64,322.316 1617.83,322.316 "/>
<path clip-path="url(#clip410)" d="M1669.4 307.698 L1669.4 312.628 Q1667.04 310.429 1664.35 309.341 Q1661.69 308.253 1658.68 308.253 Q1652.76 308.253 1649.61 311.888 Q1646.46 315.499 1646.46 322.35 Q1646.46 329.179 1649.61 332.813 Q1652.76 336.424 1658.68 336.424 Q1661.69 336.424 1664.35 335.336 Q1667.04 334.249 1669.4 332.049 L1669.4 336.934 Q1666.95 338.6 1664.19 339.434 Q1661.46 340.267 1658.4 340.267 Q1650.56 340.267 1646.04 335.475 Q1641.53 330.661 1641.53 322.35 Q1641.53 314.017 1646.04 309.226 Q1650.56 304.411 1658.4 304.411 Q1661.51 304.411 1664.24 305.244 Q1666.99 306.054 1669.4 307.698 Z" fill="#000000" fill-rule="nonzero" fill-opacity="1" /><path clip-path="url(#clip410)" d="M1688.22 326.563 Q1683.06 326.563 1681.07 327.744 Q1679.08 328.924 1679.08 331.772 Q1679.08 334.04 1680.56 335.383 Q1682.06 336.702 1684.63 336.702 Q1688.17 336.702 1690.3 334.202 Q1692.45 331.679 1692.45 327.512 L1692.45 326.563 L1688.22 326.563 M1696.71 324.804 L1696.71 339.596 L1692.45 339.596 L1692.45 335.661 Q1691 338.022 1688.82 339.156 Q1686.64 340.267 1683.5 340.267 Q1679.51 340.267 1677.15 338.045 Q1674.82 335.799 1674.82 332.049 Q1674.82 327.674 1677.73 325.452 Q1680.67 323.23 1686.48 323.23 L1692.45 323.23 L1692.45 322.813 Q1692.45 319.874 1690.51 318.276 Q1688.59 316.656 1685.09 316.656 Q1682.87 316.656 1680.76 317.188 Q1678.66 317.721 1676.71 318.786 L1676.71 314.85 Q1679.05 313.948 1681.25 313.508 Q1683.45 313.045 1685.53 313.045 Q1691.16 313.045 1693.94 315.962 Q1696.71 318.878 1696.71 324.804 Z" fill="#000000" fill-rule="nonzero" fill-opacity="1" /><path clip-path="url(#clip410)" d="M1722.01 314.434 L1722.01 318.462 Q1720.21 317.536 1718.26 317.073 Q1716.32 316.61 1714.24 316.61 Q1711.07 316.61 1709.47 317.582 Q1707.89 318.554 1707.89 320.499 Q1707.89 321.98 1709.03 322.837 Q1710.16 323.67 1713.59 324.434 L1715.05 324.758 Q1719.58 325.73 1721.48 327.512 Q1723.4 329.272 1723.4 332.443 Q1723.4 336.054 1720.53 338.161 Q1717.69 340.267 1712.69 340.267 Q1710.6 340.267 1708.33 339.85 Q1706.09 339.457 1703.59 338.647 L1703.59 334.249 Q1705.95 335.475 1708.24 336.1 Q1710.53 336.702 1712.78 336.702 Q1715.79 336.702 1717.41 335.684 Q1719.03 334.642 1719.03 332.767 Q1719.03 331.031 1717.85 330.105 Q1716.69 329.179 1712.73 328.323 L1711.25 327.975 Q1707.29 327.142 1705.53 325.429 Q1703.77 323.693 1703.77 320.684 Q1703.77 317.026 1706.37 315.036 Q1708.96 313.045 1713.73 313.045 Q1716.09 313.045 1718.17 313.392 Q1720.26 313.739 1722.01 314.434 Z" fill="#000000" fill-rule="nonzero" fill-opacity="1" /><path clip-path="url(#clip410)" d="M1752.36 325.568 L1752.36 327.651 L1732.78 327.651 Q1733.06 332.049 1735.42 334.364 Q1737.8 336.656 1742.04 336.656 Q1744.49 336.656 1746.78 336.054 Q1749.1 335.452 1751.37 334.249 L1751.37 338.276 Q1749.07 339.248 1746.67 339.758 Q1744.26 340.267 1741.78 340.267 Q1735.58 340.267 1731.95 336.656 Q1728.33 333.045 1728.33 326.887 Q1728.33 320.522 1731.76 316.795 Q1735.21 313.045 1741.04 313.045 Q1746.27 313.045 1749.31 316.425 Q1752.36 319.781 1752.36 325.568 M1748.1 324.318 Q1748.06 320.823 1746.13 318.739 Q1744.24 316.656 1741.09 316.656 Q1737.52 316.656 1735.37 318.67 Q1733.24 320.684 1732.92 324.341 L1748.1 324.318 Z" fill="#000000" fill-rule="nonzero" fill-opacity="1" /><path clip-path="url(#clip410)" d="M1800.49 307.698 L1800.49 312.628 Q1798.13 310.429 1795.44 309.341 Q1792.78 308.253 1789.77 308.253 Q1783.84 308.253 1780.69 311.888 Q1777.55 315.499 1777.55 322.35 Q1777.55 329.179 1780.69 332.813 Q1783.84 336.424 1789.77 336.424 Q1792.78 336.424 1795.44 335.336 Q1798.13 334.249 1800.49 332.049 L1800.49 336.934 Q1798.03 338.6 1795.28 339.434 Q1792.55 340.267 1789.49 340.267 Q1781.64 340.267 1777.13 335.475 Q1772.62 330.661 1772.62 322.35 Q1772.62 314.017 1777.13 309.226 Q1781.64 304.411 1789.49 304.411 Q1792.59 304.411 1795.32 305.244 Q1798.08 306.054 1800.49 307.698 Z" fill="#000000" fill-rule="nonzero" fill-opacity="1" /><path clip-path="url(#clip410)" d="M1808.61 333.716 L1813.5 333.716 L1813.5 339.596 L1808.61 339.596 L1808.61 333.716 M1808.61 315.082 L1813.5 315.082 L1813.5 320.962 L1808.61 320.962 L1808.61 315.082 Z" fill="#000000" fill-rule="nonzero" fill-opacity="1" /><path clip-path="url(#clip410)" d="M1842.69 335.707 L1842.69 349.457 L1838.4 349.457 L1838.4 313.67 L1842.69 313.67 L1842.69 317.605 Q1844.03 315.29 1846.06 314.179 Q1848.13 313.045 1850.97 313.045 Q1855.69 313.045 1858.63 316.795 Q1861.6 320.545 1861.6 326.656 Q1861.6 332.767 1858.63 336.517 Q1855.69 340.267 1850.97 340.267 Q1848.13 340.267 1846.06 339.156 Q1844.03 338.022 1842.69 335.707 M1857.18 326.656 Q1857.18 321.957 1855.23 319.295 Q1853.31 316.61 1849.93 316.61 Q1846.55 316.61 1844.61 319.295 Q1842.69 321.957 1842.69 326.656 Q1842.69 331.355 1844.61 334.04 Q1846.55 336.702 1849.93 336.702 Q1853.31 336.702 1855.23 334.04 Q1857.18 331.355 1857.18 326.656 Z" fill="#000000" fill-rule="nonzero" fill-opacity="1" /><path clip-path="url(#clip410)" d="M1883.68 317.651 Q1882.96 317.235 1882.11 317.05 Q1881.27 316.841 1880.25 316.841 Q1876.64 316.841 1874.7 319.202 Q1872.78 321.54 1872.78 325.938 L1872.78 339.596 L1868.5 339.596 L1868.5 313.67 L1872.78 313.67 L1872.78 317.698 Q1874.12 315.337 1876.27 314.202 Q1878.43 313.045 1881.5 313.045 Q1881.94 313.045 1882.48 313.114 Q1883.01 313.161 1883.66 313.276 L1883.68 317.651 Z" fill="#000000" fill-rule="nonzero" fill-opacity="1" /><path clip-path="url(#clip410)" d="M1909.28 325.568 L1909.28 327.651 L1889.7 327.651 Q1889.98 332.049 1892.34 334.364 Q1894.72 336.656 1898.96 336.656 Q1901.41 336.656 1903.7 336.054 Q1906.02 335.452 1908.29 334.249 L1908.29 338.276 Q1906 339.248 1903.59 339.758 Q1901.18 340.267 1898.7 340.267 Q1892.5 340.267 1888.87 336.656 Q1885.25 333.045 1885.25 326.887 Q1885.25 320.522 1888.68 316.795 Q1892.13 313.045 1897.96 313.045 Q1903.19 313.045 1906.23 316.425 Q1909.28 319.781 1909.28 325.568 M1905.02 324.318 Q1904.98 320.823 1903.06 318.739 Q1901.16 316.656 1898.01 316.656 Q1894.44 316.656 1892.29 318.67 Q1890.16 320.684 1889.84 324.341 L1905.02 324.318 Z" fill="#000000" fill-rule="nonzero" fill-opacity="1" /><path clip-path="url(#clip410)" d="M1932.8 314.434 L1932.8 318.462 Q1930.99 317.536 1929.05 317.073 Q1927.11 316.61 1925.02 316.61 Q1921.85 316.61 1920.25 317.582 Q1918.68 318.554 1918.68 320.499 Q1918.68 321.98 1919.81 322.837 Q1920.95 323.67 1924.37 324.434 L1925.83 324.758 Q1930.37 325.73 1932.27 327.512 Q1934.19 329.272 1934.19 332.443 Q1934.19 336.054 1931.32 338.161 Q1928.47 340.267 1923.47 340.267 Q1921.39 340.267 1919.12 339.85 Q1916.87 339.457 1914.37 338.647 L1914.37 334.249 Q1916.74 335.475 1919.03 336.1 Q1921.32 336.702 1923.56 336.702 Q1926.57 336.702 1928.19 335.684 Q1929.81 334.642 1929.81 332.767 Q1929.81 331.031 1928.63 330.105 Q1927.48 329.179 1923.52 328.323 L1922.04 327.975 Q1918.08 327.142 1916.32 325.429 Q1914.56 323.693 1914.56 320.684 Q1914.56 317.026 1917.15 315.036 Q1919.75 313.045 1924.51 313.045 Q1926.87 313.045 1928.96 313.392 Q1931.04 313.739 1932.8 314.434 Z" fill="#000000" fill-rule="nonzero" fill-opacity="1" /><path clip-path="url(#clip410)" d="M1959.63 314.665 L1959.63 318.647 Q1957.82 317.651 1955.99 317.165 Q1954.19 316.656 1952.34 316.656 Q1948.19 316.656 1945.9 319.295 Q1943.61 321.911 1943.61 326.656 Q1943.61 331.401 1945.9 334.04 Q1948.19 336.656 1952.34 336.656 Q1954.19 336.656 1955.99 336.17 Q1957.82 335.661 1959.63 334.665 L1959.63 338.6 Q1957.85 339.434 1955.93 339.85 Q1954.03 340.267 1951.87 340.267 Q1946.02 340.267 1942.57 336.586 Q1939.12 332.906 1939.12 326.656 Q1939.12 320.313 1942.59 316.679 Q1946.09 313.045 1952.15 313.045 Q1954.12 313.045 1955.99 313.462 Q1957.87 313.855 1959.63 314.665 Z" fill="#000000" fill-rule="nonzero" fill-opacity="1" /><path clip-path="url(#clip410)" d="M1982.06 317.651 Q1981.34 317.235 1980.49 317.05 Q1979.65 316.841 1978.63 316.841 Q1975.02 316.841 1973.08 319.202 Q1971.16 321.54 1971.16 325.938 L1971.16 339.596 L1966.87 339.596 L1966.87 313.67 L1971.16 313.67 L1971.16 317.698 Q1972.5 315.337 1974.65 314.202 Q1976.8 313.045 1979.88 313.045 Q1980.32 313.045 1980.86 313.114 Q1981.39 313.161 1982.04 313.276 L1982.06 317.651 Z" fill="#000000" fill-rule="nonzero" fill-opacity="1" /><path clip-path="url(#clip410)" d="M1986.53 313.67 L1990.79 313.67 L1990.79 339.596 L1986.53 339.596 L1986.53 313.67 M1986.53 303.577 L1990.79 303.577 L1990.79 308.971 L1986.53 308.971 L1986.53 303.577 Z" fill="#000000" fill-rule="nonzero" fill-opacity="1" /><path clip-path="url(#clip410)" d="M2018.31 326.656 Q2018.31 321.957 2016.36 319.295 Q2014.44 316.61 2011.06 316.61 Q2007.68 316.61 2005.74 319.295 Q2003.82 321.957 2003.82 326.656 Q2003.82 331.355 2005.74 334.04 Q2007.68 336.702 2011.06 336.702 Q2014.44 336.702 2016.36 334.04 Q2018.31 331.355 2018.31 326.656 M2003.82 317.605 Q2005.16 315.29 2007.2 314.179 Q2009.26 313.045 2012.11 313.045 Q2016.83 313.045 2019.77 316.795 Q2022.73 320.545 2022.73 326.656 Q2022.73 332.767 2019.77 336.517 Q2016.83 340.267 2012.11 340.267 Q2009.26 340.267 2007.2 339.156 Q2005.16 338.022 2003.82 335.707 L2003.82 339.596 L1999.54 339.596 L1999.54 303.577 L2003.82 303.577 L2003.82 317.605 Z" fill="#000000" fill-rule="nonzero" fill-opacity="1" /><path clip-path="url(#clip410)" d="M2051.97 325.568 L2051.97 327.651 L2032.38 327.651 Q2032.66 332.049 2035.02 334.364 Q2037.41 336.656 2041.64 336.656 Q2044.1 336.656 2046.39 336.054 Q2048.7 335.452 2050.97 334.249 L2050.97 338.276 Q2048.68 339.248 2046.27 339.758 Q2043.86 340.267 2041.39 340.267 Q2035.18 340.267 2031.55 336.656 Q2027.94 333.045 2027.94 326.887 Q2027.94 320.522 2031.36 316.795 Q2034.81 313.045 2040.65 313.045 Q2045.88 313.045 2048.91 316.425 Q2051.97 319.781 2051.97 325.568 M2047.71 324.318 Q2047.66 320.823 2045.74 318.739 Q2043.84 316.656 2040.69 316.656 Q2037.13 316.656 2034.98 318.67 Q2032.85 320.684 2032.52 324.341 L2047.71 324.318 Z" fill="#000000" fill-rule="nonzero" fill-opacity="1" /><path clip-path="url(#clip410)" d="M2076.02 317.605 L2076.02 303.577 L2080.28 303.577 L2080.28 339.596 L2076.02 339.596 L2076.02 335.707 Q2074.67 338.022 2072.61 339.156 Q2070.58 340.267 2067.71 340.267 Q2063.01 340.267 2060.05 336.517 Q2057.11 332.767 2057.11 326.656 Q2057.11 320.545 2060.05 316.795 Q2063.01 313.045 2067.71 313.045 Q2070.58 313.045 2072.61 314.179 Q2074.67 315.29 2076.02 317.605 M2061.5 326.656 Q2061.5 331.355 2063.42 334.04 Q2065.37 336.702 2068.75 336.702 Q2072.13 336.702 2074.07 334.04 Q2076.02 331.355 2076.02 326.656 Q2076.02 321.957 2074.07 319.295 Q2072.13 316.61 2068.75 316.61 Q2065.37 316.61 2063.42 319.295 Q2061.5 321.957 2061.5 326.656 Z" fill="#000000" fill-rule="nonzero" fill-opacity="1" /><path clip-path="url(#clip410)" d="M2103.96 303.577 L2108.24 303.577 L2108.24 324.85 L2120.95 313.67 L2126.39 313.67 L2112.64 325.799 L2126.97 339.596 L2121.41 339.596 L2108.24 326.934 L2108.24 339.596 L2103.96 339.596 L2103.96 303.577 Z" fill="#000000" fill-rule="nonzero" fill-opacity="1" /><path clip-path="url(#clip410)" d="M2153.12 323.948 L2153.12 339.596 L2148.86 339.596 L2148.86 324.087 Q2148.86 320.406 2147.43 318.577 Q2145.99 316.749 2143.12 316.749 Q2139.67 316.749 2137.68 318.948 Q2135.69 321.147 2135.69 324.943 L2135.69 339.596 L2131.41 339.596 L2131.41 313.67 L2135.69 313.67 L2135.69 317.698 Q2137.22 315.36 2139.28 314.202 Q2141.36 313.045 2144.07 313.045 Q2148.54 313.045 2150.83 315.823 Q2153.12 318.577 2153.12 323.948 Z" fill="#000000" fill-rule="nonzero" fill-opacity="1" /><path clip-path="url(#clip410)" d="M2171.66 316.656 Q2168.24 316.656 2166.25 319.341 Q2164.26 322.003 2164.26 326.656 Q2164.26 331.309 2166.23 333.994 Q2168.22 336.656 2171.66 336.656 Q2175.07 336.656 2177.06 333.971 Q2179.05 331.286 2179.05 326.656 Q2179.05 322.05 2177.06 319.364 Q2175.07 316.656 2171.66 316.656 M2171.66 313.045 Q2177.22 313.045 2180.39 316.656 Q2183.56 320.267 2183.56 326.656 Q2183.56 333.022 2180.39 336.656 Q2177.22 340.267 2171.66 340.267 Q2166.09 340.267 2162.92 336.656 Q2159.77 333.022 2159.77 326.656 Q2159.77 320.267 2162.92 316.656 Q2166.09 313.045 2171.66 313.045 Z" fill="#000000" fill-rule="nonzero" fill-opacity="1" /><path clip-path="url(#clip410)" d="M2209.23 326.656 Q2209.23 321.957 2207.29 319.295 Q2205.37 316.61 2201.99 316.61 Q2198.61 316.61 2196.66 319.295 Q2194.74 321.957 2194.74 326.656 Q2194.74 331.355 2196.66 334.04 Q2198.61 336.702 2201.99 336.702 Q2205.37 336.702 2207.29 334.04 Q2209.23 331.355 2209.23 326.656 M2194.74 317.605 Q2196.09 315.29 2198.12 314.179 Q2200.18 313.045 2203.03 313.045 Q2207.75 313.045 2210.69 316.795 Q2213.66 320.545 2213.66 326.656 Q2213.66 332.767 2210.69 336.517 Q2207.75 340.267 2203.03 340.267 Q2200.18 340.267 2198.12 339.156 Q2196.09 338.022 2194.74 335.707 L2194.74 339.596 L2190.46 339.596 L2190.46 303.577 L2194.74 303.577 L2194.74 317.605 Z" fill="#000000" fill-rule="nonzero" fill-opacity="1" /><path clip-path="url(#clip410)" d="M2246.57 342.003 Q2244.77 346.633 2243.05 348.045 Q2241.34 349.457 2238.47 349.457 L2235.07 349.457 L2235.07 345.892 L2237.57 345.892 Q2239.33 345.892 2240.3 345.059 Q2241.27 344.225 2242.45 341.123 L2243.22 339.179 L2232.73 313.67 L2237.24 313.67 L2245.35 333.948 L2253.45 313.67 L2257.96 313.67 L2246.57 342.003 Z" fill="#000000" fill-rule="nonzero" fill-opacity="1" /></svg>
