<?xml version="1.0" encoding="utf-8"?>
<svg xmlns="http://www.w3.org/2000/svg" xmlns:xlink="http://www.w3.org/1999/xlink" width="600" height="400" viewBox="0 0 2400 1600">
<defs>
  <clipPath id="clip710">
    <rect x="0" y="0" width="2400" height="1600"/>
  </clipPath>
</defs>
<path clip-path="url(#clip710)" d="M0 1600 L2400 1600 L2400 0 L0 0  Z" fill="#ffffff" fill-rule="evenodd" fill-opacity="1"/>
<defs>
  <clipPath id="clip711">
    <rect x="416" y="123" width="1301" height="1301"/>
  </clipPath>
</defs>
<path clip-path="url(#clip710)" d="M416.787 1423.18 L1716.5 1423.18 L1716.5 123.472 L416.787 123.472  Z" fill="#ffffff" fill-rule="evenodd" fill-opacity="1"/>
<polyline clip-path="url(#clip711)" style="stroke:#000000; stroke-linecap:round; stroke-linejoin:round; stroke-width:2; stroke-opacity:0.1; fill:none" points="602.46,1423.18 602.46,123.472 "/>
<polyline clip-path="url(#clip711)" style="stroke:#000000; stroke-linecap:round; stroke-linejoin:round; stroke-width:2; stroke-opacity:0.1; fill:none" points="834.551,1423.18 834.551,123.472 "/>
<polyline clip-path="url(#clip711)" style="stroke:#000000; stroke-linecap:round; stroke-linejoin:round; stroke-width:2; stroke-opacity:0.1; fill:none" points="1066.64,1423.18 1066.64,123.472 "/>
<polyline clip-path="url(#clip711)" style="stroke:#000000; stroke-linecap:round; stroke-linejoin:round; stroke-width:2; stroke-opacity:0.1; fill:none" points="1298.73,1423.18 1298.73,123.472 "/>
<polyline clip-path="url(#clip711)" style="stroke:#000000; stroke-linecap:round; stroke-linejoin:round; stroke-width:2; stroke-opacity:0.1; fill:none" points="1530.82,1423.18 1530.82,123.472 "/>
<polyline clip-path="url(#clip711)" style="stroke:#000000; stroke-linecap:round; stroke-linejoin:round; stroke-width:2; stroke-opacity:0.1; fill:none" points="416.787,1237.51 1716.5,1237.51 "/>
<polyline clip-path="url(#clip711)" style="stroke:#000000; stroke-linecap:round; stroke-linejoin:round; stroke-width:2; stroke-opacity:0.1; fill:none" points="416.787,1005.42 1716.5,1005.42 "/>
<polyline clip-path="url(#clip711)" style="stroke:#000000; stroke-linecap:round; stroke-linejoin:round; stroke-width:2; stroke-opacity:0.1; fill:none" points="416.787,773.326 1716.5,773.326 "/>
<polyline clip-path="url(#clip711)" style="stroke:#000000; stroke-linecap:round; stroke-linejoin:round; stroke-width:2; stroke-opacity:0.1; fill:none" points="416.787,541.235 1716.5,541.235 "/>
<polyline clip-path="url(#clip711)" style="stroke:#000000; stroke-linecap:round; stroke-linejoin:round; stroke-width:2; stroke-opacity:0.1; fill:none" points="416.787,309.145 1716.5,309.145 "/>
<polyline clip-path="url(#clip710)" style="stroke:#000000; stroke-linecap:round; stroke-linejoin:round; stroke-width:4; stroke-opacity:1; fill:none" points="416.787,1423.18 1716.5,1423.18 "/>
<polyline clip-path="url(#clip710)" style="stroke:#000000; stroke-linecap:round; stroke-linejoin:round; stroke-width:4; stroke-opacity:1; fill:none" points="602.46,1423.18 602.46,1404.28 "/>
<polyline clip-path="url(#clip710)" style="stroke:#000000; stroke-linecap:round; stroke-linejoin:round; stroke-width:4; stroke-opacity:1; fill:none" points="834.551,1423.18 834.551,1404.28 "/>
<polyline clip-path="url(#clip710)" style="stroke:#000000; stroke-linecap:round; stroke-linejoin:round; stroke-width:4; stroke-opacity:1; fill:none" points="1066.64,1423.18 1066.64,1404.28 "/>
<polyline clip-path="url(#clip710)" style="stroke:#000000; stroke-linecap:round; stroke-linejoin:round; stroke-width:4; stroke-opacity:1; fill:none" points="1298.73,1423.18 1298.73,1404.28 "/>
<polyline clip-path="url(#clip710)" style="stroke:#000000; stroke-linecap:round; stroke-linejoin:round; stroke-width:4; stroke-opacity:1; fill:none" points="1530.82,1423.18 1530.82,1404.28 "/>
<path clip-path="url(#clip710)" d="M564.763 1454.1 Q561.152 1454.1 559.324 1457.66 Q557.518 1461.2 557.518 1468.33 Q557.518 1475.44 559.324 1479.01 Q561.152 1482.55 564.763 1482.55 Q568.398 1482.55 570.203 1479.01 Q572.032 1475.44 572.032 1468.33 Q572.032 1461.2 570.203 1457.66 Q568.398 1454.1 564.763 1454.1 M564.763 1450.39 Q570.574 1450.39 573.629 1455 Q576.708 1459.58 576.708 1468.33 Q576.708 1477.06 573.629 1481.67 Q570.574 1486.25 564.763 1486.25 Q558.953 1486.25 555.875 1481.67 Q552.819 1477.06 552.819 1468.33 Q552.819 1459.58 555.875 1455 Q558.953 1450.39 564.763 1450.39 Z" fill="#000000" fill-rule="nonzero" fill-opacity="1" /><path clip-path="url(#clip710)" d="M584.925 1479.7 L589.81 1479.7 L589.81 1485.58 L584.925 1485.58 L584.925 1479.7 Z" fill="#000000" fill-rule="nonzero" fill-opacity="1" /><path clip-path="url(#clip710)" d="M609.995 1454.1 Q606.383 1454.1 604.555 1457.66 Q602.749 1461.2 602.749 1468.33 Q602.749 1475.44 604.555 1479.01 Q606.383 1482.55 609.995 1482.55 Q613.629 1482.55 615.434 1479.01 Q617.263 1475.44 617.263 1468.33 Q617.263 1461.2 615.434 1457.66 Q613.629 1454.1 609.995 1454.1 M609.995 1450.39 Q615.805 1450.39 618.86 1455 Q621.939 1459.58 621.939 1468.33 Q621.939 1477.06 618.86 1481.67 Q615.805 1486.25 609.995 1486.25 Q604.184 1486.25 601.106 1481.67 Q598.05 1477.06 598.05 1468.33 Q598.05 1459.58 601.106 1455 Q604.184 1450.39 609.995 1450.39 Z" fill="#000000" fill-rule="nonzero" fill-opacity="1" /><path clip-path="url(#clip710)" d="M640.156 1454.1 Q636.545 1454.1 634.717 1457.66 Q632.911 1461.2 632.911 1468.33 Q632.911 1475.44 634.717 1479.01 Q636.545 1482.55 640.156 1482.55 Q643.791 1482.55 645.596 1479.01 Q647.425 1475.44 647.425 1468.33 Q647.425 1461.2 645.596 1457.66 Q643.791 1454.1 640.156 1454.1 M640.156 1450.39 Q645.967 1450.39 649.022 1455 Q652.101 1459.58 652.101 1468.33 Q652.101 1477.06 649.022 1481.67 Q645.967 1486.25 640.156 1486.25 Q634.346 1486.25 631.268 1481.67 Q628.212 1477.06 628.212 1468.33 Q628.212 1459.58 631.268 1455 Q634.346 1450.39 640.156 1450.39 Z" fill="#000000" fill-rule="nonzero" fill-opacity="1" /><path clip-path="url(#clip710)" d="M797.352 1454.1 Q793.741 1454.1 791.912 1457.66 Q790.106 1461.2 790.106 1468.33 Q790.106 1475.44 791.912 1479.01 Q793.741 1482.55 797.352 1482.55 Q800.986 1482.55 802.791 1479.01 Q804.62 1475.44 804.62 1468.33 Q804.62 1461.2 802.791 1457.66 Q800.986 1454.1 797.352 1454.1 M797.352 1450.39 Q803.162 1450.39 806.217 1455 Q809.296 1459.58 809.296 1468.33 Q809.296 1477.06 806.217 1481.67 Q803.162 1486.25 797.352 1486.25 Q791.542 1486.25 788.463 1481.67 Q785.407 1477.06 785.407 1468.33 Q785.407 1459.58 788.463 1455 Q791.542 1450.39 797.352 1450.39 Z" fill="#000000" fill-rule="nonzero" fill-opacity="1" /><path clip-path="url(#clip710)" d="M817.514 1479.7 L822.398 1479.7 L822.398 1485.58 L817.514 1485.58 L817.514 1479.7 Z" fill="#000000" fill-rule="nonzero" fill-opacity="1" /><path clip-path="url(#clip710)" d="M836.611 1481.64 L852.93 1481.64 L852.93 1485.58 L830.986 1485.58 L830.986 1481.64 Q833.648 1478.89 838.231 1474.26 Q842.838 1469.61 844.018 1468.27 Q846.263 1465.74 847.143 1464.01 Q848.046 1462.25 848.046 1460.56 Q848.046 1457.8 846.101 1456.07 Q844.18 1454.33 841.078 1454.33 Q838.879 1454.33 836.426 1455.09 Q833.995 1455.86 831.217 1457.41 L831.217 1452.69 Q834.041 1451.55 836.495 1450.97 Q838.949 1450.39 840.986 1450.39 Q846.356 1450.39 849.55 1453.08 Q852.745 1455.77 852.745 1460.26 Q852.745 1462.39 851.935 1464.31 Q851.148 1466.2 849.041 1468.8 Q848.463 1469.47 845.361 1472.69 Q842.259 1475.88 836.611 1481.64 Z" fill="#000000" fill-rule="nonzero" fill-opacity="1" /><path clip-path="url(#clip710)" d="M862.791 1451.02 L881.148 1451.02 L881.148 1454.96 L867.074 1454.96 L867.074 1463.43 Q868.092 1463.08 869.111 1462.92 Q870.129 1462.73 871.148 1462.73 Q876.935 1462.73 880.314 1465.9 Q883.694 1469.08 883.694 1474.49 Q883.694 1480.07 880.222 1483.17 Q876.749 1486.25 870.43 1486.25 Q868.254 1486.25 865.986 1485.88 Q863.74 1485.51 861.333 1484.77 L861.333 1480.07 Q863.416 1481.2 865.638 1481.76 Q867.861 1482.32 870.337 1482.32 Q874.342 1482.32 876.68 1480.21 Q879.018 1478.1 879.018 1474.49 Q879.018 1470.88 876.68 1468.77 Q874.342 1466.67 870.337 1466.67 Q868.462 1466.67 866.587 1467.08 Q864.736 1467.5 862.791 1468.38 L862.791 1451.02 Z" fill="#000000" fill-rule="nonzero" fill-opacity="1" /><path clip-path="url(#clip710)" d="M1028.94 1454.1 Q1025.33 1454.1 1023.5 1457.66 Q1021.7 1461.2 1021.7 1468.33 Q1021.7 1475.44 1023.5 1479.01 Q1025.33 1482.55 1028.94 1482.55 Q1032.58 1482.55 1034.38 1479.01 Q1036.21 1475.44 1036.21 1468.33 Q1036.21 1461.2 1034.38 1457.66 Q1032.58 1454.1 1028.94 1454.1 M1028.94 1450.39 Q1034.75 1450.39 1037.81 1455 Q1040.89 1459.58 1040.89 1468.33 Q1040.89 1477.06 1037.81 1481.67 Q1034.75 1486.25 1028.94 1486.25 Q1023.13 1486.25 1020.06 1481.67 Q1017 1477.06 1017 1468.33 Q1017 1459.58 1020.06 1455 Q1023.13 1450.39 1028.94 1450.39 Z" fill="#000000" fill-rule="nonzero" fill-opacity="1" /><path clip-path="url(#clip710)" d="M1049.11 1479.7 L1053.99 1479.7 L1053.99 1485.58 L1049.11 1485.58 L1049.11 1479.7 Z" fill="#000000" fill-rule="nonzero" fill-opacity="1" /><path clip-path="url(#clip710)" d="M1064.22 1451.02 L1082.58 1451.02 L1082.58 1454.96 L1068.5 1454.96 L1068.5 1463.43 Q1069.52 1463.08 1070.54 1462.92 Q1071.56 1462.73 1072.58 1462.73 Q1078.37 1462.73 1081.75 1465.9 Q1085.12 1469.08 1085.12 1474.49 Q1085.12 1480.07 1081.65 1483.17 Q1078.18 1486.25 1071.86 1486.25 Q1069.69 1486.25 1067.42 1485.88 Q1065.17 1485.51 1062.76 1484.77 L1062.76 1480.07 Q1064.85 1481.2 1067.07 1481.76 Q1069.29 1482.32 1071.77 1482.32 Q1075.77 1482.32 1078.11 1480.21 Q1080.45 1478.1 1080.45 1474.49 Q1080.45 1470.88 1078.11 1468.77 Q1075.77 1466.67 1071.77 1466.67 Q1069.89 1466.67 1068.02 1467.08 Q1066.17 1467.5 1064.22 1468.38 L1064.22 1451.02 Z" fill="#000000" fill-rule="nonzero" fill-opacity="1" /><path clip-path="url(#clip710)" d="M1104.34 1454.1 Q1100.73 1454.1 1098.9 1457.66 Q1097.09 1461.2 1097.09 1468.33 Q1097.09 1475.44 1098.9 1479.01 Q1100.73 1482.55 1104.34 1482.55 Q1107.97 1482.55 1109.78 1479.01 Q1111.61 1475.44 1111.61 1468.33 Q1111.61 1461.2 1109.78 1457.66 Q1107.97 1454.1 1104.34 1454.1 M1104.34 1450.39 Q1110.15 1450.39 1113.2 1455 Q1116.28 1459.58 1116.28 1468.33 Q1116.28 1477.06 1113.2 1481.67 Q1110.15 1486.25 1104.34 1486.25 Q1098.53 1486.25 1095.45 1481.67 Q1092.39 1477.06 1092.39 1468.33 Q1092.39 1459.58 1095.45 1455 Q1098.53 1450.39 1104.34 1450.39 Z" fill="#000000" fill-rule="nonzero" fill-opacity="1" /><path clip-path="url(#clip710)" d="M1261.53 1454.1 Q1257.92 1454.1 1256.09 1457.66 Q1254.29 1461.2 1254.29 1468.33 Q1254.29 1475.44 1256.09 1479.01 Q1257.92 1482.55 1261.53 1482.55 Q1265.17 1482.55 1266.97 1479.01 Q1268.8 1475.44 1268.8 1468.33 Q1268.8 1461.2 1266.97 1457.66 Q1265.17 1454.1 1261.53 1454.1 M1261.53 1450.39 Q1267.34 1450.39 1270.4 1455 Q1273.48 1459.58 1273.48 1468.33 Q1273.48 1477.06 1270.4 1481.67 Q1267.34 1486.25 1261.53 1486.25 Q1255.72 1486.25 1252.64 1481.67 Q1249.59 1477.06 1249.59 1468.33 Q1249.59 1459.58 1252.64 1455 Q1255.72 1450.39 1261.53 1450.39 Z" fill="#000000" fill-rule="nonzero" fill-opacity="1" /><path clip-path="url(#clip710)" d="M1281.69 1479.7 L1286.58 1479.7 L1286.58 1485.58 L1281.69 1485.58 L1281.69 1479.7 Z" fill="#000000" fill-rule="nonzero" fill-opacity="1" /><path clip-path="url(#clip710)" d="M1295.58 1451.02 L1317.81 1451.02 L1317.81 1453.01 L1305.26 1485.58 L1300.38 1485.58 L1312.18 1454.96 L1295.58 1454.96 L1295.58 1451.02 Z" fill="#000000" fill-rule="nonzero" fill-opacity="1" /><path clip-path="url(#clip710)" d="M1326.97 1451.02 L1345.33 1451.02 L1345.33 1454.96 L1331.25 1454.96 L1331.25 1463.43 Q1332.27 1463.08 1333.29 1462.92 Q1334.31 1462.73 1335.33 1462.73 Q1341.12 1462.73 1344.5 1465.9 Q1347.88 1469.08 1347.88 1474.49 Q1347.88 1480.07 1344.4 1483.17 Q1340.93 1486.25 1334.61 1486.25 Q1332.44 1486.25 1330.17 1485.88 Q1327.92 1485.51 1325.51 1484.77 L1325.51 1480.07 Q1327.6 1481.2 1329.82 1481.76 Q1332.04 1482.32 1334.52 1482.32 Q1338.52 1482.32 1340.86 1480.21 Q1343.2 1478.1 1343.2 1474.49 Q1343.2 1470.88 1340.86 1468.77 Q1338.52 1466.67 1334.52 1466.67 Q1332.64 1466.67 1330.77 1467.08 Q1328.92 1467.5 1326.97 1468.38 L1326.97 1451.02 Z" fill="#000000" fill-rule="nonzero" fill-opacity="1" /><path clip-path="url(#clip710)" d="M1482.89 1481.64 L1490.53 1481.64 L1490.53 1455.28 L1482.22 1456.95 L1482.22 1452.69 L1490.49 1451.02 L1495.16 1451.02 L1495.16 1481.64 L1502.8 1481.64 L1502.8 1485.58 L1482.89 1485.58 L1482.89 1481.64 Z" fill="#000000" fill-rule="nonzero" fill-opacity="1" /><path clip-path="url(#clip710)" d="M1512.25 1479.7 L1517.13 1479.7 L1517.13 1485.58 L1512.25 1485.58 L1512.25 1479.7 Z" fill="#000000" fill-rule="nonzero" fill-opacity="1" /><path clip-path="url(#clip710)" d="M1537.32 1454.1 Q1533.7 1454.1 1531.88 1457.66 Q1530.07 1461.2 1530.07 1468.33 Q1530.07 1475.44 1531.88 1479.01 Q1533.7 1482.55 1537.32 1482.55 Q1540.95 1482.55 1542.76 1479.01 Q1544.58 1475.44 1544.58 1468.33 Q1544.58 1461.2 1542.76 1457.66 Q1540.95 1454.1 1537.32 1454.1 M1537.32 1450.39 Q1543.13 1450.39 1546.18 1455 Q1549.26 1459.58 1549.26 1468.33 Q1549.26 1477.06 1546.18 1481.67 Q1543.13 1486.25 1537.32 1486.25 Q1531.51 1486.25 1528.43 1481.67 Q1525.37 1477.06 1525.37 1468.33 Q1525.37 1459.58 1528.43 1455 Q1531.51 1450.39 1537.32 1450.39 Z" fill="#000000" fill-rule="nonzero" fill-opacity="1" /><path clip-path="url(#clip710)" d="M1567.48 1454.1 Q1563.87 1454.1 1562.04 1457.66 Q1560.23 1461.2 1560.23 1468.33 Q1560.23 1475.44 1562.04 1479.01 Q1563.87 1482.55 1567.48 1482.55 Q1571.11 1482.55 1572.92 1479.01 Q1574.75 1475.44 1574.75 1468.33 Q1574.75 1461.2 1572.92 1457.66 Q1571.11 1454.1 1567.48 1454.1 M1567.48 1450.39 Q1573.29 1450.39 1576.34 1455 Q1579.42 1459.58 1579.42 1468.33 Q1579.42 1477.06 1576.34 1481.67 Q1573.29 1486.25 1567.48 1486.25 Q1561.67 1486.25 1558.59 1481.67 Q1555.53 1477.06 1555.53 1468.33 Q1555.53 1459.58 1558.59 1455 Q1561.67 1450.39 1567.48 1450.39 Z" fill="#000000" fill-rule="nonzero" fill-opacity="1" /><path clip-path="url(#clip710)" d="M1083.26 1532.4 L1070.37 1549.74 L1083.92 1568.04 L1077.02 1568.04 L1066.64 1554.04 L1056.27 1568.04 L1049.36 1568.04 L1063.2 1549.39 L1050.54 1532.4 L1057.44 1532.4 L1066.9 1545.1 L1076.35 1532.4 L1083.26 1532.4 Z" fill="#000000" fill-rule="nonzero" fill-opacity="1" /><polyline clip-path="url(#clip710)" style="stroke:#000000; stroke-linecap:round; stroke-linejoin:round; stroke-width:4; stroke-opacity:1; fill:none" points="416.787,1423.18 416.787,123.472 "/>
<polyline clip-path="url(#clip710)" style="stroke:#000000; stroke-linecap:round; stroke-linejoin:round; stroke-width:4; stroke-opacity:1; fill:none" points="416.787,1237.51 428.465,1237.51 "/>
<polyline clip-path="url(#clip710)" style="stroke:#000000; stroke-linecap:round; stroke-linejoin:round; stroke-width:4; stroke-opacity:1; fill:none" points="416.787,1005.42 428.465,1005.42 "/>
<polyline clip-path="url(#clip710)" style="stroke:#000000; stroke-linecap:round; stroke-linejoin:round; stroke-width:4; stroke-opacity:1; fill:none" points="416.787,773.326 428.465,773.326 "/>
<polyline clip-path="url(#clip710)" style="stroke:#000000; stroke-linecap:round; stroke-linejoin:round; stroke-width:4; stroke-opacity:1; fill:none" points="416.787,541.235 428.465,541.235 "/>
<polyline clip-path="url(#clip710)" style="stroke:#000000; stroke-linecap:round; stroke-linejoin:round; stroke-width:4; stroke-opacity:1; fill:none" points="416.787,309.145 428.465,309.145 "/>
<path clip-path="url(#clip710)" d="M293.45 1223.31 Q289.839 1223.31 288.01 1226.87 Q286.205 1230.41 286.205 1237.54 Q286.205 1244.65 288.01 1248.21 Q289.839 1251.75 293.45 1251.75 Q297.084 1251.75 298.89 1248.21 Q300.718 1244.65 300.718 1237.54 Q300.718 1230.41 298.89 1226.87 Q297.084 1223.31 293.45 1223.31 M293.45 1219.6 Q299.26 1219.6 302.316 1224.21 Q305.394 1228.79 305.394 1237.54 Q305.394 1246.27 302.316 1250.88 Q299.26 1255.46 293.45 1255.46 Q287.64 1255.46 284.561 1250.88 Q281.506 1246.27 281.506 1237.54 Q281.506 1228.79 284.561 1224.21 Q287.64 1219.6 293.45 1219.6 Z" fill="#000000" fill-rule="nonzero" fill-opacity="1" /><path clip-path="url(#clip710)" d="M313.612 1248.91 L318.496 1248.91 L318.496 1254.79 L313.612 1254.79 L313.612 1248.91 Z" fill="#000000" fill-rule="nonzero" fill-opacity="1" /><path clip-path="url(#clip710)" d="M338.681 1223.31 Q335.07 1223.31 333.241 1226.87 Q331.436 1230.41 331.436 1237.54 Q331.436 1244.65 333.241 1248.21 Q335.07 1251.75 338.681 1251.75 Q342.315 1251.75 344.121 1248.21 Q345.95 1244.65 345.95 1237.54 Q345.95 1230.41 344.121 1226.87 Q342.315 1223.31 338.681 1223.31 M338.681 1219.6 Q344.491 1219.6 347.547 1224.21 Q350.626 1228.79 350.626 1237.54 Q350.626 1246.27 347.547 1250.88 Q344.491 1255.46 338.681 1255.46 Q332.871 1255.46 329.792 1250.88 Q326.737 1246.27 326.737 1237.54 Q326.737 1228.79 329.792 1224.21 Q332.871 1219.6 338.681 1219.6 Z" fill="#000000" fill-rule="nonzero" fill-opacity="1" /><path clip-path="url(#clip710)" d="M368.843 1223.31 Q365.232 1223.31 363.403 1226.87 Q361.598 1230.41 361.598 1237.54 Q361.598 1244.65 363.403 1248.21 Q365.232 1251.75 368.843 1251.75 Q372.477 1251.75 374.283 1248.21 Q376.111 1244.65 376.111 1237.54 Q376.111 1230.41 374.283 1226.87 Q372.477 1223.31 368.843 1223.31 M368.843 1219.6 Q374.653 1219.6 377.709 1224.21 Q380.787 1228.79 380.787 1237.54 Q380.787 1246.27 377.709 1250.88 Q374.653 1255.46 368.843 1255.46 Q363.033 1255.46 359.954 1250.88 Q356.899 1246.27 356.899 1237.54 Q356.899 1228.79 359.954 1224.21 Q363.033 1219.6 368.843 1219.6 Z" fill="#000000" fill-rule="nonzero" fill-opacity="1" /><path clip-path="url(#clip710)" d="M294.445 991.215 Q290.834 991.215 289.005 994.78 Q287.2 998.322 287.2 1005.45 Q287.2 1012.56 289.005 1016.12 Q290.834 1019.66 294.445 1019.66 Q298.079 1019.66 299.885 1016.12 Q301.714 1012.56 301.714 1005.45 Q301.714 998.322 299.885 994.78 Q298.079 991.215 294.445 991.215 M294.445 987.512 Q300.255 987.512 303.311 992.118 Q306.39 996.701 306.39 1005.45 Q306.39 1014.18 303.311 1018.78 Q300.255 1023.37 294.445 1023.37 Q288.635 1023.37 285.556 1018.78 Q282.501 1014.18 282.501 1005.45 Q282.501 996.701 285.556 992.118 Q288.635 987.512 294.445 987.512 Z" fill="#000000" fill-rule="nonzero" fill-opacity="1" /><path clip-path="url(#clip710)" d="M314.607 1016.82 L319.491 1016.82 L319.491 1022.7 L314.607 1022.7 L314.607 1016.82 Z" fill="#000000" fill-rule="nonzero" fill-opacity="1" /><path clip-path="url(#clip710)" d="M333.704 1018.76 L350.024 1018.76 L350.024 1022.7 L328.079 1022.7 L328.079 1018.76 Q330.741 1016.01 335.325 1011.38 Q339.931 1006.72 341.112 1005.38 Q343.357 1002.86 344.237 1001.12 Q345.139 999.363 345.139 997.674 Q345.139 994.919 343.195 993.183 Q341.274 991.447 338.172 991.447 Q335.973 991.447 333.519 992.211 Q331.089 992.975 328.311 994.526 L328.311 989.803 Q331.135 988.669 333.589 988.09 Q336.042 987.512 338.079 987.512 Q343.45 987.512 346.644 990.197 Q349.838 992.882 349.838 997.373 Q349.838 999.502 349.028 1001.42 Q348.241 1003.32 346.135 1005.91 Q345.556 1006.59 342.454 1009.8 Q339.352 1013 333.704 1018.76 Z" fill="#000000" fill-rule="nonzero" fill-opacity="1" /><path clip-path="url(#clip710)" d="M359.885 988.137 L378.241 988.137 L378.241 992.072 L364.167 992.072 L364.167 1000.54 Q365.186 1000.2 366.204 1000.03 Q367.223 999.85 368.241 999.85 Q374.028 999.85 377.408 1003.02 Q380.787 1006.19 380.787 1011.61 Q380.787 1017.19 377.315 1020.29 Q373.843 1023.37 367.524 1023.37 Q365.348 1023.37 363.079 1023 Q360.834 1022.63 358.426 1021.89 L358.426 1017.19 Q360.51 1018.32 362.732 1018.88 Q364.954 1019.43 367.431 1019.43 Q371.436 1019.43 373.774 1017.33 Q376.111 1015.22 376.111 1011.61 Q376.111 1008 373.774 1005.89 Q371.436 1003.78 367.431 1003.78 Q365.556 1003.78 363.681 1004.2 Q361.829 1004.62 359.885 1005.5 L359.885 988.137 Z" fill="#000000" fill-rule="nonzero" fill-opacity="1" /><path clip-path="url(#clip710)" d="M293.45 759.125 Q289.839 759.125 288.01 762.689 Q286.205 766.231 286.205 773.361 Q286.205 780.467 288.01 784.032 Q289.839 787.574 293.45 787.574 Q297.084 787.574 298.89 784.032 Q300.718 780.467 300.718 773.361 Q300.718 766.231 298.89 762.689 Q297.084 759.125 293.45 759.125 M293.45 755.421 Q299.26 755.421 302.316 760.027 Q305.394 764.611 305.394 773.361 Q305.394 782.088 302.316 786.694 Q299.26 791.277 293.45 791.277 Q287.64 791.277 284.561 786.694 Q281.506 782.088 281.506 773.361 Q281.506 764.611 284.561 760.027 Q287.64 755.421 293.45 755.421 Z" fill="#000000" fill-rule="nonzero" fill-opacity="1" /><path clip-path="url(#clip710)" d="M313.612 784.726 L318.496 784.726 L318.496 790.606 L313.612 790.606 L313.612 784.726 Z" fill="#000000" fill-rule="nonzero" fill-opacity="1" /><path clip-path="url(#clip710)" d="M328.727 756.046 L347.084 756.046 L347.084 759.981 L333.01 759.981 L333.01 768.453 Q334.028 768.106 335.047 767.944 Q336.065 767.759 337.084 767.759 Q342.871 767.759 346.251 770.93 Q349.63 774.101 349.63 779.518 Q349.63 785.097 346.158 788.199 Q342.686 791.277 336.366 791.277 Q334.19 791.277 331.922 790.907 Q329.677 790.537 327.269 789.796 L327.269 785.097 Q329.352 786.231 331.575 786.787 Q333.797 787.342 336.274 787.342 Q340.278 787.342 342.616 785.236 Q344.954 783.129 344.954 779.518 Q344.954 775.907 342.616 773.801 Q340.278 771.694 336.274 771.694 Q334.399 771.694 332.524 772.111 Q330.672 772.527 328.727 773.407 L328.727 756.046 Z" fill="#000000" fill-rule="nonzero" fill-opacity="1" /><path clip-path="url(#clip710)" d="M368.843 759.125 Q365.232 759.125 363.403 762.689 Q361.598 766.231 361.598 773.361 Q361.598 780.467 363.403 784.032 Q365.232 787.574 368.843 787.574 Q372.477 787.574 374.283 784.032 Q376.111 780.467 376.111 773.361 Q376.111 766.231 374.283 762.689 Q372.477 759.125 368.843 759.125 M368.843 755.421 Q374.653 755.421 377.709 760.027 Q380.787 764.611 380.787 773.361 Q380.787 782.088 377.709 786.694 Q374.653 791.277 368.843 791.277 Q363.033 791.277 359.954 786.694 Q356.899 782.088 356.899 773.361 Q356.899 764.611 359.954 760.027 Q363.033 755.421 368.843 755.421 Z" fill="#000000" fill-rule="nonzero" fill-opacity="1" /><path clip-path="url(#clip710)" d="M294.445 527.034 Q290.834 527.034 289.005 530.599 Q287.2 534.14 287.2 541.27 Q287.2 548.376 289.005 551.941 Q290.834 555.483 294.445 555.483 Q298.079 555.483 299.885 551.941 Q301.714 548.376 301.714 541.27 Q301.714 534.14 299.885 530.599 Q298.079 527.034 294.445 527.034 M294.445 523.33 Q300.255 523.33 303.311 527.937 Q306.39 532.52 306.39 541.27 Q306.39 549.997 303.311 554.603 Q300.255 559.187 294.445 559.187 Q288.635 559.187 285.556 554.603 Q282.501 549.997 282.501 541.27 Q282.501 532.52 285.556 527.937 Q288.635 523.33 294.445 523.33 Z" fill="#000000" fill-rule="nonzero" fill-opacity="1" /><path clip-path="url(#clip710)" d="M314.607 552.636 L319.491 552.636 L319.491 558.515 L314.607 558.515 L314.607 552.636 Z" fill="#000000" fill-rule="nonzero" fill-opacity="1" /><path clip-path="url(#clip710)" d="M328.496 523.955 L350.718 523.955 L350.718 525.946 L338.172 558.515 L333.288 558.515 L345.093 527.89 L328.496 527.89 L328.496 523.955 Z" fill="#000000" fill-rule="nonzero" fill-opacity="1" /><path clip-path="url(#clip710)" d="M359.885 523.955 L378.241 523.955 L378.241 527.89 L364.167 527.89 L364.167 536.363 Q365.186 536.015 366.204 535.853 Q367.223 535.668 368.241 535.668 Q374.028 535.668 377.408 538.84 Q380.787 542.011 380.787 547.427 Q380.787 553.006 377.315 556.108 Q373.843 559.187 367.524 559.187 Q365.348 559.187 363.079 558.816 Q360.834 558.446 358.426 557.705 L358.426 553.006 Q360.51 554.14 362.732 554.696 Q364.954 555.251 367.431 555.251 Q371.436 555.251 373.774 553.145 Q376.111 551.039 376.111 547.427 Q376.111 543.816 373.774 541.71 Q371.436 539.603 367.431 539.603 Q365.556 539.603 363.681 540.02 Q361.829 540.437 359.885 541.316 L359.885 523.955 Z" fill="#000000" fill-rule="nonzero" fill-opacity="1" /><path clip-path="url(#clip710)" d="M284.26 322.489 L291.899 322.489 L291.899 296.124 L283.589 297.791 L283.589 293.531 L291.853 291.865 L296.529 291.865 L296.529 322.489 L304.167 322.489 L304.167 326.425 L284.26 326.425 L284.26 322.489 Z" fill="#000000" fill-rule="nonzero" fill-opacity="1" /><path clip-path="url(#clip710)" d="M313.612 320.545 L318.496 320.545 L318.496 326.425 L313.612 326.425 L313.612 320.545 Z" fill="#000000" fill-rule="nonzero" fill-opacity="1" /><path clip-path="url(#clip710)" d="M338.681 294.943 Q335.07 294.943 333.241 298.508 Q331.436 302.05 331.436 309.179 Q331.436 316.286 333.241 319.851 Q335.07 323.392 338.681 323.392 Q342.315 323.392 344.121 319.851 Q345.95 316.286 345.95 309.179 Q345.95 302.05 344.121 298.508 Q342.315 294.943 338.681 294.943 M338.681 291.24 Q344.491 291.24 347.547 295.846 Q350.626 300.429 350.626 309.179 Q350.626 317.906 347.547 322.513 Q344.491 327.096 338.681 327.096 Q332.871 327.096 329.792 322.513 Q326.737 317.906 326.737 309.179 Q326.737 300.429 329.792 295.846 Q332.871 291.24 338.681 291.24 Z" fill="#000000" fill-rule="nonzero" fill-opacity="1" /><path clip-path="url(#clip710)" d="M368.843 294.943 Q365.232 294.943 363.403 298.508 Q361.598 302.05 361.598 309.179 Q361.598 316.286 363.403 319.851 Q365.232 323.392 368.843 323.392 Q372.477 323.392 374.283 319.851 Q376.111 316.286 376.111 309.179 Q376.111 302.05 374.283 298.508 Q372.477 294.943 368.843 294.943 M368.843 291.24 Q374.653 291.24 377.709 295.846 Q380.787 300.429 380.787 309.179 Q380.787 317.906 377.709 322.513 Q374.653 327.096 368.843 327.096 Q363.033 327.096 359.954 322.513 Q356.899 317.906 356.899 309.179 Q356.899 300.429 359.954 295.846 Q363.033 291.24 368.843 291.24 Z" fill="#000000" fill-rule="nonzero" fill-opacity="1" /><path clip-path="url(#clip710)" d="M234.56 771.639 Q240.925 774.122 242.867 776.477 Q244.808 778.832 244.808 782.779 L244.808 787.458 L239.907 787.458 L239.907 784.02 Q239.907 781.601 238.761 780.265 Q237.615 778.928 233.35 777.305 L230.677 776.254 L195.602 790.673 L195.602 784.466 L223.483 773.326 L195.602 762.186 L195.602 755.979 L234.56 771.639 Z" fill="#000000" fill-rule="nonzero" fill-opacity="1" /><path clip-path="url(#clip710)" d="M8.76785 18.8205 L8.76785 65.8515 L18.6521 65.8515 Q31.1694 65.8515 36.9621 60.1802 Q42.7954 54.509 42.7954 42.2752 Q42.7954 30.1225 36.9621 24.4918 Q31.1694 18.8205 18.6521 18.8205 L8.76785 18.8205 M0.585026 12.096 L17.3963 12.096 Q34.9772 12.096 43.2005 19.4281 Q51.4239 26.7198 51.4239 42.2752 Q51.4239 57.9117 43.16 65.2439 Q34.8962 72.576 17.3963 72.576 L0.585026 72.576 L0.585026 12.096 Z" fill="#000000" fill-rule="nonzero" fill-opacity="1" /><path clip-path="url(#clip710)" d="M81.7246 32.4315 Q75.7293 32.4315 72.2455 37.1306 Q68.7617 41.7891 68.7617 49.9314 Q68.7617 58.0738 72.205 62.7728 Q75.6888 67.4314 81.7246 67.4314 Q87.6795 67.4314 91.1632 62.7323 Q94.647 58.0333 94.647 49.9314 Q94.647 41.8701 91.1632 37.1711 Q87.6795 32.4315 81.7246 32.4315 M81.7246 26.1121 Q91.4468 26.1121 96.9965 32.4315 Q102.546 38.7509 102.546 49.9314 Q102.546 61.0714 96.9965 67.4314 Q91.4468 73.7508 81.7246 73.7508 Q71.962 73.7508 66.4122 67.4314 Q60.903 61.0714 60.903 49.9314 Q60.903 38.7509 66.4122 32.4315 Q71.962 26.1121 81.7246 26.1121 Z" fill="#000000" fill-rule="nonzero" fill-opacity="1" /><path clip-path="url(#clip710)" d="M132.482 32.4315 Q126.487 32.4315 123.003 37.1306 Q119.52 41.7891 119.52 49.9314 Q119.52 58.0738 122.963 62.7728 Q126.447 67.4314 132.482 67.4314 Q138.437 67.4314 141.921 62.7323 Q145.405 58.0333 145.405 49.9314 Q145.405 41.8701 141.921 37.1711 Q138.437 32.4315 132.482 32.4315 M132.482 26.1121 Q142.205 26.1121 147.754 32.4315 Q153.304 38.7509 153.304 49.9314 Q153.304 61.0714 147.754 67.4314 Q142.205 73.7508 132.482 73.7508 Q122.72 73.7508 117.17 67.4314 Q111.661 61.0714 111.661 49.9314 Q111.661 38.7509 117.17 32.4315 Q122.72 26.1121 132.482 26.1121 Z" fill="#000000" fill-rule="nonzero" fill-opacity="1" /><path clip-path="url(#clip710)" d="M191.95 34.1734 Q190.694 33.4443 189.195 33.1202 Q187.737 32.7556 185.954 32.7556 Q179.635 32.7556 176.232 36.8875 Q172.87 40.9789 172.87 48.6757 L172.87 72.576 L165.376 72.576 L165.376 27.2059 L172.87 27.2059 L172.87 34.2544 Q175.22 30.1225 178.987 28.1376 Q182.754 26.1121 188.142 26.1121 Q188.912 26.1121 189.843 26.2337 Q190.775 26.3147 191.909 26.5172 L191.95 34.1734 Z" fill="#000000" fill-rule="nonzero" fill-opacity="1" /><path clip-path="url(#clip710)" d="M262.719 14.0809 L262.719 22.0612 Q258.06 19.8332 253.929 18.7395 Q249.797 17.6457 245.948 17.6457 Q239.264 17.6457 235.618 20.2383 Q232.013 22.8309 232.013 27.611 Q232.013 31.6214 234.403 33.6873 Q236.834 35.7128 243.558 36.9686 L248.5 37.9813 Q257.655 39.7232 261.99 44.1387 Q266.365 48.5136 266.365 55.8863 Q266.365 64.6767 260.451 69.2137 Q254.577 73.7508 243.194 73.7508 Q238.9 73.7508 234.039 72.7785 Q229.218 71.8063 224.033 69.9024 L224.033 61.4765 Q229.016 64.2716 233.796 65.6895 Q238.576 67.1073 243.194 67.1073 Q250.202 67.1073 254.01 64.3527 Q257.817 61.598 257.817 56.4939 Q257.817 52.0379 255.063 49.5264 Q252.349 47.0148 246.11 45.759 L241.128 44.7868 Q231.973 42.9639 227.881 39.075 Q223.79 35.1862 223.79 28.2591 Q223.79 20.2383 229.421 15.6203 Q235.092 11.0023 245.017 11.0023 Q249.27 11.0023 253.686 11.7719 Q258.101 12.5416 262.719 14.0809 Z" fill="#000000" fill-rule="nonzero" fill-opacity="1" /><path clip-path="url(#clip710)" d="M316.515 45.1919 L316.515 72.576 L309.061 72.576 L309.061 45.4349 Q309.061 38.994 306.55 35.7938 Q304.038 32.5936 299.015 32.5936 Q292.979 32.5936 289.496 36.4419 Q286.012 40.2903 286.012 46.9338 L286.012 72.576 L278.518 72.576 L278.518 27.2059 L286.012 27.2059 L286.012 34.2544 Q288.685 30.163 292.291 28.1376 Q295.936 26.1121 300.676 26.1121 Q308.494 26.1121 312.505 30.9732 Q316.515 35.7938 316.515 45.1919 Z" fill="#000000" fill-rule="nonzero" fill-opacity="1" /><path clip-path="url(#clip710)" d="M352.001 49.7694 Q342.967 49.7694 339.484 51.8354 Q336 53.9013 336 58.8839 Q336 62.8538 338.592 65.2034 Q341.226 67.5124 345.722 67.5124 Q351.92 67.5124 355.647 63.1374 Q359.414 58.7219 359.414 51.4303 L359.414 49.7694 L352.001 49.7694 M366.868 46.6907 L366.868 72.576 L359.414 72.576 L359.414 65.6895 Q356.862 69.8214 353.054 71.8063 Q349.246 73.7508 343.737 73.7508 Q336.77 73.7508 332.638 69.8619 Q328.546 65.9325 328.546 59.3701 Q328.546 51.7138 333.65 47.825 Q338.795 43.9361 348.963 43.9361 L359.414 43.9361 L359.414 43.2069 Q359.414 38.0623 356.011 35.2672 Q352.649 32.4315 346.532 32.4315 Q342.643 32.4315 338.957 33.3632 Q335.271 34.295 331.868 36.1584 L331.868 29.2718 Q335.959 27.692 339.808 26.9223 Q343.656 26.1121 347.302 26.1121 Q357.146 26.1121 362.007 31.2163 Q366.868 36.3204 366.868 46.6907 Z" fill="#000000" fill-rule="nonzero" fill-opacity="1" /><path clip-path="url(#clip710)" d="M389.431 65.7705 L389.431 89.8329 L381.937 89.8329 L381.937 27.2059 L389.431 27.2059 L389.431 34.0924 Q391.781 30.0415 395.346 28.0971 Q398.951 26.1121 403.934 26.1121 Q412.197 26.1121 417.342 32.6746 Q422.527 39.2371 422.527 49.9314 Q422.527 60.6258 417.342 67.1883 Q412.197 73.7508 403.934 73.7508 Q398.951 73.7508 395.346 71.8063 Q391.781 69.8214 389.431 65.7705 M414.79 49.9314 Q414.79 41.7081 411.387 37.0496 Q408.025 32.3505 402.111 32.3505 Q396.196 32.3505 392.794 37.0496 Q389.431 41.7081 389.431 49.9314 Q389.431 58.1548 392.794 62.8538 Q396.196 67.5124 402.111 67.5124 Q408.025 67.5124 411.387 62.8538 Q414.79 58.1548 414.79 49.9314 Z" fill="#000000" fill-rule="nonzero" fill-opacity="1" /><path clip-path="url(#clip710)" d="M463.806 28.5427 L463.806 35.5912 Q460.646 33.9709 457.243 33.1607 Q453.841 32.3505 450.195 32.3505 Q444.645 32.3505 441.85 34.0519 Q439.095 35.7533 439.095 39.156 Q439.095 41.7486 441.08 43.2475 Q443.065 44.7058 449.061 46.0426 L451.613 46.6097 Q459.552 48.3111 462.874 51.4303 Q466.236 54.509 466.236 60.0587 Q466.236 66.3781 461.213 70.0644 Q456.231 73.7508 447.481 73.7508 Q443.835 73.7508 439.865 73.0216 Q435.936 72.3329 431.561 70.9151 L431.561 63.2184 Q435.693 65.3654 439.703 66.4591 Q443.713 67.5124 447.643 67.5124 Q452.909 67.5124 455.745 65.73 Q458.58 63.9071 458.58 60.6258 Q458.58 57.5877 456.514 55.9673 Q454.489 54.3469 447.562 52.8481 L444.969 52.2405 Q438.042 50.7821 434.963 47.7845 Q431.885 44.7463 431.885 39.4801 Q431.885 33.0797 436.422 29.5959 Q440.959 26.1121 449.304 26.1121 Q453.436 26.1121 457.081 26.7198 Q460.727 27.3274 463.806 28.5427 Z" fill="#000000" fill-rule="nonzero" fill-opacity="1" /><path clip-path="url(#clip710)" d="M515.82 45.1919 L515.82 72.576 L508.366 72.576 L508.366 45.4349 Q508.366 38.994 505.854 35.7938 Q503.343 32.5936 498.32 32.5936 Q492.284 32.5936 488.8 36.4419 Q485.316 40.2903 485.316 46.9338 L485.316 72.576 L477.822 72.576 L477.822 9.54393 L485.316 9.54393 L485.316 34.2544 Q487.99 30.163 491.595 28.1376 Q495.241 26.1121 499.98 26.1121 Q507.799 26.1121 511.809 30.9732 Q515.82 35.7938 515.82 45.1919 Z" fill="#000000" fill-rule="nonzero" fill-opacity="1" /><path clip-path="url(#clip710)" d="M548.267 32.4315 Q542.272 32.4315 538.788 37.1306 Q535.304 41.7891 535.304 49.9314 Q535.304 58.0738 538.748 62.7728 Q542.231 67.4314 548.267 67.4314 Q554.222 67.4314 557.706 62.7323 Q561.19 58.0333 561.19 49.9314 Q561.19 41.8701 557.706 37.1711 Q554.222 32.4315 548.267 32.4315 M548.267 26.1121 Q557.989 26.1121 563.539 32.4315 Q569.089 38.7509 569.089 49.9314 Q569.089 61.0714 563.539 67.4314 Q557.989 73.7508 548.267 73.7508 Q538.505 73.7508 532.955 67.4314 Q527.446 61.0714 527.446 49.9314 Q527.446 38.7509 532.955 32.4315 Q538.505 26.1121 548.267 26.1121 Z" fill="#000000" fill-rule="nonzero" fill-opacity="1" /><path clip-path="url(#clip710)" d="M588.817 14.324 L588.817 27.2059 L604.17 27.2059 L604.17 32.9987 L588.817 32.9987 L588.817 57.6282 Q588.817 63.1779 590.316 64.7578 Q591.855 66.3376 596.514 66.3376 L604.17 66.3376 L604.17 72.576 L596.514 72.576 Q587.885 72.576 584.604 69.3758 Q581.323 66.1351 581.323 57.6282 L581.323 32.9987 L575.854 32.9987 L575.854 27.2059 L581.323 27.2059 L581.323 14.324 L588.817 14.324 Z" fill="#000000" fill-rule="nonzero" fill-opacity="1" /><path clip-path="url(#clip710)" d="M642.896 28.5427 L642.896 35.5912 Q639.737 33.9709 636.334 33.1607 Q632.931 32.3505 629.285 32.3505 Q623.736 32.3505 620.94 34.0519 Q618.186 35.7533 618.186 39.156 Q618.186 41.7486 620.171 43.2475 Q622.156 44.7058 628.151 46.0426 L630.703 46.6097 Q638.643 48.3111 641.965 51.4303 Q645.327 54.509 645.327 60.0587 Q645.327 66.3781 640.304 70.0644 Q635.321 73.7508 626.571 73.7508 Q622.925 73.7508 618.956 73.0216 Q615.026 72.3329 610.651 70.9151 L610.651 63.2184 Q614.783 65.3654 618.794 66.4591 Q622.804 67.5124 626.733 67.5124 Q631.999 67.5124 634.835 65.73 Q637.671 63.9071 637.671 60.6258 Q637.671 57.5877 635.605 55.9673 Q633.579 54.3469 626.652 52.8481 L624.06 52.2405 Q617.133 50.7821 614.054 47.7845 Q610.975 44.7463 610.975 39.4801 Q610.975 33.0797 615.512 29.5959 Q620.049 26.1121 628.394 26.1121 Q632.526 26.1121 636.172 26.7198 Q639.818 27.3274 642.896 28.5427 Z" fill="#000000" fill-rule="nonzero" fill-opacity="1" /><path clip-path="url(#clip710)" d="M659.1 62.2867 L667.647 62.2867 L667.647 72.576 L659.1 72.576 L659.1 62.2867 M659.1 29.6769 L667.647 29.6769 L667.647 39.9662 L659.1 39.9662 L659.1 29.6769 Z" fill="#000000" fill-rule="nonzero" fill-opacity="1" /><path clip-path="url(#clip710)" d="M720.026 18.8205 L720.026 41.5461 L730.315 41.5461 Q736.027 41.5461 739.146 38.5889 Q742.265 35.6318 742.265 30.163 Q742.265 24.7348 739.146 21.7777 Q736.027 18.8205 730.315 18.8205 L720.026 18.8205 M711.843 12.096 L730.315 12.096 Q740.483 12.096 745.668 16.714 Q750.894 21.2916 750.894 30.163 Q750.894 39.1155 745.668 43.6931 Q740.483 48.2706 730.315 48.2706 L720.026 48.2706 L720.026 72.576 L711.843 72.576 L711.843 12.096 Z" fill="#000000" fill-rule="nonzero" fill-opacity="1" /><path clip-path="url(#clip710)" d="M786.379 34.1734 Q785.124 33.4443 783.625 33.1202 Q782.166 32.7556 780.384 32.7556 Q774.065 32.7556 770.662 36.8875 Q767.3 40.9789 767.3 48.6757 L767.3 72.576 L759.805 72.576 L759.805 27.2059 L767.3 27.2059 L767.3 34.2544 Q769.649 30.1225 773.417 28.1376 Q777.184 26.1121 782.572 26.1121 Q783.341 26.1121 784.273 26.2337 Q785.205 26.3147 786.339 26.5172 L786.379 34.1734 Z" fill="#000000" fill-rule="nonzero" fill-opacity="1" /><path clip-path="url(#clip710)" d="M831.182 48.0275 L831.182 51.6733 L796.912 51.6733 Q797.398 59.3701 801.53 63.421 Q805.702 67.4314 813.115 67.4314 Q817.409 67.4314 821.42 66.3781 Q825.471 65.3249 829.441 63.2184 L829.441 70.267 Q825.43 71.9684 821.217 72.8596 Q817.004 73.7508 812.67 73.7508 Q801.813 73.7508 795.453 67.4314 Q789.134 61.1119 789.134 50.3365 Q789.134 39.1965 795.129 32.6746 Q801.165 26.1121 811.374 26.1121 Q820.529 26.1121 825.835 32.0264 Q831.182 37.9003 831.182 48.0275 M823.729 45.84 Q823.648 39.7232 820.285 36.0774 Q816.964 32.4315 811.455 32.4315 Q805.216 32.4315 801.449 35.9558 Q797.722 39.4801 797.155 45.8805 L823.729 45.84 Z" fill="#000000" fill-rule="nonzero" fill-opacity="1" /><path clip-path="url(#clip710)" d="M872.34 28.5427 L872.34 35.5912 Q869.18 33.9709 865.777 33.1607 Q862.374 32.3505 858.729 32.3505 Q853.179 32.3505 850.384 34.0519 Q847.629 35.7533 847.629 39.156 Q847.629 41.7486 849.614 43.2475 Q851.599 44.7058 857.594 46.0426 L860.146 46.6097 Q868.086 48.3111 871.408 51.4303 Q874.77 54.509 874.77 60.0587 Q874.77 66.3781 869.747 70.0644 Q864.764 73.7508 856.014 73.7508 Q852.369 73.7508 848.399 73.0216 Q844.469 72.3329 840.094 70.9151 L840.094 63.2184 Q844.226 65.3654 848.237 66.4591 Q852.247 67.5124 856.177 67.5124 Q861.443 67.5124 864.278 65.73 Q867.114 63.9071 867.114 60.6258 Q867.114 57.5877 865.048 55.9673 Q863.023 54.3469 856.095 52.8481 L853.503 52.2405 Q846.576 50.7821 843.497 47.7845 Q840.418 44.7463 840.418 39.4801 Q840.418 33.0797 844.956 29.5959 Q849.493 26.1121 857.837 26.1121 Q861.969 26.1121 865.615 26.7198 Q869.261 27.3274 872.34 28.5427 Z" fill="#000000" fill-rule="nonzero" fill-opacity="1" /><path clip-path="url(#clip710)" d="M919.29 28.9478 L919.29 35.9153 Q916.13 34.1734 912.93 33.3227 Q909.77 32.4315 906.529 32.4315 Q899.278 32.4315 895.268 37.0496 Q891.257 41.6271 891.257 49.9314 Q891.257 58.2358 895.268 62.8538 Q899.278 67.4314 906.529 67.4314 Q909.77 67.4314 912.93 66.5807 Q916.13 65.6895 919.29 63.9476 L919.29 70.8341 Q916.17 72.2924 912.808 73.0216 Q909.486 73.7508 905.719 73.7508 Q895.47 73.7508 889.434 67.3098 Q883.399 60.8689 883.399 49.9314 Q883.399 38.832 889.475 32.472 Q895.592 26.1121 906.205 26.1121 Q909.648 26.1121 912.93 26.8413 Q916.211 27.5299 919.29 28.9478 Z" fill="#000000" fill-rule="nonzero" fill-opacity="1" /><path clip-path="url(#clip710)" d="M958.543 34.1734 Q957.287 33.4443 955.788 33.1202 Q954.33 32.7556 952.548 32.7556 Q946.228 32.7556 942.825 36.8875 Q939.463 40.9789 939.463 48.6757 L939.463 72.576 L931.969 72.576 L931.969 27.2059 L939.463 27.2059 L939.463 34.2544 Q941.813 30.1225 945.58 28.1376 Q949.347 26.1121 954.735 26.1121 Q955.505 26.1121 956.436 26.2337 Q957.368 26.3147 958.502 26.5172 L958.543 34.1734 Z" fill="#000000" fill-rule="nonzero" fill-opacity="1" /><path clip-path="url(#clip710)" d="M966.361 27.2059 L973.815 27.2059 L973.815 72.576 L966.361 72.576 L966.361 27.2059 M966.361 9.54393 L973.815 9.54393 L973.815 18.9825 L966.361 18.9825 L966.361 9.54393 Z" fill="#000000" fill-rule="nonzero" fill-opacity="1" /><path clip-path="url(#clip710)" d="M1021.98 49.9314 Q1021.98 41.7081 1018.58 37.0496 Q1015.22 32.3505 1009.3 32.3505 Q1003.39 32.3505 999.984 37.0496 Q996.621 41.7081 996.621 49.9314 Q996.621 58.1548 999.984 62.8538 Q1003.39 67.5124 1009.3 67.5124 Q1015.22 67.5124 1018.58 62.8538 Q1021.98 58.1548 1021.98 49.9314 M996.621 34.0924 Q998.971 30.0415 1002.54 28.0971 Q1006.14 26.1121 1011.12 26.1121 Q1019.39 26.1121 1024.53 32.6746 Q1029.72 39.2371 1029.72 49.9314 Q1029.72 60.6258 1024.53 67.1883 Q1019.39 73.7508 1011.12 73.7508 Q1006.14 73.7508 1002.54 71.8063 Q998.971 69.8214 996.621 65.7705 L996.621 72.576 L989.127 72.576 L989.127 9.54393 L996.621 9.54393 L996.621 34.0924 Z" fill="#000000" fill-rule="nonzero" fill-opacity="1" /><path clip-path="url(#clip710)" d="M1080.88 48.0275 L1080.88 51.6733 L1046.61 51.6733 Q1047.1 59.3701 1051.23 63.421 Q1055.4 67.4314 1062.81 67.4314 Q1067.11 67.4314 1071.12 66.3781 Q1075.17 65.3249 1079.14 63.2184 L1079.14 70.267 Q1075.13 71.9684 1070.91 72.8596 Q1066.7 73.7508 1062.37 73.7508 Q1051.51 73.7508 1045.15 67.4314 Q1038.83 61.1119 1038.83 50.3365 Q1038.83 39.1965 1044.83 32.6746 Q1050.86 26.1121 1061.07 26.1121 Q1070.23 26.1121 1075.53 32.0264 Q1080.88 37.9003 1080.88 48.0275 M1073.43 45.84 Q1073.35 39.7232 1069.98 36.0774 Q1066.66 32.4315 1061.15 32.4315 Q1054.91 32.4315 1051.15 35.9558 Q1047.42 39.4801 1046.85 45.8805 L1073.43 45.84 Z" fill="#000000" fill-rule="nonzero" fill-opacity="1" /><path clip-path="url(#clip710)" d="M1122.97 34.0924 L1122.97 9.54393 L1130.42 9.54393 L1130.42 72.576 L1122.97 72.576 L1122.97 65.7705 Q1120.62 69.8214 1117.01 71.8063 Q1113.45 73.7508 1108.43 73.7508 Q1100.2 73.7508 1095.02 67.1883 Q1089.87 60.6258 1089.87 49.9314 Q1089.87 39.2371 1095.02 32.6746 Q1100.2 26.1121 1108.43 26.1121 Q1113.45 26.1121 1117.01 28.0971 Q1120.62 30.0415 1122.97 34.0924 M1097.57 49.9314 Q1097.57 58.1548 1100.93 62.8538 Q1104.33 67.5124 1110.25 67.5124 Q1116.16 67.5124 1119.57 62.8538 Q1122.97 58.1548 1122.97 49.9314 Q1122.97 41.7081 1119.57 37.0496 Q1116.16 32.3505 1110.25 32.3505 Q1104.33 32.3505 1100.93 37.0496 Q1097.57 41.7081 1097.57 49.9314 Z" fill="#000000" fill-rule="nonzero" fill-opacity="1" /><path clip-path="url(#clip710)" d="M1180.65 18.8205 L1180.65 65.8515 L1190.54 65.8515 Q1203.06 65.8515 1208.85 60.1802 Q1214.68 54.509 1214.68 42.2752 Q1214.68 30.1225 1208.85 24.4918 Q1203.06 18.8205 1190.54 18.8205 L1180.65 18.8205 M1172.47 12.096 L1189.28 12.096 Q1206.86 12.096 1215.09 19.4281 Q1223.31 26.7198 1223.31 42.2752 Q1223.31 57.9117 1215.05 65.2439 Q1206.78 72.576 1189.28 72.576 L1172.47 72.576 L1172.47 12.096 Z" fill="#000000" fill-rule="nonzero" fill-opacity="1" /><path clip-path="url(#clip710)" d="M1253.61 32.4315 Q1247.62 32.4315 1244.13 37.1306 Q1240.65 41.7891 1240.65 49.9314 Q1240.65 58.0738 1244.09 62.7728 Q1247.57 67.4314 1253.61 67.4314 Q1259.57 67.4314 1263.05 62.7323 Q1266.53 58.0333 1266.53 49.9314 Q1266.53 41.8701 1263.05 37.1711 Q1259.57 32.4315 1253.61 32.4315 M1253.61 26.1121 Q1263.33 26.1121 1268.88 32.4315 Q1274.43 38.7509 1274.43 49.9314 Q1274.43 61.0714 1268.88 67.4314 Q1263.33 73.7508 1253.61 73.7508 Q1243.85 73.7508 1238.3 67.4314 Q1232.79 61.0714 1232.79 49.9314 Q1232.79 38.7509 1238.3 32.4315 Q1243.85 26.1121 1253.61 26.1121 Z" fill="#000000" fill-rule="nonzero" fill-opacity="1" /><path clip-path="url(#clip710)" d="M1304.37 32.4315 Q1298.37 32.4315 1294.89 37.1306 Q1291.41 41.7891 1291.41 49.9314 Q1291.41 58.0738 1294.85 62.7728 Q1298.33 67.4314 1304.37 67.4314 Q1310.32 67.4314 1313.81 62.7323 Q1317.29 58.0333 1317.29 49.9314 Q1317.29 41.8701 1313.81 37.1711 Q1310.32 32.4315 1304.37 32.4315 M1304.37 26.1121 Q1314.09 26.1121 1319.64 32.4315 Q1325.19 38.7509 1325.19 49.9314 Q1325.19 61.0714 1319.64 67.4314 Q1314.09 73.7508 1304.37 73.7508 Q1294.61 73.7508 1289.06 67.4314 Q1283.55 61.0714 1283.55 49.9314 Q1283.55 38.7509 1289.06 32.4315 Q1294.61 26.1121 1304.37 26.1121 Z" fill="#000000" fill-rule="nonzero" fill-opacity="1" /><path clip-path="url(#clip710)" d="M1363.84 34.1734 Q1362.58 33.4443 1361.08 33.1202 Q1359.62 32.7556 1357.84 32.7556 Q1351.52 32.7556 1348.12 36.8875 Q1344.76 40.9789 1344.76 48.6757 L1344.76 72.576 L1337.26 72.576 L1337.26 27.2059 L1344.76 27.2059 L1344.76 34.2544 Q1347.11 30.1225 1350.87 28.1376 Q1354.64 26.1121 1360.03 26.1121 Q1360.8 26.1121 1361.73 26.2337 Q1362.66 26.3147 1363.8 26.5172 L1363.84 34.1734 Z" fill="#000000" fill-rule="nonzero" fill-opacity="1" /><path clip-path="url(#clip710)" d="M1398.35 12.096 L1406.53 12.096 L1406.53 37.6572 L1433.67 12.096 L1444.21 12.096 L1414.19 40.2903 L1446.35 72.576 L1435.58 72.576 L1406.53 43.45 L1406.53 72.576 L1398.35 72.576 L1398.35 12.096 Z" fill="#000000" fill-rule="nonzero" fill-opacity="1" /><path clip-path="url(#clip710)" d="M1490.14 45.1919 L1490.14 72.576 L1482.69 72.576 L1482.69 45.4349 Q1482.69 38.994 1480.18 35.7938 Q1477.67 32.5936 1472.64 32.5936 Q1466.61 32.5936 1463.12 36.4419 Q1459.64 40.2903 1459.64 46.9338 L1459.64 72.576 L1452.15 72.576 L1452.15 27.2059 L1459.64 27.2059 L1459.64 34.2544 Q1462.31 30.163 1465.92 28.1376 Q1469.56 26.1121 1474.3 26.1121 Q1482.12 26.1121 1486.13 30.9732 Q1490.14 35.7938 1490.14 45.1919 Z" fill="#000000" fill-rule="nonzero" fill-opacity="1" /><path clip-path="url(#clip710)" d="M1522.59 32.4315 Q1516.6 32.4315 1513.11 37.1306 Q1509.63 41.7891 1509.63 49.9314 Q1509.63 58.0738 1513.07 62.7728 Q1516.55 67.4314 1522.59 67.4314 Q1528.55 67.4314 1532.03 62.7323 Q1535.51 58.0333 1535.51 49.9314 Q1535.51 41.8701 1532.03 37.1711 Q1528.55 32.4315 1522.59 32.4315 M1522.59 26.1121 Q1532.31 26.1121 1537.86 32.4315 Q1543.41 38.7509 1543.41 49.9314 Q1543.41 61.0714 1537.86 67.4314 Q1532.31 73.7508 1522.59 73.7508 Q1512.83 73.7508 1507.28 67.4314 Q1501.77 61.0714 1501.77 49.9314 Q1501.77 38.7509 1507.28 32.4315 Q1512.83 26.1121 1522.59 26.1121 Z" fill="#000000" fill-rule="nonzero" fill-opacity="1" /><path clip-path="url(#clip710)" d="M1588.34 49.9314 Q1588.34 41.7081 1584.93 37.0496 Q1581.57 32.3505 1575.66 32.3505 Q1569.74 32.3505 1566.34 37.0496 Q1562.98 41.7081 1562.98 49.9314 Q1562.98 58.1548 1566.34 62.8538 Q1569.74 67.5124 1575.66 67.5124 Q1581.57 67.5124 1584.93 62.8538 Q1588.34 58.1548 1588.34 49.9314 M1562.98 34.0924 Q1565.33 30.0415 1568.89 28.0971 Q1572.5 26.1121 1577.48 26.1121 Q1585.74 26.1121 1590.89 32.6746 Q1596.07 39.2371 1596.07 49.9314 Q1596.07 60.6258 1590.89 67.1883 Q1585.74 73.7508 1577.48 73.7508 Q1572.5 73.7508 1568.89 71.8063 Q1565.33 69.8214 1562.98 65.7705 L1562.98 72.576 L1555.48 72.576 L1555.48 9.54393 L1562.98 9.54393 L1562.98 34.0924 Z" fill="#000000" fill-rule="nonzero" fill-opacity="1" /><path clip-path="url(#clip710)" d="M1653.68 76.7889 Q1650.52 84.8907 1647.52 87.3618 Q1644.52 89.8329 1639.5 89.8329 L1633.55 89.8329 L1633.55 83.5945 L1637.92 83.5945 Q1641 83.5945 1642.7 82.1361 Q1644.4 80.6778 1646.47 75.2496 L1647.8 71.8468 L1629.45 27.2059 L1637.35 27.2059 L1651.53 62.6918 L1665.71 27.2059 L1673.61 27.2059 L1653.68 76.7889 Z" fill="#000000" fill-rule="nonzero" fill-opacity="1" /><path clip-path="url(#clip710)" d="M1678.67 46.5287 L1700.51 46.5287 L1700.51 53.1722 L1678.67 53.1722 L1678.67 46.5287 Z" fill="#000000" fill-rule="nonzero" fill-opacity="1" /><path clip-path="url(#clip710)" d="M1757.99 16.7545 L1757.99 25.383 Q1753.86 21.5346 1749.16 19.6307 Q1744.5 17.7268 1739.23 17.7268 Q1728.86 17.7268 1723.35 24.0867 Q1717.84 30.4061 1717.84 42.3968 Q1717.84 54.3469 1723.35 60.7069 Q1728.86 67.0263 1739.23 67.0263 Q1744.5 67.0263 1749.16 65.1223 Q1753.86 63.2184 1757.99 59.3701 L1757.99 67.9175 Q1753.69 70.8341 1748.87 72.2924 Q1744.09 73.7508 1738.75 73.7508 Q1725.01 73.7508 1717.12 65.3654 Q1709.22 56.9395 1709.22 42.3968 Q1709.22 27.8135 1717.12 19.4281 Q1725.01 11.0023 1738.75 11.0023 Q1744.18 11.0023 1748.96 12.4606 Q1753.78 13.8784 1757.99 16.7545 Z" fill="#000000" fill-rule="nonzero" fill-opacity="1" /><path clip-path="url(#clip710)" d="M1787.88 32.4315 Q1781.89 32.4315 1778.41 37.1306 Q1774.92 41.7891 1774.92 49.9314 Q1774.92 58.0738 1778.36 62.7728 Q1781.85 67.4314 1787.88 67.4314 Q1793.84 67.4314 1797.32 62.7323 Q1800.81 58.0333 1800.81 49.9314 Q1800.81 41.8701 1797.32 37.1711 Q1793.84 32.4315 1787.88 32.4315 M1787.88 26.1121 Q1797.61 26.1121 1803.16 32.4315 Q1808.71 38.7509 1808.71 49.9314 Q1808.71 61.0714 1803.16 67.4314 Q1797.61 73.7508 1787.88 73.7508 Q1778.12 73.7508 1772.57 67.4314 Q1767.06 61.0714 1767.06 49.9314 Q1767.06 38.7509 1772.57 32.4315 Q1778.12 26.1121 1787.88 26.1121 Z" fill="#000000" fill-rule="nonzero" fill-opacity="1" /><path clip-path="url(#clip710)" d="M1858.78 45.1919 L1858.78 72.576 L1851.32 72.576 L1851.32 45.4349 Q1851.32 38.994 1848.81 35.7938 Q1846.3 32.5936 1841.28 32.5936 Q1835.24 32.5936 1831.76 36.4419 Q1828.27 40.2903 1828.27 46.9338 L1828.27 72.576 L1820.78 72.576 L1820.78 27.2059 L1828.27 27.2059 L1828.27 34.2544 Q1830.95 30.163 1834.55 28.1376 Q1838.2 26.1121 1842.94 26.1121 Q1850.75 26.1121 1854.76 30.9732 Q1858.78 35.7938 1858.78 45.1919 Z" fill="#000000" fill-rule="nonzero" fill-opacity="1" /><path clip-path="url(#clip710)" d="M1902.57 28.5427 L1902.57 35.5912 Q1899.41 33.9709 1896 33.1607 Q1892.6 32.3505 1888.95 32.3505 Q1883.4 32.3505 1880.61 34.0519 Q1877.86 35.7533 1877.86 39.156 Q1877.86 41.7486 1879.84 43.2475 Q1881.82 44.7058 1887.82 46.0426 L1890.37 46.6097 Q1898.31 48.3111 1901.63 51.4303 Q1905 54.509 1905 60.0587 Q1905 66.3781 1899.97 70.0644 Q1894.99 73.7508 1886.24 73.7508 Q1882.59 73.7508 1878.62 73.0216 Q1874.7 72.3329 1870.32 70.9151 L1870.32 63.2184 Q1874.45 65.3654 1878.46 66.4591 Q1882.47 67.5124 1886.4 67.5124 Q1891.67 67.5124 1894.5 65.73 Q1897.34 63.9071 1897.34 60.6258 Q1897.34 57.5877 1895.27 55.9673 Q1893.25 54.3469 1886.32 52.8481 L1883.73 52.2405 Q1876.8 50.7821 1873.72 47.7845 Q1870.64 44.7463 1870.64 39.4801 Q1870.64 33.0797 1875.18 29.5959 Q1879.72 26.1121 1888.06 26.1121 Q1892.2 26.1121 1895.84 26.7198 Q1899.49 27.3274 1902.57 28.5427 Z" fill="#000000" fill-rule="nonzero" fill-opacity="1" /><path clip-path="url(#clip710)" d="M1924.24 14.324 L1924.24 27.2059 L1939.59 27.2059 L1939.59 32.9987 L1924.24 32.9987 L1924.24 57.6282 Q1924.24 63.1779 1925.74 64.7578 Q1927.28 66.3376 1931.93 66.3376 L1939.59 66.3376 L1939.59 72.576 L1931.93 72.576 Q1923.31 72.576 1920.02 69.3758 Q1916.74 66.1351 1916.74 57.6282 L1916.74 32.9987 L1911.28 32.9987 L1911.28 27.2059 L1916.74 27.2059 L1916.74 14.324 L1924.24 14.324 Z" fill="#000000" fill-rule="nonzero" fill-opacity="1" /><path clip-path="url(#clip710)" d="M1975.68 34.1734 Q1974.43 33.4443 1972.93 33.1202 Q1971.47 32.7556 1969.69 32.7556 Q1963.37 32.7556 1959.97 36.8875 Q1956.6 40.9789 1956.6 48.6757 L1956.6 72.576 L1949.11 72.576 L1949.11 27.2059 L1956.6 27.2059 L1956.6 34.2544 Q1958.95 30.1225 1962.72 28.1376 Q1966.49 26.1121 1971.88 26.1121 Q1972.65 26.1121 1973.58 26.2337 Q1974.51 26.3147 1975.64 26.5172 L1975.68 34.1734 Z" fill="#000000" fill-rule="nonzero" fill-opacity="1" /><path clip-path="url(#clip710)" d="M2004.12 49.7694 Q1995.09 49.7694 1991.6 51.8354 Q1988.12 53.9013 1988.12 58.8839 Q1988.12 62.8538 1990.71 65.2034 Q1993.35 67.5124 1997.84 67.5124 Q2004.04 67.5124 2007.77 63.1374 Q2011.53 58.7219 2011.53 51.4303 L2011.53 49.7694 L2004.12 49.7694 M2018.99 46.6907 L2018.99 72.576 L2011.53 72.576 L2011.53 65.6895 Q2008.98 69.8214 2005.17 71.8063 Q2001.37 73.7508 1995.86 73.7508 Q1988.89 73.7508 1984.76 69.8619 Q1980.67 65.9325 1980.67 59.3701 Q1980.67 51.7138 1985.77 47.825 Q1990.92 43.9361 2001.08 43.9361 L2011.53 43.9361 L2011.53 43.2069 Q2011.53 38.0623 2008.13 35.2672 Q2004.77 32.4315 1998.65 32.4315 Q1994.76 32.4315 1991.08 33.3632 Q1987.39 34.295 1983.99 36.1584 L1983.99 29.2718 Q1988.08 27.692 1991.93 26.9223 Q1995.78 26.1121 1999.42 26.1121 Q2009.27 26.1121 2014.13 31.2163 Q2018.99 36.3204 2018.99 46.6907 Z" fill="#000000" fill-rule="nonzero" fill-opacity="1" /><path clip-path="url(#clip710)" d="M2034.34 27.2059 L2041.8 27.2059 L2041.8 72.576 L2034.34 72.576 L2034.34 27.2059 M2034.34 9.54393 L2041.8 9.54393 L2041.8 18.9825 L2034.34 18.9825 L2034.34 9.54393 Z" fill="#000000" fill-rule="nonzero" fill-opacity="1" /><path clip-path="url(#clip710)" d="M2095.11 45.1919 L2095.11 72.576 L2087.65 72.576 L2087.65 45.4349 Q2087.65 38.994 2085.14 35.7938 Q2082.63 32.5936 2077.61 32.5936 Q2071.57 32.5936 2068.09 36.4419 Q2064.6 40.2903 2064.6 46.9338 L2064.6 72.576 L2057.11 72.576 L2057.11 27.2059 L2064.6 27.2059 L2064.6 34.2544 Q2067.28 30.163 2070.88 28.1376 Q2074.53 26.1121 2079.27 26.1121 Q2087.08 26.1121 2091.09 30.9732 Q2095.11 35.7938 2095.11 45.1919 Z" fill="#000000" fill-rule="nonzero" fill-opacity="1" /><path clip-path="url(#clip710)" d="M2117.34 14.324 L2117.34 27.2059 L2132.7 27.2059 L2132.7 32.9987 L2117.34 32.9987 L2117.34 57.6282 Q2117.34 63.1779 2118.84 64.7578 Q2120.38 66.3376 2125.04 66.3376 L2132.7 66.3376 L2132.7 72.576 L2125.04 72.576 Q2116.41 72.576 2113.13 69.3758 Q2109.85 66.1351 2109.85 57.6282 L2109.85 32.9987 L2104.38 32.9987 L2104.38 27.2059 L2109.85 27.2059 L2109.85 14.324 L2117.34 14.324 Z" fill="#000000" fill-rule="nonzero" fill-opacity="1" /><circle clip-path="url(#clip711)" cx="602.46" cy="1237.51" r="21.6" fill="#009af9" fill-rule="evenodd" fill-opacity="1" stroke="#000000" stroke-opacity="1" stroke-width="3.2"/>
<polyline clip-path="url(#clip711)" style="stroke:#e26f46; stroke-linecap:round; stroke-linejoin:round; stroke-width:8; stroke-opacity:1; fill:none" points="602.46,1260.72 1530.82,1260.72 1530.82,1214.3 602.46,1214.3 602.46,1260.72 "/>
<circle clip-path="url(#clip711)" cx="1530.82" cy="1237.51" r="14.4" fill="#3da44d" fill-rule="evenodd" fill-opacity="1" stroke="#000000" stroke-opacity="1" stroke-width="3.2"/>
<polyline clip-path="url(#clip711)" style="stroke:#c271d2; stroke-linecap:round; stroke-linejoin:round; stroke-width:8; stroke-opacity:1; fill:none" points="607.483,1260.17 1513.84,1059.23 1503.79,1013.91 597.437,1214.85 607.483,1260.17 "/>
<circle clip-path="url(#clip711)" cx="1508.82" cy="1036.57" r="14.4" fill="#ac8d18" fill-rule="evenodd" fill-opacity="1" stroke="#000000" stroke-opacity="1" stroke-width="3.2"/>
<polyline clip-path="url(#clip711)" style="stroke:#00a9ad; stroke-linecap:round; stroke-linejoin:round; stroke-width:8; stroke-opacity:1; fill:none" points="617.378,1255.29 1328.55,658.546 1298.71,622.988 587.541,1219.73 617.378,1255.29 "/>
<circle clip-path="url(#clip711)" cx="1313.63" cy="640.767" r="14.4" fill="#ed5d92" fill-rule="evenodd" fill-opacity="1" stroke="#000000" stroke-opacity="1" stroke-width="3.2"/>
<polyline clip-path="url(#clip711)" style="stroke:#c68125; stroke-linecap:round; stroke-linejoin:round; stroke-width:8; stroke-opacity:1; fill:none" points="623.902,1246.39 979.171,388.694 936.287,370.93 581.018,1228.63 623.902,1246.39 "/>
<circle clip-path="url(#clip711)" cx="957.729" cy="379.812" r="14.4" fill="#00a98d" fill-rule="evenodd" fill-opacity="1" stroke="#000000" stroke-opacity="1" stroke-width="3.2"/>
<polyline clip-path="url(#clip711)" style="stroke:#8e971d; stroke-linecap:round; stroke-linejoin:round; stroke-width:8; stroke-opacity:1; fill:none" points="625.316,1241.54 786.525,327.279 740.812,319.218 579.603,1233.48 625.316,1241.54 "/>
<circle clip-path="url(#clip711)" cx="763.668" cy="323.249" r="14.4" fill="#00a8cb" fill-rule="evenodd" fill-opacity="1" stroke="#000000" stroke-opacity="1" stroke-width="3.2"/>
<path clip-path="url(#clip710)" d="M1786.6 972.17 L2185.51 972.17 L2185.51 609.29 L1786.6 609.29  Z" fill="#ffffff" fill-rule="evenodd" fill-opacity="1"/>
<polyline clip-path="url(#clip710)" style="stroke:#000000; stroke-linecap:round; stroke-linejoin:round; stroke-width:4; stroke-opacity:1; fill:none" points="1786.6,972.17 2185.51,972.17 2185.51,609.29 1786.6,609.29 1786.6,972.17 "/>
<circle clip-path="url(#clip710)" cx="1880.08" cy="661.13" r="21.2677" fill="#009af9" fill-rule="evenodd" fill-opacity="1" stroke="#000000" stroke-opacity="1" stroke-width="3.15077"/>
<path clip-path="url(#clip710)" d="M1995.27 662.762 L1995.27 678.41 L1991.01 678.41 L1991.01 662.9 Q1991.01 659.22 1989.57 657.391 Q1988.14 655.562 1985.27 655.562 Q1981.82 655.562 1979.83 657.762 Q1977.84 659.961 1977.84 663.757 L1977.84 678.41 L1973.55 678.41 L1973.55 642.391 L1977.84 642.391 L1977.84 656.512 Q1979.36 654.174 1981.42 653.016 Q1983.51 651.859 1986.22 651.859 Q1990.68 651.859 1992.98 654.637 Q1995.27 657.391 1995.27 662.762 Z" fill="#000000" fill-rule="nonzero" fill-opacity="1" /><path clip-path="url(#clip710)" d="M2003.76 652.484 L2008.02 652.484 L2008.02 678.41 L2003.76 678.41 L2003.76 652.484 M2003.76 642.391 L2008.02 642.391 L2008.02 647.785 L2003.76 647.785 L2003.76 642.391 Z" fill="#000000" fill-rule="nonzero" fill-opacity="1" /><path clip-path="url(#clip710)" d="M2038.48 662.762 L2038.48 678.41 L2034.23 678.41 L2034.23 662.9 Q2034.23 659.22 2032.79 657.391 Q2031.36 655.562 2028.48 655.562 Q2025.04 655.562 2023.05 657.762 Q2021.05 659.961 2021.05 663.757 L2021.05 678.41 L2016.77 678.41 L2016.77 652.484 L2021.05 652.484 L2021.05 656.512 Q2022.58 654.174 2024.64 653.016 Q2026.73 651.859 2029.43 651.859 Q2033.9 651.859 2036.19 654.637 Q2038.48 657.391 2038.48 662.762 Z" fill="#000000" fill-rule="nonzero" fill-opacity="1" /><path clip-path="url(#clip710)" d="M2064.04 665.146 Q2064.04 660.516 2062.12 657.97 Q2060.22 655.424 2056.77 655.424 Q2053.35 655.424 2051.42 657.97 Q2049.53 660.516 2049.53 665.146 Q2049.53 669.752 2051.42 672.298 Q2053.35 674.845 2056.77 674.845 Q2060.22 674.845 2062.12 672.298 Q2064.04 669.752 2064.04 665.146 M2068.3 675.192 Q2068.3 681.812 2065.36 685.03 Q2062.42 688.271 2056.36 688.271 Q2054.11 688.271 2052.12 687.923 Q2050.13 687.599 2048.25 686.905 L2048.25 682.761 Q2050.13 683.78 2051.96 684.266 Q2053.79 684.752 2055.68 684.752 Q2059.87 684.752 2061.96 682.553 Q2064.04 680.377 2064.04 675.956 L2064.04 673.849 Q2062.72 676.141 2060.66 677.275 Q2058.6 678.41 2055.73 678.41 Q2050.96 678.41 2048.04 674.775 Q2045.13 671.141 2045.13 665.146 Q2045.13 659.127 2048.04 655.493 Q2050.96 651.859 2055.73 651.859 Q2058.6 651.859 2060.66 652.993 Q2062.72 654.127 2064.04 656.419 L2064.04 652.484 L2068.3 652.484 L2068.3 675.192 Z" fill="#000000" fill-rule="nonzero" fill-opacity="1" /><path clip-path="url(#clip710)" d="M2099.25 664.382 L2099.25 666.465 L2079.67 666.465 Q2079.94 670.863 2082.3 673.178 Q2084.69 675.47 2088.92 675.47 Q2091.38 675.47 2093.67 674.868 Q2095.98 674.266 2098.25 673.062 L2098.25 677.09 Q2095.96 678.062 2093.55 678.572 Q2091.15 679.081 2088.67 679.081 Q2082.47 679.081 2078.83 675.47 Q2075.22 671.859 2075.22 665.701 Q2075.22 659.336 2078.65 655.609 Q2082.1 651.859 2087.93 651.859 Q2093.16 651.859 2096.19 655.238 Q2099.25 658.595 2099.25 664.382 M2094.99 663.132 Q2094.94 659.637 2093.02 657.553 Q2091.12 655.47 2087.98 655.47 Q2084.41 655.47 2082.26 657.484 Q2080.13 659.498 2079.8 663.155 L2094.99 663.132 Z" fill="#000000" fill-rule="nonzero" fill-opacity="1" /><polyline clip-path="url(#clip710)" style="stroke:#e26f46; stroke-linecap:round; stroke-linejoin:round; stroke-width:8; stroke-opacity:1; fill:none" points="1809.97,712.97 1950.19,712.97 "/>
<path clip-path="url(#clip710)" d="M1980.96 696.963 L1980.96 704.324 L1989.74 704.324 L1989.74 707.634 L1980.96 707.634 L1980.96 721.708 Q1980.96 724.879 1981.82 725.782 Q1982.7 726.685 1985.36 726.685 L1989.74 726.685 L1989.74 730.25 L1985.36 730.25 Q1980.43 730.25 1978.55 728.421 Q1976.68 726.569 1976.68 721.708 L1976.68 707.634 L1973.55 707.634 L1973.55 704.324 L1976.68 704.324 L1976.68 696.963 L1980.96 696.963 Z" fill="#000000" fill-rule="nonzero" fill-opacity="1" /><path clip-path="url(#clip710)" d="M2010.96 708.722 L2040.64 708.722 L2040.64 712.611 L2010.96 712.611 L2010.96 708.722 M2010.96 718.166 L2040.64 718.166 L2040.64 722.101 L2010.96 722.101 L2010.96 718.166 Z" fill="#000000" fill-rule="nonzero" fill-opacity="1" /><path clip-path="url(#clip710)" d="M2075.8 698.768 Q2072.19 698.768 2070.36 702.333 Q2068.55 705.875 2068.55 713.004 Q2068.55 720.111 2070.36 723.676 Q2072.19 727.217 2075.8 727.217 Q2079.43 727.217 2081.24 723.676 Q2083.07 720.111 2083.07 713.004 Q2083.07 705.875 2081.24 702.333 Q2079.43 698.768 2075.8 698.768 M2075.8 695.065 Q2081.61 695.065 2084.67 699.671 Q2087.74 704.254 2087.74 713.004 Q2087.74 721.731 2084.67 726.338 Q2081.61 730.921 2075.8 730.921 Q2069.99 730.921 2066.91 726.338 Q2063.86 721.731 2063.86 713.004 Q2063.86 704.254 2066.91 699.671 Q2069.99 695.065 2075.8 695.065 Z" fill="#000000" fill-rule="nonzero" fill-opacity="1" /><path clip-path="url(#clip710)" d="M2095.96 724.37 L2100.85 724.37 L2100.85 730.25 L2095.96 730.25 L2095.96 724.37 Z" fill="#000000" fill-rule="nonzero" fill-opacity="1" /><path clip-path="url(#clip710)" d="M2121.03 698.768 Q2117.42 698.768 2115.59 702.333 Q2113.79 705.875 2113.79 713.004 Q2113.79 720.111 2115.59 723.676 Q2117.42 727.217 2121.03 727.217 Q2124.66 727.217 2126.47 723.676 Q2128.3 720.111 2128.3 713.004 Q2128.3 705.875 2126.47 702.333 Q2124.66 698.768 2121.03 698.768 M2121.03 695.065 Q2126.84 695.065 2129.9 699.671 Q2132.98 704.254 2132.98 713.004 Q2132.98 721.731 2129.9 726.338 Q2126.84 730.921 2121.03 730.921 Q2115.22 730.921 2112.14 726.338 Q2109.09 721.731 2109.09 713.004 Q2109.09 704.254 2112.14 699.671 Q2115.22 695.065 2121.03 695.065 Z" fill="#000000" fill-rule="nonzero" fill-opacity="1" /><polyline clip-path="url(#clip710)" style="stroke:#c271d2; stroke-linecap:round; stroke-linejoin:round; stroke-width:8; stroke-opacity:1; fill:none" points="1809.97,764.81 1950.19,764.81 "/>
<path clip-path="url(#clip710)" d="M1980.96 748.803 L1980.96 756.164 L1989.74 756.164 L1989.74 759.474 L1980.96 759.474 L1980.96 773.548 Q1980.96 776.719 1981.82 777.622 Q1982.7 778.525 1985.36 778.525 L1989.74 778.525 L1989.74 782.09 L1985.36 782.09 Q1980.43 782.09 1978.55 780.261 Q1976.68 778.409 1976.68 773.548 L1976.68 759.474 L1973.55 759.474 L1973.55 756.164 L1976.68 756.164 L1976.68 748.803 L1980.96 748.803 Z" fill="#000000" fill-rule="nonzero" fill-opacity="1" /><path clip-path="url(#clip710)" d="M2010.96 760.562 L2040.64 760.562 L2040.64 764.451 L2010.96 764.451 L2010.96 760.562 M2010.96 770.006 L2040.64 770.006 L2040.64 773.941 L2010.96 773.941 L2010.96 770.006 Z" fill="#000000" fill-rule="nonzero" fill-opacity="1" /><path clip-path="url(#clip710)" d="M2075.8 750.608 Q2072.19 750.608 2070.36 754.173 Q2068.55 757.715 2068.55 764.844 Q2068.55 771.951 2070.36 775.516 Q2072.19 779.057 2075.8 779.057 Q2079.43 779.057 2081.24 775.516 Q2083.07 771.951 2083.07 764.844 Q2083.07 757.715 2081.24 754.173 Q2079.43 750.608 2075.8 750.608 M2075.8 746.905 Q2081.61 746.905 2084.67 751.511 Q2087.74 756.094 2087.74 764.844 Q2087.74 773.571 2084.67 778.178 Q2081.61 782.761 2075.8 782.761 Q2069.99 782.761 2066.91 778.178 Q2063.86 773.571 2063.86 764.844 Q2063.86 756.094 2066.91 751.511 Q2069.99 746.905 2075.8 746.905 Z" fill="#000000" fill-rule="nonzero" fill-opacity="1" /><path clip-path="url(#clip710)" d="M2095.96 776.21 L2100.85 776.21 L2100.85 782.09 L2095.96 782.09 L2095.96 776.21 Z" fill="#000000" fill-rule="nonzero" fill-opacity="1" /><path clip-path="url(#clip710)" d="M2115.06 778.154 L2131.38 778.154 L2131.38 782.09 L2109.43 782.09 L2109.43 778.154 Q2112.1 775.4 2116.68 770.77 Q2121.29 766.117 2122.47 764.775 Q2124.71 762.252 2125.59 760.516 Q2126.49 758.756 2126.49 757.067 Q2126.49 754.312 2124.55 752.576 Q2122.63 750.84 2119.53 750.84 Q2117.33 750.84 2114.87 751.604 Q2112.44 752.368 2109.66 753.918 L2109.66 749.196 Q2112.49 748.062 2114.94 747.483 Q2117.4 746.905 2119.43 746.905 Q2124.8 746.905 2128 749.59 Q2131.19 752.275 2131.19 756.766 Q2131.19 758.895 2130.38 760.817 Q2129.6 762.715 2127.49 765.307 Q2126.91 765.979 2123.81 769.196 Q2120.71 772.391 2115.06 778.154 Z" fill="#000000" fill-rule="nonzero" fill-opacity="1" /><path clip-path="url(#clip710)" d="M2141.24 747.53 L2159.6 747.53 L2159.6 751.465 L2145.52 751.465 L2145.52 759.937 Q2146.54 759.59 2147.56 759.428 Q2148.58 759.242 2149.6 759.242 Q2155.38 759.242 2158.76 762.414 Q2162.14 765.585 2162.14 771.002 Q2162.14 776.58 2158.67 779.682 Q2155.2 782.761 2148.88 782.761 Q2146.7 782.761 2144.43 782.39 Q2142.19 782.02 2139.78 781.279 L2139.78 776.58 Q2141.86 777.715 2144.09 778.27 Q2146.31 778.826 2148.79 778.826 Q2152.79 778.826 2155.13 776.719 Q2157.47 774.613 2157.47 771.002 Q2157.47 767.391 2155.13 765.284 Q2152.79 763.178 2148.79 763.178 Q2146.91 763.178 2145.04 763.594 Q2143.18 764.011 2141.24 764.891 L2141.24 747.53 Z" fill="#000000" fill-rule="nonzero" fill-opacity="1" /><polyline clip-path="url(#clip710)" style="stroke:#00a9ad; stroke-linecap:round; stroke-linejoin:round; stroke-width:8; stroke-opacity:1; fill:none" points="1809.97,816.65 1950.19,816.65 "/>
<path clip-path="url(#clip710)" d="M1980.96 800.643 L1980.96 808.004 L1989.74 808.004 L1989.74 811.314 L1980.96 811.314 L1980.96 825.388 Q1980.96 828.559 1981.82 829.462 Q1982.7 830.365 1985.36 830.365 L1989.74 830.365 L1989.74 833.93 L1985.36 833.93 Q1980.43 833.93 1978.55 832.101 Q1976.68 830.249 1976.68 825.388 L1976.68 811.314 L1973.55 811.314 L1973.55 808.004 L1976.68 808.004 L1976.68 800.643 L1980.96 800.643 Z" fill="#000000" fill-rule="nonzero" fill-opacity="1" /><path clip-path="url(#clip710)" d="M2010.96 812.402 L2040.64 812.402 L2040.64 816.291 L2010.96 816.291 L2010.96 812.402 M2010.96 821.846 L2040.64 821.846 L2040.64 825.781 L2010.96 825.781 L2010.96 821.846 Z" fill="#000000" fill-rule="nonzero" fill-opacity="1" /><path clip-path="url(#clip710)" d="M2075.8 802.448 Q2072.19 802.448 2070.36 806.013 Q2068.55 809.555 2068.55 816.684 Q2068.55 823.791 2070.36 827.356 Q2072.19 830.897 2075.8 830.897 Q2079.43 830.897 2081.24 827.356 Q2083.07 823.791 2083.07 816.684 Q2083.07 809.555 2081.24 806.013 Q2079.43 802.448 2075.8 802.448 M2075.8 798.745 Q2081.61 798.745 2084.67 803.351 Q2087.74 807.934 2087.74 816.684 Q2087.74 825.411 2084.67 830.018 Q2081.61 834.601 2075.8 834.601 Q2069.99 834.601 2066.91 830.018 Q2063.86 825.411 2063.86 816.684 Q2063.86 807.934 2066.91 803.351 Q2069.99 798.745 2075.8 798.745 Z" fill="#000000" fill-rule="nonzero" fill-opacity="1" /><path clip-path="url(#clip710)" d="M2095.96 828.05 L2100.85 828.05 L2100.85 833.93 L2095.96 833.93 L2095.96 828.05 Z" fill="#000000" fill-rule="nonzero" fill-opacity="1" /><path clip-path="url(#clip710)" d="M2111.08 799.37 L2129.43 799.37 L2129.43 803.305 L2115.36 803.305 L2115.36 811.777 Q2116.38 811.43 2117.4 811.268 Q2118.41 811.082 2119.43 811.082 Q2125.22 811.082 2128.6 814.254 Q2131.98 817.425 2131.98 822.842 Q2131.98 828.42 2128.51 831.522 Q2125.04 834.601 2118.72 834.601 Q2116.54 834.601 2114.27 834.23 Q2112.03 833.86 2109.62 833.119 L2109.62 828.42 Q2111.7 829.555 2113.92 830.11 Q2116.15 830.666 2118.62 830.666 Q2122.63 830.666 2124.97 828.559 Q2127.3 826.453 2127.3 822.842 Q2127.3 819.231 2124.97 817.124 Q2122.63 815.018 2118.62 815.018 Q2116.75 815.018 2114.87 815.434 Q2113.02 815.851 2111.08 816.731 L2111.08 799.37 Z" fill="#000000" fill-rule="nonzero" fill-opacity="1" /><polyline clip-path="url(#clip710)" style="stroke:#c68125; stroke-linecap:round; stroke-linejoin:round; stroke-width:8; stroke-opacity:1; fill:none" points="1809.97,868.49 1950.19,868.49 "/>
<path clip-path="url(#clip710)" d="M1980.96 852.483 L1980.96 859.844 L1989.74 859.844 L1989.74 863.154 L1980.96 863.154 L1980.96 877.228 Q1980.96 880.399 1981.82 881.302 Q1982.7 882.205 1985.36 882.205 L1989.74 882.205 L1989.74 885.77 L1985.36 885.77 Q1980.43 885.77 1978.55 883.941 Q1976.68 882.089 1976.68 877.228 L1976.68 863.154 L1973.55 863.154 L1973.55 859.844 L1976.68 859.844 L1976.68 852.483 L1980.96 852.483 Z" fill="#000000" fill-rule="nonzero" fill-opacity="1" /><path clip-path="url(#clip710)" d="M2010.96 864.242 L2040.64 864.242 L2040.64 868.131 L2010.96 868.131 L2010.96 864.242 M2010.96 873.686 L2040.64 873.686 L2040.64 877.621 L2010.96 877.621 L2010.96 873.686 Z" fill="#000000" fill-rule="nonzero" fill-opacity="1" /><path clip-path="url(#clip710)" d="M2075.8 854.288 Q2072.19 854.288 2070.36 857.853 Q2068.55 861.395 2068.55 868.524 Q2068.55 875.631 2070.36 879.196 Q2072.19 882.737 2075.8 882.737 Q2079.43 882.737 2081.24 879.196 Q2083.07 875.631 2083.07 868.524 Q2083.07 861.395 2081.24 857.853 Q2079.43 854.288 2075.8 854.288 M2075.8 850.585 Q2081.61 850.585 2084.67 855.191 Q2087.74 859.774 2087.74 868.524 Q2087.74 877.251 2084.67 881.858 Q2081.61 886.441 2075.8 886.441 Q2069.99 886.441 2066.91 881.858 Q2063.86 877.251 2063.86 868.524 Q2063.86 859.774 2066.91 855.191 Q2069.99 850.585 2075.8 850.585 Z" fill="#000000" fill-rule="nonzero" fill-opacity="1" /><path clip-path="url(#clip710)" d="M2095.96 879.89 L2100.85 879.89 L2100.85 885.77 L2095.96 885.77 L2095.96 879.89 Z" fill="#000000" fill-rule="nonzero" fill-opacity="1" /><path clip-path="url(#clip710)" d="M2109.85 851.21 L2132.07 851.21 L2132.07 853.2 L2119.53 885.77 L2114.64 885.77 L2126.45 855.145 L2109.85 855.145 L2109.85 851.21 Z" fill="#000000" fill-rule="nonzero" fill-opacity="1" /><path clip-path="url(#clip710)" d="M2141.24 851.21 L2159.6 851.21 L2159.6 855.145 L2145.52 855.145 L2145.52 863.617 Q2146.54 863.27 2147.56 863.108 Q2148.58 862.922 2149.6 862.922 Q2155.38 862.922 2158.76 866.094 Q2162.14 869.265 2162.14 874.682 Q2162.14 880.26 2158.67 883.362 Q2155.2 886.441 2148.88 886.441 Q2146.7 886.441 2144.43 886.07 Q2142.19 885.7 2139.78 884.959 L2139.78 880.26 Q2141.86 881.395 2144.09 881.95 Q2146.31 882.506 2148.79 882.506 Q2152.79 882.506 2155.13 880.399 Q2157.47 878.293 2157.47 874.682 Q2157.47 871.071 2155.13 868.964 Q2152.79 866.858 2148.79 866.858 Q2146.91 866.858 2145.04 867.274 Q2143.18 867.691 2141.24 868.571 L2141.24 851.21 Z" fill="#000000" fill-rule="nonzero" fill-opacity="1" /><polyline clip-path="url(#clip710)" style="stroke:#8e971d; stroke-linecap:round; stroke-linejoin:round; stroke-width:8; stroke-opacity:1; fill:none" points="1809.97,920.33 1950.19,920.33 "/>
<path clip-path="url(#clip710)" d="M1980.96 904.323 L1980.96 911.684 L1989.74 911.684 L1989.74 914.994 L1980.96 914.994 L1980.96 929.068 Q1980.96 932.239 1981.82 933.142 Q1982.7 934.045 1985.36 934.045 L1989.74 934.045 L1989.74 937.61 L1985.36 937.61 Q1980.43 937.61 1978.55 935.781 Q1976.68 933.929 1976.68 929.068 L1976.68 914.994 L1973.55 914.994 L1973.55 911.684 L1976.68 911.684 L1976.68 904.323 L1980.96 904.323 Z" fill="#000000" fill-rule="nonzero" fill-opacity="1" /><path clip-path="url(#clip710)" d="M2010.96 916.082 L2040.64 916.082 L2040.64 919.971 L2010.96 919.971 L2010.96 916.082 M2010.96 925.526 L2040.64 925.526 L2040.64 929.461 L2010.96 929.461 L2010.96 925.526 Z" fill="#000000" fill-rule="nonzero" fill-opacity="1" /><path clip-path="url(#clip710)" d="M2066.61 933.674 L2074.25 933.674 L2074.25 907.309 L2065.94 908.975 L2065.94 904.716 L2074.2 903.05 L2078.88 903.05 L2078.88 933.674 L2086.52 933.674 L2086.52 937.61 L2066.61 937.61 L2066.61 933.674 Z" fill="#000000" fill-rule="nonzero" fill-opacity="1" /><path clip-path="url(#clip710)" d="M2095.96 931.73 L2100.85 931.73 L2100.85 937.61 L2095.96 937.61 L2095.96 931.73 Z" fill="#000000" fill-rule="nonzero" fill-opacity="1" /><path clip-path="url(#clip710)" d="M2121.03 906.128 Q2117.42 906.128 2115.59 909.693 Q2113.79 913.235 2113.79 920.364 Q2113.79 927.471 2115.59 931.036 Q2117.42 934.577 2121.03 934.577 Q2124.66 934.577 2126.47 931.036 Q2128.3 927.471 2128.3 920.364 Q2128.3 913.235 2126.47 909.693 Q2124.66 906.128 2121.03 906.128 M2121.03 902.425 Q2126.84 902.425 2129.9 907.031 Q2132.98 911.614 2132.98 920.364 Q2132.98 929.091 2129.9 933.698 Q2126.84 938.281 2121.03 938.281 Q2115.22 938.281 2112.14 933.698 Q2109.09 929.091 2109.09 920.364 Q2109.09 911.614 2112.14 907.031 Q2115.22 902.425 2121.03 902.425 Z" fill="#000000" fill-rule="nonzero" fill-opacity="1" /></svg>
