<?xml version="1.0" encoding="utf-8"?>
<svg xmlns="http://www.w3.org/2000/svg" xmlns:xlink="http://www.w3.org/1999/xlink" width="600" height="400" viewBox="0 0 2400 1600">
<defs>
  <clipPath id="clip460">
    <rect x="0" y="0" width="2400" height="1600"/>
  </clipPath>
</defs>
<path clip-path="url(#clip460)" d="M0 1600 L2400 1600 L2400 0 L0 0  Z" fill="#ffffff" fill-rule="evenodd" fill-opacity="1"/>
<defs>
  <clipPath id="clip461">
    <rect x="219" y="123" width="2134" height="1301"/>
  </clipPath>
</defs>
<path clip-path="url(#clip460)" d="M249.542 1423.18 L2352.76 1423.18 L2352.76 123.472 L249.542 123.472  Z" fill="#ffffff" fill-rule="evenodd" fill-opacity="1"/>
<defs>
  <clipPath id="clip462">
    <rect x="249" y="123" width="2104" height="1301"/>
  </clipPath>
</defs>
<polyline clip-path="url(#clip462)" style="stroke:#000000; stroke-linecap:round; stroke-linejoin:round; stroke-width:2; stroke-opacity:0.1; fill:none" points="429.611,1423.18 429.611,123.472 "/>
<polyline clip-path="url(#clip462)" style="stroke:#000000; stroke-linecap:round; stroke-linejoin:round; stroke-width:2; stroke-opacity:0.1; fill:none" points="678.622,1423.18 678.622,123.472 "/>
<polyline clip-path="url(#clip462)" style="stroke:#000000; stroke-linecap:round; stroke-linejoin:round; stroke-width:2; stroke-opacity:0.1; fill:none" points="927.633,1423.18 927.633,123.472 "/>
<polyline clip-path="url(#clip462)" style="stroke:#000000; stroke-linecap:round; stroke-linejoin:round; stroke-width:2; stroke-opacity:0.1; fill:none" points="1176.64,1423.18 1176.64,123.472 "/>
<polyline clip-path="url(#clip462)" style="stroke:#000000; stroke-linecap:round; stroke-linejoin:round; stroke-width:2; stroke-opacity:0.1; fill:none" points="1425.65,1423.18 1425.65,123.472 "/>
<polyline clip-path="url(#clip462)" style="stroke:#000000; stroke-linecap:round; stroke-linejoin:round; stroke-width:2; stroke-opacity:0.1; fill:none" points="1674.67,1423.18 1674.67,123.472 "/>
<polyline clip-path="url(#clip462)" style="stroke:#000000; stroke-linecap:round; stroke-linejoin:round; stroke-width:2; stroke-opacity:0.1; fill:none" points="1923.68,1423.18 1923.68,123.472 "/>
<polyline clip-path="url(#clip462)" style="stroke:#000000; stroke-linecap:round; stroke-linejoin:round; stroke-width:2; stroke-opacity:0.1; fill:none" points="2172.69,1423.18 2172.69,123.472 "/>
<polyline clip-path="url(#clip462)" style="stroke:#000000; stroke-linecap:round; stroke-linejoin:round; stroke-width:2; stroke-opacity:0.1; fill:none" points="249.542,1386.4 2352.76,1386.4 "/>
<polyline clip-path="url(#clip462)" style="stroke:#000000; stroke-linecap:round; stroke-linejoin:round; stroke-width:2; stroke-opacity:0.1; fill:none" points="249.542,1075.13 2352.76,1075.13 "/>
<polyline clip-path="url(#clip462)" style="stroke:#000000; stroke-linecap:round; stroke-linejoin:round; stroke-width:2; stroke-opacity:0.1; fill:none" points="249.542,763.868 2352.76,763.868 "/>
<polyline clip-path="url(#clip462)" style="stroke:#000000; stroke-linecap:round; stroke-linejoin:round; stroke-width:2; stroke-opacity:0.1; fill:none" points="249.542,452.605 2352.76,452.605 "/>
<polyline clip-path="url(#clip462)" style="stroke:#000000; stroke-linecap:round; stroke-linejoin:round; stroke-width:2; stroke-opacity:0.1; fill:none" points="249.542,141.341 2352.76,141.341 "/>
<polyline clip-path="url(#clip460)" style="stroke:#000000; stroke-linecap:round; stroke-linejoin:round; stroke-width:4; stroke-opacity:1; fill:none" points="249.542,1423.18 2352.76,1423.18 "/>
<polyline clip-path="url(#clip460)" style="stroke:#000000; stroke-linecap:round; stroke-linejoin:round; stroke-width:4; stroke-opacity:1; fill:none" points="429.611,1423.18 429.611,1404.28 "/>
<polyline clip-path="url(#clip460)" style="stroke:#000000; stroke-linecap:round; stroke-linejoin:round; stroke-width:4; stroke-opacity:1; fill:none" points="678.622,1423.18 678.622,1404.28 "/>
<polyline clip-path="url(#clip460)" style="stroke:#000000; stroke-linecap:round; stroke-linejoin:round; stroke-width:4; stroke-opacity:1; fill:none" points="927.633,1423.18 927.633,1404.28 "/>
<polyline clip-path="url(#clip460)" style="stroke:#000000; stroke-linecap:round; stroke-linejoin:round; stroke-width:4; stroke-opacity:1; fill:none" points="1176.64,1423.18 1176.64,1404.28 "/>
<polyline clip-path="url(#clip460)" style="stroke:#000000; stroke-linecap:round; stroke-linejoin:round; stroke-width:4; stroke-opacity:1; fill:none" points="1425.65,1423.18 1425.65,1404.28 "/>
<polyline clip-path="url(#clip460)" style="stroke:#000000; stroke-linecap:round; stroke-linejoin:round; stroke-width:4; stroke-opacity:1; fill:none" points="1674.67,1423.18 1674.67,1404.28 "/>
<polyline clip-path="url(#clip460)" style="stroke:#000000; stroke-linecap:round; stroke-linejoin:round; stroke-width:4; stroke-opacity:1; fill:none" points="1923.68,1423.18 1923.68,1404.28 "/>
<polyline clip-path="url(#clip460)" style="stroke:#000000; stroke-linecap:round; stroke-linejoin:round; stroke-width:4; stroke-opacity:1; fill:none" points="2172.69,1423.18 2172.69,1404.28 "/>
<path clip-path="url(#clip460)" d="M376.937 1468.75 L406.613 1468.75 L406.613 1472.69 L376.937 1472.69 L376.937 1468.75 Z" fill="#000000" fill-rule="nonzero" fill-opacity="1" /><path clip-path="url(#clip460)" d="M426.706 1454.1 Q423.095 1454.1 421.266 1457.66 Q419.46 1461.2 419.46 1468.33 Q419.46 1475.44 421.266 1479.01 Q423.095 1482.55 426.706 1482.55 Q430.34 1482.55 432.146 1479.01 Q433.974 1475.44 433.974 1468.33 Q433.974 1461.2 432.146 1457.66 Q430.34 1454.1 426.706 1454.1 M426.706 1450.39 Q432.516 1450.39 435.571 1455 Q438.65 1459.58 438.65 1468.33 Q438.65 1477.06 435.571 1481.67 Q432.516 1486.25 426.706 1486.25 Q420.896 1486.25 417.817 1481.67 Q414.761 1477.06 414.761 1468.33 Q414.761 1459.58 417.817 1455 Q420.896 1450.39 426.706 1450.39 Z" fill="#000000" fill-rule="nonzero" fill-opacity="1" /><path clip-path="url(#clip460)" d="M446.868 1479.7 L451.752 1479.7 L451.752 1485.58 L446.868 1485.58 L446.868 1479.7 Z" fill="#000000" fill-rule="nonzero" fill-opacity="1" /><path clip-path="url(#clip460)" d="M465.965 1481.64 L482.284 1481.64 L482.284 1485.58 L460.34 1485.58 L460.34 1481.64 Q463.002 1478.89 467.585 1474.26 Q472.192 1469.61 473.372 1468.27 Q475.617 1465.74 476.497 1464.01 Q477.4 1462.25 477.4 1460.56 Q477.4 1457.8 475.455 1456.07 Q473.534 1454.33 470.432 1454.33 Q468.233 1454.33 465.78 1455.09 Q463.349 1455.86 460.571 1457.41 L460.571 1452.69 Q463.395 1451.55 465.849 1450.97 Q468.303 1450.39 470.34 1450.39 Q475.71 1450.39 478.905 1453.08 Q482.099 1455.77 482.099 1460.26 Q482.099 1462.39 481.289 1464.31 Q480.502 1466.2 478.395 1468.8 Q477.817 1469.47 474.715 1472.69 Q471.613 1475.88 465.965 1481.64 Z" fill="#000000" fill-rule="nonzero" fill-opacity="1" /><path clip-path="url(#clip460)" d="M656.006 1454.1 Q652.395 1454.1 650.566 1457.66 Q648.761 1461.2 648.761 1468.33 Q648.761 1475.44 650.566 1479.01 Q652.395 1482.55 656.006 1482.55 Q659.64 1482.55 661.446 1479.01 Q663.275 1475.44 663.275 1468.33 Q663.275 1461.2 661.446 1457.66 Q659.64 1454.1 656.006 1454.1 M656.006 1450.39 Q661.816 1450.39 664.872 1455 Q667.95 1459.58 667.95 1468.33 Q667.95 1477.06 664.872 1481.67 Q661.816 1486.25 656.006 1486.25 Q650.196 1486.25 647.117 1481.67 Q644.062 1477.06 644.062 1468.33 Q644.062 1459.58 647.117 1455 Q650.196 1450.39 656.006 1450.39 Z" fill="#000000" fill-rule="nonzero" fill-opacity="1" /><path clip-path="url(#clip460)" d="M676.168 1479.7 L681.052 1479.7 L681.052 1485.58 L676.168 1485.58 L676.168 1479.7 Z" fill="#000000" fill-rule="nonzero" fill-opacity="1" /><path clip-path="url(#clip460)" d="M701.237 1454.1 Q697.626 1454.1 695.798 1457.66 Q693.992 1461.2 693.992 1468.33 Q693.992 1475.44 695.798 1479.01 Q697.626 1482.55 701.237 1482.55 Q704.872 1482.55 706.677 1479.01 Q708.506 1475.44 708.506 1468.33 Q708.506 1461.2 706.677 1457.66 Q704.872 1454.1 701.237 1454.1 M701.237 1450.39 Q707.047 1450.39 710.103 1455 Q713.182 1459.58 713.182 1468.33 Q713.182 1477.06 710.103 1481.67 Q707.047 1486.25 701.237 1486.25 Q695.427 1486.25 692.348 1481.67 Q689.293 1477.06 689.293 1468.33 Q689.293 1459.58 692.348 1455 Q695.427 1450.39 701.237 1450.39 Z" fill="#000000" fill-rule="nonzero" fill-opacity="1" /><path clip-path="url(#clip460)" d="M905.816 1454.1 Q902.205 1454.1 900.376 1457.66 Q898.57 1461.2 898.57 1468.33 Q898.57 1475.44 900.376 1479.01 Q902.205 1482.55 905.816 1482.55 Q909.45 1482.55 911.255 1479.01 Q913.084 1475.44 913.084 1468.33 Q913.084 1461.2 911.255 1457.66 Q909.45 1454.1 905.816 1454.1 M905.816 1450.39 Q911.626 1450.39 914.681 1455 Q917.76 1459.58 917.76 1468.33 Q917.76 1477.06 914.681 1481.67 Q911.626 1486.25 905.816 1486.25 Q900.005 1486.25 896.927 1481.67 Q893.871 1477.06 893.871 1468.33 Q893.871 1459.58 896.927 1455 Q900.005 1450.39 905.816 1450.39 Z" fill="#000000" fill-rule="nonzero" fill-opacity="1" /><path clip-path="url(#clip460)" d="M925.978 1479.7 L930.862 1479.7 L930.862 1485.58 L925.978 1485.58 L925.978 1479.7 Z" fill="#000000" fill-rule="nonzero" fill-opacity="1" /><path clip-path="url(#clip460)" d="M945.075 1481.64 L961.394 1481.64 L961.394 1485.58 L939.45 1485.58 L939.45 1481.64 Q942.112 1478.89 946.695 1474.26 Q951.301 1469.61 952.482 1468.27 Q954.727 1465.74 955.607 1464.01 Q956.51 1462.25 956.51 1460.56 Q956.51 1457.8 954.565 1456.07 Q952.644 1454.33 949.542 1454.33 Q947.343 1454.33 944.889 1455.09 Q942.459 1455.86 939.681 1457.41 L939.681 1452.69 Q942.505 1451.55 944.959 1450.97 Q947.413 1450.39 949.45 1450.39 Q954.82 1450.39 958.014 1453.08 Q961.209 1455.77 961.209 1460.26 Q961.209 1462.39 960.399 1464.31 Q959.612 1466.2 957.505 1468.8 Q956.926 1469.47 953.825 1472.69 Q950.723 1475.88 945.075 1481.64 Z" fill="#000000" fill-rule="nonzero" fill-opacity="1" /><path clip-path="url(#clip460)" d="M1153.78 1454.1 Q1150.17 1454.1 1148.35 1457.66 Q1146.54 1461.2 1146.54 1468.33 Q1146.54 1475.44 1148.35 1479.01 Q1150.17 1482.55 1153.78 1482.55 Q1157.42 1482.55 1159.22 1479.01 Q1161.05 1475.44 1161.05 1468.33 Q1161.05 1461.2 1159.22 1457.66 Q1157.42 1454.1 1153.78 1454.1 M1153.78 1450.39 Q1159.59 1450.39 1162.65 1455 Q1165.73 1459.58 1165.73 1468.33 Q1165.73 1477.06 1162.65 1481.67 Q1159.59 1486.25 1153.78 1486.25 Q1147.97 1486.25 1144.9 1481.67 Q1141.84 1477.06 1141.84 1468.33 Q1141.84 1459.58 1144.9 1455 Q1147.97 1450.39 1153.78 1450.39 Z" fill="#000000" fill-rule="nonzero" fill-opacity="1" /><path clip-path="url(#clip460)" d="M1173.95 1479.7 L1178.83 1479.7 L1178.83 1485.58 L1173.95 1485.58 L1173.95 1479.7 Z" fill="#000000" fill-rule="nonzero" fill-opacity="1" /><path clip-path="url(#clip460)" d="M1201.86 1455.09 L1190.06 1473.54 L1201.86 1473.54 L1201.86 1455.09 M1200.64 1451.02 L1206.52 1451.02 L1206.52 1473.54 L1211.45 1473.54 L1211.45 1477.43 L1206.52 1477.43 L1206.52 1485.58 L1201.86 1485.58 L1201.86 1477.43 L1186.26 1477.43 L1186.26 1472.92 L1200.64 1451.02 Z" fill="#000000" fill-rule="nonzero" fill-opacity="1" /><path clip-path="url(#clip460)" d="M1402.96 1454.1 Q1399.35 1454.1 1397.52 1457.66 Q1395.71 1461.2 1395.71 1468.33 Q1395.71 1475.44 1397.52 1479.01 Q1399.35 1482.55 1402.96 1482.55 Q1406.59 1482.55 1408.4 1479.01 Q1410.23 1475.44 1410.23 1468.33 Q1410.23 1461.2 1408.4 1457.66 Q1406.59 1454.1 1402.96 1454.1 M1402.96 1450.39 Q1408.77 1450.39 1411.82 1455 Q1414.9 1459.58 1414.9 1468.33 Q1414.9 1477.06 1411.82 1481.67 Q1408.77 1486.25 1402.96 1486.25 Q1397.15 1486.25 1394.07 1481.67 Q1391.01 1477.06 1391.01 1468.33 Q1391.01 1459.58 1394.07 1455 Q1397.15 1450.39 1402.96 1450.39 Z" fill="#000000" fill-rule="nonzero" fill-opacity="1" /><path clip-path="url(#clip460)" d="M1423.12 1479.7 L1428 1479.7 L1428 1485.58 L1423.12 1485.58 L1423.12 1479.7 Z" fill="#000000" fill-rule="nonzero" fill-opacity="1" /><path clip-path="url(#clip460)" d="M1448.77 1466.44 Q1445.62 1466.44 1443.77 1468.59 Q1441.94 1470.74 1441.94 1474.49 Q1441.94 1478.22 1443.77 1480.39 Q1445.62 1482.55 1448.77 1482.55 Q1451.92 1482.55 1453.74 1480.39 Q1455.6 1478.22 1455.6 1474.49 Q1455.6 1470.74 1453.74 1468.59 Q1451.92 1466.44 1448.77 1466.44 M1458.05 1451.78 L1458.05 1456.04 Q1456.29 1455.21 1454.49 1454.77 Q1452.7 1454.33 1450.94 1454.33 Q1446.31 1454.33 1443.86 1457.45 Q1441.43 1460.58 1441.08 1466.9 Q1442.45 1464.89 1444.51 1463.82 Q1446.57 1462.73 1449.05 1462.73 Q1454.25 1462.73 1457.26 1465.9 Q1460.3 1469.05 1460.3 1474.49 Q1460.3 1479.82 1457.15 1483.03 Q1454 1486.25 1448.77 1486.25 Q1442.77 1486.25 1439.6 1481.67 Q1436.43 1477.06 1436.43 1468.33 Q1436.43 1460.14 1440.32 1455.28 Q1444.21 1450.39 1450.76 1450.39 Q1452.52 1450.39 1454.3 1450.74 Q1456.11 1451.09 1458.05 1451.78 Z" fill="#000000" fill-rule="nonzero" fill-opacity="1" /><path clip-path="url(#clip460)" d="M1652.1 1454.1 Q1648.48 1454.1 1646.66 1457.66 Q1644.85 1461.2 1644.85 1468.33 Q1644.85 1475.44 1646.66 1479.01 Q1648.48 1482.55 1652.1 1482.55 Q1655.73 1482.55 1657.54 1479.01 Q1659.36 1475.44 1659.36 1468.33 Q1659.36 1461.2 1657.54 1457.66 Q1655.73 1454.1 1652.1 1454.1 M1652.1 1450.39 Q1657.91 1450.39 1660.96 1455 Q1664.04 1459.58 1664.04 1468.33 Q1664.04 1477.06 1660.96 1481.67 Q1657.91 1486.25 1652.1 1486.25 Q1646.29 1486.25 1643.21 1481.67 Q1640.15 1477.06 1640.15 1468.33 Q1640.15 1459.58 1643.21 1455 Q1646.29 1450.39 1652.1 1450.39 Z" fill="#000000" fill-rule="nonzero" fill-opacity="1" /><path clip-path="url(#clip460)" d="M1672.26 1479.7 L1677.14 1479.7 L1677.14 1485.58 L1672.26 1485.58 L1672.26 1479.7 Z" fill="#000000" fill-rule="nonzero" fill-opacity="1" /><path clip-path="url(#clip460)" d="M1697.33 1469.17 Q1693.99 1469.17 1692.07 1470.95 Q1690.17 1472.73 1690.17 1475.86 Q1690.17 1478.98 1692.07 1480.77 Q1693.99 1482.55 1697.33 1482.55 Q1700.66 1482.55 1702.58 1480.77 Q1704.5 1478.96 1704.5 1475.86 Q1704.5 1472.73 1702.58 1470.95 Q1700.68 1469.17 1697.33 1469.17 M1692.65 1467.18 Q1689.64 1466.44 1687.95 1464.38 Q1686.29 1462.32 1686.29 1459.35 Q1686.29 1455.21 1689.23 1452.8 Q1692.19 1450.39 1697.33 1450.39 Q1702.49 1450.39 1705.43 1452.8 Q1708.37 1455.21 1708.37 1459.35 Q1708.37 1462.32 1706.68 1464.38 Q1705.01 1466.44 1702.03 1467.18 Q1705.41 1467.96 1707.28 1470.26 Q1709.18 1472.55 1709.18 1475.86 Q1709.18 1480.88 1706.1 1483.57 Q1703.04 1486.25 1697.33 1486.25 Q1691.61 1486.25 1688.53 1483.57 Q1685.48 1480.88 1685.48 1475.86 Q1685.48 1472.55 1687.37 1470.26 Q1689.27 1467.96 1692.65 1467.18 M1690.94 1459.79 Q1690.94 1462.48 1692.61 1463.98 Q1694.29 1465.49 1697.33 1465.49 Q1700.34 1465.49 1702.03 1463.98 Q1703.74 1462.48 1703.74 1459.79 Q1703.74 1457.11 1702.03 1455.6 Q1700.34 1454.1 1697.33 1454.1 Q1694.29 1454.1 1692.61 1455.6 Q1690.94 1457.11 1690.94 1459.79 Z" fill="#000000" fill-rule="nonzero" fill-opacity="1" /><path clip-path="url(#clip460)" d="M1890.83 1481.64 L1898.47 1481.64 L1898.47 1455.28 L1890.16 1456.95 L1890.16 1452.69 L1898.42 1451.02 L1903.1 1451.02 L1903.1 1481.64 L1910.74 1481.64 L1910.74 1485.58 L1890.83 1485.58 L1890.83 1481.64 Z" fill="#000000" fill-rule="nonzero" fill-opacity="1" /><path clip-path="url(#clip460)" d="M1920.18 1479.7 L1925.07 1479.7 L1925.07 1485.58 L1920.18 1485.58 L1920.18 1479.7 Z" fill="#000000" fill-rule="nonzero" fill-opacity="1" /><path clip-path="url(#clip460)" d="M1945.25 1454.1 Q1941.64 1454.1 1939.81 1457.66 Q1938 1461.2 1938 1468.33 Q1938 1475.44 1939.81 1479.01 Q1941.64 1482.55 1945.25 1482.55 Q1948.88 1482.55 1950.69 1479.01 Q1952.52 1475.44 1952.52 1468.33 Q1952.52 1461.2 1950.69 1457.66 Q1948.88 1454.1 1945.25 1454.1 M1945.25 1450.39 Q1951.06 1450.39 1954.12 1455 Q1957.19 1459.58 1957.19 1468.33 Q1957.19 1477.06 1954.12 1481.67 Q1951.06 1486.25 1945.25 1486.25 Q1939.44 1486.25 1936.36 1481.67 Q1933.31 1477.06 1933.31 1468.33 Q1933.31 1459.58 1936.36 1455 Q1939.44 1450.39 1945.25 1450.39 Z" fill="#000000" fill-rule="nonzero" fill-opacity="1" /><path clip-path="url(#clip460)" d="M2140.64 1481.64 L2148.28 1481.64 L2148.28 1455.28 L2139.97 1456.95 L2139.97 1452.69 L2148.23 1451.02 L2152.91 1451.02 L2152.91 1481.64 L2160.55 1481.64 L2160.55 1485.58 L2140.64 1485.58 L2140.64 1481.64 Z" fill="#000000" fill-rule="nonzero" fill-opacity="1" /><path clip-path="url(#clip460)" d="M2169.99 1479.7 L2174.87 1479.7 L2174.87 1485.58 L2169.99 1485.58 L2169.99 1479.7 Z" fill="#000000" fill-rule="nonzero" fill-opacity="1" /><path clip-path="url(#clip460)" d="M2189.09 1481.64 L2205.41 1481.64 L2205.41 1485.58 L2183.46 1485.58 L2183.46 1481.64 Q2186.12 1478.89 2190.71 1474.26 Q2195.31 1469.61 2196.49 1468.27 Q2198.74 1465.74 2199.62 1464.01 Q2200.52 1462.25 2200.52 1460.56 Q2200.52 1457.8 2198.58 1456.07 Q2196.66 1454.33 2193.56 1454.33 Q2191.36 1454.33 2188.9 1455.09 Q2186.47 1455.86 2183.69 1457.41 L2183.69 1452.69 Q2186.52 1451.55 2188.97 1450.97 Q2191.43 1450.39 2193.46 1450.39 Q2198.83 1450.39 2202.03 1453.08 Q2205.22 1455.77 2205.22 1460.26 Q2205.22 1462.39 2204.41 1464.31 Q2203.62 1466.2 2201.52 1468.8 Q2200.94 1469.47 2197.84 1472.69 Q2194.74 1475.88 2189.09 1481.64 Z" fill="#000000" fill-rule="nonzero" fill-opacity="1" /><path clip-path="url(#clip460)" d="M1053.95 1520.52 L1060.38 1520.52 L1060.38 1540.61 L1081.71 1520.52 L1089.98 1520.52 L1066.4 1542.68 L1091.67 1568.04 L1083.2 1568.04 L1060.38 1545.16 L1060.38 1568.04 L1053.95 1568.04 L1053.95 1520.52 Z" fill="#000000" fill-rule="nonzero" fill-opacity="1" /><path clip-path="url(#clip460)" d="M1126.08 1546.53 L1126.08 1568.04 L1120.22 1568.04 L1120.22 1546.72 Q1120.22 1541.66 1118.25 1539.14 Q1116.27 1536.63 1112.33 1536.63 Q1107.58 1536.63 1104.85 1539.65 Q1102.11 1542.68 1102.11 1547.9 L1102.11 1568.04 L1096.22 1568.04 L1096.22 1532.4 L1102.11 1532.4 L1102.11 1537.93 Q1104.21 1534.72 1107.04 1533.13 Q1109.91 1531.54 1113.63 1531.54 Q1119.77 1531.54 1122.93 1535.36 Q1126.08 1539.14 1126.08 1546.53 Z" fill="#000000" fill-rule="nonzero" fill-opacity="1" /><path clip-path="url(#clip460)" d="M1151.57 1536.5 Q1146.86 1536.5 1144.12 1540.19 Q1141.39 1543.85 1141.39 1550.25 Q1141.39 1556.65 1144.09 1560.34 Q1146.83 1564 1151.57 1564 Q1156.25 1564 1158.99 1560.31 Q1161.72 1556.62 1161.72 1550.25 Q1161.72 1543.92 1158.99 1540.23 Q1156.25 1536.5 1151.57 1536.5 M1151.57 1531.54 Q1159.21 1531.54 1163.57 1536.5 Q1167.93 1541.47 1167.93 1550.25 Q1167.93 1559 1163.57 1564 Q1159.21 1568.97 1151.57 1568.97 Q1143.9 1568.97 1139.54 1564 Q1135.21 1559 1135.21 1550.25 Q1135.21 1541.47 1139.54 1536.5 Q1143.9 1531.54 1151.57 1531.54 Z" fill="#000000" fill-rule="nonzero" fill-opacity="1" /><path clip-path="url(#clip460)" d="M1203.23 1550.25 Q1203.23 1543.79 1200.55 1540.13 Q1197.91 1536.44 1193.27 1536.44 Q1188.62 1536.44 1185.95 1540.13 Q1183.3 1543.79 1183.3 1550.25 Q1183.3 1556.71 1185.95 1560.4 Q1188.62 1564.07 1193.27 1564.07 Q1197.91 1564.07 1200.55 1560.4 Q1203.23 1556.71 1203.23 1550.25 M1183.3 1537.81 Q1185.15 1534.62 1187.95 1533.1 Q1190.78 1531.54 1194.7 1531.54 Q1201.19 1531.54 1205.23 1536.69 Q1209.31 1541.85 1209.31 1550.25 Q1209.31 1558.65 1205.23 1563.81 Q1201.19 1568.97 1194.7 1568.97 Q1190.78 1568.97 1187.95 1567.44 Q1185.15 1565.88 1183.3 1562.7 L1183.3 1568.04 L1177.42 1568.04 L1177.42 1518.52 L1183.3 1518.52 L1183.3 1537.81 Z" fill="#000000" fill-rule="nonzero" fill-opacity="1" /><path clip-path="url(#clip460)" d="M1269.37 1532.4 L1256.48 1549.74 L1270.04 1568.04 L1263.13 1568.04 L1252.75 1554.04 L1242.38 1568.04 L1235.47 1568.04 L1249.32 1549.39 L1236.65 1532.4 L1243.56 1532.4 L1253.01 1545.1 L1262.46 1532.4 L1269.37 1532.4 Z" fill="#000000" fill-rule="nonzero" fill-opacity="1" /><path clip-path="url(#clip460)" d="M1275.35 1547.58 L1292.51 1547.58 L1292.51 1552.8 L1275.35 1552.8 L1275.35 1547.58 Z" fill="#000000" fill-rule="nonzero" fill-opacity="1" /><path clip-path="url(#clip460)" d="M1307.5 1562.7 L1307.5 1581.6 L1301.61 1581.6 L1301.61 1532.4 L1307.5 1532.4 L1307.5 1537.81 Q1309.34 1534.62 1312.15 1533.1 Q1314.98 1531.54 1318.89 1531.54 Q1325.39 1531.54 1329.43 1536.69 Q1333.5 1541.85 1333.5 1550.25 Q1333.5 1558.65 1329.43 1563.81 Q1325.39 1568.97 1318.89 1568.97 Q1314.98 1568.97 1312.15 1567.44 Q1309.34 1565.88 1307.5 1562.7 M1327.42 1550.25 Q1327.42 1543.79 1324.75 1540.13 Q1322.11 1536.44 1317.46 1536.44 Q1312.81 1536.44 1310.14 1540.13 Q1307.5 1543.79 1307.5 1550.25 Q1307.5 1556.71 1310.14 1560.4 Q1312.81 1564.07 1317.46 1564.07 Q1322.11 1564.07 1324.75 1560.4 Q1327.42 1556.71 1327.42 1550.25 Z" fill="#000000" fill-rule="nonzero" fill-opacity="1" /><path clip-path="url(#clip460)" d="M1357.02 1536.5 Q1352.31 1536.5 1349.58 1540.19 Q1346.84 1543.85 1346.84 1550.25 Q1346.84 1556.65 1349.54 1560.34 Q1352.28 1564 1357.02 1564 Q1361.7 1564 1364.44 1560.31 Q1367.18 1556.62 1367.18 1550.25 Q1367.18 1543.92 1364.44 1540.23 Q1361.7 1536.5 1357.02 1536.5 M1357.02 1531.54 Q1364.66 1531.54 1369.02 1536.5 Q1373.38 1541.47 1373.38 1550.25 Q1373.38 1559 1369.02 1564 Q1364.66 1568.97 1357.02 1568.97 Q1349.35 1568.97 1344.99 1564 Q1340.66 1559 1340.66 1550.25 Q1340.66 1541.47 1344.99 1536.5 Q1349.35 1531.54 1357.02 1531.54 Z" fill="#000000" fill-rule="nonzero" fill-opacity="1" /><path clip-path="url(#clip460)" d="M1405.82 1533.45 L1405.82 1538.98 Q1403.33 1537.71 1400.66 1537.07 Q1397.99 1536.44 1395.12 1536.44 Q1390.76 1536.44 1388.57 1537.77 Q1386.4 1539.11 1386.4 1541.79 Q1386.4 1543.82 1387.96 1545 Q1389.52 1546.15 1394.23 1547.2 L1396.24 1547.64 Q1402.48 1548.98 1405.09 1551.43 Q1407.73 1553.85 1407.73 1558.21 Q1407.73 1563.17 1403.78 1566.07 Q1399.87 1568.97 1392.99 1568.97 Q1390.13 1568.97 1387.01 1568.39 Q1383.92 1567.85 1380.48 1566.74 L1380.48 1560.69 Q1383.73 1562.38 1386.88 1563.24 Q1390.03 1564.07 1393.12 1564.07 Q1397.26 1564.07 1399.48 1562.66 Q1401.71 1561.23 1401.71 1558.65 Q1401.71 1556.27 1400.09 1554.99 Q1398.5 1553.72 1393.05 1552.54 L1391.02 1552.07 Q1385.57 1550.92 1383.16 1548.56 Q1380.74 1546.18 1380.74 1542.04 Q1380.74 1537.01 1384.3 1534.27 Q1387.87 1531.54 1394.42 1531.54 Q1397.67 1531.54 1400.53 1532.01 Q1403.4 1532.49 1405.82 1533.45 Z" fill="#000000" fill-rule="nonzero" fill-opacity="1" /><path clip-path="url(#clip460)" d="M1417.05 1532.4 L1422.91 1532.4 L1422.91 1568.04 L1417.05 1568.04 L1417.05 1532.4 M1417.05 1518.52 L1422.91 1518.52 L1422.91 1525.93 L1417.05 1525.93 L1417.05 1518.52 Z" fill="#000000" fill-rule="nonzero" fill-opacity="1" /><path clip-path="url(#clip460)" d="M1440.96 1522.27 L1440.96 1532.4 L1453.02 1532.4 L1453.02 1536.95 L1440.96 1536.95 L1440.96 1556.3 Q1440.96 1560.66 1442.13 1561.9 Q1443.34 1563.14 1447 1563.14 L1453.02 1563.14 L1453.02 1568.04 L1447 1568.04 Q1440.22 1568.04 1437.65 1565.53 Q1435.07 1562.98 1435.07 1556.3 L1435.07 1536.95 L1430.77 1536.95 L1430.77 1532.4 L1435.07 1532.4 L1435.07 1522.27 L1440.96 1522.27 Z" fill="#000000" fill-rule="nonzero" fill-opacity="1" /><path clip-path="url(#clip460)" d="M1460.72 1532.4 L1466.58 1532.4 L1466.58 1568.04 L1460.72 1568.04 L1460.72 1532.4 M1460.72 1518.52 L1466.58 1518.52 L1466.58 1525.93 L1460.72 1525.93 L1460.72 1518.52 Z" fill="#000000" fill-rule="nonzero" fill-opacity="1" /><path clip-path="url(#clip460)" d="M1492.65 1536.5 Q1487.93 1536.5 1485.2 1540.19 Q1482.46 1543.85 1482.46 1550.25 Q1482.46 1556.65 1485.17 1560.34 Q1487.9 1564 1492.65 1564 Q1497.32 1564 1500.06 1560.31 Q1502.8 1556.62 1502.8 1550.25 Q1502.8 1543.92 1500.06 1540.23 Q1497.32 1536.5 1492.65 1536.5 M1492.65 1531.54 Q1500.28 1531.54 1504.64 1536.5 Q1509.01 1541.47 1509.01 1550.25 Q1509.01 1559 1504.64 1564 Q1500.28 1568.97 1492.65 1568.97 Q1484.97 1568.97 1480.61 1564 Q1476.29 1559 1476.29 1550.25 Q1476.29 1541.47 1480.61 1536.5 Q1484.97 1531.54 1492.65 1531.54 Z" fill="#000000" fill-rule="nonzero" fill-opacity="1" /><path clip-path="url(#clip460)" d="M1548.35 1546.53 L1548.35 1568.04 L1542.49 1568.04 L1542.49 1546.72 Q1542.49 1541.66 1540.52 1539.14 Q1538.54 1536.63 1534.6 1536.63 Q1529.85 1536.63 1527.12 1539.65 Q1524.38 1542.68 1524.38 1547.9 L1524.38 1568.04 L1518.49 1568.04 L1518.49 1532.4 L1524.38 1532.4 L1524.38 1537.93 Q1526.48 1534.72 1529.31 1533.13 Q1532.18 1531.54 1535.9 1531.54 Q1542.04 1531.54 1545.19 1535.36 Q1548.35 1539.14 1548.35 1546.53 Z" fill="#000000" fill-rule="nonzero" fill-opacity="1" /><polyline clip-path="url(#clip460)" style="stroke:#000000; stroke-linecap:round; stroke-linejoin:round; stroke-width:4; stroke-opacity:1; fill:none" points="249.542,1423.18 249.542,123.472 "/>
<polyline clip-path="url(#clip460)" style="stroke:#000000; stroke-linecap:round; stroke-linejoin:round; stroke-width:4; stroke-opacity:1; fill:none" points="249.542,1386.4 268.44,1386.4 "/>
<polyline clip-path="url(#clip460)" style="stroke:#000000; stroke-linecap:round; stroke-linejoin:round; stroke-width:4; stroke-opacity:1; fill:none" points="249.542,1075.13 268.44,1075.13 "/>
<polyline clip-path="url(#clip460)" style="stroke:#000000; stroke-linecap:round; stroke-linejoin:round; stroke-width:4; stroke-opacity:1; fill:none" points="249.542,763.868 268.44,763.868 "/>
<polyline clip-path="url(#clip460)" style="stroke:#000000; stroke-linecap:round; stroke-linejoin:round; stroke-width:4; stroke-opacity:1; fill:none" points="249.542,452.605 268.44,452.605 "/>
<polyline clip-path="url(#clip460)" style="stroke:#000000; stroke-linecap:round; stroke-linejoin:round; stroke-width:4; stroke-opacity:1; fill:none" points="249.542,141.341 268.44,141.341 "/>
<path clip-path="url(#clip460)" d="M126.205 1372.19 Q122.593 1372.19 120.765 1375.76 Q118.959 1379.3 118.959 1386.43 Q118.959 1393.54 120.765 1397.1 Q122.593 1400.64 126.205 1400.64 Q129.839 1400.64 131.644 1397.1 Q133.473 1393.54 133.473 1386.43 Q133.473 1379.3 131.644 1375.76 Q129.839 1372.19 126.205 1372.19 M126.205 1368.49 Q132.015 1368.49 135.07 1373.1 Q138.149 1377.68 138.149 1386.43 Q138.149 1395.16 135.07 1399.76 Q132.015 1404.35 126.205 1404.35 Q120.394 1404.35 117.316 1399.76 Q114.26 1395.16 114.26 1386.43 Q114.26 1377.68 117.316 1373.1 Q120.394 1368.49 126.205 1368.49 Z" fill="#000000" fill-rule="nonzero" fill-opacity="1" /><path clip-path="url(#clip460)" d="M146.366 1397.8 L151.251 1397.8 L151.251 1403.68 L146.366 1403.68 L146.366 1397.8 Z" fill="#000000" fill-rule="nonzero" fill-opacity="1" /><path clip-path="url(#clip460)" d="M171.436 1372.19 Q167.825 1372.19 165.996 1375.76 Q164.19 1379.3 164.19 1386.43 Q164.19 1393.54 165.996 1397.1 Q167.825 1400.64 171.436 1400.64 Q175.07 1400.64 176.876 1397.1 Q178.704 1393.54 178.704 1386.43 Q178.704 1379.3 176.876 1375.76 Q175.07 1372.19 171.436 1372.19 M171.436 1368.49 Q177.246 1368.49 180.301 1373.1 Q183.38 1377.68 183.38 1386.43 Q183.38 1395.16 180.301 1399.76 Q177.246 1404.35 171.436 1404.35 Q165.626 1404.35 162.547 1399.76 Q159.491 1395.16 159.491 1386.43 Q159.491 1377.68 162.547 1373.1 Q165.626 1368.49 171.436 1368.49 Z" fill="#000000" fill-rule="nonzero" fill-opacity="1" /><path clip-path="url(#clip460)" d="M201.598 1372.19 Q197.987 1372.19 196.158 1375.76 Q194.352 1379.3 194.352 1386.43 Q194.352 1393.54 196.158 1397.1 Q197.987 1400.64 201.598 1400.64 Q205.232 1400.64 207.037 1397.1 Q208.866 1393.54 208.866 1386.43 Q208.866 1379.3 207.037 1375.76 Q205.232 1372.19 201.598 1372.19 M201.598 1368.49 Q207.408 1368.49 210.463 1373.1 Q213.542 1377.68 213.542 1386.43 Q213.542 1395.16 210.463 1399.76 Q207.408 1404.35 201.598 1404.35 Q195.787 1404.35 192.709 1399.76 Q189.653 1395.16 189.653 1386.43 Q189.653 1377.68 192.709 1373.1 Q195.787 1368.49 201.598 1368.49 Z" fill="#000000" fill-rule="nonzero" fill-opacity="1" /><path clip-path="url(#clip460)" d="M127.2 1060.93 Q123.589 1060.93 121.76 1064.5 Q119.955 1068.04 119.955 1075.17 Q119.955 1082.27 121.76 1085.84 Q123.589 1089.38 127.2 1089.38 Q130.834 1089.38 132.64 1085.84 Q134.468 1082.27 134.468 1075.17 Q134.468 1068.04 132.64 1064.5 Q130.834 1060.93 127.2 1060.93 M127.2 1057.23 Q133.01 1057.23 136.066 1061.83 Q139.144 1066.42 139.144 1075.17 Q139.144 1083.89 136.066 1088.5 Q133.01 1093.08 127.2 1093.08 Q121.39 1093.08 118.311 1088.5 Q115.256 1083.89 115.256 1075.17 Q115.256 1066.42 118.311 1061.83 Q121.39 1057.23 127.2 1057.23 Z" fill="#000000" fill-rule="nonzero" fill-opacity="1" /><path clip-path="url(#clip460)" d="M147.362 1086.53 L152.246 1086.53 L152.246 1092.41 L147.362 1092.41 L147.362 1086.53 Z" fill="#000000" fill-rule="nonzero" fill-opacity="1" /><path clip-path="url(#clip460)" d="M166.459 1088.48 L182.778 1088.48 L182.778 1092.41 L160.834 1092.41 L160.834 1088.48 Q163.496 1085.72 168.079 1081.09 Q172.686 1076.44 173.866 1075.1 Q176.112 1072.57 176.991 1070.84 Q177.894 1069.08 177.894 1067.39 Q177.894 1064.63 175.95 1062.9 Q174.028 1061.16 170.927 1061.16 Q168.727 1061.16 166.274 1061.93 Q163.843 1062.69 161.065 1064.24 L161.065 1059.52 Q163.89 1058.38 166.343 1057.81 Q168.797 1057.23 170.834 1057.23 Q176.204 1057.23 179.399 1059.91 Q182.593 1062.6 182.593 1067.09 Q182.593 1069.22 181.783 1071.14 Q180.996 1073.04 178.889 1075.63 Q178.311 1076.3 175.209 1079.52 Q172.107 1082.71 166.459 1088.48 Z" fill="#000000" fill-rule="nonzero" fill-opacity="1" /><path clip-path="url(#clip460)" d="M192.639 1057.85 L210.996 1057.85 L210.996 1061.79 L196.922 1061.79 L196.922 1070.26 Q197.94 1069.91 198.959 1069.75 Q199.977 1069.56 200.996 1069.56 Q206.783 1069.56 210.162 1072.74 Q213.542 1075.91 213.542 1081.32 Q213.542 1086.9 210.07 1090 Q206.598 1093.08 200.278 1093.08 Q198.102 1093.08 195.834 1092.71 Q193.588 1092.34 191.181 1091.6 L191.181 1086.9 Q193.264 1088.04 195.487 1088.59 Q197.709 1089.15 200.186 1089.15 Q204.19 1089.15 206.528 1087.04 Q208.866 1084.94 208.866 1081.32 Q208.866 1077.71 206.528 1075.61 Q204.19 1073.5 200.186 1073.5 Q198.311 1073.5 196.436 1073.92 Q194.584 1074.33 192.639 1075.21 L192.639 1057.85 Z" fill="#000000" fill-rule="nonzero" fill-opacity="1" /><path clip-path="url(#clip460)" d="M126.205 749.667 Q122.593 749.667 120.765 753.232 Q118.959 756.774 118.959 763.903 Q118.959 771.01 120.765 774.574 Q122.593 778.116 126.205 778.116 Q129.839 778.116 131.644 774.574 Q133.473 771.01 133.473 763.903 Q133.473 756.774 131.644 753.232 Q129.839 749.667 126.205 749.667 M126.205 745.963 Q132.015 745.963 135.07 750.57 Q138.149 755.153 138.149 763.903 Q138.149 772.63 135.07 777.236 Q132.015 781.82 126.205 781.82 Q120.394 781.82 117.316 777.236 Q114.26 772.63 114.26 763.903 Q114.26 755.153 117.316 750.57 Q120.394 745.963 126.205 745.963 Z" fill="#000000" fill-rule="nonzero" fill-opacity="1" /><path clip-path="url(#clip460)" d="M146.366 775.269 L151.251 775.269 L151.251 781.148 L146.366 781.148 L146.366 775.269 Z" fill="#000000" fill-rule="nonzero" fill-opacity="1" /><path clip-path="url(#clip460)" d="M161.482 746.588 L179.839 746.588 L179.839 750.524 L165.765 750.524 L165.765 758.996 Q166.783 758.649 167.802 758.486 Q168.82 758.301 169.839 758.301 Q175.626 758.301 179.005 761.473 Q182.385 764.644 182.385 770.06 Q182.385 775.639 178.913 778.741 Q175.44 781.82 169.121 781.82 Q166.945 781.82 164.677 781.449 Q162.431 781.079 160.024 780.338 L160.024 775.639 Q162.107 776.773 164.329 777.329 Q166.552 777.885 169.028 777.885 Q173.033 777.885 175.371 775.778 Q177.709 773.672 177.709 770.06 Q177.709 766.449 175.371 764.343 Q173.033 762.236 169.028 762.236 Q167.153 762.236 165.278 762.653 Q163.427 763.07 161.482 763.949 L161.482 746.588 Z" fill="#000000" fill-rule="nonzero" fill-opacity="1" /><path clip-path="url(#clip460)" d="M201.598 749.667 Q197.987 749.667 196.158 753.232 Q194.352 756.774 194.352 763.903 Q194.352 771.01 196.158 774.574 Q197.987 778.116 201.598 778.116 Q205.232 778.116 207.037 774.574 Q208.866 771.01 208.866 763.903 Q208.866 756.774 207.037 753.232 Q205.232 749.667 201.598 749.667 M201.598 745.963 Q207.408 745.963 210.463 750.57 Q213.542 755.153 213.542 763.903 Q213.542 772.63 210.463 777.236 Q207.408 781.82 201.598 781.82 Q195.787 781.82 192.709 777.236 Q189.653 772.63 189.653 763.903 Q189.653 755.153 192.709 750.57 Q195.787 745.963 201.598 745.963 Z" fill="#000000" fill-rule="nonzero" fill-opacity="1" /><path clip-path="url(#clip460)" d="M127.2 438.403 Q123.589 438.403 121.76 441.968 Q119.955 445.51 119.955 452.639 Q119.955 459.746 121.76 463.311 Q123.589 466.852 127.2 466.852 Q130.834 466.852 132.64 463.311 Q134.468 459.746 134.468 452.639 Q134.468 445.51 132.64 441.968 Q130.834 438.403 127.2 438.403 M127.2 434.7 Q133.01 434.7 136.066 439.306 Q139.144 443.89 139.144 452.639 Q139.144 461.366 136.066 465.973 Q133.01 470.556 127.2 470.556 Q121.39 470.556 118.311 465.973 Q115.256 461.366 115.256 452.639 Q115.256 443.89 118.311 439.306 Q121.39 434.7 127.2 434.7 Z" fill="#000000" fill-rule="nonzero" fill-opacity="1" /><path clip-path="url(#clip460)" d="M147.362 464.005 L152.246 464.005 L152.246 469.885 L147.362 469.885 L147.362 464.005 Z" fill="#000000" fill-rule="nonzero" fill-opacity="1" /><path clip-path="url(#clip460)" d="M161.251 435.325 L183.473 435.325 L183.473 437.315 L170.927 469.885 L166.042 469.885 L177.848 439.26 L161.251 439.26 L161.251 435.325 Z" fill="#000000" fill-rule="nonzero" fill-opacity="1" /><path clip-path="url(#clip460)" d="M192.639 435.325 L210.996 435.325 L210.996 439.26 L196.922 439.26 L196.922 447.732 Q197.94 447.385 198.959 447.223 Q199.977 447.038 200.996 447.038 Q206.783 447.038 210.162 450.209 Q213.542 453.38 213.542 458.797 Q213.542 464.376 210.07 467.477 Q206.598 470.556 200.278 470.556 Q198.102 470.556 195.834 470.186 Q193.588 469.815 191.181 469.075 L191.181 464.376 Q193.264 465.51 195.487 466.065 Q197.709 466.621 200.186 466.621 Q204.19 466.621 206.528 464.514 Q208.866 462.408 208.866 458.797 Q208.866 455.186 206.528 453.079 Q204.19 450.973 200.186 450.973 Q198.311 450.973 196.436 451.389 Q194.584 451.806 192.639 452.686 L192.639 435.325 Z" fill="#000000" fill-rule="nonzero" fill-opacity="1" /><path clip-path="url(#clip460)" d="M117.015 154.686 L124.654 154.686 L124.654 128.32 L116.343 129.987 L116.343 125.728 L124.607 124.061 L129.283 124.061 L129.283 154.686 L136.922 154.686 L136.922 158.621 L117.015 158.621 L117.015 154.686 Z" fill="#000000" fill-rule="nonzero" fill-opacity="1" /><path clip-path="url(#clip460)" d="M146.366 152.742 L151.251 152.742 L151.251 158.621 L146.366 158.621 L146.366 152.742 Z" fill="#000000" fill-rule="nonzero" fill-opacity="1" /><path clip-path="url(#clip460)" d="M171.436 127.14 Q167.825 127.14 165.996 130.705 Q164.19 134.246 164.19 141.376 Q164.19 148.482 165.996 152.047 Q167.825 155.589 171.436 155.589 Q175.07 155.589 176.876 152.047 Q178.704 148.482 178.704 141.376 Q178.704 134.246 176.876 130.705 Q175.07 127.14 171.436 127.14 M171.436 123.436 Q177.246 123.436 180.301 128.043 Q183.38 132.626 183.38 141.376 Q183.38 150.103 180.301 154.709 Q177.246 159.292 171.436 159.292 Q165.626 159.292 162.547 154.709 Q159.491 150.103 159.491 141.376 Q159.491 132.626 162.547 128.043 Q165.626 123.436 171.436 123.436 Z" fill="#000000" fill-rule="nonzero" fill-opacity="1" /><path clip-path="url(#clip460)" d="M201.598 127.14 Q197.987 127.14 196.158 130.705 Q194.352 134.246 194.352 141.376 Q194.352 148.482 196.158 152.047 Q197.987 155.589 201.598 155.589 Q205.232 155.589 207.037 152.047 Q208.866 148.482 208.866 141.376 Q208.866 134.246 207.037 130.705 Q205.232 127.14 201.598 127.14 M201.598 123.436 Q207.408 123.436 210.463 128.043 Q213.542 132.626 213.542 141.376 Q213.542 150.103 210.463 154.709 Q207.408 159.292 201.598 159.292 Q195.787 159.292 192.709 154.709 Q189.653 150.103 189.653 141.376 Q189.653 132.626 192.709 128.043 Q195.787 123.436 201.598 123.436 Z" fill="#000000" fill-rule="nonzero" fill-opacity="1" /><path clip-path="url(#clip460)" d="M16.4842 1019.95 L16.4842 1013.52 L36.568 1013.52 L16.4842 992.195 L16.4842 983.919 L38.6368 1007.5 L64.0042 982.233 L64.0042 990.699 L41.1194 1013.52 L64.0042 1013.52 L64.0042 1019.95 L16.4842 1019.95 Z" fill="#000000" fill-rule="nonzero" fill-opacity="1" /><path clip-path="url(#clip460)" d="M42.4881 947.826 L64.0042 947.826 L64.0042 953.682 L42.679 953.682 Q37.6183 953.682 35.1038 955.656 Q32.5894 957.629 32.5894 961.576 Q32.5894 966.318 35.6131 969.056 Q38.6368 971.793 43.8567 971.793 L64.0042 971.793 L64.0042 977.681 L28.3562 977.681 L28.3562 971.793 L33.8944 971.793 Q30.6797 969.692 29.0883 966.859 Q27.4968 963.995 27.4968 960.271 Q27.4968 954.128 31.3163 950.977 Q35.1038 947.826 42.4881 947.826 Z" fill="#000000" fill-rule="nonzero" fill-opacity="1" /><path clip-path="url(#clip460)" d="M32.4621 922.331 Q32.4621 927.042 36.1542 929.779 Q39.8145 932.516 46.212 932.516 Q52.6095 932.516 56.3017 929.811 Q59.9619 927.074 59.9619 922.331 Q59.9619 917.652 56.2698 914.915 Q52.5777 912.178 46.212 912.178 Q39.8781 912.178 36.186 914.915 Q32.4621 917.652 32.4621 922.331 M27.4968 922.331 Q27.4968 914.692 32.4621 910.332 Q37.4273 905.971 46.212 905.971 Q54.9649 905.971 59.9619 910.332 Q64.9272 914.692 64.9272 922.331 Q64.9272 930.002 59.9619 934.362 Q54.9649 938.691 46.212 938.691 Q37.4273 938.691 32.4621 934.362 Q27.4968 930.002 27.4968 922.331 Z" fill="#000000" fill-rule="nonzero" fill-opacity="1" /><path clip-path="url(#clip460)" d="M46.212 870.674 Q39.7508 870.674 36.0905 873.347 Q32.3984 875.989 32.3984 880.636 Q32.3984 885.283 36.0905 887.956 Q39.7508 890.598 46.212 890.598 Q52.6732 890.598 56.3653 887.956 Q60.0256 885.283 60.0256 880.636 Q60.0256 875.989 56.3653 873.347 Q52.6732 870.674 46.212 870.674 M33.7671 890.598 Q30.5842 888.752 29.0564 885.951 Q27.4968 883.119 27.4968 879.204 Q27.4968 872.711 32.6531 868.668 Q37.8093 864.594 46.212 864.594 Q54.6147 864.594 59.771 868.668 Q64.9272 872.711 64.9272 879.204 Q64.9272 883.119 63.3994 885.951 Q61.8398 888.752 58.657 890.598 L64.0042 890.598 L64.0042 896.486 L14.479 896.486 L14.479 890.598 L33.7671 890.598 Z" fill="#000000" fill-rule="nonzero" fill-opacity="1" /><path clip-path="url(#clip460)" d="M67.3143 819.334 Q73.68 821.817 75.6216 824.172 Q77.5631 826.527 77.5631 830.474 L77.5631 835.153 L72.6615 835.153 L72.6615 831.715 Q72.6615 829.296 71.5157 827.96 Q70.3699 826.623 66.1048 825 L63.4312 823.949 L28.3562 838.368 L28.3562 832.161 L56.238 821.021 L28.3562 809.881 L28.3562 803.674 L67.3143 819.334 Z" fill="#000000" fill-rule="nonzero" fill-opacity="1" /><path clip-path="url(#clip460)" d="M43.5384 799.696 L43.5384 782.54 L48.7583 782.54 L48.7583 799.696 L43.5384 799.696 Z" fill="#000000" fill-rule="nonzero" fill-opacity="1" /><path clip-path="url(#clip460)" d="M58.657 767.549 L77.5631 767.549 L77.5631 773.437 L28.3562 773.437 L28.3562 767.549 L33.7671 767.549 Q30.5842 765.703 29.0564 762.902 Q27.4968 760.069 27.4968 756.154 Q27.4968 749.661 32.6531 745.619 Q37.8093 741.545 46.212 741.545 Q54.6147 741.545 59.771 745.619 Q64.9272 749.661 64.9272 756.154 Q64.9272 760.069 63.3994 762.902 Q61.8398 765.703 58.657 767.549 M46.212 747.624 Q39.7508 747.624 36.0905 750.298 Q32.3984 752.94 32.3984 757.587 Q32.3984 762.234 36.0905 764.907 Q39.7508 767.549 46.212 767.549 Q52.6732 767.549 56.3653 764.907 Q60.0256 762.234 60.0256 757.587 Q60.0256 752.94 56.3653 750.298 Q52.6732 747.624 46.212 747.624 Z" fill="#000000" fill-rule="nonzero" fill-opacity="1" /><path clip-path="url(#clip460)" d="M32.4621 718.024 Q32.4621 722.735 36.1542 725.472 Q39.8145 728.209 46.212 728.209 Q52.6095 728.209 56.3017 725.504 Q59.9619 722.766 59.9619 718.024 Q59.9619 713.345 56.2698 710.608 Q52.5777 707.871 46.212 707.871 Q39.8781 707.871 36.186 710.608 Q32.4621 713.345 32.4621 718.024 M27.4968 718.024 Q27.4968 710.385 32.4621 706.025 Q37.4273 701.664 46.212 701.664 Q54.9649 701.664 59.9619 706.025 Q64.9272 710.385 64.9272 718.024 Q64.9272 725.695 59.9619 730.055 Q54.9649 734.384 46.212 734.384 Q37.4273 734.384 32.4621 730.055 Q27.4968 725.695 27.4968 718.024 Z" fill="#000000" fill-rule="nonzero" fill-opacity="1" /><path clip-path="url(#clip460)" d="M29.4065 669.231 L34.9447 669.231 Q33.6716 671.713 33.035 674.387 Q32.3984 677.061 32.3984 679.925 Q32.3984 684.286 33.7352 686.482 Q35.072 688.646 37.7456 688.646 Q39.7826 688.646 40.9603 687.087 Q42.1061 685.527 43.1565 680.816 L43.6021 678.811 Q44.9389 672.573 47.3897 669.963 Q49.8086 667.321 54.1691 667.321 Q59.1344 667.321 62.0308 671.268 Q64.9272 675.183 64.9272 682.058 Q64.9272 684.922 64.3543 688.041 Q63.8132 691.129 62.6992 694.566 L56.6518 694.566 Q58.3387 691.32 59.198 688.169 Q60.0256 685.018 60.0256 681.93 Q60.0256 677.793 58.6251 675.565 Q57.1929 673.337 54.6147 673.337 Q52.2276 673.337 50.9545 674.96 Q49.6813 676.551 48.5037 681.994 L48.0262 684.031 Q46.8804 689.474 44.5251 691.893 Q42.138 694.312 38.0002 694.312 Q32.9713 694.312 30.2341 690.747 Q27.4968 687.182 27.4968 680.625 Q27.4968 677.379 27.9743 674.514 Q28.4517 671.65 29.4065 669.231 Z" fill="#000000" fill-rule="nonzero" fill-opacity="1" /><path clip-path="url(#clip460)" d="M28.3562 657.995 L28.3562 652.139 L64.0042 652.139 L64.0042 657.995 L28.3562 657.995 M14.479 657.995 L14.479 652.139 L21.895 652.139 L21.895 657.995 L14.479 657.995 Z" fill="#000000" fill-rule="nonzero" fill-opacity="1" /><path clip-path="url(#clip460)" d="M18.2347 634.092 L28.3562 634.092 L28.3562 622.029 L32.9077 622.029 L32.9077 634.092 L52.2594 634.092 Q56.6199 634.092 57.8613 632.914 Q59.1026 631.705 59.1026 628.045 L59.1026 622.029 L64.0042 622.029 L64.0042 628.045 Q64.0042 634.824 61.4897 637.402 Q58.9434 639.98 52.2594 639.98 L32.9077 639.98 L32.9077 644.277 L28.3562 644.277 L28.3562 639.98 L18.2347 639.98 L18.2347 634.092 Z" fill="#000000" fill-rule="nonzero" fill-opacity="1" /><path clip-path="url(#clip460)" d="M28.3562 614.327 L28.3562 608.47 L64.0042 608.47 L64.0042 614.327 L28.3562 614.327 M14.479 614.327 L14.479 608.47 L21.895 608.47 L21.895 614.327 L14.479 614.327 Z" fill="#000000" fill-rule="nonzero" fill-opacity="1" /><path clip-path="url(#clip460)" d="M32.4621 582.403 Q32.4621 587.113 36.1542 589.85 Q39.8145 592.588 46.212 592.588 Q52.6095 592.588 56.3017 589.882 Q59.9619 587.145 59.9619 582.403 Q59.9619 577.724 56.2698 574.986 Q52.5777 572.249 46.212 572.249 Q39.8781 572.249 36.186 574.986 Q32.4621 577.724 32.4621 582.403 M27.4968 582.403 Q27.4968 574.764 32.4621 570.403 Q37.4273 566.043 46.212 566.043 Q54.9649 566.043 59.9619 570.403 Q64.9272 574.764 64.9272 582.403 Q64.9272 590.073 59.9619 594.434 Q54.9649 598.762 46.212 598.762 Q37.4273 598.762 32.4621 594.434 Q27.4968 590.073 27.4968 582.403 Z" fill="#000000" fill-rule="nonzero" fill-opacity="1" /><path clip-path="url(#clip460)" d="M42.4881 526.703 L64.0042 526.703 L64.0042 532.559 L42.679 532.559 Q37.6183 532.559 35.1038 534.532 Q32.5894 536.506 32.5894 540.453 Q32.5894 545.195 35.6131 547.932 Q38.6368 550.669 43.8567 550.669 L64.0042 550.669 L64.0042 556.558 L28.3562 556.558 L28.3562 550.669 L33.8944 550.669 Q30.6797 548.569 29.0883 545.736 Q27.4968 542.871 27.4968 539.148 Q27.4968 533.005 31.3163 529.854 Q35.1038 526.703 42.4881 526.703 Z" fill="#000000" fill-rule="nonzero" fill-opacity="1" /><path clip-path="url(#clip460)" d="M994.475 18.8205 L994.475 65.8515 L1004.36 65.8515 Q1016.88 65.8515 1022.67 60.1802 Q1028.5 54.509 1028.5 42.2752 Q1028.5 30.1225 1022.67 24.4918 Q1016.88 18.8205 1004.36 18.8205 L994.475 18.8205 M986.292 12.096 L1003.1 12.096 Q1020.68 12.096 1028.91 19.4281 Q1037.13 26.7198 1037.13 42.2752 Q1037.13 57.9117 1028.87 65.2439 Q1020.6 72.576 1003.1 72.576 L986.292 72.576 L986.292 12.096 Z" fill="#000000" fill-rule="nonzero" fill-opacity="1" /><path clip-path="url(#clip460)" d="M1067.43 32.4315 Q1061.44 32.4315 1057.95 37.1306 Q1054.47 41.7891 1054.47 49.9314 Q1054.47 58.0738 1057.91 62.7728 Q1061.4 67.4314 1067.43 67.4314 Q1073.39 67.4314 1076.87 62.7323 Q1080.35 58.0333 1080.35 49.9314 Q1080.35 41.8701 1076.87 37.1711 Q1073.39 32.4315 1067.43 32.4315 M1067.43 26.1121 Q1077.15 26.1121 1082.7 32.4315 Q1088.25 38.7509 1088.25 49.9314 Q1088.25 61.0714 1082.7 67.4314 Q1077.15 73.7508 1067.43 73.7508 Q1057.67 73.7508 1052.12 67.4314 Q1046.61 61.0714 1046.61 49.9314 Q1046.61 38.7509 1052.12 32.4315 Q1057.67 26.1121 1067.43 26.1121 Z" fill="#000000" fill-rule="nonzero" fill-opacity="1" /><path clip-path="url(#clip460)" d="M1118.19 32.4315 Q1112.19 32.4315 1108.71 37.1306 Q1105.23 41.7891 1105.23 49.9314 Q1105.23 58.0738 1108.67 62.7728 Q1112.15 67.4314 1118.19 67.4314 Q1124.14 67.4314 1127.63 62.7323 Q1131.11 58.0333 1131.11 49.9314 Q1131.11 41.8701 1127.63 37.1711 Q1124.14 32.4315 1118.19 32.4315 M1118.19 26.1121 Q1127.91 26.1121 1133.46 32.4315 Q1139.01 38.7509 1139.01 49.9314 Q1139.01 61.0714 1133.46 67.4314 Q1127.91 73.7508 1118.19 73.7508 Q1108.43 73.7508 1102.88 67.4314 Q1097.37 61.0714 1097.37 49.9314 Q1097.37 38.7509 1102.88 32.4315 Q1108.43 26.1121 1118.19 26.1121 Z" fill="#000000" fill-rule="nonzero" fill-opacity="1" /><path clip-path="url(#clip460)" d="M1177.66 34.1734 Q1176.4 33.4443 1174.9 33.1202 Q1173.44 32.7556 1171.66 32.7556 Q1165.34 32.7556 1161.94 36.8875 Q1158.58 40.9789 1158.58 48.6757 L1158.58 72.576 L1151.08 72.576 L1151.08 27.2059 L1158.58 27.2059 L1158.58 34.2544 Q1160.93 30.1225 1164.69 28.1376 Q1168.46 26.1121 1173.85 26.1121 Q1174.62 26.1121 1175.55 26.2337 Q1176.48 26.3147 1177.62 26.5172 L1177.66 34.1734 Z" fill="#000000" fill-rule="nonzero" fill-opacity="1" /><path clip-path="url(#clip460)" d="M1212.17 12.096 L1220.35 12.096 L1220.35 37.6572 L1247.49 12.096 L1258.03 12.096 L1228.01 40.2903 L1260.17 72.576 L1249.4 72.576 L1220.35 43.45 L1220.35 72.576 L1212.17 72.576 L1212.17 12.096 Z" fill="#000000" fill-rule="nonzero" fill-opacity="1" /><path clip-path="url(#clip460)" d="M1303.96 45.1919 L1303.96 72.576 L1296.51 72.576 L1296.51 45.4349 Q1296.51 38.994 1294 35.7938 Q1291.49 32.5936 1286.46 32.5936 Q1280.43 32.5936 1276.94 36.4419 Q1273.46 40.2903 1273.46 46.9338 L1273.46 72.576 L1265.97 72.576 L1265.97 27.2059 L1273.46 27.2059 L1273.46 34.2544 Q1276.13 30.163 1279.74 28.1376 Q1283.39 26.1121 1288.13 26.1121 Q1295.94 26.1121 1299.95 30.9732 Q1303.96 35.7938 1303.96 45.1919 Z" fill="#000000" fill-rule="nonzero" fill-opacity="1" /><path clip-path="url(#clip460)" d="M1336.41 32.4315 Q1330.42 32.4315 1326.93 37.1306 Q1323.45 41.7891 1323.45 49.9314 Q1323.45 58.0738 1326.89 62.7728 Q1330.38 67.4314 1336.41 67.4314 Q1342.37 67.4314 1345.85 62.7323 Q1349.33 58.0333 1349.33 49.9314 Q1349.33 41.8701 1345.85 37.1711 Q1342.37 32.4315 1336.41 32.4315 M1336.41 26.1121 Q1346.13 26.1121 1351.68 32.4315 Q1357.23 38.7509 1357.23 49.9314 Q1357.23 61.0714 1351.68 67.4314 Q1346.13 73.7508 1336.41 73.7508 Q1326.65 73.7508 1321.1 67.4314 Q1315.59 61.0714 1315.59 49.9314 Q1315.59 38.7509 1321.1 32.4315 Q1326.65 26.1121 1336.41 26.1121 Z" fill="#000000" fill-rule="nonzero" fill-opacity="1" /><path clip-path="url(#clip460)" d="M1402.16 49.9314 Q1402.16 41.7081 1398.76 37.0496 Q1395.39 32.3505 1389.48 32.3505 Q1383.56 32.3505 1380.16 37.0496 Q1376.8 41.7081 1376.8 49.9314 Q1376.8 58.1548 1380.16 62.8538 Q1383.56 67.5124 1389.48 67.5124 Q1395.39 67.5124 1398.76 62.8538 Q1402.16 58.1548 1402.16 49.9314 M1376.8 34.0924 Q1379.15 30.0415 1382.71 28.0971 Q1386.32 26.1121 1391.3 26.1121 Q1399.57 26.1121 1404.71 32.6746 Q1409.9 39.2371 1409.9 49.9314 Q1409.9 60.6258 1404.71 67.1883 Q1399.57 73.7508 1391.3 73.7508 Q1386.32 73.7508 1382.71 71.8063 Q1379.15 69.8214 1376.8 65.7705 L1376.8 72.576 L1369.31 72.576 L1369.31 9.54393 L1376.8 9.54393 L1376.8 34.0924 Z" fill="#000000" fill-rule="nonzero" fill-opacity="1" /><path clip-path="url(#clip460)" d="M1457.13 18.8205 L1457.13 41.5461 L1467.42 41.5461 Q1473.13 41.5461 1476.25 38.5889 Q1479.37 35.6318 1479.37 30.163 Q1479.37 24.7348 1476.25 21.7777 Q1473.13 18.8205 1467.42 18.8205 L1457.13 18.8205 M1448.95 12.096 L1467.42 12.096 Q1477.59 12.096 1482.77 16.714 Q1488 21.2916 1488 30.163 Q1488 39.1155 1482.77 43.6931 Q1477.59 48.2706 1467.42 48.2706 L1457.13 48.2706 L1457.13 72.576 L1448.95 72.576 L1448.95 12.096 Z" fill="#000000" fill-rule="nonzero" fill-opacity="1" /><path clip-path="url(#clip460)" d="M1515.54 49.7694 Q1506.51 49.7694 1503.03 51.8354 Q1499.54 53.9013 1499.54 58.8839 Q1499.54 62.8538 1502.13 65.2034 Q1504.77 67.5124 1509.26 67.5124 Q1515.46 67.5124 1519.19 63.1374 Q1522.96 58.7219 1522.96 51.4303 L1522.96 49.7694 L1515.54 49.7694 M1530.41 46.6907 L1530.41 72.576 L1522.96 72.576 L1522.96 65.6895 Q1520.4 69.8214 1516.6 71.8063 Q1512.79 73.7508 1507.28 73.7508 Q1500.31 73.7508 1496.18 69.8619 Q1492.09 65.9325 1492.09 59.3701 Q1492.09 51.7138 1497.19 47.825 Q1502.34 43.9361 1512.5 43.9361 L1522.96 43.9361 L1522.96 43.2069 Q1522.96 38.0623 1519.55 35.2672 Q1516.19 32.4315 1510.07 32.4315 Q1506.19 32.4315 1502.5 33.3632 Q1498.81 34.295 1495.41 36.1584 L1495.41 29.2718 Q1499.5 27.692 1503.35 26.9223 Q1507.2 26.1121 1510.84 26.1121 Q1520.69 26.1121 1525.55 31.2163 Q1530.41 36.3204 1530.41 46.6907 Z" fill="#000000" fill-rule="nonzero" fill-opacity="1" /><path clip-path="url(#clip460)" d="M1553.14 14.324 L1553.14 27.2059 L1568.49 27.2059 L1568.49 32.9987 L1553.14 32.9987 L1553.14 57.6282 Q1553.14 63.1779 1554.63 64.7578 Q1556.17 66.3376 1560.83 66.3376 L1568.49 66.3376 L1568.49 72.576 L1560.83 72.576 Q1552.2 72.576 1548.92 69.3758 Q1545.64 66.1351 1545.64 57.6282 L1545.64 32.9987 L1540.17 32.9987 L1540.17 27.2059 L1545.64 27.2059 L1545.64 14.324 L1553.14 14.324 Z" fill="#000000" fill-rule="nonzero" fill-opacity="1" /><path clip-path="url(#clip460)" d="M1616.01 45.1919 L1616.01 72.576 L1608.55 72.576 L1608.55 45.4349 Q1608.55 38.994 1606.04 35.7938 Q1603.53 32.5936 1598.51 32.5936 Q1592.47 32.5936 1588.99 36.4419 Q1585.5 40.2903 1585.5 46.9338 L1585.5 72.576 L1578.01 72.576 L1578.01 9.54393 L1585.5 9.54393 L1585.5 34.2544 Q1588.18 30.163 1591.78 28.1376 Q1595.43 26.1121 1600.17 26.1121 Q1607.98 26.1121 1612 30.9732 Q1616.01 35.7938 1616.01 45.1919 Z" fill="#000000" fill-rule="nonzero" fill-opacity="1" /><polyline clip-path="url(#clip462)" style="stroke:#009af9; stroke-linecap:round; stroke-linejoin:round; stroke-width:12; stroke-opacity:1; fill:none" points="1923.68,1386.4 1923.68,1385.88 1923.67,1384.34 1923.67,1381.8 1923.65,1378.27 1923.61,1373.79 1923.55,1368.37 1923.44,1362.03 1923.28,1354.8 1923.04,1346.69 1922.72,1337.73 1922.3,1327.94 1921.76,1317.34 1921.07,1305.95 1920.23,1293.8 1919.2,1280.91 1917.97,1267.31 1916.51,1253.01 1914.81,1238.05 1912.83,1222.45 1910.57,1206.23 1908,1189.43 1905.09,1172.07 1901.83,1154.18 1898.19,1135.78 1894.16,1116.92 1889.72,1097.61 1884.85,1077.88 1879.53,1057.78 1873.74,1037.33 1867.48,1016.56 1860.73,995.511 1853.47,974.208 1845.69,952.688 1837.4,930.984 1828.57,909.131 1819.2,887.162 1809.3,865.111 1798.84,843.013 1787.85,820.902 1776.3,798.81 1764.22,776.773 1751.6,754.821 1738.44,732.989 1724.77,711.308 1710.58,689.81 1695.88,668.524 1680.7,647.481 1665.05,626.71 1648.94,606.237 1632.39,586.09 1615.42,566.294 1598.06,546.873 1580.32,527.85 1562.23,509.246 1543.82,491.08 1525.11,473.372 1506.14,456.138 1486.92,439.394 1467.5,423.151 1447.89,407.424 1428.14,392.22 1408.27,377.55 1388.33,363.419 1368.33,349.833 1348.32,336.795 1328.33,324.306 1308.4,312.366 1288.56,300.974 1268.84,290.127 1249.28,279.819 1229.91,270.046 1210.78,260.798 1191.9,252.067 1173.33,243.843 1155.08,236.115 1137.2,228.871 1119.72,222.096 1102.66,215.777 1086.07,209.899 1069.97,204.446 1054.4,199.402 1039.37,194.75 1024.94,190.475 1011.11,186.557 997.926,182.982 985.411,179.73 973.593,176.787 962.498,174.135 952.152,171.759 942.582,169.644 933.812,167.774 925.868,166.137 918.772,164.721 912.55,163.515 907.224,162.508 902.817,161.693 899.352,161.063 896.85,160.615 895.333,160.346 894.823,160.256 "/>
<polyline clip-path="url(#clip462)" style="stroke:#e26f46; stroke-linecap:round; stroke-linejoin:round; stroke-width:8; stroke-opacity:1; fill:none" points="1923.68,1386.4 1923.68,1386.4 1923.68,1386.4 1923.67,1386.4 1923.66,1386.4 1923.64,1386.4 1923.61,1386.4 1923.56,1386.4 1923.48,1386.4 1923.36,1386.4 1923.2,1386.4 1922.99,1386.4 1922.72,1386.4 1922.38,1386.4 1921.95,1386.4 1921.44,1386.4 1920.82,1386.4 1920.09,1386.4 1914.81,1238.05 1912.83,1222.45 1910.57,1206.23 1908,1189.43 1905.09,1172.07 1901.83,1154.18 1898.19,1135.78 1894.16,1116.92 1889.72,1097.61 1884.85,1077.88 1879.53,1057.78 1873.74,1037.33 1867.48,1016.56 1860.73,995.511 1853.47,974.208 1845.69,952.688 1837.4,930.984 1828.57,909.131 1819.2,887.162 1809.3,865.111 1798.84,843.013 1787.85,820.902 1776.3,798.81 1764.22,776.773 1751.6,754.821 1738.44,732.989 1724.77,711.308 1710.58,689.81 1695.88,668.524 1680.7,647.481 1665.05,626.71 1648.94,606.237 1632.39,586.09 1615.42,566.294 1598.06,546.873 1580.32,527.85 1562.23,509.246 1543.82,491.08 1525.11,473.372 1506.14,456.138 1486.92,439.394 1467.5,423.151 1447.89,407.424 1428.14,392.22 1408.27,377.55 1388.33,363.419 1368.33,349.833 1348.32,336.795 1328.33,324.306 1308.4,312.366 1288.56,300.974 1268.84,290.127 1249.28,279.819 1229.91,270.046 1210.78,260.798 1191.9,252.067 1173.33,243.843 1155.08,236.115 1137.2,228.871 1119.72,222.096 1102.66,215.777 1086.07,209.899 1069.97,204.446 1054.4,199.402 1039.37,194.75 1024.94,190.475 1011.11,186.557 997.926,182.982 985.411,179.73 973.593,176.787 962.498,174.135 952.152,171.759 942.582,169.644 933.812,167.774 925.868,166.137 918.772,164.721 912.55,163.515 907.224,162.508 902.817,161.693 899.352,161.063 896.85,160.615 895.333,160.346 894.823,160.256 "/>
<polyline clip-path="url(#clip462)" style="stroke:#3da44d; stroke-linecap:round; stroke-linejoin:round; stroke-width:8; stroke-opacity:1; fill:none" points="1923.68,1386.4 1923.68,1385.88 1923.67,1384.34 1923.67,1381.8 1923.65,1378.27 1923.61,1373.79 1923.55,1368.37 1923.44,1362.03 1923.28,1354.8 1923.04,1346.69 1922.72,1337.73 1922.3,1327.94 1921.76,1317.34 1921.07,1305.95 1920.23,1293.8 1919.2,1280.91 1917.97,1267.31 1916.51,1253.01 1914.81,1238.05 1912.83,1222.45 1910.57,1206.23 1908,1189.43 1905.09,1172.07 1901.83,1154.18 1898.19,1135.78 1894.16,1116.92 1889.72,1097.61 1884.85,1077.88 1879.53,1057.78 1873.74,1037.33 1867.48,1016.56 1860.73,995.511 1853.47,974.208 1845.69,952.688 1837.4,930.984 1828.57,909.131 1819.2,887.162 1809.3,865.111 1798.84,843.013 1787.85,820.902 1776.3,798.81 1764.22,776.773 1751.6,754.821 1738.44,732.989 1724.77,711.308 1710.58,689.81 1695.88,668.524 1680.7,647.481 1665.05,626.71 1648.94,606.237 1632.39,586.09 1615.42,566.294 1598.06,546.873 1580.32,527.85 1562.23,509.246 1543.82,491.08 1525.11,473.372 1506.14,456.138 1486.92,439.394 1467.5,423.151 1447.89,407.424 1428.14,392.22 1408.27,377.55 1388.33,363.419 1368.33,349.833 1348.32,336.795 1328.33,324.306 1308.4,312.366 1288.56,300.974 1268.84,290.127 1249.28,279.819 1229.91,270.046 1210.78,260.798 1191.9,252.067 1173.33,243.843 1155.08,236.115 1137.2,228.871 1119.72,222.096 1102.66,215.777 1086.07,209.899 1069.97,204.446 1054.4,199.402 1039.37,194.75 1024.94,190.475 1011.11,186.557 997.926,182.982 985.411,179.73 973.593,176.787 962.498,174.135 952.152,171.759 942.582,169.644 933.812,167.774 925.868,166.137 918.772,164.721 912.55,163.515 907.224,162.508 902.817,161.693 899.352,161.063 896.85,160.615 895.333,160.346 894.823,160.256 "/>
<circle clip-path="url(#clip462)" cx="678.622" cy="1386.4" r="21.6" fill="#c271d2" fill-rule="evenodd" fill-opacity="1" stroke="#000000" stroke-opacity="1" stroke-width="3.2"/>
<path clip-path="url(#clip460)" d="M1455.9 425.996 L2282.65 425.996 L2282.65 166.796 L1455.9 166.796  Z" fill="#ffffff" fill-rule="evenodd" fill-opacity="1"/>
<polyline clip-path="url(#clip460)" style="stroke:#000000; stroke-linecap:round; stroke-linejoin:round; stroke-width:4; stroke-opacity:1; fill:none" points="1455.9,425.996 2282.65,425.996 2282.65,166.796 1455.9,166.796 1455.9,425.996 "/>
<polyline clip-path="url(#clip460)" style="stroke:#009af9; stroke-linecap:round; stroke-linejoin:round; stroke-width:12; stroke-opacity:1; fill:none" points="1479.26,218.636 1619.48,218.636 "/>
<path clip-path="url(#clip460)" d="M1670.72 204.018 L1670.72 208.948 Q1668.36 206.749 1665.67 205.661 Q1663.01 204.573 1660 204.573 Q1654.07 204.573 1650.93 208.208 Q1647.78 211.819 1647.78 218.67 Q1647.78 225.499 1650.93 229.133 Q1654.07 232.744 1660 232.744 Q1663.01 232.744 1665.67 231.656 Q1668.36 230.569 1670.72 228.369 L1670.72 233.254 Q1668.26 234.92 1665.51 235.754 Q1662.78 236.587 1659.72 236.587 Q1651.88 236.587 1647.36 231.795 Q1642.85 226.981 1642.85 218.67 Q1642.85 210.337 1647.36 205.546 Q1651.88 200.731 1659.72 200.731 Q1662.82 200.731 1665.56 201.564 Q1668.31 202.374 1670.72 204.018 Z" fill="#000000" fill-rule="nonzero" fill-opacity="1" /><path clip-path="url(#clip460)" d="M1689.54 222.883 Q1684.38 222.883 1682.38 224.064 Q1680.39 225.244 1680.39 228.092 Q1680.39 230.36 1681.88 231.703 Q1683.38 233.022 1685.95 233.022 Q1689.49 233.022 1691.62 230.522 Q1693.77 227.999 1693.77 223.832 L1693.77 222.883 L1689.54 222.883 M1698.03 221.124 L1698.03 235.916 L1693.77 235.916 L1693.77 231.981 Q1692.32 234.342 1690.14 235.476 Q1687.96 236.587 1684.82 236.587 Q1680.83 236.587 1678.47 234.365 Q1676.13 232.119 1676.13 228.369 Q1676.13 223.994 1679.05 221.772 Q1681.99 219.55 1687.8 219.55 L1693.77 219.55 L1693.77 219.133 Q1693.77 216.194 1691.83 214.596 Q1689.91 212.976 1686.41 212.976 Q1684.19 212.976 1682.08 213.508 Q1679.98 214.041 1678.03 215.106 L1678.03 211.17 Q1680.37 210.268 1682.57 209.828 Q1684.77 209.365 1686.85 209.365 Q1692.48 209.365 1695.25 212.282 Q1698.03 215.198 1698.03 221.124 Z" fill="#000000" fill-rule="nonzero" fill-opacity="1" /><path clip-path="url(#clip460)" d="M1723.33 210.754 L1723.33 214.782 Q1721.53 213.856 1719.58 213.393 Q1717.64 212.93 1715.56 212.93 Q1712.38 212.93 1710.79 213.902 Q1709.21 214.874 1709.21 216.819 Q1709.21 218.3 1710.35 219.157 Q1711.48 219.99 1714.91 220.754 L1716.37 221.078 Q1720.9 222.05 1722.8 223.832 Q1724.72 225.592 1724.72 228.763 Q1724.72 232.374 1721.85 234.481 Q1719 236.587 1714 236.587 Q1711.92 236.587 1709.65 236.17 Q1707.41 235.777 1704.91 234.967 L1704.91 230.569 Q1707.27 231.795 1709.56 232.42 Q1711.85 233.022 1714.1 233.022 Q1717.11 233.022 1718.73 232.004 Q1720.35 230.962 1720.35 229.087 Q1720.35 227.351 1719.17 226.425 Q1718.01 225.499 1714.05 224.643 L1712.57 224.295 Q1708.61 223.462 1706.85 221.749 Q1705.09 220.013 1705.09 217.004 Q1705.09 213.346 1707.69 211.356 Q1710.28 209.365 1715.05 209.365 Q1717.41 209.365 1719.49 209.712 Q1721.57 210.059 1723.33 210.754 Z" fill="#000000" fill-rule="nonzero" fill-opacity="1" /><path clip-path="url(#clip460)" d="M1753.68 221.888 L1753.68 223.971 L1734.1 223.971 Q1734.38 228.369 1736.74 230.684 Q1739.12 232.976 1743.36 232.976 Q1745.81 232.976 1748.1 232.374 Q1750.42 231.772 1752.69 230.569 L1752.69 234.596 Q1750.39 235.568 1747.99 236.078 Q1745.58 236.587 1743.1 236.587 Q1736.9 236.587 1733.26 232.976 Q1729.65 229.365 1729.65 223.207 Q1729.65 216.842 1733.08 213.115 Q1736.53 209.365 1742.36 209.365 Q1747.59 209.365 1750.63 212.745 Q1753.68 216.101 1753.68 221.888 M1749.42 220.638 Q1749.38 217.143 1747.45 215.059 Q1745.56 212.976 1742.41 212.976 Q1738.84 212.976 1736.69 214.99 Q1734.56 217.004 1734.24 220.661 L1749.42 220.638 Z" fill="#000000" fill-rule="nonzero" fill-opacity="1" /><path clip-path="url(#clip460)" d="M1787.48 205.962 L1781.13 223.161 L1793.84 223.161 L1787.48 205.962 M1784.84 201.356 L1790.14 201.356 L1803.31 235.916 L1798.45 235.916 L1795.3 227.05 L1779.72 227.05 L1776.57 235.916 L1771.64 235.916 L1784.84 201.356 Z" fill="#000000" fill-rule="nonzero" fill-opacity="1" /><path clip-path="url(#clip460)" d="M1808.43 230.036 L1813.31 230.036 L1813.31 235.916 L1808.43 235.916 L1808.43 230.036 M1808.43 211.402 L1813.31 211.402 L1813.31 217.282 L1808.43 217.282 L1808.43 211.402 Z" fill="#000000" fill-rule="nonzero" fill-opacity="1" /><path clip-path="url(#clip460)" d="M1842.5 232.027 L1842.5 245.777 L1838.22 245.777 L1838.22 209.99 L1842.5 209.99 L1842.5 213.925 Q1843.84 211.61 1845.88 210.499 Q1847.94 209.365 1850.79 209.365 Q1855.51 209.365 1858.45 213.115 Q1861.41 216.865 1861.41 222.976 Q1861.41 229.087 1858.45 232.837 Q1855.51 236.587 1850.79 236.587 Q1847.94 236.587 1845.88 235.476 Q1843.84 234.342 1842.5 232.027 M1856.99 222.976 Q1856.99 218.277 1855.05 215.615 Q1853.12 212.93 1849.74 212.93 Q1846.37 212.93 1844.42 215.615 Q1842.5 218.277 1842.5 222.976 Q1842.5 227.675 1844.42 230.36 Q1846.37 233.022 1849.74 233.022 Q1853.12 233.022 1855.05 230.36 Q1856.99 227.675 1856.99 222.976 Z" fill="#000000" fill-rule="nonzero" fill-opacity="1" /><path clip-path="url(#clip460)" d="M1883.49 213.971 Q1882.78 213.555 1881.92 213.37 Q1881.09 213.161 1880.07 213.161 Q1876.46 213.161 1874.51 215.522 Q1872.59 217.86 1872.59 222.258 L1872.59 235.916 L1868.31 235.916 L1868.31 209.99 L1872.59 209.99 L1872.59 214.018 Q1873.93 211.657 1876.09 210.522 Q1878.24 209.365 1881.32 209.365 Q1881.76 209.365 1882.29 209.434 Q1882.82 209.481 1883.47 209.596 L1883.49 213.971 Z" fill="#000000" fill-rule="nonzero" fill-opacity="1" /><path clip-path="url(#clip460)" d="M1909.1 221.888 L1909.1 223.971 L1889.51 223.971 Q1889.79 228.369 1892.15 230.684 Q1894.54 232.976 1898.77 232.976 Q1901.23 232.976 1903.52 232.374 Q1905.83 231.772 1908.1 230.569 L1908.1 234.596 Q1905.81 235.568 1903.4 236.078 Q1900.99 236.587 1898.52 236.587 Q1892.31 236.587 1888.68 232.976 Q1885.07 229.365 1885.07 223.207 Q1885.07 216.842 1888.49 213.115 Q1891.94 209.365 1897.78 209.365 Q1903.01 209.365 1906.04 212.745 Q1909.1 216.101 1909.1 221.888 M1904.84 220.638 Q1904.79 217.143 1902.87 215.059 Q1900.97 212.976 1897.82 212.976 Q1894.26 212.976 1892.11 214.99 Q1889.98 217.004 1889.65 220.661 L1904.84 220.638 Z" fill="#000000" fill-rule="nonzero" fill-opacity="1" /><path clip-path="url(#clip460)" d="M1932.61 210.754 L1932.61 214.782 Q1930.81 213.856 1928.86 213.393 Q1926.92 212.93 1924.84 212.93 Q1921.67 212.93 1920.07 213.902 Q1918.49 214.874 1918.49 216.819 Q1918.49 218.3 1919.63 219.157 Q1920.76 219.99 1924.19 220.754 L1925.65 221.078 Q1930.18 222.05 1932.08 223.832 Q1934 225.592 1934 228.763 Q1934 232.374 1931.13 234.481 Q1928.29 236.587 1923.29 236.587 Q1921.2 236.587 1918.93 236.17 Q1916.69 235.777 1914.19 234.967 L1914.19 230.569 Q1916.55 231.795 1918.84 232.42 Q1921.13 233.022 1923.38 233.022 Q1926.39 233.022 1928.01 232.004 Q1929.63 230.962 1929.63 229.087 Q1929.63 227.351 1928.45 226.425 Q1927.29 225.499 1923.33 224.643 L1921.85 224.295 Q1917.89 223.462 1916.13 221.749 Q1914.37 220.013 1914.37 217.004 Q1914.37 213.346 1916.97 211.356 Q1919.56 209.365 1924.33 209.365 Q1926.69 209.365 1928.77 209.712 Q1930.86 210.059 1932.61 210.754 Z" fill="#000000" fill-rule="nonzero" fill-opacity="1" /><path clip-path="url(#clip460)" d="M1959.44 210.985 L1959.44 214.967 Q1957.64 213.971 1955.81 213.485 Q1954 212.976 1952.15 212.976 Q1948.01 212.976 1945.72 215.615 Q1943.42 218.231 1943.42 222.976 Q1943.42 227.721 1945.72 230.36 Q1948.01 232.976 1952.15 232.976 Q1954 232.976 1955.81 232.49 Q1957.64 231.981 1959.44 230.985 L1959.44 234.92 Q1957.66 235.754 1955.74 236.17 Q1953.84 236.587 1951.69 236.587 Q1945.83 236.587 1942.38 232.906 Q1938.93 229.226 1938.93 222.976 Q1938.93 216.633 1942.41 212.999 Q1945.9 209.365 1951.97 209.365 Q1953.93 209.365 1955.81 209.782 Q1957.68 210.175 1959.44 210.985 Z" fill="#000000" fill-rule="nonzero" fill-opacity="1" /><path clip-path="url(#clip460)" d="M1981.87 213.971 Q1981.16 213.555 1980.3 213.37 Q1979.47 213.161 1978.45 213.161 Q1974.84 213.161 1972.89 215.522 Q1970.97 217.86 1970.97 222.258 L1970.97 235.916 L1966.69 235.916 L1966.69 209.99 L1970.97 209.99 L1970.97 214.018 Q1972.31 211.657 1974.47 210.522 Q1976.62 209.365 1979.7 209.365 Q1980.14 209.365 1980.67 209.434 Q1981.2 209.481 1981.85 209.596 L1981.87 213.971 Z" fill="#000000" fill-rule="nonzero" fill-opacity="1" /><path clip-path="url(#clip460)" d="M1986.34 209.99 L1990.6 209.99 L1990.6 235.916 L1986.34 235.916 L1986.34 209.99 M1986.34 199.897 L1990.6 199.897 L1990.6 205.291 L1986.34 205.291 L1986.34 199.897 Z" fill="#000000" fill-rule="nonzero" fill-opacity="1" /><path clip-path="url(#clip460)" d="M2018.12 222.976 Q2018.12 218.277 2016.18 215.615 Q2014.26 212.93 2010.88 212.93 Q2007.5 212.93 2005.55 215.615 Q2003.63 218.277 2003.63 222.976 Q2003.63 227.675 2005.55 230.36 Q2007.5 233.022 2010.88 233.022 Q2014.26 233.022 2016.18 230.36 Q2018.12 227.675 2018.12 222.976 M2003.63 213.925 Q2004.98 211.61 2007.01 210.499 Q2009.07 209.365 2011.92 209.365 Q2016.64 209.365 2019.58 213.115 Q2022.54 216.865 2022.54 222.976 Q2022.54 229.087 2019.58 232.837 Q2016.64 236.587 2011.92 236.587 Q2009.07 236.587 2007.01 235.476 Q2004.98 234.342 2003.63 232.027 L2003.63 235.916 L1999.35 235.916 L1999.35 199.897 L2003.63 199.897 L2003.63 213.925 Z" fill="#000000" fill-rule="nonzero" fill-opacity="1" /><path clip-path="url(#clip460)" d="M2051.78 221.888 L2051.78 223.971 L2032.2 223.971 Q2032.48 228.369 2034.84 230.684 Q2037.22 232.976 2041.46 232.976 Q2043.91 232.976 2046.2 232.374 Q2048.52 231.772 2050.79 230.569 L2050.79 234.596 Q2048.49 235.568 2046.09 236.078 Q2043.68 236.587 2041.2 236.587 Q2035 236.587 2031.36 232.976 Q2027.75 229.365 2027.75 223.207 Q2027.75 216.842 2031.18 213.115 Q2034.63 209.365 2040.46 209.365 Q2045.69 209.365 2048.73 212.745 Q2051.78 216.101 2051.78 221.888 M2047.52 220.638 Q2047.48 217.143 2045.55 215.059 Q2043.66 212.976 2040.51 212.976 Q2036.94 212.976 2034.79 214.99 Q2032.66 217.004 2032.34 220.661 L2047.52 220.638 Z" fill="#000000" fill-rule="nonzero" fill-opacity="1" /><path clip-path="url(#clip460)" d="M2075.83 213.925 L2075.83 199.897 L2080.09 199.897 L2080.09 235.916 L2075.83 235.916 L2075.83 232.027 Q2074.49 234.342 2072.43 235.476 Q2070.39 236.587 2067.52 236.587 Q2062.82 236.587 2059.86 232.837 Q2056.92 229.087 2056.92 222.976 Q2056.92 216.865 2059.86 213.115 Q2062.82 209.365 2067.52 209.365 Q2070.39 209.365 2072.43 210.499 Q2074.49 211.61 2075.83 213.925 M2061.32 222.976 Q2061.32 227.675 2063.24 230.36 Q2065.18 233.022 2068.56 233.022 Q2071.94 233.022 2073.89 230.36 Q2075.83 227.675 2075.83 222.976 Q2075.83 218.277 2073.89 215.615 Q2071.94 212.93 2068.56 212.93 Q2065.18 212.93 2063.24 215.615 Q2061.32 218.277 2061.32 222.976 Z" fill="#000000" fill-rule="nonzero" fill-opacity="1" /><path clip-path="url(#clip460)" d="M2115.72 222.883 Q2110.55 222.883 2108.56 224.064 Q2106.57 225.244 2106.57 228.092 Q2106.57 230.36 2108.05 231.703 Q2109.56 233.022 2112.13 233.022 Q2115.67 233.022 2117.8 230.522 Q2119.95 227.999 2119.95 223.832 L2119.95 222.883 L2115.72 222.883 M2124.21 221.124 L2124.21 235.916 L2119.95 235.916 L2119.95 231.981 Q2118.49 234.342 2116.32 235.476 Q2114.14 236.587 2110.99 236.587 Q2107.01 236.587 2104.65 234.365 Q2102.31 232.119 2102.31 228.369 Q2102.31 223.994 2105.23 221.772 Q2108.17 219.55 2113.98 219.55 L2119.95 219.55 L2119.95 219.133 Q2119.95 216.194 2118.01 214.596 Q2116.09 212.976 2112.59 212.976 Q2110.37 212.976 2108.26 213.508 Q2106.16 214.041 2104.21 215.106 L2104.21 211.17 Q2106.55 210.268 2108.75 209.828 Q2110.95 209.365 2113.03 209.365 Q2118.66 209.365 2121.43 212.282 Q2124.21 215.198 2124.21 221.124 Z" fill="#000000" fill-rule="nonzero" fill-opacity="1" /><path clip-path="url(#clip460)" d="M2154.53 220.268 L2154.53 235.916 L2150.28 235.916 L2150.28 220.407 Q2150.28 216.726 2148.84 214.897 Q2147.41 213.069 2144.53 213.069 Q2141.09 213.069 2139.1 215.268 Q2137.1 217.467 2137.1 221.263 L2137.1 235.916 L2132.82 235.916 L2132.82 209.99 L2137.1 209.99 L2137.1 214.018 Q2138.63 211.68 2140.69 210.522 Q2142.78 209.365 2145.48 209.365 Q2149.95 209.365 2152.24 212.143 Q2154.53 214.897 2154.53 220.268 Z" fill="#000000" fill-rule="nonzero" fill-opacity="1" /><path clip-path="url(#clip460)" d="M2180.09 222.652 Q2180.09 218.022 2178.17 215.476 Q2176.27 212.93 2172.82 212.93 Q2169.4 212.93 2167.47 215.476 Q2165.58 218.022 2165.58 222.652 Q2165.58 227.258 2167.47 229.805 Q2169.4 232.351 2172.82 232.351 Q2176.27 232.351 2178.17 229.805 Q2180.09 227.258 2180.09 222.652 M2184.35 232.698 Q2184.35 239.318 2181.41 242.536 Q2178.47 245.777 2172.41 245.777 Q2170.16 245.777 2168.17 245.43 Q2166.18 245.105 2164.3 244.411 L2164.3 240.268 Q2166.18 241.286 2168.01 241.772 Q2169.84 242.258 2171.73 242.258 Q2175.92 242.258 2178.01 240.059 Q2180.09 237.883 2180.09 233.462 L2180.09 231.356 Q2178.77 233.647 2176.71 234.781 Q2174.65 235.916 2171.78 235.916 Q2167.01 235.916 2164.1 232.281 Q2161.18 228.647 2161.18 222.652 Q2161.18 216.633 2164.1 212.999 Q2167.01 209.365 2171.78 209.365 Q2174.65 209.365 2176.71 210.499 Q2178.77 211.633 2180.09 213.925 L2180.09 209.99 L2184.35 209.99 L2184.35 232.698 Z" fill="#000000" fill-rule="nonzero" fill-opacity="1" /><path clip-path="url(#clip460)" d="M2193.12 199.897 L2197.38 199.897 L2197.38 235.916 L2193.12 235.916 L2193.12 199.897 Z" fill="#000000" fill-rule="nonzero" fill-opacity="1" /><path clip-path="url(#clip460)" d="M2228.47 221.888 L2228.47 223.971 L2208.89 223.971 Q2209.16 228.369 2211.53 230.684 Q2213.91 232.976 2218.15 232.976 Q2220.6 232.976 2222.89 232.374 Q2225.21 231.772 2227.47 230.569 L2227.47 234.596 Q2225.18 235.568 2222.78 236.078 Q2220.37 236.587 2217.89 236.587 Q2211.69 236.587 2208.05 232.976 Q2204.44 229.365 2204.44 223.207 Q2204.44 216.842 2207.87 213.115 Q2211.32 209.365 2217.15 209.365 Q2222.38 209.365 2225.41 212.745 Q2228.47 216.101 2228.47 221.888 M2224.21 220.638 Q2224.16 217.143 2222.24 215.059 Q2220.34 212.976 2217.2 212.976 Q2213.63 212.976 2211.48 214.99 Q2209.35 217.004 2209.03 220.661 L2224.21 220.638 Z" fill="#000000" fill-rule="nonzero" fill-opacity="1" /><polyline clip-path="url(#clip460)" style="stroke:#e26f46; stroke-linecap:round; stroke-linejoin:round; stroke-width:8; stroke-opacity:1; fill:none" points="1479.26,270.476 1619.48,270.476 "/>
<path clip-path="url(#clip460)" d="M1670.72 255.858 L1670.72 260.788 Q1668.36 258.589 1665.67 257.501 Q1663.01 256.413 1660 256.413 Q1654.07 256.413 1650.93 260.048 Q1647.78 263.659 1647.78 270.51 Q1647.78 277.339 1650.93 280.973 Q1654.07 284.584 1660 284.584 Q1663.01 284.584 1665.67 283.496 Q1668.36 282.409 1670.72 280.209 L1670.72 285.094 Q1668.26 286.76 1665.51 287.594 Q1662.78 288.427 1659.72 288.427 Q1651.88 288.427 1647.36 283.635 Q1642.85 278.821 1642.85 270.51 Q1642.85 262.177 1647.36 257.386 Q1651.88 252.571 1659.72 252.571 Q1662.82 252.571 1665.56 253.404 Q1668.31 254.214 1670.72 255.858 Z" fill="#000000" fill-rule="nonzero" fill-opacity="1" /><path clip-path="url(#clip460)" d="M1689.54 274.723 Q1684.38 274.723 1682.38 275.904 Q1680.39 277.084 1680.39 279.932 Q1680.39 282.2 1681.88 283.543 Q1683.38 284.862 1685.95 284.862 Q1689.49 284.862 1691.62 282.362 Q1693.77 279.839 1693.77 275.672 L1693.77 274.723 L1689.54 274.723 M1698.03 272.964 L1698.03 287.756 L1693.77 287.756 L1693.77 283.821 Q1692.32 286.182 1690.14 287.316 Q1687.96 288.427 1684.82 288.427 Q1680.83 288.427 1678.47 286.205 Q1676.13 283.959 1676.13 280.209 Q1676.13 275.834 1679.05 273.612 Q1681.99 271.39 1687.8 271.39 L1693.77 271.39 L1693.77 270.973 Q1693.77 268.034 1691.83 266.436 Q1689.91 264.816 1686.41 264.816 Q1684.19 264.816 1682.08 265.348 Q1679.98 265.881 1678.03 266.946 L1678.03 263.01 Q1680.37 262.108 1682.57 261.668 Q1684.77 261.205 1686.85 261.205 Q1692.48 261.205 1695.25 264.122 Q1698.03 267.038 1698.03 272.964 Z" fill="#000000" fill-rule="nonzero" fill-opacity="1" /><path clip-path="url(#clip460)" d="M1723.33 262.594 L1723.33 266.622 Q1721.53 265.696 1719.58 265.233 Q1717.64 264.77 1715.56 264.77 Q1712.38 264.77 1710.79 265.742 Q1709.21 266.714 1709.21 268.659 Q1709.21 270.14 1710.35 270.997 Q1711.48 271.83 1714.91 272.594 L1716.37 272.918 Q1720.9 273.89 1722.8 275.672 Q1724.72 277.432 1724.72 280.603 Q1724.72 284.214 1721.85 286.321 Q1719 288.427 1714 288.427 Q1711.92 288.427 1709.65 288.01 Q1707.41 287.617 1704.91 286.807 L1704.91 282.409 Q1707.27 283.635 1709.56 284.26 Q1711.85 284.862 1714.1 284.862 Q1717.11 284.862 1718.73 283.844 Q1720.35 282.802 1720.35 280.927 Q1720.35 279.191 1719.17 278.265 Q1718.01 277.339 1714.05 276.483 L1712.57 276.135 Q1708.61 275.302 1706.85 273.589 Q1705.09 271.853 1705.09 268.844 Q1705.09 265.186 1707.69 263.196 Q1710.28 261.205 1715.05 261.205 Q1717.41 261.205 1719.49 261.552 Q1721.57 261.899 1723.33 262.594 Z" fill="#000000" fill-rule="nonzero" fill-opacity="1" /><path clip-path="url(#clip460)" d="M1753.68 273.728 L1753.68 275.811 L1734.1 275.811 Q1734.38 280.209 1736.74 282.524 Q1739.12 284.816 1743.36 284.816 Q1745.81 284.816 1748.1 284.214 Q1750.42 283.612 1752.69 282.409 L1752.69 286.436 Q1750.39 287.408 1747.99 287.918 Q1745.58 288.427 1743.1 288.427 Q1736.9 288.427 1733.26 284.816 Q1729.65 281.205 1729.65 275.047 Q1729.65 268.682 1733.08 264.955 Q1736.53 261.205 1742.36 261.205 Q1747.59 261.205 1750.63 264.585 Q1753.68 267.941 1753.68 273.728 M1749.42 272.478 Q1749.38 268.983 1747.45 266.899 Q1745.56 264.816 1742.41 264.816 Q1738.84 264.816 1736.69 266.83 Q1734.56 268.844 1734.24 272.501 L1749.42 272.478 Z" fill="#000000" fill-rule="nonzero" fill-opacity="1" /><path clip-path="url(#clip460)" d="M1780.6 271.251 L1780.6 283.913 L1788.1 283.913 Q1791.87 283.913 1793.68 282.362 Q1795.51 280.788 1795.51 277.571 Q1795.51 274.33 1793.68 272.802 Q1791.87 271.251 1788.1 271.251 L1780.6 271.251 M1780.6 257.038 L1780.6 267.455 L1787.52 267.455 Q1790.95 267.455 1792.62 266.182 Q1794.31 264.885 1794.31 262.247 Q1794.31 259.631 1792.62 258.335 Q1790.95 257.038 1787.52 257.038 L1780.6 257.038 M1775.93 253.196 L1787.87 253.196 Q1793.22 253.196 1796.11 255.418 Q1799 257.64 1799 261.737 Q1799 264.909 1797.52 266.784 Q1796.04 268.659 1793.17 269.122 Q1796.62 269.862 1798.52 272.223 Q1800.44 274.561 1800.44 278.08 Q1800.44 282.709 1797.29 285.233 Q1794.14 287.756 1788.33 287.756 L1775.93 287.756 L1775.93 253.196 Z" fill="#000000" fill-rule="nonzero" fill-opacity="1" /><path clip-path="url(#clip460)" d="M1809.35 281.876 L1814.24 281.876 L1814.24 287.756 L1809.35 287.756 L1809.35 281.876 M1809.35 263.242 L1814.24 263.242 L1814.24 269.122 L1809.35 269.122 L1809.35 263.242 Z" fill="#000000" fill-rule="nonzero" fill-opacity="1" /><path clip-path="url(#clip460)" d="M1843.43 283.867 L1843.43 297.617 L1839.14 297.617 L1839.14 261.83 L1843.43 261.83 L1843.43 265.765 Q1844.77 263.45 1846.81 262.339 Q1848.87 261.205 1851.71 261.205 Q1856.43 261.205 1859.37 264.955 Q1862.34 268.705 1862.34 274.816 Q1862.34 280.927 1859.37 284.677 Q1856.43 288.427 1851.71 288.427 Q1848.87 288.427 1846.81 287.316 Q1844.77 286.182 1843.43 283.867 M1857.92 274.816 Q1857.92 270.117 1855.97 267.455 Q1854.05 264.77 1850.67 264.77 Q1847.29 264.77 1845.35 267.455 Q1843.43 270.117 1843.43 274.816 Q1843.43 279.515 1845.35 282.2 Q1847.29 284.862 1850.67 284.862 Q1854.05 284.862 1855.97 282.2 Q1857.92 279.515 1857.92 274.816 Z" fill="#000000" fill-rule="nonzero" fill-opacity="1" /><path clip-path="url(#clip460)" d="M1884.42 265.811 Q1883.7 265.395 1882.85 265.21 Q1882.01 265.001 1880.99 265.001 Q1877.38 265.001 1875.44 267.362 Q1873.52 269.7 1873.52 274.098 L1873.52 287.756 L1869.24 287.756 L1869.24 261.83 L1873.52 261.83 L1873.52 265.858 Q1874.86 263.497 1877.01 262.362 Q1879.17 261.205 1882.24 261.205 Q1882.68 261.205 1883.22 261.274 Q1883.75 261.321 1884.4 261.436 L1884.42 265.811 Z" fill="#000000" fill-rule="nonzero" fill-opacity="1" /><path clip-path="url(#clip460)" d="M1910.02 273.728 L1910.02 275.811 L1890.44 275.811 Q1890.72 280.209 1893.08 282.524 Q1895.46 284.816 1899.7 284.816 Q1902.15 284.816 1904.44 284.214 Q1906.76 283.612 1909.03 282.409 L1909.03 286.436 Q1906.74 287.408 1904.33 287.918 Q1901.92 288.427 1899.44 288.427 Q1893.24 288.427 1889.61 284.816 Q1885.99 281.205 1885.99 275.047 Q1885.99 268.682 1889.42 264.955 Q1892.87 261.205 1898.7 261.205 Q1903.93 261.205 1906.97 264.585 Q1910.02 267.941 1910.02 273.728 M1905.76 272.478 Q1905.72 268.983 1903.8 266.899 Q1901.9 264.816 1898.75 264.816 Q1895.18 264.816 1893.03 266.83 Q1890.9 268.844 1890.58 272.501 L1905.76 272.478 Z" fill="#000000" fill-rule="nonzero" fill-opacity="1" /><path clip-path="url(#clip460)" d="M1933.54 262.594 L1933.54 266.622 Q1931.74 265.696 1929.79 265.233 Q1927.85 264.77 1925.76 264.77 Q1922.59 264.77 1920.99 265.742 Q1919.42 266.714 1919.42 268.659 Q1919.42 270.14 1920.55 270.997 Q1921.69 271.83 1925.11 272.594 L1926.57 272.918 Q1931.11 273.89 1933.01 275.672 Q1934.93 277.432 1934.93 280.603 Q1934.93 284.214 1932.06 286.321 Q1929.21 288.427 1924.21 288.427 Q1922.13 288.427 1919.86 288.01 Q1917.61 287.617 1915.11 286.807 L1915.11 282.409 Q1917.48 283.635 1919.77 284.26 Q1922.06 284.862 1924.3 284.862 Q1927.31 284.862 1928.93 283.844 Q1930.55 282.802 1930.55 280.927 Q1930.55 279.191 1929.37 278.265 Q1928.22 277.339 1924.26 276.483 L1922.78 276.135 Q1918.82 275.302 1917.06 273.589 Q1915.3 271.853 1915.3 268.844 Q1915.3 265.186 1917.89 263.196 Q1920.49 261.205 1925.25 261.205 Q1927.61 261.205 1929.7 261.552 Q1931.78 261.899 1933.54 262.594 Z" fill="#000000" fill-rule="nonzero" fill-opacity="1" /><path clip-path="url(#clip460)" d="M1960.37 262.825 L1960.37 266.807 Q1958.56 265.811 1956.74 265.325 Q1954.93 264.816 1953.08 264.816 Q1948.93 264.816 1946.64 267.455 Q1944.35 270.071 1944.35 274.816 Q1944.35 279.561 1946.64 282.2 Q1948.93 284.816 1953.08 284.816 Q1954.93 284.816 1956.74 284.33 Q1958.56 283.821 1960.37 282.825 L1960.37 286.76 Q1958.59 287.594 1956.67 288.01 Q1954.77 288.427 1952.61 288.427 Q1946.76 288.427 1943.31 284.746 Q1939.86 281.066 1939.86 274.816 Q1939.86 268.473 1943.33 264.839 Q1946.83 261.205 1952.89 261.205 Q1954.86 261.205 1956.74 261.622 Q1958.61 262.015 1960.37 262.825 Z" fill="#000000" fill-rule="nonzero" fill-opacity="1" /><path clip-path="url(#clip460)" d="M1982.8 265.811 Q1982.08 265.395 1981.23 265.21 Q1980.39 265.001 1979.37 265.001 Q1975.76 265.001 1973.82 267.362 Q1971.9 269.7 1971.9 274.098 L1971.9 287.756 L1967.61 287.756 L1967.61 261.83 L1971.9 261.83 L1971.9 265.858 Q1973.24 263.497 1975.39 262.362 Q1977.55 261.205 1980.62 261.205 Q1981.06 261.205 1981.6 261.274 Q1982.13 261.321 1982.78 261.436 L1982.8 265.811 Z" fill="#000000" fill-rule="nonzero" fill-opacity="1" /><path clip-path="url(#clip460)" d="M1987.27 261.83 L1991.53 261.83 L1991.53 287.756 L1987.27 287.756 L1987.27 261.83 M1987.27 251.737 L1991.53 251.737 L1991.53 257.131 L1987.27 257.131 L1987.27 251.737 Z" fill="#000000" fill-rule="nonzero" fill-opacity="1" /><path clip-path="url(#clip460)" d="M2019.05 274.816 Q2019.05 270.117 2017.11 267.455 Q2015.18 264.77 2011.8 264.77 Q2008.42 264.77 2006.48 267.455 Q2004.56 270.117 2004.56 274.816 Q2004.56 279.515 2006.48 282.2 Q2008.42 284.862 2011.8 284.862 Q2015.18 284.862 2017.11 282.2 Q2019.05 279.515 2019.05 274.816 M2004.56 265.765 Q2005.9 263.45 2007.94 262.339 Q2010 261.205 2012.85 261.205 Q2017.57 261.205 2020.51 264.955 Q2023.47 268.705 2023.47 274.816 Q2023.47 280.927 2020.51 284.677 Q2017.57 288.427 2012.85 288.427 Q2010 288.427 2007.94 287.316 Q2005.9 286.182 2004.56 283.867 L2004.56 287.756 L2000.28 287.756 L2000.28 251.737 L2004.56 251.737 L2004.56 265.765 Z" fill="#000000" fill-rule="nonzero" fill-opacity="1" /><path clip-path="url(#clip460)" d="M2052.71 273.728 L2052.71 275.811 L2033.12 275.811 Q2033.4 280.209 2035.76 282.524 Q2038.15 284.816 2042.38 284.816 Q2044.84 284.816 2047.13 284.214 Q2049.44 283.612 2051.71 282.409 L2051.71 286.436 Q2049.42 287.408 2047.01 287.918 Q2044.6 288.427 2042.13 288.427 Q2035.92 288.427 2032.29 284.816 Q2028.68 281.205 2028.68 275.047 Q2028.68 268.682 2032.11 264.955 Q2035.55 261.205 2041.39 261.205 Q2046.62 261.205 2049.65 264.585 Q2052.71 267.941 2052.71 273.728 M2048.45 272.478 Q2048.4 268.983 2046.48 266.899 Q2044.58 264.816 2041.43 264.816 Q2037.87 264.816 2035.72 266.83 Q2033.59 268.844 2033.26 272.501 L2048.45 272.478 Z" fill="#000000" fill-rule="nonzero" fill-opacity="1" /><path clip-path="url(#clip460)" d="M2076.76 265.765 L2076.76 251.737 L2081.02 251.737 L2081.02 287.756 L2076.76 287.756 L2076.76 283.867 Q2075.41 286.182 2073.35 287.316 Q2071.32 288.427 2068.45 288.427 Q2063.75 288.427 2060.79 284.677 Q2057.85 280.927 2057.85 274.816 Q2057.85 268.705 2060.79 264.955 Q2063.75 261.205 2068.45 261.205 Q2071.32 261.205 2073.35 262.339 Q2075.41 263.45 2076.76 265.765 M2062.24 274.816 Q2062.24 279.515 2064.17 282.2 Q2066.11 284.862 2069.49 284.862 Q2072.87 284.862 2074.81 282.2 Q2076.76 279.515 2076.76 274.816 Q2076.76 270.117 2074.81 267.455 Q2072.87 264.77 2069.49 264.77 Q2066.11 264.77 2064.17 267.455 Q2062.24 270.117 2062.24 274.816 Z" fill="#000000" fill-rule="nonzero" fill-opacity="1" /><path clip-path="url(#clip460)" d="M2104.7 251.737 L2108.98 251.737 L2108.98 273.01 L2121.69 261.83 L2127.13 261.83 L2113.38 273.959 L2127.71 287.756 L2122.15 287.756 L2108.98 275.094 L2108.98 287.756 L2104.7 287.756 L2104.7 251.737 Z" fill="#000000" fill-rule="nonzero" fill-opacity="1" /><path clip-path="url(#clip460)" d="M2153.86 272.108 L2153.86 287.756 L2149.6 287.756 L2149.6 272.247 Q2149.6 268.566 2148.17 266.737 Q2146.73 264.909 2143.86 264.909 Q2140.41 264.909 2138.42 267.108 Q2136.43 269.307 2136.43 273.103 L2136.43 287.756 L2132.15 287.756 L2132.15 261.83 L2136.43 261.83 L2136.43 265.858 Q2137.96 263.52 2140.02 262.362 Q2142.1 261.205 2144.81 261.205 Q2149.28 261.205 2151.57 263.983 Q2153.86 266.737 2153.86 272.108 Z" fill="#000000" fill-rule="nonzero" fill-opacity="1" /><path clip-path="url(#clip460)" d="M2172.41 264.816 Q2168.98 264.816 2166.99 267.501 Q2165 270.163 2165 274.816 Q2165 279.469 2166.97 282.154 Q2168.96 284.816 2172.41 284.816 Q2175.81 284.816 2177.8 282.131 Q2179.79 279.446 2179.79 274.816 Q2179.79 270.21 2177.8 267.524 Q2175.81 264.816 2172.41 264.816 M2172.41 261.205 Q2177.96 261.205 2181.13 264.816 Q2184.3 268.427 2184.3 274.816 Q2184.3 281.182 2181.13 284.816 Q2177.96 288.427 2172.41 288.427 Q2166.83 288.427 2163.66 284.816 Q2160.51 281.182 2160.51 274.816 Q2160.51 268.427 2163.66 264.816 Q2166.83 261.205 2172.41 261.205 Z" fill="#000000" fill-rule="nonzero" fill-opacity="1" /><path clip-path="url(#clip460)" d="M2209.97 274.816 Q2209.97 270.117 2208.03 267.455 Q2206.11 264.77 2202.73 264.77 Q2199.35 264.77 2197.41 267.455 Q2195.48 270.117 2195.48 274.816 Q2195.48 279.515 2197.41 282.2 Q2199.35 284.862 2202.73 284.862 Q2206.11 284.862 2208.03 282.2 Q2209.97 279.515 2209.97 274.816 M2195.48 265.765 Q2196.83 263.45 2198.86 262.339 Q2200.92 261.205 2203.77 261.205 Q2208.49 261.205 2211.43 264.955 Q2214.4 268.705 2214.4 274.816 Q2214.4 280.927 2211.43 284.677 Q2208.49 288.427 2203.77 288.427 Q2200.92 288.427 2198.86 287.316 Q2196.83 286.182 2195.48 283.867 L2195.48 287.756 L2191.2 287.756 L2191.2 251.737 L2195.48 251.737 L2195.48 265.765 Z" fill="#000000" fill-rule="nonzero" fill-opacity="1" /><path clip-path="url(#clip460)" d="M2258.08 261.83 L2248.7 274.446 L2258.56 287.756 L2253.54 287.756 L2245.99 277.571 L2238.45 287.756 L2233.42 287.756 L2243.49 274.191 L2234.28 261.83 L2239.3 261.83 L2246.18 271.066 L2253.05 261.83 L2258.08 261.83 Z" fill="#000000" fill-rule="nonzero" fill-opacity="1" /><polyline clip-path="url(#clip460)" style="stroke:#3da44d; stroke-linecap:round; stroke-linejoin:round; stroke-width:8; stroke-opacity:1; fill:none" points="1479.26,322.316 1619.48,322.316 "/>
<path clip-path="url(#clip460)" d="M1670.72 307.698 L1670.72 312.628 Q1668.36 310.429 1665.67 309.341 Q1663.01 308.253 1660 308.253 Q1654.07 308.253 1650.93 311.888 Q1647.78 315.499 1647.78 322.35 Q1647.78 329.179 1650.93 332.813 Q1654.07 336.424 1660 336.424 Q1663.01 336.424 1665.67 335.336 Q1668.36 334.249 1670.72 332.049 L1670.72 336.934 Q1668.26 338.6 1665.51 339.434 Q1662.78 340.267 1659.72 340.267 Q1651.88 340.267 1647.36 335.475 Q1642.85 330.661 1642.85 322.35 Q1642.85 314.017 1647.36 309.226 Q1651.88 304.411 1659.72 304.411 Q1662.82 304.411 1665.56 305.244 Q1668.31 306.054 1670.72 307.698 Z" fill="#000000" fill-rule="nonzero" fill-opacity="1" /><path clip-path="url(#clip460)" d="M1689.54 326.563 Q1684.38 326.563 1682.38 327.744 Q1680.39 328.924 1680.39 331.772 Q1680.39 334.04 1681.88 335.383 Q1683.38 336.702 1685.95 336.702 Q1689.49 336.702 1691.62 334.202 Q1693.77 331.679 1693.77 327.512 L1693.77 326.563 L1689.54 326.563 M1698.03 324.804 L1698.03 339.596 L1693.77 339.596 L1693.77 335.661 Q1692.32 338.022 1690.14 339.156 Q1687.96 340.267 1684.82 340.267 Q1680.83 340.267 1678.47 338.045 Q1676.13 335.799 1676.13 332.049 Q1676.13 327.674 1679.05 325.452 Q1681.99 323.23 1687.8 323.23 L1693.77 323.23 L1693.77 322.813 Q1693.77 319.874 1691.83 318.276 Q1689.91 316.656 1686.41 316.656 Q1684.19 316.656 1682.08 317.188 Q1679.98 317.721 1678.03 318.786 L1678.03 314.85 Q1680.37 313.948 1682.57 313.508 Q1684.77 313.045 1686.85 313.045 Q1692.48 313.045 1695.25 315.962 Q1698.03 318.878 1698.03 324.804 Z" fill="#000000" fill-rule="nonzero" fill-opacity="1" /><path clip-path="url(#clip460)" d="M1723.33 314.434 L1723.33 318.462 Q1721.53 317.536 1719.58 317.073 Q1717.64 316.61 1715.56 316.61 Q1712.38 316.61 1710.79 317.582 Q1709.21 318.554 1709.21 320.499 Q1709.21 321.98 1710.35 322.837 Q1711.48 323.67 1714.91 324.434 L1716.37 324.758 Q1720.9 325.73 1722.8 327.512 Q1724.72 329.272 1724.72 332.443 Q1724.72 336.054 1721.85 338.161 Q1719 340.267 1714 340.267 Q1711.92 340.267 1709.65 339.85 Q1707.41 339.457 1704.91 338.647 L1704.91 334.249 Q1707.27 335.475 1709.56 336.1 Q1711.85 336.702 1714.1 336.702 Q1717.11 336.702 1718.73 335.684 Q1720.35 334.642 1720.35 332.767 Q1720.35 331.031 1719.17 330.105 Q1718.01 329.179 1714.05 328.323 L1712.57 327.975 Q1708.61 327.142 1706.85 325.429 Q1705.09 323.693 1705.09 320.684 Q1705.09 317.026 1707.69 315.036 Q1710.28 313.045 1715.05 313.045 Q1717.41 313.045 1719.49 313.392 Q1721.57 313.739 1723.33 314.434 Z" fill="#000000" fill-rule="nonzero" fill-opacity="1" /><path clip-path="url(#clip460)" d="M1753.68 325.568 L1753.68 327.651 L1734.1 327.651 Q1734.38 332.049 1736.74 334.364 Q1739.12 336.656 1743.36 336.656 Q1745.81 336.656 1748.1 336.054 Q1750.42 335.452 1752.69 334.249 L1752.69 338.276 Q1750.39 339.248 1747.99 339.758 Q1745.58 340.267 1743.1 340.267 Q1736.9 340.267 1733.26 336.656 Q1729.65 333.045 1729.65 326.887 Q1729.65 320.522 1733.08 316.795 Q1736.53 313.045 1742.36 313.045 Q1747.59 313.045 1750.63 316.425 Q1753.68 319.781 1753.68 325.568 M1749.42 324.318 Q1749.38 320.823 1747.45 318.739 Q1745.56 316.656 1742.41 316.656 Q1738.84 316.656 1736.69 318.67 Q1734.56 320.684 1734.24 324.341 L1749.42 324.318 Z" fill="#000000" fill-rule="nonzero" fill-opacity="1" /><path clip-path="url(#clip460)" d="M1801.81 307.698 L1801.81 312.628 Q1799.44 310.429 1796.76 309.341 Q1794.1 308.253 1791.09 308.253 Q1785.16 308.253 1782.01 311.888 Q1778.87 315.499 1778.87 322.35 Q1778.87 329.179 1782.01 332.813 Q1785.16 336.424 1791.09 336.424 Q1794.1 336.424 1796.76 335.336 Q1799.44 334.249 1801.81 332.049 L1801.81 336.934 Q1799.35 338.6 1796.6 339.434 Q1793.87 340.267 1790.81 340.267 Q1782.96 340.267 1778.45 335.475 Q1773.94 330.661 1773.94 322.35 Q1773.94 314.017 1778.45 309.226 Q1782.96 304.411 1790.81 304.411 Q1793.91 304.411 1796.64 305.244 Q1799.4 306.054 1801.81 307.698 Z" fill="#000000" fill-rule="nonzero" fill-opacity="1" /><path clip-path="url(#clip460)" d="M1809.93 333.716 L1814.81 333.716 L1814.81 339.596 L1809.93 339.596 L1809.93 333.716 M1809.93 315.082 L1814.81 315.082 L1814.81 320.962 L1809.93 320.962 L1809.93 315.082 Z" fill="#000000" fill-rule="nonzero" fill-opacity="1" /><path clip-path="url(#clip460)" d="M1844 335.707 L1844 349.457 L1839.72 349.457 L1839.72 313.67 L1844 313.67 L1844 317.605 Q1845.35 315.29 1847.38 314.179 Q1849.44 313.045 1852.29 313.045 Q1857.01 313.045 1859.95 316.795 Q1862.92 320.545 1862.92 326.656 Q1862.92 332.767 1859.95 336.517 Q1857.01 340.267 1852.29 340.267 Q1849.44 340.267 1847.38 339.156 Q1845.35 338.022 1844 335.707 M1858.49 326.656 Q1858.49 321.957 1856.55 319.295 Q1854.63 316.61 1851.25 316.61 Q1847.87 316.61 1845.93 319.295 Q1844 321.957 1844 326.656 Q1844 331.355 1845.93 334.04 Q1847.87 336.702 1851.25 336.702 Q1854.63 336.702 1856.55 334.04 Q1858.49 331.355 1858.49 326.656 Z" fill="#000000" fill-rule="nonzero" fill-opacity="1" /><path clip-path="url(#clip460)" d="M1885 317.651 Q1884.28 317.235 1883.43 317.05 Q1882.59 316.841 1881.57 316.841 Q1877.96 316.841 1876.02 319.202 Q1874.1 321.54 1874.1 325.938 L1874.1 339.596 L1869.81 339.596 L1869.81 313.67 L1874.1 313.67 L1874.1 317.698 Q1875.44 315.337 1877.59 314.202 Q1879.74 313.045 1882.82 313.045 Q1883.26 313.045 1883.8 313.114 Q1884.33 313.161 1884.98 313.276 L1885 317.651 Z" fill="#000000" fill-rule="nonzero" fill-opacity="1" /><path clip-path="url(#clip460)" d="M1910.6 325.568 L1910.6 327.651 L1891.02 327.651 Q1891.3 332.049 1893.66 334.364 Q1896.04 336.656 1900.28 336.656 Q1902.73 336.656 1905.02 336.054 Q1907.34 335.452 1909.61 334.249 L1909.61 338.276 Q1907.31 339.248 1904.91 339.758 Q1902.5 340.267 1900.02 340.267 Q1893.82 340.267 1890.18 336.656 Q1886.57 333.045 1886.57 326.887 Q1886.57 320.522 1890 316.795 Q1893.45 313.045 1899.28 313.045 Q1904.51 313.045 1907.55 316.425 Q1910.6 319.781 1910.6 325.568 M1906.34 324.318 Q1906.3 320.823 1904.37 318.739 Q1902.48 316.656 1899.33 316.656 Q1895.76 316.656 1893.61 318.67 Q1891.48 320.684 1891.16 324.341 L1906.34 324.318 Z" fill="#000000" fill-rule="nonzero" fill-opacity="1" /><path clip-path="url(#clip460)" d="M1934.12 314.434 L1934.12 318.462 Q1932.31 317.536 1930.37 317.073 Q1928.43 316.61 1926.34 316.61 Q1923.17 316.61 1921.57 317.582 Q1920 318.554 1920 320.499 Q1920 321.98 1921.13 322.837 Q1922.27 323.67 1925.69 324.434 L1927.15 324.758 Q1931.69 325.73 1933.59 327.512 Q1935.51 329.272 1935.51 332.443 Q1935.51 336.054 1932.64 338.161 Q1929.79 340.267 1924.79 340.267 Q1922.71 340.267 1920.44 339.85 Q1918.19 339.457 1915.69 338.647 L1915.69 334.249 Q1918.05 335.475 1920.35 336.1 Q1922.64 336.702 1924.88 336.702 Q1927.89 336.702 1929.51 335.684 Q1931.13 334.642 1931.13 332.767 Q1931.13 331.031 1929.95 330.105 Q1928.8 329.179 1924.84 328.323 L1923.36 327.975 Q1919.4 327.142 1917.64 325.429 Q1915.88 323.693 1915.88 320.684 Q1915.88 317.026 1918.47 315.036 Q1921.06 313.045 1925.83 313.045 Q1928.19 313.045 1930.28 313.392 Q1932.36 313.739 1934.12 314.434 Z" fill="#000000" fill-rule="nonzero" fill-opacity="1" /><path clip-path="url(#clip460)" d="M1960.95 314.665 L1960.95 318.647 Q1959.14 317.651 1957.31 317.165 Q1955.51 316.656 1953.66 316.656 Q1949.51 316.656 1947.22 319.295 Q1944.93 321.911 1944.93 326.656 Q1944.93 331.401 1947.22 334.04 Q1949.51 336.656 1953.66 336.656 Q1955.51 336.656 1957.31 336.17 Q1959.14 335.661 1960.95 334.665 L1960.95 338.6 Q1959.17 339.434 1957.24 339.85 Q1955.35 340.267 1953.19 340.267 Q1947.34 340.267 1943.89 336.586 Q1940.44 332.906 1940.44 326.656 Q1940.44 320.313 1943.91 316.679 Q1947.41 313.045 1953.47 313.045 Q1955.44 313.045 1957.31 313.462 Q1959.19 313.855 1960.95 314.665 Z" fill="#000000" fill-rule="nonzero" fill-opacity="1" /><path clip-path="url(#clip460)" d="M1983.38 317.651 Q1982.66 317.235 1981.8 317.05 Q1980.97 316.841 1979.95 316.841 Q1976.34 316.841 1974.4 319.202 Q1972.48 321.54 1972.48 325.938 L1972.48 339.596 L1968.19 339.596 L1968.19 313.67 L1972.48 313.67 L1972.48 317.698 Q1973.82 315.337 1975.97 314.202 Q1978.12 313.045 1981.2 313.045 Q1981.64 313.045 1982.17 313.114 Q1982.71 313.161 1983.36 313.276 L1983.38 317.651 Z" fill="#000000" fill-rule="nonzero" fill-opacity="1" /><path clip-path="url(#clip460)" d="M1987.85 313.67 L1992.11 313.67 L1992.11 339.596 L1987.85 339.596 L1987.85 313.67 M1987.85 303.577 L1992.11 303.577 L1992.11 308.971 L1987.85 308.971 L1987.85 303.577 Z" fill="#000000" fill-rule="nonzero" fill-opacity="1" /><path clip-path="url(#clip460)" d="M2019.63 326.656 Q2019.63 321.957 2017.68 319.295 Q2015.76 316.61 2012.38 316.61 Q2009 316.61 2007.06 319.295 Q2005.14 321.957 2005.14 326.656 Q2005.14 331.355 2007.06 334.04 Q2009 336.702 2012.38 336.702 Q2015.76 336.702 2017.68 334.04 Q2019.63 331.355 2019.63 326.656 M2005.14 317.605 Q2006.48 315.29 2008.52 314.179 Q2010.58 313.045 2013.42 313.045 Q2018.15 313.045 2021.09 316.795 Q2024.05 320.545 2024.05 326.656 Q2024.05 332.767 2021.09 336.517 Q2018.15 340.267 2013.42 340.267 Q2010.58 340.267 2008.52 339.156 Q2006.48 338.022 2005.14 335.707 L2005.14 339.596 L2000.86 339.596 L2000.86 303.577 L2005.14 303.577 L2005.14 317.605 Z" fill="#000000" fill-rule="nonzero" fill-opacity="1" /><path clip-path="url(#clip460)" d="M2053.29 325.568 L2053.29 327.651 L2033.7 327.651 Q2033.98 332.049 2036.34 334.364 Q2038.73 336.656 2042.96 336.656 Q2045.42 336.656 2047.71 336.054 Q2050.02 335.452 2052.29 334.249 L2052.29 338.276 Q2050 339.248 2047.59 339.758 Q2045.18 340.267 2042.71 340.267 Q2036.5 340.267 2032.87 336.656 Q2029.26 333.045 2029.26 326.887 Q2029.26 320.522 2032.68 316.795 Q2036.13 313.045 2041.97 313.045 Q2047.2 313.045 2050.23 316.425 Q2053.29 319.781 2053.29 325.568 M2049.03 324.318 Q2048.98 320.823 2047.06 318.739 Q2045.16 316.656 2042.01 316.656 Q2038.45 316.656 2036.29 318.67 Q2034.17 320.684 2033.84 324.341 L2049.03 324.318 Z" fill="#000000" fill-rule="nonzero" fill-opacity="1" /><path clip-path="url(#clip460)" d="M2077.34 317.605 L2077.34 303.577 L2081.6 303.577 L2081.6 339.596 L2077.34 339.596 L2077.34 335.707 Q2075.99 338.022 2073.93 339.156 Q2071.9 340.267 2069.03 340.267 Q2064.33 340.267 2061.36 336.517 Q2058.42 332.767 2058.42 326.656 Q2058.42 320.545 2061.36 316.795 Q2064.33 313.045 2069.03 313.045 Q2071.9 313.045 2073.93 314.179 Q2075.99 315.29 2077.34 317.605 M2062.82 326.656 Q2062.82 331.355 2064.74 334.04 Q2066.69 336.702 2070.07 336.702 Q2073.45 336.702 2075.39 334.04 Q2077.34 331.355 2077.34 326.656 Q2077.34 321.957 2075.39 319.295 Q2073.45 316.61 2070.07 316.61 Q2066.69 316.61 2064.74 319.295 Q2062.82 321.957 2062.82 326.656 Z" fill="#000000" fill-rule="nonzero" fill-opacity="1" /><path clip-path="url(#clip460)" d="M2105.28 303.577 L2109.56 303.577 L2109.56 324.85 L2122.27 313.67 L2127.71 313.67 L2113.96 325.799 L2128.29 339.596 L2122.73 339.596 L2109.56 326.934 L2109.56 339.596 L2105.28 339.596 L2105.28 303.577 Z" fill="#000000" fill-rule="nonzero" fill-opacity="1" /><path clip-path="url(#clip460)" d="M2154.44 323.948 L2154.44 339.596 L2150.18 339.596 L2150.18 324.087 Q2150.18 320.406 2148.75 318.577 Q2147.31 316.749 2144.44 316.749 Q2140.99 316.749 2139 318.948 Q2137.01 321.147 2137.01 324.943 L2137.01 339.596 L2132.73 339.596 L2132.73 313.67 L2137.01 313.67 L2137.01 317.698 Q2138.54 315.36 2140.6 314.202 Q2142.68 313.045 2145.39 313.045 Q2149.86 313.045 2152.15 315.823 Q2154.44 318.577 2154.44 323.948 Z" fill="#000000" fill-rule="nonzero" fill-opacity="1" /><path clip-path="url(#clip460)" d="M2172.98 316.656 Q2169.56 316.656 2167.57 319.341 Q2165.58 322.003 2165.58 326.656 Q2165.58 331.309 2167.54 333.994 Q2169.53 336.656 2172.98 336.656 Q2176.39 336.656 2178.38 333.971 Q2180.37 331.286 2180.37 326.656 Q2180.37 322.05 2178.38 319.364 Q2176.39 316.656 2172.98 316.656 M2172.98 313.045 Q2178.54 313.045 2181.71 316.656 Q2184.88 320.267 2184.88 326.656 Q2184.88 333.022 2181.71 336.656 Q2178.54 340.267 2172.98 340.267 Q2167.41 340.267 2164.23 336.656 Q2161.09 333.022 2161.09 326.656 Q2161.09 320.267 2164.23 316.656 Q2167.41 313.045 2172.98 313.045 Z" fill="#000000" fill-rule="nonzero" fill-opacity="1" /><path clip-path="url(#clip460)" d="M2210.55 326.656 Q2210.55 321.957 2208.61 319.295 Q2206.69 316.61 2203.31 316.61 Q2199.93 316.61 2197.98 319.295 Q2196.06 321.957 2196.06 326.656 Q2196.06 331.355 2197.98 334.04 Q2199.93 336.702 2203.31 336.702 Q2206.69 336.702 2208.61 334.04 Q2210.55 331.355 2210.55 326.656 M2196.06 317.605 Q2197.41 315.29 2199.44 314.179 Q2201.5 313.045 2204.35 313.045 Q2209.07 313.045 2212.01 316.795 Q2214.97 320.545 2214.97 326.656 Q2214.97 332.767 2212.01 336.517 Q2209.07 340.267 2204.35 340.267 Q2201.5 340.267 2199.44 339.156 Q2197.41 338.022 2196.06 335.707 L2196.06 339.596 L2191.78 339.596 L2191.78 303.577 L2196.06 303.577 L2196.06 317.605 Z" fill="#000000" fill-rule="nonzero" fill-opacity="1" /><path clip-path="url(#clip460)" d="M2247.89 342.003 Q2246.09 346.633 2244.37 348.045 Q2242.66 349.457 2239.79 349.457 L2236.39 349.457 L2236.39 345.892 L2238.89 345.892 Q2240.65 345.892 2241.62 345.059 Q2242.59 344.225 2243.77 341.123 L2244.53 339.179 L2234.05 313.67 L2238.56 313.67 L2246.66 333.948 L2254.77 313.67 L2259.28 313.67 L2247.89 342.003 Z" fill="#000000" fill-rule="nonzero" fill-opacity="1" /><circle clip-path="url(#clip460)" cx="1549.37" cy="374.156" r="21.2677" fill="#c271d2" fill-rule="evenodd" fill-opacity="1" stroke="#000000" stroke-opacity="1" stroke-width="3.15077"/>
<path clip-path="url(#clip460)" d="M1664.56 375.788 L1664.56 391.436 L1660.3 391.436 L1660.3 375.927 Q1660.3 372.246 1658.87 370.417 Q1657.43 368.589 1654.56 368.589 Q1651.11 368.589 1649.12 370.788 Q1647.13 372.987 1647.13 376.783 L1647.13 391.436 L1642.85 391.436 L1642.85 355.417 L1647.13 355.417 L1647.13 369.538 Q1648.66 367.2 1650.72 366.042 Q1652.8 364.885 1655.51 364.885 Q1659.98 364.885 1662.27 367.663 Q1664.56 370.417 1664.56 375.788 Z" fill="#000000" fill-rule="nonzero" fill-opacity="1" /><path clip-path="url(#clip460)" d="M1673.06 365.51 L1677.32 365.51 L1677.32 391.436 L1673.06 391.436 L1673.06 365.51 M1673.06 355.417 L1677.32 355.417 L1677.32 360.811 L1673.06 360.811 L1673.06 355.417 Z" fill="#000000" fill-rule="nonzero" fill-opacity="1" /><path clip-path="url(#clip460)" d="M1707.78 375.788 L1707.78 391.436 L1703.52 391.436 L1703.52 375.927 Q1703.52 372.246 1702.08 370.417 Q1700.65 368.589 1697.78 368.589 Q1694.33 368.589 1692.34 370.788 Q1690.35 372.987 1690.35 376.783 L1690.35 391.436 L1686.07 391.436 L1686.07 365.51 L1690.35 365.51 L1690.35 369.538 Q1691.88 367.2 1693.94 366.042 Q1696.02 364.885 1698.73 364.885 Q1703.19 364.885 1705.49 367.663 Q1707.78 370.417 1707.78 375.788 Z" fill="#000000" fill-rule="nonzero" fill-opacity="1" /><path clip-path="url(#clip460)" d="M1733.33 378.172 Q1733.33 373.542 1731.41 370.996 Q1729.51 368.45 1726.06 368.45 Q1722.64 368.45 1720.72 370.996 Q1718.82 373.542 1718.82 378.172 Q1718.82 382.778 1720.72 385.325 Q1722.64 387.871 1726.06 387.871 Q1729.51 387.871 1731.41 385.325 Q1733.33 382.778 1733.33 378.172 M1737.59 388.218 Q1737.59 394.838 1734.65 398.056 Q1731.71 401.297 1725.65 401.297 Q1723.4 401.297 1721.41 400.95 Q1719.42 400.625 1717.55 399.931 L1717.55 395.788 Q1719.42 396.806 1721.25 397.292 Q1723.08 397.778 1724.98 397.778 Q1729.17 397.778 1731.25 395.579 Q1733.33 393.403 1733.33 388.982 L1733.33 386.876 Q1732.01 389.167 1729.95 390.301 Q1727.89 391.436 1725.02 391.436 Q1720.25 391.436 1717.34 387.801 Q1714.42 384.167 1714.42 378.172 Q1714.42 372.153 1717.34 368.519 Q1720.25 364.885 1725.02 364.885 Q1727.89 364.885 1729.95 366.019 Q1732.01 367.153 1733.33 369.445 L1733.33 365.51 L1737.59 365.51 L1737.59 388.218 Z" fill="#000000" fill-rule="nonzero" fill-opacity="1" /><path clip-path="url(#clip460)" d="M1768.54 377.408 L1768.54 379.491 L1748.96 379.491 Q1749.24 383.889 1751.6 386.204 Q1753.98 388.496 1758.22 388.496 Q1760.67 388.496 1762.96 387.894 Q1765.28 387.292 1767.55 386.089 L1767.55 390.116 Q1765.25 391.088 1762.85 391.598 Q1760.44 392.107 1757.96 392.107 Q1751.76 392.107 1748.13 388.496 Q1744.51 384.885 1744.51 378.727 Q1744.51 372.362 1747.94 368.635 Q1751.39 364.885 1757.22 364.885 Q1762.45 364.885 1765.49 368.265 Q1768.54 371.621 1768.54 377.408 M1764.28 376.158 Q1764.24 372.663 1762.31 370.579 Q1760.42 368.496 1757.27 368.496 Q1753.7 368.496 1751.55 370.51 Q1749.42 372.524 1749.1 376.181 L1764.28 376.158 Z" fill="#000000" fill-rule="nonzero" fill-opacity="1" /></svg>
