<?xml version="1.0" encoding="utf-8"?>
<svg xmlns="http://www.w3.org/2000/svg" xmlns:xlink="http://www.w3.org/1999/xlink" width="600" height="400" viewBox="0 0 2400 1600">
<defs>
  <clipPath id="clip840">
    <rect x="0" y="0" width="2400" height="1600"/>
  </clipPath>
</defs>
<path clip-path="url(#clip840)" d="M0 1600 L2400 1600 L2400 0 L0 0  Z" fill="#ffffff" fill-rule="evenodd" fill-opacity="1"/>
<defs>
  <clipPath id="clip841">
    <rect x="235" y="902" width="1601" height="540"/>
  </clipPath>
</defs>
<path clip-path="url(#clip840)" d="M280.487 1423.18 L2352.76 1423.18 L2352.76 123.472 L280.487 123.472  Z" fill="#ffffff" fill-rule="evenodd" fill-opacity="1"/>
<defs>
  <clipPath id="clip842">
    <rect x="280" y="123" width="2073" height="1301"/>
  </clipPath>
</defs>
<polyline clip-path="url(#clip842)" style="stroke:#000000; stroke-linecap:round; stroke-linejoin:round; stroke-width:2; stroke-opacity:0.1; fill:none" points="280.487,753.04 2352.76,753.04 "/>
<polyline clip-path="url(#clip840)" style="stroke:#000000; stroke-linecap:round; stroke-linejoin:round; stroke-width:4; stroke-opacity:1; fill:none" points="280.487,753.04 2352.76,753.04 "/>
<path clip-path="url(#clip840)" d="M301.439 783.958 Q297.828 783.958 295.999 787.523 Q294.194 791.065 294.194 798.194 Q294.194 805.301 295.999 808.866 Q297.828 812.407 301.439 812.407 Q305.073 812.407 306.879 808.866 Q308.708 805.301 308.708 798.194 Q308.708 791.065 306.879 787.523 Q305.073 783.958 301.439 783.958 M301.439 780.255 Q307.249 780.255 310.305 784.861 Q313.384 789.444 313.384 798.194 Q313.384 806.921 310.305 811.528 Q307.249 816.111 301.439 816.111 Q295.629 816.111 292.55 811.528 Q289.495 806.921 289.495 798.194 Q289.495 789.444 292.55 784.861 Q295.629 780.255 301.439 780.255 Z" fill="#000000" fill-rule="nonzero" fill-opacity="1" /><path clip-path="url(#clip840)" d="M321.601 809.56 L326.485 809.56 L326.485 815.44 L321.601 815.44 L321.601 809.56 Z" fill="#000000" fill-rule="nonzero" fill-opacity="1" /><path clip-path="url(#clip840)" d="M346.67 783.958 Q343.059 783.958 341.231 787.523 Q339.425 791.065 339.425 798.194 Q339.425 805.301 341.231 808.866 Q343.059 812.407 346.67 812.407 Q350.305 812.407 352.11 808.866 Q353.939 805.301 353.939 798.194 Q353.939 791.065 352.11 787.523 Q350.305 783.958 346.67 783.958 M346.67 780.255 Q352.481 780.255 355.536 784.861 Q358.615 789.444 358.615 798.194 Q358.615 806.921 355.536 811.528 Q352.481 816.111 346.67 816.111 Q340.86 816.111 337.782 811.528 Q334.726 806.921 334.726 798.194 Q334.726 789.444 337.782 784.861 Q340.86 780.255 346.67 780.255 Z" fill="#000000" fill-rule="nonzero" fill-opacity="1" /><path clip-path="url(#clip840)" d="M376.832 783.958 Q373.221 783.958 371.393 787.523 Q369.587 791.065 369.587 798.194 Q369.587 805.301 371.393 808.866 Q373.221 812.407 376.832 812.407 Q380.467 812.407 382.272 808.866 Q384.101 805.301 384.101 798.194 Q384.101 791.065 382.272 787.523 Q380.467 783.958 376.832 783.958 M376.832 780.255 Q382.642 780.255 385.698 784.861 Q388.777 789.444 388.777 798.194 Q388.777 806.921 385.698 811.528 Q382.642 816.111 376.832 816.111 Q371.022 816.111 367.943 811.528 Q364.888 806.921 364.888 798.194 Q364.888 789.444 367.943 784.861 Q371.022 780.255 376.832 780.255 Z" fill="#000000" fill-rule="nonzero" fill-opacity="1" /><path clip-path="url(#clip840)" d="M768.768 783.958 Q765.156 783.958 763.328 787.523 Q761.522 791.065 761.522 798.194 Q761.522 805.301 763.328 808.866 Q765.156 812.407 768.768 812.407 Q772.402 812.407 774.207 808.866 Q776.036 805.301 776.036 798.194 Q776.036 791.065 774.207 787.523 Q772.402 783.958 768.768 783.958 M768.768 780.255 Q774.578 780.255 777.633 784.861 Q780.712 789.444 780.712 798.194 Q780.712 806.921 777.633 811.528 Q774.578 816.111 768.768 816.111 Q762.957 816.111 759.879 811.528 Q756.823 806.921 756.823 798.194 Q756.823 789.444 759.879 784.861 Q762.957 780.255 768.768 780.255 Z" fill="#000000" fill-rule="nonzero" fill-opacity="1" /><path clip-path="url(#clip840)" d="M788.929 809.56 L793.814 809.56 L793.814 815.44 L788.929 815.44 L788.929 809.56 Z" fill="#000000" fill-rule="nonzero" fill-opacity="1" /><path clip-path="url(#clip840)" d="M813.999 783.958 Q810.388 783.958 808.559 787.523 Q806.753 791.065 806.753 798.194 Q806.753 805.301 808.559 808.866 Q810.388 812.407 813.999 812.407 Q817.633 812.407 819.439 808.866 Q821.267 805.301 821.267 798.194 Q821.267 791.065 819.439 787.523 Q817.633 783.958 813.999 783.958 M813.999 780.255 Q819.809 780.255 822.864 784.861 Q825.943 789.444 825.943 798.194 Q825.943 806.921 822.864 811.528 Q819.809 816.111 813.999 816.111 Q808.189 816.111 805.11 811.528 Q802.054 806.921 802.054 798.194 Q802.054 789.444 805.11 784.861 Q808.189 780.255 813.999 780.255 Z" fill="#000000" fill-rule="nonzero" fill-opacity="1" /><path clip-path="url(#clip840)" d="M834.971 811.504 L842.61 811.504 L842.61 785.139 L834.3 786.806 L834.3 782.546 L842.563 780.88 L847.239 780.88 L847.239 811.504 L854.878 811.504 L854.878 815.44 L834.971 815.44 L834.971 811.504 Z" fill="#000000" fill-rule="nonzero" fill-opacity="1" /><path clip-path="url(#clip840)" d="M1235.67 783.958 Q1232.06 783.958 1230.23 787.523 Q1228.42 791.065 1228.42 798.194 Q1228.42 805.301 1230.23 808.866 Q1232.06 812.407 1235.67 812.407 Q1239.3 812.407 1241.11 808.866 Q1242.94 805.301 1242.94 798.194 Q1242.94 791.065 1241.11 787.523 Q1239.3 783.958 1235.67 783.958 M1235.67 780.255 Q1241.48 780.255 1244.53 784.861 Q1247.61 789.444 1247.61 798.194 Q1247.61 806.921 1244.53 811.528 Q1241.48 816.111 1235.67 816.111 Q1229.86 816.111 1226.78 811.528 Q1223.72 806.921 1223.72 798.194 Q1223.72 789.444 1226.78 784.861 Q1229.86 780.255 1235.67 780.255 Z" fill="#000000" fill-rule="nonzero" fill-opacity="1" /><path clip-path="url(#clip840)" d="M1255.83 809.56 L1260.71 809.56 L1260.71 815.44 L1255.83 815.44 L1255.83 809.56 Z" fill="#000000" fill-rule="nonzero" fill-opacity="1" /><path clip-path="url(#clip840)" d="M1280.9 783.958 Q1277.29 783.958 1275.46 787.523 Q1273.65 791.065 1273.65 798.194 Q1273.65 805.301 1275.46 808.866 Q1277.29 812.407 1280.9 812.407 Q1284.53 812.407 1286.34 808.866 Q1288.17 805.301 1288.17 798.194 Q1288.17 791.065 1286.34 787.523 Q1284.53 783.958 1280.9 783.958 M1280.9 780.255 Q1286.71 780.255 1289.76 784.861 Q1292.84 789.444 1292.84 798.194 Q1292.84 806.921 1289.76 811.528 Q1286.71 816.111 1280.9 816.111 Q1275.09 816.111 1272.01 811.528 Q1268.95 806.921 1268.95 798.194 Q1268.95 789.444 1272.01 784.861 Q1275.09 780.255 1280.9 780.255 Z" fill="#000000" fill-rule="nonzero" fill-opacity="1" /><path clip-path="url(#clip840)" d="M1305.09 811.504 L1321.41 811.504 L1321.41 815.44 L1299.46 815.44 L1299.46 811.504 Q1302.13 808.75 1306.71 804.12 Q1311.32 799.467 1312.5 798.125 Q1314.74 795.602 1315.62 793.866 Q1316.52 792.106 1316.52 790.417 Q1316.52 787.662 1314.58 785.926 Q1312.66 784.19 1309.56 784.19 Q1307.36 784.19 1304.9 784.954 Q1302.47 785.718 1299.7 787.268 L1299.7 782.546 Q1302.52 781.412 1304.97 780.833 Q1307.43 780.255 1309.46 780.255 Q1314.83 780.255 1318.03 782.94 Q1321.22 785.625 1321.22 790.116 Q1321.22 792.245 1320.41 794.167 Q1319.63 796.065 1317.52 798.657 Q1316.94 799.329 1313.84 802.546 Q1310.74 805.741 1305.09 811.504 Z" fill="#000000" fill-rule="nonzero" fill-opacity="1" /><path clip-path="url(#clip840)" d="M1701.91 783.958 Q1698.3 783.958 1696.47 787.523 Q1694.66 791.065 1694.66 798.194 Q1694.66 805.301 1696.47 808.866 Q1698.3 812.407 1701.91 812.407 Q1705.54 812.407 1707.35 808.866 Q1709.18 805.301 1709.18 798.194 Q1709.18 791.065 1707.35 787.523 Q1705.54 783.958 1701.91 783.958 M1701.91 780.255 Q1707.72 780.255 1710.77 784.861 Q1713.85 789.444 1713.85 798.194 Q1713.85 806.921 1710.77 811.528 Q1707.72 816.111 1701.91 816.111 Q1696.1 816.111 1693.02 811.528 Q1689.96 806.921 1689.96 798.194 Q1689.96 789.444 1693.02 784.861 Q1696.1 780.255 1701.91 780.255 Z" fill="#000000" fill-rule="nonzero" fill-opacity="1" /><path clip-path="url(#clip840)" d="M1722.07 809.56 L1726.95 809.56 L1726.95 815.44 L1722.07 815.44 L1722.07 809.56 Z" fill="#000000" fill-rule="nonzero" fill-opacity="1" /><path clip-path="url(#clip840)" d="M1747.14 783.958 Q1743.53 783.958 1741.7 787.523 Q1739.89 791.065 1739.89 798.194 Q1739.89 805.301 1741.7 808.866 Q1743.53 812.407 1747.14 812.407 Q1750.77 812.407 1752.58 808.866 Q1754.41 805.301 1754.41 798.194 Q1754.41 791.065 1752.58 787.523 Q1750.77 783.958 1747.14 783.958 M1747.14 780.255 Q1752.95 780.255 1756.01 784.861 Q1759.08 789.444 1759.08 798.194 Q1759.08 806.921 1756.01 811.528 Q1752.95 816.111 1747.14 816.111 Q1741.33 816.111 1738.25 811.528 Q1735.19 806.921 1735.19 798.194 Q1735.19 789.444 1738.25 784.861 Q1741.33 780.255 1747.14 780.255 Z" fill="#000000" fill-rule="nonzero" fill-opacity="1" /><path clip-path="url(#clip840)" d="M1781.47 796.805 Q1784.82 797.523 1786.7 799.792 Q1788.6 802.06 1788.6 805.393 Q1788.6 810.509 1785.08 813.31 Q1781.56 816.111 1775.08 816.111 Q1772.9 816.111 1770.59 815.671 Q1768.3 815.254 1765.84 814.398 L1765.84 809.884 Q1767.79 811.018 1770.1 811.597 Q1772.42 812.176 1774.94 812.176 Q1779.34 812.176 1781.63 810.44 Q1783.94 808.704 1783.94 805.393 Q1783.94 802.338 1781.79 800.625 Q1779.66 798.889 1775.84 798.889 L1771.82 798.889 L1771.82 795.046 L1776.03 795.046 Q1779.48 795.046 1781.31 793.68 Q1783.13 792.292 1783.13 789.699 Q1783.13 787.037 1781.24 785.625 Q1779.36 784.19 1775.84 784.19 Q1773.92 784.19 1771.72 784.606 Q1769.52 785.023 1766.88 785.903 L1766.88 781.736 Q1769.55 780.995 1771.86 780.625 Q1774.2 780.255 1776.26 780.255 Q1781.58 780.255 1784.69 782.685 Q1787.79 785.093 1787.79 789.213 Q1787.79 792.083 1786.14 794.074 Q1784.5 796.042 1781.47 796.805 Z" fill="#000000" fill-rule="nonzero" fill-opacity="1" /><path clip-path="url(#clip840)" d="M2168.06 783.958 Q2164.44 783.958 2162.62 787.523 Q2160.81 791.065 2160.81 798.194 Q2160.81 805.301 2162.62 808.866 Q2164.44 812.407 2168.06 812.407 Q2171.69 812.407 2173.5 808.866 Q2175.32 805.301 2175.32 798.194 Q2175.32 791.065 2173.5 787.523 Q2171.69 783.958 2168.06 783.958 M2168.06 780.255 Q2173.87 780.255 2176.92 784.861 Q2180 789.444 2180 798.194 Q2180 806.921 2176.92 811.528 Q2173.87 816.111 2168.06 816.111 Q2162.25 816.111 2159.17 811.528 Q2156.11 806.921 2156.11 798.194 Q2156.11 789.444 2159.17 784.861 Q2162.25 780.255 2168.06 780.255 Z" fill="#000000" fill-rule="nonzero" fill-opacity="1" /><path clip-path="url(#clip840)" d="M2188.22 809.56 L2193.1 809.56 L2193.1 815.44 L2188.22 815.44 L2188.22 809.56 Z" fill="#000000" fill-rule="nonzero" fill-opacity="1" /><path clip-path="url(#clip840)" d="M2213.29 783.958 Q2209.68 783.958 2207.85 787.523 Q2206.04 791.065 2206.04 798.194 Q2206.04 805.301 2207.85 808.866 Q2209.68 812.407 2213.29 812.407 Q2216.92 812.407 2218.73 808.866 Q2220.56 805.301 2220.56 798.194 Q2220.56 791.065 2218.73 787.523 Q2216.92 783.958 2213.29 783.958 M2213.29 780.255 Q2219.1 780.255 2222.15 784.861 Q2225.23 789.444 2225.23 798.194 Q2225.23 806.921 2222.15 811.528 Q2219.1 816.111 2213.29 816.111 Q2207.48 816.111 2204.4 811.528 Q2201.34 806.921 2201.34 798.194 Q2201.34 789.444 2204.4 784.861 Q2207.48 780.255 2213.29 780.255 Z" fill="#000000" fill-rule="nonzero" fill-opacity="1" /><path clip-path="url(#clip840)" d="M2246.3 784.954 L2234.49 803.403 L2246.3 803.403 L2246.3 784.954 M2245.07 780.88 L2250.95 780.88 L2250.95 803.403 L2255.88 803.403 L2255.88 807.292 L2250.95 807.292 L2250.95 815.44 L2246.3 815.44 L2246.3 807.292 L2230.69 807.292 L2230.69 802.778 L2245.07 780.88 Z" fill="#000000" fill-rule="nonzero" fill-opacity="1" /><path clip-path="url(#clip840)" d="M1186.79 1520.52 L1226.99 1520.52 L1226.99 1525.93 L1210.12 1525.93 L1210.12 1568.04 L1203.66 1568.04 L1203.66 1525.93 L1186.79 1525.93 L1186.79 1520.52 Z" fill="#000000" fill-rule="nonzero" fill-opacity="1" /><path clip-path="url(#clip840)" d="M1230.94 1532.4 L1236.8 1532.4 L1236.8 1568.04 L1230.94 1568.04 L1230.94 1532.4 M1230.94 1518.52 L1236.8 1518.52 L1236.8 1525.93 L1230.94 1525.93 L1230.94 1518.52 Z" fill="#000000" fill-rule="nonzero" fill-opacity="1" /><path clip-path="url(#clip840)" d="M1276.8 1539.24 Q1279 1535.29 1282.06 1533.41 Q1285.11 1531.54 1289.25 1531.54 Q1294.82 1531.54 1297.84 1535.45 Q1300.87 1539.33 1300.87 1546.53 L1300.87 1568.04 L1294.98 1568.04 L1294.98 1546.72 Q1294.98 1541.59 1293.16 1539.11 Q1291.35 1536.63 1287.63 1536.63 Q1283.07 1536.63 1280.43 1539.65 Q1277.79 1542.68 1277.79 1547.9 L1277.79 1568.04 L1271.9 1568.04 L1271.9 1546.72 Q1271.9 1541.56 1270.09 1539.11 Q1268.27 1536.63 1264.49 1536.63 Q1260 1536.63 1257.36 1539.68 Q1254.71 1542.71 1254.71 1547.9 L1254.71 1568.04 L1248.83 1568.04 L1248.83 1532.4 L1254.71 1532.4 L1254.71 1537.93 Q1256.72 1534.66 1259.52 1533.1 Q1262.32 1531.54 1266.17 1531.54 Q1270.06 1531.54 1272.76 1533.51 Q1275.5 1535.48 1276.8 1539.24 Z" fill="#000000" fill-rule="nonzero" fill-opacity="1" /><path clip-path="url(#clip840)" d="M1343.04 1548.76 L1343.04 1551.62 L1316.11 1551.62 Q1316.49 1557.67 1319.74 1560.85 Q1323.02 1564 1328.84 1564 Q1332.22 1564 1335.37 1563.17 Q1338.55 1562.35 1341.67 1560.69 L1341.67 1566.23 Q1338.52 1567.57 1335.21 1568.27 Q1331.9 1568.97 1328.49 1568.97 Q1319.96 1568.97 1314.97 1564 Q1310 1559.04 1310 1550.57 Q1310 1541.82 1314.71 1536.69 Q1319.45 1531.54 1327.47 1531.54 Q1334.67 1531.54 1338.84 1536.18 Q1343.04 1540.8 1343.04 1548.76 M1337.18 1547.04 Q1337.12 1542.23 1334.48 1539.37 Q1331.87 1536.5 1327.54 1536.5 Q1322.64 1536.5 1319.68 1539.27 Q1316.75 1542.04 1316.3 1547.07 L1337.18 1547.04 Z" fill="#000000" fill-rule="nonzero" fill-opacity="1" /><path clip-path="url(#clip840)" d="M1387.44 1518.58 Q1383.17 1525.9 1381.11 1533.06 Q1379.04 1540.23 1379.04 1547.58 Q1379.04 1554.93 1381.11 1562.16 Q1383.21 1569.35 1387.44 1576.64 L1382.35 1576.64 Q1377.57 1569.16 1375.19 1561.93 Q1372.83 1554.71 1372.83 1547.58 Q1372.83 1540.48 1375.19 1533.29 Q1377.54 1526.09 1382.35 1518.58 L1387.44 1518.58 Z" fill="#000000" fill-rule="nonzero" fill-opacity="1" /><path clip-path="url(#clip840)" d="M1421.53 1533.45 L1421.53 1538.98 Q1419.05 1537.71 1416.37 1537.07 Q1413.7 1536.44 1410.83 1536.44 Q1406.47 1536.44 1404.28 1537.77 Q1402.11 1539.11 1402.11 1541.79 Q1402.11 1543.82 1403.67 1545 Q1405.23 1546.15 1409.94 1547.2 L1411.95 1547.64 Q1418.19 1548.98 1420.8 1551.43 Q1423.44 1553.85 1423.44 1558.21 Q1423.44 1563.17 1419.49 1566.07 Q1415.58 1568.97 1408.7 1568.97 Q1405.84 1568.97 1402.72 1568.39 Q1399.63 1567.85 1396.19 1566.74 L1396.19 1560.69 Q1399.44 1562.38 1402.59 1563.24 Q1405.74 1564.07 1408.83 1564.07 Q1412.97 1564.07 1415.19 1562.66 Q1417.42 1561.23 1417.42 1558.65 Q1417.42 1556.27 1415.8 1554.99 Q1414.21 1553.72 1408.76 1552.54 L1406.73 1552.07 Q1401.29 1550.92 1398.87 1548.56 Q1396.45 1546.18 1396.45 1542.04 Q1396.45 1537.01 1400.01 1534.27 Q1403.58 1531.54 1410.13 1531.54 Q1413.38 1531.54 1416.24 1532.01 Q1419.11 1532.49 1421.53 1533.45 Z" fill="#000000" fill-rule="nonzero" fill-opacity="1" /><path clip-path="url(#clip840)" d="M1431.84 1518.58 L1436.93 1518.58 Q1441.71 1526.09 1444.06 1533.29 Q1446.45 1540.48 1446.45 1547.58 Q1446.45 1554.71 1444.06 1561.93 Q1441.71 1569.16 1436.93 1576.64 L1431.84 1576.64 Q1436.07 1569.35 1438.14 1562.16 Q1440.24 1554.93 1440.24 1547.58 Q1440.24 1540.23 1438.14 1533.06 Q1436.07 1525.9 1431.84 1518.58 Z" fill="#000000" fill-rule="nonzero" fill-opacity="1" /><polyline clip-path="url(#clip840)" style="stroke:#000000; stroke-linecap:round; stroke-linejoin:round; stroke-width:4; stroke-opacity:1; fill:none" points="280.487,753.04 299.384,753.04 "/>
<path clip-path="url(#clip840)" d="M114.931 772.832 L122.57 772.832 L122.57 746.466 L114.26 748.133 L114.26 743.874 L122.524 742.207 L127.2 742.207 L127.2 772.832 L134.839 772.832 L134.839 776.767 L114.931 776.767 L114.931 772.832 Z" fill="#000000" fill-rule="nonzero" fill-opacity="1" /><path clip-path="url(#clip840)" d="M154.283 745.286 Q150.672 745.286 148.843 748.851 Q147.038 752.392 147.038 759.522 Q147.038 766.628 148.843 770.193 Q150.672 773.735 154.283 773.735 Q157.917 773.735 159.723 770.193 Q161.552 766.628 161.552 759.522 Q161.552 752.392 159.723 748.851 Q157.917 745.286 154.283 745.286 M154.283 741.582 Q160.093 741.582 163.149 746.189 Q166.227 750.772 166.227 759.522 Q166.227 768.249 163.149 772.855 Q160.093 777.439 154.283 777.439 Q148.473 777.439 145.394 772.855 Q142.339 768.249 142.339 759.522 Q142.339 750.772 145.394 746.189 Q148.473 741.582 154.283 741.582 Z" fill="#000000" fill-rule="nonzero" fill-opacity="1" /><path clip-path="url(#clip840)" d="M166.227 735.684 L190.339 735.684 L190.339 738.881 L166.227 738.881 L166.227 735.684 Z" fill="#000000" fill-rule="nonzero" fill-opacity="1" /><path clip-path="url(#clip840)" d="M198.201 721.277 L202 721.277 L202 749.357 L198.201 749.357 L198.201 721.277 Z" fill="#000000" fill-rule="nonzero" fill-opacity="1" /><path clip-path="url(#clip840)" d="M226.92 736.643 L226.92 749.357 L223.46 749.357 L223.46 736.756 Q223.46 733.765 222.293 732.279 Q221.127 730.794 218.795 730.794 Q215.993 730.794 214.375 732.58 Q212.758 734.367 212.758 737.451 L212.758 749.357 L209.278 749.357 L209.278 728.292 L212.758 728.292 L212.758 731.565 Q213.999 729.665 215.673 728.725 Q217.366 727.784 219.566 727.784 Q223.196 727.784 225.058 730.041 Q226.92 732.279 226.92 736.643 Z" fill="#000000" fill-rule="nonzero" fill-opacity="1" /><path clip-path="url(#clip840)" d="M244.487 720.092 L244.487 722.97 L241.176 722.97 Q239.314 722.97 238.581 723.722 Q237.866 724.474 237.866 726.43 L237.866 728.292 L243.565 728.292 L243.565 730.982 L237.866 730.982 L237.866 749.357 L234.387 749.357 L234.387 730.982 L231.077 730.982 L231.077 728.292 L234.387 728.292 L234.387 726.825 Q234.387 723.308 236.023 721.709 Q237.659 720.092 241.214 720.092 L244.487 720.092 Z" fill="#000000" fill-rule="nonzero" fill-opacity="1" /><path clip-path="url(#clip840)" d="Mnan nan Lnan nan Lnan nan Lnan nan Lnan nan Lnan nan Lnan nan Lnan nan Lnan nan Lnan nan Lnan nan Lnan nan Z" fill="#000000" fill-rule="nonzero" fill-opacity="1" /><path clip-path="url(#clip840)" d="Mnan nan Qnan nan nan nan Qnan nan nan nan Qnan nan nan nan Qnan nan nan nan Qnan nan nan nan Qnan nan nan nan Qnan nan nan nan Qnan nan nan nan Mnan nan Qnan nan nan nan Qnan nan nan nan Qnan nan nan nan Qnan nan nan nan Qnan nan nan nan Qnan nan nan nan Qnan nan nan nan Qnan nan nan nan Z" fill="#000000" fill-rule="nonzero" fill-opacity="1" /><path clip-path="url(#clip840)" d="Mnan nan Lnan nan Lnan nan Lnan nan Lnan nan Lnan nan Lnan nan Lnan nan Lnan nan Lnan nan Lnan nan Z" fill="#000000" fill-rule="nonzero" fill-opacity="1" /><path clip-path="url(#clip840)" d="Mnan nan Qnan nan nan nan Qnan nan nan nan Qnan nan nan nan Qnan nan nan nan Qnan nan nan nan Qnan nan nan nan Lnan nan Lnan nan Mnan nan Lnan nan Lnan nan Lnan nan Qnan nan nan nan Qnan nan nan nan Qnan nan nan nan Qnan nan nan nan Qnan nan nan nan Qnan nan nan nan Lnan nan Lnan nan Qnan nan nan nan Qnan nan nan nan Qnan nan nan nan Qnan nan nan nan Lnan nan Qnan nan nan nan Qnan nan nan nan Qnan nan nan nan Qnan nan nan nan Z" fill="#000000" fill-rule="nonzero" fill-opacity="1" /><path clip-path="url(#clip840)" d="Mnan nan Lnan nan Lnan nan Lnan nan Lnan nan Lnan nan Lnan nan Lnan nan Lnan nan Lnan nan Lnan nan Z" fill="#000000" fill-rule="nonzero" fill-opacity="1" /><path clip-path="url(#clip840)" d="M14.1925 895.579 L79.3773 895.579 L79.3773 900.99 L14.1925 900.99 L14.1925 895.579 Z" fill="#000000" fill-rule="nonzero" fill-opacity="1" /><path clip-path="url(#clip840)" d="M14.1925 873.618 L79.3773 873.618 L79.3773 879.029 L14.1925 879.029 L14.1925 873.618 Z" fill="#000000" fill-rule="nonzero" fill-opacity="1" /><path clip-path="url(#clip840)" d="M20.1444 823.36 L26.9239 823.36 Q23.9002 826.607 22.4043 830.299 Q20.9083 833.959 20.9083 838.097 Q20.9083 846.245 25.9054 850.574 Q30.8707 854.903 40.2919 854.903 Q49.6813 854.903 54.6784 850.574 Q59.6436 846.245 59.6436 838.097 Q59.6436 833.959 58.1477 830.299 Q56.6518 826.607 53.6281 823.36 L60.3439 823.36 Q62.6355 826.734 63.7814 830.522 Q64.9272 834.278 64.9272 838.479 Q64.9272 849.269 58.3387 855.475 Q51.7183 861.682 40.2919 861.682 Q28.8336 861.682 22.2451 855.475 Q15.6248 849.269 15.6248 838.479 Q15.6248 834.214 16.7706 830.458 Q17.8846 826.671 20.1444 823.36 Z" fill="#000000" fill-rule="nonzero" fill-opacity="1" /><path clip-path="url(#clip840)" d="M14.5426 799.616 Q21.8632 803.881 29.0246 805.95 Q36.186 808.019 43.5384 808.019 Q50.8908 808.019 58.1159 805.95 Q65.3091 803.85 72.5979 799.616 L72.5979 804.709 Q65.1182 809.483 57.8931 811.87 Q50.668 814.226 43.5384 814.226 Q36.4406 814.226 29.2474 811.87 Q22.0542 809.515 14.5426 804.709 L14.5426 799.616 Z" fill="#000000" fill-rule="nonzero" fill-opacity="1" /><path clip-path="url(#clip840)" d="M46.212 784.752 Q52.6732 784.752 56.3653 782.111 Q60.0256 779.437 60.0256 774.79 Q60.0256 770.143 56.3653 767.47 Q52.6732 764.796 46.212 764.796 Q39.7508 764.796 36.0905 767.47 Q32.3984 770.143 32.3984 774.79 Q32.3984 779.437 36.0905 782.111 Q39.7508 784.752 46.212 784.752 M58.657 764.796 Q61.8398 766.642 63.3994 769.475 Q64.9272 772.276 64.9272 776.222 Q64.9272 782.684 59.771 786.758 Q54.6147 790.8 46.212 790.8 Q37.8093 790.8 32.6531 786.758 Q27.4968 782.684 27.4968 776.222 Q27.4968 772.276 29.0564 769.475 Q30.5842 766.642 33.7671 764.796 L28.3562 764.796 L28.3562 758.939 L77.5631 758.939 L77.5631 764.796 L58.657 764.796 Z" fill="#000000" fill-rule="nonzero" fill-opacity="1" /><path clip-path="url(#clip840)" d="M55.9197 745.381 L55.9197 738.665 L61.3942 738.665 L71.5793 743.885 L71.5793 747.99 L61.3942 745.381 L55.9197 745.381 Z" fill="#000000" fill-rule="nonzero" fill-opacity="1" /><path clip-path="url(#clip840)" d="M18.2347 720.363 L28.3562 720.363 L28.3562 708.3 L32.9077 708.3 L32.9077 720.363 L52.2594 720.363 Q56.6199 720.363 57.8613 719.186 Q59.1026 717.976 59.1026 714.316 L59.1026 708.3 L64.0042 708.3 L64.0042 714.316 Q64.0042 721.095 61.4897 723.673 Q58.9434 726.252 52.2594 726.252 L32.9077 726.252 L32.9077 730.548 L28.3562 730.548 L28.3562 726.252 L18.2347 726.252 L18.2347 720.363 Z" fill="#000000" fill-rule="nonzero" fill-opacity="1" /><path clip-path="url(#clip840)" d="M14.5426 701.521 L14.5426 696.428 Q22.0542 691.654 29.2474 689.299 Q36.4406 686.912 43.5384 686.912 Q50.668 686.912 57.8931 689.299 Q65.1182 691.654 72.5979 696.428 L72.5979 701.521 Q65.3091 697.288 58.1159 695.219 Q50.8908 693.118 43.5384 693.118 Q36.186 693.118 29.0246 695.219 Q21.8632 697.288 14.5426 701.521 Z" fill="#000000" fill-rule="nonzero" fill-opacity="1" /><path clip-path="url(#clip840)" d="M14.1925 667.623 L79.3773 667.623 L79.3773 673.034 L14.1925 673.034 L14.1925 667.623 Z" fill="#000000" fill-rule="nonzero" fill-opacity="1" /><path clip-path="url(#clip840)" d="M14.1925 645.662 L79.3773 645.662 L79.3773 651.073 L14.1925 651.073 L14.1925 645.662 Z" fill="#000000" fill-rule="nonzero" fill-opacity="1" /><path clip-path="url(#clip840)" d="M823.626 16.7545 L823.626 25.383 Q819.494 21.5346 814.795 19.6307 Q810.137 17.7268 804.871 17.7268 Q794.5 17.7268 788.991 24.0867 Q783.482 30.4061 783.482 42.3968 Q783.482 54.3469 788.991 60.7069 Q794.5 67.0263 804.871 67.0263 Q810.137 67.0263 814.795 65.1223 Q819.494 63.2184 823.626 59.3701 L823.626 67.9175 Q819.332 70.8341 814.512 72.2924 Q809.732 73.7508 804.384 73.7508 Q790.652 73.7508 782.753 65.3654 Q774.853 56.9395 774.853 42.3968 Q774.853 27.8135 782.753 19.4281 Q790.652 11.0023 804.384 11.0023 Q809.813 11.0023 814.593 12.4606 Q819.413 13.8784 823.626 16.7545 Z" fill="#000000" fill-rule="nonzero" fill-opacity="1" /><path clip-path="url(#clip840)" d="M853.522 32.4315 Q847.527 32.4315 844.043 37.1306 Q840.559 41.7891 840.559 49.9314 Q840.559 58.0738 844.002 62.7728 Q847.486 67.4314 853.522 67.4314 Q859.477 67.4314 862.96 62.7323 Q866.444 58.0333 866.444 49.9314 Q866.444 41.8701 862.96 37.1711 Q859.477 32.4315 853.522 32.4315 M853.522 26.1121 Q863.244 26.1121 868.794 32.4315 Q874.344 38.7509 874.344 49.9314 Q874.344 61.0714 868.794 67.4314 Q863.244 73.7508 853.522 73.7508 Q843.759 73.7508 838.209 67.4314 Q832.7 61.0714 832.7 49.9314 Q832.7 38.7509 838.209 32.4315 Q843.759 26.1121 853.522 26.1121 Z" fill="#000000" fill-rule="nonzero" fill-opacity="1" /><path clip-path="url(#clip840)" d="M924.413 45.1919 L924.413 72.576 L916.959 72.576 L916.959 45.4349 Q916.959 38.994 914.447 35.7938 Q911.936 32.5936 906.913 32.5936 Q900.877 32.5936 897.393 36.4419 Q893.909 40.2903 893.909 46.9338 L893.909 72.576 L886.415 72.576 L886.415 27.2059 L893.909 27.2059 L893.909 34.2544 Q896.583 30.163 900.188 28.1376 Q903.834 26.1121 908.574 26.1121 Q916.392 26.1121 920.402 30.9732 Q924.413 35.7938 924.413 45.1919 Z" fill="#000000" fill-rule="nonzero" fill-opacity="1" /><path clip-path="url(#clip840)" d="M968.203 28.5427 L968.203 35.5912 Q965.043 33.9709 961.641 33.1607 Q958.238 32.3505 954.592 32.3505 Q949.042 32.3505 946.247 34.0519 Q943.492 35.7533 943.492 39.156 Q943.492 41.7486 945.477 43.2475 Q947.462 44.7058 953.458 46.0426 L956.01 46.6097 Q963.95 48.3111 967.271 51.4303 Q970.634 54.509 970.634 60.0587 Q970.634 66.3781 965.61 70.0644 Q960.628 73.7508 951.878 73.7508 Q948.232 73.7508 944.262 73.0216 Q940.333 72.3329 935.958 70.9151 L935.958 63.2184 Q940.09 65.3654 944.1 66.4591 Q948.11 67.5124 952.04 67.5124 Q957.306 67.5124 960.142 65.73 Q962.977 63.9071 962.977 60.6258 Q962.977 57.5877 960.911 55.9673 Q958.886 54.3469 951.959 52.8481 L949.366 52.2405 Q942.439 50.7821 939.361 47.7845 Q936.282 44.7463 936.282 39.4801 Q936.282 33.0797 940.819 29.5959 Q945.356 26.1121 953.701 26.1121 Q957.833 26.1121 961.478 26.7198 Q965.124 27.3274 968.203 28.5427 Z" fill="#000000" fill-rule="nonzero" fill-opacity="1" /><path clip-path="url(#clip840)" d="M989.875 14.324 L989.875 27.2059 L1005.23 27.2059 L1005.23 32.9987 L989.875 32.9987 L989.875 57.6282 Q989.875 63.1779 991.374 64.7578 Q992.913 66.3376 997.572 66.3376 L1005.23 66.3376 L1005.23 72.576 L997.572 72.576 Q988.944 72.576 985.662 69.3758 Q982.381 66.1351 982.381 57.6282 L982.381 32.9987 L976.912 32.9987 L976.912 27.2059 L982.381 27.2059 L982.381 14.324 L989.875 14.324 Z" fill="#000000" fill-rule="nonzero" fill-opacity="1" /><path clip-path="url(#clip840)" d="M1041.32 34.1734 Q1040.07 33.4443 1038.57 33.1202 Q1037.11 32.7556 1035.33 32.7556 Q1029.01 32.7556 1025.6 36.8875 Q1022.24 40.9789 1022.24 48.6757 L1022.24 72.576 L1014.75 72.576 L1014.75 27.2059 L1022.24 27.2059 L1022.24 34.2544 Q1024.59 30.1225 1028.36 28.1376 Q1032.13 26.1121 1037.51 26.1121 Q1038.28 26.1121 1039.22 26.2337 Q1040.15 26.3147 1041.28 26.5172 L1041.32 34.1734 Z" fill="#000000" fill-rule="nonzero" fill-opacity="1" /><path clip-path="url(#clip840)" d="M1069.76 49.7694 Q1060.73 49.7694 1057.24 51.8354 Q1053.76 53.9013 1053.76 58.8839 Q1053.76 62.8538 1056.35 65.2034 Q1058.98 67.5124 1063.48 67.5124 Q1069.68 67.5124 1073.4 63.1374 Q1077.17 58.7219 1077.17 51.4303 L1077.17 49.7694 L1069.76 49.7694 M1084.63 46.6907 L1084.63 72.576 L1077.17 72.576 L1077.17 65.6895 Q1074.62 69.8214 1070.81 71.8063 Q1067 73.7508 1061.5 73.7508 Q1054.53 73.7508 1050.4 69.8619 Q1046.3 65.9325 1046.3 59.3701 Q1046.3 51.7138 1051.41 47.825 Q1056.55 43.9361 1066.72 43.9361 L1077.17 43.9361 L1077.17 43.2069 Q1077.17 38.0623 1073.77 35.2672 Q1070.41 32.4315 1064.29 32.4315 Q1060.4 32.4315 1056.72 33.3632 Q1053.03 34.295 1049.63 36.1584 L1049.63 29.2718 Q1053.72 27.692 1057.57 26.9223 Q1061.41 26.1121 1065.06 26.1121 Q1074.9 26.1121 1079.76 31.2163 Q1084.63 36.3204 1084.63 46.6907 Z" fill="#000000" fill-rule="nonzero" fill-opacity="1" /><path clip-path="url(#clip840)" d="M1099.98 27.2059 L1107.43 27.2059 L1107.43 72.576 L1099.98 72.576 L1099.98 27.2059 M1099.98 9.54393 L1107.43 9.54393 L1107.43 18.9825 L1099.98 18.9825 L1099.98 9.54393 Z" fill="#000000" fill-rule="nonzero" fill-opacity="1" /><path clip-path="url(#clip840)" d="M1160.74 45.1919 L1160.74 72.576 L1153.29 72.576 L1153.29 45.4349 Q1153.29 38.994 1150.78 35.7938 Q1148.27 32.5936 1143.24 32.5936 Q1137.21 32.5936 1133.72 36.4419 Q1130.24 40.2903 1130.24 46.9338 L1130.24 72.576 L1122.74 72.576 L1122.74 27.2059 L1130.24 27.2059 L1130.24 34.2544 Q1132.91 30.163 1136.52 28.1376 Q1140.16 26.1121 1144.9 26.1121 Q1152.72 26.1121 1156.73 30.9732 Q1160.74 35.7938 1160.74 45.1919 Z" fill="#000000" fill-rule="nonzero" fill-opacity="1" /><path clip-path="url(#clip840)" d="M1182.98 14.324 L1182.98 27.2059 L1198.33 27.2059 L1198.33 32.9987 L1182.98 32.9987 L1182.98 57.6282 Q1182.98 63.1779 1184.48 64.7578 Q1186.02 66.3376 1190.68 66.3376 L1198.33 66.3376 L1198.33 72.576 L1190.68 72.576 Q1182.05 72.576 1178.77 69.3758 Q1175.49 66.1351 1175.49 57.6282 L1175.49 32.9987 L1170.02 32.9987 L1170.02 27.2059 L1175.49 27.2059 L1175.49 14.324 L1182.98 14.324 Z" fill="#000000" fill-rule="nonzero" fill-opacity="1" /><path clip-path="url(#clip840)" d="M1263.51 44.2197 Q1266.15 45.1109 1268.62 48.0275 Q1271.13 50.9442 1273.64 56.0483 L1281.95 72.576 L1273.16 72.576 L1265.42 57.061 Q1262.42 50.9847 1259.58 48.9997 Q1256.79 47.0148 1251.93 47.0148 L1243.02 47.0148 L1243.02 72.576 L1234.83 72.576 L1234.83 12.096 L1253.31 12.096 Q1263.68 12.096 1268.78 16.4305 Q1273.88 20.7649 1273.88 29.5149 Q1273.88 35.2267 1271.21 38.994 Q1268.58 42.7613 1263.51 44.2197 M1243.02 18.8205 L1243.02 40.2903 L1253.31 40.2903 Q1259.22 40.2903 1262.22 37.5762 Q1265.26 34.8216 1265.26 29.5149 Q1265.26 24.2082 1262.22 21.5346 Q1259.22 18.8205 1253.31 18.8205 L1243.02 18.8205 Z" fill="#000000" fill-rule="nonzero" fill-opacity="1" /><path clip-path="url(#clip840)" d="M1327.23 48.0275 L1327.23 51.6733 L1292.96 51.6733 Q1293.45 59.3701 1297.58 63.421 Q1301.75 67.4314 1309.17 67.4314 Q1313.46 67.4314 1317.47 66.3781 Q1321.52 65.3249 1325.49 63.2184 L1325.49 70.267 Q1321.48 71.9684 1317.27 72.8596 Q1313.06 73.7508 1308.72 73.7508 Q1297.87 73.7508 1291.51 67.4314 Q1285.19 61.1119 1285.19 50.3365 Q1285.19 39.1965 1291.18 32.6746 Q1297.22 26.1121 1307.43 26.1121 Q1316.58 26.1121 1321.89 32.0264 Q1327.23 37.9003 1327.23 48.0275 M1319.78 45.84 Q1319.7 39.7232 1316.34 36.0774 Q1313.02 32.4315 1307.51 32.4315 Q1301.27 32.4315 1297.5 35.9558 Q1293.77 39.4801 1293.21 45.8805 L1319.78 45.84 Z" fill="#000000" fill-rule="nonzero" fill-opacity="1" /><path clip-path="url(#clip840)" d="M1368.39 28.5427 L1368.39 35.5912 Q1365.23 33.9709 1361.83 33.1607 Q1358.43 32.3505 1354.78 32.3505 Q1349.23 32.3505 1346.44 34.0519 Q1343.68 35.7533 1343.68 39.156 Q1343.68 41.7486 1345.67 43.2475 Q1347.65 44.7058 1353.65 46.0426 L1356.2 46.6097 Q1364.14 48.3111 1367.46 51.4303 Q1370.82 54.509 1370.82 60.0587 Q1370.82 66.3781 1365.8 70.0644 Q1360.82 73.7508 1352.07 73.7508 Q1348.42 73.7508 1344.45 73.0216 Q1340.52 72.3329 1336.15 70.9151 L1336.15 63.2184 Q1340.28 65.3654 1344.29 66.4591 Q1348.3 67.5124 1352.23 67.5124 Q1357.49 67.5124 1360.33 65.73 Q1363.17 63.9071 1363.17 60.6258 Q1363.17 57.5877 1361.1 55.9673 Q1359.07 54.3469 1352.15 52.8481 L1349.56 52.2405 Q1342.63 50.7821 1339.55 47.7845 Q1336.47 44.7463 1336.47 39.4801 Q1336.47 33.0797 1341.01 29.5959 Q1345.54 26.1121 1353.89 26.1121 Q1358.02 26.1121 1361.67 26.7198 Q1365.31 27.3274 1368.39 28.5427 Z" fill="#000000" fill-rule="nonzero" fill-opacity="1" /><path clip-path="url(#clip840)" d="M1382.69 27.2059 L1390.15 27.2059 L1390.15 72.576 L1382.69 72.576 L1382.69 27.2059 M1382.69 9.54393 L1390.15 9.54393 L1390.15 18.9825 L1382.69 18.9825 L1382.69 9.54393 Z" fill="#000000" fill-rule="nonzero" fill-opacity="1" /><path clip-path="url(#clip840)" d="M1435.6 34.0924 L1435.6 9.54393 L1443.05 9.54393 L1443.05 72.576 L1435.6 72.576 L1435.6 65.7705 Q1433.25 69.8214 1429.64 71.8063 Q1426.08 73.7508 1421.05 73.7508 Q1412.83 73.7508 1407.65 67.1883 Q1402.5 60.6258 1402.5 49.9314 Q1402.5 39.2371 1407.65 32.6746 Q1412.83 26.1121 1421.05 26.1121 Q1426.08 26.1121 1429.64 28.0971 Q1433.25 30.0415 1435.6 34.0924 M1410.2 49.9314 Q1410.2 58.1548 1413.56 62.8538 Q1416.96 67.5124 1422.88 67.5124 Q1428.79 67.5124 1432.19 62.8538 Q1435.6 58.1548 1435.6 49.9314 Q1435.6 41.7081 1432.19 37.0496 Q1428.79 32.3505 1422.88 32.3505 Q1416.96 32.3505 1413.56 37.0496 Q1410.2 41.7081 1410.2 49.9314 Z" fill="#000000" fill-rule="nonzero" fill-opacity="1" /><path clip-path="url(#clip840)" d="M1457.63 54.671 L1457.63 27.2059 L1465.09 27.2059 L1465.09 54.3874 Q1465.09 60.8284 1467.6 64.0691 Q1470.11 67.2693 1475.13 67.2693 Q1481.17 67.2693 1484.65 63.421 Q1488.18 59.5726 1488.18 52.9291 L1488.18 27.2059 L1495.63 27.2059 L1495.63 72.576 L1488.18 72.576 L1488.18 65.6084 Q1485.46 69.7404 1481.86 71.7658 Q1478.29 73.7508 1473.55 73.7508 Q1465.74 73.7508 1461.68 68.8897 Q1457.63 64.0286 1457.63 54.671 M1476.39 26.1121 L1476.39 26.1121 Z" fill="#000000" fill-rule="nonzero" fill-opacity="1" /><path clip-path="url(#clip840)" d="M1531.6 49.7694 Q1522.57 49.7694 1519.09 51.8354 Q1515.6 53.9013 1515.6 58.8839 Q1515.6 62.8538 1518.19 65.2034 Q1520.83 67.5124 1525.32 67.5124 Q1531.52 67.5124 1535.25 63.1374 Q1539.02 58.7219 1539.02 51.4303 L1539.02 49.7694 L1531.6 49.7694 M1546.47 46.6907 L1546.47 72.576 L1539.02 72.576 L1539.02 65.6895 Q1536.46 69.8214 1532.66 71.8063 Q1528.85 73.7508 1523.34 73.7508 Q1516.37 73.7508 1512.24 69.8619 Q1508.15 65.9325 1508.15 59.3701 Q1508.15 51.7138 1513.25 47.825 Q1518.4 43.9361 1528.56 43.9361 L1539.02 43.9361 L1539.02 43.2069 Q1539.02 38.0623 1535.61 35.2672 Q1532.25 32.4315 1526.13 32.4315 Q1522.25 32.4315 1518.56 33.3632 Q1514.87 34.295 1511.47 36.1584 L1511.47 29.2718 Q1515.56 27.692 1519.41 26.9223 Q1523.26 26.1121 1526.9 26.1121 Q1536.75 26.1121 1541.61 31.2163 Q1546.47 36.3204 1546.47 46.6907 Z" fill="#000000" fill-rule="nonzero" fill-opacity="1" /><path clip-path="url(#clip840)" d="M1561.82 9.54393 L1569.28 9.54393 L1569.28 72.576 L1561.82 72.576 L1561.82 9.54393 Z" fill="#000000" fill-rule="nonzero" fill-opacity="1" /><path clip-path="url(#clip840)" d="M1656.86 16.7545 L1656.86 25.383 Q1652.72 21.5346 1648.03 19.6307 Q1643.37 17.7268 1638.1 17.7268 Q1627.73 17.7268 1622.22 24.0867 Q1616.71 30.4061 1616.71 42.3968 Q1616.71 54.3469 1622.22 60.7069 Q1627.73 67.0263 1638.1 67.0263 Q1643.37 67.0263 1648.03 65.1223 Q1652.72 63.2184 1656.86 59.3701 L1656.86 67.9175 Q1652.56 70.8341 1647.74 72.2924 Q1642.96 73.7508 1637.61 73.7508 Q1623.88 73.7508 1615.98 65.3654 Q1608.08 56.9395 1608.08 42.3968 Q1608.08 27.8135 1615.98 19.4281 Q1623.88 11.0023 1637.61 11.0023 Q1643.04 11.0023 1647.82 12.4606 Q1652.64 13.8784 1656.86 16.7545 Z" fill="#000000" fill-rule="nonzero" fill-opacity="1" /><path clip-path="url(#clip840)" d="M1706.89 45.1919 L1706.89 72.576 L1699.43 72.576 L1699.43 45.4349 Q1699.43 38.994 1696.92 35.7938 Q1694.41 32.5936 1689.39 32.5936 Q1683.35 32.5936 1679.87 36.4419 Q1676.38 40.2903 1676.38 46.9338 L1676.38 72.576 L1668.89 72.576 L1668.89 9.54393 L1676.38 9.54393 L1676.38 34.2544 Q1679.06 30.163 1682.66 28.1376 Q1686.31 26.1121 1691.05 26.1121 Q1698.86 26.1121 1702.87 30.9732 Q1706.89 35.7938 1706.89 45.1919 Z" fill="#000000" fill-rule="nonzero" fill-opacity="1" /><path clip-path="url(#clip840)" d="M1760.56 48.0275 L1760.56 51.6733 L1726.29 51.6733 Q1726.78 59.3701 1730.91 63.421 Q1735.08 67.4314 1742.49 67.4314 Q1746.79 67.4314 1750.8 66.3781 Q1754.85 65.3249 1758.82 63.2184 L1758.82 70.267 Q1754.81 71.9684 1750.59 72.8596 Q1746.38 73.7508 1742.05 73.7508 Q1731.19 73.7508 1724.83 67.4314 Q1718.51 61.1119 1718.51 50.3365 Q1718.51 39.1965 1724.51 32.6746 Q1730.54 26.1121 1740.75 26.1121 Q1749.91 26.1121 1755.21 32.0264 Q1760.56 37.9003 1760.56 48.0275 M1753.11 45.84 Q1753.03 39.7232 1749.66 36.0774 Q1746.34 32.4315 1740.83 32.4315 Q1734.59 32.4315 1730.83 35.9558 Q1727.1 39.4801 1726.53 45.8805 L1753.11 45.84 Z" fill="#000000" fill-rule="nonzero" fill-opacity="1" /><path clip-path="url(#clip840)" d="M1805.44 28.9478 L1805.44 35.9153 Q1802.28 34.1734 1799.08 33.3227 Q1795.92 32.4315 1792.68 32.4315 Q1785.43 32.4315 1781.42 37.0496 Q1777.41 41.6271 1777.41 49.9314 Q1777.41 58.2358 1781.42 62.8538 Q1785.43 67.4314 1792.68 67.4314 Q1795.92 67.4314 1799.08 66.5807 Q1802.28 65.6895 1805.44 63.9476 L1805.44 70.8341 Q1802.32 72.2924 1798.96 73.0216 Q1795.64 73.7508 1791.87 73.7508 Q1781.62 73.7508 1775.59 67.3098 Q1769.55 60.8689 1769.55 49.9314 Q1769.55 38.832 1775.63 32.472 Q1781.75 26.1121 1792.36 26.1121 Q1795.8 26.1121 1799.08 26.8413 Q1802.37 27.5299 1805.44 28.9478 Z" fill="#000000" fill-rule="nonzero" fill-opacity="1" /><path clip-path="url(#clip840)" d="M1818.12 9.54393 L1825.62 9.54393 L1825.62 46.7717 L1847.86 27.2059 L1857.38 27.2059 L1833.31 48.4326 L1858.39 72.576 L1848.67 72.576 L1825.62 50.4176 L1825.62 72.576 L1818.12 72.576 L1818.12 9.54393 Z" fill="#000000" fill-rule="nonzero" fill-opacity="1" /><polyline clip-path="url(#clip842)" style="stroke:#009af9; stroke-linecap:round; stroke-linejoin:round; stroke-width:12; stroke-opacity:1; fill:none" points="339.136,753.04 345.652,753.04 352.169,753.04 358.685,753.04 365.202,753.04 371.719,753.04 378.235,753.04 384.752,753.04 391.268,753.04 397.785,753.04 404.301,753.04 410.818,753.04 417.335,753.04 423.851,753.04 430.368,753.04 436.884,753.04 443.401,753.04 449.917,753.04 456.434,753.04 462.951,753.04 469.467,753.04 475.984,753.04 482.5,753.04 489.017,753.04 495.533,753.04 502.05,753.04 508.567,753.04 515.083,753.04 521.6,753.04 528.116,753.04 534.633,753.04 541.149,753.04 547.666,753.04 554.183,753.04 560.699,753.04 567.216,753.04 573.732,753.04 580.249,753.04 586.765,753.04 593.282,753.04 599.799,753.04 606.315,753.04 612.832,753.04 619.348,753.04 625.865,753.04 632.381,753.04 638.898,753.04 645.415,753.04 651.931,753.04 658.448,753.04 664.964,753.04 671.481,753.04 677.997,753.04 684.514,753.04 691.031,753.04 697.547,753.04 704.064,753.04 710.58,753.04 717.097,753.04 723.613,753.04 730.13,753.04 736.647,753.04 743.163,753.04 749.68,753.04 756.196,753.04 762.713,753.04 769.229,753.04 775.746,753.04 782.263,753.04 788.779,753.04 795.296,753.04 801.812,753.04 808.329,753.04 814.845,753.04 821.362,753.04 827.878,753.04 834.395,753.04 840.912,753.04 847.428,753.04 853.945,753.04 860.461,753.04 866.978,753.04 873.494,753.04 880.011,753.04 886.528,753.04 893.044,753.04 899.561,753.04 906.077,753.04 912.594,753.04 919.11,753.04 925.627,753.04 932.144,753.04 938.66,753.04 945.177,753.04 951.693,753.04 958.21,753.04 964.726,753.04 971.243,753.04 977.76,753.04 984.276,753.04 990.793,753.04 997.309,753.04 1003.83,753.04 1010.34,753.04 1016.86,753.04 1023.38,753.04 1029.89,753.04 1036.41,753.04 1042.93,753.04 1049.44,753.04 1055.96,753.04 1062.48,753.04 1068.99,753.04 1075.51,753.04 1082.02,753.04 1088.54,753.04 1095.06,753.04 1101.57,753.04 1108.09,753.04 1114.61,753.04 1121.12,753.04 1127.64,753.04 1134.16,753.04 1140.67,753.04 1147.19,753.04 1153.71,753.04 1160.22,753.04 1166.74,753.04 1173.26,753.04 1179.77,753.04 1186.29,753.04 1192.81,753.04 1199.32,753.04 1205.84,753.04 1212.36,753.04 1218.87,753.04 1225.39,753.04 1231.91,753.04 1238.42,753.04 1244.94,753.04 1251.46,753.04 1257.97,753.04 1264.49,753.04 1271.01,753.04 1277.52,753.04 1284.04,753.04 1290.55,753.04 1297.07,753.04 1303.59,753.04 1310.1,753.04 1316.62,753.04 1323.14,753.04 1329.65,753.04 1336.17,753.04 1342.69,753.04 1349.2,753.04 1355.72,753.04 1362.24,753.04 1368.75,753.04 1375.27,753.04 1381.79,753.04 1388.3,753.04 1394.82,753.04 1401.34,753.04 1407.85,753.04 1414.37,753.04 1420.89,753.04 1427.4,753.04 1433.92,753.04 1440.44,753.04 1446.95,753.04 1453.47,753.04 1459.99,753.04 1466.5,753.04 1473.02,753.04 1479.54,753.04 1486.05,753.04 1492.57,753.04 1499.09,753.04 1505.6,753.04 1512.12,753.04 1518.63,753.04 1525.15,753.04 1531.67,753.04 1538.18,753.04 1544.7,753.04 1551.22,753.04 1557.73,753.04 1564.25,753.04 1570.77,753.04 1577.28,753.04 1583.8,753.04 1590.32,753.04 1596.83,753.04 1603.35,753.04 1609.87,753.04 1616.38,753.04 1622.9,753.04 1629.42,753.04 1635.93,753.04 1642.45,753.04 1648.97,753.04 1655.48,753.04 1662,753.04 1668.52,753.04 1675.03,753.04 1681.55,753.04 1688.07,753.04 1694.58,753.04 1701.1,753.04 1707.62,753.04 1714.13,753.04 1720.65,753.04 1727.17,753.04 1733.68,753.04 1740.2,753.04 1746.71,753.04 1753.23,753.04 1759.75,753.04 1766.26,753.04 1772.78,753.04 1779.3,753.04 1785.81,753.04 1792.33,753.04 1798.85,753.04 1805.36,753.04 1811.88,753.04 1818.4,753.04 1824.91,753.04 1831.43,753.04 1837.95,753.04 1844.46,753.04 1850.98,753.04 1857.5,753.04 1864.01,753.04 1870.53,753.04 1877.05,753.04 1883.56,753.04 1890.08,753.04 1896.6,753.04 1903.11,753.04 1909.63,753.04 1916.15,753.04 1922.66,753.04 1929.18,753.04 1935.7,753.04 1942.21,753.04 1948.73,753.04 1955.25,753.04 1961.76,753.04 1968.28,753.04 1974.79,753.04 1981.31,753.04 1987.83,753.04 1994.34,753.04 2000.86,753.04 2007.38,753.04 2013.89,753.04 2020.41,753.04 2026.93,753.04 2033.44,753.04 2039.96,753.04 2046.48,753.04 2052.99,753.04 2059.51,753.04 2066.03,753.04 2072.54,753.04 2079.06,753.04 2085.58,753.04 2092.09,753.04 2098.61,753.04 2105.13,753.04 2111.64,753.04 2118.16,753.04 2124.68,753.04 2131.19,753.04 2137.71,753.04 2144.23,753.04 2150.74,753.04 2157.26,753.04 2163.78,753.04 2170.29,753.04 2176.81,753.04 2183.33,753.04 2189.84,753.04 2196.36,753.04 2202.87,753.04 2209.39,753.04 2215.91,753.04 2222.42,753.04 2228.94,753.04 2235.46,753.04 2241.97,753.04 2248.49,753.04 2255.01,753.04 2261.52,753.04 2268.04,753.04 2274.56,753.04 2281.07,753.04 2287.59,753.04 2294.11,753.04 "/>
<path clip-path="url(#clip840)" d="M1641.85 270.476 L2283.68 270.476 L2283.68 166.796 L1641.85 166.796  Z" fill="#ffffff" fill-rule="evenodd" fill-opacity="1"/>
<polyline clip-path="url(#clip840)" style="stroke:#000000; stroke-linecap:round; stroke-linejoin:round; stroke-width:4; stroke-opacity:1; fill:none" points="1641.85,270.476 2283.68,270.476 2283.68,166.796 1641.85,166.796 1641.85,270.476 "/>
<polyline clip-path="url(#clip840)" style="stroke:#009af9; stroke-linecap:round; stroke-linejoin:round; stroke-width:12; stroke-opacity:1; fill:none" points="1664.87,218.636 1803.03,218.636 "/>
<path clip-path="url(#clip840)" d="M1846.56 210.985 L1846.56 214.967 Q1844.75 213.971 1842.93 213.485 Q1841.12 212.976 1839.27 212.976 Q1835.12 212.976 1832.83 215.615 Q1830.54 218.231 1830.54 222.976 Q1830.54 227.721 1832.83 230.36 Q1835.12 232.976 1839.27 232.976 Q1841.12 232.976 1842.93 232.49 Q1844.75 231.981 1846.56 230.985 L1846.56 234.92 Q1844.78 235.754 1842.86 236.17 Q1840.96 236.587 1838.81 236.587 Q1832.95 236.587 1829.5 232.906 Q1826.05 229.226 1826.05 222.976 Q1826.05 216.633 1829.52 212.999 Q1833.02 209.365 1839.08 209.365 Q1841.05 209.365 1842.93 209.782 Q1844.8 210.175 1846.56 210.985 Z" fill="#000000" fill-rule="nonzero" fill-opacity="1" /><path clip-path="url(#clip840)" d="M1864.01 212.976 Q1860.59 212.976 1858.6 215.661 Q1856.61 218.323 1856.61 222.976 Q1856.61 227.629 1858.57 230.314 Q1860.56 232.976 1864.01 232.976 Q1867.42 232.976 1869.41 230.291 Q1871.4 227.606 1871.4 222.976 Q1871.4 218.37 1869.41 215.684 Q1867.42 212.976 1864.01 212.976 M1864.01 209.365 Q1869.57 209.365 1872.74 212.976 Q1875.91 216.587 1875.91 222.976 Q1875.91 229.342 1872.74 232.976 Q1869.57 236.587 1864.01 236.587 Q1858.43 236.587 1855.26 232.976 Q1852.12 229.342 1852.12 222.976 Q1852.12 216.587 1855.26 212.976 Q1858.43 209.365 1864.01 209.365 Z" fill="#000000" fill-rule="nonzero" fill-opacity="1" /><path clip-path="url(#clip840)" d="M1904.52 220.268 L1904.52 235.916 L1900.26 235.916 L1900.26 220.407 Q1900.26 216.726 1898.83 214.897 Q1897.39 213.069 1894.52 213.069 Q1891.07 213.069 1889.08 215.268 Q1887.09 217.467 1887.09 221.263 L1887.09 235.916 L1882.81 235.916 L1882.81 209.99 L1887.09 209.99 L1887.09 214.018 Q1888.62 211.68 1890.68 210.522 Q1892.76 209.365 1895.47 209.365 Q1899.94 209.365 1902.23 212.143 Q1904.52 214.897 1904.52 220.268 Z" fill="#000000" fill-rule="nonzero" fill-opacity="1" /><path clip-path="url(#clip840)" d="M1929.55 210.754 L1929.55 214.782 Q1927.74 213.856 1925.8 213.393 Q1923.85 212.93 1921.77 212.93 Q1918.6 212.93 1917 213.902 Q1915.43 214.874 1915.43 216.819 Q1915.43 218.3 1916.56 219.157 Q1917.69 219.99 1921.12 220.754 L1922.58 221.078 Q1927.12 222.05 1929.01 223.832 Q1930.93 225.592 1930.93 228.763 Q1930.93 232.374 1928.06 234.481 Q1925.22 236.587 1920.22 236.587 Q1918.13 236.587 1915.87 236.17 Q1913.62 235.777 1911.12 234.967 L1911.12 230.569 Q1913.48 231.795 1915.77 232.42 Q1918.06 233.022 1920.31 233.022 Q1923.32 233.022 1924.94 232.004 Q1926.56 230.962 1926.56 229.087 Q1926.56 227.351 1925.38 226.425 Q1924.22 225.499 1920.26 224.643 L1918.78 224.295 Q1914.82 223.462 1913.06 221.749 Q1911.31 220.013 1911.31 217.004 Q1911.31 213.346 1913.9 211.356 Q1916.49 209.365 1921.26 209.365 Q1923.62 209.365 1925.7 209.712 Q1927.79 210.059 1929.55 210.754 Z" fill="#000000" fill-rule="nonzero" fill-opacity="1" /><path clip-path="url(#clip840)" d="M1941.93 202.629 L1941.93 209.99 L1950.7 209.99 L1950.7 213.3 L1941.93 213.3 L1941.93 227.374 Q1941.93 230.545 1942.79 231.448 Q1943.67 232.351 1946.33 232.351 L1950.7 232.351 L1950.7 235.916 L1946.33 235.916 Q1941.4 235.916 1939.52 234.087 Q1937.65 232.235 1937.65 227.374 L1937.65 213.3 L1934.52 213.3 L1934.52 209.99 L1937.65 209.99 L1937.65 202.629 L1941.93 202.629 Z" fill="#000000" fill-rule="nonzero" fill-opacity="1" /><path clip-path="url(#clip840)" d="M1971.33 213.971 Q1970.61 213.555 1969.75 213.37 Q1968.92 213.161 1967.9 213.161 Q1964.29 213.161 1962.35 215.522 Q1960.43 217.86 1960.43 222.258 L1960.43 235.916 L1956.14 235.916 L1956.14 209.99 L1960.43 209.99 L1960.43 214.018 Q1961.77 211.657 1963.92 210.522 Q1966.07 209.365 1969.15 209.365 Q1969.59 209.365 1970.12 209.434 Q1970.66 209.481 1971.3 209.596 L1971.33 213.971 Z" fill="#000000" fill-rule="nonzero" fill-opacity="1" /><path clip-path="url(#clip840)" d="M1987.58 222.883 Q1982.42 222.883 1980.43 224.064 Q1978.43 225.244 1978.43 228.092 Q1978.43 230.36 1979.92 231.703 Q1981.42 233.022 1983.99 233.022 Q1987.53 233.022 1989.66 230.522 Q1991.81 227.999 1991.81 223.832 L1991.81 222.883 L1987.58 222.883 M1996.07 221.124 L1996.07 235.916 L1991.81 235.916 L1991.81 231.981 Q1990.36 234.342 1988.18 235.476 Q1986 236.587 1982.86 236.587 Q1978.87 236.587 1976.51 234.365 Q1974.18 232.119 1974.18 228.369 Q1974.18 223.994 1977.09 221.772 Q1980.03 219.55 1985.84 219.55 L1991.81 219.55 L1991.81 219.133 Q1991.81 216.194 1989.87 214.596 Q1987.95 212.976 1984.45 212.976 Q1982.23 212.976 1980.12 213.508 Q1978.02 214.041 1976.07 215.106 L1976.07 211.17 Q1978.41 210.268 1980.61 209.828 Q1982.81 209.365 1984.89 209.365 Q1990.52 209.365 1993.3 212.282 Q1996.07 215.198 1996.07 221.124 Z" fill="#000000" fill-rule="nonzero" fill-opacity="1" /><path clip-path="url(#clip840)" d="M2004.85 209.99 L2009.11 209.99 L2009.11 235.916 L2004.85 235.916 L2004.85 209.99 M2004.85 199.897 L2009.11 199.897 L2009.11 205.291 L2004.85 205.291 L2004.85 199.897 Z" fill="#000000" fill-rule="nonzero" fill-opacity="1" /><path clip-path="url(#clip840)" d="M2039.57 220.268 L2039.57 235.916 L2035.31 235.916 L2035.31 220.407 Q2035.31 216.726 2033.87 214.897 Q2032.44 213.069 2029.57 213.069 Q2026.12 213.069 2024.13 215.268 Q2022.14 217.467 2022.14 221.263 L2022.14 235.916 L2017.86 235.916 L2017.86 209.99 L2022.14 209.99 L2022.14 214.018 Q2023.67 211.68 2025.73 210.522 Q2027.81 209.365 2030.52 209.365 Q2034.98 209.365 2037.28 212.143 Q2039.57 214.897 2039.57 220.268 Z" fill="#000000" fill-rule="nonzero" fill-opacity="1" /><path clip-path="url(#clip840)" d="M2052.28 202.629 L2052.28 209.99 L2061.05 209.99 L2061.05 213.3 L2052.28 213.3 L2052.28 227.374 Q2052.28 230.545 2053.13 231.448 Q2054.01 232.351 2056.67 232.351 L2061.05 232.351 L2061.05 235.916 L2056.67 235.916 Q2051.74 235.916 2049.87 234.087 Q2047.99 232.235 2047.99 227.374 L2047.99 213.3 L2044.87 213.3 L2044.87 209.99 L2047.99 209.99 L2047.99 202.629 L2052.28 202.629 Z" fill="#000000" fill-rule="nonzero" fill-opacity="1" /><path clip-path="url(#clip840)" d="M2096.74 213.971 Q2096.03 213.555 2095.17 213.37 Q2094.34 213.161 2093.32 213.161 Q2089.71 213.161 2087.76 215.522 Q2085.84 217.86 2085.84 222.258 L2085.84 235.916 L2081.56 235.916 L2081.56 209.99 L2085.84 209.99 L2085.84 214.018 Q2087.18 211.657 2089.34 210.522 Q2091.49 209.365 2094.57 209.365 Q2095.01 209.365 2095.54 209.434 Q2096.07 209.481 2096.72 209.596 L2096.74 213.971 Z" fill="#000000" fill-rule="nonzero" fill-opacity="1" /><path clip-path="url(#clip840)" d="M2122.35 221.888 L2122.35 223.971 L2102.76 223.971 Q2103.04 228.369 2105.4 230.684 Q2107.79 232.976 2112.02 232.976 Q2114.48 232.976 2116.77 232.374 Q2119.08 231.772 2121.35 230.569 L2121.35 234.596 Q2119.06 235.568 2116.65 236.078 Q2114.24 236.587 2111.77 236.587 Q2105.56 236.587 2101.93 232.976 Q2098.32 229.365 2098.32 223.207 Q2098.32 216.842 2101.74 213.115 Q2105.19 209.365 2111.03 209.365 Q2116.26 209.365 2119.29 212.745 Q2122.35 216.101 2122.35 221.888 M2118.09 220.638 Q2118.04 217.143 2116.12 215.059 Q2114.22 212.976 2111.07 212.976 Q2107.51 212.976 2105.35 214.99 Q2103.23 217.004 2102.9 220.661 L2118.09 220.638 Z" fill="#000000" fill-rule="nonzero" fill-opacity="1" /><path clip-path="url(#clip840)" d="M2145.86 210.754 L2145.86 214.782 Q2144.06 213.856 2142.11 213.393 Q2140.17 212.93 2138.09 212.93 Q2134.91 212.93 2133.32 213.902 Q2131.74 214.874 2131.74 216.819 Q2131.74 218.3 2132.88 219.157 Q2134.01 219.99 2137.44 220.754 L2138.9 221.078 Q2143.43 222.05 2145.33 223.832 Q2147.25 225.592 2147.25 228.763 Q2147.25 232.374 2144.38 234.481 Q2141.54 236.587 2136.54 236.587 Q2134.45 236.587 2132.18 236.17 Q2129.94 235.777 2127.44 234.967 L2127.44 230.569 Q2129.8 231.795 2132.09 232.42 Q2134.38 233.022 2136.63 233.022 Q2139.64 233.022 2141.26 232.004 Q2142.88 230.962 2142.88 229.087 Q2142.88 227.351 2141.7 226.425 Q2140.54 225.499 2136.58 224.643 L2135.1 224.295 Q2131.14 223.462 2129.38 221.749 Q2127.62 220.013 2127.62 217.004 Q2127.62 213.346 2130.22 211.356 Q2132.81 209.365 2137.58 209.365 Q2139.94 209.365 2142.02 209.712 Q2144.1 210.059 2145.86 210.754 Z" fill="#000000" fill-rule="nonzero" fill-opacity="1" /><path clip-path="url(#clip840)" d="M2154.04 209.99 L2158.29 209.99 L2158.29 235.916 L2154.04 235.916 L2154.04 209.99 M2154.04 199.897 L2158.29 199.897 L2158.29 205.291 L2154.04 205.291 L2154.04 199.897 Z" fill="#000000" fill-rule="nonzero" fill-opacity="1" /><path clip-path="url(#clip840)" d="M2184.27 213.925 L2184.27 199.897 L2188.53 199.897 L2188.53 235.916 L2184.27 235.916 L2184.27 232.027 Q2182.92 234.342 2180.86 235.476 Q2178.83 236.587 2175.96 236.587 Q2171.26 236.587 2168.29 232.837 Q2165.35 229.087 2165.35 222.976 Q2165.35 216.865 2168.29 213.115 Q2171.26 209.365 2175.96 209.365 Q2178.83 209.365 2180.86 210.499 Q2182.92 211.61 2184.27 213.925 M2169.75 222.976 Q2169.75 227.675 2171.67 230.36 Q2173.62 233.022 2177 233.022 Q2180.38 233.022 2182.32 230.36 Q2184.27 227.675 2184.27 222.976 Q2184.27 218.277 2182.32 215.615 Q2180.38 212.93 2177 212.93 Q2173.62 212.93 2171.67 215.615 Q2169.75 218.277 2169.75 222.976 Z" fill="#000000" fill-rule="nonzero" fill-opacity="1" /><path clip-path="url(#clip840)" d="M2196.86 225.684 L2196.86 209.99 L2201.12 209.99 L2201.12 225.522 Q2201.12 229.203 2202.55 231.055 Q2203.99 232.883 2206.86 232.883 Q2210.31 232.883 2212.3 230.684 Q2214.31 228.485 2214.31 224.689 L2214.31 209.99 L2218.57 209.99 L2218.57 235.916 L2214.31 235.916 L2214.31 231.934 Q2212.76 234.295 2210.7 235.453 Q2208.66 236.587 2205.96 236.587 Q2201.49 236.587 2199.17 233.809 Q2196.86 231.031 2196.86 225.684 M2207.58 209.365 L2207.58 209.365 Z" fill="#000000" fill-rule="nonzero" fill-opacity="1" /><path clip-path="url(#clip840)" d="M2239.13 222.883 Q2233.97 222.883 2231.97 224.064 Q2229.98 225.244 2229.98 228.092 Q2229.98 230.36 2231.47 231.703 Q2232.97 233.022 2235.54 233.022 Q2239.08 233.022 2241.21 230.522 Q2243.36 227.999 2243.36 223.832 L2243.36 222.883 L2239.13 222.883 M2247.62 221.124 L2247.62 235.916 L2243.36 235.916 L2243.36 231.981 Q2241.91 234.342 2239.73 235.476 Q2237.55 236.587 2234.41 236.587 Q2230.42 236.587 2228.06 234.365 Q2225.72 232.119 2225.72 228.369 Q2225.72 223.994 2228.64 221.772 Q2231.58 219.55 2237.39 219.55 L2243.36 219.55 L2243.36 219.133 Q2243.36 216.194 2241.42 214.596 Q2239.5 212.976 2236 212.976 Q2233.78 212.976 2231.67 213.508 Q2229.57 214.041 2227.62 215.106 L2227.62 211.17 Q2229.96 210.268 2232.16 209.828 Q2234.36 209.365 2236.44 209.365 Q2242.07 209.365 2244.84 212.282 Q2247.62 215.198 2247.62 221.124 Z" fill="#000000" fill-rule="nonzero" fill-opacity="1" /><path clip-path="url(#clip840)" d="M2256.4 199.897 L2260.66 199.897 L2260.66 235.916 L2256.4 235.916 L2256.4 199.897 Z" fill="#000000" fill-rule="nonzero" fill-opacity="1" /></svg>
