<?xml version="1.0" encoding="utf-8"?>
<svg xmlns="http://www.w3.org/2000/svg" xmlns:xlink="http://www.w3.org/1999/xlink" width="600" height="400" viewBox="0 0 2400 1600">
<defs>
  <clipPath id="clip640">
    <rect x="0" y="0" width="2400" height="1600"/>
  </clipPath>
</defs>
<path clip-path="url(#clip640)" d="M0 1600 L2400 1600 L2400 0 L0 0  Z" fill="#ffffff" fill-rule="evenodd" fill-opacity="1"/>
<defs>
  <clipPath id="clip641">
    <rect x="377" y="123" width="1976" height="1301"/>
  </clipPath>
</defs>
<path clip-path="url(#clip640)" d="M377.713 1423.18 L2352.76 1423.18 L2352.76 123.472 L377.713 123.472  Z" fill="#ffffff" fill-rule="evenodd" fill-opacity="1"/>
<polyline clip-path="url(#clip641)" style="stroke:#000000; stroke-linecap:round; stroke-linejoin:round; stroke-width:2; stroke-opacity:0.1; fill:none" points="433.61,1423.18 433.61,123.472 "/>
<polyline clip-path="url(#clip641)" style="stroke:#000000; stroke-linecap:round; stroke-linejoin:round; stroke-width:2; stroke-opacity:0.1; fill:none" points="878.428,1423.18 878.428,123.472 "/>
<polyline clip-path="url(#clip641)" style="stroke:#000000; stroke-linecap:round; stroke-linejoin:round; stroke-width:2; stroke-opacity:0.1; fill:none" points="1323.25,1423.18 1323.25,123.472 "/>
<polyline clip-path="url(#clip641)" style="stroke:#000000; stroke-linecap:round; stroke-linejoin:round; stroke-width:2; stroke-opacity:0.1; fill:none" points="1768.06,1423.18 1768.06,123.472 "/>
<polyline clip-path="url(#clip641)" style="stroke:#000000; stroke-linecap:round; stroke-linejoin:round; stroke-width:2; stroke-opacity:0.1; fill:none" points="2212.88,1423.18 2212.88,123.472 "/>
<polyline clip-path="url(#clip641)" style="stroke:#000000; stroke-linecap:round; stroke-linejoin:round; stroke-width:2; stroke-opacity:0.1; fill:none" points="377.713,1211.59 2352.76,1211.59 "/>
<polyline clip-path="url(#clip641)" style="stroke:#000000; stroke-linecap:round; stroke-linejoin:round; stroke-width:2; stroke-opacity:0.1; fill:none" points="377.713,992.456 2352.76,992.456 "/>
<polyline clip-path="url(#clip641)" style="stroke:#000000; stroke-linecap:round; stroke-linejoin:round; stroke-width:2; stroke-opacity:0.1; fill:none" points="377.713,773.326 2352.76,773.326 "/>
<polyline clip-path="url(#clip641)" style="stroke:#000000; stroke-linecap:round; stroke-linejoin:round; stroke-width:2; stroke-opacity:0.1; fill:none" points="377.713,554.196 2352.76,554.196 "/>
<polyline clip-path="url(#clip641)" style="stroke:#000000; stroke-linecap:round; stroke-linejoin:round; stroke-width:2; stroke-opacity:0.1; fill:none" points="377.713,335.065 2352.76,335.065 "/>
<polyline clip-path="url(#clip640)" style="stroke:#000000; stroke-linecap:round; stroke-linejoin:round; stroke-width:4; stroke-opacity:1; fill:none" points="377.713,1423.18 2352.76,1423.18 "/>
<polyline clip-path="url(#clip640)" style="stroke:#000000; stroke-linecap:round; stroke-linejoin:round; stroke-width:4; stroke-opacity:1; fill:none" points="433.61,1423.18 433.61,1404.28 "/>
<polyline clip-path="url(#clip640)" style="stroke:#000000; stroke-linecap:round; stroke-linejoin:round; stroke-width:4; stroke-opacity:1; fill:none" points="878.428,1423.18 878.428,1404.28 "/>
<polyline clip-path="url(#clip640)" style="stroke:#000000; stroke-linecap:round; stroke-linejoin:round; stroke-width:4; stroke-opacity:1; fill:none" points="1323.25,1423.18 1323.25,1404.28 "/>
<polyline clip-path="url(#clip640)" style="stroke:#000000; stroke-linecap:round; stroke-linejoin:round; stroke-width:4; stroke-opacity:1; fill:none" points="1768.06,1423.18 1768.06,1404.28 "/>
<polyline clip-path="url(#clip640)" style="stroke:#000000; stroke-linecap:round; stroke-linejoin:round; stroke-width:4; stroke-opacity:1; fill:none" points="2212.88,1423.18 2212.88,1404.28 "/>
<path clip-path="url(#clip640)" d="M395.914 1454.1 Q392.302 1454.1 390.474 1457.66 Q388.668 1461.2 388.668 1468.33 Q388.668 1475.44 390.474 1479.01 Q392.302 1482.55 395.914 1482.55 Q399.548 1482.55 401.353 1479.01 Q403.182 1475.44 403.182 1468.33 Q403.182 1461.2 401.353 1457.66 Q399.548 1454.1 395.914 1454.1 M395.914 1450.39 Q401.724 1450.39 404.779 1455 Q407.858 1459.58 407.858 1468.33 Q407.858 1477.06 404.779 1481.67 Q401.724 1486.25 395.914 1486.25 Q390.103 1486.25 387.025 1481.67 Q383.969 1477.06 383.969 1468.33 Q383.969 1459.58 387.025 1455 Q390.103 1450.39 395.914 1450.39 Z" fill="#000000" fill-rule="nonzero" fill-opacity="1" /><path clip-path="url(#clip640)" d="M416.075 1479.7 L420.96 1479.7 L420.96 1485.58 L416.075 1485.58 L416.075 1479.7 Z" fill="#000000" fill-rule="nonzero" fill-opacity="1" /><path clip-path="url(#clip640)" d="M441.145 1454.1 Q437.534 1454.1 435.705 1457.66 Q433.899 1461.2 433.899 1468.33 Q433.899 1475.44 435.705 1479.01 Q437.534 1482.55 441.145 1482.55 Q444.779 1482.55 446.585 1479.01 Q448.413 1475.44 448.413 1468.33 Q448.413 1461.2 446.585 1457.66 Q444.779 1454.1 441.145 1454.1 M441.145 1450.39 Q446.955 1450.39 450.01 1455 Q453.089 1459.58 453.089 1468.33 Q453.089 1477.06 450.01 1481.67 Q446.955 1486.25 441.145 1486.25 Q435.335 1486.25 432.256 1481.67 Q429.2 1477.06 429.2 1468.33 Q429.2 1459.58 432.256 1455 Q435.335 1450.39 441.145 1450.39 Z" fill="#000000" fill-rule="nonzero" fill-opacity="1" /><path clip-path="url(#clip640)" d="M471.307 1454.1 Q467.696 1454.1 465.867 1457.66 Q464.061 1461.2 464.061 1468.33 Q464.061 1475.44 465.867 1479.01 Q467.696 1482.55 471.307 1482.55 Q474.941 1482.55 476.746 1479.01 Q478.575 1475.44 478.575 1468.33 Q478.575 1461.2 476.746 1457.66 Q474.941 1454.1 471.307 1454.1 M471.307 1450.39 Q477.117 1450.39 480.172 1455 Q483.251 1459.58 483.251 1468.33 Q483.251 1477.06 480.172 1481.67 Q477.117 1486.25 471.307 1486.25 Q465.496 1486.25 462.418 1481.67 Q459.362 1477.06 459.362 1468.33 Q459.362 1459.58 462.418 1455 Q465.496 1450.39 471.307 1450.39 Z" fill="#000000" fill-rule="nonzero" fill-opacity="1" /><path clip-path="url(#clip640)" d="M841.345 1454.1 Q837.734 1454.1 835.905 1457.66 Q834.099 1461.2 834.099 1468.33 Q834.099 1475.44 835.905 1479.01 Q837.734 1482.55 841.345 1482.55 Q844.979 1482.55 846.785 1479.01 Q848.613 1475.44 848.613 1468.33 Q848.613 1461.2 846.785 1457.66 Q844.979 1454.1 841.345 1454.1 M841.345 1450.39 Q847.155 1450.39 850.21 1455 Q853.289 1459.58 853.289 1468.33 Q853.289 1477.06 850.21 1481.67 Q847.155 1486.25 841.345 1486.25 Q835.535 1486.25 832.456 1481.67 Q829.4 1477.06 829.4 1468.33 Q829.4 1459.58 832.456 1455 Q835.535 1450.39 841.345 1450.39 Z" fill="#000000" fill-rule="nonzero" fill-opacity="1" /><path clip-path="url(#clip640)" d="M861.507 1479.7 L866.391 1479.7 L866.391 1485.58 L861.507 1485.58 L861.507 1479.7 Z" fill="#000000" fill-rule="nonzero" fill-opacity="1" /><path clip-path="url(#clip640)" d="M886.576 1454.1 Q882.965 1454.1 881.136 1457.66 Q879.331 1461.2 879.331 1468.33 Q879.331 1475.44 881.136 1479.01 Q882.965 1482.55 886.576 1482.55 Q890.21 1482.55 892.016 1479.01 Q893.844 1475.44 893.844 1468.33 Q893.844 1461.2 892.016 1457.66 Q890.21 1454.1 886.576 1454.1 M886.576 1450.39 Q892.386 1450.39 895.442 1455 Q898.52 1459.58 898.52 1468.33 Q898.52 1477.06 895.442 1481.67 Q892.386 1486.25 886.576 1486.25 Q880.766 1486.25 877.687 1481.67 Q874.632 1477.06 874.632 1468.33 Q874.632 1459.58 877.687 1455 Q880.766 1450.39 886.576 1450.39 Z" fill="#000000" fill-rule="nonzero" fill-opacity="1" /><path clip-path="url(#clip640)" d="M907.548 1481.64 L915.187 1481.64 L915.187 1455.28 L906.877 1456.95 L906.877 1452.69 L915.141 1451.02 L919.817 1451.02 L919.817 1481.64 L927.455 1481.64 L927.455 1485.58 L907.548 1485.58 L907.548 1481.64 Z" fill="#000000" fill-rule="nonzero" fill-opacity="1" /><path clip-path="url(#clip640)" d="M1286.35 1454.1 Q1282.74 1454.1 1280.91 1457.66 Q1279.1 1461.2 1279.1 1468.33 Q1279.1 1475.44 1280.91 1479.01 Q1282.74 1482.55 1286.35 1482.55 Q1289.98 1482.55 1291.79 1479.01 Q1293.62 1475.44 1293.62 1468.33 Q1293.62 1461.2 1291.79 1457.66 Q1289.98 1454.1 1286.35 1454.1 M1286.35 1450.39 Q1292.16 1450.39 1295.21 1455 Q1298.29 1459.58 1298.29 1468.33 Q1298.29 1477.06 1295.21 1481.67 Q1292.16 1486.25 1286.35 1486.25 Q1280.54 1486.25 1277.46 1481.67 Q1274.4 1477.06 1274.4 1468.33 Q1274.4 1459.58 1277.46 1455 Q1280.54 1450.39 1286.35 1450.39 Z" fill="#000000" fill-rule="nonzero" fill-opacity="1" /><path clip-path="url(#clip640)" d="M1306.51 1479.7 L1311.39 1479.7 L1311.39 1485.58 L1306.51 1485.58 L1306.51 1479.7 Z" fill="#000000" fill-rule="nonzero" fill-opacity="1" /><path clip-path="url(#clip640)" d="M1331.58 1454.1 Q1327.97 1454.1 1326.14 1457.66 Q1324.33 1461.2 1324.33 1468.33 Q1324.33 1475.44 1326.14 1479.01 Q1327.97 1482.55 1331.58 1482.55 Q1335.21 1482.55 1337.02 1479.01 Q1338.85 1475.44 1338.85 1468.33 Q1338.85 1461.2 1337.02 1457.66 Q1335.21 1454.1 1331.58 1454.1 M1331.58 1450.39 Q1337.39 1450.39 1340.44 1455 Q1343.52 1459.58 1343.52 1468.33 Q1343.52 1477.06 1340.44 1481.67 Q1337.39 1486.25 1331.58 1486.25 Q1325.77 1486.25 1322.69 1481.67 Q1319.63 1477.06 1319.63 1468.33 Q1319.63 1459.58 1322.69 1455 Q1325.77 1450.39 1331.58 1450.39 Z" fill="#000000" fill-rule="nonzero" fill-opacity="1" /><path clip-path="url(#clip640)" d="M1355.77 1481.64 L1372.09 1481.64 L1372.09 1485.58 L1350.14 1485.58 L1350.14 1481.64 Q1352.81 1478.89 1357.39 1474.26 Q1362 1469.61 1363.18 1468.27 Q1365.42 1465.74 1366.3 1464.01 Q1367.2 1462.25 1367.2 1460.56 Q1367.2 1457.8 1365.26 1456.07 Q1363.34 1454.33 1360.24 1454.33 Q1358.04 1454.33 1355.58 1455.09 Q1353.15 1455.86 1350.38 1457.41 L1350.38 1452.69 Q1353.2 1451.55 1355.65 1450.97 Q1358.11 1450.39 1360.14 1450.39 Q1365.51 1450.39 1368.71 1453.08 Q1371.9 1455.77 1371.9 1460.26 Q1371.9 1462.39 1371.09 1464.31 Q1370.31 1466.2 1368.2 1468.8 Q1367.62 1469.47 1364.52 1472.69 Q1361.42 1475.88 1355.77 1481.64 Z" fill="#000000" fill-rule="nonzero" fill-opacity="1" /><path clip-path="url(#clip640)" d="M1730.69 1454.1 Q1727.08 1454.1 1725.25 1457.66 Q1723.45 1461.2 1723.45 1468.33 Q1723.45 1475.44 1725.25 1479.01 Q1727.08 1482.55 1730.69 1482.55 Q1734.33 1482.55 1736.13 1479.01 Q1737.96 1475.44 1737.96 1468.33 Q1737.96 1461.2 1736.13 1457.66 Q1734.33 1454.1 1730.69 1454.1 M1730.69 1450.39 Q1736.5 1450.39 1739.56 1455 Q1742.64 1459.58 1742.64 1468.33 Q1742.64 1477.06 1739.56 1481.67 Q1736.5 1486.25 1730.69 1486.25 Q1724.88 1486.25 1721.8 1481.67 Q1718.75 1477.06 1718.75 1468.33 Q1718.75 1459.58 1721.8 1455 Q1724.88 1450.39 1730.69 1450.39 Z" fill="#000000" fill-rule="nonzero" fill-opacity="1" /><path clip-path="url(#clip640)" d="M1750.85 1479.7 L1755.74 1479.7 L1755.74 1485.58 L1750.85 1485.58 L1750.85 1479.7 Z" fill="#000000" fill-rule="nonzero" fill-opacity="1" /><path clip-path="url(#clip640)" d="M1775.92 1454.1 Q1772.31 1454.1 1770.48 1457.66 Q1768.68 1461.2 1768.68 1468.33 Q1768.68 1475.44 1770.48 1479.01 Q1772.31 1482.55 1775.92 1482.55 Q1779.56 1482.55 1781.36 1479.01 Q1783.19 1475.44 1783.19 1468.33 Q1783.19 1461.2 1781.36 1457.66 Q1779.56 1454.1 1775.92 1454.1 M1775.92 1450.39 Q1781.73 1450.39 1784.79 1455 Q1787.87 1459.58 1787.87 1468.33 Q1787.87 1477.06 1784.79 1481.67 Q1781.73 1486.25 1775.92 1486.25 Q1770.11 1486.25 1767.03 1481.67 Q1763.98 1477.06 1763.98 1468.33 Q1763.98 1459.58 1767.03 1455 Q1770.11 1450.39 1775.92 1450.39 Z" fill="#000000" fill-rule="nonzero" fill-opacity="1" /><path clip-path="url(#clip640)" d="M1810.25 1466.95 Q1813.61 1467.66 1815.48 1469.93 Q1817.38 1472.2 1817.38 1475.53 Q1817.38 1480.65 1813.86 1483.45 Q1810.34 1486.25 1803.86 1486.25 Q1801.69 1486.25 1799.37 1485.81 Q1797.08 1485.39 1794.63 1484.54 L1794.63 1480.02 Q1796.57 1481.16 1798.89 1481.74 Q1801.2 1482.32 1803.72 1482.32 Q1808.12 1482.32 1810.41 1480.58 Q1812.73 1478.84 1812.73 1475.53 Q1812.73 1472.48 1810.57 1470.77 Q1808.45 1469.03 1804.63 1469.03 L1800.6 1469.03 L1800.6 1465.19 L1804.81 1465.19 Q1808.26 1465.19 1810.09 1463.82 Q1811.92 1462.43 1811.92 1459.84 Q1811.92 1457.18 1810.02 1455.77 Q1808.14 1454.33 1804.63 1454.33 Q1802.7 1454.33 1800.51 1454.75 Q1798.31 1455.16 1795.67 1456.04 L1795.67 1451.88 Q1798.33 1451.14 1800.64 1450.77 Q1802.98 1450.39 1805.04 1450.39 Q1810.37 1450.39 1813.47 1452.83 Q1816.57 1455.23 1816.57 1459.35 Q1816.57 1462.22 1814.93 1464.21 Q1813.28 1466.18 1810.25 1466.95 Z" fill="#000000" fill-rule="nonzero" fill-opacity="1" /><path clip-path="url(#clip640)" d="M2174.94 1454.1 Q2171.33 1454.1 2169.5 1457.66 Q2167.7 1461.2 2167.7 1468.33 Q2167.7 1475.44 2169.5 1479.01 Q2171.33 1482.55 2174.94 1482.55 Q2178.58 1482.55 2180.38 1479.01 Q2182.21 1475.44 2182.21 1468.33 Q2182.21 1461.2 2180.38 1457.66 Q2178.58 1454.1 2174.94 1454.1 M2174.94 1450.39 Q2180.75 1450.39 2183.81 1455 Q2186.89 1459.58 2186.89 1468.33 Q2186.89 1477.06 2183.81 1481.67 Q2180.75 1486.25 2174.94 1486.25 Q2169.13 1486.25 2166.05 1481.67 Q2163 1477.06 2163 1468.33 Q2163 1459.58 2166.05 1455 Q2169.13 1450.39 2174.94 1450.39 Z" fill="#000000" fill-rule="nonzero" fill-opacity="1" /><path clip-path="url(#clip640)" d="M2195.1 1479.7 L2199.99 1479.7 L2199.99 1485.58 L2195.1 1485.58 L2195.1 1479.7 Z" fill="#000000" fill-rule="nonzero" fill-opacity="1" /><path clip-path="url(#clip640)" d="M2220.17 1454.1 Q2216.56 1454.1 2214.73 1457.66 Q2212.93 1461.2 2212.93 1468.33 Q2212.93 1475.44 2214.73 1479.01 Q2216.56 1482.55 2220.17 1482.55 Q2223.81 1482.55 2225.61 1479.01 Q2227.44 1475.44 2227.44 1468.33 Q2227.44 1461.2 2225.61 1457.66 Q2223.81 1454.1 2220.17 1454.1 M2220.17 1450.39 Q2225.98 1450.39 2229.04 1455 Q2232.12 1459.58 2232.12 1468.33 Q2232.12 1477.06 2229.04 1481.67 Q2225.98 1486.25 2220.17 1486.25 Q2214.36 1486.25 2211.28 1481.67 Q2208.23 1477.06 2208.23 1468.33 Q2208.23 1459.58 2211.28 1455 Q2214.36 1450.39 2220.17 1450.39 Z" fill="#000000" fill-rule="nonzero" fill-opacity="1" /><path clip-path="url(#clip640)" d="M2253.18 1455.09 L2241.38 1473.54 L2253.18 1473.54 L2253.18 1455.09 M2251.96 1451.02 L2257.83 1451.02 L2257.83 1473.54 L2262.77 1473.54 L2262.77 1477.43 L2257.83 1477.43 L2257.83 1485.58 L2253.18 1485.58 L2253.18 1477.43 L2237.58 1477.43 L2237.58 1472.92 L2251.96 1451.02 Z" fill="#000000" fill-rule="nonzero" fill-opacity="1" /><path clip-path="url(#clip640)" d="M1235.41 1520.52 L1275.61 1520.52 L1275.61 1525.93 L1258.74 1525.93 L1258.74 1568.04 L1252.27 1568.04 L1252.27 1525.93 L1235.41 1525.93 L1235.41 1520.52 Z" fill="#000000" fill-rule="nonzero" fill-opacity="1" /><path clip-path="url(#clip640)" d="M1279.55 1532.4 L1285.41 1532.4 L1285.41 1568.04 L1279.55 1568.04 L1279.55 1532.4 M1279.55 1518.52 L1285.41 1518.52 L1285.41 1525.93 L1279.55 1525.93 L1279.55 1518.52 Z" fill="#000000" fill-rule="nonzero" fill-opacity="1" /><path clip-path="url(#clip640)" d="M1325.42 1539.24 Q1327.61 1535.29 1330.67 1533.41 Q1333.72 1531.54 1337.86 1531.54 Q1343.43 1531.54 1346.46 1535.45 Q1349.48 1539.33 1349.48 1546.53 L1349.48 1568.04 L1343.59 1568.04 L1343.59 1546.72 Q1343.59 1541.59 1341.78 1539.11 Q1339.96 1536.63 1336.24 1536.63 Q1331.69 1536.63 1329.05 1539.65 Q1326.4 1542.68 1326.4 1547.9 L1326.4 1568.04 L1320.52 1568.04 L1320.52 1546.72 Q1320.52 1541.56 1318.7 1539.11 Q1316.89 1536.63 1313.1 1536.63 Q1308.61 1536.63 1305.97 1539.68 Q1303.33 1542.71 1303.33 1547.9 L1303.33 1568.04 L1297.44 1568.04 L1297.44 1532.4 L1303.33 1532.4 L1303.33 1537.93 Q1305.33 1534.66 1308.13 1533.1 Q1310.93 1531.54 1314.79 1531.54 Q1318.67 1531.54 1321.37 1533.51 Q1324.11 1535.48 1325.42 1539.24 Z" fill="#000000" fill-rule="nonzero" fill-opacity="1" /><path clip-path="url(#clip640)" d="M1391.65 1548.76 L1391.65 1551.62 L1364.73 1551.62 Q1365.11 1557.67 1368.35 1560.85 Q1371.63 1564 1377.46 1564 Q1380.83 1564 1383.98 1563.17 Q1387.16 1562.35 1390.28 1560.69 L1390.28 1566.23 Q1387.13 1567.57 1383.82 1568.27 Q1380.51 1568.97 1377.11 1568.97 Q1368.58 1568.97 1363.58 1564 Q1358.61 1559.04 1358.61 1550.57 Q1358.61 1541.82 1363.32 1536.69 Q1368.07 1531.54 1376.09 1531.54 Q1383.28 1531.54 1387.45 1536.18 Q1391.65 1540.8 1391.65 1548.76 M1385.8 1547.04 Q1385.73 1542.23 1383.09 1539.37 Q1380.48 1536.5 1376.15 1536.5 Q1371.25 1536.5 1368.29 1539.27 Q1365.36 1542.04 1364.92 1547.07 L1385.8 1547.04 Z" fill="#000000" fill-rule="nonzero" fill-opacity="1" /><path clip-path="url(#clip640)" d="M1436.05 1518.58 Q1431.79 1525.9 1429.72 1533.06 Q1427.65 1540.23 1427.65 1547.58 Q1427.65 1554.93 1429.72 1562.16 Q1431.82 1569.35 1436.05 1576.64 L1430.96 1576.64 Q1426.19 1569.16 1423.8 1561.93 Q1421.44 1554.71 1421.44 1547.58 Q1421.44 1540.48 1423.8 1533.29 Q1426.15 1526.09 1430.96 1518.58 L1436.05 1518.58 Z" fill="#000000" fill-rule="nonzero" fill-opacity="1" /><path clip-path="url(#clip640)" d="M1470.14 1533.45 L1470.14 1538.98 Q1467.66 1537.71 1464.98 1537.07 Q1462.31 1536.44 1459.45 1536.44 Q1455.09 1536.44 1452.89 1537.77 Q1450.73 1539.11 1450.73 1541.79 Q1450.73 1543.82 1452.29 1545 Q1453.84 1546.15 1458.56 1547.2 L1460.56 1547.64 Q1466.8 1548.98 1469.41 1551.43 Q1472.05 1553.85 1472.05 1558.21 Q1472.05 1563.17 1468.1 1566.07 Q1464.19 1568.97 1457.31 1568.97 Q1454.45 1568.97 1451.33 1568.39 Q1448.24 1567.85 1444.81 1566.74 L1444.81 1560.69 Q1448.05 1562.38 1451.2 1563.24 Q1454.35 1564.07 1457.44 1564.07 Q1461.58 1564.07 1463.81 1562.66 Q1466.04 1561.23 1466.04 1558.65 Q1466.04 1556.27 1464.41 1554.99 Q1462.82 1553.72 1457.38 1552.54 L1455.34 1552.07 Q1449.9 1550.92 1447.48 1548.56 Q1445.06 1546.18 1445.06 1542.04 Q1445.06 1537.01 1448.63 1534.27 Q1452.19 1531.54 1458.75 1531.54 Q1461.99 1531.54 1464.86 1532.01 Q1467.72 1532.49 1470.14 1533.45 Z" fill="#000000" fill-rule="nonzero" fill-opacity="1" /><path clip-path="url(#clip640)" d="M1480.45 1518.58 L1485.55 1518.58 Q1490.32 1526.09 1492.68 1533.29 Q1495.06 1540.48 1495.06 1547.58 Q1495.06 1554.71 1492.68 1561.93 Q1490.32 1569.16 1485.55 1576.64 L1480.45 1576.64 Q1484.69 1569.35 1486.76 1562.16 Q1488.86 1554.93 1488.86 1547.58 Q1488.86 1540.23 1486.76 1533.06 Q1484.69 1525.9 1480.45 1518.58 Z" fill="#000000" fill-rule="nonzero" fill-opacity="1" /><polyline clip-path="url(#clip640)" style="stroke:#000000; stroke-linecap:round; stroke-linejoin:round; stroke-width:4; stroke-opacity:1; fill:none" points="377.713,1423.18 377.713,123.472 "/>
<polyline clip-path="url(#clip640)" style="stroke:#000000; stroke-linecap:round; stroke-linejoin:round; stroke-width:4; stroke-opacity:1; fill:none" points="377.713,1211.59 396.61,1211.59 "/>
<polyline clip-path="url(#clip640)" style="stroke:#000000; stroke-linecap:round; stroke-linejoin:round; stroke-width:4; stroke-opacity:1; fill:none" points="377.713,992.456 396.61,992.456 "/>
<polyline clip-path="url(#clip640)" style="stroke:#000000; stroke-linecap:round; stroke-linejoin:round; stroke-width:4; stroke-opacity:1; fill:none" points="377.713,773.326 396.61,773.326 "/>
<polyline clip-path="url(#clip640)" style="stroke:#000000; stroke-linecap:round; stroke-linejoin:round; stroke-width:4; stroke-opacity:1; fill:none" points="377.713,554.196 396.61,554.196 "/>
<polyline clip-path="url(#clip640)" style="stroke:#000000; stroke-linecap:round; stroke-linejoin:round; stroke-width:4; stroke-opacity:1; fill:none" points="377.713,335.065 396.61,335.065 "/>
<path clip-path="url(#clip640)" d="M114.26 1218.49 L143.936 1218.49 L143.936 1222.42 L114.26 1222.42 L114.26 1218.49 Z" fill="#000000" fill-rule="nonzero" fill-opacity="1" /><path clip-path="url(#clip640)" d="M158.056 1231.38 L174.376 1231.38 L174.376 1235.31 L152.431 1235.31 L152.431 1231.38 Q155.093 1228.62 159.677 1223.99 Q164.283 1219.34 165.464 1218 Q167.709 1215.48 168.589 1213.74 Q169.491 1211.98 169.491 1210.29 Q169.491 1207.54 167.547 1205.8 Q165.626 1204.06 162.524 1204.06 Q160.325 1204.06 157.871 1204.83 Q155.44 1205.59 152.663 1207.14 L152.663 1202.42 Q155.487 1201.29 157.94 1200.71 Q160.394 1200.13 162.431 1200.13 Q167.802 1200.13 170.996 1202.81 Q174.19 1205.5 174.19 1209.99 Q174.19 1212.12 173.38 1214.04 Q172.593 1215.94 170.487 1218.53 Q169.908 1219.2 166.806 1222.42 Q163.704 1225.62 158.056 1231.38 Z" fill="#000000" fill-rule="nonzero" fill-opacity="1" /><path clip-path="url(#clip640)" d="M184.19 1229.43 L189.075 1229.43 L189.075 1235.31 L184.19 1235.31 L184.19 1229.43 Z" fill="#000000" fill-rule="nonzero" fill-opacity="1" /><path clip-path="url(#clip640)" d="M209.26 1203.83 Q205.649 1203.83 203.82 1207.4 Q202.014 1210.94 202.014 1218.07 Q202.014 1225.18 203.82 1228.74 Q205.649 1232.28 209.26 1232.28 Q212.894 1232.28 214.699 1228.74 Q216.528 1225.18 216.528 1218.07 Q216.528 1210.94 214.699 1207.4 Q212.894 1203.83 209.26 1203.83 M209.26 1200.13 Q215.07 1200.13 218.125 1204.74 Q221.204 1209.32 221.204 1218.07 Q221.204 1226.8 218.125 1231.4 Q215.07 1235.99 209.26 1235.99 Q203.449 1235.99 200.371 1231.4 Q197.315 1226.8 197.315 1218.07 Q197.315 1209.32 200.371 1204.74 Q203.449 1200.13 209.26 1200.13 Z" fill="#000000" fill-rule="nonzero" fill-opacity="1" /><path clip-path="url(#clip640)" d="M257.593 1209.85 L247.014 1220.48 L257.593 1231.05 L254.838 1233.86 L244.213 1223.23 L233.588 1233.86 L230.857 1231.05 L241.412 1220.48 L230.857 1209.85 L233.588 1207.05 L244.213 1217.68 L254.838 1207.05 L257.593 1209.85 Z" fill="#000000" fill-rule="nonzero" fill-opacity="1" /><path clip-path="url(#clip640)" d="M269.954 1231.38 L277.593 1231.38 L277.593 1205.01 L269.282 1206.68 L269.282 1202.42 L277.546 1200.75 L282.222 1200.75 L282.222 1231.38 L289.861 1231.38 L289.861 1235.31 L269.954 1235.31 L269.954 1231.38 Z" fill="#000000" fill-rule="nonzero" fill-opacity="1" /><path clip-path="url(#clip640)" d="M309.305 1203.83 Q305.694 1203.83 303.866 1207.4 Q302.06 1210.94 302.06 1218.07 Q302.06 1225.18 303.866 1228.74 Q305.694 1232.28 309.305 1232.28 Q312.94 1232.28 314.745 1228.74 Q316.574 1225.18 316.574 1218.07 Q316.574 1210.94 314.745 1207.4 Q312.94 1203.83 309.305 1203.83 M309.305 1200.13 Q315.116 1200.13 318.171 1204.74 Q321.25 1209.32 321.25 1218.07 Q321.25 1226.8 318.171 1231.4 Q315.116 1235.99 309.305 1235.99 Q303.495 1235.99 300.417 1231.4 Q297.361 1226.8 297.361 1218.07 Q297.361 1209.32 300.417 1204.74 Q303.495 1200.13 309.305 1200.13 Z" fill="#000000" fill-rule="nonzero" fill-opacity="1" /><path clip-path="url(#clip640)" d="M333.926 1183.13 L324.334 1198.12 L333.926 1198.12 L333.926 1183.13 M332.929 1179.82 L337.707 1179.82 L337.707 1198.12 L341.713 1198.12 L341.713 1201.28 L337.707 1201.28 L337.707 1207.9 L333.926 1207.9 L333.926 1201.28 L321.25 1201.28 L321.25 1197.62 L332.929 1179.82 Z" fill="#000000" fill-rule="nonzero" fill-opacity="1" /><path clip-path="url(#clip640)" d="M114.26 999.355 L143.936 999.355 L143.936 1003.29 L114.26 1003.29 L114.26 999.355 Z" fill="#000000" fill-rule="nonzero" fill-opacity="1" /><path clip-path="url(#clip640)" d="M154.839 1012.25 L162.477 1012.25 L162.477 985.883 L154.167 987.55 L154.167 983.291 L162.431 981.624 L167.107 981.624 L167.107 1012.25 L174.746 1012.25 L174.746 1016.18 L154.839 1016.18 L154.839 1012.25 Z" fill="#000000" fill-rule="nonzero" fill-opacity="1" /><path clip-path="url(#clip640)" d="M184.19 1010.3 L189.075 1010.3 L189.075 1016.18 L184.19 1016.18 L184.19 1010.3 Z" fill="#000000" fill-rule="nonzero" fill-opacity="1" /><path clip-path="url(#clip640)" d="M209.26 984.703 Q205.649 984.703 203.82 988.267 Q202.014 991.809 202.014 998.939 Q202.014 1006.05 203.82 1009.61 Q205.649 1013.15 209.26 1013.15 Q212.894 1013.15 214.699 1009.61 Q216.528 1006.05 216.528 998.939 Q216.528 991.809 214.699 988.267 Q212.894 984.703 209.26 984.703 M209.26 980.999 Q215.07 980.999 218.125 985.605 Q221.204 990.189 221.204 998.939 Q221.204 1007.67 218.125 1012.27 Q215.07 1016.86 209.26 1016.86 Q203.449 1016.86 200.371 1012.27 Q197.315 1007.67 197.315 998.939 Q197.315 990.189 200.371 985.605 Q203.449 980.999 209.26 980.999 Z" fill="#000000" fill-rule="nonzero" fill-opacity="1" /><path clip-path="url(#clip640)" d="M257.593 990.721 L247.014 1001.35 L257.593 1011.92 L254.838 1014.73 L244.213 1004.1 L233.588 1014.73 L230.857 1011.92 L241.412 1001.35 L230.857 990.721 L233.588 987.92 L244.213 998.545 L254.838 987.92 L257.593 990.721 Z" fill="#000000" fill-rule="nonzero" fill-opacity="1" /><path clip-path="url(#clip640)" d="M269.954 1012.25 L277.593 1012.25 L277.593 985.883 L269.282 987.55 L269.282 983.291 L277.546 981.624 L282.222 981.624 L282.222 1012.25 L289.861 1012.25 L289.861 1016.18 L269.954 1016.18 L269.954 1012.25 Z" fill="#000000" fill-rule="nonzero" fill-opacity="1" /><path clip-path="url(#clip640)" d="M309.305 984.703 Q305.694 984.703 303.866 988.267 Q302.06 991.809 302.06 998.939 Q302.06 1006.05 303.866 1009.61 Q305.694 1013.15 309.305 1013.15 Q312.94 1013.15 314.745 1009.61 Q316.574 1006.05 316.574 998.939 Q316.574 991.809 314.745 988.267 Q312.94 984.703 309.305 984.703 M309.305 980.999 Q315.116 980.999 318.171 985.605 Q321.25 990.189 321.25 998.939 Q321.25 1007.67 318.171 1012.27 Q315.116 1016.86 309.305 1016.86 Q303.495 1016.86 300.417 1012.27 Q297.361 1007.67 297.361 998.939 Q297.361 990.189 300.417 985.605 Q303.495 980.999 309.305 980.999 Z" fill="#000000" fill-rule="nonzero" fill-opacity="1" /><path clip-path="url(#clip640)" d="M333.926 964.004 L324.334 978.993 L333.926 978.993 L333.926 964.004 M332.929 960.693 L337.707 960.693 L337.707 978.993 L341.713 978.993 L341.713 982.153 L337.707 982.153 L337.707 988.773 L333.926 988.773 L333.926 982.153 L321.25 982.153 L321.25 978.486 L332.929 960.693 Z" fill="#000000" fill-rule="nonzero" fill-opacity="1" /><path clip-path="url(#clip640)" d="M329.768 759.125 Q326.157 759.125 324.328 762.689 Q322.523 766.231 322.523 773.361 Q322.523 780.467 324.328 784.032 Q326.157 787.574 329.768 787.574 Q333.403 787.574 335.208 784.032 Q337.037 780.467 337.037 773.361 Q337.037 766.231 335.208 762.689 Q333.403 759.125 329.768 759.125 M329.768 755.421 Q335.578 755.421 338.634 760.027 Q341.713 764.611 341.713 773.361 Q341.713 782.088 338.634 786.694 Q335.578 791.277 329.768 791.277 Q323.958 791.277 320.879 786.694 Q317.824 782.088 317.824 773.361 Q317.824 764.611 320.879 760.027 Q323.958 755.421 329.768 755.421 Z" fill="#000000" fill-rule="nonzero" fill-opacity="1" /><path clip-path="url(#clip640)" d="M154.839 573.988 L162.477 573.988 L162.477 547.623 L154.167 549.289 L154.167 545.03 L162.431 543.363 L167.107 543.363 L167.107 573.988 L174.746 573.988 L174.746 577.923 L154.839 577.923 L154.839 573.988 Z" fill="#000000" fill-rule="nonzero" fill-opacity="1" /><path clip-path="url(#clip640)" d="M184.19 572.044 L189.075 572.044 L189.075 577.923 L184.19 577.923 L184.19 572.044 Z" fill="#000000" fill-rule="nonzero" fill-opacity="1" /><path clip-path="url(#clip640)" d="M209.26 546.442 Q205.649 546.442 203.82 550.007 Q202.014 553.548 202.014 560.678 Q202.014 567.784 203.82 571.349 Q205.649 574.891 209.26 574.891 Q212.894 574.891 214.699 571.349 Q216.528 567.784 216.528 560.678 Q216.528 553.548 214.699 550.007 Q212.894 546.442 209.26 546.442 M209.26 542.738 Q215.07 542.738 218.125 547.345 Q221.204 551.928 221.204 560.678 Q221.204 569.405 218.125 574.011 Q215.07 578.595 209.26 578.595 Q203.449 578.595 200.371 574.011 Q197.315 569.405 197.315 560.678 Q197.315 551.928 200.371 547.345 Q203.449 542.738 209.26 542.738 Z" fill="#000000" fill-rule="nonzero" fill-opacity="1" /><path clip-path="url(#clip640)" d="M257.593 552.46 L247.014 563.085 L257.593 573.664 L254.838 576.465 L244.213 565.84 L233.588 576.465 L230.857 573.664 L241.412 563.085 L230.857 552.46 L233.588 549.66 L244.213 560.284 L254.838 549.66 L257.593 552.46 Z" fill="#000000" fill-rule="nonzero" fill-opacity="1" /><path clip-path="url(#clip640)" d="M269.954 573.988 L277.593 573.988 L277.593 547.623 L269.282 549.289 L269.282 545.03 L277.546 543.363 L282.222 543.363 L282.222 573.988 L289.861 573.988 L289.861 577.923 L269.954 577.923 L269.954 573.988 Z" fill="#000000" fill-rule="nonzero" fill-opacity="1" /><path clip-path="url(#clip640)" d="M309.305 546.442 Q305.694 546.442 303.866 550.007 Q302.06 553.548 302.06 560.678 Q302.06 567.784 303.866 571.349 Q305.694 574.891 309.305 574.891 Q312.94 574.891 314.745 571.349 Q316.574 567.784 316.574 560.678 Q316.574 553.548 314.745 550.007 Q312.94 546.442 309.305 546.442 M309.305 542.738 Q315.116 542.738 318.171 547.345 Q321.25 551.928 321.25 560.678 Q321.25 569.405 318.171 574.011 Q315.116 578.595 309.305 578.595 Q303.495 578.595 300.417 574.011 Q297.361 569.405 297.361 560.678 Q297.361 551.928 300.417 547.345 Q303.495 542.738 309.305 542.738 Z" fill="#000000" fill-rule="nonzero" fill-opacity="1" /><path clip-path="url(#clip640)" d="M333.926 525.743 L324.334 540.733 L333.926 540.733 L333.926 525.743 M332.929 522.433 L337.707 522.433 L337.707 540.733 L341.713 540.733 L341.713 543.893 L337.707 543.893 L337.707 550.513 L333.926 550.513 L333.926 543.893 L321.25 543.893 L321.25 540.225 L332.929 522.433 Z" fill="#000000" fill-rule="nonzero" fill-opacity="1" /><path clip-path="url(#clip640)" d="M158.056 354.858 L174.376 354.858 L174.376 358.793 L152.431 358.793 L152.431 354.858 Q155.093 352.103 159.677 347.474 Q164.283 342.821 165.464 341.478 Q167.709 338.955 168.589 337.219 Q169.491 335.46 169.491 333.77 Q169.491 331.015 167.547 329.279 Q165.626 327.543 162.524 327.543 Q160.325 327.543 157.871 328.307 Q155.44 329.071 152.663 330.622 L152.663 325.9 Q155.487 324.765 157.94 324.187 Q160.394 323.608 162.431 323.608 Q167.802 323.608 170.996 326.293 Q174.19 328.978 174.19 333.469 Q174.19 335.599 173.38 337.52 Q172.593 339.418 170.487 342.011 Q169.908 342.682 166.806 345.9 Q163.704 349.094 158.056 354.858 Z" fill="#000000" fill-rule="nonzero" fill-opacity="1" /><path clip-path="url(#clip640)" d="M184.19 352.913 L189.075 352.913 L189.075 358.793 L184.19 358.793 L184.19 352.913 Z" fill="#000000" fill-rule="nonzero" fill-opacity="1" /><path clip-path="url(#clip640)" d="M209.26 327.312 Q205.649 327.312 203.82 330.876 Q202.014 334.418 202.014 341.548 Q202.014 348.654 203.82 352.219 Q205.649 355.761 209.26 355.761 Q212.894 355.761 214.699 352.219 Q216.528 348.654 216.528 341.548 Q216.528 334.418 214.699 330.876 Q212.894 327.312 209.26 327.312 M209.26 323.608 Q215.07 323.608 218.125 328.214 Q221.204 332.798 221.204 341.548 Q221.204 350.275 218.125 354.881 Q215.07 359.464 209.26 359.464 Q203.449 359.464 200.371 354.881 Q197.315 350.275 197.315 341.548 Q197.315 332.798 200.371 328.214 Q203.449 323.608 209.26 323.608 Z" fill="#000000" fill-rule="nonzero" fill-opacity="1" /><path clip-path="url(#clip640)" d="M257.593 333.33 L247.014 343.955 L257.593 354.534 L254.838 357.335 L244.213 346.71 L233.588 357.335 L230.857 354.534 L241.412 343.955 L230.857 333.33 L233.588 330.529 L244.213 341.154 L254.838 330.529 L257.593 333.33 Z" fill="#000000" fill-rule="nonzero" fill-opacity="1" /><path clip-path="url(#clip640)" d="M269.954 354.858 L277.593 354.858 L277.593 328.492 L269.282 330.159 L269.282 325.9 L277.546 324.233 L282.222 324.233 L282.222 354.858 L289.861 354.858 L289.861 358.793 L269.954 358.793 L269.954 354.858 Z" fill="#000000" fill-rule="nonzero" fill-opacity="1" /><path clip-path="url(#clip640)" d="M309.305 327.312 Q305.694 327.312 303.866 330.876 Q302.06 334.418 302.06 341.548 Q302.06 348.654 303.866 352.219 Q305.694 355.761 309.305 355.761 Q312.94 355.761 314.745 352.219 Q316.574 348.654 316.574 341.548 Q316.574 334.418 314.745 330.876 Q312.94 327.312 309.305 327.312 M309.305 323.608 Q315.116 323.608 318.171 328.214 Q321.25 332.798 321.25 341.548 Q321.25 350.275 318.171 354.881 Q315.116 359.464 309.305 359.464 Q303.495 359.464 300.417 354.881 Q297.361 350.275 297.361 341.548 Q297.361 332.798 300.417 328.214 Q303.495 323.608 309.305 323.608 Z" fill="#000000" fill-rule="nonzero" fill-opacity="1" /><path clip-path="url(#clip640)" d="M333.926 306.613 L324.334 321.603 L333.926 321.603 L333.926 306.613 M332.929 303.303 L337.707 303.303 L337.707 321.603 L341.713 321.603 L341.713 324.762 L337.707 324.762 L337.707 331.383 L333.926 331.383 L333.926 324.762 L321.25 324.762 L321.25 321.095 L332.929 303.303 Z" fill="#000000" fill-rule="nonzero" fill-opacity="1" /><path clip-path="url(#clip640)" d="M22.818 1217.24 L46.4666 1225.96 L46.4666 1208.49 L22.818 1217.24 M16.4842 1220.87 L16.4842 1213.58 L64.0042 1195.47 L64.0042 1202.15 L51.8138 1206.48 L51.8138 1227.9 L64.0042 1232.23 L64.0042 1239.01 L16.4842 1220.87 Z" fill="#000000" fill-rule="nonzero" fill-opacity="1" /><path clip-path="url(#clip640)" d="M42.4881 1159.15 L64.0042 1159.15 L64.0042 1165.01 L42.679 1165.01 Q37.6183 1165.01 35.1038 1166.98 Q32.5894 1168.95 32.5894 1172.9 Q32.5894 1177.64 35.6131 1180.38 Q38.6368 1183.12 43.8567 1183.12 L64.0042 1183.12 L64.0042 1189.01 L28.3562 1189.01 L28.3562 1183.12 L33.8944 1183.12 Q30.6797 1181.02 29.0883 1178.18 Q27.4968 1175.32 27.4968 1171.6 Q27.4968 1165.45 31.3163 1162.3 Q35.1038 1159.15 42.4881 1159.15 Z" fill="#000000" fill-rule="nonzero" fill-opacity="1" /><path clip-path="url(#clip640)" d="M45.7664 1124.01 Q39.4007 1124.01 35.8996 1126.65 Q32.3984 1129.26 32.3984 1134.01 Q32.3984 1138.72 35.8996 1141.36 Q39.4007 1143.97 45.7664 1143.97 Q52.1003 1143.97 55.6014 1141.36 Q59.1026 1138.72 59.1026 1134.01 Q59.1026 1129.26 55.6014 1126.65 Q52.1003 1124.01 45.7664 1124.01 M59.58 1118.16 Q68.683 1118.16 73.1071 1122.2 Q77.5631 1126.24 77.5631 1134.58 Q77.5631 1137.67 77.0857 1140.4 Q76.6401 1143.14 75.6852 1145.72 L69.9879 1145.72 Q71.3884 1143.14 72.0568 1140.63 Q72.7252 1138.11 72.7252 1135.5 Q72.7252 1129.74 69.7015 1126.88 Q66.7096 1124.01 60.6303 1124.01 L57.7339 1124.01 Q60.885 1125.83 62.4446 1128.66 Q64.0042 1131.49 64.0042 1135.44 Q64.0042 1142 59.0071 1146.01 Q54.01 1150.02 45.7664 1150.02 Q37.491 1150.02 32.4939 1146.01 Q27.4968 1142 27.4968 1135.44 Q27.4968 1131.49 29.0564 1128.66 Q30.616 1125.83 33.7671 1124.01 L28.3562 1124.01 L28.3562 1118.16 L59.58 1118.16 Z" fill="#000000" fill-rule="nonzero" fill-opacity="1" /><path clip-path="url(#clip640)" d="M49.9359 1106.7 L28.3562 1106.7 L28.3562 1100.84 L49.7131 1100.84 Q54.7739 1100.84 57.3202 1098.87 Q59.8346 1096.89 59.8346 1092.95 Q59.8346 1088.21 56.8109 1085.47 Q53.7872 1082.7 48.5673 1082.7 L28.3562 1082.7 L28.3562 1076.84 L64.0042 1076.84 L64.0042 1082.7 L58.5296 1082.7 Q61.7762 1084.83 63.3676 1087.66 Q64.9272 1090.47 64.9272 1094.19 Q64.9272 1100.33 61.1078 1103.52 Q57.2883 1106.7 49.9359 1106.7 M27.4968 1091.96 L27.4968 1091.96 Z" fill="#000000" fill-rule="nonzero" fill-opacity="1" /><path clip-path="url(#clip640)" d="M14.479 1064.78 L14.479 1058.92 L64.0042 1058.92 L64.0042 1064.78 L14.479 1064.78 Z" fill="#000000" fill-rule="nonzero" fill-opacity="1" /><path clip-path="url(#clip640)" d="M46.0847 1030.47 Q46.0847 1037.57 47.7079 1040.3 Q49.3312 1043.04 53.2461 1043.04 Q56.3653 1043.04 58.2114 1041 Q60.0256 1038.94 60.0256 1035.4 Q60.0256 1030.53 56.5881 1027.6 Q53.1188 1024.64 47.3897 1024.64 L46.0847 1024.64 L46.0847 1030.47 M43.6657 1018.79 L64.0042 1018.79 L64.0042 1024.64 L58.5933 1024.64 Q61.8398 1026.65 63.3994 1029.64 Q64.9272 1032.63 64.9272 1036.96 Q64.9272 1042.44 61.8716 1045.68 Q58.7843 1048.9 53.6281 1048.9 Q47.6125 1048.9 44.5569 1044.89 Q41.5014 1040.84 41.5014 1032.86 L41.5014 1024.64 L40.9285 1024.64 Q36.8862 1024.64 34.6901 1027.32 Q32.4621 1029.96 32.4621 1034.77 Q32.4621 1037.82 33.1941 1040.72 Q33.9262 1043.61 35.3903 1046.29 L29.9795 1046.29 Q28.7381 1043.07 28.1334 1040.05 Q27.4968 1037.03 27.4968 1034.16 Q27.4968 1026.43 31.5072 1022.61 Q35.5176 1018.79 43.6657 1018.79 Z" fill="#000000" fill-rule="nonzero" fill-opacity="1" /><path clip-path="url(#clip640)" d="M33.8307 986.068 Q33.2578 987.055 33.0032 988.232 Q32.7167 989.378 32.7167 990.779 Q32.7167 995.744 35.9632 998.417 Q39.1779 1001.06 45.2253 1001.06 L64.0042 1001.06 L64.0042 1006.95 L28.3562 1006.95 L28.3562 1001.06 L33.8944 1001.06 Q30.6479 999.213 29.0883 996.253 Q27.4968 993.293 27.4968 989.06 Q27.4968 988.455 27.5923 987.723 Q27.656 986.991 27.8151 986.1 L33.8307 986.068 Z" fill="#000000" fill-rule="nonzero" fill-opacity="1" /><path clip-path="url(#clip640)" d="M46.0847 943.004 Q46.0847 950.102 47.7079 952.839 Q49.3312 955.576 53.2461 955.576 Q56.3653 955.576 58.2114 953.539 Q60.0256 951.47 60.0256 947.937 Q60.0256 943.068 56.5881 940.139 Q53.1188 937.179 47.3897 937.179 L46.0847 937.179 L46.0847 943.004 M43.6657 931.323 L64.0042 931.323 L64.0042 937.179 L58.5933 937.179 Q61.8398 939.184 63.3994 942.176 Q64.9272 945.168 64.9272 949.497 Q64.9272 954.971 61.8716 958.218 Q58.7843 961.433 53.6281 961.433 Q47.6125 961.433 44.5569 957.422 Q41.5014 953.38 41.5014 945.391 L41.5014 937.179 L40.9285 937.179 Q36.8862 937.179 34.6901 939.853 Q32.4621 942.495 32.4621 947.301 Q32.4621 950.356 33.1941 953.253 Q33.9262 956.149 35.3903 958.823 L29.9795 958.823 Q28.7381 955.608 28.1334 952.584 Q27.4968 949.561 27.4968 946.696 Q27.4968 938.962 31.5072 935.142 Q35.5176 931.323 43.6657 931.323 Z" fill="#000000" fill-rule="nonzero" fill-opacity="1" /><path clip-path="url(#clip640)" d="M29.7248 893.606 L35.1993 893.606 Q33.8307 896.089 33.1623 898.603 Q32.4621 901.086 32.4621 903.632 Q32.4621 909.329 36.0905 912.48 Q39.6872 915.631 46.212 915.631 Q52.7369 915.631 56.3653 912.48 Q59.9619 909.329 59.9619 903.632 Q59.9619 901.086 59.2935 898.603 Q58.5933 896.089 57.2247 893.606 L62.6355 893.606 Q63.7814 896.057 64.3543 898.699 Q64.9272 901.309 64.9272 904.269 Q64.9272 912.321 59.8664 917.064 Q54.8057 921.806 46.212 921.806 Q37.491 921.806 32.4939 917.032 Q27.4968 912.226 27.4968 903.887 Q27.4968 901.181 28.0697 898.603 Q28.6108 896.025 29.7248 893.606 Z" fill="#000000" fill-rule="nonzero" fill-opacity="1" /><path clip-path="url(#clip640)" d="M29.7248 857.767 L35.1993 857.767 Q33.8307 860.25 33.1623 862.764 Q32.4621 865.247 32.4621 867.793 Q32.4621 873.49 36.0905 876.641 Q39.6872 879.792 46.212 879.792 Q52.7369 879.792 56.3653 876.641 Q59.9619 873.49 59.9619 867.793 Q59.9619 865.247 59.2935 862.764 Q58.5933 860.25 57.2247 857.767 L62.6355 857.767 Q63.7814 860.218 64.3543 862.86 Q64.9272 865.47 64.9272 868.43 Q64.9272 876.482 59.8664 881.225 Q54.8057 885.967 46.212 885.967 Q37.491 885.967 32.4939 881.193 Q27.4968 876.387 27.4968 868.048 Q27.4968 865.342 28.0697 862.764 Q28.6108 860.186 29.7248 857.767 Z" fill="#000000" fill-rule="nonzero" fill-opacity="1" /><path clip-path="url(#clip640)" d="M44.7161 817.09 L47.5806 817.09 L47.5806 844.017 Q53.6281 843.635 56.8109 840.389 Q59.9619 837.11 59.9619 831.286 Q59.9619 827.912 59.1344 824.761 Q58.3069 821.578 56.6518 818.459 L62.1899 818.459 Q63.5267 821.61 64.227 824.92 Q64.9272 828.23 64.9272 831.636 Q64.9272 840.166 59.9619 845.163 Q54.9967 850.128 46.5303 850.128 Q37.7774 850.128 32.6531 845.418 Q27.4968 840.675 27.4968 832.654 Q27.4968 825.461 32.1438 821.292 Q36.7589 817.09 44.7161 817.09 M42.9973 822.947 Q38.1912 823.01 35.3266 825.652 Q32.4621 828.262 32.4621 832.591 Q32.4621 837.492 35.2312 840.452 Q38.0002 843.381 43.0292 843.826 L42.9973 822.947 Z" fill="#000000" fill-rule="nonzero" fill-opacity="1" /><path clip-path="url(#clip640)" d="M14.479 807.478 L14.479 801.622 L64.0042 801.622 L64.0042 807.478 L14.479 807.478 Z" fill="#000000" fill-rule="nonzero" fill-opacity="1" /><path clip-path="url(#clip640)" d="M44.7161 758.876 L47.5806 758.876 L47.5806 785.803 Q53.6281 785.421 56.8109 782.174 Q59.9619 778.896 59.9619 773.071 Q59.9619 769.698 59.1344 766.547 Q58.3069 763.364 56.6518 760.244 L62.1899 760.244 Q63.5267 763.395 64.227 766.706 Q64.9272 770.016 64.9272 773.421 Q64.9272 781.952 59.9619 786.949 Q54.9967 791.914 46.5303 791.914 Q37.7774 791.914 32.6531 787.203 Q27.4968 782.461 27.4968 774.44 Q27.4968 767.247 32.1438 763.077 Q36.7589 758.876 44.7161 758.876 M42.9973 764.732 Q38.1912 764.796 35.3266 767.438 Q32.4621 770.048 32.4621 774.376 Q32.4621 779.278 35.2312 782.238 Q38.0002 785.166 43.0292 785.612 L42.9973 764.732 Z" fill="#000000" fill-rule="nonzero" fill-opacity="1" /><path clip-path="url(#clip640)" d="M33.8307 728.607 Q33.2578 729.594 33.0032 730.771 Q32.7167 731.917 32.7167 733.318 Q32.7167 738.283 35.9632 740.956 Q39.1779 743.598 45.2253 743.598 L64.0042 743.598 L64.0042 749.486 L28.3562 749.486 L28.3562 743.598 L33.8944 743.598 Q30.6479 741.752 29.0883 738.792 Q27.4968 735.832 27.4968 731.599 Q27.4968 730.994 27.5923 730.262 Q27.656 729.53 27.8151 728.639 L33.8307 728.607 Z" fill="#000000" fill-rule="nonzero" fill-opacity="1" /><path clip-path="url(#clip640)" d="M46.0847 706.263 Q46.0847 713.361 47.7079 716.098 Q49.3312 718.836 53.2461 718.836 Q56.3653 718.836 58.2114 716.799 Q60.0256 714.73 60.0256 711.197 Q60.0256 706.327 56.5881 703.399 Q53.1188 700.439 47.3897 700.439 L46.0847 700.439 L46.0847 706.263 M43.6657 694.582 L64.0042 694.582 L64.0042 700.439 L58.5933 700.439 Q61.8398 702.444 63.3994 705.436 Q64.9272 708.428 64.9272 712.756 Q64.9272 718.231 61.8716 721.477 Q58.7843 724.692 53.6281 724.692 Q47.6125 724.692 44.5569 720.682 Q41.5014 716.639 41.5014 708.65 L41.5014 700.439 L40.9285 700.439 Q36.8862 700.439 34.6901 703.112 Q32.4621 705.754 32.4621 710.56 Q32.4621 713.616 33.1941 716.512 Q33.9262 719.408 35.3903 722.082 L29.9795 722.082 Q28.7381 718.867 28.1334 715.844 Q27.4968 712.82 27.4968 709.955 Q27.4968 702.221 31.5072 698.402 Q35.5176 694.582 43.6657 694.582 Z" fill="#000000" fill-rule="nonzero" fill-opacity="1" /><path clip-path="url(#clip640)" d="M18.2347 676.726 L28.3562 676.726 L28.3562 664.663 L32.9077 664.663 L32.9077 676.726 L52.2594 676.726 Q56.6199 676.726 57.8613 675.549 Q59.1026 674.339 59.1026 670.679 L59.1026 664.663 L64.0042 664.663 L64.0042 670.679 Q64.0042 677.458 61.4897 680.037 Q58.9434 682.615 52.2594 682.615 L32.9077 682.615 L32.9077 686.912 L28.3562 686.912 L28.3562 682.615 L18.2347 682.615 L18.2347 676.726 Z" fill="#000000" fill-rule="nonzero" fill-opacity="1" /><path clip-path="url(#clip640)" d="M28.3562 656.961 L28.3562 651.104 L64.0042 651.104 L64.0042 656.961 L28.3562 656.961 M14.479 656.961 L14.479 651.104 L21.895 651.104 L21.895 656.961 L14.479 656.961 Z" fill="#000000" fill-rule="nonzero" fill-opacity="1" /><path clip-path="url(#clip640)" d="M32.4621 625.037 Q32.4621 629.747 36.1542 632.485 Q39.8145 635.222 46.212 635.222 Q52.6095 635.222 56.3017 632.517 Q59.9619 629.779 59.9619 625.037 Q59.9619 620.358 56.2698 617.621 Q52.5777 614.884 46.212 614.884 Q39.8781 614.884 36.186 617.621 Q32.4621 620.358 32.4621 625.037 M27.4968 625.037 Q27.4968 617.398 32.4621 613.037 Q37.4273 608.677 46.212 608.677 Q54.9649 608.677 59.9619 613.037 Q64.9272 617.398 64.9272 625.037 Q64.9272 632.708 59.9619 637.068 Q54.9649 641.397 46.212 641.397 Q37.4273 641.397 32.4621 637.068 Q27.4968 632.708 27.4968 625.037 Z" fill="#000000" fill-rule="nonzero" fill-opacity="1" /><path clip-path="url(#clip640)" d="M42.4881 569.337 L64.0042 569.337 L64.0042 575.193 L42.679 575.193 Q37.6183 575.193 35.1038 577.167 Q32.5894 579.14 32.5894 583.087 Q32.5894 587.829 35.6131 590.567 Q38.6368 593.304 43.8567 593.304 L64.0042 593.304 L64.0042 599.192 L28.3562 599.192 L28.3562 593.304 L33.8944 593.304 Q30.6797 591.203 29.0883 588.37 Q27.4968 585.506 27.4968 581.782 Q27.4968 575.639 31.3163 572.488 Q35.1038 569.337 42.4881 569.337 Z" fill="#000000" fill-rule="nonzero" fill-opacity="1" /><path clip-path="url(#clip640)" d="M14.5426 522.867 Q21.8632 527.132 29.0246 529.201 Q36.186 531.27 43.5384 531.27 Q50.8908 531.27 58.1159 529.201 Q65.3091 527.1 72.5979 522.867 L72.5979 527.96 Q65.1182 532.734 57.8931 535.121 Q50.668 537.477 43.5384 537.477 Q36.4406 537.477 29.2474 535.121 Q22.0542 532.766 14.5426 527.96 L14.5426 522.867 Z" fill="#000000" fill-rule="nonzero" fill-opacity="1" /><path clip-path="url(#clip640)" d="M33.8307 490.848 Q33.2578 491.834 33.0032 493.012 Q32.7167 494.158 32.7167 495.558 Q32.7167 500.524 35.9632 503.197 Q39.1779 505.839 45.2253 505.839 L64.0042 505.839 L64.0042 511.727 L28.3562 511.727 L28.3562 505.839 L33.8944 505.839 Q30.6479 503.993 29.0883 501.033 Q27.4968 498.073 27.4968 493.84 Q27.4968 493.235 27.5923 492.503 Q27.656 491.771 27.8151 490.88 L33.8307 490.848 Z" fill="#000000" fill-rule="nonzero" fill-opacity="1" /><path clip-path="url(#clip640)" d="M46.0847 468.504 Q46.0847 475.602 47.7079 478.339 Q49.3312 481.076 53.2461 481.076 Q56.3653 481.076 58.2114 479.039 Q60.0256 476.971 60.0256 473.438 Q60.0256 468.568 56.5881 465.64 Q53.1188 462.68 47.3897 462.68 L46.0847 462.68 L46.0847 468.504 M43.6657 456.823 L64.0042 456.823 L64.0042 462.68 L58.5933 462.68 Q61.8398 464.685 63.3994 467.677 Q64.9272 470.668 64.9272 474.997 Q64.9272 480.472 61.8716 483.718 Q58.7843 486.933 53.6281 486.933 Q47.6125 486.933 44.5569 482.922 Q41.5014 478.88 41.5014 470.891 L41.5014 462.68 L40.9285 462.68 Q36.8862 462.68 34.6901 465.353 Q32.4621 467.995 32.4621 472.801 Q32.4621 475.857 33.1941 478.753 Q33.9262 481.649 35.3903 484.323 L29.9795 484.323 Q28.7381 481.108 28.1334 478.085 Q27.4968 475.061 27.4968 472.196 Q27.4968 464.462 31.5072 460.642 Q35.5176 456.823 43.6657 456.823 Z" fill="#000000" fill-rule="nonzero" fill-opacity="1" /><path clip-path="url(#clip640)" d="M33.7671 421.302 L14.479 421.302 L14.479 415.446 L64.0042 415.446 L64.0042 421.302 L58.657 421.302 Q61.8398 423.148 63.3994 425.981 Q64.9272 428.782 64.9272 432.729 Q64.9272 439.19 59.771 443.264 Q54.6147 447.306 46.212 447.306 Q37.8093 447.306 32.6531 443.264 Q27.4968 439.19 27.4968 432.729 Q27.4968 428.782 29.0564 425.981 Q30.5842 423.148 33.7671 421.302 M46.212 441.259 Q52.6732 441.259 56.3653 438.617 Q60.0256 435.944 60.0256 431.297 Q60.0256 426.65 56.3653 423.976 Q52.6732 421.302 46.212 421.302 Q39.7508 421.302 36.0905 423.976 Q32.3984 426.65 32.3984 431.297 Q32.3984 435.944 36.0905 438.617 Q39.7508 441.259 46.212 441.259 Z" fill="#000000" fill-rule="nonzero" fill-opacity="1" /><path clip-path="url(#clip640)" d="M16.4842 392.975 L16.4842 387.564 L70.0516 404.115 L70.0516 409.526 L16.4842 392.975 Z" fill="#000000" fill-rule="nonzero" fill-opacity="1" /><path clip-path="url(#clip640)" d="M29.4065 358.696 L34.9447 358.696 Q33.6716 361.178 33.035 363.852 Q32.3984 366.526 32.3984 369.39 Q32.3984 373.751 33.7352 375.947 Q35.072 378.111 37.7456 378.111 Q39.7826 378.111 40.9603 376.551 Q42.1061 374.992 43.1565 370.281 L43.6021 368.276 Q44.9389 362.038 47.3897 359.428 Q49.8086 356.786 54.1691 356.786 Q59.1344 356.786 62.0308 360.733 Q64.9272 364.648 64.9272 371.523 Q64.9272 374.387 64.3543 377.506 Q63.8132 380.594 62.6992 384.031 L56.6518 384.031 Q58.3387 380.785 59.198 377.634 Q60.0256 374.483 60.0256 371.395 Q60.0256 367.258 58.6251 365.03 Q57.1929 362.802 54.6147 362.802 Q52.2276 362.802 50.9545 364.425 Q49.6813 366.016 48.5037 371.459 L48.0262 373.496 Q46.8804 378.939 44.5251 381.358 Q42.138 383.777 38.0002 383.777 Q32.9713 383.777 30.2341 380.212 Q27.4968 376.647 27.4968 370.09 Q27.4968 366.844 27.9743 363.979 Q28.4517 361.115 29.4065 358.696 Z" fill="#000000" fill-rule="nonzero" fill-opacity="1" /><path clip-path="url(#clip640)" d="M39.1142 345.073 L39.1142 331.578 L42.7427 331.578 L42.7427 350.611 L39.2416 350.611 Q38.2549 349.529 36.4725 347.524 Q26.7648 336.575 23.7729 336.575 Q21.6722 336.575 20.3991 338.23 Q19.0941 339.885 19.0941 342.59 Q19.0941 344.246 19.667 346.187 Q20.2081 348.129 21.3221 350.42 L17.4072 350.42 Q16.516 347.969 16.0704 345.869 Q15.6248 343.736 15.6248 341.922 Q15.6248 337.307 17.7255 334.538 Q19.8262 331.769 23.2636 331.769 Q27.6878 331.769 36.7271 342.304 Q38.2549 344.086 39.1142 345.073 Z" fill="#000000" fill-rule="nonzero" fill-opacity="1" /><path clip-path="url(#clip640)" d="M14.5426 322.252 L14.5426 317.159 Q22.0542 312.385 29.2474 310.03 Q36.4406 307.643 43.5384 307.643 Q50.668 307.643 57.8931 310.03 Q65.1182 312.385 72.5979 317.159 L72.5979 322.252 Q65.3091 318.019 58.1159 315.95 Q50.8908 313.849 43.5384 313.849 Q36.186 313.849 29.0246 315.95 Q21.8632 318.019 14.5426 322.252 Z" fill="#000000" fill-rule="nonzero" fill-opacity="1" /><path clip-path="url(#clip640)" d="M489.672 20.1573 L478.572 50.2555 L500.812 50.2555 L489.672 20.1573 M485.054 12.096 L494.33 12.096 L517.38 72.576 L508.873 72.576 L503.364 57.061 L476.101 57.061 L470.592 72.576 L461.964 72.576 L485.054 12.096 Z" fill="#000000" fill-rule="nonzero" fill-opacity="1" /><path clip-path="url(#clip640)" d="M563.601 45.1919 L563.601 72.576 L556.147 72.576 L556.147 45.4349 Q556.147 38.994 553.636 35.7938 Q551.124 32.5936 546.101 32.5936 Q540.065 32.5936 536.581 36.4419 Q533.098 40.2903 533.098 46.9338 L533.098 72.576 L525.603 72.576 L525.603 27.2059 L533.098 27.2059 L533.098 34.2544 Q535.771 30.163 539.376 28.1376 Q543.022 26.1121 547.762 26.1121 Q555.58 26.1121 559.59 30.9732 Q563.601 35.7938 563.601 45.1919 Z" fill="#000000" fill-rule="nonzero" fill-opacity="1" /><path clip-path="url(#clip640)" d="M608.323 49.3643 Q608.323 41.2625 604.961 36.8065 Q601.639 32.3505 595.603 32.3505 Q589.608 32.3505 586.245 36.8065 Q582.924 41.2625 582.924 49.3643 Q582.924 57.4256 586.245 61.8816 Q589.608 66.3376 595.603 66.3376 Q601.639 66.3376 604.961 61.8816 Q608.323 57.4256 608.323 49.3643 M615.776 66.9452 Q615.776 78.5308 610.632 84.1616 Q605.487 89.8329 594.874 89.8329 Q590.944 89.8329 587.461 89.2252 Q583.977 88.6581 580.696 87.4428 L580.696 80.1917 Q583.977 81.9741 587.177 82.8248 Q590.377 83.6755 593.699 83.6755 Q601.031 83.6755 604.677 79.8271 Q608.323 76.0193 608.323 68.282 L608.323 64.5957 Q606.014 68.6061 602.409 70.5911 Q598.803 72.576 593.78 72.576 Q585.435 72.576 580.331 66.2161 Q575.227 59.8562 575.227 49.3643 Q575.227 38.832 580.331 32.472 Q585.435 26.1121 593.78 26.1121 Q598.803 26.1121 602.409 28.0971 Q606.014 30.082 608.323 34.0924 L608.323 27.2059 L615.776 27.2059 L615.776 66.9452 Z" fill="#000000" fill-rule="nonzero" fill-opacity="1" /><path clip-path="url(#clip640)" d="M630.36 54.671 L630.36 27.2059 L637.813 27.2059 L637.813 54.3874 Q637.813 60.8284 640.325 64.0691 Q642.837 67.2693 647.86 67.2693 Q653.895 67.2693 657.379 63.421 Q660.904 59.5726 660.904 52.9291 L660.904 27.2059 L668.357 27.2059 L668.357 72.576 L660.904 72.576 L660.904 65.6084 Q658.189 69.7404 654.584 71.7658 Q651.019 73.7508 646.28 73.7508 Q638.462 73.7508 634.411 68.8897 Q630.36 64.0286 630.36 54.671 M649.115 26.1121 L649.115 26.1121 Z" fill="#000000" fill-rule="nonzero" fill-opacity="1" /><path clip-path="url(#clip640)" d="M683.71 9.54393 L691.164 9.54393 L691.164 72.576 L683.71 72.576 L683.71 9.54393 Z" fill="#000000" fill-rule="nonzero" fill-opacity="1" /><path clip-path="url(#clip640)" d="M727.379 49.7694 Q718.345 49.7694 714.862 51.8354 Q711.378 53.9013 711.378 58.8839 Q711.378 62.8538 713.97 65.2034 Q716.603 67.5124 721.1 67.5124 Q727.298 67.5124 731.025 63.1374 Q734.792 58.7219 734.792 51.4303 L734.792 49.7694 L727.379 49.7694 M742.246 46.6907 L742.246 72.576 L734.792 72.576 L734.792 65.6895 Q732.24 69.8214 728.432 71.8063 Q724.624 73.7508 719.115 73.7508 Q712.147 73.7508 708.016 69.8619 Q703.924 65.9325 703.924 59.3701 Q703.924 51.7138 709.028 47.825 Q714.173 43.9361 724.341 43.9361 L734.792 43.9361 L734.792 43.2069 Q734.792 38.0623 731.389 35.2672 Q728.027 32.4315 721.91 32.4315 Q718.021 32.4315 714.335 33.3632 Q710.649 34.295 707.246 36.1584 L707.246 29.2718 Q711.337 27.692 715.186 26.9223 Q719.034 26.1121 722.68 26.1121 Q732.524 26.1121 737.385 31.2163 Q742.246 36.3204 742.246 46.6907 Z" fill="#000000" fill-rule="nonzero" fill-opacity="1" /><path clip-path="url(#clip640)" d="M783.889 34.1734 Q782.633 33.4443 781.134 33.1202 Q779.676 32.7556 777.894 32.7556 Q771.574 32.7556 768.172 36.8875 Q764.809 40.9789 764.809 48.6757 L764.809 72.576 L757.315 72.576 L757.315 27.2059 L764.809 27.2059 L764.809 34.2544 Q767.159 30.1225 770.926 28.1376 Q774.693 26.1121 780.081 26.1121 Q780.851 26.1121 781.783 26.2337 Q782.714 26.3147 783.849 26.5172 L783.889 34.1734 Z" fill="#000000" fill-rule="nonzero" fill-opacity="1" /><path clip-path="url(#clip640)" d="M838.617 20.1573 L827.517 50.2555 L849.757 50.2555 L838.617 20.1573 M833.999 12.096 L843.275 12.096 L866.325 72.576 L857.818 72.576 L852.309 57.061 L825.046 57.061 L819.537 72.576 L810.909 72.576 L833.999 12.096 Z" fill="#000000" fill-rule="nonzero" fill-opacity="1" /><path clip-path="url(#clip640)" d="M906.024 28.9478 L906.024 35.9153 Q902.864 34.1734 899.664 33.3227 Q896.504 32.4315 893.263 32.4315 Q886.012 32.4315 882.002 37.0496 Q877.992 41.6271 877.992 49.9314 Q877.992 58.2358 882.002 62.8538 Q886.012 67.4314 893.263 67.4314 Q896.504 67.4314 899.664 66.5807 Q902.864 65.6895 906.024 63.9476 L906.024 70.8341 Q902.905 72.2924 899.542 73.0216 Q896.221 73.7508 892.453 73.7508 Q882.204 73.7508 876.169 67.3098 Q870.133 60.8689 870.133 49.9314 Q870.133 38.832 876.209 32.472 Q882.326 26.1121 892.939 26.1121 Q896.383 26.1121 899.664 26.8413 Q902.945 27.5299 906.024 28.9478 Z" fill="#000000" fill-rule="nonzero" fill-opacity="1" /><path clip-path="url(#clip640)" d="M951.637 28.9478 L951.637 35.9153 Q948.477 34.1734 945.277 33.3227 Q942.117 32.4315 938.877 32.4315 Q931.625 32.4315 927.615 37.0496 Q923.605 41.6271 923.605 49.9314 Q923.605 58.2358 927.615 62.8538 Q931.625 67.4314 938.877 67.4314 Q942.117 67.4314 945.277 66.5807 Q948.477 65.6895 951.637 63.9476 L951.637 70.8341 Q948.518 72.2924 945.156 73.0216 Q941.834 73.7508 938.066 73.7508 Q927.818 73.7508 921.782 67.3098 Q915.746 60.8689 915.746 49.9314 Q915.746 38.832 921.822 32.472 Q927.939 26.1121 938.553 26.1121 Q941.996 26.1121 945.277 26.8413 Q948.558 27.5299 951.637 28.9478 Z" fill="#000000" fill-rule="nonzero" fill-opacity="1" /><path clip-path="url(#clip640)" d="M1003.41 48.0275 L1003.41 51.6733 L969.137 51.6733 Q969.623 59.3701 973.755 63.421 Q977.927 67.4314 985.34 67.4314 Q989.634 67.4314 993.645 66.3781 Q997.696 65.3249 1001.67 63.2184 L1001.67 70.267 Q997.655 71.9684 993.442 72.8596 Q989.229 73.7508 984.895 73.7508 Q974.038 73.7508 967.679 67.4314 Q961.359 61.1119 961.359 50.3365 Q961.359 39.1965 967.354 32.6746 Q973.39 26.1121 983.599 26.1121 Q992.754 26.1121 998.06 32.0264 Q1003.41 37.9003 1003.41 48.0275 M995.954 45.84 Q995.873 39.7232 992.511 36.0774 Q989.189 32.4315 983.68 32.4315 Q977.441 32.4315 973.674 35.9558 Q969.947 39.4801 969.38 45.8805 L995.954 45.84 Z" fill="#000000" fill-rule="nonzero" fill-opacity="1" /><path clip-path="url(#clip640)" d="M1015.64 9.54393 L1023.09 9.54393 L1023.09 72.576 L1015.64 72.576 L1015.64 9.54393 Z" fill="#000000" fill-rule="nonzero" fill-opacity="1" /><path clip-path="url(#clip640)" d="M1077.5 48.0275 L1077.5 51.6733 L1043.23 51.6733 Q1043.71 59.3701 1047.85 63.421 Q1052.02 67.4314 1059.43 67.4314 Q1063.73 67.4314 1067.74 66.3781 Q1071.79 65.3249 1075.76 63.2184 L1075.76 70.267 Q1071.75 71.9684 1067.53 72.8596 Q1063.32 73.7508 1058.99 73.7508 Q1048.13 73.7508 1041.77 67.4314 Q1035.45 61.1119 1035.45 50.3365 Q1035.45 39.1965 1041.45 32.6746 Q1047.48 26.1121 1057.69 26.1121 Q1066.84 26.1121 1072.15 32.0264 Q1077.5 37.9003 1077.5 48.0275 M1070.04 45.84 Q1069.96 39.7232 1066.6 36.0774 Q1063.28 32.4315 1057.77 32.4315 Q1051.53 32.4315 1047.76 35.9558 Q1044.04 39.4801 1043.47 45.8805 L1070.04 45.84 Z" fill="#000000" fill-rule="nonzero" fill-opacity="1" /><path clip-path="url(#clip640)" d="M1116.02 34.1734 Q1114.77 33.4443 1113.27 33.1202 Q1111.81 32.7556 1110.03 32.7556 Q1103.71 32.7556 1100.31 36.8875 Q1096.94 40.9789 1096.94 48.6757 L1096.94 72.576 L1089.45 72.576 L1089.45 27.2059 L1096.94 27.2059 L1096.94 34.2544 Q1099.29 30.1225 1103.06 28.1376 Q1106.83 26.1121 1112.21 26.1121 Q1112.98 26.1121 1113.92 26.2337 Q1114.85 26.3147 1115.98 26.5172 L1116.02 34.1734 Z" fill="#000000" fill-rule="nonzero" fill-opacity="1" /><path clip-path="url(#clip640)" d="M1144.46 49.7694 Q1135.43 49.7694 1131.94 51.8354 Q1128.46 53.9013 1128.46 58.8839 Q1128.46 62.8538 1131.05 65.2034 Q1133.68 67.5124 1138.18 67.5124 Q1144.38 67.5124 1148.11 63.1374 Q1151.87 58.7219 1151.87 51.4303 L1151.87 49.7694 L1144.46 49.7694 M1159.33 46.6907 L1159.33 72.576 L1151.87 72.576 L1151.87 65.6895 Q1149.32 69.8214 1145.51 71.8063 Q1141.71 73.7508 1136.2 73.7508 Q1129.23 73.7508 1125.1 69.8619 Q1121.01 65.9325 1121.01 59.3701 Q1121.01 51.7138 1126.11 47.825 Q1131.25 43.9361 1141.42 43.9361 L1151.87 43.9361 L1151.87 43.2069 Q1151.87 38.0623 1148.47 35.2672 Q1145.11 32.4315 1138.99 32.4315 Q1135.1 32.4315 1131.42 33.3632 Q1127.73 34.295 1124.33 36.1584 L1124.33 29.2718 Q1128.42 27.692 1132.27 26.9223 Q1136.12 26.1121 1139.76 26.1121 Q1149.6 26.1121 1154.47 31.2163 Q1159.33 36.3204 1159.33 46.6907 Z" fill="#000000" fill-rule="nonzero" fill-opacity="1" /><path clip-path="url(#clip640)" d="M1182.05 14.324 L1182.05 27.2059 L1197.41 27.2059 L1197.41 32.9987 L1182.05 32.9987 L1182.05 57.6282 Q1182.05 63.1779 1183.55 64.7578 Q1185.09 66.3376 1189.75 66.3376 L1197.41 66.3376 L1197.41 72.576 L1189.75 72.576 Q1181.12 72.576 1177.84 69.3758 Q1174.56 66.1351 1174.56 57.6282 L1174.56 32.9987 L1169.09 32.9987 L1169.09 27.2059 L1174.56 27.2059 L1174.56 14.324 L1182.05 14.324 Z" fill="#000000" fill-rule="nonzero" fill-opacity="1" /><path clip-path="url(#clip640)" d="M1207.21 27.2059 L1214.66 27.2059 L1214.66 72.576 L1207.21 72.576 L1207.21 27.2059 M1207.21 9.54393 L1214.66 9.54393 L1214.66 18.9825 L1207.21 18.9825 L1207.21 9.54393 Z" fill="#000000" fill-rule="nonzero" fill-opacity="1" /><path clip-path="url(#clip640)" d="M1247.84 32.4315 Q1241.84 32.4315 1238.36 37.1306 Q1234.88 41.7891 1234.88 49.9314 Q1234.88 58.0738 1238.32 62.7728 Q1241.8 67.4314 1247.84 67.4314 Q1253.79 67.4314 1257.28 62.7323 Q1260.76 58.0333 1260.76 49.9314 Q1260.76 41.8701 1257.28 37.1711 Q1253.79 32.4315 1247.84 32.4315 M1247.84 26.1121 Q1257.56 26.1121 1263.11 32.4315 Q1268.66 38.7509 1268.66 49.9314 Q1268.66 61.0714 1263.11 67.4314 Q1257.56 73.7508 1247.84 73.7508 Q1238.08 73.7508 1232.53 67.4314 Q1227.02 61.0714 1227.02 49.9314 Q1227.02 38.7509 1232.53 32.4315 Q1238.08 26.1121 1247.84 26.1121 Z" fill="#000000" fill-rule="nonzero" fill-opacity="1" /><path clip-path="url(#clip640)" d="M1318.73 45.1919 L1318.73 72.576 L1311.28 72.576 L1311.28 45.4349 Q1311.28 38.994 1308.76 35.7938 Q1306.25 32.5936 1301.23 32.5936 Q1295.19 32.5936 1291.71 36.4419 Q1288.23 40.2903 1288.23 46.9338 L1288.23 72.576 L1280.73 72.576 L1280.73 27.2059 L1288.23 27.2059 L1288.23 34.2544 Q1290.9 30.163 1294.51 28.1376 Q1298.15 26.1121 1302.89 26.1121 Q1310.71 26.1121 1314.72 30.9732 Q1318.73 35.7938 1318.73 45.1919 Z" fill="#000000" fill-rule="nonzero" fill-opacity="1" /><path clip-path="url(#clip640)" d="M1377.55 32.4315 Q1371.55 32.4315 1368.07 37.1306 Q1364.59 41.7891 1364.59 49.9314 Q1364.59 58.0738 1368.03 62.7728 Q1371.51 67.4314 1377.55 67.4314 Q1383.5 67.4314 1386.99 62.7323 Q1390.47 58.0333 1390.47 49.9314 Q1390.47 41.8701 1386.99 37.1711 Q1383.5 32.4315 1377.55 32.4315 M1377.55 26.1121 Q1387.27 26.1121 1392.82 32.4315 Q1398.37 38.7509 1398.37 49.9314 Q1398.37 61.0714 1392.82 67.4314 Q1387.27 73.7508 1377.55 73.7508 Q1367.79 73.7508 1362.24 67.4314 Q1356.73 61.0714 1356.73 49.9314 Q1356.73 38.7509 1362.24 32.4315 Q1367.79 26.1121 1377.55 26.1121 Z" fill="#000000" fill-rule="nonzero" fill-opacity="1" /><path clip-path="url(#clip640)" d="M1433.69 9.54393 L1433.69 15.7418 L1426.56 15.7418 Q1422.55 15.7418 1420.97 17.3622 Q1419.44 18.9825 1419.44 23.1955 L1419.44 27.2059 L1431.71 27.2059 L1431.71 32.9987 L1419.44 32.9987 L1419.44 72.576 L1411.94 72.576 L1411.94 32.9987 L1404.81 32.9987 L1404.81 27.2059 L1411.94 27.2059 L1411.94 24.0462 Q1411.94 16.471 1415.47 13.0277 Q1418.99 9.54393 1426.65 9.54393 L1433.69 9.54393 Z" fill="#000000" fill-rule="nonzero" fill-opacity="1" /><path clip-path="url(#clip640)" d="M1473.68 14.324 L1473.68 27.2059 L1489.03 27.2059 L1489.03 32.9987 L1473.68 32.9987 L1473.68 57.6282 Q1473.68 63.1779 1475.18 64.7578 Q1476.72 66.3376 1481.37 66.3376 L1489.03 66.3376 L1489.03 72.576 L1481.37 72.576 Q1472.75 72.576 1469.46 69.3758 Q1466.18 66.1351 1466.18 57.6282 L1466.18 32.9987 L1460.71 32.9987 L1460.71 27.2059 L1466.18 27.2059 L1466.18 14.324 L1473.68 14.324 Z" fill="#000000" fill-rule="nonzero" fill-opacity="1" /><path clip-path="url(#clip640)" d="M1536.55 45.1919 L1536.55 72.576 L1529.09 72.576 L1529.09 45.4349 Q1529.09 38.994 1526.58 35.7938 Q1524.07 32.5936 1519.05 32.5936 Q1513.01 32.5936 1509.53 36.4419 Q1506.04 40.2903 1506.04 46.9338 L1506.04 72.576 L1498.55 72.576 L1498.55 9.54393 L1506.04 9.54393 L1506.04 34.2544 Q1508.72 30.163 1512.32 28.1376 Q1515.97 26.1121 1520.71 26.1121 Q1528.53 26.1121 1532.54 30.9732 Q1536.55 35.7938 1536.55 45.1919 Z" fill="#000000" fill-rule="nonzero" fill-opacity="1" /><path clip-path="url(#clip640)" d="M1590.22 48.0275 L1590.22 51.6733 L1555.95 51.6733 Q1556.44 59.3701 1560.57 63.421 Q1564.74 67.4314 1572.15 67.4314 Q1576.45 67.4314 1580.46 66.3781 Q1584.51 65.3249 1588.48 63.2184 L1588.48 70.267 Q1584.47 71.9684 1580.26 72.8596 Q1576.04 73.7508 1571.71 73.7508 Q1560.85 73.7508 1554.49 67.4314 Q1548.17 61.1119 1548.17 50.3365 Q1548.17 39.1965 1554.17 32.6746 Q1560.2 26.1121 1570.41 26.1121 Q1579.57 26.1121 1584.87 32.0264 Q1590.22 37.9003 1590.22 48.0275 M1582.77 45.84 Q1582.69 39.7232 1579.32 36.0774 Q1576 32.4315 1570.49 32.4315 Q1564.26 32.4315 1560.49 35.9558 Q1556.76 39.4801 1556.19 45.8805 L1582.77 45.84 Z" fill="#000000" fill-rule="nonzero" fill-opacity="1" /><path clip-path="url(#clip640)" d="M1674.44 16.7545 L1674.44 25.383 Q1670.31 21.5346 1665.61 19.6307 Q1660.95 17.7268 1655.68 17.7268 Q1645.31 17.7268 1639.8 24.0867 Q1634.3 30.4061 1634.3 42.3968 Q1634.3 54.3469 1639.8 60.7069 Q1645.31 67.0263 1655.68 67.0263 Q1660.95 67.0263 1665.61 65.1223 Q1670.31 63.2184 1674.44 59.3701 L1674.44 67.9175 Q1670.15 70.8341 1665.33 72.2924 Q1660.55 73.7508 1655.2 73.7508 Q1641.47 73.7508 1633.57 65.3654 Q1625.67 56.9395 1625.67 42.3968 Q1625.67 27.8135 1633.57 19.4281 Q1641.47 11.0023 1655.2 11.0023 Q1660.63 11.0023 1665.41 12.4606 Q1670.23 13.8784 1674.44 16.7545 Z" fill="#000000" fill-rule="nonzero" fill-opacity="1" /><path clip-path="url(#clip640)" d="M1704.34 32.4315 Q1698.34 32.4315 1694.86 37.1306 Q1691.37 41.7891 1691.37 49.9314 Q1691.37 58.0738 1694.82 62.7728 Q1698.3 67.4314 1704.34 67.4314 Q1710.29 67.4314 1713.77 62.7323 Q1717.26 58.0333 1717.26 49.9314 Q1717.26 41.8701 1713.77 37.1711 Q1710.29 32.4315 1704.34 32.4315 M1704.34 26.1121 Q1714.06 26.1121 1719.61 32.4315 Q1725.16 38.7509 1725.16 49.9314 Q1725.16 61.0714 1719.61 67.4314 Q1714.06 73.7508 1704.34 73.7508 Q1694.57 73.7508 1689.02 67.4314 Q1683.51 61.0714 1683.51 49.9314 Q1683.51 38.7509 1689.02 32.4315 Q1694.57 26.1121 1704.34 26.1121 Z" fill="#000000" fill-rule="nonzero" fill-opacity="1" /><path clip-path="url(#clip640)" d="M1775.23 45.1919 L1775.23 72.576 L1767.77 72.576 L1767.77 45.4349 Q1767.77 38.994 1765.26 35.7938 Q1762.75 32.5936 1757.73 32.5936 Q1751.69 32.5936 1748.21 36.4419 Q1744.72 40.2903 1744.72 46.9338 L1744.72 72.576 L1737.23 72.576 L1737.23 27.2059 L1744.72 27.2059 L1744.72 34.2544 Q1747.4 30.163 1751 28.1376 Q1754.65 26.1121 1759.39 26.1121 Q1767.21 26.1121 1771.22 30.9732 Q1775.23 35.7938 1775.23 45.1919 Z" fill="#000000" fill-rule="nonzero" fill-opacity="1" /><path clip-path="url(#clip640)" d="M1827.81 45.1919 L1827.81 72.576 L1820.35 72.576 L1820.35 45.4349 Q1820.35 38.994 1817.84 35.7938 Q1815.33 32.5936 1810.31 32.5936 Q1804.27 32.5936 1800.79 36.4419 Q1797.3 40.2903 1797.3 46.9338 L1797.3 72.576 L1789.81 72.576 L1789.81 27.2059 L1797.3 27.2059 L1797.3 34.2544 Q1799.98 30.163 1803.58 28.1376 Q1807.23 26.1121 1811.97 26.1121 Q1819.79 26.1121 1823.8 30.9732 Q1827.81 35.7938 1827.81 45.1919 Z" fill="#000000" fill-rule="nonzero" fill-opacity="1" /><path clip-path="url(#clip640)" d="M1881.48 48.0275 L1881.48 51.6733 L1847.21 51.6733 Q1847.7 59.3701 1851.83 63.421 Q1856 67.4314 1863.41 67.4314 Q1867.71 67.4314 1871.72 66.3781 Q1875.77 65.3249 1879.74 63.2184 L1879.74 70.267 Q1875.73 71.9684 1871.52 72.8596 Q1867.3 73.7508 1862.97 73.7508 Q1852.11 73.7508 1845.75 67.4314 Q1839.43 61.1119 1839.43 50.3365 Q1839.43 39.1965 1845.43 32.6746 Q1851.46 26.1121 1861.67 26.1121 Q1870.83 26.1121 1876.13 32.0264 Q1881.48 37.9003 1881.48 48.0275 M1874.03 45.84 Q1873.95 39.7232 1870.58 36.0774 Q1867.26 32.4315 1861.75 32.4315 Q1855.52 32.4315 1851.75 35.9558 Q1848.02 39.4801 1847.45 45.8805 L1874.03 45.84 Z" fill="#000000" fill-rule="nonzero" fill-opacity="1" /><path clip-path="url(#clip640)" d="M1926.37 28.9478 L1926.37 35.9153 Q1923.21 34.1734 1920.01 33.3227 Q1916.85 32.4315 1913.61 32.4315 Q1906.35 32.4315 1902.34 37.0496 Q1898.33 41.6271 1898.33 49.9314 Q1898.33 58.2358 1902.34 62.8538 Q1906.35 67.4314 1913.61 67.4314 Q1916.85 67.4314 1920.01 66.5807 Q1923.21 65.6895 1926.37 63.9476 L1926.37 70.8341 Q1923.25 72.2924 1919.88 73.0216 Q1916.56 73.7508 1912.79 73.7508 Q1902.55 73.7508 1896.51 67.3098 Q1890.47 60.8689 1890.47 49.9314 Q1890.47 38.832 1896.55 32.472 Q1902.67 26.1121 1913.28 26.1121 Q1916.72 26.1121 1920.01 26.8413 Q1923.29 27.5299 1926.37 28.9478 Z" fill="#000000" fill-rule="nonzero" fill-opacity="1" /><path clip-path="url(#clip640)" d="M1946.7 14.324 L1946.7 27.2059 L1962.05 27.2059 L1962.05 32.9987 L1946.7 32.9987 L1946.7 57.6282 Q1946.7 63.1779 1948.2 64.7578 Q1949.74 66.3376 1954.4 66.3376 L1962.05 66.3376 L1962.05 72.576 L1954.4 72.576 Q1945.77 72.576 1942.49 69.3758 Q1939.21 66.1351 1939.21 57.6282 L1939.21 32.9987 L1933.74 32.9987 L1933.74 27.2059 L1939.21 27.2059 L1939.21 14.324 L1946.7 14.324 Z" fill="#000000" fill-rule="nonzero" fill-opacity="1" /><path clip-path="url(#clip640)" d="M1971.86 27.2059 L1979.31 27.2059 L1979.31 72.576 L1971.86 72.576 L1971.86 27.2059 M1971.86 9.54393 L1979.31 9.54393 L1979.31 18.9825 L1971.86 18.9825 L1971.86 9.54393 Z" fill="#000000" fill-rule="nonzero" fill-opacity="1" /><path clip-path="url(#clip640)" d="M2032.62 45.1919 L2032.62 72.576 L2025.17 72.576 L2025.17 45.4349 Q2025.17 38.994 2022.66 35.7938 Q2020.14 32.5936 2015.12 32.5936 Q2009.08 32.5936 2005.6 36.4419 Q2002.12 40.2903 2002.12 46.9338 L2002.12 72.576 L1994.62 72.576 L1994.62 27.2059 L2002.12 27.2059 L2002.12 34.2544 Q2004.79 30.163 2008.4 28.1376 Q2012.04 26.1121 2016.78 26.1121 Q2024.6 26.1121 2028.61 30.9732 Q2032.62 35.7938 2032.62 45.1919 Z" fill="#000000" fill-rule="nonzero" fill-opacity="1" /><path clip-path="url(#clip640)" d="M2077.34 49.3643 Q2077.34 41.2625 2073.98 36.8065 Q2070.66 32.3505 2064.62 32.3505 Q2058.63 32.3505 2055.27 36.8065 Q2051.94 41.2625 2051.94 49.3643 Q2051.94 57.4256 2055.27 61.8816 Q2058.63 66.3376 2064.62 66.3376 Q2070.66 66.3376 2073.98 61.8816 Q2077.34 57.4256 2077.34 49.3643 M2084.8 66.9452 Q2084.8 78.5308 2079.65 84.1616 Q2074.51 89.8329 2063.89 89.8329 Q2059.96 89.8329 2056.48 89.2252 Q2053 88.6581 2049.72 87.4428 L2049.72 80.1917 Q2053 81.9741 2056.2 82.8248 Q2059.4 83.6755 2062.72 83.6755 Q2070.05 83.6755 2073.7 79.8271 Q2077.34 76.0193 2077.34 68.282 L2077.34 64.5957 Q2075.03 68.6061 2071.43 70.5911 Q2067.82 72.576 2062.8 72.576 Q2054.46 72.576 2049.35 66.2161 Q2044.25 59.8562 2044.25 49.3643 Q2044.25 38.832 2049.35 32.472 Q2054.46 26.1121 2062.8 26.1121 Q2067.82 26.1121 2071.43 28.0971 Q2075.03 30.082 2077.34 34.0924 L2077.34 27.2059 L2084.8 27.2059 L2084.8 66.9452 Z" fill="#000000" fill-rule="nonzero" fill-opacity="1" /><path clip-path="url(#clip640)" d="M2155.53 44.2197 Q2158.16 45.1109 2160.63 48.0275 Q2163.14 50.9442 2165.65 56.0483 L2173.96 72.576 L2165.17 72.576 L2157.43 57.061 Q2154.43 50.9847 2151.6 48.9997 Q2148.8 47.0148 2143.94 47.0148 L2135.03 47.0148 L2135.03 72.576 L2126.84 72.576 L2126.84 12.096 L2145.32 12.096 Q2155.69 12.096 2160.79 16.4305 Q2165.9 20.7649 2165.9 29.5149 Q2165.9 35.2267 2163.22 38.994 Q2160.59 42.7613 2155.53 44.2197 M2135.03 18.8205 L2135.03 40.2903 L2145.32 40.2903 Q2151.23 40.2903 2154.23 37.5762 Q2157.27 34.8216 2157.27 29.5149 Q2157.27 24.2082 2154.23 21.5346 Q2151.23 18.8205 2145.32 18.8205 L2135.03 18.8205 Z" fill="#000000" fill-rule="nonzero" fill-opacity="1" /><path clip-path="url(#clip640)" d="M2198.02 32.4315 Q2192.02 32.4315 2188.54 37.1306 Q2185.06 41.7891 2185.06 49.9314 Q2185.06 58.0738 2188.5 62.7728 Q2191.98 67.4314 2198.02 67.4314 Q2203.97 67.4314 2207.46 62.7323 Q2210.94 58.0333 2210.94 49.9314 Q2210.94 41.8701 2207.46 37.1711 Q2203.97 32.4315 2198.02 32.4315 M2198.02 26.1121 Q2207.74 26.1121 2213.29 32.4315 Q2218.84 38.7509 2218.84 49.9314 Q2218.84 61.0714 2213.29 67.4314 Q2207.74 73.7508 2198.02 73.7508 Q2188.26 73.7508 2182.71 67.4314 Q2177.2 61.0714 2177.2 49.9314 Q2177.2 38.7509 2182.71 32.4315 Q2188.26 26.1121 2198.02 26.1121 Z" fill="#000000" fill-rule="nonzero" fill-opacity="1" /><path clip-path="url(#clip640)" d="M2261.05 34.0924 L2261.05 9.54393 L2268.5 9.54393 L2268.5 72.576 L2261.05 72.576 L2261.05 65.7705 Q2258.7 69.8214 2255.1 71.8063 Q2251.53 73.7508 2246.51 73.7508 Q2238.29 73.7508 2233.1 67.1883 Q2227.96 60.6258 2227.96 49.9314 Q2227.96 39.2371 2233.1 32.6746 Q2238.29 26.1121 2246.51 26.1121 Q2251.53 26.1121 2255.1 28.0971 Q2258.7 30.0415 2261.05 34.0924 M2235.65 49.9314 Q2235.65 58.1548 2239.01 62.8538 Q2242.42 67.5124 2248.33 67.5124 Q2254.25 67.5124 2257.65 62.8538 Q2261.05 58.1548 2261.05 49.9314 Q2261.05 41.7081 2257.65 37.0496 Q2254.25 32.3505 2248.33 32.3505 Q2242.42 32.3505 2239.01 37.0496 Q2235.65 41.7081 2235.65 49.9314 Z" fill="#000000" fill-rule="nonzero" fill-opacity="1" /><polyline clip-path="url(#clip641)" style="stroke:#009af9; stroke-linecap:round; stroke-linejoin:round; stroke-width:12; stroke-opacity:1; fill:none" points="433.61,773.079 439.821,772.821 446.032,772.27 452.243,771.626 458.453,770.843 464.664,769.875 470.875,768.676 477.086,767.201 483.297,765.405 489.508,763.243 495.718,760.672 501.929,757.648 508.14,754.13 514.351,750.075 520.562,745.444 526.773,740.198 532.983,734.302 539.194,727.719 545.405,720.417 551.616,712.367 557.827,703.54 564.037,693.913 570.248,683.466 576.459,672.182 582.67,660.051 588.881,647.067 595.092,633.227 601.302,618.54 607.513,603.017 613.724,586.678 619.935,569.553 626.146,551.678 632.357,533.099 638.567,513.874 644.778,494.068 650.989,473.759 657.2,453.034 663.411,431.994 669.622,410.749 675.832,389.418 682.043,368.134 688.254,347.037 694.465,326.277 700.676,306.011 706.887,286.402 713.097,267.617 719.308,249.825 725.519,233.196 731.73,217.895 737.941,204.084 744.151,191.918 750.362,181.539 756.573,173.078 762.784,166.649 768.995,162.349 775.206,160.256 781.416,160.427 787.627,162.897 793.838,167.676 800.049,174.754 806.26,184.097 812.471,195.65 818.681,209.337 824.892,225.063 831.103,242.718 837.314,262.174 843.525,283.293 849.736,305.926 855.946,329.916 862.157,355.102 868.368,381.32 874.579,408.405 880.79,436.191 887.001,464.518 893.211,493.23 899.422,522.175 905.633,551.209 911.844,580.196 918.055,609.007 924.265,637.521 930.476,665.63 936.687,693.23 942.898,720.229 949.109,746.544 955.32,772.1 961.53,796.83 967.741,820.678 973.952,843.593 980.163,865.533 986.374,886.464 992.585,906.358 998.795,925.193 1005.01,942.954 1011.22,959.633 1017.43,975.225 1023.64,989.73 1029.85,1003.16 1036.06,1015.51 1042.27,1026.81 1048.48,1037.07 1054.69,1046.31 1060.9,1054.55 1067.11,1061.82 1073.33,1068.15 1079.54,1073.56 1085.75,1078.09 1091.96,1081.77 1098.17,1084.63 1104.38,1086.7 1110.59,1088.01 1116.8,1088.6 1123.01,1088.5 1129.22,1087.75 1135.43,1086.36 1141.64,1084.37 1147.86,1081.82 1154.07,1078.72 1160.28,1075.1 1166.49,1070.99 1172.7,1066.41 1178.91,1061.39 1185.12,1055.93 1191.33,1050.07 1197.54,1043.81 1203.75,1037.17 1209.96,1030.18 1216.17,1022.84 1222.39,1015.16 1228.6,1007.16 1234.81,998.849 1241.02,990.239 1247.23,981.34 1253.44,972.163 1259.65,962.719 1265.86,953.018 1272.07,943.071 1278.28,932.889 1284.49,922.484 1290.7,911.869 1296.92,901.056 1303.13,890.058 1309.34,878.89 1315.55,867.566 1321.76,856.101 1327.97,844.512 1334.18,832.815 1340.39,821.028 1346.6,809.167 1352.81,797.251 1359.02,785.298 1365.23,773.326 1371.45,761.354 1377.66,749.401 1383.87,737.485 1390.08,725.624 1396.29,713.837 1402.5,702.14 1408.71,690.551 1414.92,679.086 1421.13,667.762 1427.34,656.594 1433.55,645.596 1439.76,634.783 1445.98,624.168 1452.19,613.763 1458.4,603.581 1464.61,593.634 1470.82,583.933 1477.03,574.489 1483.24,565.312 1489.45,556.413 1495.66,547.803 1501.87,539.493 1508.08,531.493 1514.29,523.816 1520.5,516.473 1526.72,509.477 1532.93,502.843 1539.14,496.585 1545.35,490.72 1551.56,485.264 1557.77,480.237 1563.98,475.658 1570.19,471.549 1576.4,467.933 1582.61,464.834 1588.82,462.278 1595.03,460.293 1601.25,458.907 1607.46,458.149 1613.67,458.05 1619.88,458.641 1626.09,459.956 1632.3,462.025 1638.51,464.882 1644.72,468.56 1650.93,473.09 1657.14,478.504 1663.35,484.832 1669.56,492.104 1675.78,500.346 1681.99,509.585 1688.2,519.844 1694.41,531.142 1700.62,543.496 1706.83,556.922 1713.04,571.427 1719.25,587.019 1725.46,603.698 1731.67,621.459 1737.88,640.294 1744.09,660.188 1750.31,681.119 1756.52,703.059 1762.73,725.974 1768.94,749.822 1775.15,774.552 1781.36,800.108 1787.57,826.423 1793.78,853.422 1799.99,881.022 1806.2,909.131 1812.41,937.645 1818.62,966.456 1824.84,995.443 1831.05,1024.48 1837.26,1053.42 1843.47,1082.13 1849.68,1110.46 1855.89,1138.25 1862.1,1165.33 1868.31,1191.55 1874.52,1216.74 1880.73,1240.73 1886.94,1263.36 1893.15,1284.48 1899.37,1303.93 1905.58,1321.59 1911.79,1337.32 1918,1351 1924.21,1362.56 1930.42,1371.9 1936.63,1378.98 1942.84,1383.76 1949.05,1386.22 1955.26,1386.4 1961.47,1384.3 1967.68,1380 1973.9,1373.57 1980.11,1365.11 1986.32,1354.73 1992.53,1342.57 1998.74,1328.76 2004.95,1313.46 2011.16,1296.83 2017.37,1279.03 2023.58,1260.25 2029.79,1240.64 2036,1220.37 2042.21,1199.61 2048.43,1178.52 2054.64,1157.23 2060.85,1135.9 2067.06,1114.66 2073.27,1093.62 2079.48,1072.89 2085.69,1052.58 2091.9,1032.78 2098.11,1013.55 2104.32,994.974 2110.53,977.099 2116.74,959.974 2122.96,943.635 2129.17,928.112 2135.38,913.425 2141.59,899.585 2147.8,886.601 2154.01,874.469 2160.22,863.186 2166.43,852.739 2172.64,843.112 2178.85,834.285 2185.06,826.235 2191.27,818.933 2197.49,812.35 2203.7,806.454 2209.91,801.208 2216.12,796.577 2222.33,792.522 2228.54,789.004 2234.75,785.98 2240.96,783.409 2247.17,781.247 2253.38,779.451 2259.59,777.976 2265.8,776.777 2272.02,775.809 2278.23,775.026 2284.44,774.382 2290.65,773.831 2296.86,773.573 "/>
<path clip-path="url(#clip640)" d="M1676.11 270.476 L2286.92 270.476 L2286.92 166.796 L1676.11 166.796  Z" fill="#ffffff" fill-rule="evenodd" fill-opacity="1"/>
<polyline clip-path="url(#clip640)" style="stroke:#000000; stroke-linecap:round; stroke-linejoin:round; stroke-width:4; stroke-opacity:1; fill:none" points="1676.11,270.476 2286.92,270.476 2286.92,166.796 1676.11,166.796 1676.11,270.476 "/>
<polyline clip-path="url(#clip640)" style="stroke:#009af9; stroke-linecap:round; stroke-linejoin:round; stroke-width:12; stroke-opacity:1; fill:none" points="1698.05,218.636 1829.72,218.636 "/>
<path clip-path="url(#clip640)" d="M1868.64 223.856 L1867.62 218.508 Q1866.58 213.022 1862.46 213.022 Q1859.35 213.022 1857.94 215.569 Q1856.16 218.763 1856.16 222.976 Q1856.16 228.069 1857.9 230.499 Q1859.65 232.976 1862.46 232.976 Q1865.56 232.976 1867.22 228.045 L1868.64 223.856 M1871.02 216.772 L1873.31 209.99 L1877.11 209.99 L1872.36 224.041 L1873.29 229.11 Q1873.5 230.244 1874.31 231.194 Q1875.26 232.305 1876 232.305 L1878.03 232.305 L1878.03 235.916 L1875.49 235.916 Q1873.31 235.916 1871.37 233.971 Q1870.42 232.999 1870.02 230.962 Q1868.96 233.531 1866.78 235.545 Q1865.77 236.494 1862.46 236.494 Q1857.02 236.494 1854.38 232.976 Q1851.67 229.342 1851.67 222.976 Q1851.67 216.17 1854.61 212.976 Q1857.87 209.411 1862.46 209.411 Q1869.65 209.411 1871.02 216.772 Z" fill="#000000" fill-rule="nonzero" fill-opacity="1" /><path clip-path="url(#clip640)" d="M1892.43 225.453 Q1894.56 225.869 1895.72 227.143 Q1896.9 228.393 1896.9 230.291 Q1896.9 233.161 1894.7 234.712 Q1892.5 236.263 1888.4 236.263 Q1887.08 236.263 1885.63 236.008 Q1884.19 235.777 1882.57 235.314 L1882.57 232.513 Q1883.77 233.138 1885.14 233.439 Q1886.53 233.74 1888.08 233.74 Q1890.6 233.74 1891.99 232.837 Q1893.38 231.911 1893.38 230.291 Q1893.38 228.578 1892.08 227.698 Q1890.81 226.819 1888.31 226.819 L1886.32 226.819 L1886.32 224.319 L1888.5 224.319 Q1890.67 224.319 1891.78 223.601 Q1892.92 222.86 1892.92 221.471 Q1892.92 220.129 1891.76 219.434 Q1890.6 218.717 1888.4 218.717 Q1887.48 218.717 1886.3 218.925 Q1885.12 219.133 1883.24 219.666 L1883.24 217.004 Q1884.93 216.61 1886.41 216.402 Q1887.89 216.194 1889.17 216.194 Q1892.5 216.194 1894.45 217.559 Q1896.41 218.925 1896.41 221.217 Q1896.41 222.814 1895.37 223.925 Q1894.33 225.036 1892.43 225.453 Z" fill="#000000" fill-rule="nonzero" fill-opacity="1" /><path clip-path="url(#clip640)" d="M1937.5 210.985 L1937.5 214.967 Q1935.7 213.971 1933.87 213.485 Q1932.06 212.976 1930.21 212.976 Q1926.07 212.976 1923.77 215.615 Q1921.48 218.231 1921.48 222.976 Q1921.48 227.721 1923.77 230.36 Q1926.07 232.976 1930.21 232.976 Q1932.06 232.976 1933.87 232.49 Q1935.7 231.981 1937.5 230.985 L1937.5 234.92 Q1935.72 235.754 1933.8 236.17 Q1931.9 236.587 1929.75 236.587 Q1923.89 236.587 1920.44 232.906 Q1916.99 229.226 1916.99 222.976 Q1916.99 216.633 1920.46 212.999 Q1923.96 209.365 1930.02 209.365 Q1931.99 209.365 1933.87 209.782 Q1935.74 210.175 1937.5 210.985 Z" fill="#000000" fill-rule="nonzero" fill-opacity="1" /><path clip-path="url(#clip640)" d="M1954.95 212.976 Q1951.53 212.976 1949.54 215.661 Q1947.55 218.323 1947.55 222.976 Q1947.55 227.629 1949.51 230.314 Q1951.51 232.976 1954.95 232.976 Q1958.36 232.976 1960.35 230.291 Q1962.34 227.606 1962.34 222.976 Q1962.34 218.37 1960.35 215.684 Q1958.36 212.976 1954.95 212.976 M1954.95 209.365 Q1960.51 209.365 1963.68 212.976 Q1966.85 216.587 1966.85 222.976 Q1966.85 229.342 1963.68 232.976 Q1960.51 236.587 1954.95 236.587 Q1949.38 236.587 1946.2 232.976 Q1943.06 229.342 1943.06 222.976 Q1943.06 216.587 1946.2 212.976 Q1949.38 209.365 1954.95 209.365 Z" fill="#000000" fill-rule="nonzero" fill-opacity="1" /><path clip-path="url(#clip640)" d="M1995.46 220.268 L1995.46 235.916 L1991.2 235.916 L1991.2 220.407 Q1991.2 216.726 1989.77 214.897 Q1988.33 213.069 1985.46 213.069 Q1982.01 213.069 1980.02 215.268 Q1978.03 217.467 1978.03 221.263 L1978.03 235.916 L1973.75 235.916 L1973.75 209.99 L1978.03 209.99 L1978.03 214.018 Q1979.56 211.68 1981.62 210.522 Q1983.7 209.365 1986.41 209.365 Q1990.88 209.365 1993.17 212.143 Q1995.46 214.897 1995.46 220.268 Z" fill="#000000" fill-rule="nonzero" fill-opacity="1" /><path clip-path="url(#clip640)" d="M2025.51 220.268 L2025.51 235.916 L2021.25 235.916 L2021.25 220.407 Q2021.25 216.726 2019.82 214.897 Q2018.38 213.069 2015.51 213.069 Q2012.06 213.069 2010.07 215.268 Q2008.08 217.467 2008.08 221.263 L2008.08 235.916 L2003.8 235.916 L2003.8 209.99 L2008.08 209.99 L2008.08 214.018 Q2009.61 211.68 2011.67 210.522 Q2013.75 209.365 2016.46 209.365 Q2020.93 209.365 2023.22 212.143 Q2025.51 214.897 2025.51 220.268 Z" fill="#000000" fill-rule="nonzero" fill-opacity="1" /><path clip-path="url(#clip640)" d="M2056.18 221.888 L2056.18 223.971 L2036.6 223.971 Q2036.88 228.369 2039.24 230.684 Q2041.62 232.976 2045.86 232.976 Q2048.31 232.976 2050.6 232.374 Q2052.92 231.772 2055.19 230.569 L2055.19 234.596 Q2052.89 235.568 2050.49 236.078 Q2048.08 236.587 2045.6 236.587 Q2039.4 236.587 2035.76 232.976 Q2032.15 229.365 2032.15 223.207 Q2032.15 216.842 2035.58 213.115 Q2039.03 209.365 2044.86 209.365 Q2050.09 209.365 2053.13 212.745 Q2056.18 216.101 2056.18 221.888 M2051.92 220.638 Q2051.88 217.143 2049.95 215.059 Q2048.06 212.976 2044.91 212.976 Q2041.34 212.976 2039.19 214.99 Q2037.06 217.004 2036.74 220.661 L2051.92 220.638 Z" fill="#000000" fill-rule="nonzero" fill-opacity="1" /><path clip-path="url(#clip640)" d="M2081.83 210.985 L2081.83 214.967 Q2080.02 213.971 2078.19 213.485 Q2076.39 212.976 2074.54 212.976 Q2070.39 212.976 2068.1 215.615 Q2065.81 218.231 2065.81 222.976 Q2065.81 227.721 2068.1 230.36 Q2070.39 232.976 2074.54 232.976 Q2076.39 232.976 2078.19 232.49 Q2080.02 231.981 2081.83 230.985 L2081.83 234.92 Q2080.05 235.754 2078.13 236.17 Q2076.23 236.587 2074.07 236.587 Q2068.22 236.587 2064.77 232.906 Q2061.32 229.226 2061.32 222.976 Q2061.32 216.633 2064.79 212.999 Q2068.29 209.365 2074.35 209.365 Q2076.32 209.365 2078.19 209.782 Q2080.07 210.175 2081.83 210.985 Z" fill="#000000" fill-rule="nonzero" fill-opacity="1" /><path clip-path="url(#clip640)" d="M2093.45 202.629 L2093.45 209.99 L2102.22 209.99 L2102.22 213.3 L2093.45 213.3 L2093.45 227.374 Q2093.45 230.545 2094.31 231.448 Q2095.19 232.351 2097.85 232.351 L2102.22 232.351 L2102.22 235.916 L2097.85 235.916 Q2092.92 235.916 2091.04 234.087 Q2089.17 232.235 2089.17 227.374 L2089.17 213.3 L2086.04 213.3 L2086.04 209.99 L2089.17 209.99 L2089.17 202.629 L2093.45 202.629 Z" fill="#000000" fill-rule="nonzero" fill-opacity="1" /><path clip-path="url(#clip640)" d="M2107.82 209.99 L2112.08 209.99 L2112.08 235.916 L2107.82 235.916 L2107.82 209.99 M2107.82 199.897 L2112.08 199.897 L2112.08 205.291 L2107.82 205.291 L2107.82 199.897 Z" fill="#000000" fill-rule="nonzero" fill-opacity="1" /><path clip-path="url(#clip640)" d="M2142.55 220.268 L2142.55 235.916 L2138.29 235.916 L2138.29 220.407 Q2138.29 216.726 2136.85 214.897 Q2135.42 213.069 2132.55 213.069 Q2129.1 213.069 2127.11 215.268 Q2125.12 217.467 2125.12 221.263 L2125.12 235.916 L2120.83 235.916 L2120.83 209.99 L2125.12 209.99 L2125.12 214.018 Q2126.64 211.68 2128.7 210.522 Q2130.79 209.365 2133.5 209.365 Q2137.96 209.365 2140.25 212.143 Q2142.55 214.897 2142.55 220.268 Z" fill="#000000" fill-rule="nonzero" fill-opacity="1" /><path clip-path="url(#clip640)" d="M2168.1 222.652 Q2168.1 218.022 2166.18 215.476 Q2164.28 212.93 2160.83 212.93 Q2157.41 212.93 2155.49 215.476 Q2153.59 218.022 2153.59 222.652 Q2153.59 227.258 2155.49 229.805 Q2157.41 232.351 2160.83 232.351 Q2164.28 232.351 2166.18 229.805 Q2168.1 227.258 2168.1 222.652 M2172.36 232.698 Q2172.36 239.318 2169.42 242.536 Q2166.48 245.777 2160.42 245.777 Q2158.17 245.777 2156.18 245.43 Q2154.19 245.105 2152.31 244.411 L2152.31 240.268 Q2154.19 241.286 2156.02 241.772 Q2157.85 242.258 2159.75 242.258 Q2163.94 242.258 2166.02 240.059 Q2168.1 237.883 2168.1 233.462 L2168.1 231.356 Q2166.78 233.647 2164.72 234.781 Q2162.66 235.916 2159.79 235.916 Q2155.02 235.916 2152.11 232.281 Q2149.19 228.647 2149.19 222.652 Q2149.19 216.633 2152.11 212.999 Q2155.02 209.365 2159.79 209.365 Q2162.66 209.365 2164.72 210.499 Q2166.78 211.633 2168.1 213.925 L2168.1 209.99 L2172.36 209.99 L2172.36 232.698 Z" fill="#000000" fill-rule="nonzero" fill-opacity="1" /><path clip-path="url(#clip640)" d="M2211.23 213.971 Q2210.51 213.555 2209.65 213.37 Q2208.82 213.161 2207.8 213.161 Q2204.19 213.161 2202.25 215.522 Q2200.32 217.86 2200.32 222.258 L2200.32 235.916 L2196.04 235.916 L2196.04 209.99 L2200.32 209.99 L2200.32 214.018 Q2201.67 211.657 2203.82 210.522 Q2205.97 209.365 2209.05 209.365 Q2209.49 209.365 2210.02 209.434 Q2210.56 209.481 2211.2 209.596 L2211.23 213.971 Z" fill="#000000" fill-rule="nonzero" fill-opacity="1" /><path clip-path="url(#clip640)" d="M2224.7 212.976 Q2221.27 212.976 2219.28 215.661 Q2217.29 218.323 2217.29 222.976 Q2217.29 227.629 2219.26 230.314 Q2221.25 232.976 2224.7 232.976 Q2228.1 232.976 2230.09 230.291 Q2232.08 227.606 2232.08 222.976 Q2232.08 218.37 2230.09 215.684 Q2228.1 212.976 2224.7 212.976 M2224.7 209.365 Q2230.25 209.365 2233.43 212.976 Q2236.6 216.587 2236.6 222.976 Q2236.6 229.342 2233.43 232.976 Q2230.25 236.587 2224.7 236.587 Q2219.12 236.587 2215.95 232.976 Q2212.8 229.342 2212.8 222.976 Q2212.8 216.587 2215.95 212.976 Q2219.12 209.365 2224.7 209.365 Z" fill="#000000" fill-rule="nonzero" fill-opacity="1" /><path clip-path="url(#clip640)" d="M2260.72 213.925 L2260.72 199.897 L2264.98 199.897 L2264.98 235.916 L2260.72 235.916 L2260.72 232.027 Q2259.37 234.342 2257.31 235.476 Q2255.28 236.587 2252.41 236.587 Q2247.71 236.587 2244.74 232.837 Q2241.81 229.087 2241.81 222.976 Q2241.81 216.865 2244.74 213.115 Q2247.71 209.365 2252.41 209.365 Q2255.28 209.365 2257.31 210.499 Q2259.37 211.61 2260.72 213.925 M2246.2 222.976 Q2246.2 227.675 2248.12 230.36 Q2250.07 233.022 2253.45 233.022 Q2256.83 233.022 2258.77 230.36 Q2260.72 227.675 2260.72 222.976 Q2260.72 218.277 2258.77 215.615 Q2256.83 212.93 2253.45 212.93 Q2250.07 212.93 2248.12 215.615 Q2246.2 218.277 2246.2 222.976 Z" fill="#000000" fill-rule="nonzero" fill-opacity="1" /></svg>
