<?xml version="1.0" encoding="utf-8"?>
<svg xmlns="http://www.w3.org/2000/svg" xmlns:xlink="http://www.w3.org/1999/xlink" width="600" height="400" viewBox="0 0 2400 1600">
<defs>
  <clipPath id="clip590">
    <rect x="0" y="0" width="2400" height="1600"/>
  </clipPath>
</defs>
<path clip-path="url(#clip590)" d="M0 1600 L2400 1600 L2400 0 L0 0  Z" fill="#ffffff" fill-rule="evenodd" fill-opacity="1"/>
<defs>
  <clipPath id="clip591">
    <rect x="480" y="0" width="1681" height="1600"/>
  </clipPath>
</defs>
<path clip-path="url(#clip590)" d="M377.713 1423.18 L2352.76 1423.18 L2352.76 123.472 L377.713 123.472  Z" fill="#ffffff" fill-rule="evenodd" fill-opacity="1"/>
<defs>
  <clipPath id="clip592">
    <rect x="377" y="123" width="1976" height="1301"/>
  </clipPath>
</defs>
<polyline clip-path="url(#clip592)" style="stroke:#000000; stroke-linecap:round; stroke-linejoin:round; stroke-width:2; stroke-opacity:0.1; fill:none" points="433.61,1423.18 433.61,123.472 "/>
<polyline clip-path="url(#clip592)" style="stroke:#000000; stroke-linecap:round; stroke-linejoin:round; stroke-width:2; stroke-opacity:0.1; fill:none" points="878.428,1423.18 878.428,123.472 "/>
<polyline clip-path="url(#clip592)" style="stroke:#000000; stroke-linecap:round; stroke-linejoin:round; stroke-width:2; stroke-opacity:0.1; fill:none" points="1323.25,1423.18 1323.25,123.472 "/>
<polyline clip-path="url(#clip592)" style="stroke:#000000; stroke-linecap:round; stroke-linejoin:round; stroke-width:2; stroke-opacity:0.1; fill:none" points="1768.06,1423.18 1768.06,123.472 "/>
<polyline clip-path="url(#clip592)" style="stroke:#000000; stroke-linecap:round; stroke-linejoin:round; stroke-width:2; stroke-opacity:0.1; fill:none" points="2212.88,1423.18 2212.88,123.472 "/>
<polyline clip-path="url(#clip592)" style="stroke:#000000; stroke-linecap:round; stroke-linejoin:round; stroke-width:2; stroke-opacity:0.1; fill:none" points="377.713,1310.46 2352.76,1310.46 "/>
<polyline clip-path="url(#clip592)" style="stroke:#000000; stroke-linecap:round; stroke-linejoin:round; stroke-width:2; stroke-opacity:0.1; fill:none" points="377.713,1131.41 2352.76,1131.41 "/>
<polyline clip-path="url(#clip592)" style="stroke:#000000; stroke-linecap:round; stroke-linejoin:round; stroke-width:2; stroke-opacity:0.1; fill:none" points="377.713,952.369 2352.76,952.369 "/>
<polyline clip-path="url(#clip592)" style="stroke:#000000; stroke-linecap:round; stroke-linejoin:round; stroke-width:2; stroke-opacity:0.1; fill:none" points="377.713,773.326 2352.76,773.326 "/>
<polyline clip-path="url(#clip592)" style="stroke:#000000; stroke-linecap:round; stroke-linejoin:round; stroke-width:2; stroke-opacity:0.1; fill:none" points="377.713,594.283 2352.76,594.283 "/>
<polyline clip-path="url(#clip592)" style="stroke:#000000; stroke-linecap:round; stroke-linejoin:round; stroke-width:2; stroke-opacity:0.1; fill:none" points="377.713,415.239 2352.76,415.239 "/>
<polyline clip-path="url(#clip592)" style="stroke:#000000; stroke-linecap:round; stroke-linejoin:round; stroke-width:2; stroke-opacity:0.1; fill:none" points="377.713,236.196 2352.76,236.196 "/>
<polyline clip-path="url(#clip590)" style="stroke:#000000; stroke-linecap:round; stroke-linejoin:round; stroke-width:4; stroke-opacity:1; fill:none" points="377.713,1423.18 2352.76,1423.18 "/>
<polyline clip-path="url(#clip590)" style="stroke:#000000; stroke-linecap:round; stroke-linejoin:round; stroke-width:4; stroke-opacity:1; fill:none" points="433.61,1423.18 433.61,1404.28 "/>
<polyline clip-path="url(#clip590)" style="stroke:#000000; stroke-linecap:round; stroke-linejoin:round; stroke-width:4; stroke-opacity:1; fill:none" points="878.428,1423.18 878.428,1404.28 "/>
<polyline clip-path="url(#clip590)" style="stroke:#000000; stroke-linecap:round; stroke-linejoin:round; stroke-width:4; stroke-opacity:1; fill:none" points="1323.25,1423.18 1323.25,1404.28 "/>
<polyline clip-path="url(#clip590)" style="stroke:#000000; stroke-linecap:round; stroke-linejoin:round; stroke-width:4; stroke-opacity:1; fill:none" points="1768.06,1423.18 1768.06,1404.28 "/>
<polyline clip-path="url(#clip590)" style="stroke:#000000; stroke-linecap:round; stroke-linejoin:round; stroke-width:4; stroke-opacity:1; fill:none" points="2212.88,1423.18 2212.88,1404.28 "/>
<path clip-path="url(#clip590)" d="M395.914 1454.1 Q392.302 1454.1 390.474 1457.66 Q388.668 1461.2 388.668 1468.33 Q388.668 1475.44 390.474 1479.01 Q392.302 1482.55 395.914 1482.55 Q399.548 1482.55 401.353 1479.01 Q403.182 1475.44 403.182 1468.33 Q403.182 1461.2 401.353 1457.66 Q399.548 1454.1 395.914 1454.1 M395.914 1450.39 Q401.724 1450.39 404.779 1455 Q407.858 1459.58 407.858 1468.33 Q407.858 1477.06 404.779 1481.67 Q401.724 1486.25 395.914 1486.25 Q390.103 1486.25 387.025 1481.67 Q383.969 1477.06 383.969 1468.33 Q383.969 1459.58 387.025 1455 Q390.103 1450.39 395.914 1450.39 Z" fill="#000000" fill-rule="nonzero" fill-opacity="1" /><path clip-path="url(#clip590)" d="M416.075 1479.7 L420.96 1479.7 L420.96 1485.58 L416.075 1485.58 L416.075 1479.7 Z" fill="#000000" fill-rule="nonzero" fill-opacity="1" /><path clip-path="url(#clip590)" d="M441.145 1454.1 Q437.534 1454.1 435.705 1457.66 Q433.899 1461.2 433.899 1468.33 Q433.899 1475.44 435.705 1479.01 Q437.534 1482.55 441.145 1482.55 Q444.779 1482.55 446.585 1479.01 Q448.413 1475.44 448.413 1468.33 Q448.413 1461.2 446.585 1457.66 Q444.779 1454.1 441.145 1454.1 M441.145 1450.39 Q446.955 1450.39 450.01 1455 Q453.089 1459.58 453.089 1468.33 Q453.089 1477.06 450.01 1481.67 Q446.955 1486.25 441.145 1486.25 Q435.335 1486.25 432.256 1481.67 Q429.2 1477.06 429.2 1468.33 Q429.2 1459.58 432.256 1455 Q435.335 1450.39 441.145 1450.39 Z" fill="#000000" fill-rule="nonzero" fill-opacity="1" /><path clip-path="url(#clip590)" d="M471.307 1454.1 Q467.696 1454.1 465.867 1457.66 Q464.061 1461.2 464.061 1468.33 Q464.061 1475.44 465.867 1479.01 Q467.696 1482.55 471.307 1482.55 Q474.941 1482.55 476.746 1479.01 Q478.575 1475.44 478.575 1468.33 Q478.575 1461.2 476.746 1457.66 Q474.941 1454.1 471.307 1454.1 M471.307 1450.39 Q477.117 1450.39 480.172 1455 Q483.251 1459.58 483.251 1468.33 Q483.251 1477.06 480.172 1481.67 Q477.117 1486.25 471.307 1486.25 Q465.496 1486.25 462.418 1481.67 Q459.362 1477.06 459.362 1468.33 Q459.362 1459.58 462.418 1455 Q465.496 1450.39 471.307 1450.39 Z" fill="#000000" fill-rule="nonzero" fill-opacity="1" /><path clip-path="url(#clip590)" d="M841.345 1454.1 Q837.734 1454.1 835.905 1457.66 Q834.099 1461.2 834.099 1468.33 Q834.099 1475.44 835.905 1479.01 Q837.734 1482.55 841.345 1482.55 Q844.979 1482.55 846.785 1479.01 Q848.613 1475.44 848.613 1468.33 Q848.613 1461.2 846.785 1457.66 Q844.979 1454.1 841.345 1454.1 M841.345 1450.39 Q847.155 1450.39 850.21 1455 Q853.289 1459.58 853.289 1468.33 Q853.289 1477.06 850.21 1481.67 Q847.155 1486.25 841.345 1486.25 Q835.535 1486.25 832.456 1481.67 Q829.4 1477.06 829.4 1468.33 Q829.4 1459.58 832.456 1455 Q835.535 1450.39 841.345 1450.39 Z" fill="#000000" fill-rule="nonzero" fill-opacity="1" /><path clip-path="url(#clip590)" d="M861.507 1479.7 L866.391 1479.7 L866.391 1485.58 L861.507 1485.58 L861.507 1479.7 Z" fill="#000000" fill-rule="nonzero" fill-opacity="1" /><path clip-path="url(#clip590)" d="M886.576 1454.1 Q882.965 1454.1 881.136 1457.66 Q879.331 1461.2 879.331 1468.33 Q879.331 1475.44 881.136 1479.01 Q882.965 1482.55 886.576 1482.55 Q890.21 1482.55 892.016 1479.01 Q893.844 1475.44 893.844 1468.33 Q893.844 1461.2 892.016 1457.66 Q890.21 1454.1 886.576 1454.1 M886.576 1450.39 Q892.386 1450.39 895.442 1455 Q898.52 1459.58 898.52 1468.33 Q898.52 1477.06 895.442 1481.67 Q892.386 1486.25 886.576 1486.25 Q880.766 1486.25 877.687 1481.67 Q874.632 1477.06 874.632 1468.33 Q874.632 1459.58 877.687 1455 Q880.766 1450.39 886.576 1450.39 Z" fill="#000000" fill-rule="nonzero" fill-opacity="1" /><path clip-path="url(#clip590)" d="M907.548 1481.64 L915.187 1481.64 L915.187 1455.28 L906.877 1456.95 L906.877 1452.69 L915.141 1451.02 L919.817 1451.02 L919.817 1481.64 L927.455 1481.64 L927.455 1485.58 L907.548 1485.58 L907.548 1481.64 Z" fill="#000000" fill-rule="nonzero" fill-opacity="1" /><path clip-path="url(#clip590)" d="M1286.35 1454.1 Q1282.74 1454.1 1280.91 1457.66 Q1279.1 1461.2 1279.1 1468.33 Q1279.1 1475.44 1280.91 1479.01 Q1282.74 1482.55 1286.35 1482.55 Q1289.98 1482.55 1291.79 1479.01 Q1293.62 1475.44 1293.62 1468.33 Q1293.62 1461.2 1291.79 1457.66 Q1289.98 1454.1 1286.35 1454.1 M1286.35 1450.39 Q1292.16 1450.39 1295.21 1455 Q1298.29 1459.58 1298.29 1468.33 Q1298.29 1477.06 1295.21 1481.67 Q1292.16 1486.25 1286.35 1486.25 Q1280.54 1486.25 1277.46 1481.67 Q1274.4 1477.06 1274.4 1468.33 Q1274.4 1459.58 1277.46 1455 Q1280.54 1450.39 1286.35 1450.39 Z" fill="#000000" fill-rule="nonzero" fill-opacity="1" /><path clip-path="url(#clip590)" d="M1306.51 1479.7 L1311.39 1479.7 L1311.39 1485.58 L1306.51 1485.58 L1306.51 1479.7 Z" fill="#000000" fill-rule="nonzero" fill-opacity="1" /><path clip-path="url(#clip590)" d="M1331.58 1454.1 Q1327.97 1454.1 1326.14 1457.66 Q1324.33 1461.2 1324.33 1468.33 Q1324.33 1475.44 1326.14 1479.01 Q1327.97 1482.55 1331.58 1482.55 Q1335.21 1482.55 1337.02 1479.01 Q1338.85 1475.44 1338.85 1468.33 Q1338.85 1461.2 1337.02 1457.66 Q1335.21 1454.1 1331.58 1454.1 M1331.58 1450.39 Q1337.39 1450.39 1340.44 1455 Q1343.52 1459.58 1343.52 1468.33 Q1343.52 1477.06 1340.44 1481.67 Q1337.39 1486.25 1331.58 1486.25 Q1325.77 1486.25 1322.69 1481.67 Q1319.63 1477.06 1319.63 1468.33 Q1319.63 1459.58 1322.69 1455 Q1325.77 1450.39 1331.58 1450.39 Z" fill="#000000" fill-rule="nonzero" fill-opacity="1" /><path clip-path="url(#clip590)" d="M1355.77 1481.64 L1372.09 1481.64 L1372.09 1485.58 L1350.14 1485.58 L1350.14 1481.64 Q1352.81 1478.89 1357.39 1474.26 Q1362 1469.61 1363.18 1468.27 Q1365.42 1465.74 1366.3 1464.01 Q1367.2 1462.25 1367.2 1460.56 Q1367.2 1457.8 1365.26 1456.07 Q1363.34 1454.33 1360.24 1454.33 Q1358.04 1454.33 1355.58 1455.09 Q1353.15 1455.86 1350.38 1457.41 L1350.38 1452.69 Q1353.2 1451.55 1355.65 1450.97 Q1358.11 1450.39 1360.14 1450.39 Q1365.51 1450.39 1368.71 1453.08 Q1371.9 1455.77 1371.9 1460.26 Q1371.9 1462.39 1371.09 1464.31 Q1370.31 1466.2 1368.2 1468.8 Q1367.62 1469.47 1364.52 1472.69 Q1361.42 1475.88 1355.77 1481.64 Z" fill="#000000" fill-rule="nonzero" fill-opacity="1" /><path clip-path="url(#clip590)" d="M1730.69 1454.1 Q1727.08 1454.1 1725.25 1457.66 Q1723.45 1461.2 1723.45 1468.33 Q1723.45 1475.44 1725.25 1479.01 Q1727.08 1482.55 1730.69 1482.55 Q1734.33 1482.55 1736.13 1479.01 Q1737.96 1475.44 1737.96 1468.33 Q1737.96 1461.2 1736.13 1457.66 Q1734.33 1454.1 1730.69 1454.1 M1730.69 1450.39 Q1736.5 1450.39 1739.56 1455 Q1742.64 1459.58 1742.64 1468.33 Q1742.64 1477.06 1739.56 1481.67 Q1736.5 1486.25 1730.69 1486.25 Q1724.88 1486.25 1721.8 1481.67 Q1718.75 1477.06 1718.75 1468.33 Q1718.75 1459.58 1721.8 1455 Q1724.88 1450.39 1730.69 1450.39 Z" fill="#000000" fill-rule="nonzero" fill-opacity="1" /><path clip-path="url(#clip590)" d="M1750.85 1479.7 L1755.74 1479.7 L1755.74 1485.58 L1750.85 1485.58 L1750.85 1479.7 Z" fill="#000000" fill-rule="nonzero" fill-opacity="1" /><path clip-path="url(#clip590)" d="M1775.92 1454.1 Q1772.31 1454.1 1770.48 1457.66 Q1768.68 1461.2 1768.68 1468.33 Q1768.68 1475.44 1770.48 1479.01 Q1772.31 1482.55 1775.92 1482.55 Q1779.56 1482.55 1781.36 1479.01 Q1783.19 1475.44 1783.19 1468.33 Q1783.19 1461.2 1781.36 1457.66 Q1779.56 1454.1 1775.92 1454.1 M1775.92 1450.39 Q1781.73 1450.39 1784.79 1455 Q1787.87 1459.58 1787.87 1468.33 Q1787.87 1477.06 1784.79 1481.67 Q1781.73 1486.25 1775.92 1486.25 Q1770.11 1486.25 1767.03 1481.67 Q1763.98 1477.06 1763.98 1468.33 Q1763.98 1459.58 1767.03 1455 Q1770.11 1450.39 1775.92 1450.39 Z" fill="#000000" fill-rule="nonzero" fill-opacity="1" /><path clip-path="url(#clip590)" d="M1810.25 1466.95 Q1813.61 1467.66 1815.48 1469.93 Q1817.38 1472.2 1817.38 1475.53 Q1817.38 1480.65 1813.86 1483.45 Q1810.34 1486.25 1803.86 1486.25 Q1801.69 1486.25 1799.37 1485.81 Q1797.08 1485.39 1794.63 1484.54 L1794.63 1480.02 Q1796.57 1481.16 1798.89 1481.74 Q1801.2 1482.32 1803.72 1482.32 Q1808.12 1482.32 1810.41 1480.58 Q1812.73 1478.84 1812.73 1475.53 Q1812.73 1472.48 1810.57 1470.77 Q1808.45 1469.03 1804.63 1469.03 L1800.6 1469.03 L1800.6 1465.19 L1804.81 1465.19 Q1808.26 1465.19 1810.09 1463.82 Q1811.92 1462.43 1811.92 1459.84 Q1811.92 1457.18 1810.02 1455.77 Q1808.14 1454.33 1804.63 1454.33 Q1802.7 1454.33 1800.51 1454.75 Q1798.31 1455.16 1795.67 1456.04 L1795.67 1451.88 Q1798.33 1451.14 1800.64 1450.77 Q1802.98 1450.39 1805.04 1450.39 Q1810.37 1450.39 1813.47 1452.83 Q1816.57 1455.23 1816.57 1459.35 Q1816.57 1462.22 1814.93 1464.21 Q1813.28 1466.18 1810.25 1466.95 Z" fill="#000000" fill-rule="nonzero" fill-opacity="1" /><path clip-path="url(#clip590)" d="M2174.94 1454.1 Q2171.33 1454.1 2169.5 1457.66 Q2167.7 1461.2 2167.7 1468.33 Q2167.7 1475.44 2169.5 1479.01 Q2171.33 1482.55 2174.94 1482.55 Q2178.58 1482.55 2180.38 1479.01 Q2182.21 1475.44 2182.21 1468.33 Q2182.21 1461.2 2180.38 1457.66 Q2178.58 1454.1 2174.94 1454.1 M2174.94 1450.39 Q2180.75 1450.39 2183.81 1455 Q2186.89 1459.58 2186.89 1468.33 Q2186.89 1477.06 2183.81 1481.67 Q2180.75 1486.25 2174.94 1486.25 Q2169.13 1486.25 2166.05 1481.67 Q2163 1477.06 2163 1468.33 Q2163 1459.58 2166.05 1455 Q2169.13 1450.39 2174.94 1450.39 Z" fill="#000000" fill-rule="nonzero" fill-opacity="1" /><path clip-path="url(#clip590)" d="M2195.1 1479.7 L2199.99 1479.7 L2199.99 1485.58 L2195.1 1485.58 L2195.1 1479.7 Z" fill="#000000" fill-rule="nonzero" fill-opacity="1" /><path clip-path="url(#clip590)" d="M2220.17 1454.1 Q2216.56 1454.1 2214.73 1457.66 Q2212.93 1461.2 2212.93 1468.33 Q2212.93 1475.44 2214.73 1479.01 Q2216.56 1482.55 2220.17 1482.55 Q2223.81 1482.55 2225.61 1479.01 Q2227.44 1475.44 2227.44 1468.33 Q2227.44 1461.2 2225.61 1457.66 Q2223.81 1454.1 2220.17 1454.1 M2220.17 1450.39 Q2225.98 1450.39 2229.04 1455 Q2232.12 1459.58 2232.12 1468.33 Q2232.12 1477.06 2229.04 1481.67 Q2225.98 1486.25 2220.17 1486.25 Q2214.36 1486.25 2211.28 1481.67 Q2208.23 1477.06 2208.23 1468.33 Q2208.23 1459.58 2211.28 1455 Q2214.36 1450.39 2220.17 1450.39 Z" fill="#000000" fill-rule="nonzero" fill-opacity="1" /><path clip-path="url(#clip590)" d="M2253.18 1455.09 L2241.38 1473.54 L2253.18 1473.54 L2253.18 1455.09 M2251.96 1451.02 L2257.83 1451.02 L2257.83 1473.54 L2262.77 1473.54 L2262.77 1477.43 L2257.83 1477.43 L2257.83 1485.58 L2253.18 1485.58 L2253.18 1477.43 L2237.58 1477.43 L2237.58 1472.92 L2251.96 1451.02 Z" fill="#000000" fill-rule="nonzero" fill-opacity="1" /><path clip-path="url(#clip590)" d="M1235.41 1520.52 L1275.61 1520.52 L1275.61 1525.93 L1258.74 1525.93 L1258.74 1568.04 L1252.27 1568.04 L1252.27 1525.93 L1235.41 1525.93 L1235.41 1520.52 Z" fill="#000000" fill-rule="nonzero" fill-opacity="1" /><path clip-path="url(#clip590)" d="M1279.55 1532.4 L1285.41 1532.4 L1285.41 1568.04 L1279.55 1568.04 L1279.55 1532.4 M1279.55 1518.52 L1285.41 1518.52 L1285.41 1525.93 L1279.55 1525.93 L1279.55 1518.52 Z" fill="#000000" fill-rule="nonzero" fill-opacity="1" /><path clip-path="url(#clip590)" d="M1325.42 1539.24 Q1327.61 1535.29 1330.67 1533.41 Q1333.72 1531.54 1337.86 1531.54 Q1343.43 1531.54 1346.46 1535.45 Q1349.48 1539.33 1349.48 1546.53 L1349.48 1568.04 L1343.59 1568.04 L1343.59 1546.72 Q1343.59 1541.59 1341.78 1539.11 Q1339.96 1536.63 1336.24 1536.63 Q1331.69 1536.63 1329.05 1539.65 Q1326.4 1542.68 1326.4 1547.9 L1326.4 1568.04 L1320.52 1568.04 L1320.52 1546.72 Q1320.52 1541.56 1318.7 1539.11 Q1316.89 1536.63 1313.1 1536.63 Q1308.61 1536.63 1305.97 1539.68 Q1303.33 1542.71 1303.33 1547.9 L1303.33 1568.04 L1297.44 1568.04 L1297.44 1532.4 L1303.33 1532.4 L1303.33 1537.93 Q1305.33 1534.66 1308.13 1533.1 Q1310.93 1531.54 1314.79 1531.54 Q1318.67 1531.54 1321.37 1533.51 Q1324.11 1535.48 1325.42 1539.24 Z" fill="#000000" fill-rule="nonzero" fill-opacity="1" /><path clip-path="url(#clip590)" d="M1391.65 1548.76 L1391.65 1551.62 L1364.73 1551.62 Q1365.11 1557.67 1368.35 1560.85 Q1371.63 1564 1377.46 1564 Q1380.83 1564 1383.98 1563.17 Q1387.16 1562.35 1390.28 1560.69 L1390.28 1566.23 Q1387.13 1567.57 1383.82 1568.27 Q1380.51 1568.97 1377.11 1568.97 Q1368.58 1568.97 1363.58 1564 Q1358.61 1559.04 1358.61 1550.57 Q1358.61 1541.82 1363.32 1536.69 Q1368.07 1531.54 1376.09 1531.54 Q1383.28 1531.54 1387.45 1536.18 Q1391.65 1540.8 1391.65 1548.76 M1385.8 1547.04 Q1385.73 1542.23 1383.09 1539.37 Q1380.48 1536.5 1376.15 1536.5 Q1371.25 1536.5 1368.29 1539.27 Q1365.36 1542.04 1364.92 1547.07 L1385.8 1547.04 Z" fill="#000000" fill-rule="nonzero" fill-opacity="1" /><path clip-path="url(#clip590)" d="M1436.05 1518.58 Q1431.79 1525.9 1429.72 1533.06 Q1427.65 1540.23 1427.65 1547.58 Q1427.65 1554.93 1429.72 1562.16 Q1431.82 1569.35 1436.05 1576.64 L1430.96 1576.64 Q1426.19 1569.16 1423.8 1561.93 Q1421.44 1554.71 1421.44 1547.58 Q1421.44 1540.48 1423.8 1533.29 Q1426.15 1526.09 1430.96 1518.58 L1436.05 1518.58 Z" fill="#000000" fill-rule="nonzero" fill-opacity="1" /><path clip-path="url(#clip590)" d="M1470.14 1533.45 L1470.14 1538.98 Q1467.66 1537.71 1464.98 1537.07 Q1462.31 1536.44 1459.45 1536.44 Q1455.09 1536.44 1452.89 1537.77 Q1450.73 1539.11 1450.73 1541.79 Q1450.73 1543.82 1452.29 1545 Q1453.84 1546.15 1458.56 1547.2 L1460.56 1547.64 Q1466.8 1548.98 1469.41 1551.43 Q1472.05 1553.85 1472.05 1558.21 Q1472.05 1563.17 1468.1 1566.07 Q1464.19 1568.97 1457.31 1568.97 Q1454.45 1568.97 1451.33 1568.39 Q1448.24 1567.85 1444.81 1566.74 L1444.81 1560.69 Q1448.05 1562.38 1451.2 1563.24 Q1454.35 1564.07 1457.44 1564.07 Q1461.58 1564.07 1463.81 1562.66 Q1466.04 1561.23 1466.04 1558.65 Q1466.04 1556.27 1464.41 1554.99 Q1462.82 1553.72 1457.38 1552.54 L1455.34 1552.07 Q1449.9 1550.92 1447.48 1548.56 Q1445.06 1546.18 1445.06 1542.04 Q1445.06 1537.01 1448.63 1534.27 Q1452.19 1531.54 1458.75 1531.54 Q1461.99 1531.54 1464.86 1532.01 Q1467.72 1532.49 1470.14 1533.45 Z" fill="#000000" fill-rule="nonzero" fill-opacity="1" /><path clip-path="url(#clip590)" d="M1480.45 1518.58 L1485.55 1518.58 Q1490.32 1526.09 1492.68 1533.29 Q1495.06 1540.48 1495.06 1547.58 Q1495.06 1554.71 1492.68 1561.93 Q1490.32 1569.16 1485.55 1576.64 L1480.45 1576.64 Q1484.69 1569.35 1486.76 1562.16 Q1488.86 1554.93 1488.86 1547.58 Q1488.86 1540.23 1486.76 1533.06 Q1484.69 1525.9 1480.45 1518.58 Z" fill="#000000" fill-rule="nonzero" fill-opacity="1" /><polyline clip-path="url(#clip590)" style="stroke:#000000; stroke-linecap:round; stroke-linejoin:round; stroke-width:4; stroke-opacity:1; fill:none" points="377.713,1423.18 377.713,123.472 "/>
<polyline clip-path="url(#clip590)" style="stroke:#000000; stroke-linecap:round; stroke-linejoin:round; stroke-width:4; stroke-opacity:1; fill:none" points="377.713,1310.46 396.61,1310.46 "/>
<polyline clip-path="url(#clip590)" style="stroke:#000000; stroke-linecap:round; stroke-linejoin:round; stroke-width:4; stroke-opacity:1; fill:none" points="377.713,1131.41 396.61,1131.41 "/>
<polyline clip-path="url(#clip590)" style="stroke:#000000; stroke-linecap:round; stroke-linejoin:round; stroke-width:4; stroke-opacity:1; fill:none" points="377.713,952.369 396.61,952.369 "/>
<polyline clip-path="url(#clip590)" style="stroke:#000000; stroke-linecap:round; stroke-linejoin:round; stroke-width:4; stroke-opacity:1; fill:none" points="377.713,773.326 396.61,773.326 "/>
<polyline clip-path="url(#clip590)" style="stroke:#000000; stroke-linecap:round; stroke-linejoin:round; stroke-width:4; stroke-opacity:1; fill:none" points="377.713,594.283 396.61,594.283 "/>
<polyline clip-path="url(#clip590)" style="stroke:#000000; stroke-linecap:round; stroke-linejoin:round; stroke-width:4; stroke-opacity:1; fill:none" points="377.713,415.239 396.61,415.239 "/>
<polyline clip-path="url(#clip590)" style="stroke:#000000; stroke-linecap:round; stroke-linejoin:round; stroke-width:4; stroke-opacity:1; fill:none" points="377.713,236.196 396.61,236.196 "/>
<path clip-path="url(#clip590)" d="M114.26 1317.36 L143.936 1317.36 L143.936 1321.29 L114.26 1321.29 L114.26 1317.36 Z" fill="#000000" fill-rule="nonzero" fill-opacity="1" /><path clip-path="url(#clip590)" d="M168.195 1315.55 Q171.552 1316.27 173.427 1318.54 Q175.325 1320.8 175.325 1324.14 Q175.325 1329.25 171.806 1332.05 Q168.288 1334.86 161.806 1334.86 Q159.63 1334.86 157.315 1334.42 Q155.024 1334 152.57 1333.14 L152.57 1328.63 Q154.515 1329.76 156.829 1330.34 Q159.144 1330.92 161.667 1330.92 Q166.065 1330.92 168.357 1329.18 Q170.672 1327.45 170.672 1324.14 Q170.672 1321.08 168.519 1319.37 Q166.39 1317.63 162.57 1317.63 L158.542 1317.63 L158.542 1313.79 L162.755 1313.79 Q166.204 1313.79 168.033 1312.42 Q169.862 1311.04 169.862 1308.44 Q169.862 1305.78 167.964 1304.37 Q166.089 1302.93 162.57 1302.93 Q160.649 1302.93 158.45 1303.35 Q156.251 1303.77 153.612 1304.65 L153.612 1300.48 Q156.274 1299.74 158.589 1299.37 Q160.927 1299 162.987 1299 Q168.311 1299 171.413 1301.43 Q174.514 1303.84 174.514 1307.96 Q174.514 1310.83 172.871 1312.82 Q171.227 1314.79 168.195 1315.55 Z" fill="#000000" fill-rule="nonzero" fill-opacity="1" /><path clip-path="url(#clip590)" d="M184.19 1328.3 L189.075 1328.3 L189.075 1334.18 L184.19 1334.18 L184.19 1328.3 Z" fill="#000000" fill-rule="nonzero" fill-opacity="1" /><path clip-path="url(#clip590)" d="M209.26 1302.7 Q205.649 1302.7 203.82 1306.27 Q202.014 1309.81 202.014 1316.94 Q202.014 1324.05 203.82 1327.61 Q205.649 1331.15 209.26 1331.15 Q212.894 1331.15 214.699 1327.61 Q216.528 1324.05 216.528 1316.94 Q216.528 1309.81 214.699 1306.27 Q212.894 1302.7 209.26 1302.7 M209.26 1299 Q215.07 1299 218.125 1303.61 Q221.204 1308.19 221.204 1316.94 Q221.204 1325.67 218.125 1330.27 Q215.07 1334.86 209.26 1334.86 Q203.449 1334.86 200.371 1330.27 Q197.315 1325.67 197.315 1316.94 Q197.315 1308.19 200.371 1303.61 Q203.449 1299 209.26 1299 Z" fill="#000000" fill-rule="nonzero" fill-opacity="1" /><path clip-path="url(#clip590)" d="M257.593 1308.72 L247.014 1319.35 L257.593 1329.92 L254.838 1332.73 L244.213 1322.1 L233.588 1332.73 L230.857 1329.92 L241.412 1319.35 L230.857 1308.72 L233.588 1305.92 L244.213 1316.55 L254.838 1305.92 L257.593 1308.72 Z" fill="#000000" fill-rule="nonzero" fill-opacity="1" /><path clip-path="url(#clip590)" d="M269.954 1330.25 L277.593 1330.25 L277.593 1303.88 L269.282 1305.55 L269.282 1301.29 L277.546 1299.62 L282.222 1299.62 L282.222 1330.25 L289.861 1330.25 L289.861 1334.18 L269.954 1334.18 L269.954 1330.25 Z" fill="#000000" fill-rule="nonzero" fill-opacity="1" /><path clip-path="url(#clip590)" d="M309.305 1302.7 Q305.694 1302.7 303.866 1306.27 Q302.06 1309.81 302.06 1316.94 Q302.06 1324.05 303.866 1327.61 Q305.694 1331.15 309.305 1331.15 Q312.94 1331.15 314.745 1327.61 Q316.574 1324.05 316.574 1316.94 Q316.574 1309.81 314.745 1306.27 Q312.94 1302.7 309.305 1302.7 M309.305 1299 Q315.116 1299 318.171 1303.61 Q321.25 1308.19 321.25 1316.94 Q321.25 1325.67 318.171 1330.27 Q315.116 1334.86 309.305 1334.86 Q303.495 1334.86 300.417 1330.27 Q297.361 1325.67 297.361 1316.94 Q297.361 1308.19 300.417 1303.61 Q303.495 1299 309.305 1299 Z" fill="#000000" fill-rule="nonzero" fill-opacity="1" /><path clip-path="url(#clip590)" d="M333.926 1282 L324.334 1296.99 L333.926 1296.99 L333.926 1282 M332.929 1278.69 L337.707 1278.69 L337.707 1296.99 L341.713 1296.99 L341.713 1300.15 L337.707 1300.15 L337.707 1306.77 L333.926 1306.77 L333.926 1300.15 L321.25 1300.15 L321.25 1296.49 L332.929 1278.69 Z" fill="#000000" fill-rule="nonzero" fill-opacity="1" /><path clip-path="url(#clip590)" d="M114.26 1138.31 L143.936 1138.31 L143.936 1142.25 L114.26 1142.25 L114.26 1138.31 Z" fill="#000000" fill-rule="nonzero" fill-opacity="1" /><path clip-path="url(#clip590)" d="M158.056 1151.21 L174.376 1151.21 L174.376 1155.14 L152.431 1155.14 L152.431 1151.21 Q155.093 1148.45 159.677 1143.82 Q164.283 1139.17 165.464 1137.83 Q167.709 1135.3 168.589 1133.57 Q169.491 1131.81 169.491 1130.12 Q169.491 1127.36 167.547 1125.63 Q165.626 1123.89 162.524 1123.89 Q160.325 1123.89 157.871 1124.65 Q155.44 1125.42 152.663 1126.97 L152.663 1122.25 Q155.487 1121.11 157.94 1120.53 Q160.394 1119.96 162.431 1119.96 Q167.802 1119.96 170.996 1122.64 Q174.19 1125.33 174.19 1129.82 Q174.19 1131.95 173.38 1133.87 Q172.593 1135.77 170.487 1138.36 Q169.908 1139.03 166.806 1142.25 Q163.704 1145.44 158.056 1151.21 Z" fill="#000000" fill-rule="nonzero" fill-opacity="1" /><path clip-path="url(#clip590)" d="M184.19 1149.26 L189.075 1149.26 L189.075 1155.14 L184.19 1155.14 L184.19 1149.26 Z" fill="#000000" fill-rule="nonzero" fill-opacity="1" /><path clip-path="url(#clip590)" d="M209.26 1123.66 Q205.649 1123.66 203.82 1127.22 Q202.014 1130.77 202.014 1137.9 Q202.014 1145 203.82 1148.57 Q205.649 1152.11 209.26 1152.11 Q212.894 1152.11 214.699 1148.57 Q216.528 1145 216.528 1137.9 Q216.528 1130.77 214.699 1127.22 Q212.894 1123.66 209.26 1123.66 M209.26 1119.96 Q215.07 1119.96 218.125 1124.56 Q221.204 1129.15 221.204 1137.9 Q221.204 1146.62 218.125 1151.23 Q215.07 1155.81 209.26 1155.81 Q203.449 1155.81 200.371 1151.23 Q197.315 1146.62 197.315 1137.9 Q197.315 1129.15 200.371 1124.56 Q203.449 1119.96 209.26 1119.96 Z" fill="#000000" fill-rule="nonzero" fill-opacity="1" /><path clip-path="url(#clip590)" d="M257.593 1129.68 L247.014 1140.3 L257.593 1150.88 L254.838 1153.68 L244.213 1143.06 L233.588 1153.68 L230.857 1150.88 L241.412 1140.3 L230.857 1129.68 L233.588 1126.88 L244.213 1137.5 L254.838 1126.88 L257.593 1129.68 Z" fill="#000000" fill-rule="nonzero" fill-opacity="1" /><path clip-path="url(#clip590)" d="M269.954 1151.21 L277.593 1151.21 L277.593 1124.84 L269.282 1126.51 L269.282 1122.25 L277.546 1120.58 L282.222 1120.58 L282.222 1151.21 L289.861 1151.21 L289.861 1155.14 L269.954 1155.14 L269.954 1151.21 Z" fill="#000000" fill-rule="nonzero" fill-opacity="1" /><path clip-path="url(#clip590)" d="M309.305 1123.66 Q305.694 1123.66 303.866 1127.22 Q302.06 1130.77 302.06 1137.9 Q302.06 1145 303.866 1148.57 Q305.694 1152.11 309.305 1152.11 Q312.94 1152.11 314.745 1148.57 Q316.574 1145 316.574 1137.9 Q316.574 1130.77 314.745 1127.22 Q312.94 1123.66 309.305 1123.66 M309.305 1119.96 Q315.116 1119.96 318.171 1124.56 Q321.25 1129.15 321.25 1137.9 Q321.25 1146.62 318.171 1151.23 Q315.116 1155.81 309.305 1155.81 Q303.495 1155.81 300.417 1151.23 Q297.361 1146.62 297.361 1137.9 Q297.361 1129.15 300.417 1124.56 Q303.495 1119.96 309.305 1119.96 Z" fill="#000000" fill-rule="nonzero" fill-opacity="1" /><path clip-path="url(#clip590)" d="M333.926 1102.96 L324.334 1117.95 L333.926 1117.95 L333.926 1102.96 M332.929 1099.65 L337.707 1099.65 L337.707 1117.95 L341.713 1117.95 L341.713 1121.11 L337.707 1121.11 L337.707 1127.73 L333.926 1127.73 L333.926 1121.11 L321.25 1121.11 L321.25 1117.44 L332.929 1099.65 Z" fill="#000000" fill-rule="nonzero" fill-opacity="1" /><path clip-path="url(#clip590)" d="M114.26 959.268 L143.936 959.268 L143.936 963.204 L114.26 963.204 L114.26 959.268 Z" fill="#000000" fill-rule="nonzero" fill-opacity="1" /><path clip-path="url(#clip590)" d="M154.839 972.162 L162.477 972.162 L162.477 945.796 L154.167 947.463 L154.167 943.204 L162.431 941.537 L167.107 941.537 L167.107 972.162 L174.746 972.162 L174.746 976.097 L154.839 976.097 L154.839 972.162 Z" fill="#000000" fill-rule="nonzero" fill-opacity="1" /><path clip-path="url(#clip590)" d="M184.19 970.217 L189.075 970.217 L189.075 976.097 L184.19 976.097 L184.19 970.217 Z" fill="#000000" fill-rule="nonzero" fill-opacity="1" /><path clip-path="url(#clip590)" d="M209.26 944.616 Q205.649 944.616 203.82 948.181 Q202.014 951.722 202.014 958.852 Q202.014 965.958 203.82 969.523 Q205.649 973.065 209.26 973.065 Q212.894 973.065 214.699 969.523 Q216.528 965.958 216.528 958.852 Q216.528 951.722 214.699 948.181 Q212.894 944.616 209.26 944.616 M209.26 940.912 Q215.07 940.912 218.125 945.519 Q221.204 950.102 221.204 958.852 Q221.204 967.579 218.125 972.185 Q215.07 976.768 209.26 976.768 Q203.449 976.768 200.371 972.185 Q197.315 967.579 197.315 958.852 Q197.315 950.102 200.371 945.519 Q203.449 940.912 209.26 940.912 Z" fill="#000000" fill-rule="nonzero" fill-opacity="1" /><path clip-path="url(#clip590)" d="M257.593 950.634 L247.014 961.259 L257.593 971.838 L254.838 974.639 L244.213 964.014 L233.588 974.639 L230.857 971.838 L241.412 961.259 L230.857 950.634 L233.588 947.833 L244.213 958.458 L254.838 947.833 L257.593 950.634 Z" fill="#000000" fill-rule="nonzero" fill-opacity="1" /><path clip-path="url(#clip590)" d="M269.954 972.162 L277.593 972.162 L277.593 945.796 L269.282 947.463 L269.282 943.204 L277.546 941.537 L282.222 941.537 L282.222 972.162 L289.861 972.162 L289.861 976.097 L269.954 976.097 L269.954 972.162 Z" fill="#000000" fill-rule="nonzero" fill-opacity="1" /><path clip-path="url(#clip590)" d="M309.305 944.616 Q305.694 944.616 303.866 948.181 Q302.06 951.722 302.06 958.852 Q302.06 965.958 303.866 969.523 Q305.694 973.065 309.305 973.065 Q312.94 973.065 314.745 969.523 Q316.574 965.958 316.574 958.852 Q316.574 951.722 314.745 948.181 Q312.94 944.616 309.305 944.616 M309.305 940.912 Q315.116 940.912 318.171 945.519 Q321.25 950.102 321.25 958.852 Q321.25 967.579 318.171 972.185 Q315.116 976.768 309.305 976.768 Q303.495 976.768 300.417 972.185 Q297.361 967.579 297.361 958.852 Q297.361 950.102 300.417 945.519 Q303.495 940.912 309.305 940.912 Z" fill="#000000" fill-rule="nonzero" fill-opacity="1" /><path clip-path="url(#clip590)" d="M333.926 923.917 L324.334 938.907 L333.926 938.907 L333.926 923.917 M332.929 920.607 L337.707 920.607 L337.707 938.907 L341.713 938.907 L341.713 942.066 L337.707 942.066 L337.707 948.687 L333.926 948.687 L333.926 942.066 L321.25 942.066 L321.25 938.399 L332.929 920.607 Z" fill="#000000" fill-rule="nonzero" fill-opacity="1" /><path clip-path="url(#clip590)" d="M329.768 759.125 Q326.157 759.125 324.328 762.689 Q322.523 766.231 322.523 773.361 Q322.523 780.467 324.328 784.032 Q326.157 787.574 329.768 787.574 Q333.403 787.574 335.208 784.032 Q337.037 780.467 337.037 773.361 Q337.037 766.231 335.208 762.689 Q333.403 759.125 329.768 759.125 M329.768 755.421 Q335.578 755.421 338.634 760.027 Q341.713 764.611 341.713 773.361 Q341.713 782.088 338.634 786.694 Q335.578 791.277 329.768 791.277 Q323.958 791.277 320.879 786.694 Q317.824 782.088 317.824 773.361 Q317.824 764.611 320.879 760.027 Q323.958 755.421 329.768 755.421 Z" fill="#000000" fill-rule="nonzero" fill-opacity="1" /><path clip-path="url(#clip590)" d="M154.839 614.075 L162.477 614.075 L162.477 587.709 L154.167 589.376 L154.167 585.117 L162.431 583.45 L167.107 583.45 L167.107 614.075 L174.746 614.075 L174.746 618.01 L154.839 618.01 L154.839 614.075 Z" fill="#000000" fill-rule="nonzero" fill-opacity="1" /><path clip-path="url(#clip590)" d="M184.19 612.131 L189.075 612.131 L189.075 618.01 L184.19 618.01 L184.19 612.131 Z" fill="#000000" fill-rule="nonzero" fill-opacity="1" /><path clip-path="url(#clip590)" d="M209.26 586.529 Q205.649 586.529 203.82 590.094 Q202.014 593.635 202.014 600.765 Q202.014 607.871 203.82 611.436 Q205.649 614.978 209.26 614.978 Q212.894 614.978 214.699 611.436 Q216.528 607.871 216.528 600.765 Q216.528 593.635 214.699 590.094 Q212.894 586.529 209.26 586.529 M209.26 582.825 Q215.07 582.825 218.125 587.432 Q221.204 592.015 221.204 600.765 Q221.204 609.492 218.125 614.098 Q215.07 618.681 209.26 618.681 Q203.449 618.681 200.371 614.098 Q197.315 609.492 197.315 600.765 Q197.315 592.015 200.371 587.432 Q203.449 582.825 209.26 582.825 Z" fill="#000000" fill-rule="nonzero" fill-opacity="1" /><path clip-path="url(#clip590)" d="M257.593 592.547 L247.014 603.172 L257.593 613.751 L254.838 616.552 L244.213 605.927 L233.588 616.552 L230.857 613.751 L241.412 603.172 L230.857 592.547 L233.588 589.746 L244.213 600.371 L254.838 589.746 L257.593 592.547 Z" fill="#000000" fill-rule="nonzero" fill-opacity="1" /><path clip-path="url(#clip590)" d="M269.954 614.075 L277.593 614.075 L277.593 587.709 L269.282 589.376 L269.282 585.117 L277.546 583.45 L282.222 583.45 L282.222 614.075 L289.861 614.075 L289.861 618.01 L269.954 618.01 L269.954 614.075 Z" fill="#000000" fill-rule="nonzero" fill-opacity="1" /><path clip-path="url(#clip590)" d="M309.305 586.529 Q305.694 586.529 303.866 590.094 Q302.06 593.635 302.06 600.765 Q302.06 607.871 303.866 611.436 Q305.694 614.978 309.305 614.978 Q312.94 614.978 314.745 611.436 Q316.574 607.871 316.574 600.765 Q316.574 593.635 314.745 590.094 Q312.94 586.529 309.305 586.529 M309.305 582.825 Q315.116 582.825 318.171 587.432 Q321.25 592.015 321.25 600.765 Q321.25 609.492 318.171 614.098 Q315.116 618.681 309.305 618.681 Q303.495 618.681 300.417 614.098 Q297.361 609.492 297.361 600.765 Q297.361 592.015 300.417 587.432 Q303.495 582.825 309.305 582.825 Z" fill="#000000" fill-rule="nonzero" fill-opacity="1" /><path clip-path="url(#clip590)" d="M333.926 565.83 L324.334 580.82 L333.926 580.82 L333.926 565.83 M332.929 562.52 L337.707 562.52 L337.707 580.82 L341.713 580.82 L341.713 583.979 L337.707 583.979 L337.707 590.6 L333.926 590.6 L333.926 583.979 L321.25 583.979 L321.25 580.312 L332.929 562.52 Z" fill="#000000" fill-rule="nonzero" fill-opacity="1" /><path clip-path="url(#clip590)" d="M158.056 435.032 L174.376 435.032 L174.376 438.967 L152.431 438.967 L152.431 435.032 Q155.093 432.277 159.677 427.647 Q164.283 422.995 165.464 421.652 Q167.709 419.129 168.589 417.393 Q169.491 415.633 169.491 413.944 Q169.491 411.189 167.547 409.453 Q165.626 407.717 162.524 407.717 Q160.325 407.717 157.871 408.481 Q155.44 409.245 152.663 410.796 L152.663 406.073 Q155.487 404.939 157.94 404.36 Q160.394 403.782 162.431 403.782 Q167.802 403.782 170.996 406.467 Q174.19 409.152 174.19 413.643 Q174.19 415.772 173.38 417.694 Q172.593 419.592 170.487 422.184 Q169.908 422.856 166.806 426.073 Q163.704 429.268 158.056 435.032 Z" fill="#000000" fill-rule="nonzero" fill-opacity="1" /><path clip-path="url(#clip590)" d="M184.19 433.087 L189.075 433.087 L189.075 438.967 L184.19 438.967 L184.19 433.087 Z" fill="#000000" fill-rule="nonzero" fill-opacity="1" /><path clip-path="url(#clip590)" d="M209.26 407.485 Q205.649 407.485 203.82 411.05 Q202.014 414.592 202.014 421.721 Q202.014 428.828 203.82 432.393 Q205.649 435.934 209.26 435.934 Q212.894 435.934 214.699 432.393 Q216.528 428.828 216.528 421.721 Q216.528 414.592 214.699 411.05 Q212.894 407.485 209.26 407.485 M209.26 403.782 Q215.07 403.782 218.125 408.388 Q221.204 412.971 221.204 421.721 Q221.204 430.448 218.125 435.055 Q215.07 439.638 209.26 439.638 Q203.449 439.638 200.371 435.055 Q197.315 430.448 197.315 421.721 Q197.315 412.971 200.371 408.388 Q203.449 403.782 209.26 403.782 Z" fill="#000000" fill-rule="nonzero" fill-opacity="1" /><path clip-path="url(#clip590)" d="M257.593 413.504 L247.014 424.129 L257.593 434.707 L254.838 437.508 L244.213 426.883 L233.588 437.508 L230.857 434.707 L241.412 424.129 L230.857 413.504 L233.588 410.703 L244.213 421.328 L254.838 410.703 L257.593 413.504 Z" fill="#000000" fill-rule="nonzero" fill-opacity="1" /><path clip-path="url(#clip590)" d="M269.954 435.032 L277.593 435.032 L277.593 408.666 L269.282 410.333 L269.282 406.073 L277.546 404.407 L282.222 404.407 L282.222 435.032 L289.861 435.032 L289.861 438.967 L269.954 438.967 L269.954 435.032 Z" fill="#000000" fill-rule="nonzero" fill-opacity="1" /><path clip-path="url(#clip590)" d="M309.305 407.485 Q305.694 407.485 303.866 411.05 Q302.06 414.592 302.06 421.721 Q302.06 428.828 303.866 432.393 Q305.694 435.934 309.305 435.934 Q312.94 435.934 314.745 432.393 Q316.574 428.828 316.574 421.721 Q316.574 414.592 314.745 411.05 Q312.94 407.485 309.305 407.485 M309.305 403.782 Q315.116 403.782 318.171 408.388 Q321.25 412.971 321.25 421.721 Q321.25 430.448 318.171 435.055 Q315.116 439.638 309.305 439.638 Q303.495 439.638 300.417 435.055 Q297.361 430.448 297.361 421.721 Q297.361 412.971 300.417 408.388 Q303.495 403.782 309.305 403.782 Z" fill="#000000" fill-rule="nonzero" fill-opacity="1" /><path clip-path="url(#clip590)" d="M333.926 386.786 L324.334 401.776 L333.926 401.776 L333.926 386.786 M332.929 383.476 L337.707 383.476 L337.707 401.776 L341.713 401.776 L341.713 404.936 L337.707 404.936 L337.707 411.556 L333.926 411.556 L333.926 404.936 L321.25 404.936 L321.25 401.268 L332.929 383.476 Z" fill="#000000" fill-rule="nonzero" fill-opacity="1" /><path clip-path="url(#clip590)" d="M168.195 241.289 Q171.552 242.007 173.427 244.275 Q175.325 246.544 175.325 249.877 Q175.325 254.993 171.806 257.794 Q168.288 260.595 161.806 260.595 Q159.63 260.595 157.315 260.155 Q155.024 259.738 152.57 258.882 L152.57 254.368 Q154.515 255.502 156.829 256.081 Q159.144 256.659 161.667 256.659 Q166.065 256.659 168.357 254.923 Q170.672 253.187 170.672 249.877 Q170.672 246.821 168.519 245.108 Q166.39 243.372 162.57 243.372 L158.542 243.372 L158.542 239.53 L162.755 239.53 Q166.204 239.53 168.033 238.164 Q169.862 236.775 169.862 234.183 Q169.862 231.521 167.964 230.109 Q166.089 228.673 162.57 228.673 Q160.649 228.673 158.45 229.09 Q156.251 229.507 153.612 230.386 L153.612 226.22 Q156.274 225.479 158.589 225.109 Q160.927 224.738 162.987 224.738 Q168.311 224.738 171.413 227.169 Q174.514 229.576 174.514 233.697 Q174.514 236.567 172.871 238.558 Q171.227 240.525 168.195 241.289 Z" fill="#000000" fill-rule="nonzero" fill-opacity="1" /><path clip-path="url(#clip590)" d="M184.19 254.044 L189.075 254.044 L189.075 259.923 L184.19 259.923 L184.19 254.044 Z" fill="#000000" fill-rule="nonzero" fill-opacity="1" /><path clip-path="url(#clip590)" d="M209.26 228.442 Q205.649 228.442 203.82 232.007 Q202.014 235.548 202.014 242.678 Q202.014 249.784 203.82 253.349 Q205.649 256.891 209.26 256.891 Q212.894 256.891 214.699 253.349 Q216.528 249.784 216.528 242.678 Q216.528 235.548 214.699 232.007 Q212.894 228.442 209.26 228.442 M209.26 224.738 Q215.07 224.738 218.125 229.345 Q221.204 233.928 221.204 242.678 Q221.204 251.405 218.125 256.011 Q215.07 260.595 209.26 260.595 Q203.449 260.595 200.371 256.011 Q197.315 251.405 197.315 242.678 Q197.315 233.928 200.371 229.345 Q203.449 224.738 209.26 224.738 Z" fill="#000000" fill-rule="nonzero" fill-opacity="1" /><path clip-path="url(#clip590)" d="M257.593 234.46 L247.014 245.085 L257.593 255.664 L254.838 258.465 L244.213 247.84 L233.588 258.465 L230.857 255.664 L241.412 245.085 L230.857 234.46 L233.588 231.659 L244.213 242.284 L254.838 231.659 L257.593 234.46 Z" fill="#000000" fill-rule="nonzero" fill-opacity="1" /><path clip-path="url(#clip590)" d="M269.954 255.988 L277.593 255.988 L277.593 229.622 L269.282 231.289 L269.282 227.03 L277.546 225.363 L282.222 225.363 L282.222 255.988 L289.861 255.988 L289.861 259.923 L269.954 259.923 L269.954 255.988 Z" fill="#000000" fill-rule="nonzero" fill-opacity="1" /><path clip-path="url(#clip590)" d="M309.305 228.442 Q305.694 228.442 303.866 232.007 Q302.06 235.548 302.06 242.678 Q302.06 249.784 303.866 253.349 Q305.694 256.891 309.305 256.891 Q312.94 256.891 314.745 253.349 Q316.574 249.784 316.574 242.678 Q316.574 235.548 314.745 232.007 Q312.94 228.442 309.305 228.442 M309.305 224.738 Q315.116 224.738 318.171 229.345 Q321.25 233.928 321.25 242.678 Q321.25 251.405 318.171 256.011 Q315.116 260.595 309.305 260.595 Q303.495 260.595 300.417 256.011 Q297.361 251.405 297.361 242.678 Q297.361 233.928 300.417 229.345 Q303.495 224.738 309.305 224.738 Z" fill="#000000" fill-rule="nonzero" fill-opacity="1" /><path clip-path="url(#clip590)" d="M333.926 207.743 L324.334 222.733 L333.926 222.733 L333.926 207.743 M332.929 204.433 L337.707 204.433 L337.707 222.733 L341.713 222.733 L341.713 225.892 L337.707 225.892 L337.707 232.513 L333.926 232.513 L333.926 225.892 L321.25 225.892 L321.25 222.225 L332.929 204.433 Z" fill="#000000" fill-rule="nonzero" fill-opacity="1" /><path clip-path="url(#clip590)" d="M22.818 1217.24 L46.4666 1225.96 L46.4666 1208.49 L22.818 1217.24 M16.4842 1220.87 L16.4842 1213.58 L64.0042 1195.47 L64.0042 1202.15 L51.8138 1206.48 L51.8138 1227.9 L64.0042 1232.23 L64.0042 1239.01 L16.4842 1220.87 Z" fill="#000000" fill-rule="nonzero" fill-opacity="1" /><path clip-path="url(#clip590)" d="M42.4881 1159.15 L64.0042 1159.15 L64.0042 1165.01 L42.679 1165.01 Q37.6183 1165.01 35.1038 1166.98 Q32.5894 1168.95 32.5894 1172.9 Q32.5894 1177.64 35.6131 1180.38 Q38.6368 1183.12 43.8567 1183.12 L64.0042 1183.12 L64.0042 1189.01 L28.3562 1189.01 L28.3562 1183.12 L33.8944 1183.12 Q30.6797 1181.02 29.0883 1178.18 Q27.4968 1175.32 27.4968 1171.6 Q27.4968 1165.45 31.3163 1162.3 Q35.1038 1159.15 42.4881 1159.15 Z" fill="#000000" fill-rule="nonzero" fill-opacity="1" /><path clip-path="url(#clip590)" d="M45.7664 1124.01 Q39.4007 1124.01 35.8996 1126.65 Q32.3984 1129.26 32.3984 1134.01 Q32.3984 1138.72 35.8996 1141.36 Q39.4007 1143.97 45.7664 1143.97 Q52.1003 1143.97 55.6014 1141.36 Q59.1026 1138.72 59.1026 1134.01 Q59.1026 1129.26 55.6014 1126.65 Q52.1003 1124.01 45.7664 1124.01 M59.58 1118.16 Q68.683 1118.16 73.1071 1122.2 Q77.5631 1126.24 77.5631 1134.58 Q77.5631 1137.67 77.0857 1140.4 Q76.6401 1143.14 75.6852 1145.72 L69.9879 1145.72 Q71.3884 1143.14 72.0568 1140.63 Q72.7252 1138.11 72.7252 1135.5 Q72.7252 1129.74 69.7015 1126.88 Q66.7096 1124.01 60.6303 1124.01 L57.7339 1124.01 Q60.885 1125.83 62.4446 1128.66 Q64.0042 1131.49 64.0042 1135.44 Q64.0042 1142 59.0071 1146.01 Q54.01 1150.02 45.7664 1150.02 Q37.491 1150.02 32.4939 1146.01 Q27.4968 1142 27.4968 1135.44 Q27.4968 1131.49 29.0564 1128.66 Q30.616 1125.83 33.7671 1124.01 L28.3562 1124.01 L28.3562 1118.16 L59.58 1118.16 Z" fill="#000000" fill-rule="nonzero" fill-opacity="1" /><path clip-path="url(#clip590)" d="M49.9359 1106.7 L28.3562 1106.7 L28.3562 1100.84 L49.7131 1100.84 Q54.7739 1100.84 57.3202 1098.87 Q59.8346 1096.89 59.8346 1092.95 Q59.8346 1088.21 56.8109 1085.47 Q53.7872 1082.7 48.5673 1082.7 L28.3562 1082.7 L28.3562 1076.84 L64.0042 1076.84 L64.0042 1082.7 L58.5296 1082.7 Q61.7762 1084.83 63.3676 1087.66 Q64.9272 1090.47 64.9272 1094.19 Q64.9272 1100.33 61.1078 1103.52 Q57.2883 1106.7 49.9359 1106.7 M27.4968 1091.96 L27.4968 1091.96 Z" fill="#000000" fill-rule="nonzero" fill-opacity="1" /><path clip-path="url(#clip590)" d="M14.479 1064.78 L14.479 1058.92 L64.0042 1058.92 L64.0042 1064.78 L14.479 1064.78 Z" fill="#000000" fill-rule="nonzero" fill-opacity="1" /><path clip-path="url(#clip590)" d="M46.0847 1030.47 Q46.0847 1037.57 47.7079 1040.3 Q49.3312 1043.04 53.2461 1043.04 Q56.3653 1043.04 58.2114 1041 Q60.0256 1038.94 60.0256 1035.4 Q60.0256 1030.53 56.5881 1027.6 Q53.1188 1024.64 47.3897 1024.64 L46.0847 1024.64 L46.0847 1030.47 M43.6657 1018.79 L64.0042 1018.79 L64.0042 1024.64 L58.5933 1024.64 Q61.8398 1026.65 63.3994 1029.64 Q64.9272 1032.63 64.9272 1036.96 Q64.9272 1042.44 61.8716 1045.68 Q58.7843 1048.9 53.6281 1048.9 Q47.6125 1048.9 44.5569 1044.89 Q41.5014 1040.84 41.5014 1032.86 L41.5014 1024.64 L40.9285 1024.64 Q36.8862 1024.64 34.6901 1027.32 Q32.4621 1029.96 32.4621 1034.77 Q32.4621 1037.82 33.1941 1040.72 Q33.9262 1043.61 35.3903 1046.29 L29.9795 1046.29 Q28.7381 1043.07 28.1334 1040.05 Q27.4968 1037.03 27.4968 1034.16 Q27.4968 1026.43 31.5072 1022.61 Q35.5176 1018.79 43.6657 1018.79 Z" fill="#000000" fill-rule="nonzero" fill-opacity="1" /><path clip-path="url(#clip590)" d="M33.8307 986.068 Q33.2578 987.055 33.0032 988.232 Q32.7167 989.378 32.7167 990.779 Q32.7167 995.744 35.9632 998.417 Q39.1779 1001.06 45.2253 1001.06 L64.0042 1001.06 L64.0042 1006.95 L28.3562 1006.95 L28.3562 1001.06 L33.8944 1001.06 Q30.6479 999.213 29.0883 996.253 Q27.4968 993.293 27.4968 989.06 Q27.4968 988.455 27.5923 987.723 Q27.656 986.991 27.8151 986.1 L33.8307 986.068 Z" fill="#000000" fill-rule="nonzero" fill-opacity="1" /><path clip-path="url(#clip590)" d="M46.0847 943.004 Q46.0847 950.102 47.7079 952.839 Q49.3312 955.576 53.2461 955.576 Q56.3653 955.576 58.2114 953.539 Q60.0256 951.47 60.0256 947.937 Q60.0256 943.068 56.5881 940.139 Q53.1188 937.179 47.3897 937.179 L46.0847 937.179 L46.0847 943.004 M43.6657 931.323 L64.0042 931.323 L64.0042 937.179 L58.5933 937.179 Q61.8398 939.184 63.3994 942.176 Q64.9272 945.168 64.9272 949.497 Q64.9272 954.971 61.8716 958.218 Q58.7843 961.433 53.6281 961.433 Q47.6125 961.433 44.5569 957.422 Q41.5014 953.38 41.5014 945.391 L41.5014 937.179 L40.9285 937.179 Q36.8862 937.179 34.6901 939.853 Q32.4621 942.495 32.4621 947.301 Q32.4621 950.356 33.1941 953.253 Q33.9262 956.149 35.3903 958.823 L29.9795 958.823 Q28.7381 955.608 28.1334 952.584 Q27.4968 949.561 27.4968 946.696 Q27.4968 938.962 31.5072 935.142 Q35.5176 931.323 43.6657 931.323 Z" fill="#000000" fill-rule="nonzero" fill-opacity="1" /><path clip-path="url(#clip590)" d="M29.7248 893.606 L35.1993 893.606 Q33.8307 896.089 33.1623 898.603 Q32.4621 901.086 32.4621 903.632 Q32.4621 909.329 36.0905 912.48 Q39.6872 915.631 46.212 915.631 Q52.7369 915.631 56.3653 912.48 Q59.9619 909.329 59.9619 903.632 Q59.9619 901.086 59.2935 898.603 Q58.5933 896.089 57.2247 893.606 L62.6355 893.606 Q63.7814 896.057 64.3543 898.699 Q64.9272 901.309 64.9272 904.269 Q64.9272 912.321 59.8664 917.064 Q54.8057 921.806 46.212 921.806 Q37.491 921.806 32.4939 917.032 Q27.4968 912.226 27.4968 903.887 Q27.4968 901.181 28.0697 898.603 Q28.6108 896.025 29.7248 893.606 Z" fill="#000000" fill-rule="nonzero" fill-opacity="1" /><path clip-path="url(#clip590)" d="M29.7248 857.767 L35.1993 857.767 Q33.8307 860.25 33.1623 862.764 Q32.4621 865.247 32.4621 867.793 Q32.4621 873.49 36.0905 876.641 Q39.6872 879.792 46.212 879.792 Q52.7369 879.792 56.3653 876.641 Q59.9619 873.49 59.9619 867.793 Q59.9619 865.247 59.2935 862.764 Q58.5933 860.25 57.2247 857.767 L62.6355 857.767 Q63.7814 860.218 64.3543 862.86 Q64.9272 865.47 64.9272 868.43 Q64.9272 876.482 59.8664 881.225 Q54.8057 885.967 46.212 885.967 Q37.491 885.967 32.4939 881.193 Q27.4968 876.387 27.4968 868.048 Q27.4968 865.342 28.0697 862.764 Q28.6108 860.186 29.7248 857.767 Z" fill="#000000" fill-rule="nonzero" fill-opacity="1" /><path clip-path="url(#clip590)" d="M44.7161 817.09 L47.5806 817.09 L47.5806 844.017 Q53.6281 843.635 56.8109 840.389 Q59.9619 837.11 59.9619 831.286 Q59.9619 827.912 59.1344 824.761 Q58.3069 821.578 56.6518 818.459 L62.1899 818.459 Q63.5267 821.61 64.227 824.92 Q64.9272 828.23 64.9272 831.636 Q64.9272 840.166 59.9619 845.163 Q54.9967 850.128 46.5303 850.128 Q37.7774 850.128 32.6531 845.418 Q27.4968 840.675 27.4968 832.654 Q27.4968 825.461 32.1438 821.292 Q36.7589 817.09 44.7161 817.09 M42.9973 822.947 Q38.1912 823.01 35.3266 825.652 Q32.4621 828.262 32.4621 832.591 Q32.4621 837.492 35.2312 840.452 Q38.0002 843.381 43.0292 843.826 L42.9973 822.947 Z" fill="#000000" fill-rule="nonzero" fill-opacity="1" /><path clip-path="url(#clip590)" d="M14.479 807.478 L14.479 801.622 L64.0042 801.622 L64.0042 807.478 L14.479 807.478 Z" fill="#000000" fill-rule="nonzero" fill-opacity="1" /><path clip-path="url(#clip590)" d="M44.7161 758.876 L47.5806 758.876 L47.5806 785.803 Q53.6281 785.421 56.8109 782.174 Q59.9619 778.896 59.9619 773.071 Q59.9619 769.698 59.1344 766.547 Q58.3069 763.364 56.6518 760.244 L62.1899 760.244 Q63.5267 763.395 64.227 766.706 Q64.9272 770.016 64.9272 773.421 Q64.9272 781.952 59.9619 786.949 Q54.9967 791.914 46.5303 791.914 Q37.7774 791.914 32.6531 787.203 Q27.4968 782.461 27.4968 774.44 Q27.4968 767.247 32.1438 763.077 Q36.7589 758.876 44.7161 758.876 M42.9973 764.732 Q38.1912 764.796 35.3266 767.438 Q32.4621 770.048 32.4621 774.376 Q32.4621 779.278 35.2312 782.238 Q38.0002 785.166 43.0292 785.612 L42.9973 764.732 Z" fill="#000000" fill-rule="nonzero" fill-opacity="1" /><path clip-path="url(#clip590)" d="M33.8307 728.607 Q33.2578 729.594 33.0032 730.771 Q32.7167 731.917 32.7167 733.318 Q32.7167 738.283 35.9632 740.956 Q39.1779 743.598 45.2253 743.598 L64.0042 743.598 L64.0042 749.486 L28.3562 749.486 L28.3562 743.598 L33.8944 743.598 Q30.6479 741.752 29.0883 738.792 Q27.4968 735.832 27.4968 731.599 Q27.4968 730.994 27.5923 730.262 Q27.656 729.53 27.8151 728.639 L33.8307 728.607 Z" fill="#000000" fill-rule="nonzero" fill-opacity="1" /><path clip-path="url(#clip590)" d="M46.0847 706.263 Q46.0847 713.361 47.7079 716.098 Q49.3312 718.836 53.2461 718.836 Q56.3653 718.836 58.2114 716.799 Q60.0256 714.73 60.0256 711.197 Q60.0256 706.327 56.5881 703.399 Q53.1188 700.439 47.3897 700.439 L46.0847 700.439 L46.0847 706.263 M43.6657 694.582 L64.0042 694.582 L64.0042 700.439 L58.5933 700.439 Q61.8398 702.444 63.3994 705.436 Q64.9272 708.428 64.9272 712.756 Q64.9272 718.231 61.8716 721.477 Q58.7843 724.692 53.6281 724.692 Q47.6125 724.692 44.5569 720.682 Q41.5014 716.639 41.5014 708.65 L41.5014 700.439 L40.9285 700.439 Q36.8862 700.439 34.6901 703.112 Q32.4621 705.754 32.4621 710.56 Q32.4621 713.616 33.1941 716.512 Q33.9262 719.408 35.3903 722.082 L29.9795 722.082 Q28.7381 718.867 28.1334 715.844 Q27.4968 712.82 27.4968 709.955 Q27.4968 702.221 31.5072 698.402 Q35.5176 694.582 43.6657 694.582 Z" fill="#000000" fill-rule="nonzero" fill-opacity="1" /><path clip-path="url(#clip590)" d="M18.2347 676.726 L28.3562 676.726 L28.3562 664.663 L32.9077 664.663 L32.9077 676.726 L52.2594 676.726 Q56.6199 676.726 57.8613 675.549 Q59.1026 674.339 59.1026 670.679 L59.1026 664.663 L64.0042 664.663 L64.0042 670.679 Q64.0042 677.458 61.4897 680.037 Q58.9434 682.615 52.2594 682.615 L32.9077 682.615 L32.9077 686.912 L28.3562 686.912 L28.3562 682.615 L18.2347 682.615 L18.2347 676.726 Z" fill="#000000" fill-rule="nonzero" fill-opacity="1" /><path clip-path="url(#clip590)" d="M28.3562 656.961 L28.3562 651.104 L64.0042 651.104 L64.0042 656.961 L28.3562 656.961 M14.479 656.961 L14.479 651.104 L21.895 651.104 L21.895 656.961 L14.479 656.961 Z" fill="#000000" fill-rule="nonzero" fill-opacity="1" /><path clip-path="url(#clip590)" d="M32.4621 625.037 Q32.4621 629.747 36.1542 632.485 Q39.8145 635.222 46.212 635.222 Q52.6095 635.222 56.3017 632.517 Q59.9619 629.779 59.9619 625.037 Q59.9619 620.358 56.2698 617.621 Q52.5777 614.884 46.212 614.884 Q39.8781 614.884 36.186 617.621 Q32.4621 620.358 32.4621 625.037 M27.4968 625.037 Q27.4968 617.398 32.4621 613.037 Q37.4273 608.677 46.212 608.677 Q54.9649 608.677 59.9619 613.037 Q64.9272 617.398 64.9272 625.037 Q64.9272 632.708 59.9619 637.068 Q54.9649 641.397 46.212 641.397 Q37.4273 641.397 32.4621 637.068 Q27.4968 632.708 27.4968 625.037 Z" fill="#000000" fill-rule="nonzero" fill-opacity="1" /><path clip-path="url(#clip590)" d="M42.4881 569.337 L64.0042 569.337 L64.0042 575.193 L42.679 575.193 Q37.6183 575.193 35.1038 577.167 Q32.5894 579.14 32.5894 583.087 Q32.5894 587.829 35.6131 590.567 Q38.6368 593.304 43.8567 593.304 L64.0042 593.304 L64.0042 599.192 L28.3562 599.192 L28.3562 593.304 L33.8944 593.304 Q30.6797 591.203 29.0883 588.37 Q27.4968 585.506 27.4968 581.782 Q27.4968 575.639 31.3163 572.488 Q35.1038 569.337 42.4881 569.337 Z" fill="#000000" fill-rule="nonzero" fill-opacity="1" /><path clip-path="url(#clip590)" d="M14.5426 522.867 Q21.8632 527.132 29.0246 529.201 Q36.186 531.27 43.5384 531.27 Q50.8908 531.27 58.1159 529.201 Q65.3091 527.1 72.5979 522.867 L72.5979 527.96 Q65.1182 532.734 57.8931 535.121 Q50.668 537.477 43.5384 537.477 Q36.4406 537.477 29.2474 535.121 Q22.0542 532.766 14.5426 527.96 L14.5426 522.867 Z" fill="#000000" fill-rule="nonzero" fill-opacity="1" /><path clip-path="url(#clip590)" d="M33.8307 490.848 Q33.2578 491.834 33.0032 493.012 Q32.7167 494.158 32.7167 495.558 Q32.7167 500.524 35.9632 503.197 Q39.1779 505.839 45.2253 505.839 L64.0042 505.839 L64.0042 511.727 L28.3562 511.727 L28.3562 505.839 L33.8944 505.839 Q30.6479 503.993 29.0883 501.033 Q27.4968 498.073 27.4968 493.84 Q27.4968 493.235 27.5923 492.503 Q27.656 491.771 27.8151 490.88 L33.8307 490.848 Z" fill="#000000" fill-rule="nonzero" fill-opacity="1" /><path clip-path="url(#clip590)" d="M46.0847 468.504 Q46.0847 475.602 47.7079 478.339 Q49.3312 481.076 53.2461 481.076 Q56.3653 481.076 58.2114 479.039 Q60.0256 476.971 60.0256 473.438 Q60.0256 468.568 56.5881 465.64 Q53.1188 462.68 47.3897 462.68 L46.0847 462.68 L46.0847 468.504 M43.6657 456.823 L64.0042 456.823 L64.0042 462.68 L58.5933 462.68 Q61.8398 464.685 63.3994 467.677 Q64.9272 470.668 64.9272 474.997 Q64.9272 480.472 61.8716 483.718 Q58.7843 486.933 53.6281 486.933 Q47.6125 486.933 44.5569 482.922 Q41.5014 478.88 41.5014 470.891 L41.5014 462.68 L40.9285 462.68 Q36.8862 462.68 34.6901 465.353 Q32.4621 467.995 32.4621 472.801 Q32.4621 475.857 33.1941 478.753 Q33.9262 481.649 35.3903 484.323 L29.9795 484.323 Q28.7381 481.108 28.1334 478.085 Q27.4968 475.061 27.4968 472.196 Q27.4968 464.462 31.5072 460.642 Q35.5176 456.823 43.6657 456.823 Z" fill="#000000" fill-rule="nonzero" fill-opacity="1" /><path clip-path="url(#clip590)" d="M33.7671 421.302 L14.479 421.302 L14.479 415.446 L64.0042 415.446 L64.0042 421.302 L58.657 421.302 Q61.8398 423.148 63.3994 425.981 Q64.9272 428.782 64.9272 432.729 Q64.9272 439.19 59.771 443.264 Q54.6147 447.306 46.212 447.306 Q37.8093 447.306 32.6531 443.264 Q27.4968 439.19 27.4968 432.729 Q27.4968 428.782 29.0564 425.981 Q30.5842 423.148 33.7671 421.302 M46.212 441.259 Q52.6732 441.259 56.3653 438.617 Q60.0256 435.944 60.0256 431.297 Q60.0256 426.65 56.3653 423.976 Q52.6732 421.302 46.212 421.302 Q39.7508 421.302 36.0905 423.976 Q32.3984 426.65 32.3984 431.297 Q32.3984 435.944 36.0905 438.617 Q39.7508 441.259 46.212 441.259 Z" fill="#000000" fill-rule="nonzero" fill-opacity="1" /><path clip-path="url(#clip590)" d="M16.4842 392.975 L16.4842 387.564 L70.0516 404.115 L70.0516 409.526 L16.4842 392.975 Z" fill="#000000" fill-rule="nonzero" fill-opacity="1" /><path clip-path="url(#clip590)" d="M29.4065 358.696 L34.9447 358.696 Q33.6716 361.178 33.035 363.852 Q32.3984 366.526 32.3984 369.39 Q32.3984 373.751 33.7352 375.947 Q35.072 378.111 37.7456 378.111 Q39.7826 378.111 40.9603 376.551 Q42.1061 374.992 43.1565 370.281 L43.6021 368.276 Q44.9389 362.038 47.3897 359.428 Q49.8086 356.786 54.1691 356.786 Q59.1344 356.786 62.0308 360.733 Q64.9272 364.648 64.9272 371.523 Q64.9272 374.387 64.3543 377.506 Q63.8132 380.594 62.6992 384.031 L56.6518 384.031 Q58.3387 380.785 59.198 377.634 Q60.0256 374.483 60.0256 371.395 Q60.0256 367.258 58.6251 365.03 Q57.1929 362.802 54.6147 362.802 Q52.2276 362.802 50.9545 364.425 Q49.6813 366.016 48.5037 371.459 L48.0262 373.496 Q46.8804 378.939 44.5251 381.358 Q42.138 383.777 38.0002 383.777 Q32.9713 383.777 30.2341 380.212 Q27.4968 376.647 27.4968 370.09 Q27.4968 366.844 27.9743 363.979 Q28.4517 361.115 29.4065 358.696 Z" fill="#000000" fill-rule="nonzero" fill-opacity="1" /><path clip-path="url(#clip590)" d="M39.1142 345.073 L39.1142 331.578 L42.7427 331.578 L42.7427 350.611 L39.2416 350.611 Q38.2549 349.529 36.4725 347.524 Q26.7648 336.575 23.7729 336.575 Q21.6722 336.575 20.3991 338.23 Q19.0941 339.885 19.0941 342.59 Q19.0941 344.246 19.667 346.187 Q20.2081 348.129 21.3221 350.42 L17.4072 350.42 Q16.516 347.969 16.0704 345.869 Q15.6248 343.736 15.6248 341.922 Q15.6248 337.307 17.7255 334.538 Q19.8262 331.769 23.2636 331.769 Q27.6878 331.769 36.7271 342.304 Q38.2549 344.086 39.1142 345.073 Z" fill="#000000" fill-rule="nonzero" fill-opacity="1" /><path clip-path="url(#clip590)" d="M14.5426 322.252 L14.5426 317.159 Q22.0542 312.385 29.2474 310.03 Q36.4406 307.643 43.5384 307.643 Q50.668 307.643 57.8931 310.03 Q65.1182 312.385 72.5979 317.159 L72.5979 322.252 Q65.3091 318.019 58.1159 315.95 Q50.8908 313.849 43.5384 313.849 Q36.186 313.849 29.0246 315.95 Q21.8632 318.019 14.5426 322.252 Z" fill="#000000" fill-rule="nonzero" fill-opacity="1" /><path clip-path="url(#clip590)" d="M589.203 20.1573 L578.103 50.2555 L600.343 50.2555 L589.203 20.1573 M584.585 12.096 L593.861 12.096 L616.911 72.576 L608.404 72.576 L602.895 57.061 L575.632 57.061 L570.123 72.576 L561.494 72.576 L584.585 12.096 Z" fill="#000000" fill-rule="nonzero" fill-opacity="1" /><path clip-path="url(#clip590)" d="M663.132 45.1919 L663.132 72.576 L655.678 72.576 L655.678 45.4349 Q655.678 38.994 653.166 35.7938 Q650.655 32.5936 645.632 32.5936 Q639.596 32.5936 636.112 36.4419 Q632.628 40.2903 632.628 46.9338 L632.628 72.576 L625.134 72.576 L625.134 27.2059 L632.628 27.2059 L632.628 34.2544 Q635.302 30.163 638.907 28.1376 Q642.553 26.1121 647.293 26.1121 Q655.111 26.1121 659.121 30.9732 Q663.132 35.7938 663.132 45.1919 Z" fill="#000000" fill-rule="nonzero" fill-opacity="1" /><path clip-path="url(#clip590)" d="M707.854 49.3643 Q707.854 41.2625 704.491 36.8065 Q701.17 32.3505 695.134 32.3505 Q689.138 32.3505 685.776 36.8065 Q682.454 41.2625 682.454 49.3643 Q682.454 57.4256 685.776 61.8816 Q689.138 66.3376 695.134 66.3376 Q701.17 66.3376 704.491 61.8816 Q707.854 57.4256 707.854 49.3643 M715.307 66.9452 Q715.307 78.5308 710.163 84.1616 Q705.018 89.8329 694.405 89.8329 Q690.475 89.8329 686.991 89.2252 Q683.508 88.6581 680.226 87.4428 L680.226 80.1917 Q683.508 81.9741 686.708 82.8248 Q689.908 83.6755 693.23 83.6755 Q700.562 83.6755 704.208 79.8271 Q707.854 76.0193 707.854 68.282 L707.854 64.5957 Q705.545 68.6061 701.939 70.5911 Q698.334 72.576 693.311 72.576 Q684.966 72.576 679.862 66.2161 Q674.758 59.8562 674.758 49.3643 Q674.758 38.832 679.862 32.472 Q684.966 26.1121 693.311 26.1121 Q698.334 26.1121 701.939 28.0971 Q705.545 30.082 707.854 34.0924 L707.854 27.2059 L715.307 27.2059 L715.307 66.9452 Z" fill="#000000" fill-rule="nonzero" fill-opacity="1" /><path clip-path="url(#clip590)" d="M729.89 54.671 L729.89 27.2059 L737.344 27.2059 L737.344 54.3874 Q737.344 60.8284 739.856 64.0691 Q742.367 67.2693 747.39 67.2693 Q753.426 67.2693 756.91 63.421 Q760.434 59.5726 760.434 52.9291 L760.434 27.2059 L767.888 27.2059 L767.888 72.576 L760.434 72.576 L760.434 65.6084 Q757.72 69.7404 754.115 71.7658 Q750.55 73.7508 745.811 73.7508 Q737.992 73.7508 733.941 68.8897 Q729.89 64.0286 729.89 54.671 M748.646 26.1121 L748.646 26.1121 Z" fill="#000000" fill-rule="nonzero" fill-opacity="1" /><path clip-path="url(#clip590)" d="M783.241 9.54393 L790.695 9.54393 L790.695 72.576 L783.241 72.576 L783.241 9.54393 Z" fill="#000000" fill-rule="nonzero" fill-opacity="1" /><path clip-path="url(#clip590)" d="M826.91 49.7694 Q817.876 49.7694 814.392 51.8354 Q810.909 53.9013 810.909 58.8839 Q810.909 62.8538 813.501 65.2034 Q816.134 67.5124 820.631 67.5124 Q826.829 67.5124 830.555 63.1374 Q834.323 58.7219 834.323 51.4303 L834.323 49.7694 L826.91 49.7694 M841.776 46.6907 L841.776 72.576 L834.323 72.576 L834.323 65.6895 Q831.771 69.8214 827.963 71.8063 Q824.155 73.7508 818.646 73.7508 Q811.678 73.7508 807.546 69.8619 Q803.455 65.9325 803.455 59.3701 Q803.455 51.7138 808.559 47.825 Q813.704 43.9361 823.871 43.9361 L834.323 43.9361 L834.323 43.2069 Q834.323 38.0623 830.92 35.2672 Q827.558 32.4315 821.441 32.4315 Q817.552 32.4315 813.866 33.3632 Q810.179 34.295 806.777 36.1584 L806.777 29.2718 Q810.868 27.692 814.716 26.9223 Q818.565 26.1121 822.211 26.1121 Q832.054 26.1121 836.915 31.2163 Q841.776 36.3204 841.776 46.6907 Z" fill="#000000" fill-rule="nonzero" fill-opacity="1" /><path clip-path="url(#clip590)" d="M883.42 34.1734 Q882.164 33.4443 880.665 33.1202 Q879.207 32.7556 877.424 32.7556 Q871.105 32.7556 867.702 36.8875 Q864.34 40.9789 864.34 48.6757 L864.34 72.576 L856.846 72.576 L856.846 27.2059 L864.34 27.2059 L864.34 34.2544 Q866.689 30.1225 870.457 28.1376 Q874.224 26.1121 879.612 26.1121 Q880.382 26.1121 881.313 26.2337 Q882.245 26.3147 883.379 26.5172 L883.42 34.1734 Z" fill="#000000" fill-rule="nonzero" fill-opacity="1" /><path clip-path="url(#clip590)" d="M938.147 20.1573 L927.048 50.2555 L949.287 50.2555 L938.147 20.1573 M933.529 12.096 L942.806 12.096 L965.856 72.576 L957.349 72.576 L951.839 57.061 L924.577 57.061 L919.068 72.576 L910.439 72.576 L933.529 12.096 Z" fill="#000000" fill-rule="nonzero" fill-opacity="1" /><path clip-path="url(#clip590)" d="M1005.55 28.9478 L1005.55 35.9153 Q1002.39 34.1734 999.195 33.3227 Q996.035 32.4315 992.794 32.4315 Q985.543 32.4315 981.533 37.0496 Q977.522 41.6271 977.522 49.9314 Q977.522 58.2358 981.533 62.8538 Q985.543 67.4314 992.794 67.4314 Q996.035 67.4314 999.195 66.5807 Q1002.39 65.6895 1005.55 63.9476 L1005.55 70.8341 Q1002.44 72.2924 999.073 73.0216 Q995.751 73.7508 991.984 73.7508 Q981.735 73.7508 975.699 67.3098 Q969.663 60.8689 969.663 49.9314 Q969.663 38.832 975.74 32.472 Q981.857 26.1121 992.47 26.1121 Q995.913 26.1121 999.195 26.8413 Q1002.48 27.5299 1005.55 28.9478 Z" fill="#000000" fill-rule="nonzero" fill-opacity="1" /><path clip-path="url(#clip590)" d="M1051.17 28.9478 L1051.17 35.9153 Q1048.01 34.1734 1044.81 33.3227 Q1041.65 32.4315 1038.41 32.4315 Q1031.16 32.4315 1027.15 37.0496 Q1023.14 41.6271 1023.14 49.9314 Q1023.14 58.2358 1027.15 62.8538 Q1031.16 67.4314 1038.41 67.4314 Q1041.65 67.4314 1044.81 66.5807 Q1048.01 65.6895 1051.17 63.9476 L1051.17 70.8341 Q1048.05 72.2924 1044.69 73.0216 Q1041.36 73.7508 1037.6 73.7508 Q1027.35 73.7508 1021.31 67.3098 Q1015.28 60.8689 1015.28 49.9314 Q1015.28 38.832 1021.35 32.472 Q1027.47 26.1121 1038.08 26.1121 Q1041.53 26.1121 1044.81 26.8413 Q1048.09 27.5299 1051.17 28.9478 Z" fill="#000000" fill-rule="nonzero" fill-opacity="1" /><path clip-path="url(#clip590)" d="M1102.94 48.0275 L1102.94 51.6733 L1068.67 51.6733 Q1069.15 59.3701 1073.29 63.421 Q1077.46 67.4314 1084.87 67.4314 Q1089.17 67.4314 1093.18 66.3781 Q1097.23 65.3249 1101.2 63.2184 L1101.2 70.267 Q1097.19 71.9684 1092.97 72.8596 Q1088.76 73.7508 1084.43 73.7508 Q1073.57 73.7508 1067.21 67.4314 Q1060.89 61.1119 1060.89 50.3365 Q1060.89 39.1965 1066.89 32.6746 Q1072.92 26.1121 1083.13 26.1121 Q1092.28 26.1121 1097.59 32.0264 Q1102.94 37.9003 1102.94 48.0275 M1095.48 45.84 Q1095.4 39.7232 1092.04 36.0774 Q1088.72 32.4315 1083.21 32.4315 Q1076.97 32.4315 1073.2 35.9558 Q1069.48 39.4801 1068.91 45.8805 L1095.48 45.84 Z" fill="#000000" fill-rule="nonzero" fill-opacity="1" /><path clip-path="url(#clip590)" d="M1115.17 9.54393 L1122.63 9.54393 L1122.63 72.576 L1115.17 72.576 L1115.17 9.54393 Z" fill="#000000" fill-rule="nonzero" fill-opacity="1" /><path clip-path="url(#clip590)" d="M1177.03 48.0275 L1177.03 51.6733 L1142.76 51.6733 Q1143.24 59.3701 1147.38 63.421 Q1151.55 67.4314 1158.96 67.4314 Q1163.26 67.4314 1167.27 66.3781 Q1171.32 65.3249 1175.29 63.2184 L1175.29 70.267 Q1171.28 71.9684 1167.06 72.8596 Q1162.85 73.7508 1158.52 73.7508 Q1147.66 73.7508 1141.3 67.4314 Q1134.98 61.1119 1134.98 50.3365 Q1134.98 39.1965 1140.98 32.6746 Q1147.01 26.1121 1157.22 26.1121 Q1166.38 26.1121 1171.68 32.0264 Q1177.03 37.9003 1177.03 48.0275 M1169.58 45.84 Q1169.49 39.7232 1166.13 36.0774 Q1162.81 32.4315 1157.3 32.4315 Q1151.06 32.4315 1147.3 35.9558 Q1143.57 39.4801 1143 45.8805 L1169.58 45.84 Z" fill="#000000" fill-rule="nonzero" fill-opacity="1" /><path clip-path="url(#clip590)" d="M1215.55 34.1734 Q1214.3 33.4443 1212.8 33.1202 Q1211.34 32.7556 1209.56 32.7556 Q1203.24 32.7556 1199.84 36.8875 Q1196.47 40.9789 1196.47 48.6757 L1196.47 72.576 L1188.98 72.576 L1188.98 27.2059 L1196.47 27.2059 L1196.47 34.2544 Q1198.82 30.1225 1202.59 28.1376 Q1206.36 26.1121 1211.75 26.1121 Q1212.52 26.1121 1213.45 26.2337 Q1214.38 26.3147 1215.51 26.5172 L1215.55 34.1734 Z" fill="#000000" fill-rule="nonzero" fill-opacity="1" /><path clip-path="url(#clip590)" d="M1243.99 49.7694 Q1234.96 49.7694 1231.47 51.8354 Q1227.99 53.9013 1227.99 58.8839 Q1227.99 62.8538 1230.58 65.2034 Q1233.22 67.5124 1237.71 67.5124 Q1243.91 67.5124 1247.64 63.1374 Q1251.4 58.7219 1251.4 51.4303 L1251.4 49.7694 L1243.99 49.7694 M1258.86 46.6907 L1258.86 72.576 L1251.4 72.576 L1251.4 65.6895 Q1248.85 69.8214 1245.04 71.8063 Q1241.24 73.7508 1235.73 73.7508 Q1228.76 73.7508 1224.63 69.8619 Q1220.54 65.9325 1220.54 59.3701 Q1220.54 51.7138 1225.64 47.825 Q1230.78 43.9361 1240.95 43.9361 L1251.4 43.9361 L1251.4 43.2069 Q1251.4 38.0623 1248 35.2672 Q1244.64 32.4315 1238.52 32.4315 Q1234.63 32.4315 1230.95 33.3632 Q1227.26 34.295 1223.86 36.1584 L1223.86 29.2718 Q1227.95 27.692 1231.8 26.9223 Q1235.65 26.1121 1239.29 26.1121 Q1249.14 26.1121 1254 31.2163 Q1258.86 36.3204 1258.86 46.6907 Z" fill="#000000" fill-rule="nonzero" fill-opacity="1" /><path clip-path="url(#clip590)" d="M1281.58 14.324 L1281.58 27.2059 L1296.94 27.2059 L1296.94 32.9987 L1281.58 32.9987 L1281.58 57.6282 Q1281.58 63.1779 1283.08 64.7578 Q1284.62 66.3376 1289.28 66.3376 L1296.94 66.3376 L1296.94 72.576 L1289.28 72.576 Q1280.65 72.576 1277.37 69.3758 Q1274.09 66.1351 1274.09 57.6282 L1274.09 32.9987 L1268.62 32.9987 L1268.62 27.2059 L1274.09 27.2059 L1274.09 14.324 L1281.58 14.324 Z" fill="#000000" fill-rule="nonzero" fill-opacity="1" /><path clip-path="url(#clip590)" d="M1306.74 27.2059 L1314.19 27.2059 L1314.19 72.576 L1306.74 72.576 L1306.74 27.2059 M1306.74 9.54393 L1314.19 9.54393 L1314.19 18.9825 L1306.74 18.9825 L1306.74 9.54393 Z" fill="#000000" fill-rule="nonzero" fill-opacity="1" /><path clip-path="url(#clip590)" d="M1347.37 32.4315 Q1341.37 32.4315 1337.89 37.1306 Q1334.41 41.7891 1334.41 49.9314 Q1334.41 58.0738 1337.85 62.7728 Q1341.33 67.4314 1347.37 67.4314 Q1353.32 67.4314 1356.81 62.7323 Q1360.29 58.0333 1360.29 49.9314 Q1360.29 41.8701 1356.81 37.1711 Q1353.32 32.4315 1347.37 32.4315 M1347.37 26.1121 Q1357.09 26.1121 1362.64 32.4315 Q1368.19 38.7509 1368.19 49.9314 Q1368.19 61.0714 1362.64 67.4314 Q1357.09 73.7508 1347.37 73.7508 Q1337.61 73.7508 1332.06 67.4314 Q1326.55 61.0714 1326.55 49.9314 Q1326.55 38.7509 1332.06 32.4315 Q1337.61 26.1121 1347.37 26.1121 Z" fill="#000000" fill-rule="nonzero" fill-opacity="1" /><path clip-path="url(#clip590)" d="M1418.26 45.1919 L1418.26 72.576 L1410.81 72.576 L1410.81 45.4349 Q1410.81 38.994 1408.3 35.7938 Q1405.78 32.5936 1400.76 32.5936 Q1394.72 32.5936 1391.24 36.4419 Q1387.76 40.2903 1387.76 46.9338 L1387.76 72.576 L1380.26 72.576 L1380.26 27.2059 L1387.76 27.2059 L1387.76 34.2544 Q1390.43 30.163 1394.04 28.1376 Q1397.68 26.1121 1402.42 26.1121 Q1410.24 26.1121 1414.25 30.9732 Q1418.26 35.7938 1418.26 45.1919 Z" fill="#000000" fill-rule="nonzero" fill-opacity="1" /><path clip-path="url(#clip590)" d="M1477.08 32.4315 Q1471.08 32.4315 1467.6 37.1306 Q1464.12 41.7891 1464.12 49.9314 Q1464.12 58.0738 1467.56 62.7728 Q1471.04 67.4314 1477.08 67.4314 Q1483.03 67.4314 1486.52 62.7323 Q1490 58.0333 1490 49.9314 Q1490 41.8701 1486.52 37.1711 Q1483.03 32.4315 1477.08 32.4315 M1477.08 26.1121 Q1486.8 26.1121 1492.35 32.4315 Q1497.9 38.7509 1497.9 49.9314 Q1497.9 61.0714 1492.35 67.4314 Q1486.8 73.7508 1477.08 73.7508 Q1467.32 73.7508 1461.77 67.4314 Q1456.26 61.0714 1456.26 49.9314 Q1456.26 38.7509 1461.77 32.4315 Q1467.32 26.1121 1477.08 26.1121 Z" fill="#000000" fill-rule="nonzero" fill-opacity="1" /><path clip-path="url(#clip590)" d="M1533.23 9.54393 L1533.23 15.7418 L1526.1 15.7418 Q1522.09 15.7418 1520.51 17.3622 Q1518.97 18.9825 1518.97 23.1955 L1518.97 27.2059 L1531.24 27.2059 L1531.24 32.9987 L1518.97 32.9987 L1518.97 72.576 L1511.47 72.576 L1511.47 32.9987 L1504.34 32.9987 L1504.34 27.2059 L1511.47 27.2059 L1511.47 24.0462 Q1511.47 16.471 1515 13.0277 Q1518.52 9.54393 1526.18 9.54393 L1533.23 9.54393 Z" fill="#000000" fill-rule="nonzero" fill-opacity="1" /><path clip-path="url(#clip590)" d="M1573.21 14.324 L1573.21 27.2059 L1588.56 27.2059 L1588.56 32.9987 L1573.21 32.9987 L1573.21 57.6282 Q1573.21 63.1779 1574.71 64.7578 Q1576.25 66.3376 1580.9 66.3376 L1588.56 66.3376 L1588.56 72.576 L1580.9 72.576 Q1572.28 72.576 1568.99 69.3758 Q1565.71 66.1351 1565.71 57.6282 L1565.71 32.9987 L1560.24 32.9987 L1560.24 27.2059 L1565.71 27.2059 L1565.71 14.324 L1573.21 14.324 Z" fill="#000000" fill-rule="nonzero" fill-opacity="1" /><path clip-path="url(#clip590)" d="M1636.08 45.1919 L1636.08 72.576 L1628.62 72.576 L1628.62 45.4349 Q1628.62 38.994 1626.11 35.7938 Q1623.6 32.5936 1618.58 32.5936 Q1612.54 32.5936 1609.06 36.4419 Q1605.57 40.2903 1605.57 46.9338 L1605.57 72.576 L1598.08 72.576 L1598.08 9.54393 L1605.57 9.54393 L1605.57 34.2544 Q1608.25 30.163 1611.85 28.1376 Q1615.5 26.1121 1620.24 26.1121 Q1628.06 26.1121 1632.07 30.9732 Q1636.08 35.7938 1636.08 45.1919 Z" fill="#000000" fill-rule="nonzero" fill-opacity="1" /><path clip-path="url(#clip590)" d="M1689.75 48.0275 L1689.75 51.6733 L1655.48 51.6733 Q1655.97 59.3701 1660.1 63.421 Q1664.27 67.4314 1671.69 67.4314 Q1675.98 67.4314 1679.99 66.3781 Q1684.04 65.3249 1688.01 63.2184 L1688.01 70.267 Q1684 71.9684 1679.79 72.8596 Q1675.57 73.7508 1671.24 73.7508 Q1660.38 73.7508 1654.02 67.4314 Q1647.7 61.1119 1647.7 50.3365 Q1647.7 39.1965 1653.7 32.6746 Q1659.74 26.1121 1669.94 26.1121 Q1679.1 26.1121 1684.41 32.0264 Q1689.75 37.9003 1689.75 48.0275 M1682.3 45.84 Q1682.22 39.7232 1678.86 36.0774 Q1675.53 32.4315 1670.02 32.4315 Q1663.79 32.4315 1660.02 35.9558 Q1656.29 39.4801 1655.72 45.8805 L1682.3 45.84 Z" fill="#000000" fill-rule="nonzero" fill-opacity="1" /><path clip-path="url(#clip590)" d="M1773.97 16.7545 L1773.97 25.383 Q1769.84 21.5346 1765.14 19.6307 Q1760.48 17.7268 1755.21 17.7268 Q1744.84 17.7268 1739.34 24.0867 Q1733.83 30.4061 1733.83 42.3968 Q1733.83 54.3469 1739.34 60.7069 Q1744.84 67.0263 1755.21 67.0263 Q1760.48 67.0263 1765.14 65.1223 Q1769.84 63.2184 1773.97 59.3701 L1773.97 67.9175 Q1769.68 70.8341 1764.86 72.2924 Q1760.08 73.7508 1754.73 73.7508 Q1741 73.7508 1733.1 65.3654 Q1725.2 56.9395 1725.2 42.3968 Q1725.2 27.8135 1733.1 19.4281 Q1741 11.0023 1754.73 11.0023 Q1760.16 11.0023 1764.94 12.4606 Q1769.76 13.8784 1773.97 16.7545 Z" fill="#000000" fill-rule="nonzero" fill-opacity="1" /><path clip-path="url(#clip590)" d="M1812.58 34.1734 Q1811.32 33.4443 1809.82 33.1202 Q1808.36 32.7556 1806.58 32.7556 Q1800.26 32.7556 1796.86 36.8875 Q1793.5 40.9789 1793.5 48.6757 L1793.5 72.576 L1786 72.576 L1786 27.2059 L1793.5 27.2059 L1793.5 34.2544 Q1795.85 30.1225 1799.61 28.1376 Q1803.38 26.1121 1808.77 26.1121 Q1809.54 26.1121 1810.47 26.2337 Q1811.4 26.3147 1812.54 26.5172 L1812.58 34.1734 Z" fill="#000000" fill-rule="nonzero" fill-opacity="1" /><path clip-path="url(#clip590)" d="M1841.01 49.7694 Q1831.98 49.7694 1828.5 51.8354 Q1825.01 53.9013 1825.01 58.8839 Q1825.01 62.8538 1827.6 65.2034 Q1830.24 67.5124 1834.73 67.5124 Q1840.93 67.5124 1844.66 63.1374 Q1848.43 58.7219 1848.43 51.4303 L1848.43 49.7694 L1841.01 49.7694 M1855.88 46.6907 L1855.88 72.576 L1848.43 72.576 L1848.43 65.6895 Q1845.87 69.8214 1842.07 71.8063 Q1838.26 73.7508 1832.75 73.7508 Q1825.78 73.7508 1821.65 69.8619 Q1817.56 65.9325 1817.56 59.3701 Q1817.56 51.7138 1822.66 47.825 Q1827.81 43.9361 1837.97 43.9361 L1848.43 43.9361 L1848.43 43.2069 Q1848.43 38.0623 1845.02 35.2672 Q1841.66 32.4315 1835.54 32.4315 Q1831.66 32.4315 1827.97 33.3632 Q1824.28 34.295 1820.88 36.1584 L1820.88 29.2718 Q1824.97 27.692 1828.82 26.9223 Q1832.67 26.1121 1836.31 26.1121 Q1846.16 26.1121 1851.02 31.2163 Q1855.88 36.3204 1855.88 46.6907 Z" fill="#000000" fill-rule="nonzero" fill-opacity="1" /><path clip-path="url(#clip590)" d="M1908.95 45.1919 L1908.95 72.576 L1901.49 72.576 L1901.49 45.4349 Q1901.49 38.994 1898.98 35.7938 Q1896.47 32.5936 1891.45 32.5936 Q1885.41 32.5936 1881.93 36.4419 Q1878.44 40.2903 1878.44 46.9338 L1878.44 72.576 L1870.95 72.576 L1870.95 27.2059 L1878.44 27.2059 L1878.44 34.2544 Q1881.12 30.163 1884.72 28.1376 Q1888.37 26.1121 1893.11 26.1121 Q1900.93 26.1121 1904.94 30.9732 Q1908.95 35.7938 1908.95 45.1919 Z" fill="#000000" fill-rule="nonzero" fill-opacity="1" /><path clip-path="url(#clip590)" d="M1923.53 9.54393 L1931.02 9.54393 L1931.02 46.7717 L1953.26 27.2059 L1962.78 27.2059 L1938.72 48.4326 L1963.8 72.576 L1954.07 72.576 L1931.02 50.4176 L1931.02 72.576 L1923.53 72.576 L1923.53 9.54393 Z" fill="#000000" fill-rule="nonzero" fill-opacity="1" /><path clip-path="url(#clip590)" d="M2000.78 28.5427 L2000.78 35.5912 Q1997.62 33.9709 1994.22 33.1607 Q1990.82 32.3505 1987.17 32.3505 Q1981.62 32.3505 1978.82 34.0519 Q1976.07 35.7533 1976.07 39.156 Q1976.07 41.7486 1978.06 43.2475 Q1980.04 44.7058 1986.04 46.0426 L1988.59 46.6097 Q1996.53 48.3111 1999.85 51.4303 Q2003.21 54.509 2003.21 60.0587 Q2003.21 66.3781 1998.19 70.0644 Q1993.21 73.7508 1984.46 73.7508 Q1980.81 73.7508 1976.84 73.0216 Q1972.91 72.3329 1968.54 70.9151 L1968.54 63.2184 Q1972.67 65.3654 1976.68 66.4591 Q1980.69 67.5124 1984.62 67.5124 Q1989.88 67.5124 1992.72 65.73 Q1995.55 63.9071 1995.55 60.6258 Q1995.55 57.5877 1993.49 55.9673 Q1991.46 54.3469 1984.54 52.8481 L1981.94 52.2405 Q1975.02 50.7821 1971.94 47.7845 Q1968.86 44.7463 1968.86 39.4801 Q1968.86 33.0797 1973.4 29.5959 Q1977.93 26.1121 1986.28 26.1121 Q1990.41 26.1121 1994.06 26.7198 Q1997.7 27.3274 2000.78 28.5427 Z" fill="#000000" fill-rule="nonzero" fill-opacity="1" /><path clip-path="url(#clip590)" d="M2052.79 45.1919 L2052.79 72.576 L2045.34 72.576 L2045.34 45.4349 Q2045.34 38.994 2042.83 35.7938 Q2040.32 32.5936 2035.29 32.5936 Q2029.26 32.5936 2025.77 36.4419 Q2022.29 40.2903 2022.29 46.9338 L2022.29 72.576 L2014.8 72.576 L2014.8 9.54393 L2022.29 9.54393 L2022.29 34.2544 Q2024.96 30.163 2028.57 28.1376 Q2032.22 26.1121 2036.96 26.1121 Q2044.77 26.1121 2048.78 30.9732 Q2052.79 35.7938 2052.79 45.1919 Z" fill="#000000" fill-rule="nonzero" fill-opacity="1" /><path clip-path="url(#clip590)" d="M2088.28 49.7694 Q2079.25 49.7694 2075.76 51.8354 Q2072.28 53.9013 2072.28 58.8839 Q2072.28 62.8538 2074.87 65.2034 Q2077.5 67.5124 2082 67.5124 Q2088.2 67.5124 2091.93 63.1374 Q2095.69 58.7219 2095.69 51.4303 L2095.69 49.7694 L2088.28 49.7694 M2103.15 46.6907 L2103.15 72.576 L2095.69 72.576 L2095.69 65.6895 Q2093.14 69.8214 2089.33 71.8063 Q2085.53 73.7508 2080.02 73.7508 Q2073.05 73.7508 2068.92 69.8619 Q2064.83 65.9325 2064.83 59.3701 Q2064.83 51.7138 2069.93 47.825 Q2075.07 43.9361 2085.24 43.9361 L2095.69 43.9361 L2095.69 43.2069 Q2095.69 38.0623 2092.29 35.2672 Q2088.93 32.4315 2082.81 32.4315 Q2078.92 32.4315 2075.24 33.3632 Q2071.55 34.295 2068.15 36.1584 L2068.15 29.2718 Q2072.24 27.692 2076.09 26.9223 Q2079.94 26.1121 2083.58 26.1121 Q2093.42 26.1121 2098.29 31.2163 Q2103.15 36.3204 2103.15 46.6907 Z" fill="#000000" fill-rule="nonzero" fill-opacity="1" /><path clip-path="url(#clip590)" d="M2141.47 9.54393 L2141.47 15.7418 L2134.34 15.7418 Q2130.33 15.7418 2128.75 17.3622 Q2127.21 18.9825 2127.21 23.1955 L2127.21 27.2059 L2139.48 27.2059 L2139.48 32.9987 L2127.21 32.9987 L2127.21 72.576 L2119.72 72.576 L2119.72 32.9987 L2112.59 32.9987 L2112.59 27.2059 L2119.72 27.2059 L2119.72 24.0462 Q2119.72 16.471 2123.24 13.0277 Q2126.76 9.54393 2134.42 9.54393 L2141.47 9.54393 Z" fill="#000000" fill-rule="nonzero" fill-opacity="1" /><path clip-path="url(#clip590)" d="M2153.62 14.324 L2153.62 27.2059 L2168.97 27.2059 L2168.97 32.9987 L2153.62 32.9987 L2153.62 57.6282 Q2153.62 63.1779 2155.12 64.7578 Q2156.66 66.3376 2161.32 66.3376 L2168.97 66.3376 L2168.97 72.576 L2161.32 72.576 Q2152.69 72.576 2149.41 69.3758 Q2146.13 66.1351 2146.13 57.6282 L2146.13 32.9987 L2140.66 32.9987 L2140.66 27.2059 L2146.13 27.2059 L2146.13 14.324 L2153.62 14.324 Z" fill="#000000" fill-rule="nonzero" fill-opacity="1" /><polyline clip-path="url(#clip592)" style="stroke:#009af9; stroke-linecap:round; stroke-linejoin:round; stroke-width:12; stroke-opacity:1; fill:none" points="433.61,767.843 439.821,762.367 446.032,751.434 452.243,740.556 458.453,729.758 464.664,719.068 470.875,708.512 477.086,698.116 483.297,687.906 489.508,677.908 495.718,668.146 501.929,658.647 508.14,649.433 514.351,640.529 520.562,631.958 526.773,623.742 532.983,615.903 539.194,608.462 545.405,601.439 551.616,594.855 557.827,588.728 564.037,583.075 570.248,577.915 576.459,573.261 582.67,569.131 588.881,565.538 595.092,562.495 601.302,560.014 607.513,558.105 613.724,556.78 619.935,556.046 626.146,555.912 632.357,556.383 638.567,557.466 644.778,559.163 650.989,561.479 657.2,564.414 663.411,567.97 669.622,572.146 675.832,576.94 682.043,582.349 688.254,588.368 694.465,594.993 700.676,602.217 706.887,610.031 713.097,618.428 719.308,627.396 725.519,636.925 731.73,647.003 737.941,657.615 744.151,668.747 750.362,680.384 756.573,692.51 762.784,705.106 768.995,718.154 775.206,731.634 781.416,745.527 787.627,759.81 793.838,774.462 800.049,789.46 806.26,804.779 812.471,820.397 818.681,836.287 824.892,852.423 831.103,868.781 837.314,885.332 843.525,902.049 849.736,918.906 855.946,935.872 862.157,952.921 868.368,970.022 874.579,987.147 880.79,1004.27 887.001,1021.35 893.211,1038.37 899.422,1055.3 905.633,1072.1 911.844,1088.75 918.055,1105.22 924.265,1121.47 930.476,1137.49 936.687,1153.23 942.898,1168.68 949.109,1183.79 955.32,1198.56 961.53,1212.94 967.741,1226.92 973.952,1240.46 980.163,1253.54 986.374,1266.13 992.585,1278.22 998.795,1289.77 1005.01,1300.77 1011.22,1311.19 1017.43,1321.01 1023.64,1330.21 1029.85,1338.77 1036.06,1346.68 1042.27,1353.91 1048.48,1360.46 1054.69,1366.3 1060.9,1371.42 1067.11,1375.8 1073.33,1379.45 1079.54,1382.34 1085.75,1384.47 1091.96,1385.82 1098.17,1386.4 1104.38,1386.19 1110.59,1385.19 1116.8,1383.4 1123.01,1380.81 1129.22,1377.43 1135.43,1373.25 1141.64,1368.28 1147.86,1362.53 1154.07,1355.98 1160.28,1348.66 1166.49,1340.56 1172.7,1331.7 1178.91,1322.08 1185.12,1311.72 1191.33,1300.63 1197.54,1288.82 1203.75,1276.3 1209.96,1263.09 1216.17,1249.2 1222.39,1234.66 1228.6,1219.49 1234.81,1203.69 1241.02,1187.3 1247.23,1170.33 1253.44,1152.81 1259.65,1134.77 1265.86,1116.21 1272.07,1097.18 1278.28,1077.69 1284.49,1057.78 1290.7,1037.47 1296.92,1016.78 1303.13,995.756 1309.34,974.417 1315.55,952.795 1321.76,930.919 1327.97,908.821 1334.18,886.532 1340.39,864.084 1346.6,841.507 1352.81,818.833 1359.02,796.096 1365.23,773.326 1371.45,750.556 1377.66,727.819 1383.87,705.145 1390.08,682.568 1396.29,660.12 1402.5,637.831 1408.71,615.733 1414.92,593.857 1421.13,572.235 1427.34,550.895 1433.55,529.869 1439.76,509.186 1445.98,488.873 1452.19,468.96 1458.4,449.473 1464.61,430.44 1470.82,411.886 1477.03,393.837 1483.24,376.318 1489.45,359.351 1495.66,342.959 1501.87,327.164 1508.08,311.988 1514.29,297.448 1520.5,283.565 1526.72,270.356 1532.93,257.836 1539.14,246.023 1545.35,234.929 1551.56,224.568 1557.77,214.951 1563.98,206.09 1570.19,197.993 1576.4,190.669 1582.61,184.126 1588.82,178.367 1595.03,173.398 1601.25,169.222 1607.46,165.841 1613.67,163.256 1619.88,161.464 1626.09,160.466 1632.3,160.256 1638.51,160.832 1644.72,162.186 1650.93,164.313 1657.14,167.203 1663.35,170.847 1669.56,175.236 1675.78,180.356 1681.99,186.195 1688.2,192.739 1694.41,199.973 1700.62,207.881 1706.83,216.444 1713.04,225.646 1719.25,235.467 1725.46,245.886 1731.67,256.883 1737.88,268.435 1744.09,280.521 1750.31,293.115 1756.52,306.195 1762.73,319.735 1768.94,333.71 1775.15,348.093 1781.36,362.857 1787.57,377.976 1793.78,393.422 1799.99,409.166 1806.2,425.179 1812.41,441.434 1818.62,457.901 1824.84,474.55 1831.05,491.353 1837.26,508.28 1843.47,525.3 1849.68,542.385 1855.89,559.505 1862.1,576.63 1868.31,593.731 1874.52,610.78 1880.73,627.746 1886.94,644.602 1893.15,661.32 1899.37,677.871 1905.58,694.228 1911.79,710.365 1918,726.255 1924.21,741.873 1930.42,757.192 1936.63,772.19 1942.84,786.842 1949.05,801.125 1955.26,815.018 1961.47,828.498 1967.68,841.546 1973.9,854.142 1980.11,866.267 1986.32,877.905 1992.53,889.037 1998.74,899.649 2004.95,909.727 2011.16,919.256 2017.37,928.224 2023.58,936.621 2029.79,944.435 2036,951.659 2042.21,958.284 2048.43,964.303 2054.64,969.712 2060.85,974.506 2067.06,978.682 2073.27,982.238 2079.48,985.173 2085.69,987.489 2091.9,989.186 2098.11,990.269 2104.32,990.74 2110.53,990.605 2116.74,989.872 2122.96,988.547 2129.17,986.638 2135.38,984.157 2141.59,981.114 2147.8,977.521 2154.01,973.39 2160.22,968.737 2166.43,963.577 2172.64,957.924 2178.85,951.797 2185.06,945.213 2191.27,938.19 2197.49,930.749 2203.7,922.91 2209.91,914.694 2216.12,906.123 2222.33,897.219 2228.54,888.005 2234.75,878.506 2240.96,868.744 2247.17,858.746 2253.38,848.536 2259.59,838.14 2265.8,827.584 2272.02,816.894 2278.23,806.096 2284.44,795.218 2290.65,784.285 2296.86,778.809 "/>
<path clip-path="url(#clip590)" d="M1777.5 270.476 L2286.92 270.476 L2286.92 166.796 L1777.5 166.796  Z" fill="#ffffff" fill-rule="evenodd" fill-opacity="1"/>
<polyline clip-path="url(#clip590)" style="stroke:#000000; stroke-linecap:round; stroke-linejoin:round; stroke-width:4; stroke-opacity:1; fill:none" points="1777.5,270.476 2286.92,270.476 2286.92,166.796 1777.5,166.796 1777.5,270.476 "/>
<polyline clip-path="url(#clip590)" style="stroke:#009af9; stroke-linecap:round; stroke-linejoin:round; stroke-width:12; stroke-opacity:1; fill:none" points="1799.44,218.636 1931.11,218.636 "/>
<path clip-path="url(#clip590)" d="M1970.02 223.856 L1969.01 218.508 Q1967.96 213.022 1963.84 213.022 Q1960.74 213.022 1959.33 215.569 Q1957.55 218.763 1957.55 222.976 Q1957.55 228.069 1959.28 230.499 Q1961.04 232.976 1963.84 232.976 Q1966.95 232.976 1968.61 228.045 L1970.02 223.856 M1972.41 216.772 L1974.7 209.99 L1978.5 209.99 L1973.75 224.041 L1974.68 229.11 Q1974.89 230.244 1975.7 231.194 Q1976.64 232.305 1977.39 232.305 L1979.42 232.305 L1979.42 235.916 L1976.88 235.916 Q1974.7 235.916 1972.76 233.971 Q1971.81 232.999 1971.41 230.962 Q1970.35 233.531 1968.17 235.545 Q1967.15 236.494 1963.84 236.494 Q1958.4 236.494 1955.76 232.976 Q1953.06 229.342 1953.06 222.976 Q1953.06 216.17 1956 212.976 Q1959.26 209.411 1963.84 209.411 Q1971.04 209.411 1972.41 216.772 Z" fill="#000000" fill-rule="nonzero" fill-opacity="1" /><path clip-path="url(#clip590)" d="M1987.89 233.277 L1997.71 233.277 L1997.71 235.916 L1983.87 235.916 L1983.87 233.369 Q1984.65 232.652 1986.11 231.356 Q1994.07 224.295 1994.07 222.119 Q1994.07 220.592 1992.87 219.666 Q1991.67 218.717 1989.7 218.717 Q1988.5 218.717 1987.08 219.133 Q1985.67 219.527 1984.01 220.337 L1984.01 217.49 Q1985.79 216.842 1987.32 216.518 Q1988.87 216.194 1990.19 216.194 Q1993.54 216.194 1995.56 217.721 Q1997.57 219.249 1997.57 221.749 Q1997.57 224.967 1989.91 231.541 Q1988.61 232.652 1987.89 233.277 Z" fill="#000000" fill-rule="nonzero" fill-opacity="1" /><path clip-path="url(#clip590)" d="M2038.89 210.985 L2038.89 214.967 Q2037.08 213.971 2035.26 213.485 Q2033.45 212.976 2031.6 212.976 Q2027.45 212.976 2025.16 215.615 Q2022.87 218.231 2022.87 222.976 Q2022.87 227.721 2025.16 230.36 Q2027.45 232.976 2031.6 232.976 Q2033.45 232.976 2035.26 232.49 Q2037.08 231.981 2038.89 230.985 L2038.89 234.92 Q2037.11 235.754 2035.19 236.17 Q2033.29 236.587 2031.13 236.587 Q2025.28 236.587 2021.83 232.906 Q2018.38 229.226 2018.38 222.976 Q2018.38 216.633 2021.85 212.999 Q2025.35 209.365 2031.41 209.365 Q2033.38 209.365 2035.26 209.782 Q2037.13 210.175 2038.89 210.985 Z" fill="#000000" fill-rule="nonzero" fill-opacity="1" /><path clip-path="url(#clip590)" d="M2061.32 213.971 Q2060.6 213.555 2059.75 213.37 Q2058.91 213.161 2057.89 213.161 Q2054.28 213.161 2052.34 215.522 Q2050.42 217.86 2050.42 222.258 L2050.42 235.916 L2046.13 235.916 L2046.13 209.99 L2050.42 209.99 L2050.42 214.018 Q2051.76 211.657 2053.91 210.522 Q2056.07 209.365 2059.14 209.365 Q2059.58 209.365 2060.12 209.434 Q2060.65 209.481 2061.3 209.596 L2061.32 213.971 Z" fill="#000000" fill-rule="nonzero" fill-opacity="1" /><path clip-path="url(#clip590)" d="M2077.57 222.883 Q2072.41 222.883 2070.42 224.064 Q2068.43 225.244 2068.43 228.092 Q2068.43 230.36 2069.91 231.703 Q2071.41 233.022 2073.98 233.022 Q2077.52 233.022 2079.65 230.522 Q2081.81 227.999 2081.81 223.832 L2081.81 222.883 L2077.57 222.883 M2086.07 221.124 L2086.07 235.916 L2081.81 235.916 L2081.81 231.981 Q2080.35 234.342 2078.17 235.476 Q2076 236.587 2072.85 236.587 Q2068.87 236.587 2066.51 234.365 Q2064.17 232.119 2064.17 228.369 Q2064.17 223.994 2067.08 221.772 Q2070.02 219.55 2075.83 219.55 L2081.81 219.55 L2081.81 219.133 Q2081.81 216.194 2079.86 214.596 Q2077.94 212.976 2074.44 212.976 Q2072.22 212.976 2070.12 213.508 Q2068.01 214.041 2066.07 215.106 L2066.07 211.17 Q2068.4 210.268 2070.6 209.828 Q2072.8 209.365 2074.88 209.365 Q2080.51 209.365 2083.29 212.282 Q2086.07 215.198 2086.07 221.124 Z" fill="#000000" fill-rule="nonzero" fill-opacity="1" /><path clip-path="url(#clip590)" d="M2116.39 220.268 L2116.39 235.916 L2112.13 235.916 L2112.13 220.407 Q2112.13 216.726 2110.69 214.897 Q2109.26 213.069 2106.39 213.069 Q2102.94 213.069 2100.95 215.268 Q2098.96 217.467 2098.96 221.263 L2098.96 235.916 L2094.68 235.916 L2094.68 209.99 L2098.96 209.99 L2098.96 214.018 Q2100.49 211.68 2102.55 210.522 Q2104.63 209.365 2107.34 209.365 Q2111.81 209.365 2114.1 212.143 Q2116.39 214.897 2116.39 220.268 Z" fill="#000000" fill-rule="nonzero" fill-opacity="1" /><path clip-path="url(#clip590)" d="M2124.72 199.897 L2129 199.897 L2129 221.17 L2141.71 209.99 L2147.15 209.99 L2133.4 222.119 L2147.73 235.916 L2142.18 235.916 L2129 223.254 L2129 235.916 L2124.72 235.916 L2124.72 199.897 Z" fill="#000000" fill-rule="nonzero" fill-opacity="1" /><path clip-path="url(#clip590)" d="M2168.87 210.754 L2168.87 214.782 Q2167.06 213.856 2165.12 213.393 Q2163.17 212.93 2161.09 212.93 Q2157.92 212.93 2156.32 213.902 Q2154.75 214.874 2154.75 216.819 Q2154.75 218.3 2155.88 219.157 Q2157.01 219.99 2160.44 220.754 L2161.9 221.078 Q2166.44 222.05 2168.33 223.832 Q2170.25 225.592 2170.25 228.763 Q2170.25 232.374 2167.38 234.481 Q2164.54 236.587 2159.54 236.587 Q2157.45 236.587 2155.19 236.17 Q2152.94 235.777 2150.44 234.967 L2150.44 230.569 Q2152.8 231.795 2155.09 232.42 Q2157.38 233.022 2159.63 233.022 Q2162.64 233.022 2164.26 232.004 Q2165.88 230.962 2165.88 229.087 Q2165.88 227.351 2164.7 226.425 Q2163.54 225.499 2159.58 224.643 L2158.1 224.295 Q2154.14 223.462 2152.38 221.749 Q2150.62 220.013 2150.62 217.004 Q2150.62 213.346 2153.22 211.356 Q2155.81 209.365 2160.58 209.365 Q2162.94 209.365 2165.02 209.712 Q2167.11 210.059 2168.87 210.754 Z" fill="#000000" fill-rule="nonzero" fill-opacity="1" /><path clip-path="url(#clip590)" d="M2198.59 220.268 L2198.59 235.916 L2194.33 235.916 L2194.33 220.407 Q2194.33 216.726 2192.89 214.897 Q2191.46 213.069 2188.59 213.069 Q2185.14 213.069 2183.15 215.268 Q2181.16 217.467 2181.16 221.263 L2181.16 235.916 L2176.87 235.916 L2176.87 199.897 L2181.16 199.897 L2181.16 214.018 Q2182.68 211.68 2184.75 210.522 Q2186.83 209.365 2189.54 209.365 Q2194 209.365 2196.3 212.143 Q2198.59 214.897 2198.59 220.268 Z" fill="#000000" fill-rule="nonzero" fill-opacity="1" /><path clip-path="url(#clip590)" d="M2218.87 222.883 Q2213.7 222.883 2211.71 224.064 Q2209.72 225.244 2209.72 228.092 Q2209.72 230.36 2211.2 231.703 Q2212.71 233.022 2215.28 233.022 Q2218.82 233.022 2220.95 230.522 Q2223.1 227.999 2223.1 223.832 L2223.1 222.883 L2218.87 222.883 M2227.36 221.124 L2227.36 235.916 L2223.1 235.916 L2223.1 231.981 Q2221.64 234.342 2219.47 235.476 Q2217.29 236.587 2214.14 236.587 Q2210.16 236.587 2207.8 234.365 Q2205.46 232.119 2205.46 228.369 Q2205.46 223.994 2208.38 221.772 Q2211.32 219.55 2217.13 219.55 L2223.1 219.55 L2223.1 219.133 Q2223.1 216.194 2221.16 214.596 Q2219.24 212.976 2215.74 212.976 Q2213.52 212.976 2211.41 213.508 Q2209.31 214.041 2207.36 215.106 L2207.36 211.17 Q2209.7 210.268 2211.9 209.828 Q2214.1 209.365 2216.18 209.365 Q2221.81 209.365 2224.58 212.282 Q2227.36 215.198 2227.36 221.124 Z" fill="#000000" fill-rule="nonzero" fill-opacity="1" /><path clip-path="url(#clip590)" d="M2249.26 199.897 L2249.26 203.439 L2245.18 203.439 Q2242.89 203.439 2241.99 204.365 Q2241.11 205.291 2241.11 207.698 L2241.11 209.99 L2248.12 209.99 L2248.12 213.3 L2241.11 213.3 L2241.11 235.916 L2236.83 235.916 L2236.83 213.3 L2232.75 213.3 L2232.75 209.99 L2236.83 209.99 L2236.83 208.184 Q2236.83 203.856 2238.84 201.888 Q2240.86 199.897 2245.23 199.897 L2249.26 199.897 Z" fill="#000000" fill-rule="nonzero" fill-opacity="1" /><path clip-path="url(#clip590)" d="M2256.2 202.629 L2256.2 209.99 L2264.98 209.99 L2264.98 213.3 L2256.2 213.3 L2256.2 227.374 Q2256.2 230.545 2257.06 231.448 Q2257.94 232.351 2260.6 232.351 L2264.98 232.351 L2264.98 235.916 L2260.6 235.916 Q2255.67 235.916 2253.8 234.087 Q2251.92 232.235 2251.92 227.374 L2251.92 213.3 L2248.8 213.3 L2248.8 209.99 L2251.92 209.99 L2251.92 202.629 L2256.2 202.629 Z" fill="#000000" fill-rule="nonzero" fill-opacity="1" /></svg>
