<?xml version="1.0" encoding="utf-8"?>
<svg xmlns="http://www.w3.org/2000/svg" xmlns:xlink="http://www.w3.org/1999/xlink" width="600" height="400" viewBox="0 0 2400 1600">
<defs>
  <clipPath id="clip740">
    <rect x="0" y="0" width="2400" height="1600"/>
  </clipPath>
</defs>
<path clip-path="url(#clip740)" d="M0 1600 L2400 1600 L2400 0 L0 0  Z" fill="#ffffff" fill-rule="evenodd" fill-opacity="1"/>
<defs>
  <clipPath id="clip741">
    <rect x="377" y="123" width="1976" height="1301"/>
  </clipPath>
</defs>
<path clip-path="url(#clip740)" d="M242.135 1423.18 L2352.76 1423.18 L2352.76 123.472 L242.135 123.472  Z" fill="#ffffff" fill-rule="evenodd" fill-opacity="1"/>
<defs>
  <clipPath id="clip742">
    <rect x="242" y="123" width="2112" height="1301"/>
  </clipPath>
</defs>
<polyline clip-path="url(#clip742)" style="stroke:#000000; stroke-linecap:round; stroke-linejoin:round; stroke-width:2; stroke-opacity:0.1; fill:none" points="301.869,1423.18 301.869,123.472 "/>
<polyline clip-path="url(#clip742)" style="stroke:#000000; stroke-linecap:round; stroke-linejoin:round; stroke-width:2; stroke-opacity:0.1; fill:none" points="777.222,1423.18 777.222,123.472 "/>
<polyline clip-path="url(#clip742)" style="stroke:#000000; stroke-linecap:round; stroke-linejoin:round; stroke-width:2; stroke-opacity:0.1; fill:none" points="1252.57,1423.18 1252.57,123.472 "/>
<polyline clip-path="url(#clip742)" style="stroke:#000000; stroke-linecap:round; stroke-linejoin:round; stroke-width:2; stroke-opacity:0.1; fill:none" points="1727.93,1423.18 1727.93,123.472 "/>
<polyline clip-path="url(#clip742)" style="stroke:#000000; stroke-linecap:round; stroke-linejoin:round; stroke-width:2; stroke-opacity:0.1; fill:none" points="2203.28,1423.18 2203.28,123.472 "/>
<polyline clip-path="url(#clip742)" style="stroke:#000000; stroke-linecap:round; stroke-linejoin:round; stroke-width:2; stroke-opacity:0.1; fill:none" points="242.135,1282.56 2352.76,1282.56 "/>
<polyline clip-path="url(#clip742)" style="stroke:#000000; stroke-linecap:round; stroke-linejoin:round; stroke-width:2; stroke-opacity:0.1; fill:none" points="242.135,1091.29 2352.76,1091.29 "/>
<polyline clip-path="url(#clip742)" style="stroke:#000000; stroke-linecap:round; stroke-linejoin:round; stroke-width:2; stroke-opacity:0.1; fill:none" points="242.135,900.011 2352.76,900.011 "/>
<polyline clip-path="url(#clip742)" style="stroke:#000000; stroke-linecap:round; stroke-linejoin:round; stroke-width:2; stroke-opacity:0.1; fill:none" points="242.135,708.736 2352.76,708.736 "/>
<polyline clip-path="url(#clip742)" style="stroke:#000000; stroke-linecap:round; stroke-linejoin:round; stroke-width:2; stroke-opacity:0.1; fill:none" points="242.135,517.461 2352.76,517.461 "/>
<polyline clip-path="url(#clip742)" style="stroke:#000000; stroke-linecap:round; stroke-linejoin:round; stroke-width:2; stroke-opacity:0.1; fill:none" points="242.135,326.186 2352.76,326.186 "/>
<polyline clip-path="url(#clip742)" style="stroke:#000000; stroke-linecap:round; stroke-linejoin:round; stroke-width:2; stroke-opacity:0.1; fill:none" points="242.135,134.911 2352.76,134.911 "/>
<polyline clip-path="url(#clip740)" style="stroke:#000000; stroke-linecap:round; stroke-linejoin:round; stroke-width:4; stroke-opacity:1; fill:none" points="242.135,1423.18 2352.76,1423.18 "/>
<polyline clip-path="url(#clip740)" style="stroke:#000000; stroke-linecap:round; stroke-linejoin:round; stroke-width:4; stroke-opacity:1; fill:none" points="301.869,1423.18 301.869,1404.28 "/>
<polyline clip-path="url(#clip740)" style="stroke:#000000; stroke-linecap:round; stroke-linejoin:round; stroke-width:4; stroke-opacity:1; fill:none" points="777.222,1423.18 777.222,1404.28 "/>
<polyline clip-path="url(#clip740)" style="stroke:#000000; stroke-linecap:round; stroke-linejoin:round; stroke-width:4; stroke-opacity:1; fill:none" points="1252.57,1423.18 1252.57,1404.28 "/>
<polyline clip-path="url(#clip740)" style="stroke:#000000; stroke-linecap:round; stroke-linejoin:round; stroke-width:4; stroke-opacity:1; fill:none" points="1727.93,1423.18 1727.93,1404.28 "/>
<polyline clip-path="url(#clip740)" style="stroke:#000000; stroke-linecap:round; stroke-linejoin:round; stroke-width:4; stroke-opacity:1; fill:none" points="2203.28,1423.18 2203.28,1404.28 "/>
<path clip-path="url(#clip740)" d="M264.173 1454.1 Q260.562 1454.1 258.733 1457.66 Q256.927 1461.2 256.927 1468.33 Q256.927 1475.44 258.733 1479.01 Q260.562 1482.55 264.173 1482.55 Q267.807 1482.55 269.612 1479.01 Q271.441 1475.44 271.441 1468.33 Q271.441 1461.2 269.612 1457.66 Q267.807 1454.1 264.173 1454.1 M264.173 1450.39 Q269.983 1450.39 273.038 1455 Q276.117 1459.58 276.117 1468.33 Q276.117 1477.06 273.038 1481.67 Q269.983 1486.25 264.173 1486.25 Q258.363 1486.25 255.284 1481.67 Q252.228 1477.06 252.228 1468.33 Q252.228 1459.58 255.284 1455 Q258.363 1450.39 264.173 1450.39 Z" fill="#000000" fill-rule="nonzero" fill-opacity="1" /><path clip-path="url(#clip740)" d="M284.335 1479.7 L289.219 1479.7 L289.219 1485.58 L284.335 1485.58 L284.335 1479.7 Z" fill="#000000" fill-rule="nonzero" fill-opacity="1" /><path clip-path="url(#clip740)" d="M309.404 1454.1 Q305.793 1454.1 303.964 1457.66 Q302.159 1461.2 302.159 1468.33 Q302.159 1475.44 303.964 1479.01 Q305.793 1482.55 309.404 1482.55 Q313.038 1482.55 314.844 1479.01 Q316.672 1475.44 316.672 1468.33 Q316.672 1461.2 314.844 1457.66 Q313.038 1454.1 309.404 1454.1 M309.404 1450.39 Q315.214 1450.39 318.27 1455 Q321.348 1459.58 321.348 1468.33 Q321.348 1477.06 318.27 1481.67 Q315.214 1486.25 309.404 1486.25 Q303.594 1486.25 300.515 1481.67 Q297.46 1477.06 297.46 1468.33 Q297.46 1459.58 300.515 1455 Q303.594 1450.39 309.404 1450.39 Z" fill="#000000" fill-rule="nonzero" fill-opacity="1" /><path clip-path="url(#clip740)" d="M339.566 1454.1 Q335.955 1454.1 334.126 1457.66 Q332.32 1461.2 332.32 1468.33 Q332.32 1475.44 334.126 1479.01 Q335.955 1482.55 339.566 1482.55 Q343.2 1482.55 345.006 1479.01 Q346.834 1475.44 346.834 1468.33 Q346.834 1461.2 345.006 1457.66 Q343.2 1454.1 339.566 1454.1 M339.566 1450.39 Q345.376 1450.39 348.431 1455 Q351.51 1459.58 351.51 1468.33 Q351.51 1477.06 348.431 1481.67 Q345.376 1486.25 339.566 1486.25 Q333.756 1486.25 330.677 1481.67 Q327.621 1477.06 327.621 1468.33 Q327.621 1459.58 330.677 1455 Q333.756 1450.39 339.566 1450.39 Z" fill="#000000" fill-rule="nonzero" fill-opacity="1" /><path clip-path="url(#clip740)" d="M740.139 1454.1 Q736.528 1454.1 734.699 1457.66 Q732.893 1461.2 732.893 1468.33 Q732.893 1475.44 734.699 1479.01 Q736.528 1482.55 740.139 1482.55 Q743.773 1482.55 745.578 1479.01 Q747.407 1475.44 747.407 1468.33 Q747.407 1461.2 745.578 1457.66 Q743.773 1454.1 740.139 1454.1 M740.139 1450.39 Q745.949 1450.39 749.004 1455 Q752.083 1459.58 752.083 1468.33 Q752.083 1477.06 749.004 1481.67 Q745.949 1486.25 740.139 1486.25 Q734.328 1486.25 731.25 1481.67 Q728.194 1477.06 728.194 1468.33 Q728.194 1459.58 731.25 1455 Q734.328 1450.39 740.139 1450.39 Z" fill="#000000" fill-rule="nonzero" fill-opacity="1" /><path clip-path="url(#clip740)" d="M760.301 1479.7 L765.185 1479.7 L765.185 1485.58 L760.301 1485.58 L760.301 1479.7 Z" fill="#000000" fill-rule="nonzero" fill-opacity="1" /><path clip-path="url(#clip740)" d="M785.37 1454.1 Q781.759 1454.1 779.93 1457.66 Q778.125 1461.2 778.125 1468.33 Q778.125 1475.44 779.93 1479.01 Q781.759 1482.55 785.37 1482.55 Q789.004 1482.55 790.81 1479.01 Q792.638 1475.44 792.638 1468.33 Q792.638 1461.2 790.81 1457.66 Q789.004 1454.1 785.37 1454.1 M785.37 1450.39 Q791.18 1450.39 794.236 1455 Q797.314 1459.58 797.314 1468.33 Q797.314 1477.06 794.236 1481.67 Q791.18 1486.25 785.37 1486.25 Q779.56 1486.25 776.481 1481.67 Q773.426 1477.06 773.426 1468.33 Q773.426 1459.58 776.481 1455 Q779.56 1450.39 785.37 1450.39 Z" fill="#000000" fill-rule="nonzero" fill-opacity="1" /><path clip-path="url(#clip740)" d="M806.342 1481.64 L813.981 1481.64 L813.981 1455.28 L805.671 1456.95 L805.671 1452.69 L813.935 1451.02 L818.61 1451.02 L818.61 1481.64 L826.249 1481.64 L826.249 1485.58 L806.342 1485.58 L806.342 1481.64 Z" fill="#000000" fill-rule="nonzero" fill-opacity="1" /><path clip-path="url(#clip740)" d="M1215.68 1454.1 Q1212.07 1454.1 1210.24 1457.66 Q1208.43 1461.2 1208.43 1468.33 Q1208.43 1475.44 1210.24 1479.01 Q1212.07 1482.55 1215.68 1482.55 Q1219.31 1482.55 1221.12 1479.01 Q1222.94 1475.44 1222.94 1468.33 Q1222.94 1461.2 1221.12 1457.66 Q1219.31 1454.1 1215.68 1454.1 M1215.68 1450.39 Q1221.49 1450.39 1224.54 1455 Q1227.62 1459.58 1227.62 1468.33 Q1227.62 1477.06 1224.54 1481.67 Q1221.49 1486.25 1215.68 1486.25 Q1209.87 1486.25 1206.79 1481.67 Q1203.73 1477.06 1203.73 1468.33 Q1203.73 1459.58 1206.79 1455 Q1209.87 1450.39 1215.68 1450.39 Z" fill="#000000" fill-rule="nonzero" fill-opacity="1" /><path clip-path="url(#clip740)" d="M1235.84 1479.7 L1240.72 1479.7 L1240.72 1485.58 L1235.84 1485.58 L1235.84 1479.7 Z" fill="#000000" fill-rule="nonzero" fill-opacity="1" /><path clip-path="url(#clip740)" d="M1260.91 1454.1 Q1257.3 1454.1 1255.47 1457.66 Q1253.66 1461.2 1253.66 1468.33 Q1253.66 1475.44 1255.47 1479.01 Q1257.3 1482.55 1260.91 1482.55 Q1264.54 1482.55 1266.35 1479.01 Q1268.18 1475.44 1268.18 1468.33 Q1268.18 1461.2 1266.35 1457.66 Q1264.54 1454.1 1260.91 1454.1 M1260.91 1450.39 Q1266.72 1450.39 1269.77 1455 Q1272.85 1459.58 1272.85 1468.33 Q1272.85 1477.06 1269.77 1481.67 Q1266.72 1486.25 1260.91 1486.25 Q1255.1 1486.25 1252.02 1481.67 Q1248.96 1477.06 1248.96 1468.33 Q1248.96 1459.58 1252.02 1455 Q1255.1 1450.39 1260.91 1450.39 Z" fill="#000000" fill-rule="nonzero" fill-opacity="1" /><path clip-path="url(#clip740)" d="M1285.1 1481.64 L1301.42 1481.64 L1301.42 1485.58 L1279.47 1485.58 L1279.47 1481.64 Q1282.13 1478.89 1286.72 1474.26 Q1291.32 1469.61 1292.5 1468.27 Q1294.75 1465.74 1295.63 1464.01 Q1296.53 1462.25 1296.53 1460.56 Q1296.53 1457.8 1294.59 1456.07 Q1292.67 1454.33 1289.56 1454.33 Q1287.37 1454.33 1284.91 1455.09 Q1282.48 1455.86 1279.7 1457.41 L1279.7 1452.69 Q1282.53 1451.55 1284.98 1450.97 Q1287.44 1450.39 1289.47 1450.39 Q1294.84 1450.39 1298.04 1453.08 Q1301.23 1455.77 1301.23 1460.26 Q1301.23 1462.39 1300.42 1464.31 Q1299.63 1466.2 1297.53 1468.8 Q1296.95 1469.47 1293.85 1472.69 Q1290.75 1475.88 1285.1 1481.64 Z" fill="#000000" fill-rule="nonzero" fill-opacity="1" /><path clip-path="url(#clip740)" d="M1690.55 1454.1 Q1686.94 1454.1 1685.11 1457.66 Q1683.31 1461.2 1683.31 1468.33 Q1683.31 1475.44 1685.11 1479.01 Q1686.94 1482.55 1690.55 1482.55 Q1694.19 1482.55 1695.99 1479.01 Q1697.82 1475.44 1697.82 1468.33 Q1697.82 1461.2 1695.99 1457.66 Q1694.19 1454.1 1690.55 1454.1 M1690.55 1450.39 Q1696.36 1450.39 1699.42 1455 Q1702.5 1459.58 1702.5 1468.33 Q1702.5 1477.06 1699.42 1481.67 Q1696.36 1486.25 1690.55 1486.25 Q1684.74 1486.25 1681.67 1481.67 Q1678.61 1477.06 1678.61 1468.33 Q1678.61 1459.58 1681.67 1455 Q1684.74 1450.39 1690.55 1450.39 Z" fill="#000000" fill-rule="nonzero" fill-opacity="1" /><path clip-path="url(#clip740)" d="M1710.72 1479.7 L1715.6 1479.7 L1715.6 1485.58 L1710.72 1485.58 L1710.72 1479.7 Z" fill="#000000" fill-rule="nonzero" fill-opacity="1" /><path clip-path="url(#clip740)" d="M1735.79 1454.1 Q1732.17 1454.1 1730.35 1457.66 Q1728.54 1461.2 1728.54 1468.33 Q1728.54 1475.44 1730.35 1479.01 Q1732.17 1482.55 1735.79 1482.55 Q1739.42 1482.55 1741.23 1479.01 Q1743.05 1475.44 1743.05 1468.33 Q1743.05 1461.2 1741.23 1457.66 Q1739.42 1454.1 1735.79 1454.1 M1735.79 1450.39 Q1741.6 1450.39 1744.65 1455 Q1747.73 1459.58 1747.73 1468.33 Q1747.73 1477.06 1744.65 1481.67 Q1741.6 1486.25 1735.79 1486.25 Q1729.98 1486.25 1726.9 1481.67 Q1723.84 1477.06 1723.84 1468.33 Q1723.84 1459.58 1726.9 1455 Q1729.98 1450.39 1735.79 1450.39 Z" fill="#000000" fill-rule="nonzero" fill-opacity="1" /><path clip-path="url(#clip740)" d="M1770.11 1466.95 Q1773.47 1467.66 1775.35 1469.93 Q1777.24 1472.2 1777.24 1475.53 Q1777.24 1480.65 1773.73 1483.45 Q1770.21 1486.25 1763.73 1486.25 Q1761.55 1486.25 1759.23 1485.81 Q1756.94 1485.39 1754.49 1484.54 L1754.49 1480.02 Q1756.43 1481.16 1758.75 1481.74 Q1761.06 1482.32 1763.59 1482.32 Q1767.98 1482.32 1770.28 1480.58 Q1772.59 1478.84 1772.59 1475.53 Q1772.59 1472.48 1770.44 1470.77 Q1768.31 1469.03 1764.49 1469.03 L1760.46 1469.03 L1760.46 1465.19 L1764.67 1465.19 Q1768.12 1465.19 1769.95 1463.82 Q1771.78 1462.43 1771.78 1459.84 Q1771.78 1457.18 1769.88 1455.77 Q1768.01 1454.33 1764.49 1454.33 Q1762.57 1454.33 1760.37 1454.75 Q1758.17 1455.16 1755.53 1456.04 L1755.53 1451.88 Q1758.19 1451.14 1760.51 1450.77 Q1762.85 1450.39 1764.91 1450.39 Q1770.23 1450.39 1773.33 1452.83 Q1776.43 1455.23 1776.43 1459.35 Q1776.43 1462.22 1774.79 1464.21 Q1773.15 1466.18 1770.11 1466.95 Z" fill="#000000" fill-rule="nonzero" fill-opacity="1" /><path clip-path="url(#clip740)" d="M2165.34 1454.1 Q2161.73 1454.1 2159.9 1457.66 Q2158.09 1461.2 2158.09 1468.33 Q2158.09 1475.44 2159.9 1479.01 Q2161.73 1482.55 2165.34 1482.55 Q2168.97 1482.55 2170.78 1479.01 Q2172.61 1475.44 2172.61 1468.33 Q2172.61 1461.2 2170.78 1457.66 Q2168.97 1454.1 2165.34 1454.1 M2165.34 1450.39 Q2171.15 1450.39 2174.21 1455 Q2177.28 1459.58 2177.28 1468.33 Q2177.28 1477.06 2174.21 1481.67 Q2171.15 1486.25 2165.34 1486.25 Q2159.53 1486.25 2156.45 1481.67 Q2153.4 1477.06 2153.4 1468.33 Q2153.4 1459.58 2156.45 1455 Q2159.53 1450.39 2165.34 1450.39 Z" fill="#000000" fill-rule="nonzero" fill-opacity="1" /><path clip-path="url(#clip740)" d="M2185.5 1479.7 L2190.39 1479.7 L2190.39 1485.58 L2185.5 1485.58 L2185.5 1479.7 Z" fill="#000000" fill-rule="nonzero" fill-opacity="1" /><path clip-path="url(#clip740)" d="M2210.57 1454.1 Q2206.96 1454.1 2205.13 1457.66 Q2203.33 1461.2 2203.33 1468.33 Q2203.33 1475.44 2205.13 1479.01 Q2206.96 1482.55 2210.57 1482.55 Q2214.21 1482.55 2216.01 1479.01 Q2217.84 1475.44 2217.84 1468.33 Q2217.84 1461.2 2216.01 1457.66 Q2214.21 1454.1 2210.57 1454.1 M2210.57 1450.39 Q2216.38 1450.39 2219.44 1455 Q2222.52 1459.58 2222.52 1468.33 Q2222.52 1477.06 2219.44 1481.67 Q2216.38 1486.25 2210.57 1486.25 Q2204.76 1486.25 2201.68 1481.67 Q2198.63 1477.06 2198.63 1468.33 Q2198.63 1459.58 2201.68 1455 Q2204.76 1450.39 2210.57 1450.39 Z" fill="#000000" fill-rule="nonzero" fill-opacity="1" /><path clip-path="url(#clip740)" d="M2243.58 1455.09 L2231.77 1473.54 L2243.58 1473.54 L2243.58 1455.09 M2242.35 1451.02 L2248.23 1451.02 L2248.23 1473.54 L2253.16 1473.54 L2253.16 1477.43 L2248.23 1477.43 L2248.23 1485.58 L2243.58 1485.58 L2243.58 1477.43 L2227.98 1477.43 L2227.98 1472.92 L2242.35 1451.02 Z" fill="#000000" fill-rule="nonzero" fill-opacity="1" /><path clip-path="url(#clip740)" d="M1167.62 1520.52 L1207.82 1520.52 L1207.82 1525.93 L1190.95 1525.93 L1190.95 1568.04 L1184.49 1568.04 L1184.49 1525.93 L1167.62 1525.93 L1167.62 1520.52 Z" fill="#000000" fill-rule="nonzero" fill-opacity="1" /><path clip-path="url(#clip740)" d="M1211.76 1532.4 L1217.62 1532.4 L1217.62 1568.04 L1211.76 1568.04 L1211.76 1532.4 M1211.76 1518.52 L1217.62 1518.52 L1217.62 1525.93 L1211.76 1525.93 L1211.76 1518.52 Z" fill="#000000" fill-rule="nonzero" fill-opacity="1" /><path clip-path="url(#clip740)" d="M1257.63 1539.24 Q1259.82 1535.29 1262.88 1533.41 Q1265.94 1531.54 1270.07 1531.54 Q1275.64 1531.54 1278.67 1535.45 Q1281.69 1539.33 1281.69 1546.53 L1281.69 1568.04 L1275.8 1568.04 L1275.8 1546.72 Q1275.8 1541.59 1273.99 1539.11 Q1272.17 1536.63 1268.45 1536.63 Q1263.9 1536.63 1261.26 1539.65 Q1258.61 1542.68 1258.61 1547.9 L1258.61 1568.04 L1252.73 1568.04 L1252.73 1546.72 Q1252.73 1541.56 1250.91 1539.11 Q1249.1 1536.63 1245.31 1536.63 Q1240.82 1536.63 1238.18 1539.68 Q1235.54 1542.71 1235.54 1547.9 L1235.54 1568.04 L1229.65 1568.04 L1229.65 1532.4 L1235.54 1532.4 L1235.54 1537.93 Q1237.54 1534.66 1240.34 1533.1 Q1243.15 1531.54 1247 1531.54 Q1250.88 1531.54 1253.59 1533.51 Q1256.32 1535.48 1257.63 1539.24 Z" fill="#000000" fill-rule="nonzero" fill-opacity="1" /><path clip-path="url(#clip740)" d="M1323.86 1548.76 L1323.86 1551.62 L1296.94 1551.62 Q1297.32 1557.67 1300.56 1560.85 Q1303.84 1564 1309.67 1564 Q1313.04 1564 1316.19 1563.17 Q1319.38 1562.35 1322.49 1560.69 L1322.49 1566.23 Q1319.34 1567.57 1316.03 1568.27 Q1312.72 1568.97 1309.32 1568.97 Q1300.79 1568.97 1295.79 1564 Q1290.82 1559.04 1290.82 1550.57 Q1290.82 1541.82 1295.54 1536.69 Q1300.28 1531.54 1308.3 1531.54 Q1315.49 1531.54 1319.66 1536.18 Q1323.86 1540.8 1323.86 1548.76 M1318.01 1547.04 Q1317.94 1542.23 1315.3 1539.37 Q1312.69 1536.5 1308.36 1536.5 Q1303.46 1536.5 1300.5 1539.27 Q1297.57 1542.04 1297.13 1547.07 L1318.01 1547.04 Z" fill="#000000" fill-rule="nonzero" fill-opacity="1" /><path clip-path="url(#clip740)" d="M1368.26 1518.58 Q1364 1525.9 1361.93 1533.06 Q1359.86 1540.23 1359.86 1547.58 Q1359.86 1554.93 1361.93 1562.16 Q1364.03 1569.35 1368.26 1576.64 L1363.17 1576.64 Q1358.4 1569.16 1356.01 1561.93 Q1353.65 1554.71 1353.65 1547.58 Q1353.65 1540.48 1356.01 1533.29 Q1358.37 1526.09 1363.17 1518.58 L1368.26 1518.58 Z" fill="#000000" fill-rule="nonzero" fill-opacity="1" /><path clip-path="url(#clip740)" d="M1402.35 1533.45 L1402.35 1538.98 Q1399.87 1537.71 1397.2 1537.07 Q1394.52 1536.44 1391.66 1536.44 Q1387.3 1536.44 1385.1 1537.77 Q1382.94 1539.11 1382.94 1541.79 Q1382.94 1543.82 1384.5 1545 Q1386.06 1546.15 1390.77 1547.2 L1392.77 1547.64 Q1399.01 1548.98 1401.62 1551.43 Q1404.26 1553.85 1404.26 1558.21 Q1404.26 1563.17 1400.32 1566.07 Q1396.4 1568.97 1389.53 1568.97 Q1386.66 1568.97 1383.54 1568.39 Q1380.45 1567.85 1377.02 1566.74 L1377.02 1560.69 Q1380.26 1562.38 1383.41 1563.24 Q1386.57 1564.07 1389.65 1564.07 Q1393.79 1564.07 1396.02 1562.66 Q1398.25 1561.23 1398.25 1558.65 Q1398.25 1556.27 1396.62 1554.99 Q1395.03 1553.72 1389.59 1552.54 L1387.55 1552.07 Q1382.11 1550.92 1379.69 1548.56 Q1377.27 1546.18 1377.27 1542.04 Q1377.27 1537.01 1380.84 1534.27 Q1384.4 1531.54 1390.96 1531.54 Q1394.2 1531.54 1397.07 1532.01 Q1399.93 1532.49 1402.35 1533.45 Z" fill="#000000" fill-rule="nonzero" fill-opacity="1" /><path clip-path="url(#clip740)" d="M1412.66 1518.58 L1417.76 1518.58 Q1422.53 1526.09 1424.89 1533.29 Q1427.27 1540.48 1427.27 1547.58 Q1427.27 1554.71 1424.89 1561.93 Q1422.53 1569.16 1417.76 1576.64 L1412.66 1576.64 Q1416.9 1569.35 1418.97 1562.16 Q1421.07 1554.93 1421.07 1547.58 Q1421.07 1540.23 1418.97 1533.06 Q1416.9 1525.9 1412.66 1518.58 Z" fill="#000000" fill-rule="nonzero" fill-opacity="1" /><polyline clip-path="url(#clip740)" style="stroke:#000000; stroke-linecap:round; stroke-linejoin:round; stroke-width:4; stroke-opacity:1; fill:none" points="242.135,1423.18 242.135,123.472 "/>
<polyline clip-path="url(#clip740)" style="stroke:#000000; stroke-linecap:round; stroke-linejoin:round; stroke-width:4; stroke-opacity:1; fill:none" points="242.135,1282.56 261.032,1282.56 "/>
<polyline clip-path="url(#clip740)" style="stroke:#000000; stroke-linecap:round; stroke-linejoin:round; stroke-width:4; stroke-opacity:1; fill:none" points="242.135,1091.29 261.032,1091.29 "/>
<polyline clip-path="url(#clip740)" style="stroke:#000000; stroke-linecap:round; stroke-linejoin:round; stroke-width:4; stroke-opacity:1; fill:none" points="242.135,900.011 261.032,900.011 "/>
<polyline clip-path="url(#clip740)" style="stroke:#000000; stroke-linecap:round; stroke-linejoin:round; stroke-width:4; stroke-opacity:1; fill:none" points="242.135,708.736 261.032,708.736 "/>
<polyline clip-path="url(#clip740)" style="stroke:#000000; stroke-linecap:round; stroke-linejoin:round; stroke-width:4; stroke-opacity:1; fill:none" points="242.135,517.461 261.032,517.461 "/>
<polyline clip-path="url(#clip740)" style="stroke:#000000; stroke-linecap:round; stroke-linejoin:round; stroke-width:4; stroke-opacity:1; fill:none" points="242.135,326.186 261.032,326.186 "/>
<polyline clip-path="url(#clip740)" style="stroke:#000000; stroke-linecap:round; stroke-linejoin:round; stroke-width:4; stroke-opacity:1; fill:none" points="242.135,134.911 261.032,134.911 "/>
<path clip-path="url(#clip740)" d="M114.26 1283.01 L143.936 1283.01 L143.936 1286.95 L114.26 1286.95 L114.26 1283.01 Z" fill="#000000" fill-rule="nonzero" fill-opacity="1" /><path clip-path="url(#clip740)" d="M154.075 1265.28 L172.431 1265.28 L172.431 1269.22 L158.357 1269.22 L158.357 1277.69 Q159.376 1277.34 160.394 1277.18 Q161.413 1276.99 162.431 1276.99 Q168.218 1276.99 171.598 1280.16 Q174.977 1283.34 174.977 1288.75 Q174.977 1294.33 171.505 1297.43 Q168.033 1300.51 161.714 1300.51 Q159.538 1300.51 157.269 1300.14 Q155.024 1299.77 152.616 1299.03 L152.616 1294.33 Q154.7 1295.47 156.922 1296.02 Q159.144 1296.58 161.621 1296.58 Q165.626 1296.58 167.964 1294.47 Q170.302 1292.36 170.302 1288.75 Q170.302 1285.14 167.964 1283.04 Q165.626 1280.93 161.621 1280.93 Q159.746 1280.93 157.871 1281.35 Q156.019 1281.76 154.075 1282.64 L154.075 1265.28 Z" fill="#000000" fill-rule="nonzero" fill-opacity="1" /><path clip-path="url(#clip740)" d="M194.19 1268.36 Q190.579 1268.36 188.75 1271.92 Q186.945 1275.47 186.945 1282.6 Q186.945 1289.7 188.75 1293.27 Q190.579 1296.81 194.19 1296.81 Q197.825 1296.81 199.63 1293.27 Q201.459 1289.7 201.459 1282.6 Q201.459 1275.47 199.63 1271.92 Q197.825 1268.36 194.19 1268.36 M194.19 1264.66 Q200 1264.66 203.056 1269.26 Q206.135 1273.85 206.135 1282.6 Q206.135 1291.32 203.056 1295.93 Q200 1300.51 194.19 1300.51 Q188.38 1300.51 185.301 1295.93 Q182.246 1291.32 182.246 1282.6 Q182.246 1273.85 185.301 1269.26 Q188.38 1264.66 194.19 1264.66 Z" fill="#000000" fill-rule="nonzero" fill-opacity="1" /><path clip-path="url(#clip740)" d="M194.19 1077.08 Q190.579 1077.08 188.75 1080.65 Q186.945 1084.19 186.945 1091.32 Q186.945 1098.43 188.75 1101.99 Q190.579 1105.53 194.19 1105.53 Q197.825 1105.53 199.63 1101.99 Q201.459 1098.43 201.459 1091.32 Q201.459 1084.19 199.63 1080.65 Q197.825 1077.08 194.19 1077.08 M194.19 1073.38 Q200 1073.38 203.056 1077.99 Q206.135 1082.57 206.135 1091.32 Q206.135 1100.05 203.056 1104.65 Q200 1109.24 194.19 1109.24 Q188.38 1109.24 185.301 1104.65 Q182.246 1100.05 182.246 1091.32 Q182.246 1082.57 185.301 1077.99 Q188.38 1073.38 194.19 1073.38 Z" fill="#000000" fill-rule="nonzero" fill-opacity="1" /><path clip-path="url(#clip740)" d="M154.075 882.731 L172.431 882.731 L172.431 886.666 L158.357 886.666 L158.357 895.138 Q159.376 894.791 160.394 894.629 Q161.413 894.444 162.431 894.444 Q168.218 894.444 171.598 897.615 Q174.977 900.786 174.977 906.203 Q174.977 911.782 171.505 914.883 Q168.033 917.962 161.714 917.962 Q159.538 917.962 157.269 917.592 Q155.024 917.221 152.616 916.481 L152.616 911.782 Q154.7 912.916 156.922 913.471 Q159.144 914.027 161.621 914.027 Q165.626 914.027 167.964 911.921 Q170.302 909.814 170.302 906.203 Q170.302 902.592 167.964 900.485 Q165.626 898.379 161.621 898.379 Q159.746 898.379 157.871 898.796 Q156.019 899.212 154.075 900.092 L154.075 882.731 Z" fill="#000000" fill-rule="nonzero" fill-opacity="1" /><path clip-path="url(#clip740)" d="M194.19 885.81 Q190.579 885.81 188.75 889.374 Q186.945 892.916 186.945 900.046 Q186.945 907.152 188.75 910.717 Q190.579 914.258 194.19 914.258 Q197.825 914.258 199.63 910.717 Q201.459 907.152 201.459 900.046 Q201.459 892.916 199.63 889.374 Q197.825 885.81 194.19 885.81 M194.19 882.106 Q200 882.106 203.056 886.712 Q206.135 891.296 206.135 900.046 Q206.135 908.772 203.056 913.379 Q200 917.962 194.19 917.962 Q188.38 917.962 185.301 913.379 Q182.246 908.772 182.246 900.046 Q182.246 891.296 185.301 886.712 Q188.38 882.106 194.19 882.106 Z" fill="#000000" fill-rule="nonzero" fill-opacity="1" /><path clip-path="url(#clip740)" d="M124.677 722.081 L132.316 722.081 L132.316 695.715 L124.005 697.382 L124.005 693.123 L132.269 691.456 L136.945 691.456 L136.945 722.081 L144.584 722.081 L144.584 726.016 L124.677 726.016 L124.677 722.081 Z" fill="#000000" fill-rule="nonzero" fill-opacity="1" /><path clip-path="url(#clip740)" d="M164.028 694.535 Q160.417 694.535 158.589 698.099 Q156.783 701.641 156.783 708.771 Q156.783 715.877 158.589 719.442 Q160.417 722.984 164.028 722.984 Q167.663 722.984 169.468 719.442 Q171.297 715.877 171.297 708.771 Q171.297 701.641 169.468 698.099 Q167.663 694.535 164.028 694.535 M164.028 690.831 Q169.839 690.831 172.894 695.437 Q175.973 700.021 175.973 708.771 Q175.973 717.497 172.894 722.104 Q169.839 726.687 164.028 726.687 Q158.218 726.687 155.14 722.104 Q152.084 717.497 152.084 708.771 Q152.084 700.021 155.14 695.437 Q158.218 690.831 164.028 690.831 Z" fill="#000000" fill-rule="nonzero" fill-opacity="1" /><path clip-path="url(#clip740)" d="M194.19 694.535 Q190.579 694.535 188.75 698.099 Q186.945 701.641 186.945 708.771 Q186.945 715.877 188.75 719.442 Q190.579 722.984 194.19 722.984 Q197.825 722.984 199.63 719.442 Q201.459 715.877 201.459 708.771 Q201.459 701.641 199.63 698.099 Q197.825 694.535 194.19 694.535 M194.19 690.831 Q200 690.831 203.056 695.437 Q206.135 700.021 206.135 708.771 Q206.135 717.497 203.056 722.104 Q200 726.687 194.19 726.687 Q188.38 726.687 185.301 722.104 Q182.246 717.497 182.246 708.771 Q182.246 700.021 185.301 695.437 Q188.38 690.831 194.19 690.831 Z" fill="#000000" fill-rule="nonzero" fill-opacity="1" /><path clip-path="url(#clip740)" d="M124.677 530.806 L132.316 530.806 L132.316 504.44 L124.005 506.107 L124.005 501.848 L132.269 500.181 L136.945 500.181 L136.945 530.806 L144.584 530.806 L144.584 534.741 L124.677 534.741 L124.677 530.806 Z" fill="#000000" fill-rule="nonzero" fill-opacity="1" /><path clip-path="url(#clip740)" d="M154.075 500.181 L172.431 500.181 L172.431 504.116 L158.357 504.116 L158.357 512.588 Q159.376 512.241 160.394 512.079 Q161.413 511.894 162.431 511.894 Q168.218 511.894 171.598 515.065 Q174.977 518.237 174.977 523.653 Q174.977 529.232 171.505 532.334 Q168.033 535.412 161.714 535.412 Q159.538 535.412 157.269 535.042 Q155.024 534.672 152.616 533.931 L152.616 529.232 Q154.7 530.366 156.922 530.922 Q159.144 531.477 161.621 531.477 Q165.626 531.477 167.964 529.371 Q170.302 527.264 170.302 523.653 Q170.302 520.042 167.964 517.936 Q165.626 515.829 161.621 515.829 Q159.746 515.829 157.871 516.246 Q156.019 516.662 154.075 517.542 L154.075 500.181 Z" fill="#000000" fill-rule="nonzero" fill-opacity="1" /><path clip-path="url(#clip740)" d="M194.19 503.26 Q190.579 503.26 188.75 506.825 Q186.945 510.366 186.945 517.496 Q186.945 524.602 188.75 528.167 Q190.579 531.709 194.19 531.709 Q197.825 531.709 199.63 528.167 Q201.459 524.602 201.459 517.496 Q201.459 510.366 199.63 506.825 Q197.825 503.26 194.19 503.26 M194.19 499.556 Q200 499.556 203.056 504.163 Q206.135 508.746 206.135 517.496 Q206.135 526.223 203.056 530.829 Q200 535.412 194.19 535.412 Q188.38 535.412 185.301 530.829 Q182.246 526.223 182.246 517.496 Q182.246 508.746 185.301 504.163 Q188.38 499.556 194.19 499.556 Z" fill="#000000" fill-rule="nonzero" fill-opacity="1" /><path clip-path="url(#clip740)" d="M127.894 339.531 L144.214 339.531 L144.214 343.466 L122.269 343.466 L122.269 339.531 Q124.931 336.776 129.515 332.147 Q134.121 327.494 135.302 326.151 Q137.547 323.628 138.427 321.892 Q139.329 320.133 139.329 318.443 Q139.329 315.688 137.385 313.952 Q135.464 312.216 132.362 312.216 Q130.163 312.216 127.709 312.98 Q125.279 313.744 122.501 315.295 L122.501 310.573 Q125.325 309.439 127.779 308.86 Q130.232 308.281 132.269 308.281 Q137.64 308.281 140.834 310.966 Q144.029 313.651 144.029 318.142 Q144.029 320.272 143.218 322.193 Q142.431 324.091 140.325 326.684 Q139.746 327.355 136.644 330.573 Q133.542 333.767 127.894 339.531 Z" fill="#000000" fill-rule="nonzero" fill-opacity="1" /><path clip-path="url(#clip740)" d="M164.028 311.985 Q160.417 311.985 158.589 315.55 Q156.783 319.091 156.783 326.221 Q156.783 333.327 158.589 336.892 Q160.417 340.434 164.028 340.434 Q167.663 340.434 169.468 336.892 Q171.297 333.327 171.297 326.221 Q171.297 319.091 169.468 315.55 Q167.663 311.985 164.028 311.985 M164.028 308.281 Q169.839 308.281 172.894 312.888 Q175.973 317.471 175.973 326.221 Q175.973 334.948 172.894 339.554 Q169.839 344.137 164.028 344.137 Q158.218 344.137 155.14 339.554 Q152.084 334.948 152.084 326.221 Q152.084 317.471 155.14 312.888 Q158.218 308.281 164.028 308.281 Z" fill="#000000" fill-rule="nonzero" fill-opacity="1" /><path clip-path="url(#clip740)" d="M194.19 311.985 Q190.579 311.985 188.75 315.55 Q186.945 319.091 186.945 326.221 Q186.945 333.327 188.75 336.892 Q190.579 340.434 194.19 340.434 Q197.825 340.434 199.63 336.892 Q201.459 333.327 201.459 326.221 Q201.459 319.091 199.63 315.55 Q197.825 311.985 194.19 311.985 M194.19 308.281 Q200 308.281 203.056 312.888 Q206.135 317.471 206.135 326.221 Q206.135 334.948 203.056 339.554 Q200 344.137 194.19 344.137 Q188.38 344.137 185.301 339.554 Q182.246 334.948 182.246 326.221 Q182.246 317.471 185.301 312.888 Q188.38 308.281 194.19 308.281 Z" fill="#000000" fill-rule="nonzero" fill-opacity="1" /><path clip-path="url(#clip740)" d="M127.894 148.256 L144.214 148.256 L144.214 152.191 L122.269 152.191 L122.269 148.256 Q124.931 145.501 129.515 140.872 Q134.121 136.219 135.302 134.876 Q137.547 132.353 138.427 130.617 Q139.329 128.858 139.329 127.168 Q139.329 124.414 137.385 122.677 Q135.464 120.941 132.362 120.941 Q130.163 120.941 127.709 121.705 Q125.279 122.469 122.501 124.02 L122.501 119.298 Q125.325 118.164 127.779 117.585 Q130.232 117.006 132.269 117.006 Q137.64 117.006 140.834 119.691 Q144.029 122.377 144.029 126.867 Q144.029 128.997 143.218 130.918 Q142.431 132.816 140.325 135.409 Q139.746 136.08 136.644 139.298 Q133.542 142.492 127.894 148.256 Z" fill="#000000" fill-rule="nonzero" fill-opacity="1" /><path clip-path="url(#clip740)" d="M154.075 117.631 L172.431 117.631 L172.431 121.566 L158.357 121.566 L158.357 130.039 Q159.376 129.691 160.394 129.529 Q161.413 129.344 162.431 129.344 Q168.218 129.344 171.598 132.515 Q174.977 135.687 174.977 141.103 Q174.977 146.682 171.505 149.784 Q168.033 152.863 161.714 152.863 Q159.538 152.863 157.269 152.492 Q155.024 152.122 152.616 151.381 L152.616 146.682 Q154.7 147.816 156.922 148.372 Q159.144 148.927 161.621 148.927 Q165.626 148.927 167.964 146.821 Q170.302 144.714 170.302 141.103 Q170.302 137.492 167.964 135.386 Q165.626 133.279 161.621 133.279 Q159.746 133.279 157.871 133.696 Q156.019 134.113 154.075 134.992 L154.075 117.631 Z" fill="#000000" fill-rule="nonzero" fill-opacity="1" /><path clip-path="url(#clip740)" d="M194.19 120.71 Q190.579 120.71 188.75 124.275 Q186.945 127.816 186.945 134.946 Q186.945 142.052 188.75 145.617 Q190.579 149.159 194.19 149.159 Q197.825 149.159 199.63 145.617 Q201.459 142.052 201.459 134.946 Q201.459 127.816 199.63 124.275 Q197.825 120.71 194.19 120.71 M194.19 117.006 Q200 117.006 203.056 121.613 Q206.135 126.196 206.135 134.946 Q206.135 143.673 203.056 148.279 Q200 152.863 194.19 152.863 Q188.38 152.863 185.301 148.279 Q182.246 143.673 182.246 134.946 Q182.246 126.196 185.301 121.613 Q188.38 117.006 194.19 117.006 Z" fill="#000000" fill-rule="nonzero" fill-opacity="1" /><path clip-path="url(#clip740)" d="M22.818 1130.78 L46.4666 1139.5 L46.4666 1122.02 L22.818 1130.78 M16.4842 1134.4 L16.4842 1127.12 L64.0042 1109.01 L64.0042 1115.69 L51.8138 1120.02 L51.8138 1141.44 L64.0042 1145.77 L64.0042 1152.55 L16.4842 1134.4 Z" fill="#000000" fill-rule="nonzero" fill-opacity="1" /><path clip-path="url(#clip740)" d="M42.4881 1072.69 L64.0042 1072.69 L64.0042 1078.55 L42.679 1078.55 Q37.6183 1078.55 35.1038 1080.52 Q32.5894 1082.49 32.5894 1086.44 Q32.5894 1091.18 35.6131 1093.92 Q38.6368 1096.66 43.8567 1096.66 L64.0042 1096.66 L64.0042 1102.54 L28.3562 1102.54 L28.3562 1096.66 L33.8944 1096.66 Q30.6797 1094.56 29.0883 1091.72 Q27.4968 1088.86 27.4968 1085.13 Q27.4968 1078.99 31.3163 1075.84 Q35.1038 1072.69 42.4881 1072.69 Z" fill="#000000" fill-rule="nonzero" fill-opacity="1" /><path clip-path="url(#clip740)" d="M45.7664 1037.55 Q39.4007 1037.55 35.8996 1040.19 Q32.3984 1042.8 32.3984 1047.54 Q32.3984 1052.26 35.8996 1054.9 Q39.4007 1057.51 45.7664 1057.51 Q52.1003 1057.51 55.6014 1054.9 Q59.1026 1052.26 59.1026 1047.54 Q59.1026 1042.8 55.6014 1040.19 Q52.1003 1037.55 45.7664 1037.55 M59.58 1031.69 Q68.683 1031.69 73.1071 1035.74 Q77.5631 1039.78 77.5631 1048.12 Q77.5631 1051.2 77.0857 1053.94 Q76.6401 1056.68 75.6852 1059.26 L69.9879 1059.26 Q71.3884 1056.68 72.0568 1054.17 Q72.7252 1051.65 72.7252 1049.04 Q72.7252 1043.28 69.7015 1040.42 Q66.7096 1037.55 60.6303 1037.55 L57.7339 1037.55 Q60.885 1039.36 62.4446 1042.2 Q64.0042 1045.03 64.0042 1048.98 Q64.0042 1055.53 59.0071 1059.54 Q54.01 1063.55 45.7664 1063.55 Q37.491 1063.55 32.4939 1059.54 Q27.4968 1055.53 27.4968 1048.98 Q27.4968 1045.03 29.0564 1042.2 Q30.616 1039.36 33.7671 1037.55 L28.3562 1037.55 L28.3562 1031.69 L59.58 1031.69 Z" fill="#000000" fill-rule="nonzero" fill-opacity="1" /><path clip-path="url(#clip740)" d="M49.9359 1020.24 L28.3562 1020.24 L28.3562 1014.38 L49.7131 1014.38 Q54.7739 1014.38 57.3202 1012.41 Q59.8346 1010.43 59.8346 1006.49 Q59.8346 1001.74 56.8109 999.006 Q53.7872 996.237 48.5673 996.237 L28.3562 996.237 L28.3562 990.381 L64.0042 990.381 L64.0042 996.237 L58.5296 996.237 Q61.7762 998.37 63.3676 1001.2 Q64.9272 1004 64.9272 1007.73 Q64.9272 1013.87 61.1078 1017.05 Q57.2883 1020.24 49.9359 1020.24 M27.4968 1005.5 L27.4968 1005.5 Z" fill="#000000" fill-rule="nonzero" fill-opacity="1" /><path clip-path="url(#clip740)" d="M14.479 978.318 L14.479 972.461 L64.0042 972.461 L64.0042 978.318 L14.479 978.318 Z" fill="#000000" fill-rule="nonzero" fill-opacity="1" /><path clip-path="url(#clip740)" d="M46.0847 944.006 Q46.0847 951.104 47.7079 953.842 Q49.3312 956.579 53.2461 956.579 Q56.3653 956.579 58.2114 954.542 Q60.0256 952.473 60.0256 948.94 Q60.0256 944.07 56.5881 941.142 Q53.1188 938.182 47.3897 938.182 L46.0847 938.182 L46.0847 944.006 M43.6657 932.325 L64.0042 932.325 L64.0042 938.182 L58.5933 938.182 Q61.8398 940.187 63.3994 943.179 Q64.9272 946.171 64.9272 950.5 Q64.9272 955.974 61.8716 959.221 Q58.7843 962.435 53.6281 962.435 Q47.6125 962.435 44.5569 958.425 Q41.5014 954.383 41.5014 946.394 L41.5014 938.182 L40.9285 938.182 Q36.8862 938.182 34.6901 940.855 Q32.4621 943.497 32.4621 948.303 Q32.4621 951.359 33.1941 954.255 Q33.9262 957.152 35.3903 959.825 L29.9795 959.825 Q28.7381 956.611 28.1334 953.587 Q27.4968 950.563 27.4968 947.699 Q27.4968 939.964 31.5072 936.145 Q35.5176 932.325 43.6657 932.325 Z" fill="#000000" fill-rule="nonzero" fill-opacity="1" /><path clip-path="url(#clip740)" d="M33.8307 899.606 Q33.2578 900.592 33.0032 901.77 Q32.7167 902.916 32.7167 904.316 Q32.7167 909.282 35.9632 911.955 Q39.1779 914.597 45.2253 914.597 L64.0042 914.597 L64.0042 920.485 L28.3562 920.485 L28.3562 914.597 L33.8944 914.597 Q30.6479 912.751 29.0883 909.791 Q27.4968 906.831 27.4968 902.598 Q27.4968 901.993 27.5923 901.261 Q27.656 900.529 27.8151 899.638 L33.8307 899.606 Z" fill="#000000" fill-rule="nonzero" fill-opacity="1" /><path clip-path="url(#clip740)" d="M28.3562 876.944 L28.3562 870.737 L58.275 859.597 L28.3562 848.457 L28.3562 842.251 L64.0042 855.619 L64.0042 863.576 L28.3562 876.944 Z" fill="#000000" fill-rule="nonzero" fill-opacity="1" /><path clip-path="url(#clip740)" d="M44.7161 803.674 L47.5806 803.674 L47.5806 830.601 Q53.6281 830.219 56.8109 826.973 Q59.9619 823.695 59.9619 817.87 Q59.9619 814.496 59.1344 811.345 Q58.3069 808.162 56.6518 805.043 L62.1899 805.043 Q63.5267 808.194 64.227 811.504 Q64.9272 814.814 64.9272 818.22 Q64.9272 826.75 59.9619 831.747 Q54.9967 836.713 46.5303 836.713 Q37.7774 836.713 32.6531 832.002 Q27.4968 827.259 27.4968 819.239 Q27.4968 812.045 32.1438 807.876 Q36.7589 803.674 44.7161 803.674 M42.9973 809.531 Q38.1912 809.595 35.3266 812.236 Q32.4621 814.846 32.4621 819.175 Q32.4621 824.077 35.2312 827.037 Q38.0002 829.965 43.0292 830.41 L42.9973 809.531 Z" fill="#000000" fill-rule="nonzero" fill-opacity="1" /><path clip-path="url(#clip740)" d="M14.479 794.062 L14.479 788.206 L64.0042 788.206 L64.0042 794.062 L14.479 794.062 Z" fill="#000000" fill-rule="nonzero" fill-opacity="1" /><path clip-path="url(#clip740)" d="M32.4621 762.138 Q32.4621 766.849 36.1542 769.586 Q39.8145 772.323 46.212 772.323 Q52.6095 772.323 56.3017 769.618 Q59.9619 766.881 59.9619 762.138 Q59.9619 757.459 56.2698 754.722 Q52.5777 751.985 46.212 751.985 Q39.8781 751.985 36.186 754.722 Q32.4621 757.459 32.4621 762.138 M27.4968 762.138 Q27.4968 754.499 32.4621 750.139 Q37.4273 745.778 46.212 745.778 Q54.9649 745.778 59.9619 750.139 Q64.9272 754.499 64.9272 762.138 Q64.9272 769.809 59.9619 774.169 Q54.9649 778.498 46.212 778.498 Q37.4273 778.498 32.4621 774.169 Q27.4968 769.809 27.4968 762.138 Z" fill="#000000" fill-rule="nonzero" fill-opacity="1" /><path clip-path="url(#clip740)" d="M29.7248 710.417 L35.1993 710.417 Q33.8307 712.9 33.1623 715.414 Q32.4621 717.897 32.4621 720.443 Q32.4621 726.14 36.0905 729.291 Q39.6872 732.442 46.212 732.442 Q52.7369 732.442 56.3653 729.291 Q59.9619 726.14 59.9619 720.443 Q59.9619 717.897 59.2935 715.414 Q58.5933 712.9 57.2247 710.417 L62.6355 710.417 Q63.7814 712.868 64.3543 715.509 Q64.9272 718.119 64.9272 721.079 Q64.9272 729.132 59.8664 733.875 Q54.8057 738.617 46.212 738.617 Q37.491 738.617 32.4939 733.843 Q27.4968 729.037 27.4968 720.698 Q27.4968 717.992 28.0697 715.414 Q28.6108 712.836 29.7248 710.417 Z" fill="#000000" fill-rule="nonzero" fill-opacity="1" /><path clip-path="url(#clip740)" d="M28.3562 700.232 L28.3562 694.375 L64.0042 694.375 L64.0042 700.232 L28.3562 700.232 M14.479 700.232 L14.479 694.375 L21.895 694.375 L21.895 700.232 L14.479 700.232 Z" fill="#000000" fill-rule="nonzero" fill-opacity="1" /><path clip-path="url(#clip740)" d="M18.2347 676.329 L28.3562 676.329 L28.3562 664.266 L32.9077 664.266 L32.9077 676.329 L52.2594 676.329 Q56.6199 676.329 57.8613 675.151 Q59.1026 673.941 59.1026 670.281 L59.1026 664.266 L64.0042 664.266 L64.0042 670.281 Q64.0042 677.061 61.4897 679.639 Q58.9434 682.217 52.2594 682.217 L32.9077 682.217 L32.9077 686.514 L28.3562 686.514 L28.3562 682.217 L18.2347 682.217 L18.2347 676.329 Z" fill="#000000" fill-rule="nonzero" fill-opacity="1" /><path clip-path="url(#clip740)" d="M67.3143 641.731 Q73.68 644.214 75.6216 646.569 Q77.5631 648.924 77.5631 652.871 L77.5631 657.55 L72.6615 657.55 L72.6615 654.112 Q72.6615 651.693 71.5157 650.356 Q70.3699 649.02 66.1048 647.396 L63.4312 646.346 L28.3562 660.764 L28.3562 654.558 L56.238 643.418 L28.3562 632.278 L28.3562 626.071 L67.3143 641.731 Z" fill="#000000" fill-rule="nonzero" fill-opacity="1" /><path clip-path="url(#clip740)" d="M14.5426 583.198 Q21.8632 587.463 29.0246 589.532 Q36.186 591.601 43.5384 591.601 Q50.8908 591.601 58.1159 589.532 Q65.3091 587.431 72.5979 583.198 L72.5979 588.291 Q65.1182 593.065 57.8931 595.452 Q50.668 597.808 43.5384 597.808 Q36.4406 597.808 29.2474 595.452 Q22.0542 593.097 14.5426 588.291 L14.5426 583.198 Z" fill="#000000" fill-rule="nonzero" fill-opacity="1" /><path clip-path="url(#clip740)" d="M33.8307 551.179 Q33.2578 552.165 33.0032 553.343 Q32.7167 554.489 32.7167 555.889 Q32.7167 560.855 35.9632 563.528 Q39.1779 566.17 45.2253 566.17 L64.0042 566.17 L64.0042 572.058 L28.3562 572.058 L28.3562 566.17 L33.8944 566.17 Q30.6479 564.324 29.0883 561.364 Q27.4968 558.404 27.4968 554.171 Q27.4968 553.566 27.5923 552.834 Q27.656 552.102 27.8151 551.211 L33.8307 551.179 Z" fill="#000000" fill-rule="nonzero" fill-opacity="1" /><path clip-path="url(#clip740)" d="M46.0847 528.835 Q46.0847 535.933 47.7079 538.67 Q49.3312 541.407 53.2461 541.407 Q56.3653 541.407 58.2114 539.37 Q60.0256 537.301 60.0256 533.769 Q60.0256 528.899 56.5881 525.971 Q53.1188 523.01 47.3897 523.01 L46.0847 523.01 L46.0847 528.835 M43.6657 517.154 L64.0042 517.154 L64.0042 523.01 L58.5933 523.01 Q61.8398 525.016 63.3994 528.008 Q64.9272 530.999 64.9272 535.328 Q64.9272 540.803 61.8716 544.049 Q58.7843 547.264 53.6281 547.264 Q47.6125 547.264 44.5569 543.253 Q41.5014 539.211 41.5014 531.222 L41.5014 523.01 L40.9285 523.01 Q36.8862 523.01 34.6901 525.684 Q32.4621 528.326 32.4621 533.132 Q32.4621 536.187 33.1941 539.084 Q33.9262 541.98 35.3903 544.654 L29.9795 544.654 Q28.7381 541.439 28.1334 538.415 Q27.4968 535.392 27.4968 532.527 Q27.4968 524.793 31.5072 520.973 Q35.5176 517.154 43.6657 517.154 Z" fill="#000000" fill-rule="nonzero" fill-opacity="1" /><path clip-path="url(#clip740)" d="M33.7671 481.633 L14.479 481.633 L14.479 475.777 L64.0042 475.777 L64.0042 481.633 L58.657 481.633 Q61.8398 483.479 63.3994 486.312 Q64.9272 489.113 64.9272 493.06 Q64.9272 499.521 59.771 503.595 Q54.6147 507.637 46.212 507.637 Q37.8093 507.637 32.6531 503.595 Q27.4968 499.521 27.4968 493.06 Q27.4968 489.113 29.0564 486.312 Q30.5842 483.479 33.7671 481.633 M46.212 501.59 Q52.6732 501.59 56.3653 498.948 Q60.0256 496.275 60.0256 491.628 Q60.0256 486.981 56.3653 484.307 Q52.6732 481.633 46.212 481.633 Q39.7508 481.633 36.0905 484.307 Q32.3984 486.981 32.3984 491.628 Q32.3984 496.275 36.0905 498.948 Q39.7508 501.59 46.212 501.59 Z" fill="#000000" fill-rule="nonzero" fill-opacity="1" /><path clip-path="url(#clip740)" d="M16.4842 453.306 L16.4842 447.895 L70.0516 464.446 L70.0516 469.857 L16.4842 453.306 Z" fill="#000000" fill-rule="nonzero" fill-opacity="1" /><path clip-path="url(#clip740)" d="M29.4065 419.027 L34.9447 419.027 Q33.6716 421.509 33.035 424.183 Q32.3984 426.856 32.3984 429.721 Q32.3984 434.082 33.7352 436.278 Q35.072 438.442 37.7456 438.442 Q39.7826 438.442 40.9603 436.882 Q42.1061 435.323 43.1565 430.612 L43.6021 428.607 Q44.9389 422.369 47.3897 419.759 Q49.8086 417.117 54.1691 417.117 Q59.1344 417.117 62.0308 421.064 Q64.9272 424.979 64.9272 431.854 Q64.9272 434.718 64.3543 437.837 Q63.8132 440.925 62.6992 444.362 L56.6518 444.362 Q58.3387 441.116 59.198 437.965 Q60.0256 434.814 60.0256 431.726 Q60.0256 427.589 58.6251 425.361 Q57.1929 423.133 54.6147 423.133 Q52.2276 423.133 50.9545 424.756 Q49.6813 426.347 48.5037 431.79 L48.0262 433.827 Q46.8804 439.27 44.5251 441.689 Q42.138 444.108 38.0002 444.108 Q32.9713 444.108 30.2341 440.543 Q27.4968 436.978 27.4968 430.421 Q27.4968 427.175 27.9743 424.31 Q28.4517 421.446 29.4065 419.027 Z" fill="#000000" fill-rule="nonzero" fill-opacity="1" /><path clip-path="url(#clip740)" d="M14.5426 408.714 L14.5426 403.622 Q22.0542 398.847 29.2474 396.492 Q36.4406 394.105 43.5384 394.105 Q50.668 394.105 57.8931 396.492 Q65.1182 398.847 72.5979 403.622 L72.5979 408.714 Q65.3091 404.481 58.1159 402.412 Q50.8908 400.311 43.5384 400.311 Q36.186 400.311 29.0246 402.412 Q21.8632 404.481 14.5426 408.714 Z" fill="#000000" fill-rule="nonzero" fill-opacity="1" /><path clip-path="url(#clip740)" d="M632.834 20.1573 L621.734 50.2555 L643.974 50.2555 L632.834 20.1573 M628.216 12.096 L637.492 12.096 L660.542 72.576 L652.035 72.576 L646.526 57.061 L619.263 57.061 L613.754 72.576 L605.125 72.576 L628.216 12.096 Z" fill="#000000" fill-rule="nonzero" fill-opacity="1" /><path clip-path="url(#clip740)" d="M706.763 45.1919 L706.763 72.576 L699.309 72.576 L699.309 45.4349 Q699.309 38.994 696.797 35.7938 Q694.286 32.5936 689.263 32.5936 Q683.227 32.5936 679.743 36.4419 Q676.259 40.2903 676.259 46.9338 L676.259 72.576 L668.765 72.576 L668.765 27.2059 L676.259 27.2059 L676.259 34.2544 Q678.933 30.163 682.538 28.1376 Q686.184 26.1121 690.924 26.1121 Q698.742 26.1121 702.752 30.9732 Q706.763 35.7938 706.763 45.1919 Z" fill="#000000" fill-rule="nonzero" fill-opacity="1" /><path clip-path="url(#clip740)" d="M751.485 49.3643 Q751.485 41.2625 748.122 36.8065 Q744.801 32.3505 738.765 32.3505 Q732.769 32.3505 729.407 36.8065 Q726.085 41.2625 726.085 49.3643 Q726.085 57.4256 729.407 61.8816 Q732.769 66.3376 738.765 66.3376 Q744.801 66.3376 748.122 61.8816 Q751.485 57.4256 751.485 49.3643 M758.938 66.9452 Q758.938 78.5308 753.794 84.1616 Q748.649 89.8329 738.036 89.8329 Q734.106 89.8329 730.623 89.2252 Q727.139 88.6581 723.858 87.4428 L723.858 80.1917 Q727.139 81.9741 730.339 82.8248 Q733.539 83.6755 736.861 83.6755 Q744.193 83.6755 747.839 79.8271 Q751.485 76.0193 751.485 68.282 L751.485 64.5957 Q749.176 68.6061 745.57 70.5911 Q741.965 72.576 736.942 72.576 Q728.597 72.576 723.493 66.2161 Q718.389 59.8562 718.389 49.3643 Q718.389 38.832 723.493 32.472 Q728.597 26.1121 736.942 26.1121 Q741.965 26.1121 745.57 28.0971 Q749.176 30.082 751.485 34.0924 L751.485 27.2059 L758.938 27.2059 L758.938 66.9452 Z" fill="#000000" fill-rule="nonzero" fill-opacity="1" /><path clip-path="url(#clip740)" d="M773.522 54.671 L773.522 27.2059 L780.975 27.2059 L780.975 54.3874 Q780.975 60.8284 783.487 64.0691 Q785.998 67.2693 791.021 67.2693 Q797.057 67.2693 800.541 63.421 Q804.065 59.5726 804.065 52.9291 L804.065 27.2059 L811.519 27.2059 L811.519 72.576 L804.065 72.576 L804.065 65.6084 Q801.351 69.7404 797.746 71.7658 Q794.181 73.7508 789.442 73.7508 Q781.623 73.7508 777.572 68.8897 Q773.522 64.0286 773.522 54.671 M792.277 26.1121 L792.277 26.1121 Z" fill="#000000" fill-rule="nonzero" fill-opacity="1" /><path clip-path="url(#clip740)" d="M826.872 9.54393 L834.326 9.54393 L834.326 72.576 L826.872 72.576 L826.872 9.54393 Z" fill="#000000" fill-rule="nonzero" fill-opacity="1" /><path clip-path="url(#clip740)" d="M870.541 49.7694 Q861.507 49.7694 858.023 51.8354 Q854.54 53.9013 854.54 58.8839 Q854.54 62.8538 857.132 65.2034 Q859.765 67.5124 864.262 67.5124 Q870.46 67.5124 874.187 63.1374 Q877.954 58.7219 877.954 51.4303 L877.954 49.7694 L870.541 49.7694 M885.408 46.6907 L885.408 72.576 L877.954 72.576 L877.954 65.6895 Q875.402 69.8214 871.594 71.8063 Q867.786 73.7508 862.277 73.7508 Q855.309 73.7508 851.177 69.8619 Q847.086 65.9325 847.086 59.3701 Q847.086 51.7138 852.19 47.825 Q857.335 43.9361 867.503 43.9361 L877.954 43.9361 L877.954 43.2069 Q877.954 38.0623 874.551 35.2672 Q871.189 32.4315 865.072 32.4315 Q861.183 32.4315 857.497 33.3632 Q853.811 34.295 850.408 36.1584 L850.408 29.2718 Q854.499 27.692 858.348 26.9223 Q862.196 26.1121 865.842 26.1121 Q875.685 26.1121 880.546 31.2163 Q885.408 36.3204 885.408 46.6907 Z" fill="#000000" fill-rule="nonzero" fill-opacity="1" /><path clip-path="url(#clip740)" d="M927.051 34.1734 Q925.795 33.4443 924.296 33.1202 Q922.838 32.7556 921.056 32.7556 Q914.736 32.7556 911.333 36.8875 Q907.971 40.9789 907.971 48.6757 L907.971 72.576 L900.477 72.576 L900.477 27.2059 L907.971 27.2059 L907.971 34.2544 Q910.321 30.1225 914.088 28.1376 Q917.855 26.1121 923.243 26.1121 Q924.013 26.1121 924.944 26.2337 Q925.876 26.3147 927.01 26.5172 L927.051 34.1734 Z" fill="#000000" fill-rule="nonzero" fill-opacity="1" /><path clip-path="url(#clip740)" d="M977.161 72.576 L954.07 12.096 L962.618 12.096 L981.779 63.0159 L1000.98 12.096 L1009.49 12.096 L986.437 72.576 L977.161 72.576 Z" fill="#000000" fill-rule="nonzero" fill-opacity="1" /><path clip-path="url(#clip740)" d="M1050.36 48.0275 L1050.36 51.6733 L1016.09 51.6733 Q1016.58 59.3701 1020.71 63.421 Q1024.88 67.4314 1032.29 67.4314 Q1036.59 67.4314 1040.6 66.3781 Q1044.65 65.3249 1048.62 63.2184 L1048.62 70.267 Q1044.61 71.9684 1040.4 72.8596 Q1036.18 73.7508 1031.85 73.7508 Q1020.99 73.7508 1014.63 67.4314 Q1008.31 61.1119 1008.31 50.3365 Q1008.31 39.1965 1014.31 32.6746 Q1020.34 26.1121 1030.55 26.1121 Q1039.71 26.1121 1045.01 32.0264 Q1050.36 37.9003 1050.36 48.0275 M1042.91 45.84 Q1042.83 39.7232 1039.46 36.0774 Q1036.14 32.4315 1030.63 32.4315 Q1024.39 32.4315 1020.63 35.9558 Q1016.9 39.4801 1016.33 45.8805 L1042.91 45.84 Z" fill="#000000" fill-rule="nonzero" fill-opacity="1" /><path clip-path="url(#clip740)" d="M1062.59 9.54393 L1070.05 9.54393 L1070.05 72.576 L1062.59 72.576 L1062.59 9.54393 Z" fill="#000000" fill-rule="nonzero" fill-opacity="1" /><path clip-path="url(#clip740)" d="M1103.22 32.4315 Q1097.23 32.4315 1093.75 37.1306 Q1090.26 41.7891 1090.26 49.9314 Q1090.26 58.0738 1093.71 62.7728 Q1097.19 67.4314 1103.22 67.4314 Q1109.18 67.4314 1112.66 62.7323 Q1116.15 58.0333 1116.15 49.9314 Q1116.15 41.8701 1112.66 37.1711 Q1109.18 32.4315 1103.22 32.4315 M1103.22 26.1121 Q1112.95 26.1121 1118.5 32.4315 Q1124.05 38.7509 1124.05 49.9314 Q1124.05 61.0714 1118.5 67.4314 Q1112.95 73.7508 1103.22 73.7508 Q1093.46 73.7508 1087.91 67.4314 Q1082.4 61.0714 1082.4 49.9314 Q1082.4 38.7509 1087.91 32.4315 Q1093.46 26.1121 1103.22 26.1121 Z" fill="#000000" fill-rule="nonzero" fill-opacity="1" /><path clip-path="url(#clip740)" d="M1169.05 28.9478 L1169.05 35.9153 Q1165.89 34.1734 1162.69 33.3227 Q1159.53 32.4315 1156.29 32.4315 Q1149.04 32.4315 1145.03 37.0496 Q1141.02 41.6271 1141.02 49.9314 Q1141.02 58.2358 1145.03 62.8538 Q1149.04 67.4314 1156.29 67.4314 Q1159.53 67.4314 1162.69 66.5807 Q1165.89 65.6895 1169.05 63.9476 L1169.05 70.8341 Q1165.93 72.2924 1162.57 73.0216 Q1159.25 73.7508 1155.48 73.7508 Q1145.23 73.7508 1139.2 67.3098 Q1133.16 60.8689 1133.16 49.9314 Q1133.16 38.832 1139.24 32.472 Q1145.35 26.1121 1155.97 26.1121 Q1159.41 26.1121 1162.69 26.8413 Q1165.97 27.5299 1169.05 28.9478 Z" fill="#000000" fill-rule="nonzero" fill-opacity="1" /><path clip-path="url(#clip740)" d="M1182.01 27.2059 L1189.47 27.2059 L1189.47 72.576 L1182.01 72.576 L1182.01 27.2059 M1182.01 9.54393 L1189.47 9.54393 L1189.47 18.9825 L1182.01 18.9825 L1182.01 9.54393 Z" fill="#000000" fill-rule="nonzero" fill-opacity="1" /><path clip-path="url(#clip740)" d="M1212.44 14.324 L1212.44 27.2059 L1227.79 27.2059 L1227.79 32.9987 L1212.44 32.9987 L1212.44 57.6282 Q1212.44 63.1779 1213.94 64.7578 Q1215.48 66.3376 1220.13 66.3376 L1227.79 66.3376 L1227.79 72.576 L1220.13 72.576 Q1211.51 72.576 1208.22 69.3758 Q1204.94 66.1351 1204.94 57.6282 L1204.94 32.9987 L1199.47 32.9987 L1199.47 27.2059 L1204.94 27.2059 L1204.94 14.324 L1212.44 14.324 Z" fill="#000000" fill-rule="nonzero" fill-opacity="1" /><path clip-path="url(#clip740)" d="M1256.47 76.7889 Q1253.31 84.8907 1250.31 87.3618 Q1247.32 89.8329 1242.29 89.8329 L1236.34 89.8329 L1236.34 83.5945 L1240.71 83.5945 Q1243.79 83.5945 1245.49 82.1361 Q1247.19 80.6778 1249.26 75.2496 L1250.6 71.8468 L1232.25 27.2059 L1240.15 27.2059 L1254.32 62.6918 L1268.5 27.2059 L1276.4 27.2059 L1256.47 76.7889 Z" fill="#000000" fill-rule="nonzero" fill-opacity="1" /><path clip-path="url(#clip740)" d="M1330.64 32.4315 Q1324.65 32.4315 1321.16 37.1306 Q1317.68 41.7891 1317.68 49.9314 Q1317.68 58.0738 1321.12 62.7728 Q1324.61 67.4314 1330.64 67.4314 Q1336.6 67.4314 1340.08 62.7323 Q1343.56 58.0333 1343.56 49.9314 Q1343.56 41.8701 1340.08 37.1711 Q1336.6 32.4315 1330.64 32.4315 M1330.64 26.1121 Q1340.36 26.1121 1345.91 32.4315 Q1351.46 38.7509 1351.46 49.9314 Q1351.46 61.0714 1345.91 67.4314 Q1340.36 73.7508 1330.64 73.7508 Q1320.88 73.7508 1315.33 67.4314 Q1309.82 61.0714 1309.82 49.9314 Q1309.82 38.7509 1315.33 32.4315 Q1320.88 26.1121 1330.64 26.1121 Z" fill="#000000" fill-rule="nonzero" fill-opacity="1" /><path clip-path="url(#clip740)" d="M1386.79 9.54393 L1386.79 15.7418 L1379.66 15.7418 Q1375.65 15.7418 1374.07 17.3622 Q1372.53 18.9825 1372.53 23.1955 L1372.53 27.2059 L1384.8 27.2059 L1384.8 32.9987 L1372.53 32.9987 L1372.53 72.576 L1365.03 72.576 L1365.03 32.9987 L1357.91 32.9987 L1357.91 27.2059 L1365.03 27.2059 L1365.03 24.0462 Q1365.03 16.471 1368.56 13.0277 Q1372.08 9.54393 1379.74 9.54393 L1386.79 9.54393 Z" fill="#000000" fill-rule="nonzero" fill-opacity="1" /><path clip-path="url(#clip740)" d="M1448.4 44.2197 Q1451.04 45.1109 1453.51 48.0275 Q1456.02 50.9442 1458.53 56.0483 L1466.83 72.576 L1458.04 72.576 L1450.31 57.061 Q1447.31 50.9847 1444.47 48.9997 Q1441.68 47.0148 1436.82 47.0148 L1427.9 47.0148 L1427.9 72.576 L1419.72 72.576 L1419.72 12.096 L1438.19 12.096 Q1448.56 12.096 1453.67 16.4305 Q1458.77 20.7649 1458.77 29.5149 Q1458.77 35.2267 1456.1 38.994 Q1453.47 42.7613 1448.4 44.2197 M1427.9 18.8205 L1427.9 40.2903 L1438.19 40.2903 Q1444.11 40.2903 1447.11 37.5762 Q1450.14 34.8216 1450.14 29.5149 Q1450.14 24.2082 1447.11 21.5346 Q1444.11 18.8205 1438.19 18.8205 L1427.9 18.8205 Z" fill="#000000" fill-rule="nonzero" fill-opacity="1" /><path clip-path="url(#clip740)" d="M1490.9 32.4315 Q1484.9 32.4315 1481.42 37.1306 Q1477.93 41.7891 1477.93 49.9314 Q1477.93 58.0738 1481.38 62.7728 Q1484.86 67.4314 1490.9 67.4314 Q1496.85 67.4314 1500.33 62.7323 Q1503.82 58.0333 1503.82 49.9314 Q1503.82 41.8701 1500.33 37.1711 Q1496.85 32.4315 1490.9 32.4315 M1490.9 26.1121 Q1500.62 26.1121 1506.17 32.4315 Q1511.72 38.7509 1511.72 49.9314 Q1511.72 61.0714 1506.17 67.4314 Q1500.62 73.7508 1490.9 73.7508 Q1481.13 73.7508 1475.58 67.4314 Q1470.07 61.0714 1470.07 49.9314 Q1470.07 38.7509 1475.58 32.4315 Q1481.13 26.1121 1490.9 26.1121 Z" fill="#000000" fill-rule="nonzero" fill-opacity="1" /><path clip-path="url(#clip740)" d="M1531.45 14.324 L1531.45 27.2059 L1546.8 27.2059 L1546.8 32.9987 L1531.45 32.9987 L1531.45 57.6282 Q1531.45 63.1779 1532.94 64.7578 Q1534.48 66.3376 1539.14 66.3376 L1546.8 66.3376 L1546.8 72.576 L1539.14 72.576 Q1530.51 72.576 1527.23 69.3758 Q1523.95 66.1351 1523.95 57.6282 L1523.95 32.9987 L1518.48 32.9987 L1518.48 27.2059 L1523.95 27.2059 L1523.95 14.324 L1531.45 14.324 Z" fill="#000000" fill-rule="nonzero" fill-opacity="1" /><path clip-path="url(#clip740)" d="M1577.22 49.7694 Q1568.19 49.7694 1564.7 51.8354 Q1561.22 53.9013 1561.22 58.8839 Q1561.22 62.8538 1563.81 65.2034 Q1566.45 67.5124 1570.94 67.5124 Q1577.14 67.5124 1580.87 63.1374 Q1584.63 58.7219 1584.63 51.4303 L1584.63 49.7694 L1577.22 49.7694 M1592.09 46.6907 L1592.09 72.576 L1584.63 72.576 L1584.63 65.6895 Q1582.08 69.8214 1578.27 71.8063 Q1574.47 73.7508 1568.96 73.7508 Q1561.99 73.7508 1557.86 69.8619 Q1553.77 65.9325 1553.77 59.3701 Q1553.77 51.7138 1558.87 47.825 Q1564.02 43.9361 1574.18 43.9361 L1584.63 43.9361 L1584.63 43.2069 Q1584.63 38.0623 1581.23 35.2672 Q1577.87 32.4315 1571.75 32.4315 Q1567.86 32.4315 1564.18 33.3632 Q1560.49 34.295 1557.09 36.1584 L1557.09 29.2718 Q1561.18 27.692 1565.03 26.9223 Q1568.88 26.1121 1572.52 26.1121 Q1582.37 26.1121 1587.23 31.2163 Q1592.09 36.3204 1592.09 46.6907 Z" fill="#000000" fill-rule="nonzero" fill-opacity="1" /><path clip-path="url(#clip740)" d="M1614.81 14.324 L1614.81 27.2059 L1630.17 27.2059 L1630.17 32.9987 L1614.81 32.9987 L1614.81 57.6282 Q1614.81 63.1779 1616.31 64.7578 Q1617.85 66.3376 1622.51 66.3376 L1630.17 66.3376 L1630.17 72.576 L1622.51 72.576 Q1613.88 72.576 1610.6 69.3758 Q1607.32 66.1351 1607.32 57.6282 L1607.32 32.9987 L1601.85 32.9987 L1601.85 27.2059 L1607.32 27.2059 L1607.32 14.324 L1614.81 14.324 Z" fill="#000000" fill-rule="nonzero" fill-opacity="1" /><path clip-path="url(#clip740)" d="M1639.97 27.2059 L1647.42 27.2059 L1647.42 72.576 L1639.97 72.576 L1639.97 27.2059 M1639.97 9.54393 L1647.42 9.54393 L1647.42 18.9825 L1639.97 18.9825 L1639.97 9.54393 Z" fill="#000000" fill-rule="nonzero" fill-opacity="1" /><path clip-path="url(#clip740)" d="M1700.73 45.1919 L1700.73 72.576 L1693.28 72.576 L1693.28 45.4349 Q1693.28 38.994 1690.77 35.7938 Q1688.26 32.5936 1683.23 32.5936 Q1677.2 32.5936 1673.71 36.4419 Q1670.23 40.2903 1670.23 46.9338 L1670.23 72.576 L1662.74 72.576 L1662.74 27.2059 L1670.23 27.2059 L1670.23 34.2544 Q1672.9 30.163 1676.51 28.1376 Q1680.15 26.1121 1684.89 26.1121 Q1692.71 26.1121 1696.72 30.9732 Q1700.73 35.7938 1700.73 45.1919 Z" fill="#000000" fill-rule="nonzero" fill-opacity="1" /><path clip-path="url(#clip740)" d="M1745.46 49.3643 Q1745.46 41.2625 1742.09 36.8065 Q1738.77 32.3505 1732.74 32.3505 Q1726.74 32.3505 1723.38 36.8065 Q1720.06 41.2625 1720.06 49.3643 Q1720.06 57.4256 1723.38 61.8816 Q1726.74 66.3376 1732.74 66.3376 Q1738.77 66.3376 1742.09 61.8816 Q1745.46 57.4256 1745.46 49.3643 M1752.91 66.9452 Q1752.91 78.5308 1747.76 84.1616 Q1742.62 89.8329 1732.01 89.8329 Q1728.08 89.8329 1724.59 89.2252 Q1721.11 88.6581 1717.83 87.4428 L1717.83 80.1917 Q1721.11 81.9741 1724.31 82.8248 Q1727.51 83.6755 1730.83 83.6755 Q1738.16 83.6755 1741.81 79.8271 Q1745.46 76.0193 1745.46 68.282 L1745.46 64.5957 Q1743.15 68.6061 1739.54 70.5911 Q1735.94 72.576 1730.91 72.576 Q1722.57 72.576 1717.46 66.2161 Q1712.36 59.8562 1712.36 49.3643 Q1712.36 38.832 1717.46 32.472 Q1722.57 26.1121 1730.91 26.1121 Q1735.94 26.1121 1739.54 28.0971 Q1743.15 30.082 1745.46 34.0924 L1745.46 27.2059 L1752.91 27.2059 L1752.91 66.9452 Z" fill="#000000" fill-rule="nonzero" fill-opacity="1" /><path clip-path="url(#clip740)" d="M1803.14 18.8205 L1803.14 41.5461 L1813.43 41.5461 Q1819.14 41.5461 1822.26 38.5889 Q1825.38 35.6318 1825.38 30.163 Q1825.38 24.7348 1822.26 21.7777 Q1819.14 18.8205 1813.43 18.8205 L1803.14 18.8205 M1794.96 12.096 L1813.43 12.096 Q1823.6 12.096 1828.78 16.714 Q1834.01 21.2916 1834.01 30.163 Q1834.01 39.1155 1828.78 43.6931 Q1823.6 48.2706 1813.43 48.2706 L1803.14 48.2706 L1803.14 72.576 L1794.96 72.576 L1794.96 12.096 Z" fill="#000000" fill-rule="nonzero" fill-opacity="1" /><path clip-path="url(#clip740)" d="M1861.55 49.7694 Q1852.52 49.7694 1849.04 51.8354 Q1845.55 53.9013 1845.55 58.8839 Q1845.55 62.8538 1848.15 65.2034 Q1850.78 67.5124 1855.28 67.5124 Q1861.47 67.5124 1865.2 63.1374 Q1868.97 58.7219 1868.97 51.4303 L1868.97 49.7694 L1861.55 49.7694 M1876.42 46.6907 L1876.42 72.576 L1868.97 72.576 L1868.97 65.6895 Q1866.42 69.8214 1862.61 71.8063 Q1858.8 73.7508 1853.29 73.7508 Q1846.32 73.7508 1842.19 69.8619 Q1838.1 65.9325 1838.1 59.3701 Q1838.1 51.7138 1843.2 47.825 Q1848.35 43.9361 1858.52 43.9361 L1868.97 43.9361 L1868.97 43.2069 Q1868.97 38.0623 1865.56 35.2672 Q1862.2 32.4315 1856.09 32.4315 Q1852.2 32.4315 1848.51 33.3632 Q1844.82 34.295 1841.42 36.1584 L1841.42 29.2718 Q1845.51 27.692 1849.36 26.9223 Q1853.21 26.1121 1856.85 26.1121 Q1866.7 26.1121 1871.56 31.2163 Q1876.42 36.3204 1876.42 46.6907 Z" fill="#000000" fill-rule="nonzero" fill-opacity="1" /><path clip-path="url(#clip740)" d="M1918.06 34.1734 Q1916.81 33.4443 1915.31 33.1202 Q1913.85 32.7556 1912.07 32.7556 Q1905.75 32.7556 1902.35 36.8875 Q1898.98 40.9789 1898.98 48.6757 L1898.98 72.576 L1891.49 72.576 L1891.49 27.2059 L1898.98 27.2059 L1898.98 34.2544 Q1901.33 30.1225 1905.1 28.1376 Q1908.87 26.1121 1914.26 26.1121 Q1915.03 26.1121 1915.96 26.2337 Q1916.89 26.3147 1918.02 26.5172 L1918.06 34.1734 Z" fill="#000000" fill-rule="nonzero" fill-opacity="1" /><path clip-path="url(#clip740)" d="M1933.25 14.324 L1933.25 27.2059 L1948.61 27.2059 L1948.61 32.9987 L1933.25 32.9987 L1933.25 57.6282 Q1933.25 63.1779 1934.75 64.7578 Q1936.29 66.3376 1940.95 66.3376 L1948.61 66.3376 L1948.61 72.576 L1940.95 72.576 Q1932.32 72.576 1929.04 69.3758 Q1925.76 66.1351 1925.76 57.6282 L1925.76 32.9987 L1920.29 32.9987 L1920.29 27.2059 L1925.76 27.2059 L1925.76 14.324 L1933.25 14.324 Z" fill="#000000" fill-rule="nonzero" fill-opacity="1" /><path clip-path="url(#clip740)" d="M1987.33 28.5427 L1987.33 35.5912 Q1984.17 33.9709 1980.77 33.1607 Q1977.37 32.3505 1973.72 32.3505 Q1968.17 32.3505 1965.38 34.0519 Q1962.62 35.7533 1962.62 39.156 Q1962.62 41.7486 1964.61 43.2475 Q1966.59 44.7058 1972.59 46.0426 L1975.14 46.6097 Q1983.08 48.3111 1986.4 51.4303 Q1989.77 54.509 1989.77 60.0587 Q1989.77 66.3781 1984.74 70.0644 Q1979.76 73.7508 1971.01 73.7508 Q1967.36 73.7508 1963.39 73.0216 Q1959.46 72.3329 1955.09 70.9151 L1955.09 63.2184 Q1959.22 65.3654 1963.23 66.4591 Q1967.24 67.5124 1971.17 67.5124 Q1976.44 67.5124 1979.27 65.73 Q1982.11 63.9071 1982.11 60.6258 Q1982.11 57.5877 1980.04 55.9673 Q1978.02 54.3469 1971.09 52.8481 L1968.5 52.2405 Q1961.57 50.7821 1958.49 47.7845 Q1955.41 44.7463 1955.41 39.4801 Q1955.41 33.0797 1959.95 29.5959 Q1964.49 26.1121 1972.83 26.1121 Q1976.96 26.1121 1980.61 26.7198 Q1984.26 27.3274 1987.33 28.5427 Z" fill="#000000" fill-rule="nonzero" fill-opacity="1" /><polyline clip-path="url(#clip742)" style="stroke:#009af9; stroke-linecap:round; stroke-linejoin:round; stroke-width:12; stroke-opacity:1; fill:none" points="301.869,402.696 308.506,402.533 315.144,402.042 321.781,401.226 328.418,400.087 335.055,398.627 341.692,396.85 348.329,394.76 354.967,392.362 361.604,389.663 368.241,386.669 374.878,383.387 381.515,379.826 388.152,375.995 394.79,371.903 401.427,367.56 408.064,362.978 414.701,358.167 421.338,353.141 427.976,347.912 434.613,342.492 441.25,336.897 447.887,331.141 454.524,325.238 461.161,319.204 467.799,313.054 474.436,306.806 481.073,300.475 487.71,294.078 494.347,287.634 500.984,281.158 507.622,274.669 514.259,268.186 520.896,261.725 527.533,255.306 534.17,248.947 540.807,242.666 547.445,236.482 554.082,230.414 560.719,224.479 567.356,218.696 573.993,213.084 580.631,207.66 587.268,202.443 593.905,197.451 600.542,192.7 607.179,188.209 613.816,183.993 620.454,180.07 627.091,176.456 633.728,173.166 640.365,170.216 647.002,167.621 653.639,165.394 660.277,163.55 666.914,162.102 673.551,161.063 680.188,160.444 686.825,160.256 693.462,160.511 700.1,161.219 706.737,162.388 713.374,164.027 720.011,166.145 726.648,168.747 733.286,171.84 739.923,175.43 746.56,179.521 753.197,184.116 759.834,189.219 766.471,194.832 773.109,200.955 779.746,207.59 786.383,214.734 793.02,222.388 799.657,230.549 806.294,239.212 812.932,248.375 819.569,258.033 826.206,268.178 832.843,278.805 839.48,289.906 846.117,301.472 852.755,313.495 859.392,325.963 866.029,338.867 872.666,352.194 879.303,365.931 885.941,380.065 892.578,394.583 899.215,409.469 905.852,424.708 912.489,440.283 919.126,456.178 925.764,472.375 932.401,488.856 939.038,505.602 945.675,522.594 952.312,539.812 958.949,557.235 965.587,574.844 972.224,592.615 978.861,610.529 985.498,628.563 992.135,646.694 998.772,664.9 1005.41,683.158 1012.05,701.445 1018.68,719.738 1025.32,738.012 1031.96,756.245 1038.6,774.413 1045.23,792.491 1051.87,810.457 1058.51,828.287 1065.14,845.956 1071.78,863.442 1078.42,880.721 1085.06,897.77 1091.69,914.565 1098.33,931.086 1104.97,947.308 1111.6,963.21 1118.24,978.77 1124.88,993.967 1131.52,1008.78 1138.15,1023.19 1144.79,1037.17 1151.43,1050.72 1158.06,1063.79 1164.7,1076.39 1171.34,1088.49 1177.98,1100.08 1184.61,1111.14 1191.25,1121.65 1197.89,1131.6 1204.52,1140.97 1211.16,1149.76 1217.8,1157.94 1224.44,1165.52 1231.07,1172.47 1237.71,1178.79 1244.35,1184.47 1250.99,1189.5 1257.62,1193.87 1264.26,1197.58 1270.9,1200.62 1277.53,1203 1284.17,1204.69 1290.81,1205.71 1297.45,1206.05 1304.08,1205.71 1310.72,1204.69 1317.36,1203 1323.99,1200.62 1330.63,1197.58 1337.27,1193.87 1343.91,1189.5 1350.54,1184.47 1357.18,1178.79 1363.82,1172.47 1370.45,1165.52 1377.09,1157.94 1383.73,1149.76 1390.37,1140.97 1397,1131.6 1403.64,1121.65 1410.28,1111.14 1416.91,1100.08 1423.55,1088.49 1430.19,1076.39 1436.83,1063.79 1443.46,1050.72 1450.1,1037.17 1456.74,1023.19 1463.37,1008.78 1470.01,993.967 1476.65,978.77 1483.29,963.21 1489.92,947.308 1496.56,931.086 1503.2,914.565 1509.83,897.77 1516.47,880.721 1523.11,863.442 1529.75,845.956 1536.38,828.287 1543.02,810.457 1549.66,792.491 1556.3,774.413 1562.93,756.245 1569.57,738.012 1576.21,719.738 1582.84,701.445 1589.48,683.158 1596.12,664.9 1602.76,646.694 1609.39,628.563 1616.03,610.529 1622.67,592.615 1629.3,574.844 1635.94,557.235 1642.58,539.812 1649.22,522.594 1655.85,505.602 1662.49,488.856 1669.13,472.375 1675.76,456.178 1682.4,440.283 1689.04,424.708 1695.68,409.469 1702.31,394.583 1708.95,380.065 1715.59,365.931 1722.22,352.194 1728.86,338.867 1735.5,325.963 1742.14,313.495 1748.77,301.472 1755.41,289.906 1762.05,278.805 1768.68,268.178 1775.32,258.033 1781.96,248.375 1788.6,239.212 1795.23,230.549 1801.87,222.388 1808.51,214.734 1815.14,207.59 1821.78,200.955 1828.42,194.832 1835.06,189.219 1841.69,184.116 1848.33,179.521 1854.97,175.43 1861.61,171.84 1868.24,168.747 1874.88,166.145 1881.52,164.027 1888.15,162.388 1894.79,161.219 1901.43,160.511 1908.07,160.256 1914.7,160.444 1921.34,161.063 1927.98,162.102 1934.61,163.55 1941.25,165.394 1947.89,167.621 1954.53,170.216 1961.16,173.166 1967.8,176.456 1974.44,180.07 1981.07,183.993 1987.71,188.209 1994.35,192.7 2000.99,197.451 2007.62,202.443 2014.26,207.66 2020.9,213.084 2027.53,218.696 2034.17,224.479 2040.81,230.414 2047.45,236.482 2054.08,242.666 2060.72,248.947 2067.36,255.306 2073.99,261.725 2080.63,268.186 2087.27,274.669 2093.91,281.158 2100.54,287.634 2107.18,294.078 2113.82,300.475 2120.45,306.806 2127.09,313.054 2133.73,319.204 2140.37,325.238 2147,331.141 2153.64,336.897 2160.28,342.492 2166.92,347.912 2173.55,353.141 2180.19,358.167 2186.83,362.978 2193.46,367.56 2200.1,371.903 2206.74,375.995 2213.38,379.826 2220.01,383.387 2226.65,386.669 2233.29,389.663 2239.92,392.362 2246.56,394.76 2253.2,396.85 2259.84,398.627 2266.47,400.087 2273.11,401.226 2279.75,402.042 2286.38,402.533 2293.02,402.696 "/>
<polyline clip-path="url(#clip742)" style="stroke:#e26f46; stroke-linecap:round; stroke-linejoin:round; stroke-width:12; stroke-opacity:1; fill:none" points="301.869,1386.4 308.506,1386.39 315.144,1386.37 321.781,1386.34 328.418,1386.29 335.055,1386.22 341.692,1386.12 348.329,1385.99 354.967,1385.82 361.604,1385.6 368.241,1385.33 374.878,1384.99 381.515,1384.57 388.152,1384.05 394.79,1383.43 401.427,1382.69 408.064,1381.82 414.701,1380.79 421.338,1379.59 427.976,1378.21 434.613,1376.62 441.25,1374.81 447.887,1372.75 454.524,1370.43 461.161,1367.82 467.799,1364.91 474.436,1361.66 481.073,1358.08 487.71,1354.12 494.347,1349.77 500.984,1345.02 507.622,1339.84 514.259,1334.21 520.896,1328.13 527.533,1321.56 534.17,1314.51 540.807,1306.96 547.445,1298.9 554.082,1290.32 560.719,1281.22 567.356,1271.6 573.993,1261.47 580.631,1250.82 587.268,1239.68 593.905,1228.04 600.542,1215.94 607.179,1203.39 613.816,1190.42 620.454,1177.05 627.091,1163.34 633.728,1149.3 640.365,1134.99 647.002,1120.45 653.639,1105.73 660.277,1090.88 666.914,1075.95 673.551,1060.99 680.188,1046.07 686.825,1031.23 693.462,1016.54 700.1,1002.05 706.737,987.815 713.374,973.888 720.011,960.32 726.648,947.159 733.286,934.452 739.923,922.24 746.56,910.562 753.197,899.454 759.834,888.946 766.471,879.065 773.109,869.835 779.746,861.275 786.383,853.4 793.02,846.22 799.657,839.745 806.294,833.976 812.932,828.916 819.569,824.561 826.206,820.905 832.843,817.941 839.48,815.655 846.117,814.036 852.755,813.067 859.392,812.73 866.029,813.007 872.666,813.876 879.303,815.315 885.941,817.302 892.578,819.811 899.215,822.817 905.852,826.296 912.489,830.221 919.126,834.565 925.764,839.303 932.401,844.408 939.038,849.853 945.675,855.613 952.312,861.66 958.949,867.97 965.587,874.518 972.224,881.278 978.861,888.228 985.498,895.343 992.135,902.6 998.772,909.979 1005.41,917.458 1012.05,925.016 1018.68,932.634 1025.32,940.293 1031.96,947.975 1038.6,955.663 1045.23,963.341 1051.87,970.992 1058.51,978.601 1065.14,986.155 1071.78,993.641 1078.42,1001.04 1085.06,1008.35 1091.69,1015.56 1098.33,1022.64 1104.97,1029.6 1111.6,1036.42 1118.24,1043.09 1124.88,1049.6 1131.52,1055.95 1138.15,1062.13 1144.79,1068.12 1151.43,1073.92 1158.06,1079.52 1164.7,1084.91 1171.34,1090.09 1177.98,1095.05 1184.61,1099.78 1191.25,1104.28 1197.89,1108.54 1204.52,1112.56 1211.16,1116.32 1217.8,1119.83 1224.44,1123.08 1231.07,1126.06 1237.71,1128.77 1244.35,1131.2 1250.99,1133.36 1257.62,1135.24 1264.26,1136.83 1270.9,1138.14 1277.53,1139.16 1284.17,1139.89 1290.81,1140.32 1297.45,1140.47 1304.08,1140.32 1310.72,1139.89 1317.36,1139.16 1323.99,1138.14 1330.63,1136.83 1337.27,1135.24 1343.91,1133.36 1350.54,1131.2 1357.18,1128.77 1363.82,1126.06 1370.45,1123.08 1377.09,1119.83 1383.73,1116.32 1390.37,1112.56 1397,1108.54 1403.64,1104.28 1410.28,1099.78 1416.91,1095.05 1423.55,1090.09 1430.19,1084.91 1436.83,1079.52 1443.46,1073.92 1450.1,1068.12 1456.74,1062.13 1463.37,1055.95 1470.01,1049.6 1476.65,1043.09 1483.29,1036.42 1489.92,1029.6 1496.56,1022.64 1503.2,1015.56 1509.83,1008.35 1516.47,1001.04 1523.11,993.641 1529.75,986.155 1536.38,978.601 1543.02,970.992 1549.66,963.341 1556.3,955.663 1562.93,947.975 1569.57,940.293 1576.21,932.634 1582.84,925.016 1589.48,917.458 1596.12,909.979 1602.76,902.6 1609.39,895.343 1616.03,888.228 1622.67,881.278 1629.3,874.518 1635.94,867.97 1642.58,861.66 1649.22,855.613 1655.85,849.853 1662.49,844.408 1669.13,839.303 1675.76,834.565 1682.4,830.221 1689.04,826.296 1695.68,822.817 1702.31,819.811 1708.95,817.302 1715.59,815.315 1722.22,813.876 1728.86,813.007 1735.5,812.73 1742.14,813.067 1748.77,814.036 1755.41,815.655 1762.05,817.941 1768.68,820.905 1775.32,824.561 1781.96,828.916 1788.6,833.976 1795.23,839.745 1801.87,846.22 1808.51,853.4 1815.14,861.275 1821.78,869.835 1828.42,879.065 1835.06,888.946 1841.69,899.454 1848.33,910.562 1854.97,922.24 1861.61,934.452 1868.24,947.159 1874.88,960.32 1881.52,973.888 1888.15,987.815 1894.79,1002.05 1901.43,1016.54 1908.07,1031.23 1914.7,1046.07 1921.34,1060.99 1927.98,1075.95 1934.61,1090.88 1941.25,1105.73 1947.89,1120.45 1954.53,1134.99 1961.16,1149.3 1967.8,1163.34 1974.44,1177.05 1981.07,1190.42 1987.71,1203.39 1994.35,1215.94 2000.99,1228.04 2007.62,1239.68 2014.26,1250.82 2020.9,1261.47 2027.53,1271.6 2034.17,1281.22 2040.81,1290.32 2047.45,1298.9 2054.08,1306.96 2060.72,1314.51 2067.36,1321.56 2073.99,1328.13 2080.63,1334.21 2087.27,1339.84 2093.91,1345.02 2100.54,1349.77 2107.18,1354.12 2113.82,1358.08 2120.45,1361.66 2127.09,1364.91 2133.73,1367.82 2140.37,1370.43 2147,1372.75 2153.64,1374.81 2160.28,1376.62 2166.92,1378.21 2173.55,1379.59 2180.19,1380.79 2186.83,1381.82 2193.46,1382.69 2200.1,1383.43 2206.74,1384.05 2213.38,1384.57 2220.01,1384.99 2226.65,1385.33 2233.29,1385.6 2239.92,1385.82 2246.56,1385.99 2253.2,1386.12 2259.84,1386.22 2266.47,1386.29 2273.11,1386.34 2279.75,1386.37 2286.38,1386.39 2293.02,1386.4 "/>
<path clip-path="url(#clip740)" d="M1650.09 322.316 L2282.4 322.316 L2282.4 166.796 L1650.09 166.796  Z" fill="#ffffff" fill-rule="evenodd" fill-opacity="1"/>
<polyline clip-path="url(#clip740)" style="stroke:#000000; stroke-linecap:round; stroke-linejoin:round; stroke-width:4; stroke-opacity:1; fill:none" points="1650.09,322.316 2282.4,322.316 2282.4,166.796 1650.09,166.796 1650.09,322.316 "/>
<polyline clip-path="url(#clip740)" style="stroke:#009af9; stroke-linecap:round; stroke-linejoin:round; stroke-width:12; stroke-opacity:1; fill:none" points="1673.54,218.636 1814.25,218.636 "/>
<path clip-path="url(#clip740)" d="M1847.31 236.587 Q1837.7 236.587 1837.7 222.837 Q1837.7 217.397 1841.29 209.99 L1845.87 209.99 Q1842.56 217.397 1842.56 222.953 Q1842.56 232.976 1847.7 232.976 Q1852.4 232.976 1852.4 220.522 L1856.34 220.522 Q1856.34 232.976 1861.04 232.976 Q1866.17 232.976 1866.17 222.953 Q1866.17 217.397 1862.86 209.99 L1867.45 209.99 Q1871.04 217.397 1871.04 222.837 Q1871.04 236.587 1861.43 236.587 Q1855.13 236.587 1854.37 229.666 Q1853.42 236.587 1847.31 236.587 Z" fill="#000000" fill-rule="nonzero" fill-opacity="1" /><path clip-path="url(#clip740)" d="M1880.48 233.277 L1890.3 233.277 L1890.3 235.916 L1876.45 235.916 L1876.45 233.369 Q1877.24 232.652 1878.7 231.356 Q1886.66 224.295 1886.66 222.119 Q1886.66 220.592 1885.46 219.666 Q1884.25 218.717 1882.29 218.717 Q1881.08 218.717 1879.67 219.133 Q1878.26 219.527 1876.59 220.337 L1876.59 217.49 Q1878.37 216.842 1879.9 216.518 Q1881.45 216.194 1882.77 216.194 Q1886.13 216.194 1888.14 217.721 Q1890.16 219.249 1890.16 221.749 Q1890.16 224.967 1882.49 231.541 Q1881.2 232.652 1880.48 233.277 Z" fill="#000000" fill-rule="nonzero" fill-opacity="1" /><path clip-path="url(#clip740)" d="M1931.48 210.985 L1931.48 214.967 Q1929.67 213.971 1927.84 213.485 Q1926.04 212.976 1924.18 212.976 Q1920.04 212.976 1917.75 215.615 Q1915.46 218.231 1915.46 222.976 Q1915.46 227.721 1917.75 230.36 Q1920.04 232.976 1924.18 232.976 Q1926.04 232.976 1927.84 232.49 Q1929.67 231.981 1931.48 230.985 L1931.48 234.92 Q1929.69 235.754 1927.77 236.17 Q1925.87 236.587 1923.72 236.587 Q1917.86 236.587 1914.42 232.906 Q1910.97 229.226 1910.97 222.976 Q1910.97 216.633 1914.44 212.999 Q1917.93 209.365 1924 209.365 Q1925.97 209.365 1927.84 209.782 Q1929.72 210.175 1931.48 210.985 Z" fill="#000000" fill-rule="nonzero" fill-opacity="1" /><path clip-path="url(#clip740)" d="M1953.91 213.971 Q1953.19 213.555 1952.33 213.37 Q1951.5 213.161 1950.48 213.161 Q1946.87 213.161 1944.92 215.522 Q1943 217.86 1943 222.258 L1943 235.916 L1938.72 235.916 L1938.72 209.99 L1943 209.99 L1943 214.018 Q1944.35 211.657 1946.5 210.522 Q1948.65 209.365 1951.73 209.365 Q1952.17 209.365 1952.7 209.434 Q1953.23 209.481 1953.88 209.596 L1953.91 213.971 Z" fill="#000000" fill-rule="nonzero" fill-opacity="1" /><path clip-path="url(#clip740)" d="M1970.16 222.883 Q1964.99 222.883 1963 224.064 Q1961.01 225.244 1961.01 228.092 Q1961.01 230.36 1962.49 231.703 Q1964 233.022 1966.57 233.022 Q1970.11 233.022 1972.24 230.522 Q1974.39 227.999 1974.39 223.832 L1974.39 222.883 L1970.16 222.883 M1978.65 221.124 L1978.65 235.916 L1974.39 235.916 L1974.39 231.981 Q1972.93 234.342 1970.76 235.476 Q1968.58 236.587 1965.43 236.587 Q1961.45 236.587 1959.09 234.365 Q1956.75 232.119 1956.75 228.369 Q1956.75 223.994 1959.67 221.772 Q1962.61 219.55 1968.42 219.55 L1974.39 219.55 L1974.39 219.133 Q1974.39 216.194 1972.45 214.596 Q1970.53 212.976 1967.03 212.976 Q1964.81 212.976 1962.7 213.508 Q1960.6 214.041 1958.65 215.106 L1958.65 211.17 Q1960.99 210.268 1963.19 209.828 Q1965.39 209.365 1967.47 209.365 Q1973.1 209.365 1975.87 212.282 Q1978.65 215.198 1978.65 221.124 Z" fill="#000000" fill-rule="nonzero" fill-opacity="1" /><path clip-path="url(#clip740)" d="M2008.98 220.268 L2008.98 235.916 L2004.72 235.916 L2004.72 220.407 Q2004.72 216.726 2003.28 214.897 Q2001.85 213.069 1998.98 213.069 Q1995.53 213.069 1993.54 215.268 Q1991.54 217.467 1991.54 221.263 L1991.54 235.916 L1987.26 235.916 L1987.26 209.99 L1991.54 209.99 L1991.54 214.018 Q1993.07 211.68 1995.13 210.522 Q1997.22 209.365 1999.92 209.365 Q2004.39 209.365 2006.68 212.143 Q2008.98 214.897 2008.98 220.268 Z" fill="#000000" fill-rule="nonzero" fill-opacity="1" /><path clip-path="url(#clip740)" d="M2017.31 199.897 L2021.59 199.897 L2021.59 221.17 L2034.3 209.99 L2039.74 209.99 L2025.99 222.119 L2040.32 235.916 L2034.76 235.916 L2021.59 223.254 L2021.59 235.916 L2017.31 235.916 L2017.31 199.897 Z" fill="#000000" fill-rule="nonzero" fill-opacity="1" /><path clip-path="url(#clip740)" d="M2061.45 210.754 L2061.45 214.782 Q2059.65 213.856 2057.7 213.393 Q2055.76 212.93 2053.67 212.93 Q2050.5 212.93 2048.91 213.902 Q2047.33 214.874 2047.33 216.819 Q2047.33 218.3 2048.47 219.157 Q2049.6 219.99 2053.03 220.754 L2054.48 221.078 Q2059.02 222.05 2060.92 223.832 Q2062.84 225.592 2062.84 228.763 Q2062.84 232.374 2059.97 234.481 Q2057.12 236.587 2052.12 236.587 Q2050.04 236.587 2047.77 236.17 Q2045.53 235.777 2043.03 234.967 L2043.03 230.569 Q2045.39 231.795 2047.68 232.42 Q2049.97 233.022 2052.22 233.022 Q2055.22 233.022 2056.85 232.004 Q2058.47 230.962 2058.47 229.087 Q2058.47 227.351 2057.28 226.425 Q2056.13 225.499 2052.17 224.643 L2050.69 224.295 Q2046.73 223.462 2044.97 221.749 Q2043.21 220.013 2043.21 217.004 Q2043.21 213.346 2045.8 211.356 Q2048.4 209.365 2053.16 209.365 Q2055.53 209.365 2057.61 209.712 Q2059.69 210.059 2061.45 210.754 Z" fill="#000000" fill-rule="nonzero" fill-opacity="1" /><path clip-path="url(#clip740)" d="M2091.17 220.268 L2091.17 235.916 L2086.91 235.916 L2086.91 220.407 Q2086.91 216.726 2085.48 214.897 Q2084.04 213.069 2081.17 213.069 Q2077.72 213.069 2075.73 215.268 Q2073.74 217.467 2073.74 221.263 L2073.74 235.916 L2069.46 235.916 L2069.46 199.897 L2073.74 199.897 L2073.74 214.018 Q2075.27 211.68 2077.33 210.522 Q2079.41 209.365 2082.12 209.365 Q2086.59 209.365 2088.88 212.143 Q2091.17 214.897 2091.17 220.268 Z" fill="#000000" fill-rule="nonzero" fill-opacity="1" /><path clip-path="url(#clip740)" d="M2111.45 222.883 Q2106.29 222.883 2104.3 224.064 Q2102.31 225.244 2102.31 228.092 Q2102.31 230.36 2103.79 231.703 Q2105.29 233.022 2107.86 233.022 Q2111.41 233.022 2113.53 230.522 Q2115.69 227.999 2115.69 223.832 L2115.69 222.883 L2111.45 222.883 M2119.95 221.124 L2119.95 235.916 L2115.69 235.916 L2115.69 231.981 Q2114.23 234.342 2112.05 235.476 Q2109.88 236.587 2106.73 236.587 Q2102.75 236.587 2100.39 234.365 Q2098.05 232.119 2098.05 228.369 Q2098.05 223.994 2100.97 221.772 Q2103.91 219.55 2109.72 219.55 L2115.69 219.55 L2115.69 219.133 Q2115.69 216.194 2113.74 214.596 Q2111.82 212.976 2108.33 212.976 Q2106.1 212.976 2104 213.508 Q2101.89 214.041 2099.95 215.106 L2099.95 211.17 Q2102.28 210.268 2104.48 209.828 Q2106.68 209.365 2108.77 209.365 Q2114.39 209.365 2117.17 212.282 Q2119.95 215.198 2119.95 221.124 Z" fill="#000000" fill-rule="nonzero" fill-opacity="1" /><path clip-path="url(#clip740)" d="M2141.84 199.897 L2141.84 203.439 L2137.77 203.439 Q2135.48 203.439 2134.58 204.365 Q2133.7 205.291 2133.7 207.698 L2133.7 209.99 L2140.71 209.99 L2140.71 213.3 L2133.7 213.3 L2133.7 235.916 L2129.41 235.916 L2129.41 213.3 L2125.34 213.3 L2125.34 209.99 L2129.41 209.99 L2129.41 208.184 Q2129.41 203.856 2131.43 201.888 Q2133.44 199.897 2137.82 199.897 L2141.84 199.897 Z" fill="#000000" fill-rule="nonzero" fill-opacity="1" /><path clip-path="url(#clip740)" d="M2148.79 202.629 L2148.79 209.99 L2157.56 209.99 L2157.56 213.3 L2148.79 213.3 L2148.79 227.374 Q2148.79 230.545 2149.65 231.448 Q2150.53 232.351 2153.19 232.351 L2157.56 232.351 L2157.56 235.916 L2153.19 235.916 Q2148.26 235.916 2146.38 234.087 Q2144.51 232.235 2144.51 227.374 L2144.51 213.3 L2141.38 213.3 L2141.38 209.99 L2144.51 209.99 L2144.51 202.629 L2148.79 202.629 Z" fill="#000000" fill-rule="nonzero" fill-opacity="1" /><polyline clip-path="url(#clip740)" style="stroke:#e26f46; stroke-linecap:round; stroke-linejoin:round; stroke-width:12; stroke-opacity:1; fill:none" points="1673.54,270.476 1814.25,270.476 "/>
<path clip-path="url(#clip740)" d="M1847.31 288.427 Q1837.7 288.427 1837.7 274.677 Q1837.7 269.237 1841.29 261.83 L1845.87 261.83 Q1842.56 269.237 1842.56 274.793 Q1842.56 284.816 1847.7 284.816 Q1852.4 284.816 1852.4 272.362 L1856.34 272.362 Q1856.34 284.816 1861.04 284.816 Q1866.17 284.816 1866.17 274.793 Q1866.17 269.237 1862.86 261.83 L1867.45 261.83 Q1871.04 269.237 1871.04 274.677 Q1871.04 288.427 1861.43 288.427 Q1855.13 288.427 1854.37 281.506 Q1853.42 288.427 1847.31 288.427 Z" fill="#000000" fill-rule="nonzero" fill-opacity="1" /><path clip-path="url(#clip740)" d="M1886.41 277.293 Q1888.54 277.709 1889.69 278.983 Q1890.87 280.233 1890.87 282.131 Q1890.87 285.001 1888.67 286.552 Q1886.48 288.103 1882.38 288.103 Q1881.06 288.103 1879.6 287.848 Q1878.17 287.617 1876.55 287.154 L1876.55 284.353 Q1877.75 284.978 1879.11 285.279 Q1880.5 285.58 1882.05 285.58 Q1884.58 285.58 1885.97 284.677 Q1887.36 283.751 1887.36 282.131 Q1887.36 280.418 1886.06 279.538 Q1884.79 278.659 1882.29 278.659 L1880.3 278.659 L1880.3 276.159 L1882.47 276.159 Q1884.65 276.159 1885.76 275.441 Q1886.89 274.7 1886.89 273.311 Q1886.89 271.969 1885.73 271.274 Q1884.58 270.557 1882.38 270.557 Q1881.45 270.557 1880.27 270.765 Q1879.09 270.973 1877.22 271.506 L1877.22 268.844 Q1878.91 268.45 1880.39 268.242 Q1881.87 268.034 1883.14 268.034 Q1886.48 268.034 1888.42 269.399 Q1890.39 270.765 1890.39 273.057 Q1890.39 274.654 1889.35 275.765 Q1888.3 276.876 1886.41 277.293 Z" fill="#000000" fill-rule="nonzero" fill-opacity="1" /><path clip-path="url(#clip740)" d="M1931.48 262.825 L1931.48 266.807 Q1929.67 265.811 1927.84 265.325 Q1926.04 264.816 1924.18 264.816 Q1920.04 264.816 1917.75 267.455 Q1915.46 270.071 1915.46 274.816 Q1915.46 279.561 1917.75 282.2 Q1920.04 284.816 1924.18 284.816 Q1926.04 284.816 1927.84 284.33 Q1929.67 283.821 1931.48 282.825 L1931.48 286.76 Q1929.69 287.594 1927.77 288.01 Q1925.87 288.427 1923.72 288.427 Q1917.86 288.427 1914.42 284.746 Q1910.97 281.066 1910.97 274.816 Q1910.97 268.473 1914.44 264.839 Q1917.93 261.205 1924 261.205 Q1925.97 261.205 1927.84 261.622 Q1929.72 262.015 1931.48 262.825 Z" fill="#000000" fill-rule="nonzero" fill-opacity="1" /><path clip-path="url(#clip740)" d="M1948.93 264.816 Q1945.5 264.816 1943.51 267.501 Q1941.52 270.163 1941.52 274.816 Q1941.52 279.469 1943.49 282.154 Q1945.48 284.816 1948.93 284.816 Q1952.33 284.816 1954.32 282.131 Q1956.31 279.446 1956.31 274.816 Q1956.31 270.21 1954.32 267.524 Q1952.33 264.816 1948.93 264.816 M1948.93 261.205 Q1954.48 261.205 1957.66 264.816 Q1960.83 268.427 1960.83 274.816 Q1960.83 281.182 1957.66 284.816 Q1954.48 288.427 1948.93 288.427 Q1943.35 288.427 1940.18 284.816 Q1937.03 281.182 1937.03 274.816 Q1937.03 268.427 1940.18 264.816 Q1943.35 261.205 1948.93 261.205 Z" fill="#000000" fill-rule="nonzero" fill-opacity="1" /><path clip-path="url(#clip740)" d="M1989.44 272.108 L1989.44 287.756 L1985.18 287.756 L1985.18 272.247 Q1985.18 268.566 1983.74 266.737 Q1982.31 264.909 1979.44 264.909 Q1975.99 264.909 1974 267.108 Q1972.01 269.307 1972.01 273.103 L1972.01 287.756 L1967.73 287.756 L1967.73 261.83 L1972.01 261.83 L1972.01 265.858 Q1973.54 263.52 1975.6 262.362 Q1977.68 261.205 1980.39 261.205 Q1984.85 261.205 1987.15 263.983 Q1989.44 266.737 1989.44 272.108 Z" fill="#000000" fill-rule="nonzero" fill-opacity="1" /><path clip-path="url(#clip740)" d="M2019.48 272.108 L2019.48 287.756 L2015.22 287.756 L2015.22 272.247 Q2015.22 268.566 2013.79 266.737 Q2012.35 264.909 2009.48 264.909 Q2006.04 264.909 2004.04 267.108 Q2002.05 269.307 2002.05 273.103 L2002.05 287.756 L1997.77 287.756 L1997.77 261.83 L2002.05 261.83 L2002.05 265.858 Q2003.58 263.52 2005.64 262.362 Q2007.73 261.205 2010.43 261.205 Q2014.9 261.205 2017.19 263.983 Q2019.48 266.737 2019.48 272.108 Z" fill="#000000" fill-rule="nonzero" fill-opacity="1" /><path clip-path="url(#clip740)" d="M2050.16 273.728 L2050.16 275.811 L2030.57 275.811 Q2030.85 280.209 2033.21 282.524 Q2035.6 284.816 2039.83 284.816 Q2042.29 284.816 2044.58 284.214 Q2046.89 283.612 2049.16 282.409 L2049.16 286.436 Q2046.87 287.408 2044.46 287.918 Q2042.05 288.427 2039.58 288.427 Q2033.37 288.427 2029.74 284.816 Q2026.13 281.205 2026.13 275.047 Q2026.13 268.682 2029.55 264.955 Q2033 261.205 2038.84 261.205 Q2044.07 261.205 2047.1 264.585 Q2050.16 267.941 2050.16 273.728 M2045.9 272.478 Q2045.85 268.983 2043.93 266.899 Q2042.03 264.816 2038.88 264.816 Q2035.32 264.816 2033.16 266.83 Q2031.04 268.844 2030.71 272.501 L2045.9 272.478 Z" fill="#000000" fill-rule="nonzero" fill-opacity="1" /><path clip-path="url(#clip740)" d="M2075.8 262.825 L2075.8 266.807 Q2074 265.811 2072.17 265.325 Q2070.36 264.816 2068.51 264.816 Q2064.37 264.816 2062.08 267.455 Q2059.78 270.071 2059.78 274.816 Q2059.78 279.561 2062.08 282.2 Q2064.37 284.816 2068.51 284.816 Q2070.36 284.816 2072.17 284.33 Q2074 283.821 2075.8 282.825 L2075.8 286.76 Q2074.02 287.594 2072.1 288.01 Q2070.2 288.427 2068.05 288.427 Q2062.19 288.427 2058.74 284.746 Q2055.29 281.066 2055.29 274.816 Q2055.29 268.473 2058.77 264.839 Q2062.26 261.205 2068.33 261.205 Q2070.29 261.205 2072.17 261.622 Q2074.04 262.015 2075.8 262.825 Z" fill="#000000" fill-rule="nonzero" fill-opacity="1" /><path clip-path="url(#clip740)" d="M2087.42 254.469 L2087.42 261.83 L2096.2 261.83 L2096.2 265.14 L2087.42 265.14 L2087.42 279.214 Q2087.42 282.385 2088.28 283.288 Q2089.16 284.191 2091.82 284.191 L2096.2 284.191 L2096.2 287.756 L2091.82 287.756 Q2086.89 287.756 2085.02 285.927 Q2083.14 284.075 2083.14 279.214 L2083.14 265.14 L2080.02 265.14 L2080.02 261.83 L2083.14 261.83 L2083.14 254.469 L2087.42 254.469 Z" fill="#000000" fill-rule="nonzero" fill-opacity="1" /><path clip-path="url(#clip740)" d="M2101.8 261.83 L2106.06 261.83 L2106.06 287.756 L2101.8 287.756 L2101.8 261.83 M2101.8 251.737 L2106.06 251.737 L2106.06 257.131 L2101.8 257.131 L2101.8 251.737 Z" fill="#000000" fill-rule="nonzero" fill-opacity="1" /><path clip-path="url(#clip740)" d="M2136.52 272.108 L2136.52 287.756 L2132.26 287.756 L2132.26 272.247 Q2132.26 268.566 2130.83 266.737 Q2129.39 264.909 2126.52 264.909 Q2123.07 264.909 2121.08 267.108 Q2119.09 269.307 2119.09 273.103 L2119.09 287.756 L2114.81 287.756 L2114.81 261.83 L2119.09 261.83 L2119.09 265.858 Q2120.62 263.52 2122.68 262.362 Q2124.76 261.205 2127.47 261.205 Q2131.94 261.205 2134.23 263.983 Q2136.52 266.737 2136.52 272.108 Z" fill="#000000" fill-rule="nonzero" fill-opacity="1" /><path clip-path="url(#clip740)" d="M2162.08 274.492 Q2162.08 269.862 2160.15 267.316 Q2158.26 264.77 2154.81 264.77 Q2151.38 264.77 2149.46 267.316 Q2147.56 269.862 2147.56 274.492 Q2147.56 279.098 2149.46 281.645 Q2151.38 284.191 2154.81 284.191 Q2158.26 284.191 2160.15 281.645 Q2162.08 279.098 2162.08 274.492 M2166.34 284.538 Q2166.34 291.158 2163.4 294.376 Q2160.46 297.617 2154.39 297.617 Q2152.15 297.617 2150.15 297.27 Q2148.16 296.945 2146.29 296.251 L2146.29 292.108 Q2148.16 293.126 2149.99 293.612 Q2151.82 294.098 2153.72 294.098 Q2157.91 294.098 2159.99 291.899 Q2162.08 289.723 2162.08 285.302 L2162.08 283.196 Q2160.76 285.487 2158.7 286.621 Q2156.64 287.756 2153.77 287.756 Q2149 287.756 2146.08 284.121 Q2143.16 280.487 2143.16 274.492 Q2143.16 268.473 2146.08 264.839 Q2149 261.205 2153.77 261.205 Q2156.64 261.205 2158.7 262.339 Q2160.76 263.473 2162.08 265.765 L2162.08 261.83 L2166.34 261.83 L2166.34 284.538 Z" fill="#000000" fill-rule="nonzero" fill-opacity="1" /><path clip-path="url(#clip740)" d="M2205.2 265.811 Q2204.48 265.395 2203.63 265.21 Q2202.79 265.001 2201.77 265.001 Q2198.16 265.001 2196.22 267.362 Q2194.3 269.7 2194.3 274.098 L2194.3 287.756 L2190.02 287.756 L2190.02 261.83 L2194.3 261.83 L2194.3 265.858 Q2195.64 263.497 2197.79 262.362 Q2199.95 261.205 2203.02 261.205 Q2203.46 261.205 2204 261.274 Q2204.53 261.321 2205.18 261.436 L2205.2 265.811 Z" fill="#000000" fill-rule="nonzero" fill-opacity="1" /><path clip-path="url(#clip740)" d="M2218.67 264.816 Q2215.25 264.816 2213.26 267.501 Q2211.27 270.163 2211.27 274.816 Q2211.27 279.469 2213.23 282.154 Q2215.22 284.816 2218.67 284.816 Q2222.08 284.816 2224.07 282.131 Q2226.06 279.446 2226.06 274.816 Q2226.06 270.21 2224.07 267.524 Q2222.08 264.816 2218.67 264.816 M2218.67 261.205 Q2224.23 261.205 2227.4 264.816 Q2230.57 268.427 2230.57 274.816 Q2230.57 281.182 2227.4 284.816 Q2224.23 288.427 2218.67 288.427 Q2213.09 288.427 2209.92 284.816 Q2206.77 281.182 2206.77 274.816 Q2206.77 268.427 2209.92 264.816 Q2213.09 261.205 2218.67 261.205 Z" fill="#000000" fill-rule="nonzero" fill-opacity="1" /><path clip-path="url(#clip740)" d="M2254.69 265.765 L2254.69 251.737 L2258.95 251.737 L2258.95 287.756 L2254.69 287.756 L2254.69 283.867 Q2253.35 286.182 2251.29 287.316 Q2249.25 288.427 2246.38 288.427 Q2241.68 288.427 2238.72 284.677 Q2235.78 280.927 2235.78 274.816 Q2235.78 268.705 2238.72 264.955 Q2241.68 261.205 2246.38 261.205 Q2249.25 261.205 2251.29 262.339 Q2253.35 263.45 2254.69 265.765 M2240.18 274.816 Q2240.18 279.515 2242.1 282.2 Q2244.04 284.862 2247.42 284.862 Q2250.8 284.862 2252.75 282.2 Q2254.69 279.515 2254.69 274.816 Q2254.69 270.117 2252.75 267.455 Q2250.8 264.77 2247.42 264.77 Q2244.04 264.77 2242.1 267.455 Q2240.18 270.117 2240.18 274.816 Z" fill="#000000" fill-rule="nonzero" fill-opacity="1" /></svg>
